<svg width="32" height="24" viewBox="0 0 32 24" fill="none" xmlns="http://www.w3.org/2000/svg">
<g clip-path="url(#clip0)">
<path d="M21.3333 0H0V16H21.3333V0Z" fill="#000066"/>
<path d="M0 0V0.931691L10.2346 8.33333H11.5228V7.40167L1.28825 2.77777e-05H0L0 0ZM11.5228 0V0.931663L1.28825 8.3333H0V7.40164L10.2346 0H11.5228Z" fill="white"/>
<path d="M4.80117 0V8.3333H6.72164V0H4.80117ZM0 2.77777V5.55553H11.5228V2.77777H0Z" fill="white"/>
<path d="M0 3.33332V4.99998H11.5228V3.33332H0ZM5.18527 0V8.3333H6.33755V0H5.18527Z" fill="#CC0000"/>
<path d="M0 8.3333L3.84094 5.55553H4.69977L0.858834 8.3333H0H0ZM0 0L3.84094 2.77777H2.9821L0 0.621136V0L0 0ZM6.82304 2.77777L10.664 0H11.5228L7.68187 2.77777H6.82304ZM11.5228 8.3333L7.68187 5.55553H8.54071L11.5228 7.71219V8.3333Z" fill="#CC0000"/>
<path fill-rule="evenodd" clip-rule="evenodd" d="M9.99197 13.0842L8.53688 13.2107L8.73735 14.6576L7.73113 13.5988L6.72492 14.6576L6.92539 13.2107L5.4703 13.0842L6.7262 12.3388L5.91814 11.1223L7.28381 11.6394L7.73113 10.249L8.17846 11.6394L9.54413 11.1223L8.73607 12.3388L9.99197 13.0842Z" fill="white"/>
<path fill-rule="evenodd" clip-rule="evenodd" d="M16.2175 14.4176L15.8663 13.8892L16.4599 14.1139L16.654 13.5098L16.8482 14.1139L17.4418 13.8892L17.0906 14.4176L17.6362 14.7416L17.0041 14.7966L17.0913 15.425L16.654 14.9651L16.2168 15.425L16.304 14.7966L15.6719 14.7416L16.2175 14.4176Z" fill="white"/>
<path fill-rule="evenodd" clip-rule="evenodd" d="M16.2175 5.0143L15.8663 4.48577L16.4599 4.71051L16.654 4.10645L16.8482 4.71051L17.4418 4.48577L17.0906 5.0143L17.6362 5.3382L17.0041 5.3932L17.0913 6.02157L16.654 5.56176L16.2168 6.02157L16.304 5.3932L15.6719 5.3382L16.2175 5.0143Z" fill="white"/>
<path fill-rule="evenodd" clip-rule="evenodd" d="M12.6913 8.83415L12.3401 8.30569L12.9336 8.53043L13.1278 7.92627L13.322 8.53043L13.9156 8.30569L13.5644 8.83415L14.11 9.15809L13.4779 9.2131L13.5651 9.84147L13.1278 9.38165L12.6906 9.84147L12.7778 9.2131L12.1457 9.15809L12.6913 8.83415Z" fill="white"/>
<path fill-rule="evenodd" clip-rule="evenodd" d="M19.3527 7.89372L19.0008 7.36526L19.5948 7.58999L19.7876 6.98584L19.9827 7.58999L20.5751 7.36526L20.2248 7.89372L20.7702 8.21766L20.1379 8.27266L20.2248 8.90103L19.7876 8.44122L19.3503 8.90103L19.4373 8.27266L18.8061 8.21766L19.3527 7.89372Z" fill="white"/>
<path fill-rule="evenodd" clip-rule="evenodd" d="M18.0645 10.6643L17.719 10.8785L17.816 10.4838L17.5055 10.2217L17.911 10.1918L18.0645 9.81543L18.218 10.1918L18.6235 10.2217L18.313 10.4838L18.4101 10.8785L18.0645 10.6643Z" fill="white"/>
</g>
<g clip-path="url(#clip1)">
<path d="M26.9941 8H15.673V24H26.9941V8Z" fill="white"/>
<path d="M15.6728 8H10.0123V24H15.6728V8Z" fill="#BF0A30"/>
<path d="M32.6547 8H26.9941V24H32.6547V8Z" fill="#BF0A30"/>
<path d="M17.3658 15.7314L16.9263 15.8816L18.9718 17.6768C19.1265 18.1382 18.9181 18.2742 18.7852 18.5162L21.0059 18.2343L20.948 20.4691L21.408 20.4558L21.3077 18.2397L23.5305 18.5032C23.3929 18.2126 23.2705 18.0584 23.3977 17.5939L25.4419 15.8931L25.0842 15.7636C24.7917 15.5379 25.2106 14.6766 25.2737 14.133C25.2737 14.133 24.0801 14.5435 24.0019 14.3287L23.698 13.7448L22.6121 14.9377C22.4935 14.9661 22.4429 14.9189 22.4151 14.8186L22.9168 12.326L22.1224 12.7727C22.0559 12.8012 21.9894 12.7766 21.9456 12.6991L21.1815 11.166L20.3937 12.7582C20.3343 12.8153 20.2749 12.8219 20.2255 12.7831L19.4692 12.3588L19.9232 14.832C19.8871 14.9302 19.8006 14.9578 19.6988 14.9046L18.6608 13.7254C18.5251 13.9429 18.433 14.2984 18.2536 14.378C18.0741 14.4526 17.4729 14.2273 17.07 14.1393C17.2077 14.6361 17.638 15.4613 17.3657 15.7317L17.3658 15.7314Z" fill="#BF0A30"/>
</g>
<defs>
<clipPath id="clip0">
<rect width="21.3333" height="16" fill="white"/>
</clipPath>
<clipPath id="clip1">
<rect width="21.3333" height="16" fill="white" transform="translate(10.6667 8)"/>
</clipPath>
</defs>
</svg>
