<svg width="14" height="14" viewBox="0 0 14 14" fill="none" xmlns="http://www.w3.org/2000/svg">
<path d="M13.2578 6.41116L7.42365 13.1348C7.37091 13.1956 7.30571 13.2444 7.23247 13.2779C7.15922 13.3113 7.07965 13.3286 6.99913 13.3286C6.91862 13.3286 6.83904 13.3113 6.7658 13.2779C6.69256 13.2444 6.62736 13.1956 6.57462 13.1348L0.742201 6.41116C0.724576 6.39089 0.713148 6.36599 0.709279 6.33941C0.705409 6.31283 0.709261 6.2857 0.720375 6.26125C0.731488 6.2368 0.749396 6.21606 0.771965 6.2015C0.794533 6.18694 0.820812 6.17917 0.847669 6.17913H2.2715C2.35236 6.17913 2.4297 6.21428 2.48419 6.27581L6.33204 10.7108V0.812526C6.33204 0.735182 6.39533 0.671901 6.47267 0.671901H7.52736C7.6047 0.671901 7.66798 0.735182 7.66798 0.812526V10.7108L11.5158 6.27581C11.5686 6.21428 11.6459 6.17913 11.7285 6.17913H13.1524C13.2719 6.17913 13.3369 6.31975 13.2578 6.41116Z" fill="#EB5757" fill-opacity="0.75"/>
</svg>
