<svg width="36" height="36" viewBox="0 0 36 36" fill="none" xmlns="http://www.w3.org/2000/svg">
<path d="M18 0.5C14.5388 0.5 11.1554 1.52636 8.27753 3.44928C5.39967 5.37221 3.15665 8.10533 1.83212 11.303C0.507582 14.5007 0.161024 18.0194 0.836265 21.4141C1.51151 24.8087 3.17822 27.9269 5.62564 30.3744C8.07306 32.8218 11.1913 34.4885 14.5859 35.1637C17.9806 35.839 21.4993 35.4924 24.697 34.1679C27.8947 32.8434 30.6278 30.6003 32.5507 27.7225C34.4737 24.8446 35.5 21.4612 35.5 18C35.5 13.3587 33.6563 8.90752 30.3744 5.62563C27.0925 2.34374 22.6413 0.5 18 0.5ZM18 6.75C19.1125 6.75 20.2001 7.0799 21.1251 7.69798C22.0501 8.31607 22.7711 9.19457 23.1968 10.2224C23.6226 11.2502 23.734 12.3812 23.5169 13.4724C23.2999 14.5635 22.7642 15.5658 21.9775 16.3525C21.1908 17.1391 20.1885 17.6749 19.0974 17.8919C18.0062 18.109 16.8752 17.9976 15.8474 17.5718C14.8196 17.1461 13.9411 16.4251 13.323 15.5001C12.7049 14.5751 12.375 13.4875 12.375 12.375C12.3734 11.6359 12.5177 10.9037 12.7998 10.2205C13.0819 9.53726 13.4962 8.91651 14.0189 8.39385C14.5415 7.87119 15.1623 7.45692 15.8455 7.17482C16.5287 6.89272 17.2609 6.74835 18 6.75ZM28 29.15C25.2588 31.6279 21.6952 32.9998 18 32.9998C14.3048 32.9998 10.7412 31.6279 8.00001 29.15V28.425C7.95267 26.7135 8.58253 25.0524 9.75276 23.8026C10.923 22.5528 12.5391 21.8152 14.25 21.75H21.75C23.4532 21.8184 25.0616 22.5517 26.2302 23.7927C27.3987 25.0337 28.0341 26.6833 28 28.3875V29.15Z" fill="#A6B1DC"/>
</svg>
