<?xml version="1.0" standalone="no"?>
<!DOCTYPE svg PUBLIC "-//W3C//DTD SVG 20010904//EN"
 "http://www.w3.org/TR/2001/REC-SVG-20010904/DTD/svg10.dtd">
<svg version="1.0" xmlns="http://www.w3.org/2000/svg"
 width="169.000000pt" height="40.000000pt" viewBox="0 0 2933.000000 850.000000"
 preserveAspectRatio="xMidYMid meet">
<metadata>
Created by potrace 1.16, written by Peter Selinger 2001-2019
</metadata>
<g transform="translate(0.000000,850.000000) scale(0.100000,-0.100000)"
fill="#000000" stroke="none">
<path d="M12553 5933 c12 -146 62 -213 125 -166 19 14 28 30 30 56 3 30 8 38
29 43 16 4 28 2 34 -7 7 -12 9 -11 10 1 4 50 -6 77 -37 107 -32 32 -36 33
-115 33 l-82 0 6 -67z"/>
<path d="M21892 5240 c-22 -10 -52 -64 -52 -96 0 -34 32 -83 60 -93 41 -14 69
11 77 66 7 53 -2 87 -29 113 -24 22 -24 22 -56 10z"/>
<path d="M10695 4099 c-22 -12 -56 -24 -75 -28 -28 -5 -36 -11 -38 -32 -2 -19
3 -28 23 -37 34 -16 36 -67 3 -78 -30 -10 -59 -6 -79 12 -21 19 -45 18 -53 -2
-10 -27 -7 -437 4 -476 13 -45 45 -58 146 -58 82 0 84 3 59 63 -26 62 -20 91
26 130 22 19 70 49 105 66 66 32 132 93 187 173 28 42 34 86 17 118 -10 19
-158 138 -197 158 -33 18 -85 14 -128 -9z"/>
</g>
</svg>
