<svg width="14" height="14" viewBox="0 0 14 14" fill="none" xmlns="http://www.w3.org/2000/svg">
<path d="M13.2578 7.58884L7.42365 0.865209C7.37091 0.804369 7.30571 0.755575 7.23247 0.722134C7.15923 0.688694 7.07965 0.671387 6.99914 0.671387C6.91862 0.671387 6.83905 0.688694 6.7658 0.722134C6.69256 0.755575 6.62736 0.804369 6.57462 0.865209L0.742202 7.58884C0.724578 7.60911 0.71315 7.63401 0.709281 7.66059C0.705411 7.68717 0.709263 7.7143 0.720377 7.73875C0.73149 7.7632 0.749398 7.78394 0.771967 7.7985C0.794535 7.81306 0.820813 7.82083 0.847671 7.82087H2.2715C2.35236 7.82087 2.4297 7.78572 2.48419 7.72419L6.33205 3.28923V13.1875C6.33205 13.2648 6.39533 13.3281 6.47267 13.3281H7.52736C7.6047 13.3281 7.66798 13.2648 7.66798 13.1875V3.28923L11.5158 7.72419C11.5686 7.78572 11.6459 7.82087 11.7285 7.82087H13.1524C13.2719 7.82087 13.3369 7.68025 13.2578 7.58884Z" fill="#219653"/>
</svg>
