<svg width="32" height="32" viewBox="0 0 32 32" fill="none" xmlns="http://www.w3.org/2000/svg">
<path d="M16 0.25C12.885 0.25 9.83985 1.17372 7.24978 2.90435C4.6597 4.63499 2.64098 7.0948 1.4489 9.97274C0.256824 12.8507 -0.0550783 16.0175 0.552639 19.0727C1.16036 22.1279 2.6604 24.9343 4.86308 27.1369C7.06575 29.3396 9.87214 30.8397 12.9273 31.4474C15.9825 32.0551 19.1493 31.7432 22.0273 30.5511C24.9052 29.359 27.365 27.3403 29.0957 24.7502C30.8263 22.1602 31.75 19.1151 31.75 16C31.75 11.8228 30.0906 7.81677 27.1369 4.86307C24.1832 1.90937 20.1772 0.25 16 0.25ZM16 5.875C17.0013 5.875 17.9801 6.17191 18.8126 6.72819C19.6451 7.28446 20.294 8.07511 20.6771 9.00016C21.0603 9.92522 21.1606 10.9431 20.9652 11.9251C20.7699 12.9072 20.2877 13.8092 19.5797 14.5172C18.8717 15.2252 17.9697 15.7074 16.9877 15.9027C16.0056 16.0981 14.9877 15.9978 14.0627 15.6146C13.1376 15.2315 12.347 14.5826 11.7907 13.7501C11.2344 12.9176 10.9375 11.9388 10.9375 10.9375C10.936 10.2723 11.066 9.61329 11.3198 8.99841C11.5737 8.38353 11.9466 7.82486 12.417 7.35446C12.8874 6.88407 13.446 6.51123 14.0609 6.25734C14.6758 6.00345 15.3348 5.87352 16 5.875ZM25 26.035C22.5329 28.2651 19.3257 29.4998 16 29.4998C12.6743 29.4998 9.46711 28.2651 7.00001 26.035V25.3825C6.9574 23.8421 7.52427 22.3472 8.57749 21.2224C9.6307 20.0975 11.0852 19.4337 12.625 19.375H19.375C20.9079 19.4365 22.3555 20.0966 23.4071 21.2134C24.4588 22.3303 25.0307 23.815 25 25.3487V26.035Z" fill="#A6B1DC" fill-opacity="0.75"/>
</svg>
