<svg width="6" height="10" viewBox="0 0 6 10" fill="none" xmlns="http://www.w3.org/2000/svg">
<path d="M5.556 0.995999V2.124H3.084L2.688 3.456C2.848 3.44 2.972 3.432 3.06 3.432C3.812 3.432 4.428 3.668 4.908 4.14C5.428 4.644 5.688 5.328 5.688 6.192C5.688 7.064 5.416 7.772 4.872 8.316C4.32 8.86 3.58 9.132 2.652 9.132C2.044 9.132 1.532 9.012 1.116 8.772C0.732 8.54 0.416 8.232 0.168 7.848L1.092 7.08C1.204 7.352 1.408 7.584 1.704 7.776C1.976 7.96 2.324 8.052 2.748 8.052C3.252 8.052 3.66 7.904 3.972 7.608C4.316 7.264 4.488 6.812 4.488 6.252C4.488 5.692 4.328 5.26 4.008 4.956C3.696 4.66 3.26 4.512 2.7 4.512C2.38 4.512 2.068 4.568 1.764 4.68C1.492 4.784 1.256 4.904 1.056 5.04L2.244 0.995999H5.556Z" fill="#A6B1DC"/>
</svg>
