<svg width="14" height="14" viewBox="0 0 14 14" fill="none" xmlns="http://www.w3.org/2000/svg">
<path d="M13.2578 6.41116L7.42365 13.1348C7.37092 13.1956 7.30572 13.2444 7.23247 13.2779C7.15923 13.3113 7.07966 13.3286 6.99914 13.3286C6.91863 13.3286 6.83905 13.3113 6.76581 13.2779C6.69257 13.2444 6.62737 13.1956 6.57463 13.1348L0.742208 6.41116C0.724584 6.39089 0.713156 6.36599 0.709286 6.33941C0.705417 6.31283 0.709268 6.2857 0.720382 6.26125C0.731496 6.2368 0.749404 6.21606 0.771972 6.2015C0.794541 6.18694 0.820819 6.17917 0.847677 6.17913H2.27151C2.35236 6.17913 2.42971 6.21428 2.4842 6.27581L6.33205 10.7108V0.812526C6.33205 0.735182 6.39533 0.671901 6.47268 0.671901H7.52736C7.60471 0.671901 7.66799 0.735182 7.66799 0.812526V10.7108L11.5158 6.27581C11.5686 6.21428 11.6459 6.17913 11.7285 6.17913H13.1524C13.2719 6.17913 13.3369 6.31975 13.2578 6.41116Z" fill="#EB5757" fill-opacity="0.75"/>
</svg>
