<svg width="20" height="20" viewBox="0 0 20 20" fill="none" xmlns="http://www.w3.org/2000/svg">
<path d="M10 0C8.02219 0 6.08879 0.58649 4.4443 1.6853C2.79981 2.78412 1.51809 4.3459 0.761209 6.17316C0.00433283 8.00043 -0.1937 10.0111 0.192152 11.9509C0.578004 13.8907 1.53041 15.6725 2.92894 17.0711C4.32746 18.4696 6.10929 19.422 8.0491 19.8078C9.98891 20.1937 11.9996 19.9957 13.8268 19.2388C15.6541 18.4819 17.2159 17.2002 18.3147 15.5557C19.4135 13.9112 20 11.9778 20 10C20 7.34783 18.9464 4.80429 17.0711 2.92893C15.1957 1.05357 12.6522 0 10 0ZM10 3.57143C10.6357 3.57143 11.2572 3.75994 11.7858 4.11313C12.3144 4.46632 12.7263 4.96833 12.9696 5.55566C13.2129 6.14299 13.2765 6.78928 13.1525 7.41279C13.0285 8.0363 12.7224 8.60903 12.2728 9.05856C11.8233 9.50808 11.2506 9.81421 10.6271 9.93824C10.0036 10.0623 9.35728 9.99861 8.76995 9.75533C8.18262 9.51204 7.68061 9.10006 7.32742 8.57147C6.97423 8.04289 6.78572 7.42144 6.78572 6.78571C6.78478 6.36334 6.86727 5.94495 7.02847 5.55455C7.18967 5.16415 7.4264 4.80943 7.72506 4.51077C8.02372 4.21211 8.37844 3.97538 8.76884 3.81418C9.15924 3.65298 9.57763 3.57049 10 3.57143ZM15.7143 16.3714C14.1479 17.7874 12.1115 18.5713 10 18.5713C7.88847 18.5713 5.85214 17.7874 4.28572 16.3714V15.9571C4.25867 14.9791 4.61859 14.03 5.28729 13.3158C5.956 12.6016 6.87948 12.1801 7.85715 12.1429H12.1429C13.1161 12.1819 14.0352 12.601 14.7029 13.3101C15.3707 14.0192 15.7338 14.9619 15.7143 15.9357V16.3714Z" fill="#F8F8F8" fill-opacity="0.5"/>
</svg>
