<svg width="22" height="20" viewBox="0 0 22 20" fill="none" xmlns="http://www.w3.org/2000/svg">
<path fill-rule="evenodd" clip-rule="evenodd" d="M22 9.37629C22 14.5547 17.0748 18.7526 11 18.7526C9.91052 18.754 8.82556 18.6162 7.77287 18.3427C6.96987 18.7392 5.126 19.5 2.024 19.9956C1.749 20.0385 1.54 19.7599 1.64863 19.5107C2.13538 18.3909 2.57538 16.8988 2.70738 15.5378C1.023 13.8903 0 11.7338 0 9.37629C0 4.1979 4.92525 0 11 0C17.0748 0 22 4.1979 22 9.37629ZM6.875 9.37629C6.875 9.73154 6.73013 10.0722 6.47227 10.3234C6.21441 10.5746 5.86467 10.7158 5.5 10.7158C5.13533 10.7158 4.78559 10.5746 4.52773 10.3234C4.26987 10.0722 4.125 9.73154 4.125 9.37629C4.125 9.02104 4.26987 8.68034 4.52773 8.42914C4.78559 8.17794 5.13533 8.03682 5.5 8.03682C5.86467 8.03682 6.21441 8.17794 6.47227 8.42914C6.73013 8.68034 6.875 9.02104 6.875 9.37629ZM12.375 9.37629C12.375 9.73154 12.2301 10.0722 11.9723 10.3234C11.7144 10.5746 11.3647 10.7158 11 10.7158C10.6353 10.7158 10.2856 10.5746 10.0277 10.3234C9.76987 10.0722 9.625 9.73154 9.625 9.37629C9.625 9.02104 9.76987 8.68034 10.0277 8.42914C10.2856 8.17794 10.6353 8.03682 11 8.03682C11.3647 8.03682 11.7144 8.17794 11.9723 8.42914C12.2301 8.68034 12.375 9.02104 12.375 9.37629ZM16.5 10.7158C16.8647 10.7158 17.2144 10.5746 17.4723 10.3234C17.7301 10.0722 17.875 9.73154 17.875 9.37629C17.875 9.02104 17.7301 8.68034 17.4723 8.42914C17.2144 8.17794 16.8647 8.03682 16.5 8.03682C16.1353 8.03682 15.7856 8.17794 15.5277 8.42914C15.2699 8.68034 15.125 9.02104 15.125 9.37629C15.125 9.73154 15.2699 10.0722 15.5277 10.3234C15.7856 10.5746 16.1353 10.7158 16.5 10.7158Z" fill="#F8F8F8" fill-opacity="0.5"/>
</svg>
