<svg width="24" height="24" viewBox="0 0 24 24" fill="none" xmlns="http://www.w3.org/2000/svg">
<path fill-rule="evenodd" clip-rule="evenodd" d="M2 7.5C2 6.83696 2.26339 6.20107 2.73223 5.73223C3.20107 5.26339 3.83696 5 4.5 5H19.5C20.163 5 20.7989 5.26339 21.2678 5.73223C21.7366 6.20107 22 6.83696 22 7.5V13.75H2V7.5ZM16.375 8.75C16.2092 8.75 16.0503 8.81585 15.9331 8.93306C15.8158 9.05027 15.75 9.20924 15.75 9.375V10.625C15.75 10.7908 15.8158 10.9497 15.9331 11.0669C16.0503 11.1842 16.2092 11.25 16.375 11.25H18.875C19.0408 11.25 19.1997 11.1842 19.3169 11.0669C19.4342 10.9497 19.5 10.7908 19.5 10.625V9.375C19.5 9.20924 19.4342 9.05027 19.3169 8.93306C19.1997 8.81585 19.0408 8.75 18.875 8.75H16.375Z" fill="#F8F8F8" fill-opacity="0.5"/>
<path d="M2 16.25V17.5C2 18.163 2.26339 18.7989 2.73223 19.2678C3.20107 19.7366 3.83696 20 4.5 20H19.5C20.163 20 20.7989 19.7366 21.2678 19.2678C21.7366 18.7989 22 18.163 22 17.5V16.25H2Z" fill="#F8F8F8" fill-opacity="0.5"/>
</svg>
