<svg width="22" height="22" viewBox="0 0 22 22" fill="none" xmlns="http://www.w3.org/2000/svg">
<path d="M21.1836 10.8358L11.5297 1.18895C11.4602 1.1193 11.3776 1.06404 11.2867 1.02634C11.1958 0.988644 11.0984 0.969238 11 0.969238C10.9016 0.969238 10.8042 0.988644 10.7133 1.02634C10.6224 1.06404 10.5398 1.1193 10.4703 1.18895L0.816418 10.8358C0.535168 11.1171 0.375793 11.4991 0.375793 11.8975C0.375793 12.7249 1.04845 13.3975 1.87579 13.3975H2.89298V20.2811C2.89298 20.696 3.22814 21.0311 3.64298 21.0311H9.50001V15.7811H12.125V21.0311H18.357C18.7719 21.0311 19.107 20.696 19.107 20.2811V13.3975H20.1242C20.5227 13.3975 20.9047 13.2405 21.1859 12.9569C21.7695 12.371 21.7695 11.4218 21.1836 10.8358Z" fill="#F8F8F8" fill-opacity="0.5"/>
</svg>
