<svg width="32" height="24" viewBox="0 0 32 24" fill="none" xmlns="http://www.w3.org/2000/svg">
<g clip-path="url(#clip0)">
<path d="M21.3333 0H0V16H21.3333V0Z" fill="#000066"/>
<path d="M0 0V0.931691L10.2346 8.33333H11.5228V7.40167L1.28825 2.77777e-05H0L0 0ZM11.5228 0V0.931663L1.28825 8.3333H0V7.40164L10.2346 0H11.5228Z" fill="white"/>
<path d="M4.80117 0V8.3333H6.72164V0H4.80117ZM0 2.77777V5.55553H11.5228V2.77777H0Z" fill="white"/>
<path d="M0 3.33332V4.99998H11.5228V3.33332H0ZM5.18527 0V8.3333H6.33755V0H5.18527Z" fill="#CC0000"/>
<path d="M0 8.3333L3.84094 5.55553H4.69977L0.858834 8.3333H0H0ZM0 0L3.84094 2.77777H2.9821L0 0.621136V0L0 0ZM6.82304 2.77777L10.664 0H11.5228L7.68187 2.77777H6.82304ZM11.5228 8.3333L7.68187 5.55553H8.54071L11.5228 7.71219V8.3333Z" fill="#CC0000"/>
<path fill-rule="evenodd" clip-rule="evenodd" d="M9.99195 13.0842L8.53686 13.2107L8.73733 14.6576L7.73111 13.5988L6.72489 14.6576L6.92536 13.2107L5.47028 13.0842L6.72618 12.3388L5.91811 11.1223L7.28379 11.6394L7.73111 10.249L8.17843 11.6394L9.54411 11.1223L8.73604 12.3388L9.99195 13.0842Z" fill="white"/>
<path fill-rule="evenodd" clip-rule="evenodd" d="M16.2175 14.4176L15.8663 13.8892L16.4599 14.1139L16.654 13.5098L16.8482 14.1139L17.4418 13.8892L17.0906 14.4176L17.6362 14.7416L17.0041 14.7966L17.0913 15.425L16.654 14.9651L16.2168 15.425L16.304 14.7966L15.6719 14.7416L16.2175 14.4176Z" fill="white"/>
<path fill-rule="evenodd" clip-rule="evenodd" d="M16.2175 5.01455L15.8663 4.48601L16.4599 4.71075L16.654 4.10669L16.8482 4.71075L17.4418 4.48601L17.0906 5.01455L17.6362 5.33844L17.0041 5.39345L17.0913 6.02182L16.654 5.562L16.2168 6.02182L16.304 5.39345L15.6719 5.33844L16.2175 5.01455Z" fill="white"/>
<path fill-rule="evenodd" clip-rule="evenodd" d="M12.6913 8.83464L12.34 8.30618L12.9336 8.53092L13.1278 7.92676L13.322 8.53092L13.9155 8.30618L13.5643 8.83464L14.11 9.15858L13.4778 9.21359L13.565 9.84196L13.1278 9.38214L12.6905 9.84196L12.7778 9.21359L12.1456 9.15858L12.6913 8.83464Z" fill="white"/>
<path fill-rule="evenodd" clip-rule="evenodd" d="M19.3527 7.89421L19.0007 7.36575L19.5948 7.59048L19.7875 6.98633L19.9827 7.59048L20.5751 7.36575L20.2248 7.89421L20.7702 8.21814L20.1378 8.27315L20.2248 8.90152L19.7875 8.44171L19.3503 8.90152L19.4373 8.27315L18.8061 8.21814L19.3527 7.89421Z" fill="white"/>
<path fill-rule="evenodd" clip-rule="evenodd" d="M18.0645 10.6646L17.7189 10.8787L17.816 10.484L17.5055 10.2219L17.911 10.192L18.0645 9.81567L18.218 10.192L18.6235 10.2219L18.313 10.484L18.4101 10.8787L18.0645 10.6646Z" fill="white"/>
</g>
<g clip-path="url(#clip1)">
<path d="M26.9941 8H15.673V24H26.9941V8Z" fill="white"/>
<path d="M15.6728 8H10.0123V24H15.6728V8Z" fill="#BF0A30"/>
<path d="M32.6547 8H26.9941V24H32.6547V8Z" fill="#BF0A30"/>
<path d="M17.3659 15.7316L16.9263 15.8819L18.9718 17.6771C19.1265 18.1384 18.9181 18.2744 18.7853 18.5164L21.0059 18.2346L20.948 20.4693L21.408 20.4561L21.3077 18.2399L23.5305 18.5034C23.3929 18.2129 23.2705 18.0586 23.3978 17.5941L25.4419 15.8933L25.0842 15.7638C24.7917 15.5381 25.2106 14.6768 25.2738 14.1333C25.2738 14.1333 24.0802 14.5437 24.0019 14.329L23.698 13.745L22.6121 14.9379C22.4935 14.9663 22.4429 14.9191 22.4151 14.8189L22.9168 12.3262L22.1224 12.773C22.0559 12.8014 21.9894 12.7769 21.9456 12.6994L21.1815 11.1663L20.3937 12.7584C20.3343 12.8155 20.2749 12.8221 20.2256 12.7833L19.4692 12.359L19.9232 14.8322C19.8871 14.9304 19.8006 14.958 19.6989 14.9049L18.6609 13.7256C18.5251 13.9432 18.4331 14.2986 18.2536 14.3783C18.0741 14.4528 17.4729 14.2275 17.07 14.1396C17.2077 14.6363 17.638 15.4615 17.3657 15.732L17.3659 15.7316Z" fill="#BF0A30"/>
</g>
<defs>
<clipPath id="clip0">
<rect width="21.3333" height="16" fill="white"/>
</clipPath>
<clipPath id="clip1">
<rect width="21.3333" height="16" fill="white" transform="translate(10.6667 8)"/>
</clipPath>
</defs>
</svg>
