<svg width="24" height="24" viewBox="0 0 24 24" fill="none" xmlns="http://www.w3.org/2000/svg">
<path d="M19.875 21H4.125C3.80859 21 3.54199 20.8916 3.3252 20.6748C3.1084 20.458 3 20.1914 3 19.875V4.125C3 3.80859 3.1084 3.54199 3.3252 3.3252C3.54199 3.1084 3.80859 3 4.125 3H19.875C20.1914 3 20.458 3.11133 20.6748 3.33398C20.8916 3.55664 21 3.82031 21 4.125V19.875C21 20.1914 20.8916 20.458 20.6748 20.6748C20.458 20.8916 20.1914 21 19.875 21ZM19.875 5.25C19.875 4.93359 19.7666 4.66699 19.5498 4.4502C19.333 4.2334 19.0664 4.125 18.75 4.125H5.25C4.93359 4.125 4.66699 4.2334 4.4502 4.4502C4.2334 4.66699 4.125 4.93359 4.125 5.25V9.75L4.77539 8.25586C4.83398 8.04492 4.96289 7.86621 5.16211 7.71973C5.36133 7.57324 5.57227 7.5 5.79492 7.5H8.04492C8.25586 7.5 8.46094 7.57324 8.66016 7.71973C8.85938 7.86621 8.99414 8.04492 9.06445 8.25586L9.24023 8.625H18.1875C18.3398 8.625 18.4717 8.68066 18.583 8.79199C18.6943 8.90332 18.75 9.03516 18.75 9.1875C18.75 9.33984 18.6943 9.47168 18.583 9.58301C18.4717 9.69434 18.3398 9.75 18.1875 9.75H4.125V17.625L4.77539 16.1309C4.83398 15.9199 4.96289 15.7412 5.16211 15.5947C5.36133 15.4482 5.57227 15.375 5.79492 15.375H8.04492C8.25586 15.375 8.46094 15.4482 8.66016 15.5947C8.85938 15.7412 8.99414 15.9199 9.06445 16.1309L9.24023 16.5H19.875V5.25ZM9.83789 13.8809C9.89648 13.6699 10.0254 13.4912 10.2246 13.3447C10.4238 13.1982 10.6348 13.125 10.8574 13.125H13.1074C13.3184 13.125 13.5234 13.1982 13.7227 13.3447C13.9219 13.4912 14.0566 13.6699 14.127 13.8809L14.3027 14.25H18.1875C18.3398 14.25 18.4717 14.3057 18.583 14.417C18.6943 14.5283 18.75 14.6602 18.75 14.8125C18.75 14.9648 18.6943 15.0967 18.583 15.208C18.4717 15.3193 18.3398 15.375 18.1875 15.375H9.1875L9.83789 13.8809ZM14.9004 11.6309C14.959 11.4199 15.0879 11.2412 15.2871 11.0947C15.4863 10.9482 15.6973 10.875 15.9199 10.875H18.1699C18.3809 10.875 18.5859 10.9482 18.7852 11.0947C18.9844 11.2412 19.1191 11.4199 19.1895 11.6309L19.875 13.125H14.25L14.9004 11.6309ZM13.125 12H5.8125C5.66016 12 5.52832 11.9443 5.41699 11.833C5.30566 11.7217 5.25 11.5898 5.25 11.4375C5.25 11.2852 5.30566 11.1533 5.41699 11.042C5.52832 10.9307 5.66016 10.875 5.8125 10.875H13.125C13.2773 10.875 13.4092 10.9307 13.5205 11.042C13.6318 11.1533 13.6875 11.2852 13.6875 11.4375C13.6875 11.5898 13.6318 11.7217 13.5205 11.833C13.4092 11.9443 13.2773 12 13.125 12ZM5.8125 13.125H8.0625C8.21484 13.125 8.34668 13.1807 8.45801 13.292C8.56934 13.4033 8.625 13.5352 8.625 13.6875C8.625 13.8398 8.56934 13.9717 8.45801 14.083C8.34668 14.1943 8.21484 14.25 8.0625 14.25H5.8125C5.66016 14.25 5.52832 14.1943 5.41699 14.083C5.30566 13.9717 5.25 13.8398 5.25 13.6875C5.25 13.5352 5.30566 13.4033 5.41699 13.292C5.52832 13.1807 5.66016 13.125 5.8125 13.125ZM18.1875 7.5H9.1875L9.83789 6.00586C9.89648 5.79492 10.0254 5.61621 10.2246 5.46973C10.4238 5.32324 10.6348 5.25 10.8574 5.25H13.1074C13.3184 5.25 13.5234 5.32324 13.7227 5.46973C13.9219 5.61621 14.0566 5.79492 14.127 6.00586L14.3027 6.375H18.1875C18.3398 6.375 18.4717 6.43066 18.583 6.54199C18.6943 6.65332 18.75 6.78516 18.75 6.9375C18.75 7.08984 18.6943 7.22168 18.583 7.33301C18.4717 7.44434 18.3398 7.5 18.1875 7.5ZM8.0625 6.375H5.8125C5.66016 6.375 5.52832 6.31934 5.41699 6.20801C5.30566 6.09668 5.25 5.96484 5.25 5.8125C5.25 5.66016 5.30566 5.52832 5.41699 5.41699C5.52832 5.30566 5.66016 5.25 5.8125 5.25H8.0625C8.21484 5.25 8.34668 5.30566 8.45801 5.41699C8.56934 5.52832 8.625 5.66016 8.625 5.8125C8.625 5.96484 8.56934 6.09668 8.45801 6.20801C8.34668 6.31934 8.21484 6.375 8.0625 6.375Z" fill="#F8F8F8" fill-opacity="0.5"/>
</svg>
