<svg width="12" height="12" viewBox="0 0 12 12" fill="none" xmlns="http://www.w3.org/2000/svg">
<path d="M5.13149 10.263C6.27003 10.2628 7.37576 9.88161 8.27261 9.18024L11.0924 12L11.9994 11.093L9.1796 8.27325C9.88133 7.37631 10.2627 6.27033 10.263 5.13149C10.263 2.30212 7.96087 0 5.13149 0C2.30212 0 0 2.30212 0 5.13149C0 7.96087 2.30212 10.263 5.13149 10.263ZM5.13149 1.28287C7.25401 1.28287 8.98012 3.00898 8.98012 5.13149C8.98012 7.25401 7.25401 8.98012 5.13149 8.98012C3.00898 8.98012 1.28287 7.25401 1.28287 5.13149C1.28287 3.00898 3.00898 1.28287 5.13149 1.28287Z" fill="#F8F8F8" fill-opacity="0.5"/>
</svg>
