<?xml version="1.0" encoding="utf-8"?>
<!-- Generator: Adobe Illustrator 21.1.0, SVG Export Plug-In . SVG Version: 6.00 Build 0)  -->
<svg version="1.1" baseProfile="tiny" id="Layer_1" xmlns="http://www.w3.org/2000/svg" xmlns:xlink="http://www.w3.org/1999/xlink"
	 x="0px" y="0px" viewBox="0 0 640 480" overflow="scroll" xml:space="preserve">
<path fill="#548D1D" d="M549.9,297.4c-31.6,126.9-160.2,204.2-287.2,172.5S58.4,309.7,90.1,182.7S250.3-21.6,377.3,10.1
	S581.5,170.4,549.9,297.4L549.9,297.4z"/>
<path fill="#FFFFFF" d="M424.5,206.2c4.7-31.5-19.3-48.5-52.1-59.8l10.7-42.7l-26-6.5l-10.4,41.6c-6.8-1.7-13.8-3.3-20.8-4.9
	l10.4-41.9l-26-6.5l-10.6,42.7l-52.5-13l-6.9,27.8c0,0,19.3,4.4,18.9,4.7c10.5,2.6,12.4,9.6,12.1,15.1l-29.2,117
	c-1.3,3.2-4.6,8-11.9,6.2c0.3,0.4-18.9-4.7-18.9-4.7l-12.9,29.8l52.4,13.2l-10.8,43.2l26,6.5l10.7-42.8c7.1,1.9,14,3.7,20.7,5.4
	l-10.6,42.6l26,6.5l10.8-43.1c44.3,8.4,77.7,5,91.7-35.1c11.3-32.3-0.6-50.9-23.9-63.1C408.3,240.5,421.1,229.4,424.5,206.2
	 M365.1,289.6c-8.1,32.3-62.4,14.8-80,10.5l14.3-57.2C316.9,247.2,373.4,255.9,365.1,289.6 M373.1,205.8
	c-7.3,29.4-52.6,14.5-67.3,10.8l12.9-51.9C333.5,168.3,380.8,175.1,373.1,205.8"/>
</svg>
