<?xml version="1.0" encoding="utf-8"?>
<!-- Generator: Adobe Illustrator 19.1.1, SVG Export Plug-In . SVG Version: 6.00 Build 0)  -->
<svg version="1.1" id="Layer_2" xmlns="http://www.w3.org/2000/svg" xmlns:xlink="http://www.w3.org/1999/xlink" x="0px" y="0px"
	 viewBox="22 180.9 640 480" style="enable-background:new 22 180.9 640 480;" xml:space="preserve">
<style type="text/css">
	.st0{fill:#FFFFFF;}
	.st1{fill:#F7931A;}
</style>
<g>
	<g>
		<g>
			<path class="st0" d="M579.7,421c0.3,131.3-105.8,238-237.2,238.2c-131.2,0.3-238-105.8-238.2-237.2
				c-0.3-131.3,105.8-238,237-238.3C472.7,183.6,579.3,289.7,579.7,421z"/>
			<path class="st0" d="M418.7,410.2c-2.2-0.7-2.7-3.7-0.7-5c12.2-8.3,19.5-21.6,17.4-42c-3.1-31.1-29.3-42-62.8-45.2
				c-1.5-0.1-2.5-1.4-2.5-2.8l-0.1-38.7c0-1.6-1.3-2.9-2.9-2.9h-21.2c-1.6,0-2.9,1.3-2.9,2.9l0.1,37.4c0,1.6-1.3,2.8-2.8,2.9
				c-5.2,0-10.5,0.1-15.8,0.2c-1.6,0-2.9-1.3-2.9-2.8l-0.1-37.6c0-1.6-1.3-2.9-2.9-2.9h-21.2c-1.6,0-2.9,1.3-2.9,2.9l0.1,38.5
				c0,1.5-1.3,2.8-2.8,2.9c-4.8,0.1-9.7,0.2-14.3,0.2v-0.1l-34.2,0.1c-1.6,0-2.9,1.3-2.9,2.9l0.1,22.9c0,1.6,1.3,2.9,2.9,2.9
				c5.5-0.1,16.9-0.2,16.7,0c10.7,0,14.3,6.1,15.4,11.4c0,0.2,0.1,0.3,0.1,0.6l0.1,47.4c0,1.5,1,2.7,2.5,2.8c0.1,0,0.2,0,0.3,0l0,0
				c-1.6,0-2.8,1.3-2.8,2.9l0.1,67.4c0,0.1,0,0.3,0,0.5c-0.6,3.5-2.7,8.6-10,8.6c0.2,0.2-11.9,0.1-17.2,0.1c-1.4,0-2.5,1-2.8,2.4
				l-4.4,26.4c-0.2,1.7,1,3.3,2.8,3.3l31.7-0.1c5.5,0,11,0,16.4,0.1c1.5,0,2.8,1.3,2.8,2.9l0.1,39.1c0,1.6,1.3,2.9,2.9,2.9h21.2
				c1.6,0,2.9-1.3,2.9-2.9l-0.1-38.5c0-1.6,1.3-2.9,2.9-2.9c5.4,0.1,10.6,0.1,15.8,0.1c1.6,0,2.8,1.3,2.8,2.8l0.1,38.3
				c0,1.6,1.3,2.9,2.9,2.9H368c1.6,0,2.9-1.3,2.9-2.9l-0.1-39.1c0-1.5,1.2-2.8,2.7-2.9c43.8-3,74.2-14.9,77.9-56.5
				C453.9,432.5,440.6,417.2,418.7,410.2z M322.3,351.4c0-1.5,1.3-2.8,2.8-2.9c17.5-0.5,60.1-3.2,60.2,26.7
				c0.1,28.7-42.5,27.2-60,27c-1.5,0-2.8-1.3-2.8-2.9L322.3,351.4z M325.5,488.6c-1.5,0-2.8-1.3-2.8-2.9l-0.1-53.5
				c0-1.5,1.3-2.8,2.8-2.9c20.6-0.5,72.5-3.8,72.6,29.4C398.1,490.5,346.1,488.7,325.5,488.6z"/>
		</g>
		<g>
			<g>
				<g>
					<path class="st1" d="M579.7,419.9c0.3,131.3-105.8,238-237.2,238.2c-131.2,0.3-238-105.8-238.2-237.2
						c-0.3-131.3,105.8-238,237-238.3C472.7,182.5,579.3,288.5,579.7,419.9z"/>
					<g>
						<g>
							<path class="st0" d="M418.7,409c-2.2-0.7-2.7-3.7-0.7-5c12.2-8.3,19.5-21.6,17.4-42c-3.1-31.1-29.3-42-62.8-45.2
								c-1.5-0.1-2.5-1.4-2.5-2.8l-0.1-38.7c0-1.6-1.3-2.9-2.9-2.9h-21.2c-1.6,0-2.9,1.3-2.9,2.9l0.1,37.4c0,1.6-1.3,2.8-2.8,2.9
								c-5.2,0-10.5,0.1-15.8,0.2c-1.6,0-2.9-1.3-2.9-2.8l-0.1-37.6c0-1.6-1.3-2.9-2.9-2.9h-21.2c-1.6,0-2.9,1.3-2.9,2.9l0.1,38.5
								c0,1.5-1.3,2.8-2.8,2.9c-4.8,0.1-9.7,0.2-14.3,0.2V317l-34.2,0.1c-1.6,0-2.9,1.3-2.9,2.9l0.1,22.9c0,1.6,1.3,2.9,2.9,2.9
								c5.5-0.1,16.9-0.2,16.7,0c10.7,0,14.3,6.1,15.4,11.4c0,0.2,0.1,0.3,0.1,0.6l0.1,47.4c0,1.5,1,2.7,2.5,2.8c0.1,0,0.2,0,0.3,0
								l0,0c-1.6,0-2.8,1.3-2.8,2.9l0.1,67.4c0,0.1,0,0.3,0,0.5c-0.6,3.5-2.7,8.6-10,8.6c0.2,0.2-11.9,0.1-17.2,0.1
								c-1.4,0-2.5,1-2.8,2.4l-4.4,26.4c-0.2,1.7,1,3.3,2.8,3.3l31.7-0.1c5.5,0,11,0,16.4,0.1c1.5,0,2.8,1.3,2.8,2.9l0.1,39.1
								c0,1.6,1.3,2.9,2.9,2.9h21.2c1.6,0,2.9-1.3,2.9-2.9l-0.1-38.5c0-1.6,1.3-2.9,2.9-2.9c5.4,0.1,10.6,0.1,15.8,0.1
								c1.6,0,2.8,1.3,2.8,2.8l0.1,38.3c0,1.6,1.3,2.9,2.9,2.9H368c1.6,0,2.9-1.3,2.9-2.9l-0.1-39.1c0-1.5,1.2-2.8,2.7-2.9
								c43.8-3,74.2-14.9,77.9-56.5C453.9,431.4,440.6,416,418.7,409z M322.3,350.2c0-1.5,1.3-2.8,2.8-2.9
								c17.5-0.5,60.1-3.2,60.2,26.7c0.1,28.7-42.5,27.2-60,27c-1.5,0-2.8-1.3-2.8-2.9L322.3,350.2z M325.5,487.4
								c-1.5,0-2.8-1.3-2.8-2.9l-0.1-53.5c0-1.5,1.3-2.8,2.8-2.9c20.6-0.5,72.5-3.8,72.6,29.4C398.1,489.4,346.1,487.5,325.5,487.4z
								"/>
						</g>
					</g>
				</g>
			</g>
		</g>
	</g>
</g>
</svg>
