<?xml version="1.0" encoding="utf-8"?>
<!-- Generator: Adobe Illustrator 19.1.1, SVG Export Plug-In . SVG Version: 6.00 Build 0)  -->
<svg version="1.1" id="Layer_2" xmlns="http://www.w3.org/2000/svg" xmlns:xlink="http://www.w3.org/1999/xlink" x="0px" y="0px"
	 viewBox="22 180.9 640 480" style="enable-background:new 22 180.9 640 480;" xml:space="preserve">
<style type="text/css">
	.st0{fill:#F0A835;}
	.st1{fill:#FFFFFF;}
	.st2{fill:#192A68;}
</style>
<g id="bitcoingold_btg">
	<path id="Эллипс_3" class="st0" d="M342,181.4c132.3,0,239.5,107.2,239.5,239.5S474.3,660.4,342,660.4
		S102.5,553.2,102.5,420.9S209.7,181.4,342,181.4z M342,291.8c72.3,0,131,58.6,131,131s-58.6,131-131,131s-131-58.6-131-131
		S269.7,291.8,342,291.8L342,291.8z"/>
	<circle id="Эллипс_4" class="st1" cx="342" cy="420.9" r="136.6"/>
	<path id="Эллипс_2" class="st2" d="M342,544.4c-67.2,0-121.6-54.5-121.6-121.6S274.8,301.1,342,301.1s121.6,54.5,121.6,121.6
		S409.2,544.4,342,544.4L342,544.4z M353.2,430.2h-20.6v44.9h16.8c5.3,0,37.4,0.9,37.4-24.3C386.9,430.9,361.3,430.2,353.2,430.2z
		 M377.6,389.1c0-17.8-22.8-20.6-26.2-20.6h-18.7v41.2h16.8C355.1,409.7,377.6,406.9,377.6,389.1z M347.6,531.1v-31.7h-16.8v31.2
		c3.7,0.4,7.5,0.6,11.2,0.6C343.9,531.3,345.8,531.2,347.6,531.1z M233.5,422.8c0,47.7,31.1,89.8,76.7,103.8v-27.1h-39.3
		c-5,0-4.1-6.4-1.9-16.8c1.9-8.7,9.4-7.5,9.4-7.5h13.1c3.1,0,5.6-2.5,5.6-5.6v-95.4c0-3.1-2.5-5.6-5.6-5.6h-20.6
		c-2.8,0-3.7-0.6-3.7-3.7v-15c0-3.4,3.5-3.7,5.6-3.7h37.4V319C264.6,333,233.5,375.1,233.5,422.8z M330.8,314.8V346h16.8v-31.7
		c-1.9-0.1-3.7-0.1-5.6-0.1C338.3,314.2,334.5,314.4,330.8,314.8L330.8,314.8z M366.3,317v29c0,0,50.5,1.6,50.5,41.2
		c0,11.7-6.5,22.5-16.8,28.1c0,0,28.1,1.9,28.1,35.6s-23.1,48.6-59.9,48.6c0.3,11.2,0.1,24.4,0,28.6c58.2-14.5,93.6-73.4,79.1-131.5
		C437.4,356.9,406.1,326.2,366.3,317z"/>
</g>
</svg>
