<?xml version="1.0" encoding="utf-8"?>
<!-- Generator: Adobe Illustrator 21.1.0, SVG Export Plug-In . SVG Version: 6.00 Build 0)  -->
<svg version="1.1" baseProfile="tiny" id="Layer_1" xmlns="http://www.w3.org/2000/svg" xmlns:xlink="http://www.w3.org/1999/xlink"
	 x="0px" y="0px" viewBox="0 0 640 480" overflow="scroll" xml:space="preserve">
<g>
	<g>
		<path fill="#1C73BA" d="M241.7,64.6c14.7,0,29.4,0,44.2,0c0.5,0.1,1.1,0.2,1.6,0.2c13.6,0,27.2,0,40.9,0c5.4,0,10.9,0,16.3,0
			c12.9,0.1,25.8,0.1,38.7,0.2c15.8,0.1,31.5,0.2,47.3,0.2c12.9,0.1,25.8,0.2,38.6,0.2c9.9,0.1,19.8,0.1,29.7,0.2
			c12.4,0.1,24.9,0.2,37.3,0.5c14.7,0.4,29.5,0.9,44.2,1.5c5.1,0.2,10.1,1,15.1,1.7c6.1,0.9,11.2,4,16.2,7.4
			c11.4,7.6,19.4,17.7,22.6,31.1c3.4,14.1,3.8,28.3,0.5,42.5c-3,12.8-6.9,25.4-11.1,37.9c-6.4,19.3-12.9,38.5-19.6,57.7
			c-10,29-20.4,57.8-31.7,86.3c-2.8,7-5.5,14-8.9,20.7c-4.4,8.8-10.8,16.3-17.7,23.3c-12.2,12.4-26.1,22.5-41.6,30.6
			c-9.3,4.9-18.9,9.3-28.4,13.8c-0.9,0.4-2,0.7-3,0.7c-94.2,0-188.5,0-282.7,0c-18.2,0-36.5-0.1-54.7-0.2
			c-11.8-0.1-23.7-0.1-35.5-0.2c-11.4-0.1-22.7-0.2-34.1-0.5c-11.3-0.3-22.5-0.7-33.8-1.3c-3.7-0.2-7.5-0.8-11.2-1.5
			c-1.9-0.3-2.2-1-1.8-2.9c0.5-2.5,1-4.9,1.7-7.3c4.7-16.6,10.4-32.9,16.5-49c2.4-6.3,5.2-12.4,7.8-18.5c0.7-1.7,2-2.8,3.9-3.1
			c3.5-0.6,7-1.4,10.5-1.6c10.7-0.6,21.4-1.1,32.1-1.4c10-0.3,20-0.4,30-0.5c10.7-0.1,21.4-0.2,32.1-0.2c11.4-0.1,22.8-0.1,34.2-0.1
			c27.9,0,55.8-0.1,83.8-0.1c9.3,0,18.6,0,28-0.1c15.8-0.1,31.6-0.1,47.4-0.2c7.5,0,15-0.1,22.5-0.2c13.7-0.3,27.5-0.5,41.2-1
			c7.1-0.3,14.3-1.1,21.4-1.6c3.1-0.2,5-1.7,6.1-4.7c4.5-12.4,9.3-24.7,13.7-37.1c9.3-26.3,18.5-52.6,27.5-78.9
			c5.2-15.2,10-30.6,15-45.9c0.4-1.3,0.7-2.7,1.1-4.2c-1.4-0.1-2.5-0.3-3.7-0.4c-10.1-0.4-20.2-0.8-30.3-1.1
			c-9.1-0.3-18.1-0.4-27.2-0.5c-8.3-0.1-16.6-0.2-24.9-0.3c-9.7-0.1-19.4-0.2-29-0.2c-12.2-0.1-24.5-0.1-36.7-0.2
			c-10.4,0-20.9-0.1-31.3-0.1c-25.2,0-50.5,0-75.7-0.1c-15.6,0-31.1-0.1-46.7-0.2c-4.5,0-9-0.1-13.6-0.2c-9.7-0.2-19.3-0.2-29-0.6
			c-8.5-0.3-17.1-0.9-25.6-1.5c-2.5-0.2-4.9-1-7.3-1.6c-1.5-0.4-2.4-1.6-2.2-3.3c0.6-3.5,1-7,1.9-10.5c4.1-16.5,9.4-32.6,15.3-48.5
			c2.4-6.5,5-13,8.3-19.2c1-1.9,2.4-3,4.5-3.2c4.2-0.5,8.5-1.2,12.7-1.3c14.7-0.5,29.3-0.9,44-1.2c5.3-0.1,10.6-0.1,15.8-0.2
			c3,0,6.1,0,9.1,0.1c5.5,0,10.9,0,16.4,0C241,64.8,241.3,64.6,241.7,64.6z"/>
		<path fill="#1C73BA" d="M328.3,64.6c0,0.1,0,0.2,0,0.2c-13.6,0-27.2,0-40.9,0c-0.5,0-1.1-0.1-1.6-0.2
			C300,64.6,314.2,64.6,328.3,64.6z"/>
		<path fill="#1C73BA" d="M224.3,64.8c0-0.1,0.1-0.1,0.1-0.2c5.8,0,11.5,0,17.3,0c-0.3,0.1-0.7,0.2-1,0.2
			C235.2,64.8,229.7,64.8,224.3,64.8z"/>
		<path fill="#1C73BA" d="M141.2,203.2c9.7,0,19.4,0,29,0c8.4,0,16.9-0.1,25.3,0c10.4,0.1,20.9,0.1,31.3,0.4
			c9.1,0.2,18.2,0.7,27.3,1.2c0.9,0,1.8,0.2,2.7,0.3c1.7,0.3,1.9,0.5,1.7,2.2c-0.2,2.1-0.5,4.2-1,6.3c-2.6,11.9-6.4,23.5-10.3,35
			c-3.2,9.3-6.5,18.5-10.6,27.5c-0.8,1.7-1.7,3.3-2.6,5c-0.6,1.3-1.7,2.1-3,2.4c-2.8,0.5-5.6,1.3-8.5,1.4
			c-10.2,0.6-20.4,1.2-30.6,1.5c-12,0.3-24.1,0.4-36.1,0.5c-24.4,0.1-48.9,0.2-73.3,0.2c-12,0-24.1-0.1-36.1-0.3
			c-9.3-0.2-18.6-0.5-27.9-1c-3.4-0.2-6.8-0.9-10.2-1.4c-0.5-0.1-1.1-0.3-1.6-0.5c-2.2-0.9-3.1-2-2.6-4.3c0.8-3.9,1.8-7.9,3-11.7
			c5.1-17.1,11.6-33.7,17.7-50.5c1.5-4.1,3-8.1,4.4-12.1c0.3-0.7,0.6-1,1.3-1c7.1,0,14.2-0.1,21.4-0.1c9-0.1,17.9-0.2,26.9-0.2
			c8.8-0.1,17.5-0.2,26.3-0.2c8.9-0.1,17.8-0.2,26.7-0.2c3.1,0,6.2,0,9.4,0C141.2,203.3,141.2,203.2,141.2,203.2z"/>
	</g>
</g>
</svg>
