<?xml version="1.0" encoding="utf-8"?>
<!-- Generator: Adobe Illustrator 21.1.0, SVG Export Plug-In . SVG Version: 6.00 Build 0)  -->
<svg version="1.1" baseProfile="tiny" id="Layer_1" xmlns="http://www.w3.org/2000/svg" xmlns:xlink="http://www.w3.org/1999/xlink"
	 x="0px" y="0px" viewBox="0 0 640 480" overflow="scroll" xml:space="preserve">
<g>
	<path fill="#393939" d="M173,244.4c0.3-0.2,0.6-0.3,0.8-0.5c1.2-0.4,2.4-0.6,3.5-1.1c37.4-17,74.8-34,112.2-51
		c10-4.5,20-9,30.1-13.5c0.2,0,0.5,0,0.7,0c0,1.3-0.1,2.7-0.1,4c0,49.6,0,99.3,0,148.9c-1-0.4-2-0.6-2.9-1.2
		c-47.7-28.1-95.3-56.3-143-84.4c-0.4-0.3-0.9-0.4-1.4-0.6C173,244.9,173,244.6,173,244.4z"/>
	<path fill="#141414" d="M320.3,331.3c0-49.6,0-99.3,0-148.9c0-1.3,0-2.7,0.1-4c2.9,1.2,5.7,2.4,8.5,3.7
		c20.6,9.3,41.2,18.7,61.8,28.1c21.5,9.8,43,19.6,64.6,29.4c3.6,1.6,7.3,2.9,10.9,4.4c0.3,0.2,0.6,0.4,0.8,0.6c0,0.2,0,0.4,0,0.6
		c-12.3,7.2-24.7,14.4-36.9,21.6c-35.8,21.1-71.5,42.2-107.3,63.4C322,330.5,321.1,330.9,320.3,331.3z"/>
	<path fill="#393939" d="M319.8,1.7c0-0.2-0.1-0.5-0.1-0.7c0.2,0,0.4,0,0.6,0c0,0.4,0.1,0.8,0.1,1.2c-0.1,0-0.3,0-0.4,0
		C319.9,2.1,319.9,1.9,319.8,1.7z"/>
	<path fill="#3D3D3C" d="M319.8,359.5c30.6-18,61.2-36,91.7-54.1c17.5-10.3,35-20.7,52.5-31c0.4-0.3,0.9-0.5,1.9-0.3
		c-48.6,68.4-97.1,136.7-145.9,205.4c-0.4-0.8-0.6-1.2-0.8-1.7c0.2-1,0.5-1.9,0.5-2.9C319.8,436.5,319.8,398,319.8,359.5z"/>
	<path fill="#8C8C8C" d="M319.8,359.5c0,38.5,0,77,0,115.5c0,1-0.4,1.9-0.5,2.9c-1.4-1.7-2.8-3.2-4-5
		c-46.7-65.7-93.3-131.4-139.9-197.1c-0.4-0.5-0.7-1-1.5-2.2c1.4,0.6,2.1,0.8,2.7,1.1c47.2,27.8,94.3,55.7,141.5,83.5
		C318.6,358.6,319.2,359,319.8,359.5z"/>
	<path fill="#343434" d="M320,2.3c0.1,0,0.3,0,0.4,0c5.5,8.9,11,17.8,16.4,26.7c42.8,70.9,85.5,141.8,128.3,212.7
		c0.4,0.7,0.7,1.5,1.1,2.2c-3.6-1.5-7.3-2.8-10.9-4.4c-21.5-9.8-43.1-19.6-64.6-29.4c-20.6-9.4-41.2-18.7-61.8-28.1
		c-2.8-1.3-5.7-2.5-8.5-3.7c-0.2,0-0.5,0-0.7,0c0.1-1.5,0.1-2.9,0.1-4.4c0-55.8,0-111.5,0-167.3C319.8,5.1,319.9,3.7,320,2.3z"/>
	<path fill="#8C8C8C" d="M320,2.3c-0.1,1.4-0.2,2.9-0.2,4.3c0,55.8,0,111.5,0,167.3c0,1.5-0.1,2.9-0.1,4.4c-10,4.5-20.1,9-30.1,13.5
		c-37.4,17-74.8,34-112.2,51c-1.1,0.5-2.3,0.8-3.5,1.1c3.3-5.6,6.5-11.3,9.8-16.9c45-74.7,90.1-149.4,135.1-224.2
		c0.3-0.4,0.6-0.8,1-1.2C319.9,1.9,319.9,2.1,320,2.3z"/>
</g>
</svg>
