<svg xmlns="http://www.w3.org/2000/svg" viewBox="0 0 640 480"><defs><style>.cls-1{fill:none;}.cls-2{fill:#131313;}</style></defs><title>GNT</title><g id="Layer_2" data-name="Layer 2"><g id="Layer_8" data-name="Layer 8"><circle class="cls-1" cx="305.52" cy="128.19" r="75.13"/><circle class="cls-1" cx="305.52" cy="382.75" r="75.13" transform="translate(-181.16 328.14) rotate(-45)"/><path class="cls-1" d="M0,0V480H640V0ZM427.23,17.78,377.3,67.71a93.86,93.86,0,0,1-62.39,153.93v67.67a93.92,93.92,0,1,1-18.78,0V221.64a93.92,93.92,0,1,1,67.7-167L414,4.5a4,4,0,0,1,5.65,0l7.63,7.62A4,4,0,0,1,427.23,17.78Z"/><path class="cls-2" d="M419.6,4.5a4,4,0,0,0-5.65,0L363.83,54.62a93.9,93.9,0,1,0-67.7,167v67.67a93.91,93.91,0,1,0,18.78,0V221.64A93.86,93.86,0,0,0,377.3,67.71l49.93-49.93a4,4,0,0,0,0-5.66Zm-39,378.25a75.14,75.14,0,1,1-75.13-75.13A75.22,75.22,0,0,1,380.65,382.75Zm0-254.56a75.14,75.14,0,1,1-75.13-75.13A75.21,75.21,0,0,1,380.65,128.19Z"/></g></g></svg>