<?xml version="1.0" encoding="utf-8"?>
<!-- Generator: Adobe Illustrator 21.1.0, SVG Export Plug-In . SVG Version: 6.00 Build 0)  -->
<svg version="1.1" baseProfile="tiny" id="Layer_1" xmlns="http://www.w3.org/2000/svg" xmlns:xlink="http://www.w3.org/1999/xlink"
	 x="0px" y="0px" viewBox="0 0 640 480" overflow="scroll" xml:space="preserve">
<g>
	<path fill="#BEBEBE" d="M561,240c0,132.5-107.4,240-240,240C188.5,480,81,372.5,81,240C81,107.5,188.5,0,321,0
		C453.5,0,561,107.5,561,240"/>
	<path fill="#BEBEBE" d="M510,240c0,104.4-84.6,189-189,189c-104.4,0-189-84.6-189-189c0-104.4,84.6-189,189-189
		C425.4,51,510,135.6,510,240"/>
	<path fill="#FFFFFF" d="M307,304.1l15.6-58.7l36.9-13.5l9.2-34.5l-0.3-0.9L332,209.9l26.2-98.6h-74.2l-34.2,128.6l-28.6,10.4
		l-9.4,35.6l28.6-10.4l-20.2,75.8h197.6l12.7-47.2L307,304.1"/>
</g>
</svg>
