<svg xmlns="http://www.w3.org/2000/svg" viewBox="0 0 640 480"><defs><style>.cls-1{fill:none;}.cls-2{fill:#006ad6;}</style></defs><title>Quantum</title><g id="Layer_2" data-name="Layer 2"><g id="Layer_8" data-name="Layer 8"><path class="cls-1" d="M0,0V480H640V0ZM111.2,289.34H52.32C15.26,289.34,2.5,273,2.5,239.51c0-31.18,11.16-49.44,49.82-49.44,38.27,0,49.18,17.66,49.18,49.44,0,24.89-7,30-15.85,34.81,0,.17,0,.34,0,.74H111.2Zm79.85-3.25s-19.65,3.76-36.27,3.76c-33.94,0-33.27-16.52-33.45-21.36s0-48.44,0-48.44h19.92v41.62c0,11.95,2.95,14.84,13.47,15.55A49.47,49.47,0,0,0,171.14,275v-55h19.91Zm46.27,3.49c-15.57,0-32-4.76-32.36-22-.26-13.3,10.91-21.54,25.53-21.54,2.58,0,25.9-.3,25.9-.3s0-.45,0-3c0-9.3-7.09-11.58-13.29-11.58-20.12,0-31.43,5.91-31.43,5.91v-15c9.93-2.35,23.95-3.27,30.41-3.27,23.54,0,33.5,8.18,33.5,20.05v47.19S263,289.58,237.32,289.58Zm125-.76H342.42V247.2c0-11.94-2.95-14.83-13.47-15.54a49,49,0,0,0-16.42,2.19v55H292.61v-66S312.27,219,328.88,219c33.94,0,33.28,16.52,33.45,21.35S362.33,288.82,362.33,288.82Zm45.07,1c-8.53,0-21.63-2.49-21.63-21.26v-35H372.26V220h13.51V205.93h19.08v14.12h16.87v13.5H404.85v28.27c0,6.35-.51,12.05,7.47,13,3.28.37,5.8-.11,9.51-1.34,0,1.09.05,14.88.05,14.88A77.35,77.35,0,0,1,407.4,289.83Zm98-3.67s-19.65,3.77-36.27,3.77c-33.94,0-33.27-16.53-33.45-21.36s0-48.44,0-48.44h19.91v41.62c0,11.95,3,14.83,13.47,15.55a49.4,49.4,0,0,0,16.42-2.19v-55h19.92Zm132.08,2.72H618.29v-44.4c0-6.6-2.8-12.93-14.28-12.93a28.8,28.8,0,0,0-14.39,4.68v52.65H570v-44.4c0-6.37-2.49-12.93-14.66-12.93a37.7,37.7,0,0,0-14.1,2.89v54.44H521.87V224l.8-.22c9.94-2.83,25.14-5,34.63-5,9.79,0,17.37,2.08,23.15,6.35A57.09,57.09,0,0,1,607,218.67c27.81,0,30.5,16.72,30.5,23.93Z"/><path class="cls-1" d="M52.32,204.86c-21.81,0-27.17,15.65-27.17,34.65s5.36,35.25,27.17,35.25c21.61,0,26.68-16.54,26.68-35.25C79,220.51,73,204.86,52.32,204.86Z"/><path class="cls-1" d="M223.15,267.69c0,6.77,6.45,8.39,13.34,9.15a53.83,53.83,0,0,0,19.9-1.83V258.69H238.76C226.28,258.68,223.15,262.78,223.15,267.69Z"/><path class="cls-2" d="M412.32,274.8c-8-.93-7.47-6.63-7.47-13V233.55h16.87v-13.5H404.85V205.93H385.77V220H372.26v13.51h13.51v35c0,18.77,13.1,21.26,21.63,21.26a77.35,77.35,0,0,0,14.48-1.49s-.05-13.79-.05-14.88C418.12,274.69,415.6,275.17,412.32,274.8Z"/><path class="cls-2" d="M607,218.67a57.09,57.09,0,0,0-26.55,6.45c-5.78-4.27-13.36-6.35-23.15-6.35-9.49,0-24.69,2.21-34.63,5l-.8.22v64.85h19.36V234.44a37.7,37.7,0,0,1,14.1-2.89c12.17,0,14.66,6.56,14.66,12.93v44.4h19.63V236.23A28.8,28.8,0,0,1,604,231.55c11.48,0,14.28,6.33,14.28,12.93v44.4H637.5V242.6C637.5,235.39,634.81,218.67,607,218.67Z"/><path class="cls-2" d="M171.14,275a49.47,49.47,0,0,1-16.42,2.19c-10.52-.71-13.47-3.6-13.47-15.55V220.05H121.33s-.18,43.61,0,48.44-.49,21.36,33.45,21.36c16.62,0,36.27-3.76,36.27-3.76v-66H171.14Z"/><path class="cls-2" d="M242.1,218.81c-6.46,0-20.48.92-30.41,3.27v15s11.31-5.91,31.43-5.91c6.2,0,13.29,2.28,13.29,11.58,0,2.57,0,3,0,3s-23.32.3-25.9.3c-14.62,0-25.79,8.24-25.53,21.54.35,17.2,16.79,22,32.36,22,25.66,0,38.29-3.53,38.29-3.53V238.86C275.6,227,265.64,218.81,242.1,218.81ZM256.39,275a53.83,53.83,0,0,1-19.9,1.83c-6.89-.76-13.34-2.38-13.34-9.15,0-4.91,3.13-9,15.61-9h17.63Z"/><path class="cls-2" d="M85.65,274.32c8.88-4.81,15.85-9.92,15.85-34.81,0-31.78-10.91-49.44-49.18-49.44-38.66,0-49.82,18.26-49.82,49.44,0,33.52,12.76,49.83,49.82,49.83H111.2V275.06H85.64C85.64,274.66,85.65,274.49,85.65,274.32Zm-33.33.44c-21.81,0-27.17-16.34-27.17-35.25s5.36-34.65,27.17-34.65C73,204.86,79,220.51,79,239.51,79,258.22,73.93,274.76,52.32,274.76Z"/><path class="cls-2" d="M485.5,275.11a49.4,49.4,0,0,1-16.42,2.19c-10.51-.72-13.47-3.6-13.47-15.55V220.13H435.7s-.18,43.61,0,48.44-.49,21.36,33.45,21.36c16.62,0,36.27-3.77,36.27-3.77v-66H485.5Z"/><path class="cls-2" d="M328.88,219c-16.61,0-36.27,3.76-36.27,3.76v66h19.92v-55A49,49,0,0,1,329,231.66c10.52.71,13.47,3.6,13.47,15.54v41.62h19.91s.19-43.61,0-48.44S362.82,219,328.88,219Z"/></g></g></svg>