<svg xmlns="http://www.w3.org/2000/svg" viewBox="0 0 640 480"><defs><style>.cls-1{fill:none;}.cls-2{fill:#0e0e0e;}</style></defs><title>TRX</title><g id="Layer_2" data-name="Layer 2"><g id="Layer_8" data-name="Layer 8"><polygon class="cls-1" points="287.48 455.1 502.54 151.75 314.29 246.91 287.48 455.1"/><polygon class="cls-1" points="122.74 26.46 277.54 460.9 305.84 241.18 122.74 26.46"/><polygon class="cls-1" points="443.01 92.34 126.67 17.02 309.49 231.41 443.01 92.34"/><polygon class="cls-1" points="336.75 218.62 511.06 136.84 452.68 95.36 336.75 218.62"/><path class="cls-1" d="M0,0V480H640V0ZM528.69,143.07l-238,329.79a11.19,11.19,0,0,1-19.61-2.79L109.86,17.45a11.18,11.18,0,0,1,13-14.66L443.15,75.67A76.21,76.21,0,0,1,470.5,87.91l55.6,39.5A11.18,11.18,0,0,1,528.69,143.07Z"/><path class="cls-2" d="M526.1,127.41l-55.6-39.5a76.21,76.21,0,0,0-27.35-12.24L122.87,2.79a11.18,11.18,0,0,0-13,14.66L271.13,470.07a11.19,11.19,0,0,0,19.61,2.79l238-329.79A11.18,11.18,0,0,0,526.1,127.41ZM443,92.34,309.48,231.41,126.67,17ZM277.54,460.9,122.74,26.46l183.1,214.72Zm9.94-5.81,26.81-208.18,188.25-95.16Zm49.27-236.47L452.68,95.36l58.38,41.48Z"/></g></g></svg>