<?xml version="1.0" encoding="utf-8"?>
<!-- Generator: Adobe Illustrator 19.1.1, SVG Export Plug-In . SVG Version: 6.00 Build 0)  -->
<svg version="1.1" id="Layer_2" xmlns="http://www.w3.org/2000/svg" xmlns:xlink="http://www.w3.org/1999/xlink" x="0px" y="0px"
	 viewBox="22 180.9 640 480" style="enable-background:new 22 180.9 640 480;" xml:space="preserve">
<style type="text/css">
	.st0{fill:#FFFFFF;}
	.st1{fill:#EE5922;}
	.st2{fill:#535354;}
</style>
<g>
	<circle id="Эллипс_14" class="st0" cx="342" cy="420.9" r="239"/>
	<path id="Эллипс_14_копия_2" class="st1" d="M342,181.9c132.1,0.1,239.1,107.2,239,239.3c0,25.5-4.1,50.8-12.1,75
		c-15.4,0-69.7,0-69.7,0V296.5L345.3,453.6L184.9,293.2v203c0,0-55.3,0.2-69.7,0.2C73.6,371,141.6,235.6,266.9,194.1
		C291.2,186,316.5,181.9,342,181.9z"/>
	<path id="Эллипс_14_копия" class="st2" d="M450.1,417.6v131c0,0,52.7-0.4,94.2-0.4c-70.3,111.7-217.9,145.2-329.6,74.9
		c-30.1-18.9-55.5-44.3-74.5-74.3c25.8,0,97.1-0.2,97.1-0.2v-131l108,108L450.1,417.6z"/>
</g>
</svg>
