<?xml version="1.0" encoding="utf-8"?>
<!-- Generator: Adobe Illustrator 21.1.0, SVG Export Plug-In . SVG Version: 6.00 Build 0)  -->
<svg version="1.1" baseProfile="tiny" id="Layer_1" xmlns="http://www.w3.org/2000/svg" xmlns:xlink="http://www.w3.org/1999/xlink"
	 x="0px" y="0px" viewBox="0 0 640 480" overflow="scroll" xml:space="preserve">
<g>
	<path fill="#11AAE2" d="M103,239.5c0,11.5,2,22.8,5.9,33.5v-66.9C105,216.7,103,228,103,239.5z"/>
	<path fill="#11A9E1" d="M108.9,206.1V273c1.6,4.5,3.6,8.9,5.9,13.2v-93.2C112.5,197.2,110.6,201.6,108.9,206.1z"/>
	<path fill="#11A8E0" d="M114.8,192.9v93.2c1.8,3.3,3.8,6.5,5.9,9.6V183.3C118.6,186.4,116.6,189.6,114.8,192.9z"/>
	<path fill="#10A7DF" d="M120.7,183.3v112.4c1.8,2.6,3.8,5.2,5.9,7.6V175.7C124.6,178.1,122.6,180.7,120.7,183.3z"/>
	<path fill="#10A6DE" d="M126.7,175.7v127.7c1.9,2.2,3.8,4.3,5.9,6.3V169.4C130.5,171.4,128.5,173.5,126.7,175.7z"/>
	<path fill="#10A5DD" d="M132.6,169.4v140.3c1.9,1.8,3.9,3.6,5.9,5.3V164C136.4,165.7,134.5,167.5,132.6,169.4z"/>
	<path fill="#10A4DC" d="M138.5,164v151c1.9,1.6,3.9,3.1,5.9,4.5V159.5C142.4,160.9,140.4,162.4,138.5,164z"/>
	<path fill="#10A3DB" d="M144.4,159.5v160.1c1.9,1.4,3.9,2.7,5.9,3.9V155.6C148.3,156.8,146.3,158.1,144.4,159.5z"/>
	<path fill="#0FA2DA" d="M151.7,154.7c-0.5,0.3-0.9,0.6-1.4,0.8v167.9c0.5,0.3,0.9,0.6,1.4,0.8c1.5,0.9,3,1.7,4.5,2.5V152.2
		C154.7,153,153.2,153.8,151.7,154.7z"/>
	<path fill="#0FA1D9" d="M156.2,152.2v174.6c2,1,3.9,2,5.9,2.8V149.4C160.1,150.3,158.2,151.2,156.2,152.2z"/>
	<path fill="#0FA0D8" d="M162.1,149.4v180.2c2,0.9,3.9,1.7,5.9,2.4V147C166.1,147.7,164.1,148.5,162.1,149.4z"/>
	<path fill="#0F9FD7" d="M168.1,147v185c2,0.7,3.9,1.4,5.9,1.9V145.1C172,145.6,170,146.3,168.1,147z"/>
	<path fill="#0E9ED6" d="M174,145.1v188.9c2,0.6,3.9,1.1,5.9,1.5v-192C177.9,144,175.9,144.5,174,145.1z"/>
	<path fill="#0E9DD5" d="M179.9,143.5v192c2,0.4,3.9,0.8,5.9,1.1V142.4C183.8,142.7,181.8,143.1,179.9,143.5z"/>
	<path fill="#0E9CD4" d="M185.8,142.4v194.2c2,0.3,3.9,0.6,5.9,0.7V141.6C189.7,141.8,187.8,142.1,185.8,142.4z"/>
	<path fill="#0E9BD3" d="M191.7,141.6v195.7c2,0.2,3.9,0.3,5.9,0.4V141.3C195.6,141.3,193.7,141.5,191.7,141.6z"/>
	<path fill="#0E9AD2" d="M197.6,141.3v196.5c2,0.1,3.9,0.1,5.9,0V141.3C201.6,141.2,199.6,141.2,197.6,141.3z"/>
	<path fill="#0D99D1" d="M203.5,141.3v196.4c2-0.1,3.9-0.2,5.9-0.4V141.7C207.5,141.5,205.5,141.3,203.5,141.3z"/>
	<path fill="#0D98D0" d="M209.4,141.7v195.6c2-0.2,3.9-0.5,5.9-0.8V142.5C213.4,142.1,211.4,141.9,209.4,141.7z"/>
	<path fill="#0D97CF" d="M215.4,142.5v194.1c2-0.3,3.9-0.7,5.9-1.2V143.6C219.3,143.2,217.3,142.8,215.4,142.5z"/>
	<path fill="#0D96CE" d="M221.3,143.6v191.8c2-0.5,4-1,5.9-1.6V145.2C225.2,144.6,223.3,144.1,221.3,143.6z"/>
	<path fill="#0D95CD" d="M227.2,145.2v188.6c2-0.6,4-1.3,5.9-2V147.2C231.1,146.4,229.2,145.8,227.2,145.2z"/>
	<path fill="#0C94CB" d="M233.1,147.2v184.7c2-0.7,4-1.5,5.9-2.4V149.6C237.1,148.7,235.1,147.9,233.1,147.2z"/>
	<path fill="#0C93CA" d="M239,149.6v179.9c2-0.9,4-1.8,5.9-2.9V152.4C243,151.4,241,150.4,239,149.6z"/>
	<path fill="#0C92C9" d="M249,154.7c-1.4-0.8-2.7-1.6-4.1-2.3v174.1c1.4-0.7,2.8-1.5,4.1-2.3c0.6-0.3,1.2-0.7,1.8-1.1V155.9
		C250.2,155.5,249.7,155.1,249,154.7z"/>
	<path fill="#0C91C8" d="M250.8,155.9v167.3c2-1.2,4-2.5,5.9-3.8V160.3C254.8,158.8,252.9,157.3,250.8,155.9z"/>
	<path fill="#0B90C7" d="M256.8,160.3v159.1c2-1.4,4-3,5.9-4.6V165.2C260.8,163.5,258.8,161.9,256.8,160.3z"/>
	<path fill="#0B8FC6" d="M262.7,165.2v149.6c2-1.7,4-3.6,5.9-5.5V170.8C266.7,168.9,264.7,167,262.7,165.2z"/>
	<path fill="#0B8EC5" d="M268.6,170.8v138.6c2.1-2.1,4-4.3,5.9-6.5V177C272.6,174.9,270.6,172.8,268.6,170.8z"/>
	<path fill="#0B8DC4" d="M274.5,177v125.9c2.1-2.5,4.1-5.1,5.9-7.8V183.8C278.5,181.5,276.5,179.2,274.5,177z"/>
	<path fill="#0B8CC3" d="M280.4,183.8v111.3c2.1-3.1,4.1-6.2,5.9-9.5v-94.4C284.4,188.7,282.4,186.2,280.4,183.8z"/>
	<path fill="#0A8BC2" d="M288.7,194.4c-0.8-1-1.6-2.1-2.4-3.1v94.4c0.2-0.3,0.4-0.6,0.6-1c1.4-2.4,3.2-4.9,5.4-7.3v-78
		C290.9,197.8,289.8,196.1,288.7,194.4z"/>
	<path fill="#0A8AC1" d="M292.2,199.4v78c1.7-1.9,3.7-3.7,5.9-5.4v-66.8C296,203.5,294,201.5,292.2,199.4z"/>
	<path fill="#0A89C0" d="M298.2,205.2V272c1.8-1.4,3.8-2.6,5.9-3.7v-59.2C302,208,300,206.7,298.2,205.2z"/>
	<path fill="#0A88BF" d="M304.1,209.1v59.2c1.9-0.9,3.8-1.8,5.9-2.4v-54.2C307.9,211,306,210.1,304.1,209.1z"/>
	<path fill="#0A87BE" d="M310,211.7v54.2c1.9-0.6,3.9-1,5.9-1.2v-51.5C313.9,212.9,311.9,212.4,310,211.7z"/>
	<path fill="#0986BD" d="M315.9,213.3v51.5c1.9-0.2,3.9-0.3,5.9-0.1v-50.8C319.8,213.8,317.8,213.6,315.9,213.3z"/>
	<path fill="#0985BC" d="M321.8,213.9v50.8c1.9,0.1,3.9,0.4,5.9,0.9v-52C325.8,213.8,323.8,213.9,321.8,213.9z"/>
	<path fill="#0984BB" d="M327.7,213.5v52c1.9,0.5,3.9,1.1,5.9,2v-55.3C331.7,212.8,329.7,213.2,327.7,213.5z"/>
	<path fill="#0983BA" d="M339.2,374.7c0,2.9,0.1,5.7,0.4,8.6v-16.8C339.3,369.3,339.2,372,339.2,374.7z"/>
	<path fill="#0983BA" d="M339.2,104.3c0,2.4,0.1,4.8,0.4,7.2V95.8C339.3,98.6,339.2,101.4,339.2,104.3z"/>
	<path fill="#0983BA" d="M333.6,212.1v55.3c1.8,0.7,3.7,1.6,5.5,2.7c0.1,0.1,0.3,0.2,0.4,0.2v-60.8
		C337.6,210.7,335.6,211.5,333.6,212.1z"/>
	<path fill="#0882B9" d="M341,208.8c-0.5,0.3-1,0.5-1.4,0.8v60.8c2.2,1.3,4.1,2.8,5.9,4.5v-68.7C344.1,207.2,342.6,208,341,208.8z"
		/>
	<path fill="#0882B9" d="M339.5,95.8v15.7c0.8,8.1,3,16.1,5.9,24V69.8C342.3,78.1,340.3,86.9,339.5,95.8z"/>
	<path fill="#0882B9" d="M339.5,366.5v16.8c0.8,8.9,2.8,17.7,5.9,26v-69C342.4,348.9,340.3,357.7,339.5,366.5z"/>
	<path fill="#0881B8" d="M345.5,206.2v68.7c2.3,2.1,4.3,4.5,5.9,7.1v-80.5C349.7,203.2,347.7,204.8,345.5,206.2z"/>
	<path fill="#0881B8" d="M345.5,340.3v69c1.7,4.4,3.6,8.7,5.9,12.8v-95.4C349.1,331.1,347.1,335.7,345.5,340.3z"/>
	<path fill="#0881B8" d="M345.5,69.8v65.6c1.7,4.6,3.7,9.1,5.9,13.4V57C349.1,61.2,347.1,65.4,345.5,69.8z"/>
	<path fill="#0880B7" d="M351.4,201.5V282c3,4.7,5,10,5.9,15.4V193.3C355.9,196.2,353.9,198.9,351.4,201.5z"/>
	<path fill="#0880B7" d="M353.6,322.5c-0.8,1.4-1.5,2.8-2.2,4.2v95.4c1.8,3.2,3.8,6.4,5.9,9.4V311
		C356.6,314.9,355.4,318.8,353.6,322.5z"/>
	<path fill="#0880B7" d="M351.4,57v91.8c1.3,2.6,2.6,5.2,4.1,7.7c0.7,1.3,1.3,2.7,1.9,4.2V47.6C355.1,50.6,353.2,53.8,351.4,57z"/>
	<path fill="#0880B7" d="M357.3,47.6v113.1c3.7,9.5,5.4,21.9,0,32.6v104.1c0.7,4.5,0.7,9,0,13.5v120.5c1.7,2.4,3.6,4.8,5.5,7.1v-398
		C360.9,42.8,359,45.2,357.3,47.6z"/>
	<path fill="#087FB6" d="M362.8,40.5v398c1.7,2,3.6,4,5.5,5.9V34.6C366.4,36.5,364.6,38.5,362.8,40.5z"/>
	<path fill="#087EB5" d="M368.3,34.6v409.9c1.8,1.7,3.6,3.4,5.5,5.1v-420C371.9,31.2,370.1,32.9,368.3,34.6z"/>
	<path fill="#077DB4" d="M373.9,29.5v420c1.8,1.5,3.6,3,5.5,4.4V25.2C377.5,26.6,375.6,28,373.9,29.5z"/>
	<path fill="#077CB3" d="M379.4,25.2v428.7c1.8,1.3,3.6,2.6,5.5,3.8V21.4C383,22.6,381.2,23.8,379.4,25.2z"/>
	<path fill="#077BB2" d="M387.9,19.5L387.9,19.5c-1,0.6-2,1.2-3,1.8v436.2c1,0.6,2,1.2,3,1.8c0.8,0.5,1.7,1,2.5,1.4V18.1
		C389.6,18.5,388.7,19,387.9,19.5z"/>
	<path fill="#077AB1" d="M395.9,15.2c-1.9,0.9-3.7,1.8-5.5,2.8v442.8c1.8,1,3.7,1.9,5.5,2.8V254.5c-1.7-4.3-2.6-9.3-2.6-15
		c0-5.2,0.9-10,2.6-14.4V15.2z"/>
	<path fill="#0679B0" d="M401.5,466.1V263.9c-2.2-2.7-4.1-5.8-5.5-9.4v209.2C397.8,464.6,399.6,465.4,401.5,466.1z"/>
	<path fill="#0679B0" d="M401.5,215.5V13c-1.9,0.7-3.7,1.5-5.5,2.3v209.9C397.3,221.6,399.2,218.3,401.5,215.5z"/>
	<path fill="#0678AF" d="M407,209.9V11.1c-1.9,0.6-3.7,1.2-5.5,1.8v202.5C403.1,213.4,405,211.6,407,209.9z"/>
	<path fill="#0678AF" d="M407,468.1V269.3c-2-1.5-3.9-3.3-5.5-5.3v202.2C403.3,466.8,405.1,467.5,407,468.1z"/>
	<path fill="#0677AE" d="M412.5,206.3V9.7c-1.9,0.4-3.7,0.9-5.5,1.5v198.8C408.7,208.6,410.5,207.3,412.5,206.3z"/>
	<path fill="#0677AE" d="M412.5,469.8v-197c-1.9-1-3.8-2.2-5.5-3.5v198.9C408.8,468.7,410.7,469.3,412.5,469.8z"/>
	<path fill="#0676AD" d="M418,471.1V275.1c-1.9-0.6-3.7-1.4-5.5-2.4v197C414.3,470.3,416.2,470.7,418,471.1z"/>
	<path fill="#0676AD" d="M418,203.8V8.5c-1.8,0.3-3.7,0.7-5.5,1.1v196.6C414.3,205.3,416.1,204.5,418,203.8z"/>
	<path fill="#0675AC" d="M423.6,472V276.6c-1.8-0.4-3.7-0.8-5.5-1.5v195.9C419.9,471.5,421.7,471.8,423.6,472z"/>
	<path fill="#0675AC" d="M423.6,202.4V7.7c-1.8,0.2-3.7,0.5-5.5,0.8v195.3C419.8,203.2,421.7,202.7,423.6,202.4z"/>
	<path fill="#0574AB" d="M429.1,201.7V7.2c-1.8,0.1-3.7,0.3-5.5,0.5v194.6C425.3,202,427.2,201.8,429.1,201.7z"/>
	<path fill="#0574AB" d="M429.1,472.6V277.3c-1.8-0.1-3.7-0.3-5.5-0.7V472C425.4,472.3,427.2,472.5,429.1,472.6z"/>
	<path fill="#0573AA" d="M434.6,472.9V277.4c-1.1,0-2.3,0-3.4,0c-0.7,0-1.4,0-2.1-0.1v195.3C430.9,472.8,432.8,472.9,434.6,472.9z"
		/>
	<path fill="#0573AA" d="M431.2,201.7c1.1,0,2.3,0,3.4,0V7c-1.8,0-3.7,0.1-5.5,0.2v194.5C429.8,201.7,430.5,201.7,431.2,201.7z"/>
	<path fill="#0572A9" d="M440.1,472.9V277.6c-1.8-0.1-3.7-0.2-5.5-0.2v195.5C436.4,473,438.3,472.9,440.1,472.9z"/>
	<path fill="#0572A9" d="M440.1,201.4V7.1c-1.2,0-2.4-0.1-3.6-0.1c-0.7,0-1.3,0-2,0v194.6C436.4,201.6,438.3,201.5,440.1,201.4z"/>
	<path fill="#0571A8" d="M445.6,200.9V7.4c-1.9-0.2-3.7-0.3-5.5-0.3v194.3C442,201.3,443.8,201.1,445.6,200.9z"/>
	<path fill="#0571A8" d="M445.6,472.5V278.1c-1.8-0.2-3.7-0.3-5.5-0.4v195.2C442,472.8,443.8,472.7,445.6,472.5z"/>
	<path fill="#0470A6" d="M451.2,471.8v-193c-1.8-0.3-3.7-0.5-5.5-0.7v194.4C447.5,472.3,449.3,472.1,451.2,471.8z"/>
	<path fill="#0470A6" d="M451.2,200.2V8c-1.8-0.2-3.7-0.5-5.5-0.6v193.5C447.5,200.7,449.3,200.5,451.2,200.2z"/>
	<path fill="#046FA5" d="M456.7,470.7v-191c-1.8-0.4-3.7-0.7-5.5-0.9v193C453,471.5,454.9,471.1,456.7,470.7z"/>
	<path fill="#046FA5" d="M456.7,199.2V8.9c-1.8-0.3-3.7-0.6-5.5-0.9v192.2C453,199.9,454.9,199.6,456.7,199.2z"/>
	<path fill="#046EA4" d="M462.2,198V10.1c-1.8-0.5-3.7-0.9-5.5-1.2v190.3C458.5,198.8,460.4,198.4,462.2,198z"/>
	<path fill="#046EA4" d="M462.2,469.3V280.9c-1.8-0.5-3.7-0.9-5.5-1.2v191C458.5,470.3,460.4,469.9,462.2,469.3z"/>
	<path fill="#046DA3" d="M467.7,467.6V282.5c-1.8-0.6-3.7-1.1-5.5-1.6v188.4C464.1,468.8,465.9,468.2,467.7,467.6z"/>
	<path fill="#046DA3" d="M467.7,196.4V11.6c-1.8-0.6-3.7-1.1-5.5-1.6V198C464.1,197.5,465.9,197,467.7,196.4z"/>
	<path fill="#036CA2" d="M473.3,465.5V284.4c-1.8-0.7-3.7-1.3-5.5-1.9v185.1C469.6,467,471.4,466.2,473.3,465.5z"/>
	<path fill="#036CA2" d="M473.3,194.5V13.6c-1.8-0.7-3.7-1.4-5.5-2v184.8C469.6,195.8,471.4,195.2,473.3,194.5z"/>
	<path fill="#036BA1" d="M478.8,192.3V16.1c-1.8-0.9-3.6-1.7-5.5-2.4v180.9C475.1,193.8,477,193.1,478.8,192.3z"/>
	<path fill="#036BA1" d="M478.8,462.9V286.7c-1.8-0.8-3.7-1.6-5.5-2.3v181.1C475.1,464.7,477,463.8,478.8,462.9z"/>
	<path fill="#036AA0" d="M484.3,460V289.5c-1.8-1-3.7-1.9-5.5-2.8v176.2C480.6,462,482.5,461,484.3,460z"/>
	<path fill="#036AA0" d="M484.3,189.6V19.1c-1.8-1.1-3.6-2.1-5.5-3v176.2C480.7,191.4,482.5,190.5,484.3,189.6z"/>
	<path fill="#03699F" d="M485.3,459.5c1.6-0.9,3.1-1.9,4.6-2.9V292.8c-1.5-1-3-1.9-4.6-2.9c-0.3-0.2-0.6-0.3-1-0.5V460
		C484.6,459.8,484.9,459.6,485.3,459.5z"/>
	<path fill="#03699F" d="M485.3,189.1c1.6-0.9,3.1-1.9,4.6-2.9V22.5c-1.5-1-3-1.9-4.6-2.9c-0.3-0.2-0.6-0.4-1-0.6v170.5
		C484.6,189.4,484.9,189.2,485.3,189.1z"/>
	<path fill="#03689E" d="M495.3,182.3V26.4c-1.8-1.4-3.6-2.7-5.5-3.9v163.7C491.7,184.9,493.6,183.6,495.3,182.3z"/>
	<path fill="#03689E" d="M495.3,452.7V296.8c-1.8-1.4-3.6-2.7-5.5-3.9v163.7C491.7,455.3,493.6,454,495.3,452.7z"/>
	<path fill="#02679D" d="M500.9,448.1V301.3c-1.8-1.6-3.6-3.1-5.5-4.5v155.9C497.2,451.2,499.1,449.7,500.9,448.1z"/>
	<path fill="#02679D" d="M500.9,177.7V30.9c-1.8-1.6-3.6-3.1-5.5-4.5v155.8C497.2,180.8,499.1,179.3,500.9,177.7z"/>
	<path fill="#02669C" d="M506.4,442.8V306.6c-1.8-1.8-3.6-3.6-5.5-5.3v146.8C502.8,446.4,504.6,444.6,506.4,442.8z"/>
	<path fill="#02669C" d="M506.4,172.4V36.2c-1.8-1.8-3.6-3.6-5.5-5.3v146.8C502.8,176,504.6,174.2,506.4,172.4z"/>
	<path fill="#02659B" d="M511.9,436.6V312.8c-1.7-2.1-3.6-4.2-5.5-6.2v136.2C508.3,440.8,510.2,438.7,511.9,436.6z"/>
	<path fill="#02659B" d="M511.9,166.2V42.4c-1.7-2.1-3.6-4.2-5.5-6.2v136.2C508.3,170.4,510.2,168.3,511.9,166.2z"/>
	<path fill="#02649A" d="M517.4,429.1V320.3c-1.7-2.6-3.6-5.1-5.5-7.5v123.8C513.9,434.2,515.7,431.7,517.4,429.1z"/>
	<path fill="#02649A" d="M517.4,158.7V49.9c-1.7-2.6-3.6-5.1-5.5-7.5v123.8C513.9,163.8,515.7,161.3,517.4,158.7z"/>
	<path fill="#016399" d="M523,419.8v-90.2c-1.7-3.2-3.5-6.3-5.5-9.3v108.8C519.4,426.1,521.3,423,523,419.8z"/>
	<path fill="#016399" d="M523,149.4V59.2c-1.7-3.2-3.5-6.3-5.5-9.3v108.8C519.4,155.7,521.3,152.6,523,149.4z"/>
	<path fill="#016298" d="M528.5,407v-64.6c-1.5-4.4-3.4-8.7-5.5-12.8v90.2C525.1,415.7,526.9,411.4,528.5,407z"/>
	<path fill="#016298" d="M528.5,136.6V72c-1.5-4.4-3.4-8.7-5.5-12.8v90.2C525.1,145.3,526.9,141,528.5,136.6z"/>
	<path fill="#016197" d="M534,104.3c0-11.1-1.9-22-5.5-32.3v64.6C532.1,126.3,534,115.4,534,104.3z"/>
	<path fill="#016197" d="M534,374.7c0-11.1-1.9-22-5.5-32.3V407C532.1,396.7,534,385.8,534,374.7z"/>
</g>
</svg>
