<svg width="50" height="20" viewBox="0 0 50 20" fill="none" xmlns="http://www.w3.org/2000/svg">
<path d="M18.0185 19.4917C20.7037 13.8111 27.4435 12.8484 30.3704 12.8428C28.1524 13.265 22.5404 14.7569 20.7037 19.1764C20.1022 20.4375 18.3461 20.004 18.0185 19.4917Z" fill="url(#paint0_linear)"/>
<path d="M31.5412 7.18457C31.45 8.42492 30.9695 9.59868 30.1747 10.5225C29.38 11.4463 28.3157 12.0682 27.1482 12.2909C27.3308 8.13039 29.5166 7.43792 31.5412 7.18457Z" fill="url(#paint1_linear)"/>
<path d="M28.029 14.1191C29.001 15.0424 32.234 15.5603 33.3242 15.5603C34.0762 15.5582 34.8237 15.4387 35.5421 15.2056C34.0026 14.2101 32.2276 13.6874 30.4188 13.6968C29.6028 13.6608 28.7886 13.8046 28.029 14.1191Z" fill="url(#paint2_linear)"/>
<path d="M36.0578 6.23779C36.0578 6.23779 36.5089 10.8093 31.1868 11.6143C31.842 8.12944 33.9579 6.3898 36.0578 6.23779Z" fill="url(#paint3_linear)"/>
<path d="M32.019 12.5669C33.2788 13.2436 34.6488 13.6657 36.0576 13.8111C37.7454 13.8338 39.4102 13.3994 40.8909 12.55C39.4709 11.811 37.9244 11.3765 36.3422 11.272C34.8815 11.272 32.8783 11.8631 32.019 12.5669Z" fill="url(#paint4_linear)"/>
<path d="M41.1757 3.39453C41.3018 4.77503 40.9448 6.15651 40.1711 7.28143C39.3974 8.40635 38.2599 9.19793 36.9707 9.5086C36.6645 5.60145 39.1134 3.80551 41.1757 3.39453Z" fill="url(#paint5_linear)"/>
<path d="M45.7725 9.39029C45.3314 9.97487 44.7711 10.4486 44.1328 10.7769C43.4944 11.1052 42.7941 11.2797 42.0831 11.2876C40.6833 11.2981 39.3105 10.8836 38.1305 10.094C39.4643 9.18394 41.0181 8.69176 42.6094 8.67529C43.699 8.68782 44.7749 8.93101 45.7725 9.39029Z" fill="url(#paint6_linear)"/>
<path d="M49.1667 0.000488281C48.2429 4.26795 45.692 6.05825 42.0348 7.5164C42.1852 5.10117 44.4622 1.55434 49.1667 0.000488281Z" fill="url(#paint7_linear)"/>
<path d="M31.9816 19.4917C29.2964 13.8111 22.5566 12.8484 19.6297 12.8428C21.8477 13.265 27.4597 14.7569 29.2964 19.1764C29.8979 20.4375 31.654 20.004 31.9816 19.4917Z" fill="url(#paint8_linear)"/>
<path d="M18.4587 7.18457C18.5499 8.42492 19.0304 9.59868 19.8252 10.5225C20.6199 11.4463 21.6842 12.0682 22.8517 12.2909C22.6691 8.13039 20.4834 7.43792 18.4587 7.18457Z" fill="url(#paint9_linear)"/>
<path d="M21.971 14.1191C20.999 15.0424 17.766 15.5603 16.6759 15.5603C15.9238 15.5582 15.1763 15.4387 14.4579 15.2056C15.9974 14.2101 17.7724 13.6874 19.5812 13.6968C20.3972 13.6608 21.2114 13.8046 21.971 14.1191Z" fill="url(#paint10_linear)"/>
<path d="M13.9424 6.23779C13.9424 6.23779 13.4913 10.8093 18.8133 11.6143C18.1581 8.12944 16.0422 6.3898 13.9424 6.23779Z" fill="url(#paint11_linear)"/>
<path d="M17.9809 12.5669C16.7212 13.2436 15.3511 13.6657 13.9424 13.8111C12.2546 13.8338 10.5898 13.3994 9.10907 12.55C10.5291 11.811 12.0755 11.3765 13.6578 11.272C15.1185 11.272 17.1217 11.8631 17.9809 12.5669Z" fill="url(#paint12_linear)"/>
<path d="M8.82448 3.39453C8.69832 4.77503 9.05536 6.15651 9.82903 7.28143C10.6027 8.40635 11.7402 9.19793 13.0295 9.5086C13.3356 5.60145 10.8867 3.80551 8.82448 3.39453Z" fill="url(#paint13_linear)"/>
<path d="M4.22729 9.39029C4.66845 9.97487 5.22871 10.4486 5.86708 10.7769C6.50544 11.1052 7.20575 11.2797 7.91675 11.2876C9.31656 11.2981 10.6894 10.8836 11.8693 10.094C10.5356 9.18394 8.98178 8.69176 7.39045 8.67529C6.30088 8.68782 5.22497 8.93101 4.22729 9.39029Z" fill="url(#paint14_linear)"/>
<path d="M0.833328 0C1.75703 4.26746 4.30796 6.05777 7.96519 7.51591C7.81482 5.10068 5.53778 1.55385 0.833328 0Z" fill="url(#paint15_linear)"/>
<defs>
<linearGradient id="paint0_linear" x1="24.1944" y1="12.8428" x2="24.1944" y2="19.9998" gradientUnits="userSpaceOnUse">
<stop stop-color="#B9F2FF"/>
<stop offset="1" stop-color="#1A90AB" stop-opacity="0.71"/>
</linearGradient>
<linearGradient id="paint1_linear" x1="29.3447" y1="7.18457" x2="29.3447" y2="12.2909" gradientUnits="userSpaceOnUse">
<stop stop-color="#B9F2FF"/>
<stop offset="1" stop-color="#1A90AB" stop-opacity="0.71"/>
</linearGradient>
<linearGradient id="paint2_linear" x1="31.7855" y1="13.6914" x2="31.7855" y2="15.5603" gradientUnits="userSpaceOnUse">
<stop stop-color="#B9F2FF"/>
<stop offset="1" stop-color="#1A90AB" stop-opacity="0.71"/>
</linearGradient>
<linearGradient id="paint3_linear" x1="33.627" y1="6.23779" x2="33.627" y2="11.6143" gradientUnits="userSpaceOnUse">
<stop stop-color="#B9F2FF"/>
<stop offset="1" stop-color="#1A90AB" stop-opacity="0.71"/>
</linearGradient>
<linearGradient id="paint4_linear" x1="36.455" y1="11.272" x2="36.455" y2="13.8119" gradientUnits="userSpaceOnUse">
<stop stop-color="#B9F2FF"/>
<stop offset="1" stop-color="#1A90AB" stop-opacity="0.71"/>
</linearGradient>
<linearGradient id="paint5_linear" x1="39.0725" y1="3.39453" x2="39.0725" y2="9.5086" gradientUnits="userSpaceOnUse">
<stop stop-color="#B9F2FF"/>
<stop offset="1" stop-color="#1A90AB" stop-opacity="0.71"/>
</linearGradient>
<linearGradient id="paint6_linear" x1="41.9515" y1="8.67529" x2="41.9515" y2="11.2878" gradientUnits="userSpaceOnUse">
<stop stop-color="#B9F2FF"/>
<stop offset="1" stop-color="#1A90AB" stop-opacity="0.71"/>
</linearGradient>
<linearGradient id="paint7_linear" x1="45.6007" y1="0.000488281" x2="45.6007" y2="7.5164" gradientUnits="userSpaceOnUse">
<stop stop-color="#B9F2FF"/>
<stop offset="1" stop-color="#1A90AB" stop-opacity="0.71"/>
</linearGradient>
<linearGradient id="paint8_linear" x1="25.8056" y1="12.8428" x2="25.8056" y2="19.9998" gradientUnits="userSpaceOnUse">
<stop stop-color="#B9F2FF"/>
<stop offset="1" stop-color="#1A90AB" stop-opacity="0.71"/>
</linearGradient>
<linearGradient id="paint9_linear" x1="20.6552" y1="7.18457" x2="20.6552" y2="12.2909" gradientUnits="userSpaceOnUse">
<stop stop-color="#B9F2FF"/>
<stop offset="1" stop-color="#1A90AB" stop-opacity="0.71"/>
</linearGradient>
<linearGradient id="paint10_linear" x1="18.2145" y1="13.6914" x2="18.2145" y2="15.5603" gradientUnits="userSpaceOnUse">
<stop stop-color="#B9F2FF"/>
<stop offset="1" stop-color="#1A90AB" stop-opacity="0.71"/>
</linearGradient>
<linearGradient id="paint11_linear" x1="16.3731" y1="6.23779" x2="16.3731" y2="11.6143" gradientUnits="userSpaceOnUse">
<stop stop-color="#B9F2FF"/>
<stop offset="1" stop-color="#1A90AB" stop-opacity="0.71"/>
</linearGradient>
<linearGradient id="paint12_linear" x1="13.545" y1="11.272" x2="13.545" y2="13.8119" gradientUnits="userSpaceOnUse">
<stop stop-color="#B9F2FF"/>
<stop offset="1" stop-color="#1A90AB" stop-opacity="0.71"/>
</linearGradient>
<linearGradient id="paint13_linear" x1="10.9276" y1="3.39453" x2="10.9276" y2="9.5086" gradientUnits="userSpaceOnUse">
<stop stop-color="#B9F2FF"/>
<stop offset="1" stop-color="#1A90AB" stop-opacity="0.71"/>
</linearGradient>
<linearGradient id="paint14_linear" x1="8.04832" y1="8.67529" x2="8.04832" y2="11.2878" gradientUnits="userSpaceOnUse">
<stop stop-color="#B9F2FF"/>
<stop offset="1" stop-color="#1A90AB" stop-opacity="0.71"/>
</linearGradient>
<linearGradient id="paint15_linear" x1="4.39926" y1="0" x2="4.39926" y2="7.51591" gradientUnits="userSpaceOnUse">
<stop stop-color="#B9F2FF"/>
<stop offset="1" stop-color="#1A90AB" stop-opacity="0.71"/>
</linearGradient>
</defs>
</svg>
