<?xml version="1.0" encoding="utf-8"?>
<!-- Generator: Adobe Illustrator 19.1.1, SVG Export Plug-In . SVG Version: 6.00 Build 0)  -->
<svg version="1.1" id="Layer_1" xmlns="http://www.w3.org/2000/svg" xmlns:xlink="http://www.w3.org/1999/xlink" x="0px" y="0px"
	 viewBox="80 0 640 480" style="enable-background:new 80 0 640 480;" xml:space="preserve">
<style type="text/css">
	.st0{fill:#034EA2;}
	.st1{fill:#FFF100;}
</style>
<rect x="80" class="st0" width="640" height="480"/>
<polygon class="st1" points="384.2,100 400.1,88.4 416,100 410,81.2 426.1,69.6 406.2,69.6 400.1,50.6 394,69.6 374.1,69.6 
	390.2,81.2 "/>
<polygon class="st1" points="301.9,122.1 317.8,110.5 333.7,122.1 327.6,103.3 343.8,91.7 323.9,91.7 317.8,72.7 311.7,91.7 
	291.8,91.7 307.9,103.3 "/>
<polygon class="st1" points="257.5,133.1 251.4,152.1 231.5,152.1 247.7,163.7 241.6,182.5 257.5,170.9 273.4,182.5 267.4,163.7 
	283.5,152.1 263.6,152.1 "/>
<polygon class="st1" points="235.4,253.1 251.3,264.7 245.3,245.9 261.4,234.3 241.5,234.3 235.4,215.3 229.3,234.4 209.4,234.3 
	225.6,245.9 219.5,264.7 "/>
<polygon class="st1" points="263.6,316.8 257.5,297.8 251.4,316.8 231.5,316.8 247.7,328.4 241.6,347.2 257.5,335.6 273.4,347.2 
	267.4,328.4 283.5,316.8 "/>
<polygon class="st1" points="324,377.2 317.9,358.2 311.8,377.2 291.9,377.2 308,388.8 302,407.5 317.9,395.9 333.8,407.5 
	327.8,388.8 343.9,377.2 "/>
<polygon class="st1" points="406.2,399 400.1,380 394,399 374.1,399 390.3,410.6 384.2,429.4 400.1,417.8 416,429.4 410,410.6 
	426.1,399 "/>
<polygon class="st1" points="488.4,377.2 482.4,358.2 476.2,377.2 456.3,377.2 472.5,388.8 466.4,407.5 482.4,395.9 498.3,407.5 
	492.2,388.8 508.4,377.2 "/>
<polygon class="st1" points="548.8,316.8 542.7,297.8 536.6,316.8 516.7,316.8 532.9,328.4 526.8,347.2 542.7,335.6 558.6,347.2 
	552.6,328.4 568.7,316.8 "/>
<polygon class="st1" points="590.6,234.1 570.7,234.1 564.6,215.1 558.5,234.1 538.6,234.1 554.7,245.7 548.7,264.5 564.6,252.8 
	580.5,264.5 574.4,245.7 "/>
<polygon class="st1" points="526.8,182.2 542.7,170.6 558.6,182.2 552.6,163.5 568.7,151.9 548.8,151.9 542.7,132.8 536.6,151.9 
	516.7,151.9 532.9,163.5 "/>
<polygon class="st1" points="482.6,72.7 476.5,91.8 456.6,91.7 472.7,103.3 466.7,122.1 482.6,110.5 498.5,122.1 492.4,103.3 
	508.6,91.7 488.7,91.7 "/>
</svg>
