<svg width="14" height="14" viewBox="0 0 14 14" fill="none" xmlns="http://www.w3.org/2000/svg">
<path d="M13.2578 6.41067L7.42359 13.1343C7.37085 13.1951 7.30566 13.2439 7.23241 13.2774C7.15917 13.3108 7.0796 13.3281 6.99908 13.3281C6.91857 13.3281 6.83899 13.3108 6.76575 13.2774C6.6925 13.2439 6.62731 13.1951 6.57457 13.1343L0.742147 6.41067C0.724523 6.3904 0.713095 6.3655 0.709225 6.33892C0.705356 6.31234 0.709207 6.28521 0.720321 6.26076C0.731435 6.23631 0.749343 6.21557 0.771911 6.20101C0.79448 6.18645 0.820758 6.17869 0.847616 6.17864H2.27144C2.3523 6.17864 2.42965 6.2138 2.48414 6.27532L6.33199 10.7103V0.812037C6.33199 0.734694 6.39527 0.671412 6.47262 0.671412H7.5273C7.60465 0.671412 7.66793 0.734694 7.66793 0.812037V10.7103L11.5158 6.27532C11.5685 6.2138 11.6459 6.17864 11.7285 6.17864H13.1523C13.2718 6.17864 13.3369 6.31926 13.2578 6.41067Z" fill="#EB5757" fill-opacity="0.75"/>
</svg>
