<svg width="14" height="14" viewBox="0 0 14 14" fill="none" xmlns="http://www.w3.org/2000/svg">
<path d="M13.2578 7.58933L7.42359 0.865697C7.37085 0.804857 7.30566 0.756063 7.23241 0.722623C7.15917 0.689182 7.0796 0.671875 6.99908 0.671875C6.91857 0.671875 6.83899 0.689182 6.76575 0.722623C6.6925 0.756063 6.62731 0.804857 6.57457 0.865697L0.742147 7.58933C0.724523 7.6096 0.713095 7.6345 0.709225 7.66108C0.705356 7.68766 0.709207 7.71479 0.720321 7.73924C0.731435 7.76369 0.749343 7.78443 0.771911 7.79899C0.79448 7.81355 0.820758 7.82131 0.847616 7.82136H2.27144C2.3523 7.82136 2.42965 7.7862 2.48414 7.72468L6.33199 3.28972V13.188C6.33199 13.2653 6.39527 13.3286 6.47262 13.3286H7.5273C7.60465 13.3286 7.66793 13.2653 7.66793 13.188V3.28972L11.5158 7.72468C11.5685 7.7862 11.6459 7.82136 11.7285 7.82136H13.1523C13.2718 7.82136 13.3369 7.68074 13.2578 7.58933Z" fill="#219653"/>
</svg>
