<svg width="32" height="24" viewBox="0 0 32 24" fill="none" xmlns="http://www.w3.org/2000/svg">
<g clip-path="url(#clip0)">
<path d="M21.3333 0H0V16H21.3333V0Z" fill="#000066"/>
<path d="M0 0V0.931691L10.2346 8.33333H11.5228V7.40167L1.28825 2.77777e-05H0L0 0ZM11.5228 0V0.931663L1.28825 8.3333H0V7.40164L10.2346 0H11.5228Z" fill="white"/>
<path d="M4.80117 0V8.3333H6.72164V0H4.80117ZM0 2.77777V5.55553H11.5228V2.77777H0Z" fill="white"/>
<path d="M0 3.33332V4.99998H11.5228V3.33332H0ZM5.18527 0V8.3333H6.33755V0H5.18527Z" fill="#CC0000"/>
<path d="M0 8.3333L3.84094 5.55553H4.69977L0.858834 8.3333H0H0ZM0 0L3.84094 2.77777H2.9821L0 0.621136V0L0 0ZM6.82304 2.77777L10.664 0H11.5228L7.68187 2.77777H6.82304ZM11.5228 8.3333L7.68187 5.55553H8.54071L11.5228 7.71219V8.3333Z" fill="#CC0000"/>
<path fill-rule="evenodd" clip-rule="evenodd" d="M9.99201 13.0842L8.53692 13.2107L8.73739 14.6576L7.73117 13.5988L6.72495 14.6576L6.92542 13.2107L5.47034 13.0842L6.72624 12.3388L5.91818 11.1223L7.28385 11.6394L7.73117 10.249L8.1785 11.6394L9.54417 11.1223L8.7361 12.3388L9.99201 13.0842Z" fill="white"/>
<path fill-rule="evenodd" clip-rule="evenodd" d="M16.2176 14.4176L15.8664 13.8892L16.46 14.1139L16.6542 13.5098L16.8483 14.1139L17.4419 13.8892L17.0907 14.4176L17.6363 14.7416L17.0042 14.7966L17.0914 15.425L16.6542 14.9651L16.2169 15.425L16.3041 14.7966L15.672 14.7416L16.2176 14.4176Z" fill="white"/>
<path fill-rule="evenodd" clip-rule="evenodd" d="M16.2176 5.0143L15.8664 4.48577L16.46 4.71051L16.6542 4.10645L16.8483 4.71051L17.4419 4.48577L17.0907 5.0143L17.6363 5.3382L17.0042 5.3932L17.0914 6.02157L16.6542 5.56176L16.2169 6.02157L16.3041 5.3932L15.672 5.3382L16.2176 5.0143Z" fill="white"/>
<path fill-rule="evenodd" clip-rule="evenodd" d="M12.6914 8.83464L12.3402 8.30618L12.9337 8.53092L13.1279 7.92676L13.3221 8.53092L13.9157 8.30618L13.5645 8.83464L14.1101 9.15858L13.478 9.21359L13.5652 9.84196L13.1279 9.38214L12.6907 9.84196L12.7779 9.21359L12.1458 9.15858L12.6914 8.83464Z" fill="white"/>
<path fill-rule="evenodd" clip-rule="evenodd" d="M19.3528 7.89421L19.0009 7.36575L19.595 7.59048L19.7877 6.98633L19.9828 7.59048L20.5752 7.36575L20.225 7.89421L20.7704 8.21814L20.138 8.27315L20.225 8.90152L19.7877 8.44171L19.3505 8.90152L19.4375 8.27315L18.8063 8.21814L19.3528 7.89421Z" fill="white"/>
<path fill-rule="evenodd" clip-rule="evenodd" d="M18.0646 10.6643L17.7191 10.8785L17.8162 10.4838L17.5056 10.2217L17.9111 10.1918L18.0646 9.81543L18.2181 10.1918L18.6236 10.2217L18.3131 10.4838L18.4102 10.8785L18.0646 10.6643Z" fill="white"/>
</g>
<g clip-path="url(#clip1)">
<path d="M26.9942 8H15.6731V24H26.9942V8Z" fill="white"/>
<path d="M15.6729 8H10.0123V24H15.6729V8Z" fill="#BF0A30"/>
<path d="M32.6548 8H26.9943V24H32.6548V8Z" fill="#BF0A30"/>
<path d="M17.3659 15.7314L16.9263 15.8816L18.9718 17.6768C19.1265 18.1382 18.9181 18.2742 18.7853 18.5162L21.0059 18.2343L20.948 20.4691L21.408 20.4558L21.3077 18.2397L23.5305 18.5032C23.3929 18.2126 23.2705 18.0584 23.3978 17.5939L25.4419 15.8931L25.0842 15.7636C24.7917 15.5379 25.2106 14.6766 25.2738 14.133C25.2738 14.133 24.0802 14.5435 24.0019 14.3287L23.698 13.7448L22.6121 14.9377C22.4935 14.9661 22.4429 14.9189 22.4151 14.8186L22.9168 12.326L22.1224 12.7727C22.0559 12.8012 21.9894 12.7766 21.9456 12.6991L21.1815 11.166L20.3937 12.7582C20.3343 12.8153 20.2749 12.8219 20.2256 12.7831L19.4692 12.3588L19.9232 14.832C19.8871 14.9302 19.8006 14.9578 19.6989 14.9046L18.6609 13.7254C18.5251 13.9429 18.4331 14.2984 18.2536 14.378C18.0741 14.4526 17.4729 14.2273 17.07 14.1393C17.2077 14.6361 17.638 15.4613 17.3657 15.7317L17.3659 15.7314Z" fill="#BF0A30"/>
</g>
<defs>
<clipPath id="clip0">
<rect width="21.3333" height="16" fill="white"/>
</clipPath>
<clipPath id="clip1">
<rect width="21.3333" height="16" fill="white" transform="translate(10.6667 8)"/>
</clipPath>
</defs>
</svg>
