<svg width="15" height="19" viewBox="0 0 15 19" fill="none" xmlns="http://www.w3.org/2000/svg">
<path d="M13.0798 2.58337H10.1111C10.1111 1.34236 9.04605 0.333374 7.73608 0.333374C6.42612 0.333374 5.36108 1.34236 5.36108 2.58337H2.39233C1.40894 2.58337 0.611084 3.33923 0.611084 4.27087V16.6459C0.611084 17.5775 1.40894 18.3334 2.39233 18.3334H13.0798C14.0632 18.3334 14.8611 17.5775 14.8611 16.6459V4.27087C14.8611 3.33923 14.0632 2.58337 13.0798 2.58337ZM7.73608 1.73962C8.22964 1.73962 8.62671 2.1158 8.62671 2.58337C8.62671 3.05095 8.22964 3.42712 7.73608 3.42712C7.24253 3.42712 6.84546 3.05095 6.84546 2.58337C6.84546 2.1158 7.24253 1.73962 7.73608 1.73962ZM12.2337 9.88884L6.9271 14.874C6.75269 15.0392 6.47065 15.0357 6.29624 14.8705L3.23101 11.942C3.05659 11.7767 3.0603 11.5095 3.23472 11.3443L4.28862 10.3529C4.46304 10.1877 4.74507 10.1912 4.91948 10.3564L6.62651 11.9877L10.5601 8.28923C10.7345 8.124 11.0166 8.12751 11.191 8.29275L12.2375 9.29119C12.4119 9.45994 12.4082 9.72361 12.2337 9.88884Z" fill="#F8F8F8"/>
</svg>
