<?xml version="1.0" encoding="utf-8"?>
<!-- Generator: Adobe Illustrator 19.1.1, SVG Export Plug-In . SVG Version: 6.00 Build 0)  -->
<svg version="1.1" id="Layer_1" xmlns="http://www.w3.org/2000/svg" xmlns:xlink="http://www.w3.org/1999/xlink" x="0px" y="0px"
	 viewBox="80 0 640 480" style="enable-background:new 80 0 640 480;" xml:space="preserve">
<style type="text/css">
	.st0{fill:#727272;}
</style>
<g>
	<path class="st0" d="M293.8,324.3c-16.4,8.6-36.7,13-61.1,13c-31.5,0-56.7-10.1-75.7-30.4c-18.9-20.3-28.4-46.9-28.4-79.8
		c0-35.4,10.7-64,32-85.8c21.3-21.8,48.3-32.7,81.1-32.7c21,0,38.4,3,52.2,9.1v27.6c-15.9-8.9-33.4-13.3-52.5-13.3
		c-25.4,0-46,8.5-61.8,25.5c-15.8,17-23.7,39.7-23.7,68.1c0,27,7.4,48.5,22.2,64.5c14.8,16,34.1,24,58.1,24
		c22.2,0,41.5-4.9,57.7-14.8V324.3z"/>
	<path class="st0" d="M451.3,135.6h-86.5v76.6h80v23.3h-80v98h-25.9V112.1h112.4V135.6z"/>
	<path class="st0" d="M493.3,333.5V112.1h61.1c78,0,117,36,117,107.9c0,34.2-10.8,61.6-32.5,82.4c-21.7,20.7-50.7,31.1-87,31.1
		H493.3z M519.2,135.6v174.5h33c29,0,51.6-7.8,67.8-23.3c16.2-15.5,24.2-37.6,24.2-66.1c0-56.7-30.2-85.1-90.5-85.1H519.2z"/>
</g>
<g>
	<path class="st0" d="M293.8,324.3c-16.4,8.6-36.7,13-61.1,13c-31.5,0-56.7-10.1-75.7-30.4c-18.9-20.3-28.4-46.9-28.4-79.8
		c0-35.4,10.7-64,32-85.8c21.3-21.8,48.3-32.7,81.1-32.7c21,0,38.4,3,52.2,9.1v27.6c-15.9-8.9-33.4-13.3-52.5-13.3
		c-25.4,0-46,8.5-61.8,25.5c-15.8,17-23.7,39.7-23.7,68.1c0,27,7.4,48.5,22.2,64.5c14.8,16,34.1,24,58.1,24
		c22.2,0,41.5-4.9,57.7-14.8V324.3z"/>
	<path class="st0" d="M451.3,135.6h-86.5v76.6h80v23.3h-80v98h-25.9V112.1h112.4V135.6z"/>
	<path class="st0" d="M493.3,333.5V112.1h61.1c78,0,117,36,117,107.9c0,34.2-10.8,61.6-32.5,82.4c-21.7,20.7-50.7,31.1-87,31.1
		H493.3z M519.2,135.6v174.5h33c29,0,51.6-7.8,67.8-23.3c16.2-15.5,24.2-37.6,24.2-66.1c0-56.7-30.2-85.1-90.5-85.1H519.2z"/>
</g>
<g>
	<path class="st0" d="M293.8,324.3c-16.4,8.6-36.7,13-61.1,13c-31.5,0-56.7-10.1-75.7-30.4c-18.9-20.3-28.4-46.9-28.4-79.8
		c0-35.4,10.7-64,32-85.8c21.3-21.8,48.3-32.7,81.1-32.7c21,0,38.4,3,52.2,9.1v27.6c-15.9-8.9-33.4-13.3-52.5-13.3
		c-25.4,0-46,8.5-61.8,25.5c-15.8,17-23.7,39.7-23.7,68.1c0,27,7.4,48.5,22.2,64.5c14.8,16,34.1,24,58.1,24
		c22.2,0,41.5-4.9,57.7-14.8V324.3z"/>
	<path class="st0" d="M451.3,135.6h-86.5v76.6h80v23.3h-80v98h-25.9V112.1h112.4V135.6z"/>
	<path class="st0" d="M493.3,333.5V112.1h61.1c78,0,117,36,117,107.9c0,34.2-10.8,61.6-32.5,82.4c-21.7,20.7-50.7,31.1-87,31.1
		H493.3z M519.2,135.6v174.5h33c29,0,51.6-7.8,67.8-23.3c16.2-15.5,24.2-37.6,24.2-66.1c0-56.7-30.2-85.1-90.5-85.1H519.2z"/>
</g>
</svg>
