<?xml version="1.0" encoding="utf-8"?>
<!-- Generator: Adobe Illustrator 21.1.0, SVG Export Plug-In . SVG Version: 6.00 Build 0)  -->
<svg version="1.1" id="Layer_1" xmlns="http://www.w3.org/2000/svg" xmlns:xlink="http://www.w3.org/1999/xlink" x="0px" y="0px"
	 viewBox="0 0 640 480" style="enable-background:new 0 0 640 480;" xml:space="preserve">
<style type="text/css">
	.st0{fill-rule:evenodd;clip-rule:evenodd;fill:#ED1C29;}
	.st1{fill-rule:evenodd;clip-rule:evenodd;fill:#FFFFFF;}
</style>
<g>
	<path class="st0" d="M320,478.5c131.7,0,238.5-106.8,238.5-238.5C558.5,108.3,451.7,1.5,320,1.5C188.3,1.5,81.5,108.3,81.5,240
		C81.5,371.7,188.3,478.5,320,478.5L320,478.5z"/>
	<path class="st1" d="M121.4,239.8c0-109.7,88.9-198.5,198.5-198.5c109.7,0,198.5,88.9,198.5,198.5c0,109.6-88.9,198.5-198.5,198.5
		C210.3,438.3,121.4,349.4,121.4,239.8L121.4,239.8L121.4,239.8z M319.9,447.9c114.9,0,208.1-93.2,208.1-208
		c0-114.9-93.2-208.1-208.1-208.1c-114.9,0-208.1,93.1-208.1,208.1C111.8,354.7,205,447.9,319.9,447.9L319.9,447.9z"/>
	<path class="st1" d="M315.2,134.7L315.2,134.7h-15.2l0,0c-2.9,0-5.2-2.3-5.2-5.1c0-2.9,2.3-5.2,5.2-5.2l0,0h15.2h0V78.4h0h-36.4
		l8.9,64.6h-51c0,0,19.2,125.2-32.5,229.6c30.8,0.1,67.9,0,67.9,0H272c35.8-96.2,31.8-107.6,31.8-107.6h11.4h0v-43h0h-11.5l0,0
		c-2.9,0-5.2-2.3-5.2-5.2c0-2.8,2.3-5.2,5.2-5.2l0,0h11.5h0V134.7L315.2,134.7z"/>
	<path class="st1" d="M325.5,134.7h14.8l0,0c2.9,0,5.2-2.3,5.2-5.1c0-2.9-2.3-5.2-5.2-5.2l0,0h-14.8V78.4h36.1l-8.7,64.6h51
		c0,0-19.4,125.2,32.3,229.6c-30.8,0.1-68,0-68,0C332.3,276.4,336.5,265,336.5,265h-11v-43h0.7h10.6l0,0c2.9,0,5.2-2.3,5.2-5.2
		c0-2.8-2.3-5.2-5.2-5.2l0,0h-10.6h-0.7V134.7L325.5,134.7z"/>
	<path class="st0" d="M283.4,274.4c-0.3,0.3-0.6,0.5-0.9,0.7l4.5,17l0,0c0.7,2.6-0.8,5.2-3.4,5.9c-2.6,0.7-5.2-0.8-5.9-3.4
		l-4.2-15.4c-0.8,0.1-1.7,0.3-2.5,0.3c-0.7,0-1.4-0.1-2.1-0.2l-4.1,15.4c-0.7,2.6-3.3,4.1-5.9,3.4c-2.6-0.7-4.1-3.3-3.4-5.9l0,0
		l4.5-16.8c-0.3-0.3-0.7-0.5-1-0.8c-3.2-3.3-5-7.6-5-12.3v-69.7c0.1-9.6,7.9-17.3,17.5-17.3c9.4,0,17.1,7.8,17.1,17.3v69.7
		C288.5,266.9,286.6,271.2,283.4,274.4L283.4,274.4z"/>
	<path class="st1" d="M263.6,221.6c0,19.1,0,40.5,0,40.5c0,2.1,0.8,4.1,2.2,5.5c1.4,1.4,3.2,2.2,5.3,2.2c2.1,0,4.1-0.8,5.5-2.3
		c1.5-1.4,2.2-3.3,2.3-5.3c0,0,0-21.6,0-40.6H263.6L263.6,221.6z"/>
	<path class="st1" d="M278.8,212c0-11,0-19.4,0-19.4c0-4.3-3.3-7.7-7.5-7.7c-4.3,0-7.8,3.4-7.8,7.6c0,0,0,8.4,0,19.5H278.8
		L278.8,212z"/>
	<path class="st0" d="M390.3,216.8l-20.9-40.7l-20.9,40.7l16,31.3v45.3c0,2.7,2.2,4.8,4.9,4.8c2.7,0,4.8-2.1,4.8-4.8v-45.4
		L390.3,216.8L390.3,216.8L390.3,216.8z M369.5,236.6l-10.2-19.8l10.2-19.9l10.2,19.9L369.5,236.6L369.5,236.6z"/>
</g>
</svg>
