<?xml version="1.0" encoding="utf-8"?>
<!-- Generator: Adobe Illustrator 21.0.2, SVG Export Plug-In . SVG Version: 6.00 Build 0)  -->
<svg version="1.1" id="Layer_4" xmlns="http://www.w3.org/2000/svg" xmlns:xlink="http://www.w3.org/1999/xlink" x="0px" y="0px"
	 viewBox="0 0 640 480" style="enable-background:new 0 0 640 480;" xml:space="preserve">
<style type="text/css">
	.st0{fill:none;}
	.st1{fill:#BBBCBF;}
	.st2{fill:#CBDDF2;}
	.st3{fill:#B6CCEB;}
	.st4{fill:#A0BFE5;}
	.st5{fill:#80AEDE;}
	.st6{fill:#5CA5DD;}
	.st7{fill:#4498D5;}
	.st8{fill:#307EC2;}
	.st9{fill:#2E6BAA;}
	.st10{fill:#FFFFFF;}
</style>
<g>
	<path class="st0" d="M461.1,312.1c-1.2-12-16.7-19.1-33.5-4.8c-16.8,13.2-23.9,57.4-23.9,57.4h0C451.6,361.1,462.3,324,461.1,312.1
		z"/>
	<polygon class="st1" points="202.8,455.6 202.8,455.6 85.6,455.6 202.8,455.6 	"/>
	<polygon class="st1" points="85.6,263.7 85.6,197.9 85.6,132.1 85.6,66.2 85.6,0.5 202.8,0.5 202.8,0.5 85.6,0.5 85.6,370.8 
		85.6,329.5 	"/>
	<rect x="202.8" y="0.5" class="st2" width="0" height="65.7"/>
	<rect x="85.6" y="0.5" class="st2" width="117.2" height="65.7"/>
	<rect x="202.8" y="66.2" class="st3" width="0" height="65.8"/>
	<rect x="85.6" y="66.2" class="st3" width="117.2" height="65.8"/>
	<rect x="202.8" y="132.1" class="st4" width="0" height="65.8"/>
	<rect x="85.6" y="132.1" class="st4" width="117.2" height="65.8"/>
	<rect x="202.8" y="197.9" class="st5" width="0" height="65.8"/>
	<path class="st5" d="M202.8,197.9H85.6l0,65.8h117.2L202.8,197.9z M184.9,241.5c-6,10.8-17.9,16.7-27.5,10.8
		c-9.6-4.8-12-17.9-6-28.7c7.2-12,19.1-16.7,28.7-12C188.4,217.6,190.8,230.7,184.9,241.5z"/>
	<rect x="202.8" y="263.7" class="st6" width="0" height="65.8"/>
	<path class="st6" d="M101.1,325.2c0,0,39.5-29.9,47.8-33.5c8.4-3.6,39.5-21.5,29.9,20.3c-1.2,5.9-2.6,11.7-4.1,17.5h28.1l0-65.8
		H85.6v65.8h19.2C103.4,327.8,101.8,325.8,101.1,325.2L101.1,325.2z"/>
	<path class="st6" d="M125.1,319.2c-9.6,4.1-14.1,7.9-16.2,10.3h28.3C138.1,324.3,140.9,312.9,125.1,319.2z"/>
	<polygon class="st7" points="85.6,370.8 85.6,395.3 85.6,395.3 	"/>
	<rect x="202.8" y="329.5" class="st7" width="0" height="65.8"/>
	<path class="st7" d="M117.6,395.3c8.2-27.2,19.5-61.7,19.5-64.1c0-0.4,0.1-1,0.2-1.7h-28.3c-1.5,1.8-1.8,2.9-1.8,2.9
		s-1.1-1.3-2.3-2.9H85.6l0,41.3l0,24.5H117.6z"/>
	<path class="st7" d="M153.1,395.3h49.7l0-65.8h-28.1C166.8,359.4,155.6,385.9,153.1,395.3z"/>
	<rect x="202.8" y="395.3" class="st8" width="0" height="60.3"/>
	<polygon class="st8" points="85.6,395.3 85.6,455.6 85.6,395.3 	"/>
	<path class="st8" d="M202.8,395.3h-49.7c-0.3,1.3-0.5,2.2-0.5,2.8c0,6-9.6,22.7,4.8,19.1c15.5-2.4,22.7-13.2,22.7-13.2l4.8,7.2
		c0,0-29.9,28.7-51.4,32.3c-16.7,3.6-27.5-1.2-23.9-19.1c1.1-5.6,4.3-16.6,8.1-29.1h-32l0,60.2l117.2,0L202.8,395.3z"/>
	<rect x="85.6" y="395.3" class="st8" width="0" height="0"/>
	<rect x="202.8" y="395.3" class="st8" width="0" height="0"/>
	
		<rect x="177.9" y="370.5" transform="matrix(0.3162 -0.9487 0.9487 0.3162 -253.3642 439.1256)" class="st8" width="0" height="49.7"/>
	<rect x="85.6" y="395.3" class="st8" width="32" height="0"/>
	<path class="st9" d="M394.2,443.6c4.8,1.2,33.5,7.2,86.1-33.5l-3.6-8.4c0,0-33.5,26.3-58.6,20.3c-22.7-4.8-15.6-39.5-15.6-47.8l0,0
		c0,0,58.6-7.2,78.9-35.9c19.1-28.7,2.4-55-20.3-53.8c-21.5,0-70.6,13.2-92.1,81.3C348.7,434,389.4,442.4,394.2,443.6z M427.7,307.3
		c16.7-14.4,32.3-7.2,33.5,4.8c1.2,12-9.6,49-57.4,52.6h0C403.7,364.7,410.9,320.4,427.7,307.3z"/>
	<path class="st9" d="M244.7,438.8c26.3,19.1,82.5-10.8,95.7-22.7v-14.3c0,0-33.5,29.9-53.8,20.3c-20.3-9.6-22.7-19.1-20.3-51.4
		c2.4-33.5,15.5-64.6,39.5-67c23.9-2.4,39.5,7.2,34.7,34.7h8.4l10.8-47.8c0,0-29.9-12-51.4-3.6c-21.5,8.4-56.2,31.1-67,56.2
		C229.1,368.3,218.3,418.5,244.7,438.8z"/>
	<rect x="74.8" y="471.1" class="st9" width="490.3" height="8.4"/>
	<path class="st10" d="M180.1,211.6c-9.6-4.8-21.5,0-28.7,12c-6,10.8-3.6,23.9,6,28.7c9.6,6,21.5,0,27.5-10.8
		C190.8,230.7,188.4,217.6,180.1,211.6z"/>
	<path class="st10" d="M178.9,312.1c9.6-41.9-21.5-23.9-29.9-20.3c-8.4,3.6-47.8,33.5-47.8,33.5v0c0.6,0.6,2.3,2.6,3.7,4.3h4.1
		c2.1-2.4,6.6-6.2,16.2-10.3c15.9-6.3,13,5.1,12.1,10.3h37.5C176.3,323.8,177.7,317.9,178.9,312.1z"/>
	<path class="st10" d="M107.1,332.4c0,0,0.2-1.1,1.8-2.9h-4.1C106,331,107.1,332.4,107.1,332.4z"/>
	<path class="st10" d="M174.7,329.5h-37.5c-0.1,0.7-0.2,1.3-0.2,1.7c0,2.5-11.2,36.9-19.5,64.1h35.5
		C155.6,385.9,166.8,359.4,174.7,329.5z"/>
	<path class="st10" d="M109.5,424.5c-3.6,17.9,7.2,22.7,23.9,19.1c21.5-3.6,51.4-32.3,51.4-32.3l-4.8-7.2c0,0-7.2,10.8-22.7,13.2
		c-14.3,3.6-4.8-13.2-4.8-19.1c0-0.6,0.2-1.6,0.5-2.8h-35.5C113.8,407.8,110.6,418.8,109.5,424.5z"/>
	<polygon class="st10" points="117.6,395.3 117.6,395.3 153.1,395.3 153.1,395.3 	"/>
</g>
</svg>
