<?xml version="1.0" encoding="utf-8"?>
<!-- Generator: Adobe Illustrator 21.1.0, SVG Export Plug-In . SVG Version: 6.00 Build 0)  -->
<svg version="1.1" id="Layer_1" xmlns="http://www.w3.org/2000/svg" xmlns:xlink="http://www.w3.org/1999/xlink" x="0px" y="0px"
	 viewBox="0 0 640 480" style="enable-background:new 0 0 640 480;" xml:space="preserve">
<style type="text/css">
	.st0{fill:#48A2CC;}
</style>
<path class="st0" d="M405.4,293.9c2.4-3.6,4.7-10.7,8.3-13h2.4c8.3-2.4,23.7-5.9,37.9-10.7v-7.1c-16.6,5.9-35.6,10.7-55.7,14.2
	c-2.4,0-4.7,1.2-7.1,1.2c-2.4,8.3-11.9,11.9-17.8,5.9c-7.1-7.1-1.2-18.9,8.3-20.1c3.6,0,7.1,2.4,8.3,5.9c2.4-1.2,4.7-1.2,7.1-1.2
	c20.2-3.5,39.1-8.3,54.5-14.2c0-2.4,0-3.5-1.2-5.9c-14.2,5.9-32,10.7-51,14.2h-1.2c-3.6-2.4-9.5-4.7-14.2-7.1
	c-7.1,1.2-14.2,2.4-22.5,2.4c1.2,22.5,2.4,43.9,2.4,65.2c22.5-2.4,43.9-5.9,62.8-10.7c3.6-8.3,4.7-9.5,7.1-15.4
	c0-1.2,1.2-1.2,2.4-1.2c7.1-2.4,13-3.5,20.2-5.9c0-4.7-1.2-8.3-1.2-11.9c-11.9,3.6-24.9,7.1-36.7,10.7c-2.4,2.4-4.7,5.9-7.1,9.5
	c1.5,1.6,2.3,3.7,2.4,5.9c-1.2,9.5-11.9,15.4-17.8,9.5C388.8,306.9,394.7,293.9,405.4,293.9L405.4,293.9z"/>
<path class="st0" d="M456.3,308.1c-7.1,2.4-15.4,4.7-23.7,7.1c0,2.4-1.2,4.7-2.4,7.1c1.2,2.4,1.2,4.7,1.2,7.1
	c-1.2,9.5-13,15.4-17.8,8.3c-4.7-5.9,2.4-17.8,9.5-17.8c0-1.2,1.2-1.2,1.2-2.4c-19.8,5.1-40,8.2-60.5,9.5c0,24.9-1.2,47.4-3.6,65.2
	c33.2-2.4,61.6-8.3,85.4-16.6C452.8,355.6,456.3,333,456.3,308.1L456.3,308.1z"/>
<path class="st0" d="M503.7,189.6c-5.9-11.9-8.3-16.6-10.7-22.5c-1.2,1.2-1.2,2.4-2.4,3.6c5.9,9.5,10.7,20.2,14.2,30.8
	C504.9,196.7,503.7,193.2,503.7,189.6z"/>
<path class="st0" d="M508.5,220.4c-1.2-1.2-1.2-3.6-1.2-4.7c-10.7,11.9-29.6,23.7-53.3,32c1.2,2.4,1.2,3.5,1.2,5.9
	C478.8,244.1,497.8,233.5,508.5,220.4L508.5,220.4z"/>
<path class="st0" d="M512,195.5c-3.8-9.9-8.5-19.5-14.2-28.5v-1.2c0,0-1.2-1.2-1.2-4.7c-1.2,1.2-1.2,2.4-2.4,3.6
	c5.9,8.3,7.1,11.9,11.9,22.5c0,1.2,0,1.2,1.2,1.2c0,1.2,1.2,11.9,2.4,23.7l-1.2,1.2c1.2,1.2,1.2,2.4,2.4,4.7c0-1.2,1.2-2.4,1.2-3.6
	L512,195.5L512,195.5z M456.3,298.7c-5.9,2.4-11.9,3.5-17.8,5.9c-1.2,2.4-2.4,3.5-3.6,5.9c8.3-2.4,15.4-4.7,21.3-7.1V298.7z
	 M440.9,201.4c4.7,13,8.3,24.9,11.9,37.9c23.7-8.3,41.5-20.2,51-32c-3.6-12.5-8.8-24.4-15.4-35.6
	C478.8,183.7,462.3,193.2,440.9,201.4L440.9,201.4z M252.4,71.1c-2.4,1.2-5.9,2.4-8.3,3.6c2.4,4.7,8.3,9.5,16.6,13
	c2.4-1.2,4.7-3.6,7.1-4.7c-5.9-3.6-10.7-5.9-13-9.5C253.6,72.3,253.6,71.1,252.4,71.1z M257.2,94.8c-3.6,3.6-8.3,7.1-11.9,10.7
	c9.5,4.7,21.3,7.1,34.4,9.5v-13C271.4,99.5,263.1,97.1,257.2,94.8L257.2,94.8z M235.8,78.2c-4.7,2.4-9.5,5.9-14.2,8.3
	c3.6,7.1,10.7,13,21.3,17.8c4.7-3.6,8.3-7.1,11.9-10.7C245.3,88.8,239.4,84.1,235.8,78.2L235.8,78.2z M203.8,163.5
	c17.8,8.3,39.1,14.2,64,17.8c0-2.4,1.2-4.7,1.2-8.3c-23.7-2.4-45-8.3-61.6-15.4C206.2,158.8,205,161.2,203.8,163.5L203.8,163.5z
	 M385.2,246.5h1.2c3.6,2.4,9.5,4.7,13,7.1c19-3.6,35.6-7.1,49.8-13c-2.4-13-7.1-24.9-10.7-37.9c-22.5,8.3-51,14.2-80.6,16.6
	c1.2,10.7,2.4,20.2,2.4,30.8C368.6,248.9,376.9,247.7,385.2,246.5L385.2,246.5z M189.6,194.3c19,8.3,43.9,15.4,71.1,19
	c2.4-8.3,3.6-16.6,4.7-23.7c-24.9-3.6-47.4-9.5-66.4-17.8C195.5,178.9,192,186,189.6,194.3L189.6,194.3z M251.2,47.4
	c-4.7,2.4-10.7,4.7-15.4,7.1h4.7c1.2-1.2,3.6-1.2,4.7-2.4h2.4c-2.4,2.4-3.6,3.6-5.9,4.7c21.3-4.7,41.5-7.1,64-4.7
	c2.4,0,9.5,0,11.9,1.2c-2.4-1.2-8.3-2.4-10.7-3.6C288,42.6,269,42.6,251.2,47.4L251.2,47.4z M276.1,78.2c5.9,3.6,14.2,5.9,23.7,7.1
	c3.4-8.8,7.8-17.1,13-24.9l5.9-5.9c-2.4,1.2-5.9,2.4-8.3,3.6C298.7,63.9,286.8,69.9,276.1,78.2L276.1,78.2z M323.6,60.4
	c5.9,14.2,13,33.2,17.8,56.9c16.6-1.2,32-4.7,45-8.3c-3.6-3.6-5.9-7.1-8.3-9.5c-4.7,1.2-10.7,3.6-16.6,4.7c0,1.2-1.2,2.4-1.2,3.6
	c-3.6,2.4-8.3,2.4-10.7-1.2c-3.6-3.6-3.6-7.1-1.2-10.7c2.4-2.4,7.1-2.4,10.7,1.2c4.7-1.2,9.5-2.4,13-3.6
	c-12.6-13.8-27.4-25.4-43.9-34.4c-2.4-1.2-5.9-3.6-8.3-4.7C321.2,55.7,322.4,59.2,323.6,60.4z"/>
<path class="st0" d="M315.3,60.4c-5.3,7.8-9.7,16.1-13,24.9c2.4,0,7.1,1.2,10.7,1.2c1.2-2.4,2.4-3.6,5.9-3.6c3.6,0,7.1,2.4,7.1,5.9
	s-2.4,7.1-7.1,7.1c-3.6,0-5.9-1.2-7.1-3.6c-4.7,0-8.3-1.2-13-1.2c-2.4,7.1-5.9,15.4-9.5,23.7c1.2,0,1.2,1.2,2.4,2.4
	c14.2,1.2,30.8,2.4,47.4,0c-4.7-22.5-10.7-41.5-16.6-55.7c-1.2-2.4-2.4-4.7-2.4-7.1C317.6,56.8,316.4,59.2,315.3,60.4L315.3,60.4z
	 M261.9,67.5c1.2,3.6,5.9,7.1,11.9,10.7c9.8-7.6,20.6-14,32-19c2.4-1.2,10.7-4.7,11.9-4.7c-2.4,0-9.5,1.2-11.9,1.2
	C290.4,58,276.1,61.6,261.9,67.5L261.9,67.5z M270.2,84.1c-2.4,1.2-4.7,3.6-7.1,4.7c7,2.7,14.1,5.1,21.3,7.1h1.2v16.6l1.2,1.2
	c3.6-8.3,5.9-16.6,9.5-22.5C286.8,88.8,277.3,86.5,270.2,84.1z"/>
<path class="st0" d="M240.6,59.2c-2.4,3.6-3.6,5.9-3.6,9.5c0-1.2,0-1.2,1.2-1.2c1.2,0,2.4-1.2,3.6-1.2c0,2.4,0,4.7,1.2,5.9
	c3.6-1.2,5.9-2.4,9.5-3.6c-1.2-1.2-1.2-3.6-1.2-5.9h-4.7c1.2-2.4,19-7.1,21.3-5.9c-1.2,1.2-4.7,2.4-8.3,3.6c0,1.2,0,3.6,1.2,4.7
	c15.4-4.7,28.4-8.3,43.9-10.7c1.2,0,11.9-1.2,13-1.2h-8.3C286.8,50.9,260.7,53.3,240.6,59.2L240.6,59.2z M330.7,50.9
	c-1.2,0-7.1,1.2-9.5,2.4c2.4,0,11.9-1.2,13-1.2c23.7-1.2,42.7,2.4,64,8.3c-2.4-4.7-8.3-8.3-15.4-11.9
	C366.2,45,349.6,46.2,330.7,50.9L330.7,50.9z M407.7,65.1c2.4,5.9,1.2,11.9-2.4,17.8L416,90c4.7-7.1,5.9-13,2.4-20.2
	C414.8,68.7,411.3,67.5,407.7,65.1z M406.5,131.5l7.1,10.7c3.6-1.2,7.1-2.4,10.7-4.7c9.5,4.7,19,10.7,28.4,16.6c0-1.2,0-2.4,1.2-2.4
	c2.4-1.2,7.1,2.4,10.7,7.1c3.6,7.1,2.4,13-2.4,11.9c-3.6-1.2-7.1-5.9-9.5-10.7l-24.9-14.2l-10.7,3.6c9.5,15.4,16.6,32,22.5,48.6
	c21.3-8.3,37.9-17.8,47.4-29.6c-13.1-21.4-29.1-40.9-47.4-58.1C432.6,118.5,420.8,125.6,406.5,131.5L406.5,131.5z M394.7,50.9
	c-1.2,0-3.6-1.2-4.7-1.2c7.1,3.6,13,8.3,16.6,14.2l10.7,3.6C412.5,61.6,405.4,55.7,394.7,50.9L394.7,50.9z M488.3,133.9
	c0,3.6-1.2,7.1-2.4,11.9l2.4,9.5c1.2,2.4,2.4,3.6,3.6,5.9c1.2-1.2,1.2-3.6,2.4-4.7c-1.2-2.4-2.4-3.6-2.4-5.9
	c1.2-2.4,1.2-4.7,1.2-5.9v-1.2c1.2,1.2,2.4,2.4,3.6,2.4c0-2.4,0-3.6-1.2-5.9C493.1,137.4,490.7,136.3,488.3,133.9z M330.7,59.2
	c15.4,8.3,29.6,19,43.9,33.2c9.5-3.6,16.6-7.1,21.3-11.9c-20.2-11.9-42.7-20.2-64-23.7c-2.4-1.2-8.3-2.4-10.7-2.4
	C323.6,54.5,329.5,58,330.7,59.2L330.7,59.2z M513.2,248.9v-5.9c-11.9,15.4-32,26.1-54.5,34.4c0,3.6,1.2,7.1,1.2,11.9
	c10.7-4.7,21.3-9.5,29.6-14.2v-1.2V269c0,0,1.2-1.2,2.4-1.2C500.2,261.9,508.5,256,513.2,248.9z M433.8,103.1
	c5.9-7.1,7.1-15.4,3.6-23.7c-2.4-1.2-4.7-2.4-8.3-3.6c-2.4-1.2-4.7-2.4-5.9-3.6c2.4,6.9,1.1,14.5-3.6,20.2
	C424.3,96,429,99.5,433.8,103.1L433.8,103.1z M339,381.6c-14.2,10.7-16.6,11.9-24.9,17.8l-1.2,1.2h-2.4c-16.6,0-33.2-1.2-48.6-3.5
	c1.2,2.4,1.2,5.9,2.4,8.3c15.4,2.4,32,3.6,49.8,3.6c14.2-8.3,15.4-9.5,22.5-14.2h2.4c5.9-1.2,11.9-1.2,17.8-1.2
	c1.2-18.9,2.4-41.5,2.4-66.4c-21.3,2.4-42.7,2.4-64,1.2c-2.4,2.4-4.7,3.5-7.1,4.7c0,0,0,1.2-1.2,1.2h-1.2
	c-10.7-1.2-20.2-2.4-29.6-3.6c0,22.5,1.2,43.9,4.7,60.5c15.4,2.4,32,3.5,48.6,3.5c13-9.5,14.2-10.7,22.5-16.6
	c-4.7-7.1,3.6-15.4,13-13c5.9,0,8.3,4.7,8.3,8.3C352,379.3,344.9,381.6,339,381.6L339,381.6z"/>
<path class="st0" d="M488.3,165.9c1.2,0,1.2-1.2,2.4-2.4c-1.2-2.4-2.4-3.6-4.7-7.1c0,0,0-1.2-1.2-1.2c0-2.4-3.6-13-4.7-15.4v-1.2
	c2.4-3.6,2.4-8.3,2.4-11.9v-1.2c8.3,5.9,9.5,5.9,11.9,9.5c0-1.2-1.2-3.6-1.2-3.6c-5.8-9.3-13-17.7-21.3-24.9
	c1.2,2.4,1.2,4.7-1.2,8.3c1.2,3.6,0,5.9-2.4,7.1c-2.4,2.4-5.9,1.2-8.3-2.4c-2.4-3.6-1.2-8.3,1.2-9.5c1.2-1.2,2.4-1.2,3.6-1.2
	c2.4-1.2,3.6-4.7,3.6-7.1c-7.1-5.9-15.4-11.9-23.7-17.8c3.6,8.3,2.4,16.6-3.6,24.9C459.9,125.6,476.5,144.6,488.3,165.9L488.3,165.9
	z M143.4,161.2c-3.6-7.1-4.7-14.2-2.4-21.3c-7.1,11.9-11.9,21.3-15.4,32c0,5.9,0,13,3.6,19C132.7,180.1,137.5,170.6,143.4,161.2z
	 M228.7,61.6c2.4-1.2,3.6-1.2,5.9-2.4c1.2-1.2,3.6-2.4,5.9-4.7c-1.2,0-2.4,1.2-2.4,1.2c-2.4,0-3.6,1.2-4.7,1.2
	c-2.4,1.2-4.7,3.6-7.1,5.9C227.5,61.6,228.7,61.6,228.7,61.6L228.7,61.6z M456.3,261.9c1.2,2.4,1.2,4.7,1.2,5.9
	c9.5-3.5,19-7.1,28.4-13c11.9-5.9,20.2-13,26.1-20.1c-1.2-1.2-1.2-3.6-1.2-5.9C499,241.8,481.2,252.4,456.3,261.9L456.3,261.9z
	 M515.6,240.6v5.9c5.9-7.1,8.3-14.2,9.5-21.3c0-2.4,0-4.7-1.2-8.3C523.9,226.3,520.3,233.5,515.6,240.6z M309.3,317.6
	c-2.4,2.4-5.9,4.7-9.5,7.1c20.2,1.2,40.3,0,59.3-1.2c0-20.1,0-42.7-2.4-64h-3.6c-3.6,7.1-13,9.5-17.8,2.4c-5.9-7.1-1.2-19,8.3-17.8
	c3.6,0,7.1,2.4,9.5,5.9h3.6c-1.2-9.5-1.2-20.1-2.4-29.6c-29.6,2.4-61.6,1.2-90.1-2.4c-3.5,19.6-5.8,39.4-7.1,59.3
	c4.7-3.5,9.5-8.3,15.4-13c-1.2-7.1,3.6-14.2,10.7-14.2c5.9,1.2,10.7,7.1,9.5,13c-1.2,8.3-9.5,11.9-15.4,8.3
	c-10.7,9.5-14.2,13-21.3,19v15.4c3.6,0,8.3,1.2,11.9,1.2c10.7-9.5,14.2-13,21.3-18.9c-4.7-7.1,1.2-16.6,10.7-15.4
	c5.9,0,9.5,5.9,9.5,11.9c-1.2,7.1-8.3,10.7-14.2,9.5c-9.5,9.5-11.9,11.9-22.5,21.3c0,0-1.2,0-1.2,1.2c-1.2,0-1.2,0-2.4-1.2
	c-4.7,0-8.3,0-13-1.2v7.1c9.5,1.2,20.2,2.4,29.6,2.4c5.9-3.5,11.9-8.3,17.8-11.8c-2.4-7.1,2.4-15.4,11.9-14.2
	c5.9,0,10.7,5.9,9.5,11.9C324.7,316.4,316.4,320,309.3,317.6L309.3,317.6z M526.3,235.8c-1.2,5.9-4.7,13-9.5,18.9v10.7
	c5.9-7.1,8.3-14.2,9.5-20.2v-2.4V235.8z M526.3,234.6c-1.2-2.4-1.2-5.9-1.2-8.3C525.1,228.7,525.1,232.3,526.3,234.6z M477.7,305.8
	c2.4,0,3.6,2.4,3.6,3.5c9.5-4.7,23.7-13,33.2-23.7v-11.9c-10.7,11.9-29.6,23.7-54.5,33.2c0,24.9-3.6,47.4-10.7,66.4
	c21.3-8.3,37.9-17.8,48.6-29.6c8.3-15.4,13-32,15.4-49.8c-7.1,8.3-19,16.6-32,23.7c-3.6,7.1-9.5,11.8-13,8.3
	C464.6,320,471.7,304.6,477.7,305.8z M510.9,169.5c-1.2,0-3.6-4.7-5.9-9.5c-1.2-2.4-3.6-4.7-5.9-7.1c0,1.2-1.2,3.6-1.2,4.7l2.4,7.1
	c9.5,17.8,9.5,19,13,29.6c1.2,0,1.2,1.2,1.2,1.2c0,5.9,1.2,15.4,1.2,26.1c-1.2,2.4-2.4,3.6-3.6,4.7c1.2,2.4,1.2,3.6,1.2,5.9
	c8.3-9.5,9.5-17.8,9.5-23.7v-2.4c-2.4-13-3.6-15.4-9.5-34.4l-3.6-7.1C510.9,167.1,512,169.5,510.9,169.5z M229.9,135.1
	c-3.6,2.4-8.3,5.9-11.9,8.3c-1.2,0-1.2,0-1.2,1.2c-1.2,0-1.2-1.2-1.2-1.2c-1.2,2.4-2.4,4.7-3.6,5.9c16.6,7.1,36.7,13,59.3,16.6
	c3.6-13,5.9-24.9,10.7-36.7h-1.2c-4.7-1.2-5.9-4.7-3.6-9.5v-1.2c-13-2.4-23.7-4.7-33.2-9.5h-1.2c-7.1,8.3-14.2,16.6-21.3,26.1
	c3.6-2.4,5.9-3.6,9.5-5.9c2.4-5.9,9.5-11.9,13-9.5c2.4,1.2,1.2,5.9-2.4,10.7C237,136.3,232.3,137.4,229.9,135.1L229.9,135.1z
	 M408.9,186l-3.6-3.6c-15.4,4.7-32,7.1-51,9.5c1.3,7.9,2.5,15.8,3.6,23.7c29.6-2.4,56.9-8.3,79.4-16.6
	c-7.1-16.6-14.2-33.2-22.5-48.6c-5.9,2.4-11.9,4.7-19,5.9c-1.2,3.6-3.6,9.5-5.9,13c0,1.2-1.2,1.2-1.2,1.2
	c-10.7,2.4-23.7,3.6-36.7,4.7c1.2,2.4,1.2,4.7,1.2,7.1c17.8-1.2,34.4-3.6,48.6-7.1c0-4.7,1.2-8.3,4.7-8.3c3.6-1.2,8.3,2.4,10.7,8.3
	C419.6,183.7,416,188.4,408.9,186L408.9,186z M251.2,320v-5.9c-23-3.3-45.6-8.8-67.6-16.6h-1.2c-5.9-10.7-8.3-16.6-13-24.9l-1.2-1.2
	v11.9c2.4,7.1,4.7,11.8,9.5,18.9C199.1,310.5,224,316.4,251.2,320z M331.9,53.3h-9.5c1.2,1.2,10.7,2.4,13,2.4
	c22.5,4.7,41.5,11.9,61.6,22.5c3.6-4.7,4.7-9.5,2.4-15.4C378.1,55.7,355.6,53.3,331.9,53.3L331.9,53.3z M401.8,124.4
	c13-5.9,23.7-11.9,30.8-19c-4.7-4.7-9.5-8.3-14.2-11.9c-5.9,7.1-14.2,13-27.3,17.8C394.7,114.9,398.2,119.7,401.8,124.4z
	 M349.6,183.7c0-2.4,0-5.9-1.2-8.3c-26.1,2.4-52.2,2.4-75.9-1.2c0,2.4-1.2,4.7-1.2,7.1C296.3,184.9,322.4,186,349.6,183.7
	L349.6,183.7z M265.5,213.3c28.4,3.6,58.1,4.7,87.7,2.4c0-8.3-1.2-16.6-2.4-23.7c-27.3,2.2-54.7,1.4-81.8-2.4
	C267.8,197.9,266.7,205,265.5,213.3z"/>
<path class="st0" d="M350.8,167.1c11.9-1.2,23.7-2.4,34.4-4.7c1.2-3.6,3.6-8.3,4.7-11.9l1.2-1.2c7.1-2.4,13-3.6,19-5.9l-7.1-10.7
	c-9.5,3.6-21.3,5.9-33.2,8.3c-1.2,1.2-1.2,2.4-2.4,3.6c-3.6,2.4-9.5,1.2-11.9-2.4c-3.6-4.7-2.4-9.5,1.2-11.9
	c2.4-2.4,8.3-2.4,10.7,2.4h1.2c10.7-1.2,21.3-4.7,29.6-7.1c-2.4-4.7-5.9-9.5-9.5-14.2c-13,4.7-29.6,8.3-46.2,9.5
	C346.1,135.1,348.5,150.5,350.8,167.1L350.8,167.1z M252.4,293.9c-1.2,1.2-2.4,2.4-3.6,3.5c-1.2,0-1.2,0-1.2,1.2
	c-1.2,0-1.2-1.2-2.4-1.2c-19-2.3-37.7-6.6-55.7-13h-2.4c-4.7-10.7-7.1-14.2-11.9-27.3c-2.4-1.2-3.6-1.2-4.7-2.4c0,3.6,0,5.9-1.2,8.3
	c1.2,0,2.4,1.2,2.4,1.2c1.2,0,1.2,0,1.2,1.2c4.7,9.5,8.3,16.6,13,23.7c19,7.1,41.5,11.9,65.2,15.4
	C252.4,301,252.4,297.5,252.4,293.9L252.4,293.9z M167.1,297.5l1.2,1.2l-1.2-3.6V297.5z"/>
<path class="st0" d="M260.7,216.9c-28.4-3.6-53.3-10.7-73.5-19l-10.7,32c9.5,4.7,19,8.3,30.8,10.7c1.2-2.4,4.7-4.7,8.3-3.6
	c4.7,1.2,8.3,7.1,7.1,13c-2.4,9.5-11.9,10.7-15.4,3.6c-1.2-1.2-2.4-2.4-2.4-3.6c-10.7-3.5-21.3-7.1-30.8-11.9c0,3.6-1.2,5.9-1.2,8.3
	c1.2,1.2,3.6,1.2,4.7,2.4h1.2c3.6,10.7,5.9,14.2,11.9,27.3c16.6,5.9,34.4,9.5,53.3,13l8.3-8.3C254.8,260.7,257.2,238.2,260.7,216.9
	L260.7,216.9z M291.6,120.9c0,0-1.2,1.2-1.2,2.4c-1.3,2.5-3.4,4.6-5.9,5.9c-4,12-7.2,24.3-9.5,36.7c22.5,3.6,47.4,3.6,72.3,1.2
	c-2.4-15.4-4.7-32-8.3-46.2C323.6,123.2,307,122,291.6,120.9z M388.8,107.8c11.9-4.7,20.2-10.7,26.1-16.6c-3.8-2.6-7.7-5-11.9-7.1
	c-4.7,5.9-11.9,10.7-22.5,14.2C382.8,101.9,386.4,104.3,388.8,107.8L388.8,107.8z M523.9,269c1.2-4.7,1.2-8.3,1.2-11.9
	c-1.2,3.5-4.7,8.3-8.3,13v11.9C520.3,278.5,522.7,273.8,523.9,269z M123.2,308.1c1.2,0,1.2,1.2,1.2,2.4
	C124.4,309.3,124.4,308.1,123.2,308.1z M116.1,260.7c-1.2-1.2-1.2-3.5-2.4-4.7c0,3.6,0,7.1,1.2,10.7v4.7
	C114.9,269,116.1,264.3,116.1,260.7z M120.9,298.7c0,1.2,0,1.2,1.2,3.5v1.2C122,302.2,120.9,299.9,120.9,298.7L120.9,298.7z
	 M183.7,382.8c-3.6-5.9-7.1-11.9-9.5-19c-1.2-1.2-3.6-3.5-4.7-5.9c-16.6-8.3-29.6-17.8-36.7-28.4c0-1.2,0-1.2-1.2-1.2l3.6,7.1
	c4.7,9.5,9.5,15.4,13,21.3C155.2,366.2,167.1,375.7,183.7,382.8L183.7,382.8z M151.7,362.7c1.2,2.4,3.6,4.7,4.7,5.9
	C155.2,367.4,152.9,365,151.7,362.7z M145.8,157.6c1.2-3.6,3.6-5.9,5.9-9.5c-1.2-2.4-1.2-4.7-2.4-7.1v-1.2c0,0,11.9-26.1,22.5-33.2
	c-1.2,0-2.4,1.2-2.4,0c0-3.6,13-15.4,15.4-14.2c1.2,1.2-4.7,7.1-9.5,10.7c0,1.2-1.2,1.2-1.2,1.2c-9.5,13-11.9,15.4-19,30.8
	c0,2.4,1.2,3.6,1.2,5.9c4.7-4.7,8.3-10.7,13-15.4c0,0,0-1.2-1.2-1.2c-2.4,2.4-4.7,2.4-4.7,1.2c0-4.7,11.9-17.8,14.2-15.4
	c1.2,1.2,0,3.6-3.6,7.1c1.2,1.2,1.2,1.2,1.2,2.4c2.4-1.2,3.6-3.6,5.9-4.7c3.6-7.1,5.9-10.7,8.3-13c-1.2,0-2.4,0-1.2-1.2
	c0-1.2,3.6-5.9,7.1-8.3c5.9-3.6,9.5-4.7,9.5-3.6c1.2,1.2-3.6,5.9-8.3,9.5h-1.2c-1.2,2.4-3.6,4.7-4.7,8.3
	c8.3-7.1,16.6-14.2,26.1-20.2c-2.4-4.4-2.4-9.8,0-14.2c0-2.4,1.2-3.6,2.4-4.7C197.9,77,179,90,163.5,107.8
	c-3.6,4.7-8.3,10.7-13,17.8c-1.2,0-1.2,1.2-1.2,1.2C142.2,137.4,141,146.9,145.8,157.6L145.8,157.6z M309.3,48.5
	c2.4,1.2,5.9,2.4,9.5,3.6c-1.2-2.4-3.6-4.7-4.7-5.9c-3.6-5.9-7.1-9.5-10.7-9.5h-1.2c-4.7,1.2-4.7,1.2-14.2,2.4
	c-5.9,1.2-5.9,1.2-15.4,2.4c-2.4,1.2-2.4,1.2-3.6,1.2C280.9,41.4,295.1,43.8,309.3,48.5L309.3,48.5z M316.4,45l3.6,7.1
	c1.2-1.2,3.6-3.6,4.7-5.9c5.9-4.7,10.7-7.1,15.4-8.3c-2.4-1.2-4.7-1.2-10.7-1.2h-21.3C310.5,37.9,312.9,41.4,316.4,45L316.4,45z
	 M421.9,69.9c2.4,1.2,5.9,2.4,8.3,3.6c2.4,1.2,3.6,2.4,5.9,3.6c-2.4-3.6-5.9-7.1-9.5-10.7c-3.6-2.4-7.1-4.7-14.2-8.3
	c-1.2,0-1.2,0-2.4-1.2C416,61.6,419.6,65.1,421.9,69.9L421.9,69.9z M212.1,418.4c-10.7-8.3-19-19-27.3-30.8
	c-10.7-5.9-20.2-10.7-27.3-17.8c2.4,3.6,5.9,8.3,10.7,13c13,13,16.6,16.6,32,28.4C206.2,414.8,208.6,417.2,212.1,418.4L212.1,418.4z
	 M220.4,71.1c-2.4,4.4-2.4,9.8,0,14.2c4.7-3.6,9.5-5.9,14.2-8.3c0-2.4-1.2-4.7-1.2-5.9h-1.2c-1.2,1.2-2.4,1.2-3.6,2.4v-1.2
	c0-3.6,1.2-7.1,3.6-10.7c-1.2,1.2-3.6,1.2-4.7,2.4c-1.2,0-2.4,1.2-3.6,1.2C221.6,67.5,220.4,69.9,220.4,71.1L220.4,71.1z
	 M221.6,63.9c2.4-2.4,4.7-4.7,8.3-7.1c-5.9,2.4-8.3,4.7-19,10.7c-7.1,4.7-11.9,7.1-15.4,10.7C203.8,73.4,212.1,68.7,221.6,63.9z"/>
<path class="st0" d="M321.2,52.1c19-5.9,39.1-9.5,55.7-7.1c-2.4-1.2-4.7-1.2-8.3-2.4c-2.4-1.2-4.7-1.2-10.7-2.4
	c-4.7-1.2-5.9-1.2-10.7-2.4C339,37.9,329.5,43.8,321.2,52.1L321.2,52.1z M504.9,333c0,1.2-1.2,2.4-1.2,3.5
	C503.7,335.4,504.9,334.2,504.9,333z M481.2,369.8c-4.7,4.8-10.7,8.3-17.8,11.9c0,1.2,0,3.6-2.4,4.8c-3.6,5.9-10.7,11.8-11.9,9.5
	v-1.2l-2.4,1.2c-1.2,1.2-4.7,2.4-8.3,3.5c-1.2,1.2-1.2,1.2-2.4,1.2c-4.5,6.8-9.6,13.2-15.4,19c5.9-2.4,11.9-4.7,17.8-8.3
	c5.9-3.5,9.5-7.1,17.8-14.2c14.2-13,21.3-21.3,29.6-33.2C484.8,366.2,483.6,368.6,481.2,369.8L481.2,369.8z M515.6,290.3
	c-1.2,14.3-4.8,28.4-10.7,41.5c5.9-10.7,9.5-20.1,13-30.8c2.4-8.3,3.6-15.4,4.7-21.3C521.5,283.3,519.2,286.8,515.6,290.3z
	 M429,417.2c-4.7,2.4-8.3,3.6-11.9,5.9c-2.4,1.2-4.7,3.6-5.9,4.7h-1.2c4.7-2.4,8.3-3.5,17.8-9.5c1.2-1.2,1.2-1.2,2.4-1.2L429,417.2
	L429,417.2z M233.5,430.2c0,0-1.2-1.2-2.4-1.2C232.3,429,233.5,430.2,233.5,430.2z"/>
<path class="st0" d="M283.3,445.6c-9.5-5.9-16.6-17.8-21.3-35.6c-5.9-1.2-13-2.4-19-3.5c0,3.5-4.7,3.5-10.7,0
	c-2.4-1.2-3.6-3.5-4.7-4.7c-13-3.3-25.7-7.6-37.9-13c10.7,19,27.3,33.2,45,42.7c3.6,1.2,7.1,2.4,13,4.7c7.1,2.4,7.1,2.4,17.8,5.9
	c5.9,1.2,5.9,1.2,16.6,3.5L283.3,445.6L283.3,445.6z M395.9,433.8c4.7-2.4,10.7-4.7,15.4-8.3c-17.8,5.9-37.9,9.5-61.6,11.9
	c-1.2,4.7-3.6,8.3-7.1,10.7c2.4,0,4.7-1.2,8.3-1.2c5.9-1.2,5.9-1.2,15.4-3.5c7.1-1.2,7.1-1.2,17.8-4.7c4.7-1.2,7.1-2.4,11.9-3.6
	L395.9,433.8L395.9,433.8L395.9,433.8z"/>
<path class="st0" d="M225.2,426.7h1.2c1.2,0,1.2,1.2,1.2,1.2C227.5,426.7,226.4,426.7,225.2,426.7z M336.6,448
	c3.6-1.2,7.1-4.7,9.5-10.7c-9.5,1.2-19,1.2-28.4,1.2h-1.2c-2.4,0-4.7-2.4-7.1-2.4c-3.6,0-8.3-1.2-10.7-3.5c-2.4-3.6,2.4-5.9,9.5-4.8
	c3.6,0,7.1,2.4,7.1,4.8l-1.2,1.2c1.2,0,3.6,1.2,4.7,2.4c9.5,0,19-1.2,28.4-1.2c2.4-4.7,3.6-10.7,4.7-17.8c-1.2,1.2-3.6,2.4-4.7,2.4
	v2.4c-2.4,5.9-16.6,7.1-19,1.2c-1.2-4.7,8.3-8.3,14.2-5.9c4.7-3.5,8.3-4.7,9.5-5.9c-10.7,0-21.3,1.2-32,1.2c0,0-1.2,0-1.2,1.2h-3.6
	c-16.6,0-34.4-1.2-49.8-3.6c5.9,21.3,14.2,34.4,24.9,36.8c1.2,0,3.6,0,5.9,1.2c4.7,0,4.7,0,13,1.2h13
	C327.1,449.2,327.1,449.2,336.6,448L336.6,448z M123.2,206.2c1.2-2.4,2.4-4.7,2.4-7.1c-2.4-5.9-3.6-11.9-2.4-17.8
	c-1.2,1.2-1.2,2.4-1.2,3.6c-1.2,1.2-1.2,3.6-2.4,4.7C119.7,195.5,120.9,200.3,123.2,206.2z M118.5,250c-1.2,2.4-1.2,5.9-1.2,8.3
	c7.1,14.2,23.7,27.3,46.2,37.9v-7.1c0-1.2-1.2-2.4-1.2-3.5C141,276.1,125.6,263.1,118.5,250z M116.1,208.6c0,3.6,1.2,8.3,3.6,13
	c0-2.4,1.2-4.7,1.2-7.1c-2.4-4.7-3.6-10.7-2.4-15.4C117.3,202.6,116.1,205,116.1,208.6L116.1,208.6z M120.9,225.2
	c8.3,14.2,23.7,26.1,46.2,36.7c0-2.4,0-5.9,1.2-8.3c-21.3-9.5-37.9-22.5-45-35.6C122,220.4,122,222.8,120.9,225.2L120.9,225.2z
	 M164.7,277.3c0-2.4,0-4.7,1.2-7.1c-22.5-9.5-37.9-22.5-46.2-36.8c0,2.4-1.2,4.7-1.2,7.1c8.3,14.2,23.7,27.3,45,36.7H164.7z
	 M113.7,227.5L113.7,227.5z M113.7,241.8c0,3.6,0,8.3,2.4,11.9v-8.3c-1.2-2.4-2.4-4.7-2.4-8.3v-1.2V241.8z M117.3,237
	c0-2.4,0-4.7,1.2-7.1c-2.3-3.5-3.5-7.7-3.6-11.9c0,3.6-1.2,5.9-1.2,9.5C114.9,229.9,114.9,233.5,117.3,237L117.3,237z M170.6,127.9
	c-4.7,5.9-8.3,10.7-13,15.4c2.4,3.6,5.9,8.3,8.3,10.7c3.6-1.2,8.3-3.6,11.9-5.9v1.2c7.1,4.7,14.2,9.5,23.7,13l3.6-7.1
	C188.4,148.1,176.6,138.6,170.6,127.9L170.6,127.9z M181.3,117.3l-4.7,4.7c5.9,10.7,16.6,19,33.2,26.1c1.2-1.2,2.4-3.6,3.6-5.9
	C197.9,135.1,187.2,126.8,181.3,117.3z M188.4,111.4c4.7,9.5,15.4,17.8,29.6,23.7c7.1-9.5,14.2-19,22.5-27.3
	c-10.7-5.9-19-11.9-22.5-19C207.4,96,196.7,103.1,188.4,111.4L188.4,111.4z M146.9,160c5.9,11.9,20.2,23.7,39.1,32l10.7-21.3
	c-8-3.9-15.5-8.7-22.5-14.2c-3.6,2.4-8.3,4.7-11.9,7.1v-1.2c-3.6-3.6-7.1-7.1-9.5-11.9C150.5,154,149.3,157.6,146.9,160z
	 M169.5,245.3c1.2-2.4,1.2-5.9,2.4-8.3c-21.3-9.5-36.7-21.3-43.9-35.6c-1.2,2.4-2.4,5.9-3.6,8.3
	C132.7,222.8,148.1,235.8,169.5,245.3z"/>
<path class="st0" d="M130.3,193.2c7.1,14.2,22.5,26.1,43.9,35.6c2.4-10.7,5.9-21.3,10.7-32c-20.2-9.5-33.2-20.2-40.3-32
	C138.9,173.7,134.1,183.2,130.3,193.2L130.3,193.2z M167.1,350.8c0-1.2,1.2-2.4,2.4-2.4c-3.6-15.4-5.9-30.8-5.9-47.4
	c-21.3-10.7-37.9-23.7-46.2-36.7c1,19,4.6,37.7,10.7,55.7C136.3,331.8,149.3,342.5,167.1,350.8z M443.3,80.5
	c8.3,5.9,16.6,11.9,23.7,19v-1.2c-9.5-9.5-14.2-13-28.5-23.7c-1.2-1.2-2.4-2.4-3.6-2.4C438.5,74.6,440.9,78.2,443.3,80.5L443.3,80.5
	z M514.4,257.2c-4.7,5.9-11.9,11.9-20.2,17.8v4.7c0,1.2-1.2,1.2-2.4,2.4c-8.3,4.7-19,10.7-32,15.4v4.7c24.9-9.5,43.9-21.3,54.5-34.4
	L514.4,257.2L514.4,257.2z M452.8,389.9c1.2-1.2,1.2-2.4,2.4-3.5c-4.7,2.4-9.5,4.7-14.2,5.9c0,1.2-1.2,2.4-1.2,3.6
	c0-1.2,1.2-1.2,2.4-1.2C444.5,393.5,449.2,391.1,452.8,389.9L452.8,389.9z M494.2,352c-10.7,10.7-26.1,20.1-47.4,28.4
	c-1.2,2.4-2.4,5.9-3.6,8.3c20.1-8.3,36.7-17.8,46.2-29.6C490.7,356.7,493.1,354.4,494.2,352z M470.5,101.9h-1.2H470.5z M499,149.3
	c2.4,1.2,2.4,2.4,3.6,3.6c0-1.2-1.2-3.6,0-3.6c0,0,2.4,2.4,3.6,5.9c-1.2-2.4-1.2-3.6-2.4-4.7l-1.2-3.6l-3.6-7.1V149.3L499,149.3z
	 M443.3,381.6c-23.7,8.3-52.2,14.2-84.2,16.6c0,3.6,0,6-1.2,9.5c30.8-3.5,58.1-9.5,80.6-17.8C440.9,387.6,442.1,385.2,443.3,381.6z
	 M226.4,398.2c0-1.2,1.2-2.4,2.4-2.4c3.6-1.2,9.5,2.4,13,5.9c5.9,1.2,11.9,2.4,17.8,2.4c0-2.4-1.2-4.8-1.2-7.1
	c-21.7-3.3-43.1-8.5-64-15.4l-1.2-1.2l-14.2-14.2h-1.2c3.6,7.1,5.9,13,9.5,19C197.9,389.9,212.1,394.7,226.4,398.2L226.4,398.2z"/>
<path class="st0" d="M181.3,361.5c1.2,1.2,1.2,1.2,1.2,2.4c2.4,3.6,7.1,8.3,10.7,11.9c17.8,5.9,40.3,11.9,64,15.4
	c-3.6-17.8-4.7-37.9-5.9-60.5c-25.2-3.3-49.8-9.7-73.5-18.9h-1.2c-2.4-2.4-3.6-5.9-4.7-8.3c-1.2,0-3.6-1.2-4.7-1.2
	c0,16.6,2.4,32,5.9,47.4C176.6,350.8,181.3,356.7,181.3,361.5L181.3,361.5z"/>
<path class="st0" d="M355.6,399.4c-4.7,0-10.7,0-15.4,1.2c-4.7,2.4-9.5,5.9-14.2,8.3c9.5,0,19,0,28.4-1.2
	C354.4,405.3,355.6,401.8,355.6,399.4z"/>
<path class="st0" d="M416,421.9c5.9-5.9,10.7-11.9,16.6-20.1c-4.7,2.4-9.5,3.5-14.2,4.7h-1.2c-1.2,0-2.4-2.4-3.6-2.4
	c-16.6,3.5-35.6,7.1-54.5,8.3c-1.2,1.2-1.2,1.2-2.4,1.2c-1.1,7.3-3.1,14.5-5.9,21.3C372.9,432.9,394.8,428.6,416,421.9L416,421.9z"
	/>
<path class="st0" d="M437.4,394.7c-5.9,1.2-10.7,3.5-16.6,4.7c0,1.2,1.2,1.2,1.2,2.4c4.7-2.4,9.5-3.6,13-4.7
	C436.2,395.9,436.2,394.7,437.4,394.7L437.4,394.7z"/>
</svg>
