<?xml version="1.0" encoding="utf-8"?>
<!-- Generator: Adobe Illustrator 21.1.0, SVG Export Plug-In . SVG Version: 6.00 Build 0)  -->
<svg version="1.1" id="Layer_1" xmlns="http://www.w3.org/2000/svg" xmlns:xlink="http://www.w3.org/1999/xlink" x="0px" y="0px"
	 viewBox="0 0 640 480" style="enable-background:new 0 0 640 480;" xml:space="preserve">
<path d="M235.7,174.1l-41,131.8H231l22.8-73.2h14.3l26,73.2h38.4l-26-73.2H294l59.4-58.7H312l-57.9,57.4l17.9-57.4H235.7z"/>
<path d="M361.8,174.1l-41,131.8h36.3l22.8-73.2h14.3l26,73.2h38.4l-26-73.2h-12.5l59.4-58.7h-41.5l-57.9,57.4l17.9-57.4H361.8
	L361.8,174.1z M138.6,305.9h36.3l41-131.8h-36.3L138.6,305.9z M562.7,305.9H599l41-131.8h-36.3L562.7,305.9z"/>
<path d="M447.4,305.9h96.3l7.3-23.4h-60l10.1-32.7H557l7.3-23.4h-55.8l9.3-30.1h59.7l7.3-22.3h-96.3L447.4,305.9L447.4,305.9z
	 M159.9,174.1h-30.1l-28.3,91.1l-17.4-91.1H41L0,305.9h30.4l29.3-95.8l18.4,95.8h40.7L159.9,174.1z M623.1,290.4
	c3.7,0,6.7,2.9,6.7,6.8c0,4-2.9,6.9-6.7,6.9c-3.8,0-6.7-2.9-6.7-6.9C616.4,293.4,619.3,290.4,623.1,290.4V289
	c-4.5,0-8.4,3.5-8.4,8.2c0,4.8,3.8,8.3,8.4,8.3c4.5,0,8.3-3.5,8.3-8.3c0-4.7-3.8-8.2-8.3-8.2V290.4z"/>
<path d="M621.3,293.7h2c1,0,2.1,0.2,2.1,1.4c0,1.5-1.1,1.5-2.3,1.5h-1.7v1.2h1.7l2.5,4.1h1.6l-2.7-4.2c1.4-0.2,2.5-0.9,2.5-2.6
	c0-1.9-1.1-2.7-3.4-2.7h-3.6v9.5h1.4L621.3,293.7L621.3,293.7L621.3,293.7z"/>
</svg>
