<?xml version="1.0" encoding="utf-8"?>
<!-- Generator: Adobe Illustrator 21.1.0, SVG Export Plug-In . SVG Version: 6.00 Build 0)  -->
<svg version="1.1" id="Layer_1" xmlns="http://www.w3.org/2000/svg" xmlns:xlink="http://www.w3.org/1999/xlink" x="0px" y="0px"
	 viewBox="0 0 2500 2500" style="enable-background:new 0 0 2500 2500;" xml:space="preserve">
<style type="text/css">
	.st0{fill:#FFFFFF;}
	.st1{fill:none;stroke:#000000;stroke-width:0.511;stroke-miterlimit:2.613;}
	.st2{fill:#CC2229;stroke:#000000;stroke-width:0.5605;stroke-miterlimit:2.613;}
	.st3{stroke:#000000;stroke-width:1.000000e-03;stroke-miterlimit:2.613;}
</style>
<path class="st0" d="M0,0h2500v2500H0V0z"/>
<path class="st1" d="M711.5,727.4h1074.7v1045.3H711.5V727.4z"/>
<path d="M767.7,1244.5L767.7,1244.5c0-133,54.1-253.2,141.4-340.1c87.2-86.9,207.4-140.5,339.7-140.5h0.2
	c132.3,0,252.6,53.7,339.8,140.5c87.2,86.9,141.3,207,141.3,340v0.2c0,134.1-54.1,254.8-141.3,342
	c-87.2,87.1-207.4,140.7-339.7,140.8h-0.2c-132.4,0-252.6-53.6-339.8-140.8c-87.2-87.2-141.3-207.9-141.3-341.9L767.7,1244.5
	L767.7,1244.5L767.7,1244.5z M866.8,1244.4v0.2c0,106.7,42.9,202.5,111.9,271.6c71.6,71.7,168.8,111.9,270.2,111.7h0.2
	c101.3,0.2,198.5-40,270.1-111.6c69.1-69.1,111.9-165,111.9-271.7v-0.2c0.2-101.2-40.1-198.3-111.9-269.7
	c-71.7-71.5-168.9-111.6-270.1-111.4h-0.2c-101.2-0.2-198.4,39.9-270,111.4C906.9,1046,866.6,1143.1,866.8,1244.4L866.8,1244.4z"/>
<path class="st2" d="M0,676.8h570v269H0V676.8z M0,1108.2h570v286H0V1108.2z M0,1537.2h570v286H0V1537.2z M1930,676.8h570v269h-570
	V676.8z M1930,1108.2h570v286h-570V1108.2z M1930,1537.2h570v286h-570V1537.2z"/>
<path d="M1284.1,1469.9l-44-79.6v59.7c0,17.7,4.4,30.9,22,30.9C1268.7,1480.9,1277.5,1476.5,1284.1,1469.9L1284.1,1469.9z
	 M1244.5,1259.9v35.4c0,6.6,2.2,13.3,6.6,17.7c8.8,0,15.4-6.6,15.4-22.1V1260c0-6.6-4.4-13.2-11-13.2
	C1248.9,1246.7,1244.5,1253.3,1244.5,1259.9L1244.5,1259.9z M1288.5,1383.7h55.1v30.9c0,39.8-2.2,57.5,4.4,57.5h6.6v48.6h-22
	c-8.8,0-15.4-2.2-22-8.8c-13.2,11.1-35.2,15.5-52.9,15.5c-46.3,0-79.3-22.1-79.3-70.7v-57.5c0-26.5,4.4-50.8,30.8-61.9
	c-15.4-19.9-19.8-35.4-19.8-57.5v-8.8c0-44.2,13.2-70.7,63.9-70.7c55.1,0,68.3,26.5,68.3,70.7v8.8c-2.2,42-11,46.4-52.8,68.5
	L1288.5,1383.7L1288.5,1383.7z"/>
<path d="M1420.7,1034.5v238.7h24.2c13.2,0,17.6-19.9,17.6-46.4v-143.6c0-26.5-4.4-48.6-17.6-48.6L1420.7,1034.5L1420.7,1034.5z
	 M1420.7,1522.9h-68.3V968.2h96.9c50.6,0,83.7,26.5,83.7,110.5V1229c0,84-33,110.5-83.7,110.5h-28.7L1420.7,1522.9L1420.7,1522.9z"
	/>
<path class="st3" d="M1160.8,1169.3v-101.7c0-70.7-37.4-97.2-90.3-97.2c-55.1,0-92.5,26.5-92.5,97.2v112.7l112.3,139.2
	c0,0-2.2,42-2.2,88.4c0,15.5-2.2,30.9-15.4,30.9c-13.2,0-15.4-15.5-15.4-30.9v-106.1h-74.9v123.8c0,70.7,37.4,97.2,90.3,97.2
	c55.1,0,92.5-26.5,92.5-97.2v-121.5l-112.3-134.8v-84c0-19.9-2.2-48.6,17.6-46.4c19.8,0,15.4,30.9,15.4,46.4v84H1160.8
	L1160.8,1169.3L1160.8,1169.3z"/>
</svg>
