<?xml version="1.0" encoding="utf-8"?>
<!-- Generator: Adobe Illustrator 19.1.1, SVG Export Plug-In . SVG Version: 6.00 Build 0)  -->
<svg version="1.1" id="Layer_1" xmlns="http://www.w3.org/2000/svg" xmlns:xlink="http://www.w3.org/1999/xlink" x="0px" y="0px"
	 viewBox="-159 41 640 480" style="enable-background:new -159 41 640 480;" xml:space="preserve">
<style type="text/css">
	.st0{fill:#EE1B2D;}
	.st1{fill:#FFFFFF;}
</style>
<path class="st0" d="M206.5,427.6c-27.5,0-54.6,0-82.1,0c0-18.7,0-37.2,0-55.8c-0.2,0-0.3-0.1-0.5-0.1c-0.2,0.3-0.4,0.5-0.5,0.9
	c-6.5,16.3-17.8,28.6-32.2,38.2c-15.8,10.5-33.3,16.6-51.8,20.2c-16.7,3.3-33.6,3.8-50.5,3.1c-21.1-0.9-41.6-4.5-60.8-13.7
	c-26.1-12.5-43.6-32.6-53.4-59.7c-5.6-15.5-8-31.5-8.2-47.9c0-0.4,0.1-0.7,0.1-1.2c28.3,0,56.6,0,84.9,0c0.3,3.6,0.4,7.2,0.8,10.7
	c1,8,3.2,15.7,7.4,22.7c7.4,12.3,18.7,18.4,32.6,20.3c8.7,1.2,17.2,0.2,25.1-3.4c11.1-5.1,16.9-14,17.5-26c0.2-4.3-0.1-8.9-1.3-13
	c-2.9-9.9-10.6-15.4-20-18.3c-4.7-1.4-9.8-2-14.8-2.3c-6.9-0.4-13.8-0.1-20.6-0.1c-0.9,0-1.8,0-3,0c-0.1-1-0.1-1.9-0.1-2.7
	c0-17.2,0-34.3-0.1-51.5c0-2.1,0.6-2.7,2.7-2.7c10.4,0,20.9,0.2,31.3-0.3c4.9-0.2,10-1.3,14.7-2.7c8.9-2.7,14.4-8.8,15.8-18.2
	c1.4-9.8-1.7-18-9.6-24.1c-4.9-3.8-10.7-5.4-16.7-6.3c-10.2-1.4-20.2-1.2-29.8,3c-12.2,5.4-20.5,14.1-23,27.6
	c-0.2,0.9-0.2,1.8-0.3,2.8c-0.1,0.9-0.2,1.8-0.3,2.9c-27.3,0-54.5,0-82,0c0.1-2.3,0.2-4.5,0.4-6.8c2-24.6,10.5-46.4,28.6-63.8
	C-80.4,147-65,139-48.1,133.8c18.3-5.6,37.1-7.6,56.3-7.2c18.5,0.5,36.8,2.7,54.5,8.6c17.6,5.8,33.2,14.9,45.1,29.6
	c7,8.6,11.8,18.2,15.1,28.7c0.2,0.7,0.4,1.3,0.6,2c0,0.1,0.1,0.1,0.4,0.3c0-20.8,0-41.4,0-62.5c1,0,1.9,0,2.7,0
	c39.2,0,78.4,0,117.6-0.1c2,0,2.6,0.7,3,2.5c13.6,55.4,27.3,110.8,40.9,166.3c0.2,0.9,0.5,1.7,1.3,2.7c14-57,28.1-114.1,42.1-171.2
	c41.4,0,82.6,0,124.1,0c0,98,0,196.1,0,294.2c-27.8,0-55.6,0-83.6,0c0-61.3,0-122.5,0-183.8c-0.2,0-0.4-0.1-0.6-0.1
	c-0.2,0.6-0.5,1.3-0.6,1.9c-14.7,59.7-29.5,119.4-44.1,179.1c-0.6,2.3-1.4,3-3.8,3c-22.7-0.1-45.3-0.1-68,0c-2,0-2.7-0.6-3.2-2.5
	c-14.5-59.5-29.1-119-43.7-178.4c-0.3-1.2-0.6-2.3-1.5-3.4C206.5,304.8,206.5,366.1,206.5,427.6z"/>
<path class="st1" d="M124,315.3c0-23.9,0-47.8,0-71.7c-6,17.3-16,30.9-33.9,38.1C106.2,288.7,116.1,300.9,124,315.3z"/>
</svg>
