<?xml version="1.0" encoding="utf-8"?>
<!-- Generator: Adobe Illustrator 21.1.0, SVG Export Plug-In . SVG Version: 6.00 Build 0)  -->
<svg version="1.1" id="Layer_1" xmlns="http://www.w3.org/2000/svg" xmlns:xlink="http://www.w3.org/1999/xlink" x="0px" y="0px"
	 viewBox="0 0 640 480" style="enable-background:new 0 0 640 480;" xml:space="preserve">
<style type="text/css">
	.st0{fill:#CC2229;}
</style>
<path class="st0" d="M318.6,116.7c0.4,0.4,83.7,190.4,83.6,190.3h-54.6c0-0.6-25.9-62-25.6-62.3h-58.9
	C263.7,244.9,319.4,116.1,318.6,116.7L318.6,116.7z M141.1,0h128c0.4-0.1-127.1,307-127.6,306.6C141.5,306.1,141.2-0.2,141.1,0
	L141.1,0z M366.5,0h132.3l-0.1,306.7C498.9,307.7,366.5,0,366.5,0L366.5,0z"/>
<path d="M148.9,355l28.4,121.7h-20.7l-4.9-22.8H126l-4.7,22.8h-20.7L129,355H148.9z M147.8,433.2l-8.9-45.5l-8.9,45.5H147.8
	L147.8,433.2z M223.9,476.7l-0.5-10.6h-0.7c-2.8,8.3-8.9,13.9-16.7,13.9c-18.3,0-26-21.4-26-47.8c0-22.6,5.7-47.1,26.3-47.1
	c7.2,0,10.6,2.6,15.7,9.4V355h18.3v121.7L223.9,476.7L223.9,476.7L223.9,476.7z M210.9,403c-5,0-11.9,4.9-11.9,29.6
	c0,11.5,1.5,29.9,11.9,29.9c10,0,11.9-16.5,11.9-29.9C222.8,407.9,215.8,403,210.9,403z M253.1,432.4c0-27.3,9.5-47.3,31-47.3
	c21.4,0,31,20,31,47.3c0,27.6-9.7,47.6-31,47.6C262.8,480,253.1,460,253.1,432.4z M296.2,432.4c0-24-5-29.6-12.1-29.6
	c-5.6,0-12.1,4.2-12.1,29.6c0,25.9,6.5,29.9,12.1,29.9C292,462.3,296.2,455,296.2,432.4z M344.1,476.7h-16.4V355h18.4v40.5
	c3.8-8.7,11-10.4,15.6-10.4c19.4,0,26.4,20.3,26.4,47.1c0,26.6-6.9,47.8-26.3,47.8c-8,0-12.7-4-16.7-13.9h-0.5L344.1,476.7
	L344.1,476.7z M357.3,462.3c10,0,11.9-16.5,11.9-29.9c0-24.7-7-29.6-11.9-29.6c-5,0-11.9,4.9-11.9,29.6
	C345.3,443.8,346.8,462.3,357.3,462.3z M457.5,451.1C452.9,477.9,438,480,428,480c-11.2,0-30.5-4.2-30.5-47.6
	c0-30.3,12.5-47.3,31.8-47.3c12.2,0,29.4,6.8,29.4,49v4.9h-42.2c0,20.9,7.2,23.3,12.3,23.3c4.2,0,8.5-1.2,10.3-11.1L457.5,451.1
	L457.5,451.1L457.5,451.1z M439.7,424.2c-0.5-17.9-4.9-21.4-11-21.4c-10.4,0-12.2,14.8-12.3,21.4H439.7L439.7,424.2z M464,7.1V0
	h31.2v7.1h-11.6v30.4h-8.1V7.1H464L464,7.1z M505.2,8.5v28.9h-8.1V0h10.7l10.6,29.5L528.9,0h10.6v37.5h-8.1v-29l-10.3,28.9h-5.7
	L505.2,8.5z"/>
</svg>
