<?xml version="1.0" encoding="utf-8"?>
<!-- Generator: Adobe Illustrator 19.1.1, SVG Export Plug-In . SVG Version: 6.00 Build 0)  -->
<svg version="1.1" id="Layer_1" xmlns="http://www.w3.org/2000/svg" xmlns:xlink="http://www.w3.org/1999/xlink" x="0px" y="0px"
	 viewBox="0 0 640 480" style="enable-background:new 0 0 640 480;" xml:space="preserve">
<style type="text/css">
	.st0{fill-rule:evenodd;clip-rule:evenodd;fill:#231F20;}
	.st1{fill-rule:evenodd;clip-rule:evenodd;fill:#F47937;}
</style>
<g>
	<path class="st0" d="M72.5,357.7c-3-0.6-6.6-2.4-9.6-4.8c-27.7-27.1,7.8-58.4,48.2-76.4v-51.2c9.6,5.4,14.4,6,15,7.2l31.3-31.3
		l-10.2-26.5c90.9-31.9,127.6-43.9,201.6-56.6l-13.2-12.6l22.3-12.6c49.4,16.8,96.3,21.1,87.9,63.2c2.4-28.3-32.5-39.1-86.7-54.8
		l-10.2,6.6l19.9,16.2c-88.5,15.6-143.2,33.1-208.2,56l9,22.9l-32.5,32.5c5.4,1.2,62,21.1,121-21.1c0.6,0,1.2-0.6,1.2-1.2
		c-1.8-3-5.4-6-10.2-10.2c16.9,1.2,28.3,16.8,25.9,32.5h-7.8c1.2-4.8,0-10.8-2.4-14.4c-45.1,33.7-98.7,38.5-143.8,22.9v39.7
		C99,291.5,59.2,315.5,59.8,339C61,350.4,67.1,354.7,72.5,357.7L72.5,357.7z"/>
	<path class="st1" d="M257.8,347.4c-49.3,25.3-96.3,45.1-168.5,48.1c-93.9-1.8-108.9-65-64.4-131.2
		C67.1,197.6,133.9,138,240.4,100.1c30.7-10.8,76.4-23.5,119.8-24.1c63.2-0.6,124,19.3,120.4,80c-2.4,46.3-69.2,111.9-104.1,159.5
		c-15.1,20.5-17.5,33.7,7.8,32.5c93.3-6,177.5-38.5,255.8-72.2c-53,36.1-326.8,173.3-328,79.4c0.6-11.4,6-24.1,14.4-37.3
		c9-13.2,21.1-27.7,33.7-41.5c18.7-21.7,65-72.8,80-104.1c26.5-58.4-32.5-61.4-82.5-79.4l-22.3,12.6l13.2,12.6
		c-74,12.6-110.7,24.7-201.6,56.6l10.2,26.5L126,232.5c-0.6-1.2-5.4-1.8-15-7.2v51.2c-40.3,18-75.8,49.3-48.2,76.4
		c3,2.4,6.6,4.2,9.6,4.8l0,0C122.4,385.9,257.8,347.4,257.8,347.4L257.8,347.4z"/>
</g>
</svg>
