<?xml version="1.0" encoding="utf-8"?>
<!-- Generator: Adobe Illustrator 18.1.1, SVG Export Plug-In . SVG Version: 6.00 Build 0)  -->
<svg version="1.1" id="Layer_1" xmlns="http://www.w3.org/2000/svg" xmlns:xlink="http://www.w3.org/1999/xlink" x="0px" y="0px"
	 viewBox="0 0 640 480" enable-background="new 0 0 640 480" xml:space="preserve">
<path fill="#030303" d="M201.3,43.6c23.4-22.9,56.1-33.5,88.1-36.8c31.2-2.7,63.6,0.5,92.2,13.7c17.5,8,33.5,20.5,42.6,37.8
	c10.5,19.5,11.7,42.2,11.8,63.8c-0.1,38.3-0.1,76.5-0.1,114.8c0,9.2-0.2,18.6,1.9,27.7c2.5,11.8,8.7,22.4,16,31.7
	c3.2,4.4,7.6,8.3,8.7,13.8c0.9,3.4-0.1,7.3-2.7,9.8c-16.1,14.4-32.5,28.5-49,42.4c-4.3,3.5-10.6,3.5-15.5,1.3
	c-14.9-11.2-25.9-26.5-36.5-41.7c-12.6,13.1-26.3,25.5-42.7,33.8c-16.2,8.8-35,11.1-53.1,12.1c-24.1,1.5-49.6-3.5-69-18.6
	c-18.1-13.5-29.1-34.9-32.6-57c-4.6-28.6-0.7-59.5,15.2-84.2c12-19,30.6-33.1,51.3-41.4c21.7-10.1,45.5-13.9,68.9-17.2
	c16.6-2.1,33.2-3.6,49.9-4.8c-0.2-12.8,0.8-25.7-1.3-38.3c-1.6-9.4-6.1-18.9-14.1-24.5c-24.3-17.5-63.5-7.5-75.9,19.9
	c-2.3,4.6-2.9,9.8-4.9,14.5c-1.9,4.5-6.9,8-11.9,7.2c-19.5-2.5-39-4.9-58.5-7.4c-5.1-0.7-10.6-4.7-10-10.4
	C173.8,82.4,184.3,60,201.3,43.6z"/>
<path fill="#FEFEFE" d="M298,200.1c15.9-3.8,32.3-4.9,48.6-4.7c-0.4,18.8,1.4,37.9-2.6,56.5c-2.3,10.9-7.4,20.9-13.4,30.3
	c-8.3,12.5-22.1,21.6-37.1,22.9c-10.9,1.4-22.2-2.8-29.8-10.7c-7.1-7.7-10.5-18.1-11.4-28.3c-1.2-14,0.9-28.8,8.7-40.8
	C269.5,212.3,283.7,204.5,298,200.1z"/>
<path fill="#FF8B00" d="M468.4,347.9c13.2-10.4,29.7-16.2,46.3-17.6c15.1-1.2,30.8-1.8,45.2,3.7c7.2,2.5,9.5,10.8,9.5,17.7
	c0.1,14.6-3.3,29-8.6,42.6c-5.4,13.4-13.2,26.1-24,35.8c-4.1,3.8-10.6,5.3-15.5,2.2c-3.7-2.4-5.5-7.2-4.4-11.5
	c5.7-18.1,14.7-35.9,14.8-55.2c-6.7-2.3-13.8-1.9-20.7-1.7c-11.1,0.4-22.1,2-33.1,3.7c-5,1.1-11-0.8-13.3-5.6
	C462,357.2,464.3,351.2,468.4,347.9z"/>
<path fill="#FF8B00" d="M78.4,349.1c3.9-1.6,8.2-0.5,11.8,1.4c42.5,23.4,85.2,47.6,131.8,61.9c32.5,10,66.8,14.7,100.8,12.5
	c56.9-3,112.6-18.5,164.8-41.1c4.6-2.1,9.8-3.6,14.7-1.7c7.2,2.2,11.9,10.5,9.4,17.8c-2.2,6.4-8.5,9.9-13.5,13.8
	c-45.2,30.9-97.7,50.7-151.7,58.8c-29.8,4.5-60.3,4.9-90-0.5c-21.4-4.1-42.2-10.8-61.9-19.9c-41.2-18.9-77.5-46.7-111.7-76.1
	c-4.3-4-10.4-7.2-11.8-13.4C69.4,357,73,351,78.4,349.1z"/>
</svg>
