<?xml version="1.0" encoding="utf-8"?>
<!-- Generator: Adobe Illustrator 19.1.1, SVG Export Plug-In . SVG Version: 6.00 Build 0)  -->
<svg version="1.1" id="Layer_3" xmlns="http://www.w3.org/2000/svg" xmlns:xlink="http://www.w3.org/1999/xlink" x="0px" y="0px"
	 viewBox="0 0 640 480" style="enable-background:new 0 0 640 480;" xml:space="preserve">
<style type="text/css">
	.st0{fill:#9F9FA0;}
</style>
<g id="layer1" transform="translate(-1074.235,-1639.219)">
	<g id="g25472" transform="translate(19.48863,19.49672)">
		<g>
			<g id="g186" transform="matrix(54.85033,0,0,-54.85033,-1411.313,6454.729)">
				<path id="path188" class="st0" d="M53.3,83.3c0,1,1,1.8,1,1.8c-0.5,0.8-1.3,0.8-1.5,1c-0.8,0-1.3-0.5-1.8-0.5
					c-0.5,0-1,0.5-1.5,0.5c-0.8,0-1.5-0.5-1.8-1c-0.8-1.3-0.3-3.3,0.5-4.6c0.3-0.5,0.8-1.3,1.5-1c0.5,0,0.8,0.3,1.5,0.3
					c0.8,0,0.8-0.3,1.5-0.3c0.5,0,1,0.5,1.3,1c0.5,0.5,0.5,1.3,0.5,1.3C54.5,81.5,53.5,82,53.3,83.3"/>
			</g>
		</g>
		<path id="path190" class="st0" d="M1454.7,1698.5c17.3-20.8,28.7-49.8,25.7-78.8c-24.9,1-54.9,16.5-72.7,37.4
			c-16,18.5-30,48-26.2,76.2C1409.5,1735.6,1437.7,1719.3,1454.7,1698.5"/>
	</g>
</g>
</svg>
