<?xml version="1.0" encoding="utf-8"?>
<!-- Generator: Adobe Illustrator 21.1.0, SVG Export Plug-In . SVG Version: 6.00 Build 0)  -->
<svg version="1.1" id="Layer_1" xmlns="http://www.w3.org/2000/svg" xmlns:xlink="http://www.w3.org/1999/xlink" x="0px" y="0px"
	 viewBox="0 0 640 480" style="enable-background:new 0 0 640 480;" xml:space="preserve">
<style type="text/css">
	.st0{fill:#226CB4;}
	.st1{fill:#FFFFFF;}
</style>
<g>
	<path class="st0" d="M169.7,252.6c51.1-11,44-72.1,42.7-85.3c-2.5-20.5-26.7-56.6-59.6-53.6c-41.3,3.7-47.2,63.4-47.2,63.4
		C99.8,204.6,118.8,263.5,169.7,252.6 M264.4,150.3c28.1,0,50.9-32.4,50.9-72.6S292.4,5.2,264.4,5.2s-51.1,32.4-51.1,72.6
		C213.5,117.7,236.3,150.3,264.4,150.3 M386,154.9c37.7,5,61.8-35.4,66.6-65.7c5-30.3-19.4-65.9-46.1-71.9
		c-26.7-6.2-60.2,36.7-63.2,64.6C339.7,116.1,348.3,150.1,386,154.9 M535.2,206.2c0-14.6-12.1-58.4-57-58.4s-50.9,41.5-50.9,70.7
		c0,28.1,2.3,66.9,58.2,65.7C541.4,282.9,535.2,220.8,535.2,206.2 M478.2,334.3c0,0-58.2-45.2-92.2-93.8
		c-46.1-71.9-111.8-42.7-133.7-6.2s-55.9,59.8-60.7,65.9c-4.8,5.9-70.3,41.3-55.9,106.1c14.6,64.6,65.7,63.4,65.7,63.4
		s37.7,3.7,81.2-6.2c43.8-9.8,81.5,2.3,81.5,2.3s102,34.2,129.8-31.7C521.8,368.3,478.2,334.3,478.2,334.3"/>
	<path class="st1" d="M273.5,271.3v43.4h-35.4c0,0-35.4,3-47.7,42.9c-4.3,26.7,3.9,42.4,5.2,45.9c1.4,3.4,12.8,22.8,41.5,28.8h66.4
		V271.7L273.5,271.3z M273,405.9h-26.7c0,0-18.7-0.9-24.2-22.4c-3-9.6,0.5-20.5,1.8-24.9c1.4-4.3,7.5-14.4,20.5-18H273L273,405.9
		L273,405.9z M319.8,318.5v84.4c0,0,1.4,21,31,28.8h76.2V318.5h-32.9v84.9h-31.5c0,0-10-1.4-11.9-9.6v-75.8L319.8,318.5L319.8,318.5
		z"/>
</g>
</svg>
