<?xml version="1.0" encoding="utf-8"?>
<!-- Generator: Adobe Illustrator 21.1.0, SVG Export Plug-In . SVG Version: 6.00 Build 0)  -->
<svg version="1.1" id="Layer_1" xmlns="http://www.w3.org/2000/svg" xmlns:xlink="http://www.w3.org/1999/xlink" x="0px" y="0px"
	 viewBox="0 0 640 480" style="enable-background:new 0 0 640 480;" xml:space="preserve">
<style type="text/css">
	.st0{fill:#FFFFFF;}
</style>
<g>
	<path d="M320,19.8c120.9,0,220.2,99.2,220.2,220.2c0,120.9-99.3,220.2-220.2,220.2c-121,0-220.2-99.3-220.2-220.2
		C99.8,119,199,19.8,320,19.8L320,19.8z"/>
	<path class="st0" d="M320,33.9c-57.9,0-114.4,25.1-153.2,68.1c-33.8,37.7-52.8,87.4-52.8,138c0,57.9,25,114.2,68.1,153
		c37.6,33.8,87.2,52.9,137.8,52.9c57.9,0,114.4-25.1,153-68.1c34-37.6,52.9-87.2,52.9-137.8c0-58-25-114.4-68.1-153.2
		C420.2,53,370.6,33.9,320,33.9L320,33.9z"/>
	<path d="M318.4,231.9l20-27h20.9L327,247v26.1h-17.1V247l-32.4-42.1h20.9L318.4,231.9L318.4,231.9z M258.5,204.9l33.5,68.1h-19.2
		l-6.2-13.5h-34.5l-6.2,13.5h-19.2l33.5-68.1H258.5L258.5,204.9z M133.8,204.9h42.1c11.8,0,25.6,1.9,25.6,16.4
		c0,7.4-4.3,11.3-10.7,14c8.8,2,14.4,8.7,14.4,17.8c0,14.6-11,19.9-23.9,19.9h-47.5V204.9z M428.9,260.8v12.3h-66.1v-68.1h64.2v12.3
		h-47v14.9h45.5v12.3h-45.5v16.4L428.9,260.8L428.9,260.8z M456.2,245.9v27.2h-17.1v-68.1H485c13.3,0,26.5,4.7,26.5,20.3
		c0,12-6.8,18.3-17.7,20.6l20.3,27.2h-20.3L476,245.9L456.2,245.9L456.2,245.9z M283.4,53h42.1c11.8,0,25.6,1.9,25.6,16.6
		c0,7.3-4.3,11.2-10.7,14c8.8,2,14.4,8.5,14.4,17.8c0,14.6-11,19.9-23.9,19.9h-47.5V53z M328.4,128.9l33.4,68.1h-19.1l-6.2-13.5H302
		l-6.4,13.5h-19.1l33.5-68.1L328.4,128.9L328.4,128.9z M357.4,336.2v12.3h-70.8v-68.1h69.1v12.3h-51.8v14.9h50.3v12.3h-50.3v16.4
		L357.4,336.2L357.4,336.2z M303.9,397.4v27.2h-17.2v-68.3h45.9c13.3,0,26.4,4.7,26.4,20.3c0,12-6.7,18.5-17.5,20.8l20.3,27.2h-20.3
		l-18-27.2L303.9,397.4L303.9,397.4L303.9,397.4z"/>
	<path class="st0" d="M261,247.3l-11.5-24.8l-0.2,0.2l-0.2-0.2l-11.3,24.8H261z M150.8,231.2h25c4.7,0,8.7-1.6,9-6.8
		c0.5-5.7-4.2-7.1-9-7.1h-25V231.2z M150.8,260.8h25c6.4,0,11.8-1.9,11.8-9.2c0-7.9-5.3-8.7-11.8-8.7h-25V260.8L150.8,260.8z
		 M456.2,233.6h26.9c5.4,0,11-1.6,11-8.2c0-6.7-5.4-8.2-11-8.2h-26.9V233.6z M300.4,79.2h25c4.7,0,8.7-1.6,9.2-6.7
		c0.3-5.9-4.3-7.1-9.2-7.1h-25V79.2z M300.4,108.9h25c6.5,0,12-1.9,12-9.2c0-7.8-5.4-8.5-12-8.5h-25V108.9z M330.7,171.1l-11.5-24.8
		v0.3l-0.2-0.3l-11.5,24.8H330.7z M303.9,384.9h26.7c5.6,0,11-1.6,11-8.1c0-6.7-5.4-8.2-11-8.2h-26.7V384.9L303.9,384.9z"/>
</g>
</svg>
