<?xml version="1.0" encoding="utf-8"?>
<!-- Generator: Adobe Illustrator 19.1.1, SVG Export Plug-In . SVG Version: 6.00 Build 0)  -->
<svg version="1.1" id="Layer_2" xmlns="http://www.w3.org/2000/svg" xmlns:xlink="http://www.w3.org/1999/xlink" x="0px" y="0px"
	 viewBox="220 -140 640 480" style="enable-background:new 220 -140 640 480;" xml:space="preserve">
<style type="text/css">
	
		.st0{fill-rule:evenodd;clip-rule:evenodd;fill:#FFFFFF;stroke:#221F1F;stroke-width:2;stroke-linecap:round;stroke-linejoin:round;stroke-miterlimit:2.6131;}
	.st1{fill-rule:evenodd;clip-rule:evenodd;}
	.st2{fill-rule:evenodd;clip-rule:evenodd;fill:#FFFFFF;}
	.st3{fill-rule:evenodd;clip-rule:evenodd;fill:#0099D8;}
</style>
<g>
	<path class="st0" d="M765,100.5C765-24.6,663.6-126,538.5-126S312-24.6,312,100.5C312,225.6,413.4,327,538.5,327
		S765,225.6,765,100.5L765,100.5z"/>
	<path class="st1" d="M759.5,100.5c0-122.1-99-221-221-221c-122.1,0-221,99-221,221c0,122.1,99,221,221,221
		C660.6,321.5,759.5,222.6,759.5,100.5L759.5,100.5z"/>
	<path class="st2" d="M442.8-23.7c-0.8-5.9-4.4-10.9-9.9-13.3c-5.5-2.5-11.8-1.6-16.7,1.9c-0.4,0.3-0.8,0.6-1.1,0.9
		c0.8-2.7,1-5.5,0.4-8.3c-0.7-2.7-2.1-5.2-4.1-7.2c-4.1-4-10.3-5.3-15.7-3.3c-2.5,0.9-4.8,2.6-6.5,4.7c-1,1.2-1.9,2.4-2.9,3.6
		c-5,6.3-10,12.5-15,18.8c-4.3,5.4-8.6,10.7-12.9,16.1c-0.3,0.4-0.6,0.7-0.8,1.1c0,0,0.6,0.5,0.6,0.5c1.7,1.3,3.3,2.7,5,4
		c6.3,5,12.6,10.1,18.9,15.2c6.2,5,12.5,10,18.7,15c1.6,1.3,3.2,2.5,4.8,3.8c0.1,0.1,0.4,0.4,0.5,0.3c0.3-0.4,0.6-0.8,0.9-1.2
		c4.3-5.4,8.6-10.7,12.9-16.1c5.1-6.4,10.3-12.8,15.4-19.3c2.7-3.3,5.6-6.4,6.8-10.6C442.9-19.3,443-21.5,442.8-23.7L442.8-23.7
		L442.8-23.7z M387.5-5.6c-2.6-2.1-5.2-4.2-7.8-6.2c-1-0.8-2-1.6-3-2.4c0,0,1-1.3,1.1-1.4c4.8-6,9.7-12.1,14.5-18.1
		c1.3-1.6,2.4-3.3,4.4-4.1c2.7-1.1,5.8-0.4,7.8,1.7c1.6,1.7,2.1,4.1,1.6,6.3c-0.6,2-2,3.5-3.3,5.1c-2.5,3.2-5.1,6.4-7.6,9.6
		C392.6-12,390-8.8,387.5-5.6L387.5-5.6L387.5-5.6z M425.9-13.1c-1.6,2.1-3.3,4.1-4.9,6.2c-4.5,5.6-9,11.3-13.5,16.9
		c0,0-0.1,0.2-0.2,0.2c-0.2-0.2-0.5-0.4-0.7-0.6c-1.2-1-2.5-2-3.7-2.9c-2.1-1.7-4.3-3.4-6.4-5.1c4.1-5.1,8.2-10.2,12.3-15.3
		c2-2.5,4-5,6-7.5c1.4-1.8,3.2-3.1,5.6-3.1c2.8-0.1,5.3,1.6,6.5,4.1C427.9-17.9,427.6-15.2,425.9-13.1L425.9-13.1z"/>
	<path class="st2" d="M676.6,100.5c0-76.3-61.9-138.1-138.1-138.1c-76.3,0-138.2,61.8-138.2,138.1c0,76.3,61.9,138.1,138.2,138.1
		C614.8,238.7,676.6,176.8,676.6,100.5L676.6,100.5z"/>
	<path class="st3" d="M538.5-30.6c-71.6,1.9-129.3,59.6-131.1,131.1h131.1V-30.6L538.5-30.6z"/>
	<path class="st3" d="M538.5,231.7c71.6-1.9,129.3-59.6,131.2-131.2H538.5V231.7L538.5,231.7z"/>
	<polygon class="st2" points="685.9,-50.7 674.3,-61.4 637,-12.3 648.5,-1.6 689.5,-20.4 662.1,15.5 670.1,29.1 726.1,3.3 
		718.2,-10.2 685.9,4.6 708.9,-25.6 698.8,-38.2 664.3,-22.3 685.9,-50.7 	"/>
	<polygon class="st2" points="518.1,-88.3 532.7,-46.9 544.2,-46.9 558.8,-88.3 560.4,-46.9 576.5,-44.6 574.2,-106.7 553.4,-109 
		538.5,-65.3 523.5,-109 502.8,-106.7 500.5,-44.6 516.6,-46.9 518.1,-88.3 	"/>
</g>
</svg>
