<?xml version="1.0" encoding="utf-8"?>
<!-- Generator: Adobe Illustrator 20.1.0, SVG Export Plug-In . SVG Version: 6.00 Build 0)  -->
<svg version="1.1" id="Layer_1" xmlns="http://www.w3.org/2000/svg" xmlns:xlink="http://www.w3.org/1999/xlink" x="0px" y="0px"
	 viewBox="0 0 640 480" style="enable-background:new 0 0 640 480;" xml:space="preserve">
<style type="text/css">
	.st0{fill-rule:evenodd;clip-rule:evenodd;fill:#989A9D;}
</style>
<path class="st0" d="M347.6,290.2c9.8-21,15.3-44.5,15.3-69.3c0-57.1-29.1-107.4-73.3-136.8C316,57,344.4,30.3,374.8,4.7
	c-35.5,20.9-68.9,44.9-99.8,70.7c-22.8-12-48.7-18.8-76.2-18.8c-90.7,0-164.2,73.5-164.2,164.2c0,41,15,78.4,39.8,107.2
	c-31.5,68-37,122.7-9.3,141.1c29.7,19.8,94.2-16.1,132.9-74.5c0,0-59.9,54-92.8,41.6c-20.3-7.7-20.3-38.6-3.6-83
	c27.2,20,60.8,31.8,97.1,31.8c45,0,85.7-18.1,115.4-47.4l5.9,11c71.6-5.8,285.3-11.5,285.3-11.5C605.3,327,463.7,336.3,347.6,290.2
	L347.6,290.2L347.6,290.2z M80.2,315.8c-20.9-26-33.3-59-33.3-94.9c0-83.9,68-151.8,151.9-151.8c23.6,0,46,5.4,66,15.1
	C180.7,156.9,116.4,242.9,80.2,315.8L80.2,315.8L80.2,315.8z M260.8,237.7l47.2,88.6c-27.6,28.6-66.4,46.5-109.3,46.5
	c-34.8,0-66.8-11.7-92.4-31.4c28-66.6,89.5-158.8,174.5-248.1c41.9,27,69.7,74.1,69.7,127.7c0,23.1-5.2,44.9-14.4,64.5
	C308.4,273.3,282.5,257.8,260.8,237.7L260.8,237.7L260.8,237.7z"/>
</svg>
