<?xml version="1.0" encoding="utf-8"?>
<!-- Generator: Adobe Illustrator 19.1.1, SVG Export Plug-In . SVG Version: 6.00 Build 0)  -->
<svg version="1.1" id="Layer_2" xmlns="http://www.w3.org/2000/svg" xmlns:xlink="http://www.w3.org/1999/xlink" x="0px" y="0px"
	 viewBox="-159 41 640 480" style="enable-background:new -159 41 640 480;" xml:space="preserve">
<style type="text/css">
	.st0{stroke:#000000;stroke-width:0.216;stroke-miterlimit:2.613;}
	.st1{fill:#FFFFFF;}
	.st2{fill:#FADF3C;stroke:#FADF3C;stroke-width:0.216;stroke-miterlimit:2.613;}
</style>
<g>
	<path class="st0" d="M-92.8,520.2h507.6V41.8H-92.8V520.2z"/>
	<path class="st1" d="M346.8,413.4V185h43.4v-47.3H248.3V185h43.4v194.7l40.4,33.7H346.8z M3.5,409.7c-2.7,2.2-6.6,3.7-10.1,3.7
		h-5.1c-6.1,0-12.5-1.3-18.1-3.6c-5.6-2.3-11-5.9-15.3-10.2c-4.3-4.3-7.9-9.8-10.3-15.4c-2.3-5.7-3.6-11.9-3.6-18V185
		c0-6.1,1.3-12.4,3.6-18.1c2.3-5.6,5.9-11,10.3-15.3c4.3-4.3,9.7-7.9,15.3-10.3c5.6-2.3,11.9-3.6,18.1-3.6h39.4
		c6.1,0,12.4,1.2,18.1,3.6c5.7,2.3,11,6,15.3,10.3c4.3,4.3,7.9,9.7,10.3,15.3c2.3,5.7,3.6,12,3.6,18.1v63H19.8v-51.2
		c0-3-1.3-6.2-3.5-8.4c-2.1-2.1-5.5-3.5-8.4-3.5c-3,0-6.3,1.4-8.4,3.5c-2.1,2.1-3.4,5.4-3.4,8.4v157.5c0,3,1.4,6.4,3.4,8.3
		c2.1,2.1,5.4,3.5,8.4,3.5c3,0,6.4-1.4,8.4-3.5c2-2,3.5-5.3,3.5-8.3v-67h55.2v40.7c0,6.8-1.7,14-4.5,20c-2.8,6.2-7.4,11.9-12.5,16.2
		L3.5,409.7L3.5,409.7z"/>
	<path class="st2" d="M307.4,413.4H23.6l141.9-118.1L307.4,413.4L307.4,413.4z"/>
	<path class="st1" d="M246.9,342.5l-43.6-204.7h-75.4L84.2,342.5l81.3-67.7v0.1L246.9,342.5z M149.7,259l15.7-74v0.2l15.8,73.8
		H149.7z"/>
</g>
</svg>
