<?xml version="1.0" encoding="utf-8"?>
<!-- Generator: Adobe Illustrator 19.2.1, SVG Export Plug-In . SVG Version: 6.00 Build 0)  -->
<svg version="1.1" id="Layer_1" xmlns="http://www.w3.org/2000/svg" xmlns:xlink="http://www.w3.org/1999/xlink" x="0px" y="0px"
	 viewBox="0 0 640 480" style="enable-background:new 0 0 640 480;" xml:space="preserve">
<style type="text/css">
	.st0{fill:none;}
	.st1{fill:#C42339;}
	.st2{fill:#FFFFFF;}
</style>
<path class="st0" d="M347.1,199.7c0.5-5.4-0.1-10.5-5.6-12.3c-6.8-2.4-15.2,2-21.6,11.7c-9.6,14.8-10.1,32.9-9,44.4
	C317.5,240.7,343.9,220.1,347.1,199.7z"/>
<path class="st0" d="M244.9,318.1c0,25.3,21,30.2,33.6,29c13.7-1.3,28.2-8.7,31.9-11c-12.4-16.4-23.9-40-29.2-61
	C268.4,280.7,244.9,296.5,244.9,318.1z"/>
<path class="st0" d="M182.2,135c-0.4,0-12,0-12,0l-37.3,118.8c0,0,50.6,13.8,73.5-53.3C228.1,136.6,194.3,135,182.2,135z"/>
<rect x="85" y="5" class="st1" width="470" height="470"/>
<g>
	<path class="st2" d="M166.7,258.6c0-8.4-6.9-15.3-15.4-15.3c-8.4,0-15.4,6.9-15.4,15.3v32.2c0,8.5,6.9,15.4,15.4,15.4
		c8.5,0,15.4-6.9,15.4-15.4V258.6z"/>
	<path class="st2" d="M251,216.4c0-8.4-6.9-15.3-15.4-15.3c-8.5,0-15.4,6.9-15.4,15.3v74.4c0,8.5,6.9,15.4,15.4,15.4
		c8.4,0,15.4-6.9,15.4-15.4V216.4z"/>
	<path class="st2" d="M335.4,158.6c0-8.4-6.9-15.3-15.3-15.3c-8.5,0-15.4,6.9-15.4,15.3v162.8c0,8.5,6.9,15.3,15.4,15.3
		c8.4,0,15.3-6.8,15.3-15.3V158.6z"/>
	<path class="st2" d="M419.7,216.4c0-8.4-6.8-15.3-15.3-15.3c-8.4,0-15.3,6.9-15.3,15.3v74.4c0,8.5,6.9,15.4,15.3,15.4
		c8.5,0,15.3-6.9,15.3-15.4V216.4z"/>
	<path class="st2" d="M504,258.6c0-8.4-6.9-15.3-15.3-15.3c-8.5,0-15.3,6.9-15.3,15.3v32.2c0,8.5,6.8,15.4,15.3,15.4
		c8.4,0,15.3-6.9,15.3-15.4V258.6z"/>
</g>
</svg>
