<?xml version="1.0" encoding="utf-8"?>
<!-- Generator: Adobe Illustrator 19.1.1, SVG Export Plug-In . SVG Version: 6.00 Build 0)  -->
<svg version="1.1" id="Layer_1" xmlns="http://www.w3.org/2000/svg" xmlns:xlink="http://www.w3.org/1999/xlink" x="0px" y="0px"
	 viewBox="0 0 640 480" style="enable-background:new 0 0 640 480;" xml:space="preserve">
<style type="text/css">
	.st0{fill:#ED1C24;}
</style>
<g>
	<path class="st0" d="M602,155.5c2.3-8.2,1.5-13.7-2.3-16.4c-2.9-2.3-8.1-2.3-15.4,0c-16,6.7-32.2,21.3-48.7,43.6
		c-22.6,32.2-39.4,63.8-50.5,94.8l-1.2,1.8c-2.9,1.5-6.7,2.1-10.2,1.5c-0.9-0.6-1.2-1.2-1.2-2l4.4-17c1.2-7,0.3-12.9-2.9-17.3
		c-2.3-3.5-5.8-5-10.2-5c-12.8,0.9-25.8,9.9-39.2,28.1c-13.3,19.3-20.6,37.7-22,54.4c0,10.5,3.2,17.5,9.9,20.5
		c7.5,2,16-0.6,25.2-8.5c9.9-9.4,19.4-23.7,29-42.4l1.7-2H479c0.9,0,1.5,0.6,1.5,1.5c-2.9,12.9-4.4,19.9-4.4,21.1
		c-1.5,8.5-0.9,15.5,0.9,21.6c2,5.8,5.5,8.8,10.4,9.1c8.4,0.9,18-5.6,29-18.7l0.9-0.6l0.6,1.2c0.6,9.4,3.2,15.2,7.8,17.3
		c4.6,1.5,9.3,0.6,14.2-1.8c2.9-1.8,7-4.7,12.2-9.6c0.6-0.3,1.2-0.3,1.4,0.3l1.7,5.6c0.6,2.3,1.7,4.1,3.2,5.3
		c3.8,2,8.4,1.5,14.8-1.5c14.2-7.6,27-23.1,38-46.2l0.9-3.8l-6.4,0.3l-9.6,15.2c-4.4,6.1-8.4,10.5-12.5,12.6c-1.7,0.6-2.6,0-2.9-0.9
		c-0.3-1.5,0.6-4.4,2.6-8.5l33.1-67c0.3-1.2,0.3-1.8,0-2l-20-0.3c-0.9,0-1.4,0.3-2,1.5l-1.7,1.8c-0.9,0.6-1.7,0.3-2.3-0.3l-2.3-1.5
		c-8.1-3.8-17.1-1.5-27.3,6.4c-8.4,7.3-17.4,18.4-26.1,32.8c-11,17.8-18.9,29.5-23.2,34.8c-3.8,3.8-6.7,5.3-9,4.1
		c-1.4-0.6-2-2-2-3.8c0.3-6.7,2-15.8,5.5-27.2l1.7-5.3c0.9-2,1.7-3.5,2.9-4.7L524,267c17.4-16.1,33.6-35.1,48.7-56.4l3.2-6.4h-0.6
		c-4.6,0.3-7.5,0.9-8.7,1.5c-15.4,21.3-29.3,38-42.1,49.4c-3.8,3.2-6.1,4.7-6.7,4.7c-0.3-0.3-0.6-0.6-0.6-1.2
		c1.5-4.1,5.5-12.6,11.6-25.7c15.4-30.1,30.5-53.8,44.7-70.5c6.7-7.9,12.5-12.6,16.8-14.6c2-0.3,3.5,0,4.1,0.6
		c0.3,0.3,0.3,1.8,0.3,4.4l-2.3,8.8c0,0.3,0,0.3,0.3,0.3C598.5,159.9,601.7,157.9,602,155.5L602,155.5z M547.5,303.2
		c8.7-21.6,18-36.9,27.3-46.2l4.6-4.1c2-1.2,3.8-1.5,5.8-0.6c0.9,0.6,1.2,2,0.6,4.7c-8.4,21.1-16.8,37.7-24.7,50.3
		c-4.9,6.7-8.7,10.8-11.3,12.3c-1.7,0.6-2.9,0.6-3.8-0.6c-1.2-1.2-1.5-3.5-1.2-7.6L547.5,303.2L547.5,303.2z M464.8,251.5
		c1.4,0.3,2.9,1.8,3.8,4.1c1.2,5.9-0.3,13.2-4.1,21.6c-0.9,1.2-1.7,1.2-3.5,0.3c-5.8-2-8.7-5.8-9.3-11.4c0.6-6.4,2.9-10.8,7.5-14
		C461.3,251.2,463.1,250.9,464.8,251.5L464.8,251.5z M442.2,276c0.3-0.3,1.2,0,2,0c4.1,5.3,8.7,9.1,13.9,11.4
		c1.2,0.6,1.2,1.8,0.3,3.5c-7.3,14-14.2,23.7-20.6,28.7c-2.6,1.2-4.6,1.2-6.1,0.9c-2.9-1.2-4.4-3.2-4.4-6.7c0-5.3,2-12.6,6.1-21.9
		C437,284.5,439.6,279.2,442.2,276L442.2,276z"/>
	<path class="st0" d="M637.7,144.4c1.4-2.9,2-5.3,2.3-7c-22.6,22.5-44.4,34.2-65,34.5l-1.4,0.9l-16,22.8c-0.6,1.5-0.6,2,0,2.3
		l7.3,0.3c15.4-0.3,30.2-5.6,43.8-16.4C621.7,171.6,631.3,159,637.7,144.4L637.7,144.4z"/>
	<path class="st0" d="M453.2,157.6c0.3-3.2,0.9-4.7,1.2-5c13.6-2.3,27.8,1.8,42.9,12l26.4,18.1c0.9,0.6,1.7,0.6,2,0l15.7-19.6
		c1.4-1.2,1.4-2,0-2.6c-15.7-9.9-25.8-16.1-30.2-18.4c-8.7-4.1-18.9-6.1-30.5-5.8c-10.7,0.6-20.9,2.9-30.5,6.7
		c-1.2,0.3-2.3,0-3.8-1.2c-4.6-4.1-11-5.6-19.7-4.4c-21.2,3.8-42.9,17-65,39.5c-17.1,17.3-32.2,39.8-45.5,67.9l-6.4,14.9
		c-9.9,28.9-11,51.2-3.8,66.4c4.9,10.8,13.1,16.4,24.7,17.5c22.6,1.8,42.9-11.4,61.2-40.4c11-19.6,15.7-36,13.9-49.7
		c-1.2-7.3-4.6-12-10.4-13.4c-11-2.6-22,2.6-33.1,15.5c-12.2,16.7-17.7,33.9-17.1,51.8l0.6,0.9c5.2-6.1,11-11.1,17.1-15.8l9.9-6.4
		c1.4-12.3,5.2-21.9,11.3-28.9c4.4-4.4,7.8-6.1,10.7-4.7c2.3,1.5,3.5,4.1,3.8,7.3l-0.9,9.1c-3.8,17.5-12.5,33.3-26.1,47.4
		c-12.8,10.8-23.5,14-31.9,9.7c-9-6.4-11-20.8-5.8-43c9.9-33.6,27.3-65.5,52.2-96.2c18.3-20.8,33.4-33,45.5-37.4l4.4,0.3
		c0.6,0.6,0.3,0.9-0.3,1.2c-12.2,9.4-21.5,19.9-27.8,31.3c-8.7,16.7-10.4,29.2-4.9,37.7c2.9,4.1,7,5.6,11.9,4.4
		c8.1-2.3,16.2-9.7,24.7-22.2C449.2,186.2,453.5,171.6,453.2,157.6L453.2,157.6z M441,160.8c0.6-0.9,1.7-1.2,2.9-1.2
		c0.3,0.6,0.6,3.2,0.6,8.2c-2,16.7-9,31.9-21.5,45.3c-4.9,3.8-9,5.3-11.6,4.7c-2.3-0.9-3.5-2.6-3.8-5.6c0.3-8.5,4.4-18.4,11.6-29.8
		C425.7,173.1,432.9,165.8,441,160.8L441,160.8z"/>
	<path class="st0" d="M210.7,195.3c-1.7-3.5-4.9-5.6-9-6.1c-8.7-0.9-17.1,2-25.5,8.8c-2.6,2.3-9.3,9.1-19.7,20.8
		c-6.4,5.8-12.8,9.1-20,9.1c-0.3,0-0.6-0.3-1.2-1.2c5.2-16.4,4.4-28.1-2-34.5c-4.4-3.5-9.6-4.4-15.7-2.9
		c-16.2,5-31.3,20.5-45.2,46.2c-5.2,10.8-8.7,21.1-10.4,30.4c-1.2,12,1.5,20.5,8.1,25.1c7,4.4,15.4,3.2,24.7-3.5
		c11-8.8,22.9-24.6,35.1-47.7l1.5-1.8l11.9-1.2c0.6,0,0.9,0.6,0.9,1.5c-4.6,10.8-7.5,18.7-8.4,24.3c-1.7,9.9-0.3,17.8,4.6,24.3
		c4.6,5,10.4,7,17.4,6.4c11.9-2.3,24.7-10.5,38.6-24c0.6-0.6,1.2-0.6,1.5,0l-0.3,9.1c0,3.8,0.6,6.7,1.7,8.8c1.5,3.2,4.1,5.3,7.5,6.1
		c7.3,0.9,15.7-3.2,25.5-12c0.3-0.3,0.9,0,1.5,0.3c1.5,5.9,2.9,9.4,4.4,10.5c1.5,1.2,4.4,1.8,8.4,1.5c12.8-3.2,25.8-15.2,39.2-36
		c5.8-10.8,8.7-16.7,9-17l-5.8-0.9c-1.2,0-2.6,0.9-4.1,2.6c-2,4.1-4.6,8.8-7.8,13.4c-5.8,7-9.9,11.4-12.8,12.9
		c-1.5,0.6-2.3,0.3-2.6-0.6l0.3-2.6l36.8-75.5l-0.6-0.6l-19.4-0.6c-0.9,0-2.6,1.2-5.2,3.8c-0.6,0.3-1.5,0-2-0.6l-2-1.2
		c-7.3-3.8-15.7-2.3-25.2,4.1c-8.4,6.4-17.4,16.1-25.8,29.2c-12.2,18.4-19.4,29.2-22,32.2c-9.3,10.2-18,16.7-25.2,19.6
		c-3.5,0.9-6.4,0-8.4-2.9c-1.7-2.6-1.7-7.6-0.3-14.6c3.8-12.3,9.3-24.3,16.5-35.4c8.4-12.3,15.4-19.9,21.8-22.2
		c1.7,0,3.2,0.6,4.1,1.5c0.3,1.8,0,2.6-1.5,2.9l-3.8,1.2c-7,5-9.9,10.8-8.4,17.5c0.6,1.8,1.7,2.9,3.5,3.5c2.9,0.9,6.1-0.3,9.6-3.2
		C213.1,213.7,215.4,204.4,210.7,195.3L210.7,195.3z M265.3,204.4c1.2,0.9,1.5,1.5,1.7,2c-0.3,1.8-1.2,5.3-3.5,11.1
		c-8.7,19.3-18,35.7-27.3,49.1c-3.8,4.1-6.7,6.1-8.7,6.1l-2.6-2c-0.6-2.3,0-6.7,2-13.7l2.9-7.3c10.2-21.6,20.6-36.3,30.7-44.2
		C262.7,204.7,264.4,204.4,265.3,204.4L265.3,204.4z M98.2,234.5l4.6-7.6l2-1.8l0.6,0.3c4.6,5,9.6,8.8,15.4,11.1
		c0.3,0.6,0.3,1.8-0.6,3.2c-6.7,13.2-13.6,22.8-21.2,29.2c-2.6,1.5-4.9,2.3-6.7,1.8c-2-0.6-3.5-2.3-4.1-5.3
		C88.3,257.9,91.8,247.7,98.2,234.5L98.2,234.5z M121.4,201.4c1.7-0.9,3.5-0.9,5.5,0c3.2,2.6,4.4,7.3,2.9,14.3
		c-1.2,3.8-2.3,7.3-3.8,10.2c-0.3,0.6-1.5,0.6-3.8,0.3c-5.8-2.3-9-6.1-9.6-11.1C112.7,209.1,115.6,204.4,121.4,201.4L121.4,201.4z"
		/>
	<path class="st0" d="M298.9,213.7c1.5,0,8.4,0,20.6,0c1.7,0,3.5-1.5,4.6-3.5l9.3-19.9l-0.6-0.6l-16.5-0.3c-3.8,0.3-5.8,0.9-6.7,2
		l-10.4,19.6C298.9,212.3,298.9,213.1,298.9,213.7L298.9,213.7z"/>
	<path class="st0" d="M55.3,173.1c-14.2,14.3-26.4,31-36.5,50c-5.2,9.7-9,18.1-11.6,25.4c-5.5,14-7.8,28.1-7,42.4
		C1,307.6,6,320.8,15.6,330.1c9.9,11.4,27.3,15.8,51.3,13.5c7-0.9,24.7-5.3,52.8-12.9c21.5-5.9,39.7-7.9,54.8-6.1
		c13.9,2.6,24.1,9.4,30.7,19.9l1.2,0.3c17.1-8.2,42.6-7.9,76.3,1.5c0.6,0,0.6,0,0.6-0.6c-8.4-12.9-23.2-24-43.5-32.8
		c-25.8-10.2-55.7-10.8-89.6-0.9l-44.7,13.5c-11.9,3.2-21.2,5.3-27,5.8c-11,0.9-20-0.6-27.6-4.4C36.7,319,30.3,305,31.8,284.5
		c2.3-19.3,9.9-40.9,22.9-65.2c16.8-28.1,33.9-49.1,51.3-63.2c8.4-5.8,14.8-8.5,18.9-7.9c1.5,0.3,2.6,1.2,3.8,2.9
		c0.6,1.8,0.3,2.6-0.3,3.2c-3.5,0.6-6.7,2-9.6,5.3c-2.6,2.6-4.4,5.6-4.9,9.1c-0.9,4.4-0.3,7.3,1.5,9.1c1.5,1.2,2.9,2,4.4,2
		c9-1.5,14.2-7.9,16.8-20.2c1.7-8.8,0-15.2-5.2-19c-4.9-3.8-13.3-4.4-24.9-1.2C88.6,145,71.8,156.4,55.3,173.1L55.3,173.1z"/>
</g>
</svg>
