<?xml version="1.0" encoding="utf-8"?>
<!-- Generator: Adobe Illustrator 18.1.1, SVG Export Plug-In . SVG Version: 6.00 Build 0)  -->
<svg version="1.1" id="Layer_1" xmlns="http://www.w3.org/2000/svg" xmlns:xlink="http://www.w3.org/1999/xlink" x="0px" y="0px"
	 viewBox="0 0 640 480" enable-background="new 0 0 640 480" xml:space="preserve">
<path fill="#231F20" d="M444.9,8.3c9.6-2.5,19.5-3.4,29.5-3.2c6.2,0.3,12.4,1.4,18.5,2.3c12.8,3,25.5,7.2,37.1,13.6
	c6.6,3.3,12.5,7.6,18.5,11.9c4.5,3.5,8.7,7.5,13,11.2c6.1,5.8,11.5,12.4,16.6,19.1c3.3,5.2,6.8,10.3,9.8,15.7
	c6.9,13.1,11.8,27.5,13.6,42.3c1.3,5.7,1,11.5,1,17.3c-0.2,6.9-1.2,13.7-3,20.4c-2.7,12.5-8.6,24.3-16.5,34.3
	c-3.4,3.7-6.5,7.7-10.2,10.9c-9,8-19.5,14.3-30.9,18.1c-4.5,1.4-8.9,2.8-13.4,3.7c-8.5,1.2-17,2.5-25.6,1.9
	c-7.1-0.3-14.1-1.8-21.2-2.7c0,3.6,2,6.7,3.2,10c4.9,12.7,8.2,26.1,10,39.6c0.9,6.2,1.3,12.5,1.1,18.8c-0.1,6.9,0.3,13.7-0.3,20.6
	c-1,10.4-2.8,20.7-5.5,30.7c-2.9,10.7-7.1,20.9-11.6,30.9c-1.3,3.5-2.9,7-5.2,10c-5.4,8.7-11.1,17.4-17.7,25.3
	c-5.1,6.3-11.1,12-16.8,17.7c-12.4,11-26.1,20.8-41.1,27.9c-15.5,7.8-32.2,13.1-49.3,15.9c-6.5,0.8-12.9,2.1-19.4,2.6
	c-6.3-0.1-12.5-0.2-18.8,0.1c-15.1-1.7-30.2-3.9-44.6-8.6c-12-3.8-23.5-9.2-34.5-15.3c-10.3-6-19.9-13-28.9-20.8
	c-3.1-2.6-5.7-5.6-8.6-8.4c-7.6-7.2-14-15.6-20-24.2c-7-9.9-12.5-20.7-17.3-31.8c-6.1-14.2-10-29.3-12-44.5
	c-1.2-6.9-1.4-13.9-1.4-20.9c0-8.5-0.2-17.1,1.2-25.5c2-15.7,5.9-31.3,12.3-45.8c0.5-0.9,0.6-2,0.6-3c-3.8-0.2-7.3,1.3-11,1.6
	c-14.7,1.5-29.8,0.9-44-3.6c-13.2-3.7-25.4-10.6-35.5-19.8c-3.9-3.6-7.2-7.7-10.7-11.7c-4.9-6.8-9.3-13.9-12.1-21.8
	c-2.6-5.9-3.9-12.3-5.2-18.6c-0.8-4-0.9-8.1-1.2-12.1c-0.1-7.6-0.1-15.2,1.6-22.6c1.5-10,4.9-19.6,8.7-29c3.7-8.9,9-17.1,14.4-25
	c4.2-5.3,8.2-10.7,13.1-15.4c2.6-2.9,5.6-5.3,8.5-7.8c15-13.7,33.4-23.6,52.9-29.3c7.9-2.1,15.8-4.1,24-4.4
	c4.6-0.5,9.3-0.7,13.9-0.3c4.6,0.4,9.2,0.2,13.7,1.4c2.7,0.7,5.4,1.2,8.1,1.7c16.8,4.6,32.7,13.3,44.4,26.4c2.8,3.1,5.7,6.1,7.9,9.7
	c3.4,5.4,7,10.9,9.1,17c7.9,19.3,8.7,41.1,4,61.3c-0.6,2.1-1.1,4.3-0.9,6.5c3,0.1,5.6-1.5,8.4-2.2c6.8-2.1,13.8-3.6,20.8-5
	c7.5-1,15-2.3,22.7-2.2c9.7,0.1,19.4-0.5,29,1.2c12.2,1.4,24.2,4.4,35.9,8.5c0.8,0.1,1.5,0,2.3-0.1c-0.1-3.8-1.6-7.4-2.3-11.1
	c-0.9-5-1.5-10-2.1-15.1c-0.3-6.5-0.2-13.1,0.9-19.5c0.8-7.1,2.4-14.1,5-20.7c1.4-3.6,2.6-7.2,4.6-10.6c3.2-5.5,6.5-11.1,10.8-15.8
	c7.7-9.1,17.1-16.7,27.8-21.9C431.1,12.7,437.8,9.6,444.9,8.3"/>
</svg>
