<?xml version="1.0" encoding="utf-8"?>
<!-- Generator: Adobe Illustrator 19.1.1, SVG Export Plug-In . SVG Version: 6.00 Build 0)  -->
<svg version="1.1" id="Layer_1" xmlns="http://www.w3.org/2000/svg" xmlns:xlink="http://www.w3.org/1999/xlink" x="0px" y="0px"
	 viewBox="220 -140 640 480" style="enable-background:new 220 -140 640 480;" xml:space="preserve">
<style type="text/css">
	.st0{fill:#E53238;}
	.st1{fill:#0064D2;}
	.st2{fill:#F5AF02;}
	.st3{fill:#86B817;}
</style>
<g>
	<path id="e" class="st0" d="M312,27.1c-43.7,0-80,18.5-80,74.4c0,44.3,24.5,72.2,81.2,72.2c66.8,0,71-44,71-44h-32.3
		c0,0-6.9,23.7-40.7,23.7c-27.5,0-47.2-18.6-47.2-44.6h123.6V92.5C387.6,66.7,371.3,27.1,312,27.1z M310.9,47.9c26.1,0,44,16,44,40
		h-90.2C264.7,62.5,288,47.9,310.9,47.9z"/>
	<path id="b" class="st1" d="M387.6-27v172.6c0,9.8-0.7,23.6-0.7,23.6h30.8c0,0,1.1-9.9,1.1-18.9c0,0,15.2,23.8,56.7,23.8
		c43.6,0,73.3-30.3,73.3-73.7c0-40.4-27.2-72.9-73.2-72.9c-43.1,0-56.4,23.3-56.4,23.3V-27H387.6z M467.6,48.8
		c29.6,0,48.5,22,48.5,51.5c0,31.7-21.8,52.4-48.3,52.4c-31.6,0-48.7-24.7-48.7-52.1C419.1,75.1,434.4,48.8,467.6,48.8z"/>
	<path id="a" class="st2" d="M625.5,27.1c-65.7,0-69.9,36-69.9,41.7h32.7c0,0,1.7-21,35-21c21.6,0,38.3,9.9,38.3,28.9v6.8h-38.3
		c-50.9,0-77.8,14.9-77.8,45.1c0,29.7,24.9,45.9,58.5,45.9c45.8,0,60.5-25.3,60.5-25.3c0,10.1,0.8,20,0.8,20h29.1
		c0,0-1.1-12.3-1.1-20.2V81C693.1,36.4,657.2,27.1,625.5,27.1L625.5,27.1z M661.5,103.7v9c0,11.8-7.3,41-50,41
		c-23.4,0-33.4-11.7-33.4-25.2C578.1,103.9,611.9,103.7,661.5,103.7L661.5,103.7z"/>
	<path id="y" class="st3" d="M675.5,32.7h36.8l52.8,105.8l52.7-105.8h33.3L755.1,221h-35l27.7-52.5L675.5,32.7z"/>
</g>
</svg>
