<?xml version="1.0" encoding="utf-8"?>
<!-- Generator: Adobe Illustrator 21.1.0, SVG Export Plug-In . SVG Version: 6.00 Build 0)  -->
<svg version="1.1" id="Layer_1" xmlns="http://www.w3.org/2000/svg" xmlns:xlink="http://www.w3.org/1999/xlink" x="0px" y="0px"
	 viewBox="0 0 640 480" style="enable-background:new 0 0 640 480;" xml:space="preserve">
<style type="text/css">
	.st0{fill:#CF4037;}
	.st1{fill:#FFFFFF;}
</style>
<g>
	<ellipse class="st0" cx="414.1" cy="220.5" rx="72.8" ry="69.4"/>
	<path class="st0" d="M10.7,155.7h112v30.2H52.4v18.7h70.3v30.3H52.4v18.7h70.3v30.3h-112c2.3-11.3,1.8-18.7,1.8-25.2v-79.1
		C12.6,172.6,12.6,163.2,10.7,155.7z M133.1,283.7c4.1-5.1,57.3-74.1,57.3-74.1s-54.7-53.1-57-54h54.2l25.3,24.4l35.7-47.4h44
		c-2.8,2.6-55.9,71-55.9,71l22,21.7l49.8-66.1h44.3c-4.3,3.7-70.1,89.5-70.1,89.5s101.9,97.5,104.2,98.9h-54.5l-71.7-69.7l-40,52.8
		h-43.6c4.1-3.6,59.5-76.2,59.5-76.2l-22-21.5l-38.9,50.8L133.1,283.7L133.1,283.7z M504.3,155.8h41.8l49.2,67.6l-0.1-48.7
		c-0.2-6-0.2-14.6-1.1-19h35.2c-0.4,5.6-1.3,13.4-1.1,19v109.2h-40L539,215.8v46.8c-0.1,9.7,1.1,17.8,1.8,21.3h-36
		c0.7-2.8,1.4-14.6,1.4-21.3v-85.4C505.7,169.4,505.2,160.4,504.3,155.8z"/>
	<path class="st1" d="M414.1,259.5c-18.7-0.7-34.8-18.1-34.8-39.1c0-21.4,15.6-38.8,34.8-38.8s34.8,17.4,34.8,38.8
		C448.8,241.8,433.3,259.5,414.1,259.5L414.1,259.5z"/>
</g>
</svg>
