<?xml version="1.0" encoding="utf-8"?>
<!-- Generator: Adobe Illustrator 19.1.1, SVG Export Plug-In . SVG Version: 6.00 Build 0)  -->
<svg version="1.1" id="Layer_1" xmlns="http://www.w3.org/2000/svg" xmlns:xlink="http://www.w3.org/1999/xlink" x="0px" y="0px"
	 viewBox="220 -140 640 480" style="enable-background:new 220 -140 640 480;" xml:space="preserve">
<style type="text/css">
	.st0{fill:#3D5A98;}
	.st1{fill:#FFFFFF;}
</style>
<g>
	<path class="st0" d="M722.2,305c12.6,0,22.8-10.2,22.8-22.8V-85.2c0-12.6-10.2-22.8-22.8-22.8H354.8c-12.6,0-22.8,10.2-22.8,22.8
		v367.4c0,12.6,10.2,22.8,22.8,22.8H722.2z"/>
	<path class="st1" d="M617,305V145.1h53.7l8-62.3H617V42.9c0-18,5-30.3,30.9-30.3l33,0v-55.7c-5.7-0.8-25.3-2.5-48.1-2.5
		c-47.6,0-80.2,29-80.2,82.4v46h-53.8v62.3h53.8V305H617z"/>
</g>
</svg>
