<?xml version="1.0" encoding="utf-8"?>
<!-- Generator: Adobe Illustrator 21.1.0, SVG Export Plug-In . SVG Version: 6.00 Build 0)  -->
<svg version="1.1" id="Layer_1" xmlns="http://www.w3.org/2000/svg" xmlns:xlink="http://www.w3.org/1999/xlink" x="0px" y="0px"
	 viewBox="0 0 640 480" style="enable-background:new 0 0 640 480;" xml:space="preserve">
<style type="text/css">
	.st0{fill:#0079C1;}
</style>
<g>
	<path class="st0" d="M432.1,98.9c-9.4-41-32.9-74.3-36.1-79.8c-5.1,7.7-23.8,37.1-33.4,69.8c-10.3,36.4-11.8,68.7-8.3,100.5
		s17,64.5,17,64.5c7.1,17.2,17.9,35.5,24.8,44.6c10.2-13.3,33.7-52.9,41.1-104.6C441.2,165.1,441.3,139.9,432.1,98.9z M396,288.3
		c-4.6-8.7-11.7-25.2-12.5-50.7c-0.2-24.7,9.7-45.8,12.6-50.2c2.6,4.4,11.1,22.8,12.2,48C408.9,260,400.7,279.4,396,288.3L396,288.3
		z M429.3,168.5c-0.3,15.6-2.1,32.1-4.6,42c0.9-17-1.1-41-5.1-59.7c-3.9-18.7-14.9-50-23.8-64.5c-8.2,13.8-18.2,40.8-23.5,64.3
		c-5.2,23.5-5.4,51.9-5.4,60.4c-1.4-7.2-4.9-32.8-3.9-58.5c0.8-21.2,5.7-43,8.5-53.1c10.4-33.5,22.2-54.9,24.3-58.3
		c2.2,3.4,17.1,29.8,24.7,57.5C428.2,126.3,429.7,152.9,429.3,168.5"/>
	<path class="st0" d="M411.8,308h-71.2v47.8c0.1-0.1,0.2-0.1,0.2-0.2c16.8-16.8,44-16.8,60.8,0c16.8,16.8,16.8,44,0,60.8
		c-0.1,0.1-0.1,0.1-0.2,0.2v0c-0.1,0.1-0.2,0.1-0.3,0.2c-16.6,16.6-38.6,24.9-60.5,24.9c-22,0-43.9-8.4-60.7-25.1
		c-29.5-29.5-33-75.2-10.5-108.6c3.1-4.5,6.5-8.8,10.5-12.8c16.8-16.8,38.7-25.1,60.7-25.1V155.2c-84.4,0-152.8,68.4-152.8,152.8
		c0,84.4,68.4,152.8,152.8,152.8c44,0,83.7-18.6,111.5-48.4V308H411.8"/>
</g>
</svg>
