<?xml version="1.0" encoding="utf-8"?>
<!-- Generator: Adobe Illustrator 19.1.1, SVG Export Plug-In . SVG Version: 6.00 Build 0)  -->
<svg version="1.1" id="Layer_1" xmlns="http://www.w3.org/2000/svg" xmlns:xlink="http://www.w3.org/1999/xlink" x="0px" y="0px"
	 viewBox="220 -140 640 480" style="enable-background:new 220 -140 640 480;" xml:space="preserve">
<style type="text/css">
	.st0{fill:#3A73B8;}
</style>
<g id="_x23_3a73b8ff">
	<path class="st0" d="M518.4-125.4c44.1-3.4,89.1,6.9,127.4,29.1c30.6,17.7,57.1,42.6,76.3,72.3c23.8,36.3,36.4,79.9,36,123.3
		c-0.3,45.4-14.7,90.6-41.1,127.6c-26.8,37.9-65.7,67.1-109.7,82.1c-39,13.5-81.8,15.6-122.1,6.6c-42.2-9.4-81.5-31.6-111.5-62.8
		c-31.8-32.9-53.3-75.8-59.9-121.2c-6.5-40.4-1.1-82.6,14.7-120.3c14.7-35.1,38.5-66.2,68.4-89.6
		C431.5-105.7,474.4-122.3,518.4-125.4 M518.4-114.7c-26.2,1.9-52,8.9-75.7,20.2C404.6-76.1,372-46.2,350.9-9.5
		c-31.5,52.9-37.6,119.9-16.9,177.8c13.2,37.7,37.4,71.3,68.7,96.1c36.3,28.8,82.3,45.4,128.7,45.8c33.9,0.7,67.9-7,98.2-22.2
		c38.5-19.1,70.9-50.3,91.6-87.9c20.7-37.4,29.8-81.2,25.1-123.7c-6.1-69-49.2-132.9-110-165.7C600.5-109,559-118,518.4-114.7z"/>
	<path class="st0" d="M480.8-94.4c37.1-10.4,77.3-9.9,114.1,1.9c1.6,0.5,2.8,1.7,4.1,2.7c-6.1-0.4-11.6-3.2-17.6-4.2
		c-15-3-30.6-4.5-45.8-2.2c-9.5,1.7-19.5,5.4-25.6,13.4c-4.6,5.9-5,15.2,0.2,20.8c5.9,6.2,16.3,5.9,22.8,0.9
		c7.7-5.6,15.1-12.3,24.7-14.4c19.5-4.8,39.9-0.9,58.7,4.7c22.6,6.2,44,17.3,61.4,33.2c28.9,25.6,46.3,62.3,52.9,99.9
		c5.8,32.1,4,65.7-5.9,96.8c-0.4,1.5-1.3,2.3-2.8,2.5c5.8-21.2,10.1-43.7,5.8-65.6c-2.3-10.6-7.5-22.5-18.6-26.1
		c-8.5-3-18.9,2.8-19.6,12.1c-1.6,9.9,6.5,17,11.5,24.4c10.8,15.5,9.5,35.7,6.8,53.5c-5,24.1-13,48.1-27.6,68.2
		c-22.6,32.4-58.5,53.7-96.5,62.9c-33,7.9-68,7.8-100.9-0.3c-4.3-1.3-9.3-1.9-12.6-5.2c6.3,0,12.1,2.7,18.2,3.7
		c16.8,3.1,34.3,4.9,51.1,0.7c7.6-2.1,15.3-5.7,20.1-12.2c4.4-6.1,4.3-15.4-1.1-20.8c-4.7-5-12.6-6-18.6-2.9
		c-7.2,3.9-12.6,10.3-19.9,13.9c-14.7,7.2-31.8,6.1-47.6,3.5c-26.1-5.1-51.8-14.6-72.8-31.2c-27.9-21.4-47.2-52.7-56.7-86.4
		c-10-35.3-10.1-73.2-0.9-108.6c1.6-3.7,1-9.5,5.2-11.2c-5.3,20.3-9.6,41.5-6.3,62.5c1.6,9.3,4.9,19.2,12.6,25.2
		c5.3,4.4,13.7,6,19.6,1.8c6.3-3.7,8.4-12.4,5.5-18.9c-3.1-7.3-9.3-12.6-12.9-19.6c-7.7-14.1-6.9-31-4.8-46.5
		c4.3-24.8,12.7-49.3,27.4-70C410-63,444.2-84.5,480.8-94.4 M485.8-19.1c-12.1,6.5-20.4,18.2-26.5,30.2
		c-6.5,12.4-9.1,26.2-10.4,39.9c-6-0.8-10.8-5.4-12.2-11.2c-2.8-8.5,0.2-17.2,1.7-25.6c0.7-2.4-1.2-4.4-2.2-6.4
		c-5.1-0.3-10.3,2.2-12.6,6.8c-6.9,12.9-6.3,30.4,3.3,41.8c5.5,6.9,14.1,10.4,22.7,11.3c2.9,8.9,8.6,17.7,17.7,21.2
		c11.2,4.5,23.4-0.2,33.1-6.1c-0.4,3.6-0.5,7.3-1.8,10.7c-3.4,2.7-7.6,4.3-11.4,6.5c-18.7,9.9-37.8,19.8-53.5,34.1
		c-11.5,10.8-20.5,25.1-22.2,40.9c-0.8,12.5,4.1,26.1,15,33c11.4,7.6,26.4,7.1,38.9,2.4c15.7-6,27.4-19.3,35.1-33.8
		c11.4-20.5,13.4-44.5,15-67.5c0.5-2.7-0.1-6.5,3.1-7.7c18.7-10.5,36.8-21.9,54.1-34.5c2.1,2.5,4.1,5.1,6,7.7
		c-8.9,5.3-17.8,11.1-24.6,19.1c-25.2,27.6-25.6,74.9,0.8,101.8c13.5,14.2,34.3,20.3,53.5,17.5c17.7-2.5,33.7-13.6,42.7-29
		c11.9-19.6,9.9-47-5.5-64.2c-14.5-16-42.6-15.7-56.7,0.6c-11.1,11.7-11.5,32.4,0.1,43.8c4.7,4.7,12.9,7.5,18.8,3.5
		c3.8-2.7,3.4-8.6,0.4-11.8c-4-4.8-8.7-10.3-7.5-17c1.2-8.7,10.9-14,19.1-12.2c7,1.1,12.6,6.6,15.2,13c6.1,14.6,2.7,32.8-8.4,44.1
		c-11.7,12.2-32,14.1-46.2,5.1c-12.5-7.7-19.7-22-21.9-36.2c-2.3-17.1,1-35.6,11.6-49.5c6.8-8.8,16.4-16.1,27.3-18.7
		c9.2,0.7,18.8,2.4,27.8-0.6c4.2-1.4,8.4-6.2,6.2-10.8c-2.3-4.8-8.1-6.2-12.9-7.2c-7.1-1.4-14.2,0.5-21.2,1.8
		c-4.9-1.7-7.5-6.8-9.3-11.3c13.6-10.1,27-21.1,36.2-35.5c5.3-8.7,8.8-19.3,6.3-29.5c-2-6.7-7.5-12.5-14.6-13.7
		c-11.8-3-23.8,3-31.8,11.4C571.7,3,565.2,22.3,565.8,41.2c-0.2,3.9,1.3,8,0.2,11.7c-9.6,7.8-20.4,14-30.7,20.7
		c-6,3.5-11.6,7.4-18,10.2c0.1-6,0.4-12.1,2.1-17.9c4.6-6.2,10.3-11.6,13.9-18.6c2.6-4.8,5.1-10.8,2.4-16.1
		c-2.5-3.9-8.1-3.5-11.8-1.6c-7.8,3.9-12.1,12.2-15.2,19.9c-2.2,5-2.4,11.1-7,14.6c-6.4,5.6-14.2,11.3-23.1,10.9
		c-5.1,0-8.5-4.8-9.6-9.3c14.1-5.5,25.9-15.7,35.5-27.3c8.8-11.4,15.9-24.8,17.1-39.4c0.7-7.3-2-15.6-8.7-19.5
		C504.5-24.8,494-23.5,485.8-19.1z"/>
	<path class="st0" d="M493.9-5.7c3.3-2.5,8.7-1.4,10.3,2.6c1.2,4.9-0.6,10-2.7,14.4c-6,12.2-14.9,22.8-25.1,31.7
		c-2.5,2.3-5.5,4.1-8.6,5.5c0.4-10.9,4.1-21.3,8.8-31.1C480.8,8.7,485.7-0.1,493.9-5.7z"/>
	<path class="st0" d="M599.5-1.4c2.9-3.3,7.9-6.7,12.3-4.4c4.9,2.9,2.3,9.3,0.4,13.3c-6.7,12.3-16.6,22.7-27.4,31.6
		C584.7,24.4,589.9,9.7,599.5-1.4z"/>
	<path class="st0" d="M454.9,140.4c12.6-10.6,26.6-19.7,41.5-26.6c-1.6,16.5-5.5,32.9-11.7,48.3c-5.4,12.4-13.3,25.2-26.5,30.2
		c-6.8,2.6-15.7,4.2-21.7-1.2c-5.6-5-5.2-13.4-3.6-20.1C436.4,158.7,445.5,148.9,454.9,140.4z"/>
</g>
</svg>
