<?xml version="1.0" encoding="utf-8"?>
<!-- Generator: Adobe Illustrator 19.1.1, SVG Export Plug-In . SVG Version: 6.00 Build 0)  -->
<svg version="1.1" id="Layer_1" xmlns="http://www.w3.org/2000/svg" xmlns:xlink="http://www.w3.org/1999/xlink" x="0px" y="0px"
	 viewBox="220 -140 640 480" style="enable-background:new 220 -140 640 480;" xml:space="preserve">
<style type="text/css">
	.st0{fill:#4885ED;}
	.st1{fill:#DB3236;}
	.st2{fill:#F4C20D;}
	.st3{fill:#3CBA54;}
</style>
<g>
	<path id="path2998" class="st0" d="M380.9,64.8h-73v21.7h51.8c-2.6,30.4-27.8,43.4-51.7,43.4c-30.5,0-57.2-24-57.2-57.7
		c0-32.8,25.4-58.1,57.3-58.1c24.6,0,39.1,15.7,39.1,15.7L362.2,14c0,0-19.5-21.7-55-21.7C262-7.7,227,30.5,227,71.7
		c0,40.4,32.9,79.8,81.4,79.8c42.6,0,73.8-29.2,73.8-72.4C382.2,70,380.9,64.8,380.9,64.8L380.9,64.8z"/>
	<path id="path3000" class="st1" d="M440.7,49.1c-30,0-51.5,23.4-51.5,50.8c0,27.7,20.8,51.6,51.8,51.6c28,0,51-21.4,51-51
		C492.1,66.6,465.4,49.1,440.7,49.1L440.7,49.1z M441,69.2c14.7,0,28.7,11.9,28.7,31.1c0,18.8-13.9,31.1-28.8,31.1
		c-16.3,0-29.2-13.1-29.2-31.2C411.8,82.4,424.5,69.2,441,69.2L441,69.2z"/>
	<path id="path3005" class="st2" d="M552.6,49.1c-30,0-51.5,23.4-51.5,50.8c0,27.7,20.8,51.6,51.8,51.6c28,0,51-21.4,51-51
		C604,66.6,577.3,49.1,552.6,49.1L552.6,49.1z M552.9,69.2c14.7,0,28.7,11.9,28.7,31.1c0,18.8-13.9,31.1-28.8,31.1
		c-16.3,0-29.2-13.1-29.2-31.2C523.7,82.4,536.4,69.2,552.9,69.2L552.9,69.2z"/>
	<path id="path3007" class="st0" d="M662.4,49.1c-27.5,0-49.1,24.1-49.1,51.1c0,30.8,25.1,51.2,48.7,51.2c14.6,0,22.3-5.8,28.1-12.4
		v10.1c0,17.7-10.7,28.2-26.9,28.2c-15.6,0-23.5-11.6-26.2-18.2l-19.7,8.2c7,14.8,21,30.1,46,30.1c27.4,0,48.2-17.2,48.2-53.4v-92
		H690v8.7C683.4,53.8,674.4,49.1,662.4,49.1L662.4,49.1z M664.4,69.2c13.5,0,27.3,11.5,27.3,31.2c0,20-13.8,31-27.6,31
		c-14.7,0-28.3-11.9-28.3-30.8C635.8,80.9,650,69.2,664.4,69.2L664.4,69.2z"/>
	<path id="path3011" class="st1" d="M806.9,49c-26,0-47.7,20.6-47.7,51.1c0,32.2,24.3,51.4,50.2,51.4c21.7,0,34.9-11.8,42.9-22.5
		l-17.7-11.8c-4.6,7.1-12.3,14.1-25.1,14.1c-14.4,0-21-7.9-25.1-15.5L853,87.4l-3.6-8.3C842.8,62.7,827.3,49,806.9,49L806.9,49z
		 M807.8,68.7c9.4,0,16.1,5,18.9,10.9l-45.8,19.2C778.9,84,793,68.7,807.8,68.7L807.8,68.7z"/>
	<path id="path3015" class="st3" d="M726.4,148.5H749V-2.4h-22.5V148.5z"/>
</g>
</svg>
