<?xml version="1.0" encoding="utf-8"?>
<!-- Generator: Adobe Illustrator 21.1.0, SVG Export Plug-In . SVG Version: 6.00 Build 0)  -->
<svg version="1.1" id="Layer_1" xmlns="http://www.w3.org/2000/svg" xmlns:xlink="http://www.w3.org/1999/xlink" x="0px" y="0px"
	 viewBox="0 0 640 480" style="enable-background:new 0 0 640 480;" xml:space="preserve">
<style type="text/css">
	.st0{fill:#015294;}
</style>
<path class="st0" d="M319.3,32.7c6.2,0,12.4-1.4,18.5-0.1c27.2,2.4,54,9.9,78.2,22.6c31.3,16,58.2,40.4,77.8,69.6
	c19.9,29.7,31.7,64.7,34.4,100.4c-0.4,9.4-0.7,18.9,0.2,28.3c-1.9,27.1-8.7,54-20.8,78.4c-13.8,28.4-34.2,53.5-59.1,72.9
	c-31,24.3-69,39.5-108.3,43.1c-6,0.4-11.9,1.5-18,1.1c-4-0.3-8.1,1-11.9-0.6c14.7-41.2,29.3-82.5,44.1-123.7
	c16.1-0.3,32.2,0.1,48.3-0.2c10.3-0.4,20.4-6.6,23.8-16.6c13.6-38.3,27.6-76.5,40.7-115c2.2-5.8,3.4-12.3,1.6-18.4
	c-2.3-7.7-9.4-13.2-17-15.2c-6.6-2-13.5-1.3-20.3-1.4c-20.7-0.1-41.3,0.1-62-0.1c-0.3,0.7-1,2.1-1.3,2.7
	c-33.4,93.9-66.8,187.9-100.4,281.8c-34.5-8.9-66.6-26.9-92.2-51.6c-30.9-29.5-52.3-68.8-60.2-110.8c-2.5-12.6-3.4-25.4-4.1-38.2
	c0.6-26.7,4.9-53.4,15-78.2c24.5-62.6,81.2-111.9,147.1-126c-33.7,93.5-66.7,187.3-100.4,280.9c2.2,0.7,4.4,0.4,6.6,0.4
	c12.3-0.1,24.6,0,36.9,0c1.7,0,1.5-2.3,2.2-3.4c14.8-41.8,29.8-83.6,44.6-125.3c0.9-2.6,1.7-5.2,2.9-7.7c7.7,0.1,15.4,0,23.1,0.1
	c-16.2,45.3-32.2,90.7-48.5,135.9c1.7,0.7,3.6,0.5,5.4,0.5c12.9-0.1,25.8,0.1,38.7-0.1c14.6-41.2,29.3-82.2,44-123.4
	c3.1-8.4,3.4-18.4-1.6-26.1c-4.3-6.9-12.6-10.1-20.4-10.5c-10.7-0.3-21.5,0-32.3-0.2C289.5,116.5,304.7,74.7,319.3,32.7z"/>
<path class="st0" d="M405,182.7c1.3-1.4,3.6-0.6,5.3-0.8c6,0.1,11.9,0,17.9,0.1c-13.9,39.7-28.4,79.1-42.1,118.8
	c-7.7,0.5-15.5,0.2-23.2,0.2C376.9,261.6,390.9,222.1,405,182.7L405,182.7z"/>
</svg>
