<?xml version="1.0" encoding="utf-8"?>
<!-- Generator: Adobe Illustrator 19.1.1, SVG Export Plug-In . SVG Version: 6.00 Build 0)  -->
<svg version="1.1" id="Layer_1" xmlns="http://www.w3.org/2000/svg" xmlns:xlink="http://www.w3.org/1999/xlink" x="0px" y="0px"
	 viewBox="220 -140 640 480" style="enable-background:new 220 -140 640 480;" xml:space="preserve">
<style type="text/css">
	.st0{fill:#1F70C1;}
</style>
<path class="st0" d="M241.4-24.6v16.4h116.7v-16.4H241.4z M374.7-24.6v16.4H541c0,0-17-16.4-39.5-16.4H374.7z M573.6-24.6v16.4
	h100.6l-6-16.4H573.6z M746.4-24.6l-6,16.4h99.7v-16.4H746.4z M241.4,7.3v16.4h116.7V7.3H241.4z M374.7,7.3v16.4h185.7
	c0,0-2.2-12.6-6-16.4H374.7z M573.6,7.3v16.4h111.7l-5.5-16.4H573.6z M734.5,7.3L729,23.7h111.2V7.3H734.5z M274.9,39.2v16.4h50.6
	V39.2H274.9z M408.2,39.2v16.4h50.6V39.2H408.2z M507.9,39.2v16.4h50.6c0,0,3.2-8.7,3.2-16.4H507.9z M607.2,39.2v16.4h89.6l-6-16.4
	H607.2z M723.5,39.2l-6,16.4h90.1V39.2H723.5z M274.9,71.1v16.4h50.6V71.1H274.9z M408.2,71.1v16.4h129.1c0,0,10.8-8.4,14.2-16.4
	H408.2z M607.2,71.1v16.4h50.5v-9.1l3.2,9.1h92.6l3.4-9.1v9.1h50.5V71.1h-94.9l-5,13.9l-5.1-13.9H607.2z M274.9,103.1v16.4h50.6
	v-16.4H274.9z M408.2,103.1v16.4h143.4c-3.4-8-14.2-16.4-14.2-16.4H408.2z M607.2,103.1v16.4h50.5v-16.4H607.2z M666.9,103.1
	l6.1,16.4h69.4l5.8-16.4H666.9z M757,103.1v16.4h50.5v-16.4H757z M274.9,135v16.4h50.6V135H274.9z M408.2,135v16.4h50.6V135H408.2z
	 M507.9,135v16.4h53.8c0-7.7-3.2-16.4-3.2-16.4H507.9z M607.2,135v16.4h50.5V135H607.2z M678.4,135l5.9,16.4h46.5l6-16.4H678.4z
	 M757,135v16.4h50.5V135H757z M242.3,166.9v16.4H359v-16.4H242.3z M374.7,166.9v16.4h179.7c3.8-3.8,6-16.4,6-16.4H374.7z
	 M574.6,166.9v16.4h83.2v-16.4H574.6z M689.9,166.9l6.1,16.4h23.7l5.7-16.4H689.9z M757,166.9v16.4h84.1v-16.4H757z M242.3,198.8
	v16.4H359v-16.4H242.3z M374.7,198.8v16.4h126.9c22.5,0,39.5-16.4,39.5-16.4H374.7z M574.6,198.8v16.4h83.2v-16.4H574.6z
	 M701.5,198.8l5.9,16.4l1,0l6-16.4H701.5z M757,198.8v16.4h84.1v-16.4H757z"/>
</svg>
