<?xml version="1.0" encoding="utf-8"?>
<!-- Generator: Adobe Illustrator 19.1.1, SVG Export Plug-In . SVG Version: 6.00 Build 0)  -->
<svg version="1.1" id="Layer_2" xmlns="http://www.w3.org/2000/svg" xmlns:xlink="http://www.w3.org/1999/xlink" x="0px" y="0px"
	 viewBox="0 0 640 480" style="enable-background:new 0 0 640 480;" xml:space="preserve">
<style type="text/css">
	.st0{fill:#127CC1;}
	.st1{font-family:'ArialMT';}
	.st2{font-size:29.1697px;}
</style>
<path id="path6" class="st0" d="M625.3,151.8c-28.9-141.1-302-150.1-478-42.5v11.9C323.1,30.4,572.5,31,595.2,161
	c7.6,43.1-16.4,87.8-59.6,113.6v33.7C587.5,289.2,640.7,227.5,625.3,151.8 M305.2,398.9c-121.5,11.2-248-6.5-265.8-101.7
	c-8.8-46.9,12.6-96.7,40.9-127.6v-16.5c-51,44.8-78.6,101.6-62.6,168.6c20.4,86,129,134.6,294.8,118.4
	c65.7-6.3,151.6-27.6,211.2-60.5v-46.8C469.5,365.1,379.9,392,305.2,398.9z"/>
<path id="path8" class="st0" d="M514,131.4h-31.8v142.5c0,16.7,8,31.3,31.8,33.6"/>
<path id="path10" class="st0" d="M134.7,183.5h-31.8v93c0,16.7,8,31.3,31.8,33.6"/>
<rect id="rect12" x="102.8" y="135.7" class="st0" width="31.8" height="30.3"/>
<path id="path14" class="st0" d="M325.5,308.6c-25.8,0-36.7-18-36.7-35.8V149.2h31.5v34.2h23.9v25.6h-23.9v61.8
	c0,7.3,3.5,11.3,11,11.3h12.9v26.4H325.5"/>
<path id="path16" class="st0" d="M409.2,207.5c-10.8,0-19.1,5.6-22.6,13.2c-2.1,4.6-2.8,8-3.1,13.6h48.8
	C431.6,220.6,425.4,207.5,409.2,207.5 M383.5,255.9c0,16.2,10.2,28.2,28,28.2c14,0,21-3.9,29.1-11.9l19.5,18.8
	c-12.5,12.3-25.6,19.9-48.8,19.9c-30.2,0-59.2-16.6-59.2-64.8c0-41.3,25.2-64.6,58.5-64.6c33.7,0,53,27.3,53,63.1v11.4L383.5,255.9"
	/>
<path id="path18" class="st0" d="M220.5,209.1c9.3,0,13.1,4.6,13.1,12v87.7h31.6V221c0-17.8-9.5-37.5-37.2-37.5h-65.2v125.3h31.5
	v-99.7"/>
<text transform="matrix(1.0217 0 0 1 532.0449 152.2202)" class="st0 st1 st2">®</text>
</svg>
