<?xml version="1.0" encoding="utf-8"?>
<!-- Generator: Adobe Illustrator 21.1.0, SVG Export Plug-In . SVG Version: 6.00 Build 0)  -->
<svg version="1.1"
	 id="svg17847" xmlns:cc="http://creativecommons.org/ns#" xmlns:dc="http://purl.org/dc/elements/1.1/" xmlns:rdf="http://www.w3.org/1999/02/22-rdf-syntax-ns#" xmlns:svg="http://www.w3.org/2000/svg"
	 xmlns="http://www.w3.org/2000/svg" xmlns:xlink="http://www.w3.org/1999/xlink" x="0px" y="0px" viewBox="0 0 640 480"
	 style="enable-background:new 0 0 640 480;" xml:space="preserve">
<style type="text/css">
	.st0{fill:#D51900;}
</style>
<g>
	<path id="Fill-1" class="st0" d="M461.9,92.8c0-1.9,1.3-2.9,2.9-2.9c2.7,0,6.9,2.9,9.2,8.8c-0.8,0-2.1,0.3-2.9,0.3
		C466.1,98.9,461.9,96.5,461.9,92.8L461.9,92.8z M159.2,92.8c0-1.9,1.2-2.9,2.9-2.9c2.7,0,6.7,2.9,9,8.8
		C163.4,98.6,159.2,97,159.2,92.8z M217.6,62.7c0-31.2,6.1-36,8-36c3.4,0,3.8,2.1,3.8,14.1c0,12.3-5.2,28.4-11.7,37.2L217.6,62.7z
		 M430.1,93.4c-3.6,5-6.5,12.1-6.5,21.3c0,17.6,10,34.4,29.5,34.4c18.8,0,32-14.9,32-35.6c0-6-0.2-6.9-0.6-9.4
		c4.4-1.9,8.2-4.8,11.1-7.2c2.5-1.9,4.4-2.9,5.9-2.9c1.9,0,2.7,1.5,2.7,4.2v41.1c0,6.7,2.1,9.8,7.3,9.8c4.8,0,8.2-3.4,10.1-7.3
		c6.9-14.4,17-33.7,21.3-41c1.1-1.7,1.9-3,2.5-3c0.8,0,1.3,0.6,1.3,3.3v32.7c0,9.2,4.2,15.3,13.4,15.3c9.7,0,14.4-9.2,22.9-23.5
		c0.4-0.9,0.6-1.5,0.6-2.1c0-1.9-1.6-3-3.3-3c-1.9,0-2.9,1.9-9.2,8.8c-1.3,1.3-2.5,3.1-4.8,3.1c-0.8,0-1.5-1-1.5-2.3V93.6
		c0-9.8-4.4-13.8-10.1-13.8c-4.6,0-8.4,1.9-12.4,7.8c-7.1,10.5-14.4,25.4-18.4,32.9c-0.4,0.9-1,2.1-1.5,2.1c-0.4,0-0.6-0.6-0.6-2.1
		V93.6c0-7.7-2.1-13.8-10.3-13.8c-8.6,0-13,5.9-19.3,10.3c-4,3-7.5,5-10.2,6.3c-4.2-10.7-11.9-16.1-18.4-15.9
		c-6.5,0.2-11.1,4.2-11.1,10.9c0,6.9,4.2,11.7,9.8,13.8c3.1,1.3,6.1,1.5,10.3,1.5c1.3,0,2.5,0,3.3-0.2c0.4,2.1,0.2,5.1,0.2,7.4
		c0,10.3-6.1,20.5-17.4,20.5c-11.8,0-18.6-11.3-18.6-24.3c0-9.9,2.9-18,7.7-23.6c1.9-2.1,3.4-3.4,3.4-5.3c0-1-1.4-1.2-2.7-1.2
		c-8,0-16.7,3.6-22.8,6.7c-8,4.2-17.4,11.1-25.2,18c-3.8-8.4-8.4-15.7-10.7-21.4c-0.8-2.3-1.4-5-3.1-5c-1.5,0-2.1,1.5-3.2,4.3
		c-3.8,11.1-23.9,43.6-28.3,48c-0.4,0.6-1,1.3-1.2,1.3c-0.5,0-0.7-0.2-0.7-1.5V93.6c0-9.8-4-13.8-9.4-13.8c-4.6,0-8.6,1.9-12.4,7.8
		c-6.9,10.5-15.3,25.8-19.3,33.3c-0.6,1.3-1.3,1.7-1.5,1.7c-0.2,0-0.4-0.8-0.4-2.1V93.6c0-9.8-4-13.8-9.4-13.8
		c-4.6,0-9,1.7-12.6,7.8c-8.8,14.9-23.4,37.7-26.1,41.5c-0.4,0.6-0.8,1.1-1.3,1.3c-0.4,0-0.7-0.4-0.7-1.4V93.6
		c0-9.8-4-13.8-9.4-13.8c-7.6,0-11.7,6.9-14.5,11.3c-3.8,6.1-8.8,14.3-12.8,21.8c-2.7,5-5,9.6-5.9,9.6c-0.4,0-0.4-1.9-0.4-5.5V89
		c13.2-14.7,21.3-32.7,21.3-52.4c0-11.3-5-17.6-12.7-17.6c-14.5,0-25.5,22.6-25.5,49.4v21.8c-6.7,4.2-13,6.2-20.8,7.8
		c-4-11.7-12.4-17.8-19-17.6c-6.5,0.2-11.1,4.2-11.1,10.9c0,11.1,10.9,15.7,20.5,15.7h2.7c0.4,2.1,0.4,4.4,0.4,6.7
		c0,10.3-6.1,20.5-17.3,20.5c-11.7,0-18.6-11.3-18.6-24.3c0-9.9,2.9-18,7.7-23.6c1.9-2.1,3.4-4,3.4-5.3c0-1-1.5-1.2-2.7-1.2
		c-8,0-25.5,10.7-46.5,31.7c-1.9-16.8-4-33.1-4-49c0-17.8,3.5-32.9,4.4-37.3c0.4-2.7,0.7-4.4,0.7-5.6c0-1.7-0.9-2.5-3.1-2.5
		C80.2,17,43,44,43,84.4c0,28.7,10.5,42.5,28.7,60.3c-11,17.8-19.9,38.9-19.9,57.8c0,13.6,3.2,23.9,13.2,23.9
		c20.9,0,36.6-43.5,36.6-75.8c0-9.6-0.4-19.3-1.2-28.9c7.7-8.2,19.7-19.3,22.6-20.3c-1.2,4.4-2.1,9-2.1,13.4
		c0,17.6,10.1,34.4,29.5,34.4c18.2,0,32-14.9,32-35.6c0-2.7-0.2-5-0.4-7.5c6.7-1.3,12.8-3,18.6-6.5v42.1c0,5.4,3.7,7.6,7.3,7.6
		c4.8,0,7.4-3.4,10.9-11.1c3-6.3,10.9-20.7,15.7-29.4c3.8-6.7,5.9-11.1,7.6-11.1c0.4,0,0.8,1,0.8,3.5V137c0,9.6,5,12.2,9.4,12.2
		c4.2,0,6.9-2.3,9.7-6.1c10.9-15.5,22.4-33.9,27-41.9c0.8-1.4,1.9-2.5,2.7-2.5c0.8,0,1.2,0.5,1.2,3.1v37.5c0,6.7,2.1,9.8,7.4,9.8
		c4.8,0,7.9-3.4,9.8-7.3c7-14.4,17.2-33.5,21.6-41c1-1.7,2.1-3.2,2.7-3.2c0.9,0,1.1,1,1.1,3.8V137c0,9.6,5,12.2,9.5,12.2
		c5.8,0,9.6-4.2,13.4-9c6.9-9,16.9-25.1,23-35.4c2.1,3.4,4.4,7.4,6.3,11.7c-5,6.1-10.1,13-10.1,20.3c0,7.8,5.4,12.4,11.1,12.4
		c9.6,0,18.4-9.2,18.4-22c0-5-1.4-10.3-3.3-15.3C412.3,103.5,422.6,95.3,430.1,93.4L430.1,93.4z M85.2,139.1
		c1.7,11.1,3.2,22,3.2,30.6c0,20.1-6.7,43.5-18.2,43.3c-4.4,0-8.2-4.4-8.4-12.2C61.4,175.7,73.3,154.4,85.2,139.1z M390.9,124.8
		c1.3,3.6,1.9,6.5,1.9,9.4c0,3.4-1.3,6.7-3.6,6.7c-1.6,0-3.3-1.9-3.3-4.8C385.9,133,388.7,128,390.9,124.8z M92.8,24.9
		c0,1.3-2.9,7.1-6.7,17.6c-4,10.9-7.8,26.3-7.8,45c0,11.1,2.7,25.8,5.1,40.6l-6.7,9c-10.7-13-17.4-27.7-17.4-52.8
		c0-35.6,21.6-60.3,32.6-60.3C92.6,24.1,92.8,24.3,92.8,24.9z"/>
	<path class="st0" d="M593.7,357.3c-1.9,0-2.9,1.9-9.2,8.8c-1.2,1.3-2.5,3.1-4.8,3.1c-0.9,0-1.5-1-1.5-2.3v-36.7
		c0-9.8-4.4-13.8-10.1-13.8c-4.6,0-8.3,1.9-12.3,7.8c-7.1,10.5-14.4,25.4-18.4,32.9c-0.5,0.9-1.1,2.1-1.5,2.1
		c-0.4,0-0.6-0.6-0.6-2.1v-26.8c0-7.7-2.1-13.8-10.3-13.8c-8.6,0-13,5.9-19.3,10.3c-4,3-7.6,5-10.3,6.3
		c-4.1-10.7-11.9-16.1-18.4-15.9c-6.5,0.2-11.1,4.2-11.1,10.9c0,6.9,4.2,11.7,9.8,13.8c3.1,1.3,6.1,1.5,10.3,1.5
		c1.2,0,2.4,0,3.3-0.2c0.4,2.1,0.2,5.1,0.2,7.4c0,10.3-6.1,20.5-17.4,20.5c-11.7,0-18.6-11.3-18.6-24.3c0-9.9,2.9-18,7.7-23.6
		c1.9-2.1,3.4-3.4,3.4-5.3c0-1-1.5-1.2-2.7-1.2c-7.9,0-16.7,3.6-22.8,6.7c-8,4.2-17.4,11.1-25.1,18c-3.8-8.4-8.4-15.7-10.7-21.4
		c-0.9-2.3-1.4-5-3.2-5c-1.4,0-2.1,1.5-3.1,4.3c-3.8,11.1-23.9,43.6-28.3,48c-0.4,0.6-1,1.3-1.3,1.3c-0.4,0-0.6-0.2-0.6-1.5v-36.7
		c0-9.8-3.9-13.8-9.4-13.8c-4.6,0-8.5,1.9-12.3,7.8c-6.9,10.5-15.3,25.8-19.3,33.3c-0.6,1.3-1.2,1.7-1.4,1.7c-0.2,0-0.5-0.8-0.5-2.1
		v-26.8c0-9.8-3.9-13.8-9.4-13.8c-4.6,0-9,1.7-12.6,7.8c-8.8,14.9-23.5,37.7-26.2,41.5c-0.4,0.6-0.8,1.1-1.3,1.3
		c-0.4,0-0.6-0.4-0.6-1.4v-35.2c0-9.8-4-13.8-9.4-13.8c-7.6,0-11.7,6.9-14.5,11.3c-3.8,6.1-8.8,14.3-12.8,21.8c-2.7,5-5,9.6-5.9,9.6
		c-0.4,0-0.4-1.9-0.4-5.4v-28.1c13.2-14.7,21.3-32.7,21.3-52.4c0-11.3-5-17.6-12.8-17.6c-14.4,0-25.5,22.6-25.5,49.4v21.8
		c-6.7,4.2-13,6.2-20.8,7.8c-3.9-11.7-12.3-17.8-19-17.6c-6.5,0.2-11.1,4.2-11.1,10.9c0,11.1,10.9,15.7,20.5,15.7h2.7
		c0.4,2.1,0.4,4.4,0.4,6.7c0,10.3-6.1,20.5-17.4,20.5c-11.7,0-18.6-11.3-18.6-24.3c0-9.9,2.9-18,7.7-23.6c1.9-2.1,3.4-4,3.4-5.3
		c0-1-1.5-1.2-2.7-1.2c-8,0-25.5,10.7-46.5,31.7c-1.8-16.8-4-33.1-4-49c0-17.8,3.6-32.9,4.4-37.3c0.4-2.7,0.6-4.4,0.6-5.6
		c0-1.7-0.9-2.5-3.1-2.5c-17,0-54.2,27-54.2,67.4c0,16.5,3.6,28.3,9.8,38.5c-0.3-0.1-0.7-0.1-1-0.1c3.3,1.6,7.9,2.9,7.1,8.2
		c3.5,4.5,7.8,8.9,12.7,13.7c-11.1,17.8-19.9,38.9-19.9,57.8c0,13.6,3.2,23.9,13.2,23.9c20.9,0,36.6-43.5,36.6-75.8
		c0-9.6-0.4-19.3-1.2-28.9c7.8-8.2,19.7-19.3,22.6-20.3c-1.3,4.4-2.1,9-2.1,13.4c0,17.6,10.1,34.4,29.6,34.4c18.2,0,32-14.9,32-35.6
		c0-2.7-0.2-5-0.4-7.5c6.7-1.3,12.8-3,18.7-6.5v42.1c0,5.4,3.7,7.6,7.3,7.6c4.9,0,7.4-3.4,10.9-11.1c2.9-6.3,10.9-20.7,15.7-29.4
		c3.8-6.7,5.9-11.1,7.6-11.1c0.4,0,0.8,1,0.8,3.5v35.8c0,9.6,5,12.2,9.4,12.2c4.2,0,6.9-2.3,9.7-6.1c10.9-15.5,22.4-33.9,27-41.9
		c0.8-1.4,1.9-2.5,2.7-2.5c0.8,0,1.3,0.5,1.3,3.1v37.5c0,6.7,2.1,9.8,7.3,9.8c4.8,0,8-3.4,9.9-7.3c6.9-14.4,17.2-33.5,21.5-41
		c1.1-1.7,2.1-3.2,2.8-3.2c0.8,0,1,1,1,3.8v35.6c0,9.6,5,12.2,9.4,12.2c5.9,0,9.7-4.2,13.4-9c6.9-9,17-25.1,23-35.4
		c2.1,3.4,4.4,7.4,6.3,11.7c-5.1,6.1-10.1,13-10.1,20.3c0,7.8,5.4,12.4,11.1,12.4c9.6,0,18.4-9.2,18.4-22c0-5-1.5-10.3-3.3-15.3
		c8.6-8.4,18.8-16.6,26.4-18.4c-3.6,5-6.5,12.1-6.5,21.3c0,17.6,10.1,34.4,29.5,34.4c18.8,0,32-14.9,32-35.6c0-6-0.2-6.9-0.6-9.4
		c4.3-1.9,8.1-4.8,11.1-7.2c2.5-1.9,4.4-2.9,5.8-2.9c1.9,0,2.8,1.5,2.8,4.2v41.1c0,6.7,2.1,9.8,7.3,9.8c4.8,0,8.2-3.4,10.1-7.3
		c6.9-14.4,16.9-33.7,21.3-41c1-1.7,1.9-3,2.5-3c0.9,0,1.3,0.6,1.3,3.3v32.7c0,9.2,4.1,15.3,13.4,15.3c9.7,0,14.5-9.2,22.9-23.5
		c0.4-0.9,0.6-1.5,0.6-2.1C597,358.3,595.4,357.3,593.7,357.3z M484.6,335.5c-5,0-9.2-2.4-9.2-6.1c0-1.9,1.2-2.9,2.9-2.9
		c2.7,0,6.9,2.9,9.2,8.8C486.7,335.3,485.5,335.5,484.6,335.5z M172.6,329.4c0-1.9,1.3-2.9,2.9-2.9c2.7,0,6.7,2.9,9,8.8
		C176.8,335.3,172.6,333.6,172.6,329.4z M83.7,449.6c-4.4,0-8.2-4.4-8.4-12.2c-0.4-25.1,11.5-46.5,23.5-61.8
		c1.6,11.1,3.1,22,3.1,30.6C101.9,426.3,95.2,449.8,83.7,449.6z M99.5,279.2c-3.9,10.9-7.7,26.3-7.7,45c0,11.1,2.8,25.8,5.1,40.6
		l-6.7,9c-10.7-13-17.4-27.7-17.4-52.8c0-35.6,21.6-60.3,32.7-60.3c0.6,0,0.8,0.2,0.8,0.8C106.2,262.8,103.3,268.7,99.5,279.2z
		 M239,263.3c3.3,0,3.8,2.1,3.8,14.1c0,12.3-5.2,28.4-11.7,37.2l0-15.3C231.1,268.1,237.1,263.3,239,263.3z M402.8,377.6
		c-1.7,0-3.4-1.9-3.4-4.8c0-3.1,2.7-8.2,5.1-11.3c1.3,3.6,1.9,6.5,1.9,9.4C406.3,374.2,405.1,377.6,402.8,377.6z"/>
	<path class="st0" d="M360.8,227.3c-1.9-0.3-3.4-0.3-4.9-0.3c-6.7,0-13,1.7-16.9,2.5v-4.2c0-9-2.1-21.3-5.9-25.5
		c-0.4-0.4-1.1-0.6-1.7-0.6c-1.7,0-3.8,0.8-6.1,2.1c-2.5,1.3-5,2.5-5,3.3c0,0.4,0,0.8,0.6,1.9c1.5,2.1,5.5,6.3,6.9,16.2
		c-7.1-7.1-15.3-10.3-25.9-10.3c-12.6,0-16.4,5.6-16.4,11.3c0,10.9,14.4,16.3,32.7,16.3c3.3,0,7.1-0.6,10.8-1.5
		c0,3.4,0.4,6.3,0.4,8.8c0,3.6,0.6,6.3,2.9,6.3c3.5,0,5.7-7.2,6.1-17.4c6.5-1.7,13.2-3.1,18.9-3.1c2.7,0,6.1,0.4,9.4,1h0
		c0.3,0.5,0.7,0.9,1.1,1.4C368.6,230.2,364,228.9,360.8,227.3z M316.1,232.4c-8.2,0-14.2-3.2-14.2-7.7c0-2.9,1.4-4.6,5.6-4.6
		c6.7,0,12.1,4.6,18,11.9C322,232.4,319.9,232.4,316.1,232.4z"/>
</g>
</svg>
