<?xml version="1.0" encoding="utf-8"?>
<!-- Generator: Adobe Illustrator 18.1.1, SVG Export Plug-In . SVG Version: 6.00 Build 0)  -->
<svg version="1.1" id="Layer_1" xmlns="http://www.w3.org/2000/svg" xmlns:xlink="http://www.w3.org/1999/xlink" x="0px" y="0px"
	 viewBox="0 0 640 480" enable-background="new 0 0 640 480" xml:space="preserve">
<g>
	<path fill="#2E5CAE" d="M232.5,6.7c59.7-0.3,119.4-0.6,179.2-0.9c1.8,0.1,4-0.4,5.3,1.3c45.8,45,91.5,90.1,137.2,135.3
		c-106.9,0.6-213.8,1.2-320.7,1.5C233.2,98.2,232.7,52.5,232.5,6.7"/>
	<path fill="#2E5CAE" d="M86.1,142.8c44.9-45,89.8-90,135-134.8c1,106.1,1.4,212.3,2.3,318.4c-46.1,0.3-92.1,0.6-138.1,0.8
		c-0.7-60.1-1.2-120.2-1.6-180.3C83.3,145.1,85.1,144,86.1,142.8"/>
	<path fill="#2E5CAE" d="M416.2,155.3c46.1-0.6,92.2-0.5,138.4-0.8c0.2,60.6,0.7,121.1,0.8,181.7c-45.8,45.7-91.2,91.8-137.2,137.2
		C417.9,367.4,416.9,261.4,416.2,155.3"/>
	<path fill="#2E5CAE" d="M85.8,339.3c106.8-0.9,213.6-1.3,320.4-1.9c0.2,45.8,0.6,91.6,0.7,137.3c-60.9,0.3-121.7,0.7-182.6,1.1
		C178,430.5,132,384.8,85.8,339.3"/>
</g>
</svg>
