<svg xmlns="http://www.w3.org/2000/svg" viewBox="0 0 640 480"><defs><style>.cls-1{fill:none;}.cls-2{fill:#231f20;}.cls-3{fill:#e22739;}</style></defs><title>Lukoil</title><g id="Layer_2" data-name="Layer 2"><g id="Layer_8" data-name="Layer 8"><path class="cls-1" d="M0,0V480H640V0ZM130.18,304H2.5V176H130.18Zm78-17.31H152V189.79h27.13v73.63h29.06Zm96.16-39.17c0,10.38-2.22,41.94-42.63,41.94s-42.63-31.56-42.63-41.94V189.79h27.13V247c0,6,1.11,19.23,15.5,19.23S277.25,252.9,277.25,247V189.79h27.12Zm72.91,39.17L349.18,245v41.66H322.06V189.79h27.12v40.69l29.21-40.69h31.83L373.41,236.7l37.78,50Zm88.15,4c-36.25,0-53.26-25.92-53.26-52.4s17-52.4,53.26-52.4,53.25,25.92,53.25,52.4S501.69,290.7,465.43,290.7Zm96-4H534.31V189.78h27.12Zm76.07,0H581.3V189.79h27.13v73.63H637.5Z"/><path class="cls-1" d="M61.51,266.79c10.53,0,19.13-7.61,19.13-19.11V197.4c-.16-9.78-14.32-9.7-14.32,0v49.74c0,7.08-9.63,6.67-9.63,0V197.4c0-9.7-14.31-9.7-14.31,0v50.28C42.38,259,51,266.79,61.51,266.79Z"/><path class="cls-1" d="M32.71,285.83h90.18l-21.77-55.71a7,7,0,0,1,.6-6.62l14.34-23.19a9.9,9.9,0,0,0,.59-3.45,6.87,6.87,0,0,0-7.42-6.67,7.26,7.26,0,0,0-6.29,4L87.25,220a13.38,13.38,0,0,0-1.13,11.26l17.1,40.24h-66a4.65,4.65,0,0,1-4.47-4.62V197.4c-.26-9.7-14.21-9.54-14.44,0l.09,74.15A14.27,14.27,0,0,0,32.71,285.83Z"/><ellipse class="cls-1" cx="465.43" cy="238.3" rx="24.65" ry="28.6"/><polygon class="cls-2" points="179.15 189.79 152.02 189.79 152.02 286.67 208.21 286.67 208.21 263.42 179.15 263.42 179.15 189.79"/><path class="cls-2" d="M277.25,247c0,6-1.11,19.23-15.51,19.23s-15.5-13.28-15.5-19.23V189.79H219.11V247.5c0,10.38,2.22,41.94,42.63,41.94s42.63-31.56,42.63-41.94V189.79H277.25Z"/><polygon class="cls-2" points="410.22 189.79 378.39 189.79 349.18 230.47 349.18 189.79 322.06 189.79 322.06 286.67 349.18 286.67 349.18 245.01 377.28 286.67 411.19 286.67 373.41 236.7 410.22 189.79"/><rect class="cls-2" x="534.31" y="189.78" width="27.12" height="96.88"/><polygon class="cls-2" points="608.43 189.79 581.3 189.79 581.3 286.67 637.5 286.67 637.5 263.42 608.43 263.42 608.43 189.79"/><path class="cls-2" d="M465.43,185.9c-36.25,0-53.26,25.92-53.26,52.4s17,52.4,53.26,52.4,53.25-25.92,53.25-52.4S501.69,185.9,465.43,185.9Zm0,81c-12.89,0-24.65-9.48-24.65-28.6s11.76-28.6,24.65-28.6,24.64,9.48,24.64,28.6S478.31,266.9,465.43,266.9Z"/><path class="cls-3" d="M2.5,304H130.18V176H2.5ZM42.38,197.4c0-9.7,14.31-9.7,14.31,0v49.74c0,6.67,9.63,7.08,9.63,0V197.4c0-9.7,14.16-9.78,14.32,0v50.28c0,11.5-8.6,19.11-19.13,19.11S42.38,259,42.38,247.68Zm-9.67,0v69.5a4.65,4.65,0,0,0,4.47,4.62h66l-17.1-40.24A13.38,13.38,0,0,1,87.25,220l15.69-25.84a7.26,7.26,0,0,1,6.29-4,6.87,6.87,0,0,1,7.42,6.67,9.9,9.9,0,0,1-.59,3.45L101.72,223.5a7,7,0,0,0-.6,6.62l21.77,55.71H32.71a14.27,14.27,0,0,1-14.35-14.24l-.09-74.15C18.5,187.86,32.45,187.7,32.71,197.4Z"/></g></g></svg>