<?xml version="1.0" encoding="utf-8"?>
<!-- Generator: Adobe Illustrator 19.1.1, SVG Export Plug-In . SVG Version: 6.00 Build 0)  -->
<svg version="1.1" id="Layer_1" xmlns="http://www.w3.org/2000/svg" xmlns:xlink="http://www.w3.org/1999/xlink" x="0px" y="0px"
	 viewBox="0 0 640 480" style="enable-background:new 0 0 640 480;" xml:space="preserve">
<style type="text/css">
	.st0{clip-path:url(#SVGID_2_);fill:#C2302D;}
	.st1{clip-path:url(#SVGID_2_);fill:#F5AE26;}
	.st2{clip-path:url(#SVGID_2_);fill:#FFFFFF;}
</style>
<g>
	<g>
		<defs>
			<polygon id="SVGID_1_" points="5.4,0 630.1,0 630.1,480 5.4,480 5.4,0 			"/>
		</defs>
		<clipPath id="SVGID_2_">
			<use xlink:href="#SVGID_1_"  style="overflow:visible;"/>
		</clipPath>
		<polygon class="st0" points="49.3,13.7 46.5,13.8 43.8,14.2 41.2,14.8 38.7,15.6 36.3,16.6 34,17.8 31.8,19.2 29.8,20.8 
			27.9,22.5 26.2,24.4 24.6,26.5 23.2,28.6 22,30.9 21,33.4 20.1,35.9 19.6,38.4 19.2,41.1 19.1,43.9 19.1,43.9 19.1,44 19.1,44.1 
			19.1,44.3 19.1,44.7 19.1,45.2 19.1,45.8 19.1,46.4 19.1,47.2 19.1,48 19.1,49 19.1,50 19.1,51.2 19.1,52.4 19.1,53.7 19.1,55.2 
			19.1,56.7 19.1,58.2 19.1,59.9 19.1,61.6 19.1,63.4 19.1,65.3 19.1,67.3 19.1,69.4 19.1,71.5 19.1,73.7 19.1,76 19.1,78.3 
			19.1,80.7 19.1,83.2 19.1,85.7 19.1,88.3 19.1,91 19.1,93.7 19.1,96.5 19.1,99.3 19.1,102.2 19.1,105.2 19.1,108.2 19.1,111.3 
			19.1,114.3 19.1,117.5 19.1,120.7 19.1,124 19.1,127.3 19.1,130.6 19.1,134 19.1,137.4 19.1,140.9 19.1,144.4 19.1,148 
			19.1,151.5 19.1,155.2 19.1,158.8 19.1,162.4 19.1,166.1 19.1,169.9 19.1,173.6 19.1,177.4 19.1,181.2 19.1,185 19.1,188.8 
			19.1,192.7 19.1,196.6 19.1,200.5 19.1,204.4 19.1,208.3 19.1,212.3 19.1,216.2 19.1,220.2 19.1,224.2 19.1,228.1 19.1,232.1 
			19.1,236.1 19.1,240 19.1,243.9 19.1,247.9 19.1,251.9 19.1,255.8 19.1,259.8 19.1,263.8 19.1,267.7 19.1,271.7 19.1,275.6 
			19.1,279.5 19.1,283.4 19.1,287.3 19.1,291.2 19.1,295 19.1,298.8 19.1,302.6 19.1,306.4 19.1,310.1 19.1,313.9 19.1,317.6 
			19.1,321.2 19.1,324.8 19.1,328.5 19.1,332 19.1,335.6 19.1,339.1 19.1,342.6 19.1,346 19.1,349.4 19.1,352.7 19.1,356 
			19.1,359.3 19.1,362.5 19.1,365.7 19.1,368.7 19.1,371.8 19.1,374.8 19.1,377.8 19.1,380.7 19.1,383.5 19.1,386.3 19.1,389 
			19.1,391.7 19.1,394.3 19.1,396.8 19.1,399.3 19.1,401.7 19.1,404 19.1,406.3 19.1,408.5 19.1,410.6 19.1,412.7 19.1,414.7 
			19.1,416.6 19.1,418.4 19.1,420.1 19.1,421.8 19.1,423.3 19.1,424.8 19.1,426.3 19.1,427.6 19.1,428.8 19.1,430 19.1,431 
			19.1,432 19.1,432.8 19.1,433.6 19.1,434.2 19.1,434.8 19.1,435.3 19.1,435.7 19.1,435.9 19.1,436 19.1,436.1 19.1,436.1 
			19.2,438.9 19.6,441.6 20.1,444.1 21,446.6 22,449.1 23.2,451.4 24.6,453.5 26.2,455.6 27.9,457.5 29.8,459.2 31.8,460.8 
			34,462.2 36.3,463.4 38.7,464.4 41.2,465.2 43.8,465.8 46.5,466.2 49.3,466.3 49.3,466.3 49.3,466.3 49.4,466.3 49.6,466.3 
			49.9,466.3 50.2,466.3 50.6,466.3 51.1,466.3 51.7,466.3 52.3,466.3 53,466.3 53.8,466.3 54.6,466.3 55.6,466.3 56.6,466.3 
			57.6,466.3 58.7,466.3 59.9,466.3 61.2,466.3 62.5,466.3 63.8,466.3 65.3,466.3 66.8,466.3 68.4,466.3 70,466.3 71.7,466.3 
			73.4,466.3 75.2,466.3 77.1,466.3 79,466.3 81,466.3 83,466.3 85.1,466.3 87.2,466.3 89.4,466.3 91.6,466.3 94,466.3 96.3,466.3 
			98.7,466.3 101.1,466.3 103.6,466.3 106.1,466.3 108.7,466.3 111.3,466.3 114,466.3 116.8,466.3 119.5,466.3 122.3,466.3 
			125.1,466.3 128,466.3 131,466.3 133.9,466.3 136.9,466.3 140,466.3 143.1,466.3 146.2,466.3 149.3,466.3 152.5,466.3 
			155.7,466.3 159,466.3 162.3,466.3 165.6,466.3 168.9,466.3 172.4,466.3 175.7,466.3 179.2,466.3 182.6,466.3 186.1,466.3 
			189.6,466.3 193.2,466.3 196.8,466.3 200.4,466.3 204,466.3 207.7,466.3 211.3,466.3 215,466.3 218.7,466.3 222.4,466.3 
			226.2,466.3 230,466.3 233.7,466.3 237.5,466.3 241.4,466.3 245.2,466.3 249,466.3 252.9,466.3 256.8,466.3 260.6,466.3 
			264.5,466.3 268.4,466.3 272.3,466.3 276.2,466.3 280.2,466.3 284.1,466.3 288.1,466.3 292,466.3 296,466.3 299.9,466.3 
			303.9,466.3 307.9,466.3 311.8,466.3 315.8,466.3 319.7,466.3 323.7,466.3 327.6,466.3 331.6,466.3 335.5,466.3 339.5,466.3 
			343.5,466.3 347.4,466.3 351.4,466.3 355.3,466.3 359.3,466.3 363.1,466.3 367.1,466.3 371,466.3 374.9,466.3 378.7,466.3 
			382.6,466.3 386.5,466.3 390.3,466.3 394.1,466.3 398,466.3 401.8,466.3 405.5,466.3 409.3,466.3 413,466.3 416.8,466.3 
			420.5,466.3 424.2,466.3 427.8,466.3 431.5,466.3 435.1,466.3 438.7,466.3 442.3,466.3 445.9,466.3 449.4,466.3 452.9,466.3 
			456.3,466.3 459.8,466.3 463.1,466.3 466.5,466.3 469.9,466.3 473.2,466.3 476.5,466.3 479.8,466.3 483,466.3 486.2,466.3 
			489.3,466.3 492.4,466.3 495.5,466.3 498.6,466.3 501.6,466.3 504.5,466.3 507.5,466.3 510.3,466.3 513.2,466.3 516,466.3 
			518.7,466.3 521.5,466.3 524.1,466.3 526.8,466.3 529.4,466.3 531.9,466.3 534.4,466.3 536.8,466.3 539.2,466.3 541.5,466.3 
			543.8,466.3 546.1,466.3 548.3,466.3 550.4,466.3 552.5,466.3 554.5,466.3 556.5,466.3 558.4,466.3 560.2,466.3 562.1,466.3 
			563.8,466.3 565.5,466.3 567.1,466.3 568.7,466.3 570.2,466.3 571.6,466.3 573,466.3 574.3,466.3 575.6,466.3 576.8,466.3 
			577.8,466.3 578.9,466.3 579.9,466.3 580.9,466.3 581.7,466.3 582.5,466.3 583.2,466.3 583.8,466.3 584.4,466.3 584.9,466.3 
			585.3,466.3 585.6,466.3 585.9,466.3 586,466.3 586.2,466.3 586.2,466.3 586.2,466.3 589,466.2 591.7,465.8 594.2,465.2 
			596.8,464.4 599.2,463.4 601.4,462.2 603.6,460.8 605.6,459.2 607.6,457.5 609.3,455.6 610.9,453.5 612.3,451.4 613.5,449.1 
			614.5,446.6 615.3,444.1 615.9,441.6 616.3,438.9 616.4,436.1 616.4,436.1 616.4,436 616.4,435.9 616.4,435.7 616.4,435.3 
			616.4,434.8 616.4,434.2 616.4,433.6 616.4,432.8 616.4,432 616.4,431 616.4,430 616.4,428.8 616.4,427.6 616.4,426.3 
			616.4,424.8 616.4,423.3 616.4,421.8 616.4,420.1 616.4,418.4 616.4,416.6 616.4,414.7 616.4,412.7 616.4,410.6 616.4,408.5 
			616.4,406.3 616.4,404 616.4,401.7 616.4,399.3 616.4,396.8 616.4,394.3 616.4,391.7 616.4,389 616.4,386.3 616.4,383.5 
			616.4,380.7 616.4,377.8 616.4,374.8 616.4,371.8 616.4,368.7 616.4,365.7 616.4,362.5 616.4,359.3 616.4,356 616.4,352.7 
			616.4,349.4 616.4,346 616.4,342.6 616.4,339.1 616.4,335.6 616.4,332 616.4,328.5 616.4,324.8 616.4,321.2 616.4,317.6 
			616.4,313.9 616.4,310.1 616.4,306.4 616.4,302.6 616.4,298.8 616.4,295 616.4,291.2 616.4,287.3 616.4,283.4 616.4,279.5 
			616.4,275.6 616.4,271.7 616.4,267.7 616.4,263.8 616.4,259.8 616.4,255.8 616.4,251.9 616.4,247.9 616.4,243.9 616.4,240 
			616.4,236.1 616.4,232.1 616.4,228.1 616.4,224.2 616.4,220.2 616.4,216.2 616.4,212.3 616.4,208.3 616.4,204.4 616.4,200.5 
			616.4,196.6 616.4,192.7 616.4,188.8 616.4,185 616.4,181.2 616.4,177.4 616.4,173.6 616.4,169.9 616.4,166.1 616.4,162.4 
			616.4,158.8 616.4,155.2 616.4,151.5 616.4,148 616.4,144.4 616.4,140.9 616.4,137.4 616.4,134 616.4,130.6 616.4,127.3 
			616.4,124 616.4,120.7 616.4,117.5 616.4,114.3 616.4,111.3 616.4,108.2 616.4,105.2 616.4,102.2 616.4,99.3 616.4,96.5 
			616.4,93.7 616.4,91 616.4,88.3 616.4,85.7 616.4,83.2 616.4,80.7 616.4,78.3 616.4,76 616.4,73.7 616.4,71.5 616.4,69.4 
			616.4,67.3 616.4,65.3 616.4,63.4 616.4,61.6 616.4,59.9 616.4,58.2 616.4,56.7 616.4,55.2 616.4,53.7 616.4,52.4 616.4,51.2 
			616.4,50 616.4,49 616.4,48 616.4,47.2 616.4,46.4 616.4,45.8 616.4,45.2 616.4,44.7 616.4,44.3 616.4,44.1 616.4,44 616.4,43.9 
			616.4,43.9 616.3,41.1 615.9,38.4 615.3,35.9 614.5,33.4 613.5,30.9 612.3,28.6 610.9,26.5 609.3,24.4 607.6,22.5 605.6,20.8 
			603.6,19.2 601.4,17.8 599.2,16.6 596.8,15.6 594.2,14.8 591.7,14.2 589,13.8 586.2,13.7 586.2,13.7 586.2,13.7 586,13.7 
			585.9,13.7 585.6,13.7 585.3,13.7 584.9,13.7 584.4,13.7 583.8,13.7 583.2,13.7 582.5,13.7 581.7,13.7 580.9,13.7 579.9,13.7 
			578.9,13.7 577.8,13.7 576.8,13.7 575.6,13.7 574.3,13.7 573,13.7 571.6,13.7 570.2,13.7 568.7,13.7 567.1,13.7 565.5,13.7 
			563.8,13.7 562.1,13.7 560.2,13.7 558.4,13.7 556.5,13.7 554.5,13.7 552.5,13.7 550.4,13.7 548.3,13.7 546.1,13.7 543.8,13.7 
			541.5,13.7 539.2,13.7 536.8,13.7 534.4,13.7 531.9,13.7 529.4,13.7 526.8,13.7 524.1,13.7 521.5,13.7 518.7,13.7 516,13.7 
			513.2,13.7 510.3,13.7 507.5,13.7 504.5,13.7 501.6,13.7 498.6,13.7 495.5,13.7 492.4,13.7 489.3,13.7 486.2,13.7 483,13.7 
			479.8,13.7 476.5,13.7 473.2,13.7 469.9,13.7 466.5,13.7 463.1,13.7 459.8,13.7 456.3,13.7 452.9,13.7 449.4,13.7 445.9,13.7 
			442.3,13.7 438.7,13.7 435.1,13.7 431.5,13.7 427.8,13.7 424.2,13.7 420.5,13.7 416.8,13.7 413,13.7 409.3,13.7 405.5,13.7 
			401.8,13.7 398,13.7 394.1,13.7 390.3,13.7 386.5,13.7 382.6,13.7 378.7,13.7 374.9,13.7 371,13.7 367.1,13.7 363.1,13.7 
			359.3,13.7 355.3,13.7 351.4,13.7 347.4,13.7 343.5,13.7 339.5,13.7 335.5,13.7 331.6,13.7 327.6,13.7 323.7,13.7 319.7,13.7 
			315.8,13.7 311.8,13.7 307.9,13.7 303.9,13.7 299.9,13.7 296,13.7 292,13.7 288.1,13.7 284.1,13.7 280.2,13.7 276.2,13.7 
			272.3,13.7 268.4,13.7 264.5,13.7 260.6,13.7 256.8,13.7 252.9,13.7 249,13.7 245.2,13.7 241.4,13.7 237.5,13.7 233.7,13.7 
			230,13.7 226.2,13.7 222.4,13.7 218.7,13.7 215,13.7 211.3,13.7 207.7,13.7 204,13.7 200.4,13.7 196.8,13.7 193.2,13.7 
			189.6,13.7 186.1,13.7 182.6,13.7 179.2,13.7 175.7,13.7 172.4,13.7 168.9,13.7 165.6,13.7 162.3,13.7 159,13.7 155.7,13.7 
			152.5,13.7 149.3,13.7 146.2,13.7 143.1,13.7 140,13.7 136.9,13.7 133.9,13.7 131,13.7 128,13.7 125.1,13.7 122.3,13.7 
			119.5,13.7 116.8,13.7 114,13.7 111.3,13.7 108.7,13.7 106.1,13.7 103.6,13.7 101.1,13.7 98.7,13.7 96.3,13.7 94,13.7 91.6,13.7 
			89.4,13.7 87.2,13.7 85.1,13.7 83,13.7 81,13.7 79,13.7 77.1,13.7 75.2,13.7 73.4,13.7 71.7,13.7 70,13.7 68.4,13.7 66.8,13.7 
			65.3,13.7 63.8,13.7 62.5,13.7 61.2,13.7 59.9,13.7 58.7,13.7 57.6,13.7 56.6,13.7 55.6,13.7 54.6,13.7 53.8,13.7 53,13.7 
			52.3,13.7 51.7,13.7 51.1,13.7 50.6,13.7 50.2,13.7 49.9,13.7 49.6,13.7 49.4,13.7 49.3,13.7 49.3,13.7 49.3,13.7 		"/>
		<polygon class="st1" points="271.7,218 272,215.8 272.3,213.6 272.6,211.3 273,209.1 273.4,206.8 273.7,204.4 274.1,202 
			274.5,199.6 275,197.2 275.4,194.7 275.9,192.2 276.4,189.7 276.8,187.2 277.4,184.6 277.9,182 278.4,179.5 279,176.8 
			279.5,174.2 280.1,171.6 280.7,168.9 281.4,166.2 282,163.6 282.7,160.9 283.4,158.3 284.1,155.6 284.7,152.9 285.5,150.2 
			286.2,147.5 287,144.9 287.8,142.2 288.6,139.6 289.4,136.9 290.3,134.2 291.1,131.6 291.9,129 292.9,126.4 293.8,123.8 
			294.7,121.2 295.6,118.7 296.6,116.1 297.6,113.6 298.6,111.1 299.6,108.7 300.6,106.3 301.7,103.9 302.8,101.5 303.8,99.1 
			305,96.9 306.1,94.5 307.2,92.4 308.4,90.1 309.6,88 310.8,85.8 312,83.8 313.2,81.8 314.5,79.8 315.8,77.8 317.1,76 318.3,74.1 
			319.7,72.3 321,70.6 322.4,68.9 323.8,67.3 325.2,65.7 326.6,64.2 328.1,62.8 329.6,61.5 331.1,60.2 332.6,58.9 334.1,57.7 
			335.7,56.7 337.2,55.6 338.8,54.7 340.4,53.8 342,53 343.7,52.3 345.4,51.6 347,51 348.8,50.5 350.5,50.2 352.2,49.8 354.1,49.6 
			355.8,49.5 357.6,49.5 357.6,49.5 358.8,49.5 359.8,49.5 360.9,49.7 362,49.8 363.1,50 364.2,50.2 365.3,50.5 366.4,50.8 
			367.5,51.2 368.6,51.6 369.7,52 370.8,52.5 371.9,53 373,53.6 374.1,54.2 375.2,54.8 376.4,55.5 377.5,56.3 378.5,57 379.7,57.9 
			380.8,58.7 381.9,59.5 383,60.5 384.1,61.4 385.2,62.4 386.3,63.4 387.4,64.5 388.6,65.6 389.6,66.7 390.8,67.9 391.9,69.1 
			392.9,70.3 394.1,71.6 395.1,72.9 396.3,74.3 397.4,75.6 398.5,77 399.6,78.5 400.6,79.9 401.7,81.4 402.8,83 403.9,84.5 
			405,86.1 406.1,87.7 407.2,89.4 408.2,91.1 409.3,92.8 410.4,94.5 411.5,96.3 412.5,98.1 413.6,99.9 414.7,101.8 415.7,103.7 
			416.7,105.6 417.8,107.6 418.9,109.5 419.9,111.5 420.9,113.5 422,115.6 423,117.7 424.1,119.7 425.1,121.8 426.1,124 
			427.1,126.2 428.1,128.4 429.1,130.6 430.1,132.9 431.1,135.1 432.1,137.4 433.1,139.7 434.1,142.1 435,144.4 436,146.8 
			437,149.1 437.9,151.6 438.8,154 439.8,156.5 440.8,159 441.7,161.5 442.6,164 443.5,166.6 444.5,169.1 445.4,171.7 446.3,174.3 
			447.2,176.9 448,179.5 448.9,182.1 449.8,184.8 450.7,187.5 451.6,190.2 452.4,192.9 453.2,195.6 454.1,198.4 454.9,201.1 
			455.7,203.9 456.5,206.7 457.3,209.5 458.1,212.3 458.9,215.1 459.7,218 460.4,220.8 461.3,223.7 462,226.6 462.8,229.5 
			463.4,232.4 464.2,235.3 465,238.2 465.6,241.1 466.3,244 467,247 467.7,250 468.4,252.9 469,255.9 469.7,258.9 470.3,261.9 
			471,264.9 471.6,267.9 472.2,270.9 472.8,274 473.4,277 474,280.1 474.5,283.1 475.1,286.1 475.7,289.2 476.2,292.3 476.7,295.4 
			477.2,298.4 477.7,301.5 478.2,304.6 478.7,307.7 479.2,310.8 479.7,313.9 480.1,317 480.5,320.1 480.9,323.2 481.4,326.3 
			481.7,329.4 482.1,332.5 482.5,335.6 482.9,338.7 483.2,341.8 483.5,344.9 483.9,348.1 484.2,351.1 484.5,354.3 484.7,357.4 
			485,360.5 485.2,363.6 485.5,366.7 485.7,369.8 485.9,372.9 486.1,375.9 486.3,379.1 486.5,382.1 486.7,385.2 486.8,388.3 
			486.9,391.3 487.1,394.4 487.1,397.5 487.2,400.5 487.3,403.5 487.3,406.6 487.4,409.7 487.4,412.7 487.4,415.7 487.4,415.7 
			486.9,415.7 485.7,415.7 483.7,415.7 481.1,415.7 478,415.7 474.4,415.7 470.5,415.7 466.3,415.7 462.1,415.7 457.8,415.7 
			453.4,415.7 449.3,415.7 445.4,415.7 441.8,415.7 438.7,415.7 436.1,415.7 434.1,415.7 432.8,415.7 432.4,415.7 432.4,415.7 
			432.4,411.9 432.3,408.1 432.3,404.4 432.3,400.6 432.2,396.8 432.1,393.1 432.1,389.4 432,385.6 431.8,381.9 431.7,378.2 
			431.6,374.5 431.5,370.8 431.3,367.1 431.1,363.4 431,359.7 430.8,356.1 430.5,352.5 430.3,348.8 430.1,345.2 429.9,341.6 
			429.6,337.9 429.3,334.4 429.1,330.8 428.8,327.2 428.5,323.7 428.2,320.1 427.9,316.6 427.6,313.1 427.3,309.6 426.9,306.1 
			426.6,302.6 426.2,299.2 425.8,295.7 425.4,292.3 425.1,288.9 424.6,285.5 424.3,282.1 423.8,278.8 423.4,275.4 422.9,272.1 
			422.5,268.8 422.1,265.5 421.6,262.3 421.1,259 420.7,255.8 420.2,252.6 419.7,249.4 419.2,246.3 418.7,243.1 418.2,240 
			417.7,236.9 417.1,233.9 416.6,230.8 416,227.7 415.5,224.7 415,221.7 414.4,218.8 413.9,215.8 413.3,212.9 412.7,210 
			412.1,207.1 411.5,204.3 410.9,201.5 410.4,198.7 409.7,195.9 409.1,193.2 408.5,190.5 407.8,187.8 407.2,185.1 406.6,182.5 
			406,179.8 405.3,177.3 404.7,174.7 404,172.2 403.4,169.7 402.7,167.2 402,164.8 401.4,162.4 400.7,160 400,157.7 399.3,155.3 
			398.7,153.1 398,150.8 397.3,148.6 396.6,146.4 395.9,144.3 395.3,142.1 394.5,140.1 393.8,138 393.1,136 392.4,134 391.7,132.1 
			391,130.1 390.3,128.2 389.6,126.4 388.9,124.6 388.2,122.8 387.4,121 386.7,119.3 386,117.7 385.3,116.1 384.6,114.5 
			383.9,112.9 383.1,111.4 382.4,110 381.7,108.5 380.9,107.1 380.2,105.8 379.5,104.4 378.8,103.1 378,101.9 377.4,100.7 
			376.6,99.6 375.9,98.4 375.2,97.4 374.5,96.3 373.7,95.4 373,94.4 372.3,93.5 371.6,92.6 370.8,91.8 370.2,91 369.5,90.3 
			368.7,89.6 368,89 367.3,88.4 366.6,87.8 365.9,87.3 365.2,86.9 364.5,86.5 363.8,86.2 363.1,85.8 362.5,85.5 361.8,85.3 
			361.1,85.2 360.4,85 359.8,85 359.1,84.9 359.1,84.9 358.3,85 357.6,85 356.9,85.1 356.1,85.2 355.4,85.4 354.7,85.6 353.9,85.8 
			353.2,86.2 352.5,86.5 351.8,86.8 351.1,87.2 350.4,87.7 349.6,88.1 348.9,88.7 348.2,89.2 347.5,89.8 346.8,90.4 346.1,91 
			345.4,91.7 344.7,92.5 344,93.2 343.3,94 342.6,94.9 341.9,95.8 341.2,96.7 340.5,97.7 339.8,98.6 339.2,99.7 338.5,100.7 
			337.8,101.9 337.2,103 336.5,104.2 335.9,105.4 335.2,106.6 334.6,107.9 333.9,109.3 333.3,110.6 332.6,112 332,113.5 331.4,115 
			330.8,116.5 330.1,118 329.5,119.6 328.9,121.2 328.3,122.8 327.7,124.5 327.1,126.3 326.4,128 325.9,129.9 325.3,131.7 
			324.7,133.6 324.1,135.5 323.6,137.4 323,139.4 322.4,141.4 321.9,143.5 321.3,145.6 320.8,147.7 320.2,149.9 319.7,152.1 
			319.1,154.3 318.6,156.6 318.1,158.9 317.6,161.3 317.1,163.7 316.6,166.1 316.1,168.6 315.6,171.1 315.2,173.6 314.7,176.1 
			314.2,178.7 313.7,181.4 313.2,184 312.8,186.8 312.4,189.5 311.9,192.3 311.5,195.1 311,197.9 310.6,200.8 310.2,203.7 
			309.8,206.7 309.4,209.7 309,212.8 308.6,215.8 308.2,218.9 307.8,222 307.5,225.2 307.1,228.4 306.7,231.7 306.3,234.9 
			306,238.2 305.7,241.6 305.3,244.9 305,248.3 304.7,251.8 304.4,255.3 304.2,258.8 303.8,262.4 303.6,266 303.3,269.6 303,273.2 
			302.8,276.9 302.5,280.7 302.3,284.5 302,288.3 301.8,292.2 301.6,296 301.4,299.9 301.2,303.9 301,307.9 300.8,311.9 
			300.6,315.9 300.5,320 300.3,324.1 300.2,328.3 300.1,332.5 300,336.7 299.8,340.9 299.7,345.3 299.6,349.6 299.5,354 
			299.4,358.3 299.3,362.8 299.3,367.2 299.2,371.7 299.2,376.2 299.1,380.8 299.1,385.5 299.1,390.1 299.1,394.7 299.1,394.7 
			298.6,394.7 297.4,394.7 295.5,394.7 292.8,394.7 289.7,394.7 286.1,394.7 282.2,394.7 278.1,394.7 273.8,394.7 269.5,394.7 
			265.2,394.7 261.1,394.7 257.1,394.7 253.6,394.7 250.4,394.7 247.9,394.7 245.9,394.7 244.6,394.7 244.2,394.7 244.2,394.7 
			244.2,390.1 244.2,385.5 244.1,380.8 244.1,376.2 244,371.7 244,367.2 243.9,362.8 243.9,358.3 243.8,354 243.7,349.6 
			243.6,345.3 243.5,340.9 243.4,336.7 243.2,332.5 243.1,328.3 242.9,324.1 242.8,320 242.6,315.9 242.5,311.9 242.3,307.9 
			242.1,303.9 241.9,299.9 241.7,296 241.5,292.2 241.2,288.3 241,284.5 240.8,280.7 240.5,276.9 240.3,273.2 240,269.6 239.7,266 
			239.5,262.4 239.2,258.8 238.8,255.3 238.6,251.8 238.3,248.3 237.9,244.9 237.6,241.6 237.3,238.2 237,234.9 236.6,231.7 
			236.2,228.4 235.8,225.2 235.5,222 235.2,218.9 234.7,215.8 234.3,212.8 234,209.7 233.5,206.7 233.2,203.7 232.7,200.8 
			232.3,197.9 231.9,195.1 231.5,192.3 231,189.5 230.5,186.8 230.1,184 229.6,181.4 229.1,178.7 228.7,176.1 228.2,173.6 
			227.7,171.1 227.2,168.6 226.7,166.1 226.2,163.7 225.7,161.3 225.2,158.9 224.6,156.6 224.1,154.3 223.6,152.1 223.1,149.9 
			222.5,147.7 222,145.6 221.4,143.5 220.9,141.4 220.3,139.4 219.8,137.4 219.2,135.5 218.6,133.6 218,131.7 217.4,129.9 
			216.8,128 216.2,126.3 215.6,124.5 215,122.8 214.4,121.2 213.8,119.6 213.2,118 212.6,116.5 211.9,115 211.3,113.5 210.7,112 
			210,110.6 209.4,109.3 208.7,107.9 208,106.6 207.4,105.4 206.7,104.2 206.1,103 205.4,101.9 204.8,100.7 204.1,99.7 203.4,98.6 
			202.7,97.7 202,96.7 201.3,95.8 200.7,94.9 200,94 199.3,93.2 198.6,92.5 197.9,91.7 197.2,91 196.5,90.4 195.8,89.8 195.1,89.2 
			194.3,88.7 193.6,88.1 192.9,87.7 192.2,87.2 191.5,86.8 190.8,86.5 190,86.2 189.3,85.8 188.6,85.6 187.8,85.4 187.1,85.2 
			186.4,85.1 185.6,85 184.9,85 184.1,84.9 184.1,84.9 183.5,85 182.8,85 182.1,85.2 181.4,85.3 180.7,85.5 180.1,85.8 179.4,86.2 
			178.7,86.5 178,86.9 177.3,87.3 176.6,87.8 175.9,88.4 175.2,89 174.5,89.6 173.8,90.3 173.1,91 172.4,91.8 171.7,92.6 171,93.5 
			170.2,94.4 169.5,95.4 168.8,96.3 168.1,97.4 167.3,98.4 166.7,99.6 165.9,100.7 165.2,101.9 164.5,103.1 163.8,104.4 163,105.8 
			162.3,107.1 161.6,108.5 160.9,110 160.1,111.4 159.4,112.9 158.7,114.5 158,116.1 157.3,117.7 156.5,119.3 155.8,121 
			155.1,122.8 154.4,124.6 153.7,126.4 152.9,128.2 152.3,130.1 151.6,132.1 150.8,134 150.1,136 149.4,138 148.8,140.1 
			148.1,142.1 147.4,144.3 146.7,146.4 146,148.6 145.3,150.8 144.6,153.1 143.9,155.3 143.2,157.7 142.6,160 141.9,162.4 
			141.2,164.8 140.5,167.2 139.9,169.7 139.2,172.2 138.6,174.7 138,177.3 137.3,179.8 136.7,182.5 136,185.1 135.4,187.8 
			134.8,190.5 134.2,193.2 133.6,195.9 133,198.7 132.3,201.5 131.8,204.3 131.2,207.1 130.6,210 130,213 129.5,215.8 128.9,218.8 
			128.3,221.8 127.8,224.7 127.2,227.8 126.7,230.8 126.1,233.9 125.6,236.9 125.1,240 124.6,243.1 124.1,246.3 123.6,249.4 
			123.1,252.6 122.6,255.8 122.1,259 121.7,262.3 121.2,265.5 120.8,268.8 120.3,272.1 119.9,275.4 119.5,278.8 119.1,282.1 
			118.6,285.5 118.3,288.9 117.9,292.3 117.5,295.7 117.1,299.2 116.8,302.6 116.4,306.1 116.1,309.6 115.7,313.1 115.4,316.6 
			115.1,320.1 114.8,323.7 114.5,327.2 114.2,330.8 113.9,334.4 113.7,337.9 113.4,341.6 113.2,345.2 113,348.8 112.7,352.5 
			112.6,356.1 112.4,359.8 112.2,363.4 112,367.1 111.9,370.8 111.7,374.5 111.6,378.2 111.4,381.9 111.4,385.6 111.2,389.4 
			111.2,393.1 111.1,396.8 111.1,400.6 111,404.4 110.9,408.1 110.9,411.9 110.9,415.7 110.9,415.7 110.5,415.7 109.2,415.7 
			107.2,415.7 104.7,415.7 101.5,415.7 97.9,415.7 94,415.7 89.9,415.7 85.6,415.7 81.3,415.7 76.9,415.7 72.8,415.7 68.9,415.7 
			65.3,415.7 62.2,415.7 59.6,415.7 57.6,415.7 56.3,415.7 55.9,415.7 55.9,415.7 55.9,412.7 56,409.6 56,406.6 56,403.5 
			56.1,400.5 56.2,397.5 56.3,394.4 56.4,391.3 56.5,388.3 56.6,385.2 56.8,382.1 57,379 57.2,375.9 57.4,372.8 57.6,369.7 
			57.8,366.7 58.1,363.5 58.3,360.4 58.6,357.3 58.8,354.2 59.1,351.1 59.5,348 59.8,344.9 60.2,341.8 60.5,338.7 60.8,335.5 
			61.2,332.5 61.6,329.4 62,326.2 62.4,323.2 62.8,320 63.2,317 63.7,313.8 64.2,310.8 64.6,307.6 65.1,304.6 65.6,301.5 
			66.1,298.4 66.6,295.3 67.1,292.2 67.7,289.2 68.2,286.1 68.8,283.1 69.4,280 69.9,276.9 70.5,273.9 71.1,270.9 71.7,267.9 
			72.4,264.9 73,261.9 73.6,258.8 74.3,255.8 74.9,252.8 75.6,249.9 76.3,246.9 77,243.9 77.7,241 78.4,238.1 79.1,235.2 
			79.8,232.3 80.6,229.4 81.3,226.5 82.1,223.7 82.8,220.8 83.6,217.9 84.4,215.1 85.2,212.3 85.9,209.4 86.8,206.6 87.6,203.9 
			88.4,201.1 89.3,198.3 90.1,195.5 90.9,192.9 91.8,190.2 92.6,187.4 93.5,184.8 94.4,182.1 95.3,179.5 96.2,176.8 97,174.2 
			97.9,171.6 98.8,169.1 99.8,166.5 100.7,163.9 101.6,161.4 102.5,158.9 103.5,156.4 104.4,154 105.4,151.5 106.4,149.1 
			107.3,146.7 108.2,144.3 109.2,142 110.2,139.6 111.2,137.4 112.2,135.1 113.2,132.8 114.2,130.6 115.2,128.4 116.2,126.1 
			117.2,124 118.2,121.8 119.3,119.7 120.3,117.6 121.3,115.5 122.3,113.5 123.4,111.5 124.4,109.4 125.5,107.5 126.5,105.6 
			127.6,103.6 128.6,101.7 129.7,99.9 130.8,98.1 131.8,96.3 132.9,94.5 134,92.7 135,91 136.1,89.4 137.2,87.7 138.3,86.1 
			139.4,84.5 140.4,82.9 141.5,81.4 142.6,79.9 143.7,78.5 144.8,77 145.9,75.6 147,74.2 148.1,72.9 149.2,71.6 150.3,70.3 
			151.4,69.1 152.5,67.9 153.6,66.7 154.8,65.6 155.8,64.5 157,63.4 158.1,62.4 159.1,61.4 160.3,60.5 161.4,59.5 162.5,58.7 
			163.6,57.9 164.7,57 165.8,56.3 167,55.5 168,54.8 169.2,54.2 170.3,53.6 171.4,53 172.5,52.5 173.6,52 174.7,51.6 175.8,51.2 
			176.9,50.8 178,50.5 179.1,50.2 180.2,50 181.3,49.8 182.4,49.7 183.5,49.5 184.6,49.5 185.6,49.5 185.6,49.5 187.4,49.5 
			189.3,49.6 191,49.8 192.8,50.2 194.5,50.5 196.2,51 197.9,51.6 199.6,52.3 201.2,53 202.8,53.8 204.5,54.7 206,55.6 207.6,56.7 
			209.2,57.7 210.7,58.9 212.2,60.2 213.7,61.5 215.2,62.9 216.6,64.2 218.1,65.7 219.5,67.3 220.9,68.9 222.3,70.6 223.6,72.3 
			225,74.1 226.3,76 227.5,77.8 228.8,79.8 230.1,81.8 231.3,83.8 232.5,85.8 233.7,88 234.9,90.1 236.1,92.4 237.2,94.5 
			238.4,96.9 239.5,99.1 240.5,101.5 241.6,103.9 242.7,106.3 243.7,108.7 244.7,111.1 245.7,113.6 246.7,116.1 247.7,118.7 
			248.6,121.2 249.6,123.8 250.4,126.4 251.4,129 252.2,131.6 253.1,134.2 253.9,136.9 254.8,139.6 255.5,142.2 256.3,144.9 
			257.1,147.5 257.8,150.2 258.6,152.9 259.3,155.6 260,158.2 260.6,160.9 261.3,163.6 262,166.2 262.6,168.9 263.2,171.6 
			263.8,174.2 264.4,176.8 265,179.5 265.5,182 266,184.6 266.5,187.2 267,189.7 267.5,192.2 268,194.7 268.4,197.2 268.8,199.6 
			269.2,202 269.7,204.4 270,206.8 270.4,209.1 270.7,211.3 271.1,213.6 271.4,215.8 271.7,218 271.7,218 		"/>
		<polygon class="st0" points="235.7,349 235.7,285 489.1,285 489.1,349 235.7,349 		"/>
		<polygon class="st2" points="463.5,290.2 479.5,290.2 479.5,342.6 463.5,342.6 463.5,290.2 		"/>
		<polygon class="st2" points="538.1,290.2 549,290.2 545.3,304.4 537.4,304.4 538.1,290.2 		"/>
		<polygon class="st2" points="567.7,297.9 570.8,298 573.9,298.3 576.8,298.8 579.5,299.5 582,300.5 584.1,301.9 585.9,303.6 
			587.2,305.6 588,308.1 588.3,311 588.3,311 585.9,311 580.7,311 575.5,311 573.1,311 573.1,311 572.5,308.1 570.6,306.3 
			567.5,305.8 567.5,305.8 565.3,306.1 563.4,307.4 562.6,309.9 562.6,309.9 563.1,311.9 564.5,313.3 566.6,314.1 569.2,314.7 
			572.2,315.2 575.4,315.7 578.6,316.5 578.6,316.5 581.7,317.6 584.4,319.1 586.6,321 588.3,323.2 589.4,325.7 589.7,328.7 
			589.7,328.7 589.6,331.2 589,333.5 588.1,335.7 586.7,337.5 585,339.2 583,340.6 580.7,341.7 578,342.6 574.8,343.3 571.5,343.7 
			567.7,343.8 567.7,343.8 563.8,343.7 560.4,343.3 557.4,342.7 554.8,341.7 552.6,340.6 550.8,339.2 549.4,337.6 548.2,335.7 
			547.5,333.6 547,331.2 546.8,328.7 546.8,328.7 549.3,328.7 554.6,328.7 559.8,328.7 562.2,328.7 562.2,328.7 562.9,331.9 
			564.9,333.9 567.8,334.5 567.8,334.5 570.9,334.1 572.8,332.7 573.4,330.4 573.4,330.4 572.8,328.2 571.1,326.7 568.7,325.6 
			565.8,324.8 562.6,324.2 559.4,323.5 556.6,322.8 556.6,322.8 554.1,321.7 551.9,320.1 550.1,318 548.9,315.1 548.5,311.6 
			548.5,311.6 548.6,309.8 549,308 549.8,306.1 550.9,304.4 552.4,302.6 554.4,301.1 556.9,299.8 559.9,298.8 563.5,298.1 
			567.7,297.9 567.7,297.9 		"/>
		<polygon class="st2" points="241.2,326.7 240.3,329.5 239.2,332 237.7,334.4 236.1,336.5 234.2,338.4 232.1,340 229.8,341.4 
			227.3,342.4 224.7,343.3 221.9,343.8 219.1,343.9 219.1,343.9 216.3,343.8 213.7,343.3 211.2,342.6 208.9,341.6 206.6,340.4 
			204.6,338.9 202.7,337.2 201,335.2 199.6,333.1 198.4,330.8 197.5,328.3 196.7,325.6 196.3,322.8 196.1,319.8 196.1,319.8 
			196.3,316.8 196.6,313.9 197.3,311.3 198.2,308.8 199.3,306.4 200.7,304.3 202.3,302.4 204.1,300.7 206.2,299.2 208.4,297.9 
			210.7,297 213.4,296.2 216.1,295.8 219.1,295.7 219.1,295.7 222.2,295.8 225.1,296.3 227.8,297.1 230.3,298.2 232.6,299.5 
			234.7,301.2 236.5,303.1 238,305.2 239.4,307.6 240.4,310.1 241.2,312.9 241.2,312.9 238.9,312.9 233.8,312.9 228.6,312.9 
			226.3,312.9 226.3,312.9 224.8,310 222.4,308.1 219.1,307.3 219.1,307.3 216.2,307.8 214,309.3 212.4,311.4 211.4,314.1 
			210.9,317 210.7,319.8 210.7,319.8 210.9,322.6 211.4,325.5 212.4,328.1 214,330.2 216.2,331.7 219.1,332.2 219.1,332.2 
			222.4,331.5 224.8,329.5 226.3,326.7 226.3,326.7 228.6,326.7 233.7,326.7 238.8,326.7 241.2,326.7 241.2,326.7 		"/>
		<polygon class="st2" points="131.2,290.2 150.2,290.2 158.5,321.1 166.8,290.2 185.9,290.2 194.2,343.9 178.5,343.9 174.3,312.5 
			165.7,343.9 151.3,343.9 142.7,312.5 138.5,343.9 122.8,343.9 131.2,290.2 		"/>
		<polygon class="st2" points="375.5,316.9 375.5,318.5 375.5,321.7 375.5,325.8 375.5,330.4 375.5,334.9 375.5,338.9 375.5,341.6 
			375.5,342.6 375.5,342.6 359.7,342.6 359.7,296.8 375.5,296.8 375.5,296.8 375.5,297.7 375.5,299.4 375.5,300.4 375.5,300.4 
			377.9,298.7 380.4,297.4 383.3,296.4 386.9,295.9 391.3,295.7 391.3,295.7 394.5,295.9 397.5,296.7 400.2,297.9 402.6,299.4 
			404.5,301.2 406,303.3 407,305.5 407.3,307.8 407.3,307.8 407.3,308.5 407.3,310.4 407.3,313.3 407.3,316.8 407.3,320.9 
			407.3,325.2 407.3,329.5 407.3,333.6 407.3,337.2 407.3,340.1 407.3,341.9 407.3,342.6 407.3,342.6 391.4,342.6 391.4,342.6 
			391.4,341.5 391.4,338.7 391.4,334.6 391.4,330 391.4,325.3 391.4,321.3 391.4,318.5 391.4,317.4 391.4,317.4 390.8,314.4 
			389,312 386.6,310.4 383.6,309.8 383.6,309.8 379.2,311.1 376.5,313.9 375.5,316.9 375.5,316.9 		"/>
		<path class="st2" d="M516.1,301.3v-2.9V293v-2.9l0,0h16v52.5h-16l0,0v-0.7v-1.3v-0.6l0,0l-2.4,1.8l-3.6,1.4l-5.6,0.6l0,0l-1.9-0.1
			l-1.9-0.3l-2.1-0.4l-2.1-0.7l-2-0.9l-2-1.3l-1.9-1.6l-1.7-1.9l-1.5-2.3l-1.3-2.7l-0.9-3.1l-0.6-3.5l-0.2-4l0,0l0.2-3.8l0.5-3.4
			l0.9-2.9l1.1-2.6l1.4-2.3l1.5-1.9l1.8-1.6l1.8-1.4l1.9-1.1l2-0.8l2.1-0.6l2-0.4l2-0.2l1.9-0.1l0,0l5.3,0.6l3.4,1.3L516.1,301.3
			L516.1,301.3L516.1,301.3z M499.6,321.1l0.4,3.9l1.1,3.3l1.8,2.4l2.4,1.6l3.1,0.5l0,0l3.1-0.4l2.6-1.5l2-2.4l0,0v-2.2v-4.7v-4.8
			v-2.1l0,0l-1.5-2.8l-2.6-1.8l-3.6-0.7l0,0l-3.1,0.5l-2.4,1.5l-1.8,2.4l-1.1,3.3L499.6,321.1L499.6,321.1L499.6,321.1z"/>
		<path class="st2" d="M306.8,319.8l0.1-2.8l0.3-2.6l0.6-2.5l0.8-2.4l1.1-2.3l1.2-2.1l1.4-1.9l1.7-1.7l1.9-1.5l1.9-1.3l2.3-1.1
			l2.4-0.9l2.6-0.6l2.8-0.4l2.9-0.1l0,0l2.9,0.1l2.7,0.4l2.6,0.6l2.4,0.9l2.2,1.1l2.1,1.3l1.9,1.5l1.6,1.7l1.5,1.9l1.3,2.1l1,2.2
			l0.9,2.4l0.6,2.5l0.4,2.6l0.1,2.8l0,0l-0.1,2.8l-0.4,2.6l-0.6,2.6l-0.8,2.4l-1.1,2.2l-1.3,2.1l-1.5,1.9l-1.6,1.7l-1.9,1.5
			l-2.1,1.3l-2.2,1.1l-2.4,0.9l-2.6,0.6l-2.7,0.4l-2.9,0.1l0,0l-2.9-0.1l-2.8-0.4l-2.6-0.6l-2.4-0.9l-2.3-1.1l-1.9-1.3l-1.9-1.5
			l-1.7-1.7l-1.4-1.9l-1.2-2.1l-1.1-2.2l-0.8-2.4l-0.6-2.6l-0.3-2.6L306.8,319.8L306.8,319.8L306.8,319.8z M340,319.8l-0.2-2.8
			l-0.6-2.9l-1.1-2.6l-1.7-2.1l-2.4-1.5l-3.2-0.5l0,0l-3.2,0.5l-2.4,1.5l-1.7,2.1l-1.1,2.6l-0.6,2.9l-0.2,2.8l0,0l0.2,2.8l0.6,2.9
			l1.1,2.6l1.7,2.1l2.4,1.5l3.2,0.5l0,0l3.2-0.5l2.4-1.5l1.7-2.1l1.1-2.6l0.6-2.9L340,319.8L340,319.8L340,319.8z"/>
		<path class="st2" d="M246.7,290.2h0.9h2.5h3.6h4.3h4.6h4.3h3.6h2.5h0.9l0,0l3,0.1l2.8,0.4l2.7,0.5l2.6,0.8l2.4,0.9l2.3,1.1
			l2.1,1.3l1.9,1.4l1.8,1.7l1.6,1.8l1.4,1.9l1.3,2.1l1,2.3l0.8,2.4l0.6,2.5l0.4,2.7l0.1,2.8l0,0l-0.1,2.8l-0.4,2.7l-0.6,2.5
			l-0.8,2.4l-1,2.3l-1.3,2.2l-1.4,1.9l-1.6,1.8l-1.8,1.7l-1.9,1.4l-2.1,1.3l-2.3,1.1l-2.4,0.9l-2.6,0.8l-2.7,0.5l-2.8,0.3l-3,0.1
			l0,0h-0.9h-2.5H267h-4.3h-4.6h-4.3h-3.6h-2.5h-0.9l0,0V290.2L246.7,290.2z M264.8,331.2h2.1h4h2.1l0,0l2.4-0.2l2.4-0.7l2.2-1.3
			l2-1.9l1.6-2.6l1-3.4l0.4-4.2l0,0l-0.4-4.2l-1-3.4l-1.6-2.6l-2-1.9l-2.2-1.3l-2.4-0.7l-2.4-0.2l0,0H271h-4h-2.1l0,0V331.2
			L264.8,331.2z"/>
		<path class="st2" d="M435.7,295.7l3.3,0.1l3.2,0.4l3,0.6l2.7,0.9l2.4,1.2l2.1,1.4l1.8,1.8l1.4,2l0.9,2.3l0.5,2.6l0,0v0.8v2.1v3.2
			v4v4.4v4.6v4.4v3.9v3.3v2.1v0.8l0,0h-16l0,0v-1.2v-2.2v-1.2l0,0l-2.4,1.9l-2.5,1.6l-2.8,1.3l-3.3,0.8l-3.8,0.3l0,0l-3-0.3
			l-2.8-0.8l-2.4-1.3l-2.2-1.7l-1.8-2.1l-1.3-2.3l-0.9-2.6l-0.3-2.8l0,0l0.1-1.9l0.3-1.9l0.6-1.9l0.9-1.8l1.2-1.8l1.6-1.6l1.9-1.4
			l2.4-1.3l2.8-1l3.3-0.8l3.8-0.5l4.4-0.2l0,0l3.8-0.6l1.9-1.5l0.6-2.1l0,0l-0.9-2.3l-2.2-1.4l-2.7-0.5l0,0l-2.7,0.4l-2.1,1.3
			l-0.9,2.3l0,0h-2.3h-5.1h-5.1h-2.4l0,0l0.1-1.9l0.4-1.8l0.7-1.8l1-1.7l1.3-1.6l1.8-1.4l2.2-1.3l2.6-1.1l3.1-0.8l3.6-0.5
			L435.7,295.7L435.7,295.7L435.7,295.7z M434.8,321.5l-3.4,0.7l-2.6,1.9l-1,3.2l0,0l0.5,2.3l1.7,1.6l3,0.6l0,0l3.6-0.7l2.9-2.2
			l1.7-3.7l0,0v-1.1v-2V321l0,0l-1.7,0.4l-2.3,0.1L434.8,321.5L434.8,321.5L434.8,321.5z"/>
		<path class="st1" d="M511.8,379.9h2.6h4.7h2.6l0,0l4.2,0.8l2.8,2.1l1.1,3.1l0,0l-0.8,2.8l-2,1.9l-2.8,0.9l0,0l0,0v0.1l0,0l0,0
			l3.4,2.1l1.6,3.1l0.4,4l0,0h-1.1h-2.1h-1.1l0,0l-0.6-4.3l-1.8-2.4l-3.6-0.8l0,0h-0.9h-1.7h-0.9l0,0v7.6h-3.9V379.9L511.8,379.9z
			 M515.7,389.9h1.2h2.2h1.2l0,0l2.9-0.4l1.7-1.2l0.5-2l0,0l-0.4-1.6l-1.4-1.1l-2.6-0.4l0,0h-1.4H517h-1.3l0,0V389.9L515.7,389.9z
			 M519.8,372.7l2.9,0.2l2.8,0.7l2.6,1.1l2.3,1.4l2.1,1.8l1.8,2.1l1.5,2.3l1.1,2.6l0.7,2.8l0.3,2.9l0,0l-0.3,2.9l-0.7,2.8l-1.1,2.6
			l-1.5,2.4l-1.8,2.1l-2.1,1.8l-2.3,1.4l-2.6,1.1l-2.8,0.7l-2.9,0.3l0,0l-2.9-0.3l-2.8-0.7l-2.6-1.1l-2.4-1.4l-2.1-1.8l-1.8-2.1
			l-1.4-2.4l-1.1-2.6l-0.7-2.8l-0.2-2.9l0,0l0.2-2.9l0.7-2.8l1.1-2.6l1.4-2.3l1.8-2.1l2.1-1.8l2.4-1.4l2.6-1.1l2.8-0.7L519.8,372.7
			L519.8,372.7L519.8,372.7z M519.8,406.6l2.9-0.3l2.7-0.8l2.5-1.2l2.3-1.6l1.9-1.9l1.6-2.2l1.2-2.5l0.8-2.8l0.3-2.9l0,0l-0.3-2.9
			l-0.8-2.7l-1.2-2.5l-1.6-2.2l-1.9-1.9l-2.3-1.6l-2.5-1.2l-2.7-0.8l-2.9-0.2l0,0l-2.9,0.2l-2.7,0.8l-2.4,1.2l-2.3,1.6l-1.9,1.9
			l-1.6,2.2l-1.2,2.5l-0.8,2.7l-0.3,2.9l0,0l0.3,2.9l0.8,2.8l1.2,2.5l1.6,2.2l1.9,1.9l2.3,1.6l2.4,1.2l2.7,0.8L519.8,406.6
			L519.8,406.6L519.8,406.6z"/>
	</g>
</g>
</svg>
