<?xml version="1.0" encoding="utf-8"?>
<!-- Generator: Adobe Illustrator 18.1.1, SVG Export Plug-In . SVG Version: 6.00 Build 0)  -->
<svg version="1.1" id="Layer_1" xmlns="http://www.w3.org/2000/svg" xmlns:xlink="http://www.w3.org/1999/xlink" x="0px" y="0px"
	 viewBox="0 0 640 480" enable-background="new 0 0 640 480" xml:space="preserve">
<g>
	<path fill="#D1271C" d="M315.1,5h14.4C387,7.6,443.4,31.4,484.4,72c43.8,42.4,69.7,102.4,70.6,163.4v9.4
		c-1,60.1-26.1,119.2-68.7,161.5c-42.9,43.1-102.9,68.5-163.8,68.7h-4.7c-52.3-0.2-104.1-18.6-144.7-51.4
		C119.1,381,86,313.5,85,244.7v-9.3c1-61,26.8-121,70.6-163.5C197.7,30.4,256,6.1,315.1,5L315.1,5z"/>
	<path fill="#FFFFFF" d="M272.3,117.8c13.9,0,27.8,0,41.7,0c9.1,61.7,18.9,123.2,27.9,184.9c1.3,6.6-0.5,15.1,5.3,19.9
		c-1.1-68.2-0.6-136.4-1.4-204.7c8.8,0,17.7-0.1,26.5-0.1c-0.4,81.6,0.1,163.3-0.4,244.9c-14.5,1.7-29.2,2.2-43.7,4.5
		c-9.5-61.9-19.8-123.8-28.3-185.9c-0.1-2.9-1.4-5.1-3.9-6.4c1.4,65.1,1.8,130.2,2.1,195.3c-8.6,1.1-17.1,2.1-25.7,2.9
		C272.7,288,272.7,202.9,272.3,117.8L272.3,117.8z"/>
</g>
</svg>
