<?xml version="1.0" encoding="utf-8"?>
<!-- Generator: Adobe Illustrator 19.2.1, SVG Export Plug-In . SVG Version: 6.00 Build 0)  -->
<svg version="1.1" id="Layer_1" xmlns="http://www.w3.org/2000/svg" xmlns:xlink="http://www.w3.org/1999/xlink" x="0px" y="0px"
	 viewBox="0 0 640 480" style="enable-background:new 0 0 640 480;" xml:space="preserve">
<path d="M320,231.1c-5.2,0-9.2,3.6-9.2,8.9c0,5.3,4.1,8.9,9.2,8.9s9.2-3.6,9.2-8.9C329.2,234.7,325.2,231.1,320,231.1z M320,246.3
	c-3.7,0-6.4-2.7-6.4-6.3c0-3.6,2.7-6.4,6.4-6.4c3.7,0,6.4,2.8,6.4,6.4C326.4,243.6,323.6,246.3,320,246.3z"/>
<path d="M92.2,139.5C37.3,204-14.4,289.7,31.3,329.2c44.3,38.3,99.7,15.6,137.4,0.5c37.7-15.1,455-196.3,455-196.3
	c4-2,3.3-4.5-1.8-3.3c-2,0.5-454.3,123.1-454.3,123.1C110.3,269.3,44.9,234.2,92.2,139.5z"/>
<path d="M321.4,240.6c1.3-0.1,2.3-0.7,2.3-2.5c0-2.3-1.5-2.9-4-2.9h-3.6v9.6h2.4v-4.1h0.4l2.2,4.1h2.8L321.4,240.6z M319.9,239.1
	h-1.4v-2.2h1.2c0.7,0,1.5,0.1,1.5,1C321.2,238.9,320.7,239.1,319.9,239.1z"/>
<path d="M320,231.1c-5.2,0-9.2,3.6-9.2,8.9c0,5.3,4.1,8.9,9.2,8.9s9.2-3.6,9.2-8.9C329.2,234.7,325.2,231.1,320,231.1z M320,246.3
	c-3.7,0-6.4-2.7-6.4-6.3c0-3.6,2.7-6.4,6.4-6.4c3.7,0,6.4,2.8,6.4,6.4C326.4,243.6,323.6,246.3,320,246.3z"/>
<path d="M321.4,240.6c1.3-0.1,2.3-0.7,2.3-2.5c0-2.3-1.5-2.9-4-2.9h-3.6v9.6h2.4v-4.1h0.4l2.2,4.1h2.8L321.4,240.6z M319.9,239.1
	h-1.4v-2.2h1.2c0.7,0,1.5,0.1,1.5,1C321.2,238.9,320.7,239.1,319.9,239.1z"/>
</svg>
