<?xml version="1.0" encoding="utf-8"?>
<!-- Generator: Adobe Illustrator 21.1.0, SVG Export Plug-In . SVG Version: 6.00 Build 0)  -->
<svg version="1.1" baseProfile="tiny" xmlns="http://www.w3.org/2000/svg" xmlns:xlink="http://www.w3.org/1999/xlink" x="0px"
	 y="0px" viewBox="0 0 640 480" overflow="scroll" xml:space="preserve">
<g id="Layer_3">
	<path id="path2045" fill="#77B900" d="M238.8,154.4v-38.3c3.7-0.3,7.5-0.5,11.3-0.6c104.6-3.3,173.3,89.9,173.3,89.9
		s-74.1,103-153.6,103c-11.4,0-21.7-1.9-30.9-4.9v-116c40.7,4.9,48.9,22.9,73.4,63.7l54.5-45.9c0,0-39.8-52.1-106.8-52.1
		C252.6,153.1,245.6,153.6,238.8,154.4 M238.8,28v57.1c3.8-0.3,7.5-0.5,11.3-0.7c145.5-4.9,240.3,119.3,240.3,119.3
		S381.5,336.2,268.1,336.2c-10.4,0-20.1-1-29.3-2.6v35.3c7.8,1,15.9,1.6,24.4,1.6c105.6,0,181.9-53.9,255.8-117.7
		c12.2,9.8,62.4,33.7,72.7,44.1c-70.3,58.8-234.1,106.3-326.9,106.3c-8.9,0-17.6-0.5-26-1.4v49.6H640V28H238.8z M238.8,303.5v30.1
		c-97.6-17.4-124.7-118.9-124.7-118.9s46.9-51.9,124.7-60.3v33.1c-0.1,0-0.1,0-0.2,0c-40.8-4.9-72.8,33.3-72.8,33.3
		S183.8,285,238.8,303.5 M65.4,210.3c0,0,57.9-85.4,173.4-94.2v-31C110.8,95.4,0,203.8,0,203.8s62.8,181.5,238.8,198.1v-32.9
		C109.6,352.7,65.4,210.3,65.4,210.3"/>
</g>
<g id="Layer_2">
</g>
</svg>
