<?xml version="1.0" encoding="utf-8"?>
<!-- Generator: Adobe Illustrator 19.2.1, SVG Export Plug-In . SVG Version: 6.00 Build 0)  -->
<svg version="1.1" id="Layer_1" xmlns="http://www.w3.org/2000/svg" xmlns:xlink="http://www.w3.org/1999/xlink" x="0px" y="0px"
	 viewBox="0 0 640 480" style="enable-background:new 0 0 640 480;" xml:space="preserve">
<style type="text/css">
	.st0{fill:none;}
	.st1{fill:#006FBA;}
</style>
<path class="st0" d="M347.1,199.7c0.5-5.4-0.1-10.5-5.6-12.3c-6.8-2.4-15.2,2-21.6,11.7c-9.6,14.8-10.1,32.9-9,44.4
	C317.5,240.7,343.9,220.1,347.1,199.7z"/>
<path class="st0" d="M244.9,318.1c0,25.3,21,30.2,33.6,29c13.7-1.3,28.2-8.7,31.9-11c-12.4-16.4-23.9-40-29.2-61
	C268.4,280.7,244.9,296.5,244.9,318.1z"/>
<path class="st0" d="M182.2,135c-0.4,0-12,0-12,0l-37.3,118.8c0,0,50.6,13.8,73.5-53.3C228.1,136.6,194.3,135,182.2,135z"/>
<path class="st1" d="M272.7,204.8c28.5-70.4-24.8-89.4-59.6-89.4H98c9.6,6.6,8,15.3,6.1,20.7l-67,214.3
	c-2.7,8.5-12.7,17.4-18.1,18.8l93.2,0c-5.1-0.9-12.5-8.2-9.8-18.2l24.3-77.5C126.7,273.4,238.8,288.5,272.7,204.8z M206.3,200.5
	c-22.9,67.1-73.5,53.3-73.5,53.3L170.1,135c0,0,11.6,0,12,0C194.3,135,228.1,136.6,206.3,200.5z"/>
<path class="st1" d="M348.3,330.2c9.5-10.4,21.3-23.5,23.5-50.2h-32.5c0,0,6.3,3.6,6.3,11.2c0,7.1-2.8,16.8-8.3,23.7
	c-9.5-14.1-19.7-30.2-23.2-53.8c12.7-6.4,30.7-13.2,44.9-25.7c13.5-11.8,16.6-23,16.8-30.3c0-0.3,0-0.6,0-0.9c0-7.6-3-14.8-8.5-20.2
	c-9.4-9.3-24.3-13.1-39.8-10.2c-12.5,2.4-23.2,9-28.6,14c-19,17.7-21.4,47-21.4,60.2c0,3.2,0.1,5.7,0.3,7.1c-1.1,0.4-3,1.2-3,1.2
	c-13.8,5.1-50.7,15-63.9,45.3c-1.7,3.8-4.1,12.1-4.1,21.8c0,8.3,1.8,17.6,7.2,26.1c9.3,14.5,25.1,23.7,50.4,23.3
	c27.5-0.5,54.5-19.2,59.4-22.6c4.8,4.4,17.1,16,23.5,19l62.6,0C389.7,362.7,360.1,343.7,348.3,330.2z M278.5,347.1
	c-12.6,1.2-33.6-3.7-33.6-29c0-21.6,23.6-37.4,36.3-42.9c5.3,21,16.9,44.6,29.2,61C306.7,338.5,292.1,345.8,278.5,347.1z M320,199.1
	c6.4-9.8,14.8-14.1,21.6-11.7c5.4,1.8,6.1,6.9,5.6,12.3c-3.3,20.4-29.7,41-36.1,43.8C309.9,232,310.4,213.9,320,199.1z"/>
<path class="st1" d="M524.4,259.8l-28.7,91.7c-3.8,0.8-84.3,20.8-39.2-119.9c9.7-30.2,36.9-85.7,81.2-96.3
	c37.2-8.9,67.9,20.2,70.7,22.2l10.7-33.8c-14.7-4.4-121.6-40.6-197.1,45.6c-46.4,53-57.8,161.7,1.1,190.8
	c63.1,31.2,132.7-4.8,137.8-7.3l28.8-91.7c3.1-11.1,10.1-18.3,22.6-22.9H512.1C526.7,244.3,525.6,255.4,524.4,259.8z"/>
</svg>
