<?xml version="1.0" encoding="utf-8"?>
<!-- Generator: Adobe Illustrator 22.1.0, SVG Export Plug-In . SVG Version: 6.00 Build 0)  -->
<svg version="1.1" id="Layer_1" xmlns="http://www.w3.org/2000/svg" xmlns:xlink="http://www.w3.org/1999/xlink" x="0px" y="0px"
	 viewBox="0 0 640 480" style="enable-background:new 0 0 640 480;" xml:space="preserve">
<style type="text/css">
	.st0{fill:#00529C;}
	.st1{fill:#0099D8;}
	.st2{fill:#F47937;}
	.st3{fill:#009D57;}
	.st4{fill:#ED1C24;}
</style>
<g>
	<path class="st0" d="M535.2,346.1c5.9-131.6-107.9-279.7-261.9-298.7V45c152.9,0,270.2,141,270.2,253.6c0,23.7-2.4,37.9-4.7,48.6
		L535.2,346.1z M526.9,363.9c-10.7,11.9-22.5,24.9-37.9,36.7C460.5,241.8,344.3,103.1,261.4,62.8l-1.2,1.2
		c83,67.6,181.3,200.3,220.4,342.5c-19,13-39.1,26.1-62.8,35.6c-78.2-88.9-150.5-260.7-174.2-369.8l-2.4,1.2
		c0,105.5,75.9,285.6,167.1,373.3c-20.1,8.3-42.7,14.2-65.2,17.8c-87.7-34.4-150.5-145.8-150.5-260.7c0-74.7,22.5-120.9,27.3-130.4
		l-2.4-1.2c-4.7,8.3-39.1,54.5-39.1,135.1c0,129.2,64,227.6,148.1,258.4c-28.4,3.6-59.3,2.4-90.1-4.7l-1.2,2.4
		c9.5,3.6,40.3,16.6,86.5,16.6c105.5,0,177.8-65.2,206.2-116.1L526.9,363.9z"/>
	<path class="st1" d="M311.2,0c-80.6,0-174.2,58.1-174.2,111.4c0,20.1,19,37.9,58.1,37.9c90.1,0,174.2-61.6,174.2-110.2
		C368,13,344.3,0,311.2,0z M343.2,36.7c0,40.3-78.2,90.1-143.4,90.1c-28.4,0-43.9-11.9-43.9-29.6c0-41.5,78.2-90.1,139.9-90.1
		C336,7.1,343.2,27.3,343.2,36.7z"/>
	<path class="st2" d="M104.9,135.1c-2.4,3.6-11.9,21.3-11.9,40.3c0,33.2,34.4,65.2,96,65.2c119.7,0,259.6-88.9,259.6-170.7
		c0-36.7-34.4-56.9-59.3-60.4v1.2c7.1,2.4,35.6,15.4,35.6,48.6c0,65.2-122.1,154.1-245.3,154.1c-46.2,0-75.9-22.5-75.9-56.9
		c0-10.7,2.4-17.8,2.4-20.1L104.9,135.1z"/>
	<path class="st3" d="M498.4,74.7c3.6,2.4,22.5,19,22.5,49.8c0,106.7-167.1,211-314.1,211c-87.7,0-128-43.9-125.6-81.8h2.4
		c3.6,20.1,32,55.7,109,55.7c148.1,0,312.9-107.9,312.9-202.7c0-16.6-4.7-26.1-7.1-30.8V74.7z"/>
	<path class="st4" d="M554.1,174.2c1.2,2.4,4.7,11.9,4.7,28.4c0,118.5-168.3,219.3-315.3,219.3c-75.9,0-115-36.7-123.3-51l1.2-1.2
		c21.3,17.8,61.6,32,110.2,32c129.2,0,323.6-98.4,321.2-227.6L554.1,174.2z"/>
</g>
</svg>
