<?xml version="1.0" encoding="utf-8"?>
<!-- Generator: Adobe Illustrator 19.1.1, SVG Export Plug-In . SVG Version: 6.00 Build 0)  -->
<svg version="1.1" id="Layer_1" xmlns="http://www.w3.org/2000/svg" xmlns:xlink="http://www.w3.org/1999/xlink" x="0px" y="0px"
	 viewBox="-159 41 640 480" style="enable-background:new -159 41 640 480;" xml:space="preserve">
<style type="text/css">
	.st0{fill:#0071CE;}
</style>
<g>
	<path class="st0" d="M-36.7,198l-21.8,82.4c19.5,0,32.3,0.7,42.8-43.8C-7.6,202.1-15.7,197.1-36.7,198z"/>
	<path class="st0" d="M161.1,83c-173.9,0-314.9,88.7-314.9,198c0,67.1,53.1,126.4,134.3,162.2l32.8-121.4
		c12.9-48.5,27.9-101.6,33.9-123.9c10.2-37.5,38.9-74.5,80.4-73.6c35.8,0.9,42.3,22.9,42.9,34.1c1,18.1-15.4,26.3-22.7,26.3
		c-11.2,0-20.4-9.7-20.4-21.4s9.3-22.4,20.4-22.4c-0.5-5.6-11.4-10-20.1-10c-14.8,0-25.7,15.2-28.3,25.2L78,236.5h67.2l-28.2,106H77
		l24.7-92.7H74.4L18.6,457.6c42.8,13.6,91.2,21.4,142.4,21.4c173.9,0,314.9-88.7,314.9-198S335,83,161.1,83z M27.2,236.6
		c-9.3,41.9-22.3,58-89.1,57l-13.1,48.9h-41L-77.6,198h-17.6l3.5-13.2h79.9C17.5,184.8,33.7,207.4,27.2,236.6z M216.3,342.5h-84.8
		l57.8-92.7h-34.1l3.5-13.2h85.7l-58.8,92.7h34.1L216.3,342.5z M341.7,289.1c-0.3,1.6-0.5,2.8-1.1,4.6h-67.3l-5.2,19.4
		c-3,11.2,0.5,20.3,7.7,20.3c7.2,0,13.7-2,18.6-20.3l2.4-9.2h40.9c-12.6,36.2-37.8,43.7-64.5,42.8c-29.7-1.1-46.5-26.2-38.8-57.5
		c11.6-47.4,39.4-57.5,69.4-57.5C331.7,231.5,349.1,254,341.7,289.1z M438.2,277.2c-10.6,0-22.5-8.9-19.1-25.3
		c-3.2-2.8-14.3,17.5-20.1,34.7c0.1,0.1-14.9,56-14.9,56h-39.9l24.6-92.7h-14.6l3.5-13.2h54.5l-4.4,17.3
		c8.9-14.5,21.5-20.2,30.5-20.2c11,0,20,9.8,20,21.8C458.2,267.4,449.2,277.2,438.2,277.2z"/>
	<path class="st0" d="M299.4,244.8c-8.8-0.5-15.5,9.2-18.6,20.3l-3.8,14.3h26.4l3.8-14.3C310.1,254,308,244.8,299.4,244.8z"/>
</g>
</svg>
