<?xml version="1.0" encoding="UTF-8" standalone="no"?>
<!-- Created with Inkscape (http://www.inkscape.org/) -->
<svg
   xmlns:svg="http://www.w3.org/2000/svg"
   xmlns="http://www.w3.org/2000/svg"
   version="1.0"
   width="1133.8583"
   height="847.91339"
   id="svg2">
  <defs
     id="defs4" />
  <g
     transform="translate(-2635.0229,1080.848)"
     id="layer1">
    <g
       transform="matrix(2.4480182,0,0,2.4480182,-3780.1278,475.37393)"
       id="g5606">
      <g
         transform="matrix(6.8140539,0,0,-6.8140539,3066.8226,-510.62362)"
         id="g4913"
         style="fill:#000000">
        <path
           d="M 0,0 C 0,0.177 0.059,0.369 0.14,0.527 C 0.242,0.692 0.356,0.911 0.356,1.119 C 0.356,1.205 0.336,1.291 0.29,1.37 C 0.121,1.664 -0.275,1.648 -0.56,1.638 L -0.732,1.637 C -0.81,1.656 -1.008,1.734 -1.202,1.811 C -1.549,1.952 -1.937,2.111 -2.213,2.144 C -2.437,2.174 -2.713,2.101 -3.031,2.018 C -3.367,1.93 -3.748,1.831 -4.052,1.868 C -4.328,1.901 -4.711,2.056 -5.045,2.194 C -5.974,2.551 -6.828,2.356 -7.42,2.132 C -8.277,1.784 -8.92,1.214 -9.32,0.443 C -10.102,-1.074 -9.773,-3.033 -9.139,-4.213 C -8.871,-4.697 -7.943,-6.267 -7.453,-6.938 C -7.439,-6.957 -7.42,-6.973 -7.402,-6.989 C -7.412,-6.992 -7.42,-6.993 -7.42,-6.993 C -8.119,-7.277 -8.222,-8.107 -8.222,-8.577 C -8.222,-8.738 -8.211,-8.86 -8.206,-8.899 C -8.177,-9.16 -8.088,-9.322 -7.945,-9.381 C -7.851,-9.422 -7.744,-9.407 -7.66,-9.346 C -7.656,-9.342 -7.24,-9.035 -6.666,-9.089 C -6.187,-9.135 -5.287,-9.475 -5.287,-10.445 C -5.287,-11.357 -6.037,-12.374 -7.039,-12.374 C -7.904,-12.374 -8.412,-11.959 -8.539,-11.49 C -8.617,-10.567 -8.919,-9.78 -9.058,-9.559 C -9.123,-9.459 -9.203,-9.383 -9.287,-9.302 C -9.564,-9.033 -9.986,-8.629 -10.086,-6.854 C -10.196,-4.897 -10.992,-3.035 -11.574,-1.816 C -11.452,-1.845 -11.322,-1.854 -11.184,-1.839 C -10.528,-1.76 -10.504,-1.023 -10.482,-0.314 L -10.467,0.036 C -10.442,0.58 -10.27,0.621 -9.982,0.687 L -9.807,0.732 C -9.433,0.848 -9.36,1.019 -9.36,1.314 C -9.36,1.403 -9.367,1.506 -9.375,1.621 L -9.385,1.794 C -9.385,1.811 -9.386,1.831 -9.386,1.846 C -9.386,2.126 -9.228,2.216 -8.939,2.279 L -8.883,2.293 C -8.71,2.335 -8.621,2.385 -8.445,2.477 L -8.367,2.521 C -8.162,2.633 -8.106,2.802 -8.106,2.974 C -8.106,3.139 -8.16,3.306 -8.199,3.426 L -8.211,3.46 C -8.235,3.524 -8.246,3.57 -8.246,3.618 C -8.246,3.714 -8.185,3.804 -7.972,4.025 C -7.728,4.285 -7.654,4.511 -7.654,4.69 C -7.654,4.886 -7.744,5.025 -7.785,5.093 L -7.798,5.109 C -7.849,5.198 -7.912,5.327 -7.928,5.537 C -7.908,5.635 -7.635,5.867 -7.502,5.981 L -7.219,6.236 C -7.09,6.382 -7.029,6.572 -7.029,6.74 C -7.029,6.866 -7.062,6.985 -7.127,7.061 C -7.222,7.179 -7.377,7.208 -7.508,7.132 L -7.486,7.143 C -8.025,6.881 -8.656,7.383 -9.15,7.848 C -9.347,8.038 -9.552,8.523 -9.733,8.952 C -9.894,9.336 -10.033,9.668 -10.188,9.865 C -10.324,10.038 -10.496,10.206 -10.664,10.367 C -10.895,10.592 -11.129,10.822 -11.274,11.066 C -11.398,11.273 -11.461,11.613 -11.519,11.912 C -11.577,12.227 -11.637,12.521 -11.758,12.717 C -11.873,12.904 -12.026,12.953 -12.131,12.964 C -12.424,12.988 -12.66,12.737 -12.707,12.687 C -13.061,12.333 -14.311,11.916 -14.649,11.916 L -15.262,11.928 C -15.727,11.938 -16.252,11.95 -16.519,11.935 C -16.783,11.921 -17.045,11.787 -17.302,11.658 C -17.477,11.568 -17.66,11.476 -17.791,11.455 C -17.924,11.432 -18.096,11.44 -18.294,11.454 C -18.582,11.469 -18.94,11.488 -19.322,11.411 C -19.59,11.354 -19.776,11.234 -19.873,11.054 C -20.026,10.769 -19.899,10.448 -19.836,10.295 C -19.835,10.291 -19.77,10.15 -19.77,10.15 C -19.664,9.929 -19.615,9.789 -19.682,9.733 C -20.026,9.439 -19.887,8.967 -19.842,8.812 C -19.791,8.642 -19.703,8.409 -19.496,8.305 C -19.365,8.238 -19.213,8.235 -19.044,8.298 L -19.061,8.291 C -18.75,8.376 -18.071,8.347 -17.819,8.148 C -17.75,8.095 -17.746,8.054 -17.746,8.014 C -17.756,7.754 -17.787,7.74 -18.206,7.659 L -18.586,7.575 C -19.061,7.452 -19.244,7.217 -19.311,7.041 C -19.371,6.883 -19.365,6.71 -19.287,6.599 L -19.178,6.467 C -19.072,6.346 -18.894,6.14 -18.68,5.844 C -18.461,5.536 -18.236,5.474 -18.086,5.476 C -17.898,5.479 -17.746,5.584 -17.654,5.694 C -17.166,6.055 -16.637,6.134 -16.276,6.158 C -15.977,6.181 -15.279,6.35 -14.828,6.487 C -14.827,6.437 -14.827,6.389 -14.827,6.34 C -14.827,6.162 -14.838,5.988 -14.875,5.88 L -14.894,5.822 C -15.357,4.439 -16.419,3.677 -18.049,3.554 L -19.069,3.493 C -21.1,3.383 -22.456,3.309 -22.456,1.221 L -22.456,1.22 C -22.783,1.194 -23.088,1.228 -23.358,1.299 L -23.377,1.283 C -23.46,1.4 -23.545,1.519 -23.631,1.633 C -24.344,2.56 -25.148,3.343 -26.012,3.969 C -26.571,5.184 -26.324,6.664 -25.725,7.134 C -25.586,7.046 -25.424,6.993 -25.248,6.993 C -24.756,6.993 -24.361,7.392 -24.361,7.886 C -24.361,8.005 -24.381,8.119 -24.428,8.223 C -24.335,8.199 -24.242,8.183 -24.145,8.183 C -23.574,8.183 -23.108,8.65 -23.108,9.222 C -23.108,9.408 -23.157,9.583 -23.244,9.735 C -23.174,9.723 -23.102,9.715 -23.026,9.715 C -22.34,9.715 -21.782,10.273 -21.782,10.959 C -21.782,11.438 -22.059,11.857 -22.46,12.062 C -21.947,12.217 -21.578,12.693 -21.578,13.253 C -21.578,13.937 -22.135,14.496 -22.822,14.496 C -23.02,14.496 -23.211,14.448 -23.377,14.362 C -23.327,14.504 -23.299,14.653 -23.299,14.812 C -23.299,15.555 -23.903,16.159 -24.644,16.159 C -25.151,16.159 -25.59,15.877 -25.821,15.465 C -25.94,15.906 -26.344,16.232 -26.822,16.232 C -27.357,16.232 -27.798,15.824 -27.854,15.305 C -28.016,15.493 -28.258,15.614 -28.528,15.614 C -28.899,15.614 -29.213,15.389 -29.348,15.069 L -29.585,15.069 C -30.092,15.069 -30.197,15.482 -30.197,15.593 C -30.197,15.92 -30.494,16.148 -30.923,16.148 L -31.998,16.148 C -32.427,16.148 -32.725,15.92 -32.725,15.593 C -32.725,15.482 -32.828,15.069 -33.338,15.069 L -33.539,15.069 C -33.674,15.389 -33.99,15.614 -34.361,15.614 C -34.627,15.614 -34.869,15.493 -35.033,15.305 C -35.088,15.824 -35.532,16.232 -36.065,16.232 C -36.544,16.232 -36.946,15.906 -37.067,15.465 C -37.295,15.877 -37.736,16.159 -38.242,16.159 C -38.986,16.159 -39.588,15.555 -39.588,14.812 C -39.588,14.653 -39.561,14.504 -39.51,14.362 C -39.678,14.448 -39.865,14.496 -40.067,14.496 C -40.752,14.496 -41.309,13.937 -41.309,13.253 C -41.309,12.693 -40.938,12.217 -40.428,12.062 C -40.831,11.857 -41.104,11.438 -41.104,10.959 C -41.104,10.273 -40.548,9.715 -39.861,9.715 C -39.785,9.715 -39.715,9.723 -39.644,9.735 C -39.732,9.583 -39.779,9.408 -39.779,9.222 C -39.779,8.65 -39.315,8.183 -38.742,8.183 C -38.645,8.183 -38.552,8.199 -38.463,8.223 C -38.506,8.119 -38.529,8.005 -38.529,7.886 C -38.529,7.392 -38.131,6.993 -37.641,6.993 C -37.444,6.993 -37.266,7.056 -37.119,7.163 C -36.492,6.689 -36.377,5.152 -36.894,3.995 C -37.779,3.365 -38.592,2.574 -39.313,1.633 C -40.207,0.466 -40.919,-0.886 -41.416,-2.327 C -41.309,-1.439 -41.394,-0.654 -41.677,0.016 C -42.578,2.161 -44.49,2.97 -45.765,3.608 L -46.423,3.951 C -47.452,4.54 -47.949,5.2 -48.278,5.636 L -48.508,5.928 C -48.52,5.942 -48.528,5.952 -48.537,5.963 C -48.512,5.958 -48.486,5.947 -48.46,5.942 C -48.09,5.884 -47.529,5.686 -47.232,5.459 L -46.835,5.125 C -46.496,4.832 -46.265,4.635 -46.14,4.563 C -45.785,4.365 -45.192,4.406 -44.946,4.615 C -44.838,4.706 -44.805,4.834 -44.805,4.959 C -44.805,5.125 -44.865,5.29 -44.891,5.366 C -44.914,5.425 -44.928,5.471 -44.94,5.512 C -44.923,5.504 -44.907,5.496 -44.894,5.49 L -44.68,5.402 C -44.305,5.295 -43.957,5.547 -43.778,5.841 C -43.565,6.189 -43.607,6.792 -44.194,7.292 C -44.494,7.545 -45.361,8.394 -46.053,9.078 C -46.602,9.619 -47.037,10.048 -47.174,10.165 C -47.302,10.273 -47.506,10.508 -47.594,10.63 C -47.523,10.82 -47.469,11.045 -47.592,11.21 C -47.727,11.383 -47.946,11.354 -48.063,11.34 C -48.063,11.34 -48.125,11.333 -48.131,11.333 C -48.145,11.336 -48.158,11.34 -48.158,11.34 C -48.178,11.345 -48.202,11.349 -48.223,11.352 L -48.242,11.347 C -48.25,11.348 -48.262,11.349 -48.278,11.351 C -48.14,11.667 -47.982,12.129 -47.822,12.756 C -47.648,13.452 -47.746,14.069 -48.096,14.45 C -48.344,14.722 -48.71,14.842 -49.1,14.779 C -49.727,14.677 -50.229,14.193 -50.557,13.789 L -50.684,14.181 L -50.934,14.1 L -52.127,13.716 L -51.99,13.291 C -52.498,13.435 -53.219,13.554 -53.807,13.26 C -54.162,13.082 -54.39,12.77 -54.432,12.404 C -54.494,11.892 -54.215,11.335 -53.664,10.871 C -53.46,10.701 -53.282,10.56 -53.121,10.445 C -53.154,10.422 -53.186,10.4 -53.21,10.381 C -53.377,10.239 -53.533,10.077 -53.673,9.93 L -53.857,9.735 C -54.686,8.996 -55.762,8.474 -56.799,8.342 C -56.936,8.33 -57.049,8.228 -57.072,8.087 C -57.115,7.835 -56.846,7.537 -56.407,7.348 C -55.965,7.16 -55.873,6.58 -56.092,5.408 L -56.102,5.361 C -56.123,5.257 -56.16,5.084 -56.024,4.956 C -55.875,4.817 -55.654,4.845 -55.274,4.951 L -55.203,4.97 C -55.153,4.984 -55.1,5 -55.052,5.011 C -55.067,4.95 -55.085,4.865 -55.102,4.801 L -55.127,4.688 L -55.148,4.571 C -55.199,4.304 -55.262,3.972 -55.262,3.668 C -55.262,3.49 -55.24,3.325 -55.184,3.182 C -55.033,2.81 -54.67,2.22 -54.461,2.011 C -54.332,1.883 -54.197,1.822 -54.057,1.828 C -53.85,1.839 -53.702,1.986 -53.611,2.097 C -53.611,2.097 -53.604,2.105 -53.6,2.109 C -53.574,2.053 -53.544,1.977 -53.498,1.858 L -53.492,1.832 C -53.35,1.424 -53.052,0.573 -51.899,0.228 C -51.692,0.166 -51.452,0.11 -51.24,0.228 C -51.088,0.316 -50.986,0.474 -50.924,0.719 C -50.895,0.84 -50.883,0.97 -50.871,1.097 C -50.867,1.127 -50.865,1.162 -50.861,1.195 C -50.838,1.176 -50.819,1.15 -50.789,1.117 C -50.375,0.551 -49.748,-0.702 -49.748,-2.085 C -49.748,-2.441 -49.789,-2.805 -49.885,-3.166 C -50.044,-3.744 -50.233,-4.178 -50.401,-4.561 C -50.526,-4.836 -50.615,-5.104 -50.713,-5.359 C -51.063,-5.725 -51.903,-6.19 -52.461,-6.499 L -52.798,-6.688 C -53.335,-6.993 -54.927,-8.558 -55.041,-10.623 C -55.045,-10.662 -55.045,-10.699 -55.048,-10.735 C -55.99,-11.057 -56.611,-11.008 -56.946,-10.593 C -57.662,-9.709 -57.121,-8.827 -56.338,-7.766 L -56.094,-7.43 L -55.85,-7.1 C -55.85,-7.1 -55.637,-6.834 -55.621,-6.807 C -55.608,-6.862 -55.598,-6.916 -55.586,-6.981 L -55.49,-7.401 L -55.407,-7.733 C -55.344,-8.022 -55.154,-8.08 -55.077,-8.091 C -54.967,-8.107 -54.783,-8.295 -54.299,-7.39 C -54.196,-7.197 -53.998,-6.865 -53.778,-6.522 L -53.41,-5.945 C -53.026,-5.316 -53.115,-4.888 -53.721,-4.473 C -53.96,-4.31 -53.942,-4.225 -53.736,-3.823 L -53.67,-3.701 C -53.482,-3.32 -52.699,-0.851 -53.835,0.899 C -54.625,2.122 -55.742,3.257 -57.258,2.911 C -58.121,2.713 -58.694,2.386 -59.248,2.068 C -59.791,1.755 -60.305,1.457 -61.053,1.347 C -61.528,1.28 -62.688,0.894 -62.736,0.881 C -62.891,0.828 -63.1,0.758 -63.115,0.535 C -63.115,0.527 -63.115,0.523 -63.115,0.516 C -63.115,0.276 -62.85,0.154 -62.519,0.004 C -62.131,-0.17 -61.967,-0.31 -61.885,-0.408 C -62.065,-0.699 -62.795,-1.497 -62.949,-1.606 C -63.09,-1.689 -63.174,-1.826 -63.174,-1.972 C -63.174,-1.996 -63.174,-2.02 -63.169,-2.044 C -63.121,-2.287 -62.869,-2.449 -62.416,-2.525 C -62.414,-2.525 -62.412,-2.526 -62.41,-2.526 L -62.416,-2.604 C -62.465,-3.111 -62.539,-3.875 -62.21,-4.385 L -62.141,-4.492 C -61.871,-4.907 -61.309,-5.773 -61.287,-6.076 C -61.279,-6.177 -61.313,-6.31 -61.346,-6.44 C -61.401,-6.66 -61.46,-6.888 -61.342,-7.08 C -61.299,-7.154 -61.211,-7.247 -61.037,-7.286 C -60.515,-7.408 -60.319,-6.988 -60.16,-6.649 L -60.072,-6.467 C -59.861,-6.039 -59.567,-5.453 -59.211,-4.861 L -58.979,-4.504 C -58.567,-3.889 -58.008,-2.822 -58.131,-1.955 C -58.045,-1.958 -57.977,-1.961 -57.957,-1.964 C -57.857,-1.978 -57.75,-1.991 -57.649,-1.965 L -57.549,-1.944 C -57.371,-1.91 -57.123,-1.864 -57.067,-1.63 C -57.01,-1.401 -57.207,-1.21 -57.407,-1.055 C -57.658,-0.86 -57.938,-0.045 -57.795,0.478 C -57.692,0.86 -57.508,1.066 -57.242,1.111 C -56.696,1.204 -55.844,0.623 -55.446,0.04 C -55.1,-0.463 -54.952,-1.071 -54.952,-1.58 C -54.952,-1.759 -54.967,-1.925 -55,-2.067 C -55.123,-2.625 -55.233,-2.68 -55.236,-2.68 C -55.256,-2.686 -55.332,-2.662 -55.379,-2.648 L -55.559,-2.602 C -55.949,-2.53 -56.414,-2.633 -56.711,-2.857 L -56.809,-2.925 C -57.041,-3.081 -57.358,-3.293 -57.315,-3.614 C -57.276,-3.905 -56.965,-4.044 -56.736,-4.124 C -56.557,-4.184 -56.508,-4.285 -56.486,-4.357 C -56.381,-4.729 -56.746,-5.409 -57.024,-5.752 L -57.166,-5.926 L -57.508,-6.381 C -58.885,-8.147 -59.332,-9.854 -58.736,-11.065 C -58.377,-11.794 -57.479,-12.662 -55.242,-12.666 C -55.336,-13.155 -55.465,-13.474 -55.666,-13.794 C -56.213,-14.669 -57.14,-14.757 -57.637,-14.805 L -57.799,-14.822 L -57.924,-14.83 C -58.072,-14.84 -58.274,-14.852 -58.428,-15.024 C -58.623,-15.242 -58.677,-15.659 -58.621,-16.511 C -58.545,-17.643 -58.674,-18.263 -58.774,-18.716 C -58.809,-18.893 -58.85,-19.085 -58.865,-19.241 C -58.869,-19.341 -58.904,-19.503 -58.936,-19.638 C -58.977,-19.81 -59.023,-19.998 -59.023,-20.175 C -59.023,-20.317 -58.992,-20.45 -58.914,-20.566 C -58.817,-20.706 -58.664,-20.79 -58.461,-20.819 L -57.949,-20.848 C -57.844,-20.851 -57.707,-20.853 -57.621,-20.865 C -57.625,-20.871 -57.627,-20.885 -57.627,-20.885 C -57.644,-20.921 -57.657,-20.959 -57.67,-20.995 L -63.369,-20.995 C -63.369,-20.995 -61.682,-23.919 -61.559,-24.133 C -61.673,-24.353 -63.236,-27.389 -63.236,-27.389 L -47.873,-27.389 L -47.004,-30.35 C -42.25,-28.614 -36.588,-27.619 -31.447,-27.619 L -31.42,-27.619 C -26.279,-27.619 -20.607,-28.609 -15.852,-30.346 L -14.99,-27.389 L 0.135,-27.389 C 0.135,-27.389 -1.428,-24.353 -1.539,-24.133 C -1.419,-23.919 0.272,-20.995 0.272,-20.995 L -6.268,-20.995 C -6.197,-20.513 -6.174,-20.01 -6.197,-19.796 C -6.213,-19.618 -6.277,-19.3 -6.34,-18.965 C -6.406,-18.63 -6.485,-18.212 -6.485,-18.096 C -6.485,-17.767 -6.481,-16.736 -6.453,-16.51 C -6.371,-15.828 -7.099,-15.284 -7.452,-15.024 L -7.57,-14.934 C -7.885,-14.677 -8.193,-14.346 -8.472,-14.009 C -7.595,-14.313 -5.989,-14.61 -4.615,-12.965 C -4.246,-12.514 -3.99,-11.916 -3.838,-11.557 L -3.812,-11.498 C -3.677,-11.176 -3.328,-10.645 -3.224,-10.552 C -2.897,-10.26 -1.511,-8.447 -1.952,-7.715 C -2.25,-7.217 -3.044,-7.506 -3.304,-7.601 C -3.452,-7.655 -3.525,-7.553 -3.625,-7.172 C -3.707,-6.856 -3.894,-6.047 -3.906,-5.928 L -3.908,-5.901 C -3.924,-5.755 -3.956,-5.449 -4.197,-5.326 C -4.349,-5.25 -4.525,-5.275 -4.722,-5.397 C -4.82,-5.455 -4.902,-5.477 -4.967,-5.455 C -5.045,-5.431 -5.107,-5.343 -5.14,-5.269 C -5.21,-5.107 -5.324,-4.715 -5.394,-4.482 L -5.452,-4.302 L -5.482,-4.178 C -5.518,-4.013 -5.568,-3.787 -5.787,-3.731 C -6,-3.675 -6.178,-3.838 -6.328,-4.004 C -6.445,-4.135 -6.552,-4.262 -6.647,-4.388 C -8.058,-3.128 -7.894,-1.954 -7.798,-1.242 C -7.656,-0.373 -7.302,0.203 -6.744,0.476 C -5.924,0.881 -4.904,0.523 -4.779,0.453 L -4.658,0.394 C -4.606,0.365 -4.502,0.316 -4.447,0.276 C -4.463,0.259 -4.482,0.238 -4.522,0.214 L -4.545,0.196 L -4.562,0.177 C -4.919,-0.213 -5.058,-0.621 -5.058,-1.025 C -5.058,-2.011 -4.22,-2.984 -3.592,-3.651 C -3.592,-3.656 -3.592,-3.657 -3.592,-3.662 C -3.592,-4.561 -3.375,-5.938 -2.76,-6.496 C -2.519,-6.714 -2.211,-6.814 -1.898,-6.783 C -1.365,-6.731 -0.619,-6.277 -0.49,-6.219 C -0.361,-6.16 0.018,-5.785 -0.592,-5.623 C -1.202,-5.465 -1.041,-4.916 -1.014,-4.64 C -0.974,-4.28 -0.802,-3.826 -0.533,-3.24 C -0.449,-3.057 -0.414,-2.854 -0.414,-2.646 C -0.414,-2.26 -0.527,-1.864 -0.639,-1.574 C -0.539,-1.564 -0.433,-1.541 -0.32,-1.503 C -0.002,-1.391 0.209,-1.199 0.272,-0.965 C 0.285,-0.914 0.293,-0.863 0.293,-0.811 C 0.293,-0.658 0.232,-0.501 0.114,-0.362 C 0.033,-0.264 0,-0.136 0,0 z M -51.43,11.428 C -51.432,11.428 -51.432,11.428 -51.432,11.428 C -51.644,11.416 -51.791,11.354 -51.887,11.215 C -51.901,11.196 -51.91,11.177 -51.92,11.157 C -52.119,11.281 -52.424,11.494 -52.842,11.848 C -52.99,11.973 -53.069,12.076 -53.115,12.153 C -52.934,12.185 -52.594,12.168 -51.952,11.935 L -51.938,11.931 L -51.92,11.928 C -51.782,11.895 -51.651,11.874 -51.528,11.862 L -51.387,11.428 C -51.403,11.428 -51.414,11.428 -51.43,11.428 z M -18.791,-8.033 C -18.765,-7.728 -18.67,-7.692 -18.461,-7.612 L -18.289,-7.536 L -18.016,-7.402 C -17.625,-7.213 -18.078,-7.423 -17.594,-7.173 C -17.592,-7.175 -17.588,-7.178 -17.588,-7.181 C -17.164,-7.652 -16.197,-7.913 -15.658,-8.026 C -15.19,-8.125 -14.746,-8.308 -14.41,-8.489 C -14.361,-8.65 -14.342,-8.842 -14.35,-9.036 C -14.848,-9.172 -16.565,-9.58 -17.798,-9.156 L -17.899,-9.112 C -18.111,-9.02 -18.395,-8.893 -18.713,-9.018 C -18.983,-9.124 -19.207,-9.395 -19.395,-9.841 C -19.877,-10.965 -19.838,-12.104 -19.294,-12.885 C -19.086,-13.186 -18.85,-13.438 -18.64,-13.658 C -18.357,-13.96 -18.111,-14.221 -18.033,-14.5 C -18.002,-14.614 -18.028,-14.67 -18.059,-14.708 C -18.173,-14.86 -18.533,-14.958 -18.977,-14.958 L -19.365,-14.947 C -19.865,-14.928 -20.526,-14.905 -21.166,-15.009 C -21.486,-14.621 -21.815,-14.311 -22.092,-14.048 L -22.227,-13.916 C -21.486,-12.429 -20.986,-10.738 -20.789,-8.938 C -20.717,-8.93 -20.648,-8.916 -20.585,-8.889 C -20.557,-8.926 -20.528,-8.964 -20.528,-8.964 C -20.338,-9.193 -19.967,-9.406 -19.627,-9.371 C -19.184,-9.328 -18.85,-8.641 -18.791,-8.033 z M -21.506,-2.304 L -21.51,-2.304 L -19.401,-2.438 C -19.391,-2.855 -19.313,-3.367 -19.119,-4.002 C -19.342,-4.117 -19.59,-4.227 -19.802,-4.292 C -20.063,-4.375 -20.526,-4.482 -20.912,-4.715 C -21.057,-3.895 -21.269,-3.089 -21.539,-2.305 L -21.506,-2.304 z M -30.469,8.514 L -29.831,11.953 C -29.283,12.315 -27.885,13.224 -26.555,13.052 C -26.039,12.983 -25.641,12.743 -25.442,12.37 C -25.141,11.809 -25.291,11.045 -25.858,10.272 C -26.891,8.857 -27.666,8.232 -27.928,8.079 L -27.94,8.062 C -28.766,8.296 -29.615,8.445 -30.475,8.511 L -30.469,8.514 z M -37.039,10.272 C -37.607,11.045 -37.756,11.809 -37.456,12.37 C -37.254,12.743 -36.861,12.983 -36.34,13.052 C -35.012,13.224 -33.615,12.313 -33.065,11.953 L -32.427,8.514 L -32.427,8.511 C -33.285,8.448 -34.127,8.299 -34.952,8.067 L -34.967,8.08 C -35.229,8.232 -36.008,8.86 -37.039,10.272 z M -49.782,11.392 L -50.086,12.342 C -50.004,12.421 -49.927,12.506 -49.846,12.601 L -49.838,12.609 L -49.832,12.619 C -49.447,13.179 -49.182,13.395 -49.019,13.476 C -49.016,13.452 -49.012,13.435 -49.012,13.405 C -49.012,13.321 -49.023,13.208 -49.059,13.069 C -49.321,12.027 -49.541,11.674 -49.544,11.67 L -49.555,11.653 L -49.565,11.631 C -49.598,11.553 -49.674,11.471 -49.782,11.392 z M -46.365,-22.023 L -47.736,-20.995 L -54.794,-20.995 C -54.794,-20.985 -54.794,-20.969 -54.794,-20.959 C -54.794,-20.086 -55.121,-19.81 -55.361,-19.606 L -55.432,-19.546 L -55.894,-19.155 C -56.153,-18.938 -56.446,-18.692 -56.533,-18.604 C -56.604,-18.522 -56.715,-18.086 -56.715,-17.715 C -56.715,-17.654 -56.71,-17.592 -56.703,-17.533 C -56.669,-17.258 -56.611,-17.004 -56.569,-16.816 C -56.569,-16.816 -56.541,-16.697 -56.529,-16.637 C -56.463,-16.585 -56.188,-16.489 -55.832,-16.527 C -55.265,-16.589 -54.717,-16.633 -54.283,-16.458 C -53.815,-16.269 -53.477,-15.897 -53.385,-15.481 C -52.702,-15.533 -51.883,-15.006 -51.571,-14.632 C -51.403,-14.432 -51.26,-14.115 -51.1,-13.72 L -51.052,-13.741 C -50.516,-13.98 -49.963,-14.224 -49.117,-14.084 C -49.044,-14.072 -48.986,-14.067 -48.932,-14.064 C -49.082,-14.158 -49.276,-14.36 -49.74,-14.96 C -49.946,-15.231 -50.052,-15.491 -50.052,-15.739 C -50.052,-15.802 -50.044,-15.863 -50.029,-15.922 C -49.92,-16.43 -49.394,-16.709 -49.008,-16.912 L -48.956,-16.941 C -48.611,-17.125 -48.202,-17.273 -47.803,-17.416 L -47.182,-17.654 C -46.963,-17.745 -46.799,-17.889 -46.607,-18.056 C -46.407,-18.23 -46.18,-18.426 -45.861,-18.594 C -45.276,-18.903 -44.949,-19.026 -44.563,-18.931 C -44.563,-18.931 -44.541,-18.924 -44.52,-18.921 C -44.502,-19.006 -44.486,-19.131 -44.479,-19.183 C -44.398,-19.819 -43.723,-19.905 -43.276,-19.963 L -43.085,-19.989 L -42.865,-20.038 C -42.77,-20.301 -42.649,-20.546 -42.486,-20.737 C -42.486,-20.74 -42.327,-20.865 -42.206,-20.96 C -43.623,-21.259 -45.016,-21.617 -46.365,-22.023 z M -40.831,-14.048 C -41.512,-14.694 -42.49,-15.622 -42.93,-17.317 C -43.037,-17.264 -43.16,-17.188 -43.309,-17.065 C -43.785,-16.669 -44.315,-16.419 -44.835,-16.344 C -45.354,-16.269 -46.049,-15.978 -46.598,-15.731 C -46.782,-15.649 -46.898,-15.551 -46.923,-15.463 C -46.949,-15.365 -46.887,-15.242 -46.809,-15.14 C -46.725,-15.024 -46.307,-14.819 -45.813,-14.553 C -45.309,-14.283 -43.858,-13.042 -43.982,-12.267 C -44.02,-12.036 -44.199,-11.716 -44.492,-11.208 L -44.721,-10.809 C -45.006,-10.295 -45.541,-10.085 -46.19,-10.232 C -46.802,-10.371 -48.266,-10.539 -49.158,-10.438 C -48.555,-9.939 -47.835,-9.655 -46.994,-9.587 C -46.006,-9.511 -45.135,-8.963 -44.423,-8.35 C -43.998,-7.986 -43.115,-6.873 -42.74,-6.153 C -42.723,-6.118 -42.706,-6.084 -42.688,-6.049 C -42.69,-6.107 -42.694,-6.163 -42.697,-6.229 L -42.707,-6.369 C -42.729,-6.725 -42.607,-7.539 -42.756,-7.818 C -42.949,-8.168 -43,-8.264 -43.294,-8.371 C -43.41,-8.413 -43.46,-8.399 -43.557,-8.367 C -43.677,-8.326 -43.842,-8.272 -44.09,-8.362 C -44.787,-8.615 -44.765,-8.984 -44.729,-9.494 L -44.713,-9.824 C -44.706,-10.061 -44.654,-10.234 -44.588,-10.359 C -44.553,-10.414 -44.473,-10.525 -44.35,-10.618 C -44.098,-10.779 -43.787,-10.735 -43.582,-10.638 C -43.508,-10.602 -43.274,-10.52 -43.024,-10.436 C -42.69,-10.322 -42.305,-10.191 -41.992,-10.064 C -41.736,-11.449 -41.302,-12.758 -40.711,-13.934 L -40.831,-14.048 z M -36.629,-20.074 C -36.688,-20.02 -36.746,-19.961 -36.754,-19.953 L -36.798,-19.913 C -37.029,-19.694 -37.649,-19.112 -38.486,-19.156 C -38.674,-19.168 -38.901,-19.204 -39.141,-19.243 C -39.648,-19.322 -40.335,-19.435 -40.569,-19.239 C -40.607,-19.209 -40.653,-19.156 -40.657,-19.01 C -40.756,-17.592 -39.881,-16.575 -39.381,-16.061 C -37.967,-17.897 -36.119,-19.241 -34.033,-19.855 L -33.821,-19.855 C -34.75,-19.902 -35.69,-19.977 -36.629,-20.074 z M -22.262,-19.01 C -22.266,-19.156 -22.315,-19.209 -22.348,-19.239 C -22.585,-19.435 -23.273,-19.322 -23.778,-19.243 C -24.019,-19.204 -24.242,-19.168 -24.434,-19.156 C -25.27,-19.112 -25.89,-19.694 -26.123,-19.913 C -26.177,-19.961 -26.236,-20.02 -26.285,-20.071 C -27.219,-19.973 -28.151,-19.901 -29.074,-19.854 L -28.908,-19.854 C -26.819,-19.238 -24.967,-17.887 -23.553,-16.042 C -23.057,-16.554 -22.162,-17.576 -22.262,-19.01 z M -15.164,-20.995 L -16.469,-22.032 C -17.835,-21.622 -19.244,-21.262 -20.678,-20.956 C -20.59,-20.891 -20.49,-20.806 -20.434,-20.737 C -20.006,-20.235 -19.842,-19.362 -19.805,-18.768 C -19.799,-18.76 -19.794,-18.758 -19.785,-18.748 L -19.492,-18.329 C -19.206,-17.906 -18.815,-17.323 -18.469,-17.174 C -17.93,-16.944 -16.963,-16.664 -16.602,-16.664 L -16.498,-16.664 C -15.952,-16.67 -14.827,-16.679 -14.545,-15.981 C -14.319,-15.413 -14.615,-15.114 -14.795,-14.934 C -14.852,-14.877 -14.904,-14.822 -14.928,-14.778 L -14.99,-14.663 C -15.178,-14.343 -15.473,-13.835 -14.916,-13.244 C -14.899,-13.239 -14.887,-13.233 -14.871,-13.223 C -14.84,-13.2 -14.813,-13.17 -14.799,-13.139 C -14.498,-13.879 -13.919,-14.978 -13.044,-15.649 C -11.727,-16.658 -10.732,-16.813 -10.456,-16.835 C -10.006,-16.873 -9.375,-16.983 -9.191,-17.043 C -9.081,-17.079 -8.802,-17.428 -8.772,-17.785 C -8.722,-18.405 -8.89,-18.832 -9.277,-19.059 C -9.944,-19.452 -10.682,-20.315 -10.68,-20.885 C -10.68,-20.926 -10.677,-20.959 -10.67,-20.995 L -15.164,-20.995"
           id="path4915"
           style="fill:#000000;fill-opacity:1;fill-rule:nonzero;stroke:none" />
      </g>
      <g
         transform="matrix(6.8140539,0,0,-6.8140539,2937.0901,-531.09986)"
         id="g4917">
        <path
           d="M 0,0 L 1.024,0.064 C 2.297,0.157 3.949,0.685 4.607,2.664 L 4.623,2.714 C 4.757,3.094 4.682,3.767 4.674,3.843 L 4.636,4.158 L 4.342,4.041 C 4.033,3.919 3.035,3.663 2.724,3.641 C 2.482,3.623 1.741,3.569 1.078,3.072 L 1.045,3.046 L 1.019,3.01 C 1.006,2.989 0.97,2.96 0.943,2.958 C 0.912,2.958 0.842,3.001 0.754,3.123 C 0.529,3.438 0.332,3.663 0.226,3.784 C 0.226,3.784 0.201,3.814 0.181,3.839 C 0.185,3.897 0.261,4.017 0.578,4.098 L 0.928,4.174 C 1.336,4.255 1.757,4.337 1.781,4.991 C 1.781,5 1.781,5.009 1.781,5.017 C 1.781,5.216 1.689,5.391 1.523,5.526 C 1.093,5.865 0.217,5.858 -0.153,5.756 L -0.163,5.755 L -0.174,5.751 C -0.211,5.736 -0.231,5.736 -0.237,5.736 C -0.239,5.738 -0.283,5.772 -0.332,5.943 C -0.369,6.062 -0.384,6.147 -0.384,6.206 C -0.384,6.311 -0.344,6.341 -0.326,6.355 C -0.174,6.485 -0.123,6.637 -0.123,6.792 C -0.123,7.009 -0.227,7.226 -0.289,7.356 L -0.342,7.466 C -0.369,7.536 -0.421,7.659 -0.421,7.749 C -0.421,7.776 -0.414,7.799 -0.405,7.818 C -0.38,7.864 -0.303,7.905 -0.184,7.926 C 0.135,7.993 0.445,7.975 0.718,7.96 C 0.937,7.947 1.141,7.936 1.328,7.967 C 1.535,8.003 1.75,8.111 1.957,8.218 C 2.168,8.325 2.385,8.435 2.549,8.442 C 2.793,8.458 3.332,8.442 3.766,8.433 L 4.39,8.423 C 4.818,8.423 6.208,8.87 6.685,9.347 C 6.744,9.41 6.822,9.463 6.859,9.468 C 6.862,9.462 6.87,9.454 6.87,9.454 C 6.943,9.335 6.994,9.071 7.045,8.817 C 7.105,8.477 7.181,8.091 7.345,7.814 C 7.52,7.514 7.785,7.259 8.035,7.012 C 8.197,6.856 8.351,6.706 8.468,6.557 C 8.583,6.411 8.722,6.079 8.857,5.758 C 9.066,5.263 9.279,4.751 9.55,4.491 C 9.873,4.187 10.666,3.437 11.483,3.604 C 11.471,3.59 11.467,3.575 11.458,3.561 L 11.223,3.345 C 10.925,3.094 10.62,2.838 10.62,2.537 C 10.62,2.526 10.62,2.514 10.62,2.503 C 10.649,2.18 10.75,1.979 10.824,1.855 L 10.84,1.827 C 10.866,1.786 10.895,1.742 10.895,1.681 C 10.895,1.608 10.854,1.506 10.712,1.358 C 10.403,1.032 10.299,0.827 10.299,0.624 C 10.299,0.52 10.326,0.418 10.366,0.3 L 10.375,0.264 C 10.404,0.183 10.453,0.043 10.453,-0.024 C 10.453,-0.035 10.451,-0.042 10.451,-0.049 C 10.447,-0.049 10.436,-0.056 10.436,-0.056 L 10.358,-0.099 C 10.194,-0.189 10.153,-0.212 10.037,-0.24 L 9.995,-0.249 C 9.444,-0.37 9.162,-0.675 9.162,-1.157 C 9.162,-1.185 9.162,-1.212 9.164,-1.244 L 9.178,-1.417 C 9.185,-1.525 9.193,-1.635 9.193,-1.706 C 9.193,-1.736 9.191,-1.753 9.187,-1.769 C 9.174,-1.777 9.152,-1.788 9.086,-1.807 L 8.947,-1.843 C 8.62,-1.918 8.127,-2.035 8.083,-2.943 L 8.068,-3.303 C 8.047,-4.001 8.013,-4.333 7.797,-4.359 C 7.391,-4.407 7.092,-4.059 7.049,-3.96 C 7.009,-3.869 6.931,-3.561 6.92,-3.521 C 6.612,-2.583 6.712,-2.807 6.273,-3.633 C 6.207,-3.746 6.144,-3.897 6.045,-4.079 C 5.693,-4.73 5.476,-4.819 5.324,-4.927 L 5.222,-4.983 C 5.191,-4.998 5.14,-4.998 5.116,-4.992 C 5.062,-4.967 4.991,-4.867 4.939,-4.651 C 4.855,-4.286 4.781,-3.807 4.745,-3.353 C 4.717,-2.697 5.412,-2.011 4.006,-3.134 C 4.006,-3.134 3.826,-3.251 3.726,-3.312 C 3.543,-3.426 2.472,-3.902 2.168,-4.028 C 2.062,-4.072 1.703,-4.099 1.699,-4.007 C 1.699,-3.994 1.699,-3.955 1.718,-3.888 C 1.72,-3.874 1.722,-3.865 1.724,-3.853 C 1.894,-3.259 2.168,-3.385 1.195,-3.48 L 0.73,-3.503 L 0.586,-3.514 C 0.336,-3.536 -0.006,-3.566 -0.18,-3.41 C -0.272,-3.328 -0.322,-3.188 -0.326,-2.992 C -0.344,-2.099 0.32,-1.642 0.77,-1.549 C 1.366,-1.43 3.664,-1.183 4.681,-1.094 C 5.516,-1.024 7.033,-0.702 7.828,0.648 C 8.116,1.139 8.474,3.141 8.212,4.305 C 8.131,4.676 7.748,5.255 7.982,4.195 C 8.217,3.18 7.654,1.312 7.406,0.896 C 6.722,-0.265 5.377,-0.545 4.638,-0.609 C 3.635,-0.697 1.307,-0.946 0.674,-1.07 C 0.127,-1.18 -0.418,-1.585 -0.667,-2.205 C -0.891,-2.521 -1.399,-3.237 -1.895,-3.223 C -2.477,-3.207 -2.93,-2.513 -2.93,-1.927 C -2.977,-0.161 -2.109,-0.114 0,0 z M -3.38,-2.272 C -3.235,-2.989 -2.653,-3.692 -1.908,-3.711 C -1.489,-3.722 -1.123,-3.48 -0.803,-3.148 C -0.772,-3.413 -0.672,-3.625 -0.509,-3.771 C -0.356,-3.907 -0.178,-3.971 0,-4 C -0.135,-4.232 -0.272,-4.533 -0.33,-4.954 L -2.688,-4.808 C -3.033,-3.911 -3.463,-3.057 -3.969,-2.265 C -3.783,-2.285 -3.584,-2.288 -3.38,-2.272 z M -6.209,4.473 C -6.432,4.473 -6.612,4.656 -6.612,4.881 C -6.612,5.1 -6.432,5.283 -6.209,5.283 C -5.987,5.283 -5.803,5.1 -5.803,4.881 C -5.803,4.656 -5.987,4.473 -6.209,4.473 z M -5.106,5.665 C -5.41,5.665 -5.658,5.913 -5.658,6.217 C -5.658,6.521 -5.41,6.768 -5.106,6.768 C -4.803,6.768 -4.555,6.521 -4.555,6.217 C -4.555,5.913 -4.803,5.665 -5.106,5.665 z M -3.231,7.954 C -3.231,7.536 -3.572,7.195 -3.987,7.195 C -4.407,7.195 -4.744,7.536 -4.744,7.954 C -4.744,8.37 -4.407,8.709 -3.987,8.709 C -3.572,8.709 -3.231,8.37 -3.231,7.954 z M -3.783,11.005 C -3.364,11.005 -3.022,10.666 -3.022,10.248 C -3.022,9.829 -3.364,9.489 -3.783,9.489 C -4.197,9.489 -4.539,9.829 -4.539,10.248 C -4.539,10.666 -4.197,11.005 -3.783,11.005 z M -5.605,12.668 C -5.13,12.668 -4.744,12.28 -4.744,11.807 C -4.744,11.333 -5.13,10.947 -5.605,10.947 C -6.08,10.947 -6.465,11.333 -6.465,11.807 C -6.465,12.28 -6.08,12.668 -5.605,12.668 z M -7.783,12.741 C -7.48,12.741 -7.234,12.494 -7.234,12.189 C -7.234,11.885 -7.48,11.637 -7.783,11.637 C -8.088,11.637 -8.336,11.885 -8.336,12.189 C -8.336,12.494 -8.088,12.741 -7.783,12.741 z M -9.489,12.123 C -9.266,12.123 -9.086,11.941 -9.086,11.719 C -9.086,11.497 -9.266,11.314 -9.489,11.314 C -9.713,11.314 -9.893,11.497 -9.893,11.719 C -9.893,11.941 -9.713,12.123 -9.489,12.123 z M -10.334,11.401 L -10.326,11.413 C -10.201,11.073 -9.873,10.828 -9.489,10.828 C -9.049,10.828 -8.684,11.149 -8.612,11.567 C -8.424,11.316 -8.121,11.152 -7.783,11.152 C -7.432,11.152 -7.121,11.327 -6.934,11.594 C -6.83,10.952 -6.274,10.461 -5.605,10.461 C -5.375,10.461 -5.155,10.518 -4.969,10.622 C -5.005,10.505 -5.026,10.379 -5.026,10.248 C -5.026,9.765 -4.75,9.348 -4.351,9.142 C -4.86,8.987 -5.231,8.513 -5.231,7.954 C -5.231,7.691 -5.149,7.45 -5.013,7.25 C -5.043,7.252 -5.076,7.256 -5.106,7.256 C -5.678,7.256 -6.143,6.789 -6.143,6.217 C -6.143,6.05 -6.102,5.891 -6.032,5.751 C -6.09,5.763 -6.149,5.77 -6.209,5.77 C -6.701,5.77 -7.098,5.371 -7.098,4.881 C -7.098,4.798 -7.086,4.719 -7.068,4.647 C -7.115,4.6 -7.193,4.52 -7.244,4.468 C -7.61,4.626 -7.977,4.766 -8.351,4.891 L -8.334,4.912 C -7.914,5.22 -7.246,5.893 -6.403,7.046 C -5.752,7.94 -5.59,8.849 -5.959,9.539 C -6.231,10.044 -6.756,10.369 -7.444,10.461 C -8.701,10.624 -9.947,9.989 -10.682,9.539 L -10.334,11.401 z M -7.726,3.059 C -9.207,3.744 -10.792,4.094 -12.434,4.094 C -14.053,4.094 -15.612,3.755 -17.078,3.089 C -17.125,3.442 -17.226,3.766 -17.365,4.034 C -15.797,4.712 -14.135,5.056 -12.417,5.056 C -10.678,5.056 -8.994,4.704 -7.407,4.01 C -7.561,3.739 -7.668,3.413 -7.726,3.059 z M -7.645,1.405 C -9.109,2.29 -10.735,2.755 -12.434,2.755 C -14.119,2.755 -15.735,2.297 -17.186,1.429 C -17.086,1.807 -17.038,2.198 -17.042,2.569 C -15.594,3.259 -14.043,3.607 -12.434,3.607 C -10.805,3.607 -9.237,3.247 -7.774,2.544 C -7.782,2.169 -7.743,1.781 -7.645,1.405 z M -13.197,12.588 C -13.197,12.709 -13.049,12.728 -12.959,12.728 L -11.884,12.728 C -11.796,12.728 -11.645,12.709 -11.645,12.588 C -11.645,12.24 -11.375,11.767 -10.78,11.668 L -11.921,5.537 L -11.914,5.53 C -12.08,5.538 -12.248,5.544 -12.417,5.544 C -12.578,5.544 -12.739,5.538 -12.899,5.53 L -12.899,5.537 L -14.039,11.672 C -13.461,11.778 -13.197,12.245 -13.197,12.588 z M -15.322,12.123 C -15.098,12.123 -14.914,11.941 -14.914,11.719 C -14.914,11.497 -15.098,11.314 -15.322,11.314 C -15.543,11.314 -15.723,11.497 -15.723,11.719 C -15.723,11.941 -15.543,12.123 -15.322,12.123 z M -17.026,12.741 C -16.721,12.741 -16.476,12.494 -16.476,12.189 C -16.476,11.885 -16.721,11.637 -17.026,11.637 C -17.33,11.637 -17.576,11.885 -17.576,12.189 C -17.576,12.494 -17.33,12.741 -17.026,12.741 z M -19.203,12.668 C -18.73,12.668 -18.344,12.28 -18.344,11.807 C -18.344,11.333 -18.73,10.947 -19.203,10.947 C -19.678,10.947 -20.063,11.333 -20.063,11.807 C -20.063,12.28 -19.678,12.668 -19.203,12.668 z M -21.783,10.248 C -21.783,10.666 -21.447,11.005 -21.028,11.005 C -20.61,11.005 -20.27,10.666 -20.27,10.248 C -20.27,9.829 -20.61,9.489 -21.028,9.489 C -21.447,9.489 -21.783,9.829 -21.783,10.248 z M -20.822,7.195 C -21.239,7.195 -21.578,7.536 -21.578,7.954 C -21.578,8.37 -21.239,8.709 -20.822,8.709 C -20.405,8.709 -20.065,8.37 -20.065,7.954 C -20.065,7.536 -20.405,7.195 -20.822,7.195 z M -19.703,5.665 C -20.006,5.665 -20.255,5.913 -20.255,6.217 C -20.255,6.521 -20.006,6.768 -19.703,6.768 C -19.399,6.768 -19.153,6.521 -19.153,6.217 C -19.153,5.913 -19.399,5.665 -19.703,5.665 z M -18.602,4.473 C -18.822,4.473 -19.005,4.656 -19.005,4.881 C -19.005,5.1 -18.822,5.283 -18.602,5.283 C -18.377,5.283 -18.197,5.1 -18.197,4.881 C -18.197,4.656 -18.377,4.473 -18.602,4.473 z M -17.576,4.471 C -17.638,4.561 -17.693,4.632 -17.734,4.678 C -17.719,4.743 -17.709,4.809 -17.709,4.881 C -17.709,5.371 -18.11,5.77 -18.602,5.77 C -18.66,5.77 -18.721,5.763 -18.78,5.751 C -18.705,5.891 -18.664,6.05 -18.664,6.217 C -18.664,6.789 -19.131,7.256 -19.703,7.256 C -19.735,7.256 -19.766,7.252 -19.797,7.25 C -19.658,7.45 -19.578,7.691 -19.578,7.954 C -19.578,8.513 -19.951,8.987 -20.461,9.142 C -20.059,9.348 -19.785,9.765 -19.785,10.248 C -19.785,10.379 -19.803,10.505 -19.842,10.622 C -19.651,10.518 -19.436,10.461 -19.203,10.461 C -18.533,10.461 -17.977,10.952 -17.875,11.594 C -17.688,11.327 -17.377,11.152 -17.026,11.152 C -16.686,11.152 -16.388,11.316 -16.197,11.567 C -16.125,11.149 -15.76,10.828 -15.322,10.828 C -14.938,10.828 -14.615,11.069 -14.487,11.404 L -14.484,11.401 L -14.138,9.539 C -14.873,9.989 -16.119,10.624 -17.375,10.461 C -18.061,10.369 -18.588,10.044 -18.86,9.539 C -19.231,8.849 -19.069,7.94 -18.414,7.046 C -17.572,5.893 -16.905,5.22 -16.485,4.912 L -16.465,4.895 C -16.842,4.771 -17.213,4.63 -17.576,4.471 z M -19.888,-1.667 C -17.944,0.872 -15.296,2.268 -12.434,2.268 C -9.576,2.268 -6.928,0.872 -4.981,-1.667 C -3.601,-3.473 -2.671,-5.738 -2.309,-8.08 L -2.561,-8.316 C -2.881,-8.599 -3.239,-8.923 -3.369,-9.343 L -3.384,-9.38 C -3.489,-9.716 -3.565,-9.955 -3.565,-10.157 C -3.565,-10.27 -3.542,-10.371 -3.481,-10.469 C -3.33,-10.741 -3.115,-10.816 -2.944,-10.849 C -2.903,-10.853 -2.871,-10.982 -2.871,-11.079 C -2.871,-11.091 -2.871,-11.105 -2.873,-11.119 C -2.881,-11.14 -2.881,-11.167 -2.881,-11.193 C -2.881,-11.384 -2.792,-11.667 -2.326,-11.855 C -2.297,-11.867 -2.266,-11.872 -2.235,-11.882 C -2.903,-17.993 -7.221,-22.744 -12.434,-22.744 C -17.371,-22.744 -21.502,-18.486 -22.496,-12.849 C -22.057,-12.566 -22.115,-12.061 -22.153,-11.755 L -22.171,-11.56 C -22.171,-11.255 -22.268,-10.693 -22.226,-9.929 C -22.201,-9.472 -22.143,-8.902 -22.042,-8.417 C -21.976,-8.103 -21.913,-7.81 -21.885,-7.583 C -21.819,-7.029 -21.914,-6.777 -22.221,-6.483 C -21.746,-4.723 -20.953,-3.058 -19.888,-1.667 z M -4.223,-18.649 C -3.934,-18.244 -3.671,-17.817 -3.422,-17.372 L -3.388,-17.409 C -3.168,-17.617 -2.917,-17.857 -2.663,-18.142 C -2.859,-18.202 -3.046,-18.271 -3.217,-18.367 C -3.58,-18.565 -3.76,-18.823 -3.826,-19.079 C -3.969,-18.908 -4.109,-18.765 -4.223,-18.649 z M -5.424,-22.649 C -5.259,-22.66 -5.043,-22.694 -4.815,-22.731 C -4.155,-22.837 -3.405,-22.955 -2.998,-22.622 C -2.83,-22.483 -2.743,-22.287 -2.735,-22.043 C -2.713,-21.711 -2.735,-21.4 -2.792,-21.108 C -2.602,-21.275 -2.371,-21.329 -2.125,-21.267 C -2.105,-21.334 -2.078,-21.427 -2.057,-21.497 L -2.039,-21.569 C -1.976,-21.818 -1.752,-22.021 -1.494,-22.073 C -1.426,-22.088 -1.356,-22.09 -1.292,-22.083 C -1.356,-22.559 -1.502,-23.113 -1.766,-23.43 C -1.836,-23.511 -2.118,-23.709 -2.307,-23.821 C -3.707,-23.543 -5.121,-23.322 -6.538,-23.154 C -6.252,-22.938 -5.799,-22.628 -5.424,-22.649 z M 4.039,-15.55 C 4.047,-15.581 4.056,-15.615 4.066,-15.654 C 3.976,-15.721 3.894,-15.792 3.826,-15.861 C 3.432,-16.04 2.845,-15.626 2.556,-15.421 L 2.519,-15.395 C 1.894,-14.911 1.322,-14.809 2.24,-15.671 L 2.274,-15.696 C 2.519,-15.87 2.984,-16.249 3.462,-16.349 C 3.12,-17.044 3.482,-17.665 3.625,-17.913 L 3.674,-18.002 C 3.73,-18.117 3.82,-18.204 3.898,-18.282 C 4.066,-18.451 4.149,-18.534 4.039,-18.805 C 3.882,-19.193 2.914,-19.185 2.549,-19.183 L 2.437,-19.181 C 1.957,-19.181 0.914,-19.502 0.379,-19.732 C -0.078,-19.926 -0.484,-20.505 -0.813,-20.993 C -0.891,-21.117 -1.172,-21.505 -1.246,-21.562 C -1.292,-21.591 -1.342,-21.605 -1.399,-21.595 C -1.487,-21.577 -1.551,-21.505 -1.568,-21.445 L -1.688,-21.045 C -1.778,-20.644 -1.701,-20.43 -2.182,-20.774 L -2.18,-20.775 C -2.315,-20.829 -2.389,-20.801 -2.432,-20.774 C -2.549,-20.698 -2.68,-20.572 -2.621,-20.462 C -2.612,-20.446 -2.516,-20.257 -2.516,-20.257 C -2.217,-19.71 -2.428,-19.73 -2.897,-19.779 C -2.944,-19.782 -2.984,-19.789 -3.009,-19.794 C -3.068,-19.805 -3.256,-19.689 -3.338,-19.466 C -3.432,-19.205 -3.309,-18.972 -2.984,-18.793 C -2.783,-18.685 -2.565,-18.608 -2.33,-18.553 C -2.164,-18.498 -1.926,-18.481 -1.789,-18.462 C -1.276,-18.409 -0.752,-18.425 -0.344,-18.439 L 0.062,-18.452 C 0.424,-18.452 1.078,-18.394 1.369,-18.009 C 1.465,-17.884 1.557,-17.674 1.476,-17.376 C 1.366,-16.978 1.066,-16.663 0.752,-16.329 C 0.547,-16.11 0.332,-15.882 0.145,-15.612 C -0.303,-14.968 -0.322,-14.007 0.09,-13.036 C 0.224,-12.725 0.366,-12.532 0.507,-12.478 C 0.625,-12.429 0.757,-12.482 0.943,-12.564 L 1.074,-12.619 C 2.303,-13.041 3.904,-12.739 4.609,-12.566 C 4.578,-12.666 4.543,-12.76 4.5,-12.839 C 4.25,-13.298 3.873,-14.927 4.039,-15.55 z M -27.039,-13.723 C -26.74,-13.655 -26.336,-13.659 -26.118,-14.053 L -25.884,-14.462 C -25.686,-14.809 -25.459,-15.202 -25.434,-15.351 C -25.377,-15.711 -26.391,-16.786 -27.01,-17.12 C -27.155,-17.216 -28.076,-17.728 -28.178,-17.872 C -28.24,-17.96 -28.377,-18.172 -28.377,-18.423 C -28.377,-18.481 -28.369,-18.541 -28.352,-18.604 C -28.285,-18.839 -28.084,-19.034 -27.76,-19.18 C -26.901,-19.567 -26.315,-19.767 -25.865,-19.83 C -25.44,-19.892 -24.985,-20.111 -24.58,-20.446 C -24.301,-20.68 -24.068,-20.789 -23.889,-20.848 L -23.641,-20.91 C -23.485,-21.058 -23.076,-21.855 -23.076,-22.352 C -23.076,-22.393 -23.078,-22.433 -23.084,-22.467 C -23.09,-22.526 -23.112,-22.601 -23.155,-22.628 C -23.239,-22.681 -23.455,-22.633 -23.631,-22.588 L -23.815,-22.547 L -23.963,-22.515 L -24.174,-22.483 C -24.612,-22.428 -24.924,-22.367 -24.957,-22.122 C -24.976,-21.994 -24.99,-21.884 -25.013,-21.79 C -25.221,-20.941 -25.197,-21.311 -25.563,-21.443 C -25.592,-21.451 -25.618,-21.456 -25.643,-21.462 C -25.832,-21.509 -26.006,-21.478 -26.596,-21.167 C -26.864,-21.025 -27.059,-20.858 -27.246,-20.693 C -27.451,-20.515 -27.663,-20.332 -27.947,-20.209 L -28.601,-19.961 C -28.98,-19.825 -29.375,-19.681 -29.686,-19.515 L -29.74,-19.488 C -30.043,-19.327 -30.453,-19.109 -30.516,-18.824 C -30.547,-18.669 -30.48,-18.481 -30.311,-18.263 C -29.731,-17.507 -29.625,-17.516 -29.568,-17.45 C -29.476,-17.409 -29.153,-17.137 -29.23,-16.904 C -29.293,-16.711 -29.489,-16.495 -30.158,-16.61 C -30.86,-16.725 -31.326,-16.519 -31.815,-16.3 L -31.877,-16.272 C -31.703,-15.837 -31.505,-15.353 -31.239,-14.855 C -31.076,-14.545 -30.893,-14.272 -30.694,-14.024 L -30.555,-13.871 C -29.641,-14.095 -27.815,-13.898 -27.039,-13.723 z M -23.259,-23.134 C -23.13,-23.134 -23.002,-23.109 -22.889,-23.035 C -22.737,-22.936 -22.641,-22.772 -22.602,-22.547 C -22.494,-21.9 -23.033,-20.693 -23.421,-20.474 C -23.01,-18.895 -22.094,-18.015 -21.453,-17.409 L -21.434,-17.389 C -21.19,-17.835 -20.922,-18.262 -20.635,-18.667 C -21.172,-19.212 -22.223,-20.365 -22.106,-22.043 C -22.096,-22.287 -22.009,-22.483 -21.84,-22.622 C -21.436,-22.955 -20.686,-22.837 -20.026,-22.731 C -19.799,-22.694 -19.582,-22.66 -19.417,-22.649 C -19.069,-22.63 -18.594,-22.931 -18.28,-23.157 C -19.705,-23.327 -21.135,-23.552 -22.543,-23.834 C -22.723,-23.736 -22.94,-23.586 -23.072,-23.43 C -23.143,-23.345 -23.203,-23.245 -23.259,-23.134 z M -34.322,8.227 C -34.743,8.58 -34.969,8.999 -34.926,9.345 C -34.903,9.553 -34.772,9.725 -34.559,9.832 C -34.138,10.044 -33.539,10.005 -32.727,9.719 C -32.658,9.692 -32.533,9.675 -32.364,9.668 L -32.256,9.664 C -32.256,9.664 -32.459,10.293 -32.496,10.408 C -32.395,10.441 -32.049,10.551 -31.951,10.585 C -31.913,10.47 -31.705,9.832 -31.705,9.832 L -31.621,9.907 C -31.52,9.998 -31.428,10.106 -31.365,10.207 C -30.899,10.864 -30.436,11.235 -29.985,11.308 C -29.755,11.346 -29.546,11.283 -29.403,11.128 C -29.25,10.96 -29.168,10.703 -29.168,10.397 C -29.168,10.231 -29.194,10.052 -29.24,9.866 C -29.434,9.089 -29.618,8.644 -29.715,8.435 C -29.756,8.442 -29.799,8.452 -29.844,8.46 C -29.932,8.477 -30.013,8.479 -30.09,8.477 C -30.114,8.477 -30.138,8.472 -30.16,8.471 C -30.105,8.568 -29.885,8.973 -29.638,9.967 C -29.598,10.12 -29.58,10.268 -29.58,10.4 C -29.58,10.599 -29.623,10.76 -29.705,10.85 C -29.723,10.87 -29.776,10.926 -29.921,10.905 C -30.27,10.847 -30.671,10.493 -31.119,9.842 C -31.266,9.665 -31.389,9.552 -31.513,9.463 C -31.463,9.317 -31.201,8.554 -31.201,8.554 C -31.201,8.554 -31.147,8.391 -31.101,8.255 C -31.114,8.255 -31.131,8.253 -31.143,8.255 C -31.407,8.303 -31.635,8.346 -31.832,8.378 C -31.851,8.435 -31.864,8.478 -31.864,8.478 L -32.118,9.315 L -32.176,9.313 C -32.344,9.305 -32.533,9.326 -32.768,9.38 L -32.776,9.382 C -33.526,9.649 -34.076,9.701 -34.41,9.533 C -34.522,9.477 -34.582,9.402 -34.592,9.306 L -34.596,9.26 C -34.596,9.036 -34.408,8.736 -34.105,8.482 C -33.657,8.103 -33.326,7.874 -33.106,7.737 C -33.125,7.73 -33.141,7.725 -33.158,7.729 C -33.282,7.752 -33.405,7.755 -33.52,7.731 C -33.561,7.721 -33.602,7.708 -33.643,7.696 C -33.859,7.849 -34.084,8.026 -34.322,8.227 z M -30.838,-2.481 C -31.013,-2.119 -31.197,-1.815 -31.364,-1.591 L -31.369,-1.583 L -31.375,-1.577 C -31.399,-1.548 -31.424,-1.519 -31.451,-1.49 L -31.451,-1.488 C -32.403,-0.3 -32.18,-0.76 -32.296,-1.656 C -32.305,-1.722 -32.311,-1.793 -32.318,-1.865 C -32.326,-1.973 -32.338,-2.083 -32.359,-2.168 C -32.391,-2.294 -32.426,-2.342 -32.443,-2.352 C -32.459,-2.362 -32.52,-2.369 -32.719,-2.309 C -33.634,-2.035 -33.868,-1.369 -33.994,-1.011 L -34,-0.987 C -34.033,-0.888 -34.072,-0.799 -34.102,-0.72 C -34.565,0.469 -34.43,-0.009 -34.813,-0.439 L -34.809,-0.439 C -34.848,-0.476 -34.884,-0.517 -34.91,-0.553 L -34.944,-0.595 C -35,-0.66 -35.026,-0.678 -35.038,-0.683 C -35.046,-0.678 -35.059,-0.667 -35.076,-0.649 C -35.226,-0.501 -35.561,0.032 -35.693,0.359 C -35.721,0.435 -35.734,0.539 -35.734,0.655 C -35.734,0.921 -35.672,1.252 -35.63,1.477 L -35.609,1.595 L -35.592,1.671 C -35.481,2.068 -35.428,2.281 -35.584,2.439 C -35.739,2.59 -35.938,2.536 -36.297,2.436 L -36.365,2.417 C -36.453,2.393 -36.514,2.378 -36.565,2.366 C -36.5,2.718 -36.451,3.074 -36.451,3.406 C -36.451,4.024 -36.618,4.553 -37.174,4.794 C -37.266,4.833 -37.332,4.872 -37.388,4.911 C -36.342,5.113 -35.293,5.648 -34.473,6.384 L -34.278,6.591 C -34.022,6.86 -33.703,7.194 -33.422,7.252 C -33.256,7.287 -33.047,7.217 -32.796,7.046 C -32.731,7 -32.596,6.878 -32.506,6.799 C -32.356,6.662 -32.201,6.521 -32.03,6.68 C -32.014,6.697 -31.869,6.843 -32.03,7.04 C -32.328,7.41 -32.51,7.841 -32.447,7.935 C -32.444,7.935 -32.356,8.014 -31.818,7.913 L -31.84,7.915 C -31.405,7.807 -30.211,7.259 -30.869,7.807 C -30.73,7.842 -30.582,7.893 -30.434,7.932 L -30.226,7.973 C -30.115,7.989 -30.006,7.993 -29.893,7.974 C -29.598,7.926 -29.384,7.895 -29.231,7.859 L -29.19,7.849 C -29.19,7.849 -29.039,7.85 -28.994,7.85 C -29.002,7.825 -29.013,7.793 -29.03,7.755 C -29.049,7.729 -29.063,7.698 -29.072,7.661 C -29.112,7.367 -28.461,6.796 -28.453,6.79 C -28.33,6.682 -27.856,6.218 -27.356,5.723 C -26.619,5 -25.788,4.178 -25.469,3.914 C -25.028,3.539 -25.092,3.192 -25.153,3.09 C -25.237,2.957 -25.388,2.833 -25.509,2.867 L -25.647,2.926 C -25.844,3.016 -26.11,3.141 -26.303,2.964 C -26.389,2.886 -26.422,2.782 -26.422,2.667 C -26.422,2.522 -26.371,2.356 -26.311,2.193 C -26.282,2.111 -26.266,2.055 -26.26,2.014 C -26.342,1.871 -26.647,1.864 -26.848,1.976 C -26.953,2.036 -27.256,2.298 -27.477,2.488 L -27.897,2.839 C -28.318,3.161 -28.99,3.363 -29.342,3.419 C -29.413,3.43 -29.53,3.477 -29.635,3.518 C -29.709,3.55 -29.785,3.578 -29.856,3.598 C -30.326,3.86 -30.444,4.491 -30.473,4.62 C -30.505,4.755 -30.594,4.815 -30.61,4.634 C -30.625,4.456 -30.726,3.916 -30.263,3.17 C -30.188,3.023 -30.046,2.843 -29.838,2.605 L -29.63,2.339 C -29.276,1.87 -28.743,1.161 -27.627,0.523 L -26.943,0.167 C -25.671,-0.47 -23.826,-1.165 -23.084,-3.179 C -22.809,-3.929 -22.768,-4.834 -22.985,-5.886 C -23.487,-5.53 -24.145,-5.093 -24.788,-4.665 C -25.163,-4.416 -25.572,-4.142 -25.947,-3.891 L -25.701,-3.765 C -25.278,-3.501 -25.055,-3.237 -24.996,-2.938 C -24.91,-2.501 -25.24,-2.114 -25.543,-1.63 C -26.248,-0.499 -27.917,-0.244 -28.994,-0.109 L -29.719,0.005 C -30.859,0.215 -32.219,0.762 -33.038,1.492 C -34.193,2.524 -34.033,4.498 -33.917,5.088 C -33.891,5.222 -33.921,5.512 -34.024,5.202 C -34.184,4.553 -34.719,2.341 -33.362,1.128 C -32.473,0.334 -30.951,-0.265 -29.744,-0.494 L -29.055,-0.595 C -28.069,-0.717 -26.513,-0.994 -25.928,-1.928 C -25.678,-2.331 -25.428,-2.619 -25.476,-2.845 C -25.505,-2.998 -25.667,-3.167 -25.957,-3.351 L -26.417,-3.565 C -26.774,-3.312 -27.043,-3.109 -27.115,-3.015 C -27.174,-2.939 -27.259,-2.831 -27.36,-2.755 L -27.359,-2.755 C -28.149,-2.13 -27.789,-2.514 -27.855,-2.89 C -27.94,-2.955 -28.315,-2.965 -28.989,-2.708 C -29.384,-2.559 -29.403,-2.538 -29.569,-2.308 C -30.057,-1.678 -29.963,-1.932 -30.076,-2.464 C -30.115,-2.654 -30.143,-2.714 -30.332,-2.695 C -30.513,-2.675 -30.682,-2.595 -30.838,-2.481 z M -40.346,-7.237 L -40.59,-7.613 C -40.957,-8.224 -41.255,-8.818 -41.471,-9.253 L -41.565,-9.447 C -41.74,-9.825 -41.782,-9.841 -41.885,-9.818 C -41.884,-9.759 -41.855,-9.644 -41.832,-9.564 C -41.799,-9.423 -41.76,-9.267 -41.76,-9.112 C -41.76,-9.087 -41.76,-9.065 -41.763,-9.044 C -41.792,-8.649 -42.219,-7.962 -42.694,-7.23 L -42.76,-7.124 C -42.897,-6.921 -42.932,-6.61 -42.932,-6.306 C -42.932,-6.07 -42.91,-5.836 -42.893,-5.656 L -42.893,-5.648 C -42.634,-5.669 -42.319,-5.728 -41.793,-5.369 C -41.793,-5.384 -41.796,-5.403 -41.796,-5.419 C -41.796,-5.76 -41.709,-6.172 -41.621,-6.433 L -41.596,-6.523 C -41.533,-6.751 -41.43,-7.137 -41.09,-7.183 C -40.797,-7.222 -40.522,-6.981 -40.167,-6.379 C -39.711,-5.601 -39.676,-5.279 -39.678,-5.016 L -39.678,-4.992 L -39.663,-4.97 C -39.657,-4.964 -39.63,-4.961 -39.588,-4.959 C -39.447,-5.644 -39.963,-6.67 -40.346,-7.237 z M -39.259,-13.854 C -39.76,-12.833 -39.322,-11.277 -38.088,-9.69 C -38.088,-9.692 -37.752,-9.244 -37.752,-9.244 L -37.609,-9.065 C -37.355,-8.754 -36.944,-8.083 -36.944,-7.506 C -36.944,-7.411 -36.953,-7.317 -36.98,-7.229 C -37.055,-6.96 -37.248,-6.767 -37.535,-6.667 C -37.678,-6.618 -37.743,-6.577 -37.774,-6.555 C -37.719,-6.487 -37.572,-6.382 -37.496,-6.333 L -37.38,-6.252 C -37.19,-6.109 -36.864,-6.038 -36.609,-6.086 L -36.481,-6.121 C -36.34,-6.164 -36.147,-6.223 -35.951,-6.106 C -35.74,-5.985 -35.602,-5.706 -35.484,-5.178 C -35.334,-4.505 -35.453,-3.491 -36.006,-2.685 C -36.421,-2.083 -37.424,-1.266 -38.283,-1.412 C -38.606,-1.468 -39.024,-1.656 -39.217,-2.372 C -39.266,-2.548 -39.307,-2.702 -39.307,-2.89 C -39.307,-3.522 -38.985,-4.198 -38.667,-4.445 C -38.653,-4.457 -38.641,-4.466 -38.631,-4.476 C -38.66,-4.483 -38.717,-4.494 -38.726,-4.497 C -38.744,-4.499 -38.809,-4.49 -38.852,-4.486 C -39.147,-4.452 -40.096,-4.246 -40.205,-4.992 C -40.205,-4.992 -40.205,-5.036 -40.205,-5.044 C -40.205,-5.188 -40.227,-5.433 -40.623,-6.113 C -40.822,-6.449 -40.944,-6.577 -41.006,-6.628 C -41.039,-6.558 -41.072,-6.442 -41.086,-6.384 L -41.121,-6.266 C -41.197,-6.045 -41.226,-5.728 -41.226,-5.462 C -41.226,-5.438 -41.223,-5.415 -41.223,-5.394 C -41.221,-5.339 -41.215,-5.181 -41.182,-5.106 C -41.147,-5.016 -41.101,-4.909 -41.101,-4.805 C -41.101,-4.723 -41.131,-4.644 -41.215,-4.577 C -41.424,-4.422 -41.612,-4.622 -42.076,-4.922 C -42.461,-5.174 -42.584,-5.174 -42.811,-5.144 C -42.953,-5.126 -43.171,-5.05 -43.293,-5.007 C -43.388,-4.977 -43.455,-4.974 -43.506,-4.956 C -43.158,-4.649 -42.368,-3.786 -42.292,-3.471 C -42.276,-3.405 -42.303,-3.269 -42.328,-3.23 C -42.451,-3.035 -42.653,-2.8 -43.235,-2.531 C -42.826,-2.403 -42.219,-2.197 -41.944,-2.161 C -41.102,-2.051 -40.553,-1.697 -39.965,-1.359 C -39.443,-1.061 -38.903,-0.752 -38.11,-0.57 C -37.13,-0.345 -36.263,-0.882 -35.201,-2.379 C -34.776,-2.972 -34.678,-3.721 -34.678,-4.407 C -34.678,-5.357 -34.926,-6.206 -35.068,-6.488 L -35.127,-6.605 C -35.227,-6.794 -35.344,-7.021 -35.344,-7.254 C -35.344,-7.465 -35.248,-7.681 -34.957,-7.879 C -34.737,-8.033 -34.625,-8.138 -34.625,-8.286 C -34.625,-8.392 -34.678,-8.516 -34.788,-8.696 L -35.149,-9.263 C -35.38,-9.621 -35.598,-9.964 -35.705,-10.197 C -35.727,-10.251 -35.881,-10.498 -35.899,-10.437 C -35.922,-10.346 -35.947,-10.253 -35.947,-10.253 L -36.028,-9.9 C -36.155,-9.143 -36.278,-8.989 -36.477,-8.958 C -36.582,-8.943 -36.721,-8.983 -36.803,-9.146 L -37.02,-9.52 L -37.235,-9.868 L -37.455,-10.154 L -37.693,-10.481 C -38.33,-11.348 -39.297,-12.657 -38.288,-13.904 C -37.663,-14.675 -36.598,-14.44 -36.042,-14.266 C -36.068,-14.622 -36.094,-14.923 -36.127,-15.183 C -37.676,-15.168 -38.836,-14.71 -39.259,-13.854 z M -38.901,-23.324 L -39.355,-23.298 C -39.414,-23.29 -39.436,-23.275 -39.44,-23.271 C -39.487,-23.204 -39.418,-22.917 -39.381,-22.762 C -39.348,-22.616 -39.328,-22.433 -39.319,-22.289 C -39.309,-22.16 -39.292,-21.984 -39.256,-21.822 C -39.176,-21.441 -39.072,-20.948 -39.072,-20.162 C -39.072,-19.958 -39.076,-19.733 -39.094,-19.484 C -39.11,-19.274 -39.115,-19.103 -39.115,-18.964 C -39.115,-18.514 -39.057,-18.388 -39.024,-18.353 C -39.009,-18.333 -38.951,-18.329 -38.862,-18.325 L -38.697,-18.312 L -38.551,-18.295 C -38.055,-18.247 -36.889,-18.136 -36.213,-17.061 C -35.737,-16.293 -35.619,-15.538 -35.516,-13.656 C -35.417,-11.892 -34.063,-10.428 -33.518,-10.116 L -33.184,-9.93 C -32.744,-9.687 -32.211,-9.343 -31.764,-9.073 C -31.634,-8.977 -31.385,-8.91 -31.25,-8.563 C -31.171,-8.312 -31.049,-8.059 -30.917,-7.761 C -30.74,-7.365 -30.542,-6.912 -30.375,-6.297 C -30.072,-5.169 -30.244,-4.05 -30.563,-3.146 C -30.505,-3.161 -30.444,-3.174 -30.38,-3.179 C -30.076,-3.213 -29.859,-3.103 -29.723,-2.865 C -29.588,-2.989 -29.44,-3.057 -29.153,-3.167 C -28.586,-3.383 -27.877,-3.556 -27.538,-3.255 C -27.52,-3.276 -27.505,-3.294 -27.484,-3.319 C -27.28,-3.584 -26.424,-4.158 -25.042,-5.077 C -24.086,-5.712 -23.098,-6.368 -22.667,-6.732 C -22.426,-6.933 -22.334,-7.021 -22.334,-7.282 C -22.334,-7.349 -22.34,-7.428 -22.355,-7.523 C -22.377,-7.727 -22.436,-8.013 -22.5,-8.315 C -22.605,-8.816 -22.667,-9.405 -22.694,-9.9 C -22.739,-10.674 -22.641,-11.248 -22.641,-11.56 L -22.619,-11.816 C -22.605,-11.93 -22.598,-12.022 -22.598,-12.101 C -22.598,-12.277 -22.641,-12.378 -22.763,-12.449 C -23.028,-12.6 -23.667,-12.819 -24.134,-12.979 C -24.457,-13.089 -24.645,-13.156 -24.739,-13.198 C -24.819,-13.236 -24.971,-13.269 -25.068,-13.206 C -25.172,-13.138 -25.201,-12.956 -25.203,-12.817 L -25.221,-12.466 C -25.252,-11.988 -25.255,-11.959 -24.897,-11.827 C -24.796,-11.791 -24.752,-11.806 -24.658,-11.836 C -24.535,-11.877 -24.364,-11.933 -24.098,-11.836 C -23.638,-11.667 -23.513,-11.438 -23.307,-11.062 C -23.13,-10.731 -23.227,-10.334 -23.186,-9.607 L -23.157,-9.106 C -23.125,-8.74 -22.924,-8.225 -23.888,-7.917 C -25.518,-7.393 -26.469,-7.113 -26.799,-7.058 C -27.243,-6.986 -27.756,-6.781 -27.842,-6.691 C -27.936,-6.595 -28.082,-6.595 -28.174,-6.691 C -28.268,-6.785 -28.268,-6.94 -28.174,-7.035 C -27.957,-7.263 -27.278,-7.474 -26.871,-7.54 C -26.664,-7.576 -26.006,-7.766 -24.026,-8.383 C -23.98,-8.396 -23.932,-8.414 -23.891,-8.441 C -23.967,-8.603 -24.047,-8.765 -24.135,-8.931 C -24.477,-9.59 -25.318,-10.657 -25.705,-10.991 C -26.346,-11.542 -27.125,-12.038 -27.994,-12.107 C -29.618,-12.234 -30.852,-13.082 -31.671,-14.626 C -31.98,-15.21 -32.209,-15.785 -32.395,-16.249 C -32.584,-16.725 -32.748,-17.135 -32.907,-17.326 C -33.219,-17.7 -34.068,-18.145 -34.485,-17.96 C -35.051,-17.713 -35.364,-17.697 -35.721,-17.902 C -35.917,-18.014 -35.848,-18.165 -36.234,-18.133 C -36.368,-18.121 -36.848,-18.095 -36.86,-18.228 C -36.873,-18.364 -36.53,-18.486 -36.395,-18.496 C -35.647,-18.56 -35.734,-18.47 -35.481,-18.326 C -35.344,-18.248 -35.235,-18.187 -34.819,-18.351 C -34.871,-18.676 -35.171,-18.908 -35.426,-19.009 C -35.783,-19.152 -36.359,-19.088 -36.739,-19.044 C -37.211,-18.994 -37.897,-19.127 -37.961,-19.515 L -38.005,-19.714 C -38.049,-19.91 -38.112,-20.179 -38.149,-20.478 C -38.201,-20.895 -38.094,-21.701 -37.84,-21.953 C -37.739,-22.055 -37.447,-22.298 -37.168,-22.535 L -36.717,-22.917 L -36.638,-22.984 C -36.434,-23.156 -36.221,-23.336 -36.243,-24.053 C -36.26,-24.68 -36.5,-24.716 -37.255,-24.742 L -37.359,-24.744 C -37.848,-24.761 -38.138,-24.627 -38.203,-24.552 C -38.348,-24.458 -38.112,-24.148 -38.078,-24.048 C -38.061,-23.992 -38.047,-23.942 -38.043,-23.896 L -38.042,-23.896 C -37.908,-23.332 -37.538,-23.349 -38.565,-23.339 L -38.561,-23.342 C -38.667,-23.332 -38.78,-23.327 -38.901,-23.324 z M -43.395,-29.907 C -43.112,-29.356 -41.967,-27.124 -41.967,-27.124 C -41.967,-27.124 -43.164,-25.044 -43.485,-24.488 C -43.076,-24.488 -43.248,-24.488 -38.752,-24.488 C -38.755,-24.507 -38.759,-24.529 -38.759,-24.55 C -38.759,-24.657 -38.735,-24.761 -38.68,-24.86 C -38.586,-25.026 -38.413,-25.134 -38.167,-25.176 C -37.936,-25.225 -37.506,-25.238 -37.34,-25.232 L -37.239,-25.229 C -36.658,-25.209 -36.013,-25.185 -35.815,-24.488 L -35.417,-24.488 C -31.873,-24.488 -28.922,-24.488 -28.86,-24.488 C -28.828,-24.511 -28.36,-24.856 -27.895,-25.198 C -28.586,-25.418 -29.266,-25.647 -29.932,-25.894 L -30.135,-25.968 L -28.977,-29.907 C -32.106,-29.907 -42.748,-29.907 -43.395,-29.907 z M 2.859,-32.727 C -1.846,-31.081 -7.364,-30.138 -12.381,-30.138 L -12.408,-30.138 C -17.434,-30.138 -22.944,-31.084 -27.649,-32.736 L -29.532,-26.271 C -24.283,-24.369 -18.076,-23.284 -12.41,-23.284 L -12.381,-23.284 C -6.717,-23.284 -0.49,-24.376 4.76,-26.279 L 2.859,-32.727 z M 12.524,-24.959 C 12.583,-24.843 12.641,-24.677 12.682,-24.488 L 12.928,-24.488 C 17.579,-24.488 18.054,-24.488 18.469,-24.488 C 18.142,-25.044 16.944,-27.124 16.944,-27.124 C 16.944,-27.124 18.09,-29.356 18.375,-29.907 C 17.725,-29.907 7.222,-29.907 4.193,-29.907 L 5.343,-25.978 L 5.14,-25.894 C 4.484,-25.652 3.812,-25.424 3.132,-25.207 C 3.568,-24.861 4.007,-24.511 4.041,-24.488 C 4.101,-24.488 5.283,-24.488 8.529,-24.488 C 8.586,-24.565 8.654,-24.635 8.75,-24.708 C 8.932,-24.846 9.236,-24.785 9.447,-24.708 C 9.475,-24.831 9.525,-24.955 9.629,-25.076 C 9.895,-25.388 10.373,-25.647 10.86,-25.343 C 10.86,-25.343 10.981,-25.258 11.069,-25.196 L 11.072,-25.198 C 11.241,-25.369 11.545,-25.448 11.842,-25.405 C 12.145,-25.362 12.391,-25.199 12.524,-24.959 z M 11.166,-18.321 L 11.295,-18.419 C 11.574,-18.626 12.146,-19.056 12.102,-19.459 C 12.067,-19.765 12.063,-21.087 12.063,-21.101 C 12.063,-21.251 12.125,-21.568 12.219,-22.064 C 12.281,-22.373 12.342,-22.694 12.36,-22.849 C 12.392,-23.199 12.275,-24.392 12.094,-24.726 C 12.016,-24.869 11.858,-24.91 11.771,-24.924 C 11.6,-24.949 11.461,-24.896 11.418,-24.854 L 11.352,-24.786 C 11.076,-24.01 10.961,-24.425 10.703,-24.857 L 10.602,-24.93 C 10.324,-25.105 10.07,-24.843 10,-24.757 C 9.932,-24.68 9.906,-24.619 9.908,-24.556 C 9.91,-24.531 9.908,-24.509 9.906,-24.488 L 9.91,-24.49 C 10.035,-23.791 10.004,-23.858 9.454,-24.165 C 9.425,-24.179 9.392,-24.196 9.362,-24.218 L 9.37,-24.214 C 9.31,-24.25 9.072,-24.334 9.024,-24.302 C 8.894,-24.202 8.847,-24.136 8.845,-23.887 C 8.845,-23.573 9.41,-22.839 10.012,-22.486 C 10.362,-22.279 10.762,-21.853 10.762,-20.999 C 10.762,-20.919 10.76,-20.838 10.756,-20.75 C 10.708,-20.213 10.317,-19.692 10,-19.585 C 9.737,-19.496 9.045,-19.389 8.62,-19.354 C 8.453,-19.339 7.539,-19.219 6.293,-18.267 C 5.24,-17.459 4.638,-15.906 4.51,-15.425 C 4.491,-15.356 4.484,-15.265 4.484,-15.158 C 4.484,-14.532 4.763,-13.376 4.928,-13.074 C 5.092,-12.771 5.181,-12.365 5.181,-11.974 C 5.181,-11.931 5.178,-11.888 5.178,-11.845 C 5.48,-12.073 5.787,-12.343 5.986,-12.54 C 6.87,-13.407 6.712,-13.01 6.256,-12.37 C 6.041,-12.073 5.703,-11.612 5.293,-11.327 C 4.924,-11.069 4.23,-10.71 3.48,-10.554 C 2.752,-10.401 2.174,-10.173 1.894,-9.935 C 1.954,-9.9 2.006,-9.867 2.053,-9.838 C 2.079,-9.822 2.476,-9.563 2.833,-9.301 C 2.958,-9.482 3.16,-9.656 3.377,-9.71 C 3.685,-9.786 4.265,-9.675 4.513,-9.322 C 4.645,-9.134 4.737,-8.91 4.814,-8.729 C 4.814,-8.729 4.918,-8.494 4.924,-8.482 C 5.035,-8.352 5.748,-7.844 5.914,-7.767 C 6.14,-7.664 6.082,-7.618 5.861,-7.651 C 5.599,-7.687 4.67,-7.943 4.504,-8.235 L 4.362,-8.542 C 4.293,-8.708 4.215,-8.9 4.112,-9.041 C 4,-9.204 3.635,-9.272 3.495,-9.237 C 3.394,-9.211 3.27,-9.091 3.217,-8.999 C 3.295,-8.931 3.351,-8.87 3.381,-8.827 C 3.447,-8.713 3.41,-8.572 3.297,-8.5 C 3.185,-8.43 3.035,-8.466 2.962,-8.577 L 2.967,-8.568 C 2.888,-8.667 2.303,-9.096 1.787,-9.429 C 1.431,-9.66 1.357,-9.704 0.807,-9.97 L 0.535,-10.105 L 0.399,-10.161 C 0.168,-10.252 -0.184,-10.388 -0.239,-10.992 C -0.285,-11.501 -0.484,-11.875 -0.635,-11.891 C -0.793,-11.904 -1.014,-11.781 -1.115,-11.658 C -1.115,-11.658 -1.188,-11.577 -1.215,-11.518 C -1.368,-11.096 -1.447,-11.098 -1.701,-11.416 C -1.782,-11.513 -2.088,-11.415 -2.19,-11.383 C -2.288,-11.337 -2.428,-11.255 -2.385,-11.091 C -2.219,-10.242 -2.217,-10.197 -2.844,-10.373 C -2.938,-10.388 -3.002,-10.327 -3.059,-10.23 C -3.112,-10.139 -3.035,-9.897 -2.917,-9.527 L -2.905,-9.492 C -2.818,-9.198 -2.52,-8.933 -2.235,-8.68 C -2.102,-8.552 -1.918,-8.394 -1.792,-8.269 C -1.51,-8.023 -1.109,-7.917 -0.619,-7.762 C -0.158,-7.619 0.515,-7.285 0.789,-7.01 C 0.986,-6.812 1.822,-6.202 2.379,-5.944 C 2.631,-5.826 2.616,-5.738 2.204,-5.855 C 1.664,-6.06 0.73,-6.375 0.441,-6.665 C 0.42,-6.691 0.388,-6.715 0.353,-6.744 C -0.135,-5.089 0.279,-4.457 0.556,-4.036 L 0.578,-4.005 C 0.593,-4.003 0.611,-4.002 0.627,-4.001 L 0.757,-3.992 C 0.757,-3.992 0.994,-3.976 1.208,-3.966 C 1.201,-4.164 1.293,-4.292 1.359,-4.359 C 1.631,-4.619 2.149,-4.564 2.355,-4.479 C 2.369,-4.472 3.734,-3.895 3.995,-3.717 C 4.087,-3.657 4.191,-3.6 4.274,-3.559 C 4.312,-3.862 4.381,-4.382 4.465,-4.759 C 4.566,-5.202 4.773,-5.373 4.928,-5.439 C 5.093,-5.511 5.287,-5.494 5.453,-5.394 L 5.507,-5.369 C 5.697,-5.255 6.092,-5.111 6.486,-4.288 C 6.52,-4.213 6.553,-4.152 6.579,-4.095 C 6.59,-4.117 6.592,-4.134 6.603,-4.158 C 6.616,-4.191 6.67,-4.3 6.681,-4.32 L 6.763,-4.493 C 7.316,-5.618 8.342,-7.709 8.465,-9.888 L 8.557,-10.802 C 8.752,-12.019 9.14,-12.393 9.414,-12.657 C 9.483,-12.725 9.537,-12.777 9.569,-12.827 C 9.664,-12.976 9.885,-13.539 9.983,-14.236 C 9.983,-14.245 9.981,-14.255 9.981,-14.264 C 9.981,-14.371 9.995,-14.48 10.021,-14.586 C 10.058,-15.068 10.028,-15.588 9.86,-16.068 C 9.745,-15.902 9.649,-15.756 9.579,-15.65 C 9.011,-14.785 7.857,-14.042 9.164,-15.912 C 9.574,-16.496 10.317,-17.632 11.166,-18.321 z M 12.313,-8.868 C 12.362,-8.689 12.387,-8.57 12.432,-8.408 C 12.52,-8.106 12.662,-7.798 13.072,-7.333 C 13.079,-7.327 13.083,-7.326 13.092,-7.318 C 13.1,-7.355 13.123,-7.452 13.123,-7.452 L 13.178,-7.627 C 13.258,-7.902 13.381,-8.277 13.451,-8.465 C 13.707,-9.143 13.615,-9.226 14.373,-8.9 L 14.57,-8.817 C 14.592,-8.803 14.606,-8.799 14.62,-8.792 C 14.633,-8.843 14.641,-8.923 14.645,-8.953 L 14.649,-8.989 C 14.666,-9.161 14.949,-10.27 15.017,-10.535 C 15.262,-11.48 15.004,-11.406 15.789,-11.091 C 16.337,-10.869 16.645,-10.929 16.67,-10.97 C 16.861,-11.289 15.918,-12.809 15.491,-13.191 C 15.3,-13.359 14.92,-13.984 14.779,-14.313 L 14.754,-14.371 C 14.61,-14.706 14.373,-15.263 14.049,-15.659 C 12.627,-17.359 11.01,-16.684 10.32,-16.396 L 10.264,-16.374 C 10.396,-16.047 10.471,-15.702 10.502,-15.361 C 10.84,-15.662 11.346,-15.868 12,-15.868 C 13.281,-15.868 14.24,-14.59 14.24,-13.45 C 14.24,-12.301 13.297,-11.69 12.42,-11.609 C 11.94,-11.565 11.547,-11.706 11.315,-11.826 C 11.311,-11.785 11.308,-11.701 11.308,-11.591 C 11.308,-11.238 11.37,-10.625 11.803,-10.45 C 11.865,-10.425 11.981,-10.38 12.041,-10.365 C 12.775,-10.173 12.75,-10.167 12.256,-9.81 C 12.227,-9.79 12.207,-9.783 12.182,-9.761 C 12.174,-9.753 12.168,-9.748 12.162,-9.742 C 12.145,-9.722 12.137,-9.683 12.137,-9.636 C 12.137,-9.436 12.256,-9.038 12.313,-8.868 z M 18.065,-6.041 C 17.682,-6.876 17.504,-7.573 17.487,-8.122 C 17.483,-8.408 17.737,-8.794 17.958,-8.88 C 18.006,-8.906 18,-8.948 17.953,-8.979 C 17.916,-8.997 17.781,-9.075 17.781,-9.075 C 17.623,-9.168 17.297,-9.288 17.079,-9.304 C 16.899,-9.322 16.745,-9.267 16.606,-9.139 C 16.212,-8.782 16.002,-7.935 15.947,-7.177 C 16.285,-7.512 16.498,-7.618 16.699,-7.557 C 16.933,-7.489 16.975,-7.243 17.01,-7.064 L 17.049,-6.892 C 17.192,-6.553 17.418,-5.56 17.494,-4.963 C 17.512,-4.798 17.553,-4.508 17.6,-4.414 C 17.61,-4.417 17.619,-4.419 17.635,-4.427 L 17.664,-4.44 C 17.711,-4.46 17.77,-4.486 17.837,-4.508 C 17.947,-4.725 18.137,-5.222 18.137,-5.651 C 18.137,-5.793 18.115,-5.929 18.065,-6.041 z M 18.779,-3.678 C 18.811,-3.714 18.846,-3.768 18.846,-3.816 C 18.846,-3.825 18.844,-3.831 18.84,-3.84 C 18.822,-3.898 18.741,-3.983 18.557,-4.048 C 18.24,-4.158 18.021,-4.062 17.858,-3.993 L 17.828,-3.976 C 17.803,-3.968 17.781,-3.96 17.758,-3.953 C 16.858,-3.61 17.19,-3.692 17.061,-4.541 C 17.043,-4.652 17.028,-4.773 17.012,-4.903 C 16.936,-5.492 16.711,-6.433 16.598,-6.704 L 16.528,-6.98 C 16.524,-6.995 16.521,-7.014 16.517,-7.032 C 16.449,-6.983 16.344,-6.888 16.17,-6.706 L 15.998,-6.527 C 15.207,-5.701 14.469,-4.842 14.469,-4.046 C 14.469,-3.743 14.576,-3.446 14.832,-3.163 C 15.01,-3.027 15.106,-2.88 15.106,-2.724 C 15.106,-2.712 15.106,-2.702 15.104,-2.692 C 15.079,-2.412 14.799,-2.273 14.592,-2.174 L 14.494,-2.124 C 14.319,-2.025 13.111,-1.593 12.09,-2.086 C 11.379,-2.43 10.929,-3.129 10.76,-4.163 L 10.758,-4.181 C 10.66,-4.891 10.457,-6.353 12.127,-7.808 C 12.039,-7.976 11.979,-8.147 11.949,-8.331 C 11.936,-8.425 11.889,-8.57 11.842,-8.726 C 11.793,-8.897 11.737,-9.077 11.701,-9.247 C 11.211,-8.503 10.541,-7.369 10.332,-6.986 C 9.737,-5.88 9.483,-4.084 10.153,-2.787 C 10.485,-2.145 11.004,-1.669 11.701,-1.367 C 12.087,-1.221 12.775,-0.917 13.811,-1.263 C 14.172,-1.411 14.587,-1.581 14.928,-1.622 C 15.322,-1.669 15.754,-1.556 16.131,-1.458 C 16.377,-1.394 16.633,-1.327 16.771,-1.345 C 16.975,-1.37 17.354,-1.523 17.656,-1.645 C 17.896,-1.744 18.087,-1.82 18.215,-1.845 C 18.293,-1.862 18.387,-1.859 18.495,-1.855 C 18.602,-1.85 18.84,-1.841 18.906,-1.885 C 18.906,-1.886 18.906,-1.885 18.906,-1.886 C 18.906,-1.915 18.892,-2.015 18.76,-2.235 L 18.754,-2.24 L 18.752,-2.247 C 18.619,-2.497 18.549,-2.757 18.549,-3.001 C 18.549,-3.259 18.627,-3.496 18.779,-3.678"
           id="path4919"
           style="fill:#8f753e;fill-opacity:1;fill-rule:nonzero;stroke:none" />
      </g>
      <g
         transform="matrix(6.8140539,0,0,-6.8140539,2956.6192,-583.9224)"
         id="g4921"
         style="fill:#000000">
        <path
           d="M 0,0 C 0.191,0.062 0.796,0.052 1.073,-0.194 C 1.179,-0.282 1.327,-0.359 1.379,-0.398 C 1.433,-0.435 1.471,-0.539 1.266,-0.589 C 1.062,-0.641 0.946,-0.677 0.792,-0.743 C 0.64,-0.807 0.358,-0.794 0.206,-0.69 C 0.052,-0.589 -0.218,-0.347 -0.218,-0.218 C -0.218,-0.091 -0.063,0 0,0"
           id="path4923"
           style="fill:#000000;fill-opacity:1;fill-rule:nonzero;stroke:none" />
      </g>
      <g
         transform="matrix(6.8140539,0,0,-6.8140539,2733.6083,-571.4595)"
         id="g4925"
         style="fill:#000000">
        <path
           d="M 0,0 C 0.116,-0.045 0.264,-0.196 0.61,-0.334 C 0.957,-0.475 1.002,-0.328 1.103,0.011 C 1.207,0.347 1.002,0.347 0.873,0.347 C 0.743,0.347 0.395,0.328 0.153,0.3 C -0.353,0.244 -0.109,0.046 0,0"
           id="path4927"
           style="fill:#000000;fill-opacity:1;fill-rule:nonzero;stroke:none" />
      </g>
      <g
         transform="matrix(6.8140539,0,0,-6.8140539,2852.1254,-604.28279)"
         id="g4985"
         style="fill:#000000">
        <path
           d="M 0,0 C 0.221,0 0.401,-0.181 0.401,-0.404 C 0.401,-0.626 0.221,-0.809 0,-0.809 C -0.225,-0.809 -0.406,-0.626 -0.406,-0.404 C -0.406,-0.181 -0.225,0 0,0 z M 0.889,-0.404 C 0.889,0.086 0.488,0.485 0,0.485 C -0.494,0.485 -0.893,0.086 -0.893,-0.404 C -0.893,-0.895 -0.494,-1.295 0,-1.295 C 0.488,-1.295 0.889,-0.895 0.889,-0.404"
           id="path4987"
           style="fill:#000000;fill-opacity:1;fill-rule:nonzero;stroke:none" />
      </g>
      <g
         transform="matrix(6.8140539,0,0,-6.8140539,2852.507,-391.90918)"
         id="g4989"
         style="fill:#000000">
        <path
           d="M 0,0 L 0,0 C 0.003,0 0.003,0 0.005,0 C 0.005,0 0.005,0 0.008,0 C 4.658,0.004 8.446,4.554 8.446,10.143 C 8.446,15.734 4.658,20.284 0.008,20.289 C 0.005,20.289 0.005,20.289 0.005,20.289 C 0.003,20.289 0.003,20.289 0,20.289 C -4.652,20.284 -8.438,15.734 -8.438,10.143 C -8.438,4.554 -4.652,0.004 0,0"
           id="path4991"
           style="fill:#000000;fill-opacity:1;fill-rule:nonzero;stroke:none" />
      </g>
      <g
         transform="matrix(6.8140539,0,0,-6.8140539,2852.5479,-527.14089)"
         id="g4993"
         style="fill:#ff0000">
        <path
           d="M 0,0 C 4.411,-0.005 7.997,-4.356 7.997,-9.703 C 7.997,-15.047 4.411,-19.399 -0.003,-19.403 C -4.415,-19.399 -8,-15.047 -8,-9.703 C -8,-4.356 -4.415,-0.005 -0.003,0 L 0,0"
           id="path4995"
           style="fill:#ff0000;fill-opacity:1;fill-rule:nonzero;stroke:none" />
      </g>
      <g
         transform="matrix(6.8140539,0,0,-6.8140539,2841.0387,-426.57908)"
         id="g4997">
        <path
           d="M 0,0 C -0.094,-0.142 -0.138,-0.213 -0.098,-0.251 C -0.071,-0.276 -0.023,-0.283 0.25,-0.076 C 1.391,0.693 1.85,2.188 2.221,3.391 L 2.412,3.997 C 2.412,3.997 2.424,4.026 2.429,4.039 C 2.438,4.026 2.455,3.992 2.484,3.903 C 2.508,3.828 2.66,3.237 2.836,2.553 C 3.087,1.575 3.399,0.36 3.455,0.182 C 3.514,-0.002 3.524,-0.03 3.563,-0.03 C 3.598,-0.028 3.603,0.005 3.62,0.078 L 3.645,0.183 C 3.666,0.251 3.745,0.618 3.856,1.13 C 4.094,2.223 4.451,3.877 4.58,4.297 C 4.58,4.297 4.587,4.314 4.59,4.318 C 4.596,4.314 4.62,4.287 4.635,4.172 C 4.653,3.914 5.449,0.64 7.002,-0.393 C 6.998,-0.391 7.012,-0.406 7.012,-0.406 C 7.076,-0.47 7.133,-0.53 7.179,-0.502 C 7.208,-0.483 7.216,-0.436 7.162,-0.266 C 5.75,4.14 5.922,9.906 6.096,11.144 L 6.107,11.213 C 6.133,11.327 6.145,11.398 6.098,11.418 C 6.058,11.437 6.008,11.405 5.857,11.19 C 5.42,10.57 4.283,7.651 3.903,6.285 C 3.893,6.26 3.877,6.214 3.865,6.194 C 3.857,6.203 3.846,6.22 3.832,6.285 C 3.822,6.319 2.75,9.944 2.006,11.039 L 1.975,11.095 C 1.899,11.223 1.862,11.274 1.822,11.258 C 1.787,11.245 1.785,11.201 1.811,11.068 C 2.278,8.648 1.576,3.172 0,0"
           id="path4999"
           style="fill:#ffffff;fill-opacity:1;fill-rule:nonzero;stroke:none" />
      </g>
      <g
         transform="matrix(6.8140539,0,0,-6.8140539,2819.3705,-500.12317)"
         id="g5001">
        <path
           d="M 0,0 L 0.021,0.007 C 0.248,0.08 0.483,0.16 0.59,0.373 C 0.796,0.99 1.391,1.219 1.719,1.219 C 2.194,1.219 3.971,0.577 3.971,-2.564 C 3.971,-4.579 3.104,-5.99 1.526,-6.545 L 1.475,-6.562 C 1.26,-6.645 1.241,-6.832 1.225,-6.999 L 1.219,-7.046 C 0.883,-10.004 -0.275,-10.956 -0.623,-11.176 C -0.718,-11.239 -0.785,-11.251 -0.826,-11.215 C -0.851,-11.196 -0.862,-11.164 -0.862,-11.13 C -0.862,-11.073 -0.836,-11.008 -0.825,-10.982 C -0.41,-9.764 -0.263,-6.055 -0.263,-3.389 C -0.263,-2.237 -0.292,-1.277 -0.334,-0.799 C -0.343,-0.692 -0.349,-0.599 -0.349,-0.523 C -0.349,-0.153 -0.234,-0.091 0,0 z M 1.234,-6.037 C 1.377,-6.129 1.598,-6.028 1.829,-5.904 C 2.317,-5.65 2.414,-5.215 2.579,-2.596 C 2.717,-0.459 2.208,0.326 1.987,0.563 C 1.85,0.709 1.7,0.789 1.565,0.789 L 1.563,0.789 L 1.561,0.787 C 1.196,0.761 1.166,0.355 1.166,-0.023 C 1.166,-0.484 1.119,-4.374 1.075,-5.279 C 1.05,-5.719 1.102,-5.952 1.234,-6.037"
           id="path5003"
           style="fill:#ffffff;fill-opacity:1;fill-rule:nonzero;stroke:none" />
      </g>
      <g
         transform="matrix(5.4512431,0,0,5.4512431,-10131.375,865.63128)"
         id="g5335">
        <g
           transform="matrix(1.25,0,0,-1.25,2365.1379,-217.395)"
           id="g5005"
           style="fill:#000000">
          <path
             d="M 0,0 L -0.419,-0.126 L -1.013,1.883 L -0.596,2.006 L 0,0"
             id="path5007"
             style="fill:#000000;fill-opacity:1;fill-rule:nonzero;stroke:none" />
        </g>
        <g
           transform="matrix(1.25,0,0,-1.25,2365.5129,-220.225)"
           id="g5009"
           style="fill:#000000">
          <path
             d="M 0,0 L 0.443,0.113 L 1.591,-1.092 L 1.233,0.313 L 1.629,0.415 L 2.144,-1.615 L 1.722,-1.723 L 0.549,-0.496 L 0.91,-1.929 L 0.516,-2.029 L 0,0"
             id="path5011"
             style="fill:#000000;fill-opacity:1;fill-rule:nonzero;stroke:none" />
        </g>
        <g
           transform="matrix(1.25,0,0,-1.25,2370.5954,-221.37625)"
           id="g5013"
           style="fill:#000000">
          <path
             d="M 0,0 L 0.071,-0.356 L -0.545,-0.478 L -0.205,-2.175 L -0.633,-2.261 L -0.975,-0.566 L -1.591,-0.689 L -1.66,-0.33 L 0,0"
             id="path5015"
             style="fill:#000000;fill-opacity:1;fill-rule:nonzero;stroke:none" />
        </g>
        <g
           transform="matrix(1.25,0,0,-1.25,2373.5429,-221.36875)"
           id="g5017"
           style="fill:#000000">
          <path
             d="M 0,0 L -1.075,-0.161 L -1.011,-0.596 L -0.024,-0.447 L 0.029,-0.807 L -0.958,-0.956 L -0.875,-1.489 L 0.252,-1.322 L 0.308,-1.692 L -1.243,-1.925 L -1.553,0.145 L -0.057,0.37 L 0,0"
             id="path5019"
             style="fill:#000000;fill-opacity:1;fill-rule:nonzero;stroke:none" />
        </g>
        <g
           transform="matrix(1.25,0,0,-1.25,2376.2917,-222.0725)"
           id="g5021"
           style="fill:#000000">
          <path
             d="M 0,0 C 0.081,-0.025 0.152,-0.068 0.211,-0.127 C 0.26,-0.175 0.298,-0.23 0.334,-0.293 C 0.365,-0.351 0.383,-0.425 0.392,-0.507 C 0.402,-0.605 0.385,-0.706 0.347,-0.805 C 0.306,-0.907 0.23,-0.983 0.117,-1.034 C 0.221,-1.061 0.29,-1.11 0.34,-1.179 C 0.385,-1.246 0.415,-1.353 0.429,-1.5 L 0.447,-1.638 C 0.455,-1.732 0.465,-1.797 0.474,-1.83 C 0.492,-1.882 0.523,-1.918 0.566,-1.94 L 0.57,-1.993 L 0.092,-2.039 C 0.073,-1.994 0.062,-1.957 0.054,-1.932 C 0.039,-1.873 0.025,-1.814 0.017,-1.755 L -0.004,-1.56 C -0.019,-1.428 -0.052,-1.341 -0.098,-1.304 C -0.148,-1.262 -0.233,-1.25 -0.354,-1.261 L -0.778,-1.304 L -0.696,-2.118 L -1.123,-2.159 L -1.327,-0.078 L -0.335,0.022 C -0.19,0.034 -0.081,0.027 0,0 z M -0.865,-0.397 L -0.813,-0.957 L -0.342,-0.909 C -0.25,-0.902 -0.182,-0.884 -0.14,-0.856 C -0.059,-0.809 -0.028,-0.724 -0.039,-0.607 C -0.052,-0.482 -0.098,-0.402 -0.182,-0.368 C -0.232,-0.347 -0.298,-0.34 -0.385,-0.35 L -0.865,-0.397"
             id="path5023"
             style="fill:#000000;fill-opacity:1;fill-rule:nonzero;stroke:none" />
        </g>
        <g
           transform="matrix(1.25,0,0,-1.25,2377.8754,-222.26625)"
           id="g5025"
           style="fill:#000000">
          <path
             d="M 0,0 L 0.457,0.019 L 1.339,-1.391 L 1.273,0.057 L 1.68,0.076 L 1.776,-2.014 L 1.339,-2.034 L 0.435,-0.598 L 0.501,-2.073 L 0.096,-2.09 L 0,0"
             id="path5027"
             style="fill:#000000;fill-opacity:1;fill-rule:nonzero;stroke:none" />
        </g>
        <g
           transform="matrix(1.25,0,0,-1.25,2381.8929,-222.37875)"
           id="g5029"
           style="fill:#000000">
          <path
             d="M 0,0 L 0.5,-0.004 L 1.225,-2.101 L 0.753,-2.096 L 0.618,-1.669 L -0.154,-1.663 L -0.296,-2.091 L -0.759,-2.089 L 0,0 z M -0.03,-1.3 L 0.503,-1.302 L 0.246,-0.479 L -0.03,-1.3"
             id="path5031"
             style="fill:#000000;fill-opacity:1;fill-rule:nonzero;stroke:none" />
        </g>
        <g
           transform="matrix(1.25,0,0,-1.25,2386.0491,-222.24375)"
           id="g5033"
           style="fill:#000000">
          <path
             d="M 0,0 L -0.019,-0.363 L -0.646,-0.33 L -0.734,-2.058 L -1.173,-2.035 L -1.084,-0.309 L -1.71,-0.276 L -1.691,0.086 L 0,0"
             id="path5035"
             style="fill:#000000;fill-opacity:1;fill-rule:nonzero;stroke:none" />
        </g>
        <g
           transform="matrix(1.25,0,0,-1.25,2387.2679,-219.51375)"
           id="g5037"
           style="fill:#000000">
          <path
             d="M 0,0 L -0.438,0.039 L -0.258,2.125 L 0.18,2.086 L 0,0"
             id="path5039"
             style="fill:#000000;fill-opacity:1;fill-rule:nonzero;stroke:none" />
        </g>
        <g
           transform="matrix(1.25,0,0,-1.25,2390.3342,-219.40125)"
           id="g5041"
           style="fill:#000000">
          <path
             d="M 0,0 C -0.178,-0.14 -0.416,-0.192 -0.711,-0.155 C -1.007,-0.118 -1.224,-0.008 -1.359,0.174 C -1.545,0.399 -1.611,0.698 -1.565,1.068 C -1.516,1.449 -1.371,1.72 -1.138,1.883 C -0.963,2.024 -0.726,2.077 -0.43,2.038 C -0.133,2.001 0.084,1.891 0.218,1.709 C 0.401,1.493 0.472,1.193 0.422,0.815 C 0.372,0.441 0.234,0.17 0,0 z M -0.232,0.353 C -0.115,0.465 -0.041,0.637 -0.016,0.87 C 0.018,1.102 -0.01,1.286 -0.095,1.425 C -0.181,1.562 -0.305,1.644 -0.476,1.667 C -0.646,1.687 -0.789,1.643 -0.907,1.53 C -1.025,1.419 -1.099,1.247 -1.129,1.014 C -1.158,0.782 -1.132,0.596 -1.045,0.458 C -0.961,0.319 -0.832,0.239 -0.662,0.216 C -0.492,0.196 -0.349,0.241 -0.232,0.353"
             id="path5043"
             style="fill:#000000;fill-opacity:1;fill-rule:nonzero;stroke:none" />
        </g>
        <g
           transform="matrix(1.25,0,0,-1.25,2392.1042,-221.53625)"
           id="g5045"
           style="fill:#000000">
          <path
             d="M 0,0 L 0.446,-0.082 L 0.985,-1.66 L 1.252,-0.232 L 1.651,-0.306 L 1.269,-2.364 L 0.842,-2.285 L 0.285,-0.681 L 0.015,-2.133 L -0.383,-2.059 L 0,0"
             id="path5047"
             style="fill:#000000;fill-opacity:1;fill-rule:nonzero;stroke:none" />
        </g>
        <g
           transform="matrix(1.25,0,0,-1.25,2396.0642,-220.73)"
           id="g5049"
           style="fill:#000000">
          <path
             d="M 0,0 L 0.483,-0.117 L 0.713,-2.325 L 0.252,-2.213 L 0.219,-1.764 L -0.533,-1.586 L -0.77,-1.967 L -1.217,-1.859 L 0,0 z M -0.328,-1.26 L 0.192,-1.384 L 0.127,-0.521 L -0.328,-1.26"
             id="path5051"
             style="fill:#000000;fill-opacity:1;fill-rule:nonzero;stroke:none" />
        </g>
        <g
           transform="matrix(1.25,0,0,-1.25,2398.5154,-220.105)"
           id="g5053"
           style="fill:#000000">
          <path
             d="M 0,0 L 0.423,-0.125 L -0.062,-1.774 L 0.939,-2.067 L 0.834,-2.427 L -0.59,-2.009 L 0,0"
             id="path5055"
             style="fill:#000000;fill-opacity:1;fill-rule:nonzero;stroke:none" />
        </g>
        <g
           transform="matrix(1.25,0,0,-1.25,2365.0542,-222.1025)"
           id="g5057"
           style="fill:#000000">
          <path
             d="M 0,0 C -0.088,-0.133 -0.239,-0.231 -0.457,-0.295 L -0.871,-0.416 L -0.661,-1.134 L -1.082,-1.257 L -1.67,0.751 L -0.812,1.004 C -0.612,1.06 -0.44,1.053 -0.292,0.986 C -0.143,0.916 -0.038,0.772 0.027,0.556 C 0.096,0.316 0.087,0.133 0,0 z M -0.538,0.629 C -0.604,0.66 -0.684,0.661 -0.776,0.634 L -1.147,0.524 L -0.975,-0.067 L -0.604,0.043 C -0.508,0.07 -0.442,0.115 -0.408,0.178 C -0.368,0.242 -0.364,0.326 -0.393,0.43 C -0.424,0.536 -0.473,0.601 -0.538,0.629"
             id="path5059"
             style="fill:#000000;fill-opacity:1;fill-rule:nonzero;stroke:none" />
        </g>
        <g
           transform="matrix(1.25,0,0,-1.25,2366.8604,-221.4175)"
           id="g5061"
           style="fill:#000000">
          <path
             d="M 0,0 L -0.475,2.038 L -0.049,2.139 L 0.133,1.362 L 0.916,1.541 L 0.732,2.319 L 1.162,2.42 L 1.637,0.382 L 1.21,0.282 L 0.997,1.188 L 0.214,1.006 L 0.428,0.099 L 0,0"
             id="path5063"
             style="fill:#000000;fill-opacity:1;fill-rule:nonzero;stroke:none" />
        </g>
        <g
           transform="matrix(1.25,0,0,-1.25,2370.8104,-222.26375)"
           id="g5065"
           style="fill:#000000">
          <path
             d="M 0,0 L -0.432,-0.082 L -0.814,1.977 L -0.384,2.058 L 0,0"
             id="path5067"
             style="fill:#000000;fill-opacity:1;fill-rule:nonzero;stroke:none" />
        </g>
        <g
           transform="matrix(1.25,0,0,-1.25,2371.8329,-225.09125)"
           id="g5069"
           style="fill:#000000">
          <path
             d="M 0,0 L 0.436,0.064 L 0.682,-1.636 L 1.713,-1.487 L 1.768,-1.86 L 0.297,-2.071 L 0,0"
             id="path5071"
             style="fill:#000000;fill-opacity:1;fill-rule:nonzero;stroke:none" />
        </g>
        <g
           transform="matrix(1.25,0,0,-1.25,2375.8204,-222.96)"
           id="g5073"
           style="fill:#000000">
          <path
             d="M 0,0 L -0.436,-0.045 L -0.649,2.038 L -0.211,2.081 L 0,0"
             id="path5075"
             style="fill:#000000;fill-opacity:1;fill-rule:nonzero;stroke:none" />
        </g>
        <g
           transform="matrix(1.25,0,0,-1.25,2378.9241,-224.31375)"
           id="g5077"
           style="fill:#000000">
          <path
             d="M 0,0 C -0.114,-0.109 -0.286,-0.17 -0.513,-0.181 L -0.942,-0.207 L -0.9,-0.955 L -1.335,-0.981 L -1.458,1.108 L -0.563,1.161 C -0.358,1.172 -0.192,1.127 -0.063,1.028 C 0.07,0.926 0.14,0.763 0.152,0.537 C 0.165,0.289 0.115,0.113 0,0 z M -0.382,0.739 C -0.438,0.782 -0.516,0.801 -0.614,0.794 L -1,0.772 L -0.964,0.158 L -0.577,0.179 C -0.479,0.184 -0.405,0.214 -0.354,0.268 C -0.302,0.32 -0.28,0.402 -0.288,0.509 C -0.294,0.619 -0.323,0.696 -0.382,0.739"
             id="path5079"
             style="fill:#000000;fill-opacity:1;fill-rule:nonzero;stroke:none" />
        </g>
        <g
           transform="matrix(1.25,0,0,-1.25,2384.2279,-225.82)"
           id="g5081"
           style="fill:#000000">
          <path
             d="M 0,0 L 0.627,-0.017 L 0.566,-2.112 L 0.159,-2.099 L 0.204,-0.683 C 0.204,-0.643 0.205,-0.586 0.207,-0.512 C 0.209,-0.439 0.215,-0.382 0.215,-0.343 L -0.232,-2.088 L -0.656,-2.075 L -0.997,-0.306 C -0.997,-0.347 -0.997,-0.402 -0.998,-0.477 C -1,-0.549 -1,-0.608 -1.003,-0.649 L -1.045,-2.06 L -1.451,-2.05 L -1.388,0.041 L -0.753,0.022 L -0.426,-1.633 L 0,0"
             id="path5083"
             style="fill:#000000;fill-opacity:1;fill-rule:nonzero;stroke:none" />
        </g>
        <g
           transform="matrix(1.25,0,0,-1.25,2388.3454,-223.145)"
           id="g5085"
           style="fill:#000000">
          <path
             d="M 0,0 C -0.171,-0.145 -0.408,-0.206 -0.704,-0.179 C -1.001,-0.152 -1.221,-0.049 -1.362,0.127 C -1.553,0.343 -1.633,0.64 -1.603,1.014 C -1.563,1.393 -1.432,1.672 -1.206,1.842 C -1.033,1.988 -0.797,2.05 -0.504,2.022 C -0.206,1.996 0.015,1.894 0.158,1.717 C 0.351,1.507 0.429,1.211 0.394,0.831 C 0.361,0.457 0.228,0.179 0,0 z M -0.243,0.345 C -0.133,0.463 -0.066,0.638 -0.044,0.869 C -0.022,1.102 -0.055,1.286 -0.143,1.424 C -0.233,1.557 -0.364,1.633 -0.534,1.65 C -0.704,1.663 -0.849,1.614 -0.962,1.497 C -1.075,1.379 -1.143,1.206 -1.166,0.973 C -1.184,0.741 -1.153,0.556 -1.059,0.42 C -0.97,0.285 -0.839,0.211 -0.666,0.195 C -0.497,0.179 -0.354,0.23 -0.243,0.345"
             id="path5087"
             style="fill:#000000;fill-opacity:1;fill-rule:nonzero;stroke:none" />
        </g>
        <g
           transform="matrix(1.25,0,0,-1.25,2392.0529,-224.97875)"
           id="g5089"
           style="fill:#000000">
          <path
             d="M 0,0 C 0.069,-0.043 0.125,-0.103 0.17,-0.175 C 0.205,-0.234 0.231,-0.296 0.246,-0.365 C 0.264,-0.431 0.266,-0.506 0.25,-0.587 C 0.238,-0.686 0.197,-0.779 0.135,-0.868 C 0.072,-0.955 -0.023,-1.01 -0.142,-1.032 C -0.053,-1.084 0.006,-1.15 0.034,-1.225 C 0.063,-1.301 0.069,-1.414 0.047,-1.558 L 0.024,-1.697 C 0.01,-1.79 0.004,-1.858 0.008,-1.89 C 0.01,-1.946 0.03,-1.989 0.069,-2.021 L 0.056,-2.073 L -0.416,-1.999 C -0.422,-1.954 -0.424,-1.914 -0.428,-1.885 C -0.43,-1.826 -0.428,-1.765 -0.416,-1.706 L -0.391,-1.51 C -0.375,-1.38 -0.382,-1.29 -0.42,-1.237 C -0.459,-1.188 -0.536,-1.153 -0.654,-1.135 L -1.076,-1.073 L -1.199,-1.88 L -1.621,-1.819 L -1.308,0.253 L -0.32,0.103 C -0.181,0.08 -0.072,0.043 0,0 z M -0.94,-0.171 L -1.025,-0.728 L -0.558,-0.796 C -0.47,-0.813 -0.398,-0.811 -0.349,-0.794 C -0.262,-0.77 -0.207,-0.697 -0.191,-0.582 C -0.17,-0.457 -0.197,-0.367 -0.271,-0.31 C -0.312,-0.279 -0.378,-0.256 -0.466,-0.243 L -0.94,-0.171"
             id="path5091"
             style="fill:#000000;fill-opacity:1;fill-rule:nonzero;stroke:none" />
        </g>
        <g
           transform="matrix(1.25,0,0,-1.25,2395.6429,-224.28875)"
           id="g5093"
           style="fill:#000000">
          <path
             d="M 0,0 C 0.067,-0.047 0.125,-0.111 0.165,-0.183 C 0.197,-0.244 0.22,-0.308 0.232,-0.378 C 0.241,-0.445 0.24,-0.521 0.224,-0.6 C 0.2,-0.697 0.158,-0.788 0.087,-0.872 C 0.021,-0.954 -0.075,-1.006 -0.196,-1.021 C -0.112,-1.078 -0.053,-1.148 -0.03,-1.228 C -0.007,-1.303 -0.01,-1.415 -0.04,-1.557 L -0.069,-1.695 C -0.088,-1.788 -0.096,-1.853 -0.096,-1.886 C -0.096,-1.943 -0.081,-1.987 -0.044,-2.019 L -0.053,-2.072 L -0.525,-1.972 C -0.529,-1.924 -0.53,-1.886 -0.529,-1.857 C -0.529,-1.798 -0.522,-1.735 -0.513,-1.675 L -0.473,-1.487 C -0.448,-1.356 -0.452,-1.264 -0.483,-1.211 C -0.518,-1.159 -0.598,-1.121 -0.717,-1.094 L -1.132,-1.006 L -1.302,-1.807 L -1.721,-1.717 L -1.288,0.327 L -0.312,0.123 C -0.171,0.09 -0.067,0.049 0,0 z M -0.944,-0.116 L -1.062,-0.667 L -0.6,-0.763 C -0.513,-0.783 -0.438,-0.786 -0.389,-0.775 C -0.302,-0.751 -0.243,-0.683 -0.221,-0.568 C -0.194,-0.445 -0.217,-0.354 -0.284,-0.294 C -0.323,-0.261 -0.385,-0.234 -0.473,-0.216 L -0.944,-0.116"
             id="path5095"
             style="fill:#000000;fill-opacity:1;fill-rule:nonzero;stroke:none" />
        </g>
        <g
           transform="matrix(1.25,0,0,-1.25,2397.3979,-221.23875)"
           id="g5097"
           style="fill:#000000">
          <path
             d="M 0,0 L -0.422,0.11 L 0.1,2.136 L 0.527,2.026 L 0,0"
             id="path5099"
             style="fill:#000000;fill-opacity:1;fill-rule:nonzero;stroke:none" />
        </g>
      </g>
      <g
         transform="matrix(6.8140539,0,0,-6.8140539,2948.2309,-341.98948)"
         id="g5109">
        <path
           d="M 0,0 C -0.019,-0.096 -0.012,-0.172 0.01,-0.229 C 0.054,-0.33 0.158,-0.409 0.322,-0.457 C 0.421,-0.487 0.505,-0.501 0.573,-0.499 C 0.702,-0.493 0.785,-0.433 0.818,-0.322 C 0.837,-0.255 0.826,-0.194 0.779,-0.142 C 0.731,-0.088 0.652,-0.028 0.535,0.036 L 0.335,0.148 C 0.142,0.259 0.013,0.353 -0.052,0.433 C -0.161,0.568 -0.184,0.734 -0.125,0.929 C -0.069,1.11 0.043,1.239 0.21,1.317 C 0.375,1.397 0.585,1.397 0.839,1.319 C 1.052,1.255 1.22,1.143 1.335,0.987 C 1.452,0.829 1.48,0.643 1.421,0.427 L 1.017,0.549 C 1.047,0.673 1.023,0.773 0.935,0.856 C 0.88,0.909 0.802,0.949 0.708,0.978 C 0.597,1.014 0.503,1.017 0.427,0.995 C 0.347,0.97 0.296,0.92 0.273,0.842 C 0.251,0.772 0.267,0.707 0.319,0.653 C 0.356,0.619 0.433,0.562 0.56,0.49 L 0.878,0.301 C 1.023,0.218 1.121,0.134 1.177,0.051 C 1.269,-0.08 1.289,-0.234 1.231,-0.413 C 1.177,-0.597 1.062,-0.729 0.88,-0.807 C 0.708,-0.883 0.49,-0.883 0.231,-0.807 C -0.03,-0.726 -0.219,-0.602 -0.332,-0.439 C -0.448,-0.273 -0.471,-0.086 -0.409,0.123 L 0,0"
           id="path5111"
           style="fill:#162026;fill-opacity:1;fill-rule:nonzero;stroke:none" />
      </g>
    </g>
  </g>
</svg>
