<?xml version="1.0" encoding="utf-8"?>
<!-- Generator: Adobe Illustrator 21.0.2, SVG Export Plug-In . SVG Version: 6.00 Build 0)  -->
<svg version="1.1" id="Layer_1" xmlns="http://www.w3.org/2000/svg" xmlns:xlink="http://www.w3.org/1999/xlink" x="0px" y="0px"
	 viewBox="0 0 640 480" style="enable-background:new 0 0 640 480;" xml:space="preserve">
<path d="M629.4,274.7c-5.4-0.1-9.8,4.2-9.9,9.6c-0.1,5.4,4.2,9.8,9.6,9.9c0.1,0,0.2,0,0.4,0c5.4,0,9.7-4.4,9.7-9.7c0,0,0,0,0,0
	C639.1,279.1,634.7,274.7,629.4,274.7C629.4,274.7,629.4,274.7,629.4,274.7z M629.4,293.1c-4.7,0-8.6-3.8-8.6-8.5c0,0,0,0,0,0
	c0-4.7,3.8-8.5,8.5-8.5c0,0,0,0,0,0c4.7,0,8.5,3.8,8.5,8.5c0,0,0,0,0,0C637.9,289.2,634.1,293,629.4,293.1
	C629.4,293.1,629.4,293.1,629.4,293.1z"/>
<path d="M634.3,281.9c0-0.9-0.4-1.9-1.2-2.3c-0.8-0.5-1.7-0.5-2.7-0.5h-4.7v10.9h1.3v-5h2.4l3.1,5h1.6l-3.3-5
	C632.8,284.8,634.3,284.1,634.3,281.9L634.3,281.9z M629.1,283.8h-2V280h3.1c1.4,0,2.8,0.2,2.8,1.9
	C633,284.1,630.6,283.8,629.1,283.8z M572.3,229.3l19.9-21.3c1.2-1.6,1.7-2.7,1.7-3.6c0-1.6-1.3-2.2-5.6-2.2h-5v-13.4h54.4v13.4
	h-7.1c-8.3,0-9.8,1.2-21.3,15.8l-31.5,34v20.8c0,5.3,2.7,7.2,10.4,7.2H600v13h-76.2v-13h11.9c7.7,0,10.4-1.9,10.4-7.2V252L509,211
	c-6.1-7.2-5.3-8.7-22.4-8.7v-13.4h68.9v13.4h-4.9c-5,0-7.1,0.9-7.1,2.8c0,1.6,1.5,2.8,2.5,4.1l18.8,20.5
	C567,231.9,569.7,232.2,572.3,229.3L572.3,229.3z M110,188.8h16.6v37.5h-15.3c-1.4-7.5-6-10.4-10.3-14.3c-7.7-7.1-24.4-13-38.4-13
	c-18.1,0-33.4,5.6-33.4,13.9c0,22.9,103.7,4.7,103.7,48.1c0,22.6-22.2,35.3-62.1,35.3c-13.8,0-34.7-4.3-47-10.8
	c-3.9-2.2-5.5,2.1-6.2,7.6h-17v-38.7h15.4c3.4,9.8,8.1,11.9,12.4,15.8c7.5,6.9,25.3,11.9,41.6,11.7c24.6-0.2,33.1-5.6,33.1-13.4
	c0-7.8-8.4-9.7-35.3-13.9l-22.9-3.7C18.8,246.7,0,240.9,0,220.3c0-21.4,23.8-34.8,61.4-34.8c15.8,0,29.1,2.1,41.8,9.3
	C106.8,197.1,110.1,197.4,110,188.8L110,188.8z M434.3,251.5l0.3-41.6c0-5.5-2.8-7.3-11-7.3h-9.5v-13h60.7v13H467
	c-8.1,0-11,1.9-11,7.3v83.8l-23.8-0.2l-76.9-72.9v52.9c0,5.3,2.8,7.3,11,7.3h10.6v12.8h-63v-12.8h10.4c8.1,0,11-2,11-7.3v-63.7
	c0-5.5-2.8-7.3-11-7.3h-10.4v-13h54.5L434.3,251.5z M231,184.7c-48.4,0-78.7,21.4-78.7,55.7c0,33.7,29.9,54.9,77.2,54.9
	c50.3,0,79.5-20.9,79.5-56.7C309,206.6,277.5,184.7,231,184.7L231,184.7z M229.9,281.8c-26.8,0-42.2-15.5-42.2-42.1
	c0-26.1,16.1-41.5,43.5-41.5c26.3,0,41.7,15.8,41.7,42.6C273,267,257.4,281.8,229.9,281.8L229.9,281.8z"/>
</svg>
