<?xml version="1.0" encoding="utf-8"?>
<!-- Generator: Adobe Illustrator 22.1.0, SVG Export Plug-In . SVG Version: 6.00 Build 0)  -->
<svg version="1.1"
	 id="svg614" xmlns:cc="http://creativecommons.org/ns#" xmlns:dc="http://purl.org/dc/elements/1.1/" xmlns:rdf="http://www.w3.org/1999/02/22-rdf-syntax-ns#"
	 xmlns="http://www.w3.org/2000/svg" xmlns:xlink="http://www.w3.org/1999/xlink" x="0px" y="0px" viewBox="0 0 640 480"
	 style="enable-background:new 0 0 640 480;" xml:space="preserve">
<path d="M79.8,240.3c0-67.1,0-134.2,0-201.7C79.8,9.2,89,0,118.1,0C253.1,0,388,0,522.9,0c28.1,0,37.3,9.5,37.3,37.6
	c0,134.9,0,269.8,0,404.7c0,28.5-9.2,37.6-37.3,37.6c-135.6,0-271.2,0-406.4,0c-27.1,0-36.6-9.5-36.6-36.9
	C79.8,375.9,79.8,308.1,79.8,240.3z M170.7,256.3c5.4,79,78,139.7,161,134.6c81-4.7,143.1-76.6,139-160.3
	c-4.1-81.7-75.9-144.7-160.3-140.7c-72.2,3.7-141,70.2-138.3,134.6c34.2,0,68.5,0,102.7,0c0.3-3.7,1-6.8,0.7-9.5
	c-2.7-16.6,5.8-20.3,20.3-19.3c18.6,1,37.3,0.3,55.9,0c9.5,0,13.2,3.7,13.2,13.2c-0.3,21-0.3,41.7,0,62.7
	c0.3,10.5-4.4,13.9-14.2,13.6c-15.9-0.3-31.5,0-47.5,0c-26.4,0-26.4,0-28.1-25.4c0-1-1-2-1.7-3.4
	C239.2,256.3,204.9,256.3,170.7,256.3z"/>
</svg>
