<?xml version="1.0" encoding="utf-8"?>
<!-- Generator: Adobe Illustrator 21.0.2, SVG Export Plug-In . SVG Version: 6.00 Build 0)  -->
<svg version="1.1" id="Layer_1" xmlns="http://www.w3.org/2000/svg" xmlns:xlink="http://www.w3.org/1999/xlink" x="0px" y="0px"
	 viewBox="0 0 640 480" style="enable-background:new 0 0 640 480;" xml:space="preserve">
<path d="M289.6,135.6c10.7,0.1,21.5,0.1,32.2,0c-0.1,9.5-0.1,19.2,0,28.7c-10.7-0.1-21.5,0-32.3-0.1
	C289.8,154.7,289.5,145.1,289.6,135.6z M127.4,176.6c21.9-12.4,53.9-8.2,68.7,13.4c9.1,12.8,11.7,28.9,11.5,44.1
	c-25.2,0.1-50.4,0-75.6,0.1c1.1,7.8,4.6,16,11.7,20.1c10.3,6,26.3,4.3,31.5-7.7c10.4-0.3,20.6-0.3,31,0
	c-3.3,11.8-11.8,21.9-22.8,27.6c-11.7,6.4-25.8,7.7-38.9,5.4c-13.8-2.2-26.5-10-34.3-21.5c-8.5-12.3-10.7-28-8.8-42.5
	C103.6,199.6,113.2,184.6,127.4,176.6L127.4,176.6z M144.6,194.9c-7.1,3.4-10.7,11.1-12.3,18.6h43.1c-0.9-5.7-3-11.7-7.3-15.7
	C161.8,191.8,152,191.7,144.6,194.9z M465.3,171c17.2-3.1,36.5,0.6,49.8,12.6c22.8,20.2,23.8,59.4,2.7,81
	C501,282,473,285.2,451.6,275.4c-16.5-7.4-27.9-24.3-29.7-42.2c-0.7-10.4-0.3-21.1,4-30.8C432.3,186,447.9,174,465.3,171L465.3,171z
	 M469,194.9c-9.1,3.3-13.4,13.1-14.7,21.9c-1,11.1-0.9,23.8,6.3,33c7.8,10.1,24.9,9.8,32.7-0.1c6.4-8.1,7.4-19.1,6.7-29
	c-0.4-8.8-3.5-18.2-10.8-23.6C483.4,193.2,475.5,192.5,469,194.9L469,194.9z M580.3,177c10.7-8.4,25.9-9.2,38.3-4.3
	c8.8,3.8,15.4,11.5,18.5,20.5c3.5,9.2,2.4,19.2,2.4,28.9c0,18.5-0.1,36.9,0.1,55.2c-10.7,0.1-21.4,0-32.2,0.1v-63.3
	c0-5.4-2-11.3-6.6-14.7c-6.8-4.7-16.8-3.8-22.8,2c-4.7,4.7-6.7,11.4-6.6,17.9v58.1c-10.5-0.1-21.2,0-31.8-0.1
	c0-34.9,0.1-69.7,0-104.6c10.4,0.1,20.6-0.1,31,0.1c-0.1,4.8-0.1,9.7-0.3,14.5C573.7,184,576.3,180,580.3,177L580.3,177z M0.4,173.2
	h33.4c6.7,22.4,13.9,44.8,20.2,67.5c7.8-22.1,13.7-45,20.9-67.5c10.7-0.1,21.5,0,32.2-0.1c-12.3,34.9-24.3,69.7-36.5,104.6
	c-11.1,0-22.2-0.1-33.4,0.1C24.6,242.9,13.2,207.6,0.4,173.2z M215,172.9h30.8c-0.1,5.8,0,11.7-0.3,17.6c2.7-3,4.6-6.6,7.3-9.4
	c6.8-7.7,18.2-10.7,28.2-8.1c-0.1,9.2-0.1,18.5,0,27.6c-8-0.9-16.7-0.6-23.5,4.3c-7.1,5-10.4,14.2-10.3,22.8c-0.1,16.7,0,33.3,0,50
	c-10.7,0-21.5-0.1-32.2,0.1C215.2,242.7,215.2,207.8,215,172.9L215,172.9z M289.6,173.2c10.8-0.1,21.5,0,32.3-0.1
	c-0.1,34.9,0,69.7,0,104.6c-10.7-0.1-21.5,0-32.3,0V173.2z M330.6,172.9c29.2,0.1,58.3,0,87.3,0.1c-0.3,8.1,0,16-0.1,24
	c-1,2-2.8,3.5-4.1,5.3c-14.9,16.5-29.6,33.6-44.8,50c17.1,0.3,34.3,0,51.4,0.1v25.2c-29.9-0.1-59.8-0.1-89.7,0v-24.3
	c15.7-17.6,31.2-35,47-52.5c0.4-0.9,2.3-1.7,1.3-3c-16.1,0.4-32.2,0-48.4,0.3v-25.3H330.6z"/>
</svg>
