<?xml version="1.0" encoding="utf-8"?>
<!-- Generator: Adobe Illustrator 18.1.1, SVG Export Plug-In . SVG Version: 6.00 Build 0)  -->
<svg version="1.1" id="Layer_1" xmlns="http://www.w3.org/2000/svg" xmlns:xlink="http://www.w3.org/1999/xlink" x="0px" y="0px"
	 viewBox="0 0 640 480" enable-background="new 0 0 640 480" xml:space="preserve">
<g>
	<path fill="#1A75CF" d="M200.4,5.3C210.9,5.2,221.3,5,231.8,5C293,5,354.1,5,415.3,5c2.8,0,5.7-0.1,8.5,0.1
		c5.8,0.1,11.5,0,17.3,0.2c6,0.9,12.1,0.1,18.1,1.3c2.8,0.3,5.6,0.4,8.3,1c4.3,0.6,8.4,1.8,12.6,2.5c-0.2,0.1-0.4,0.1-0.5,0.2
		c2.1,0.4,4.2,1,6.2,1.6c-0.2,0.1-0.3,0.2-0.5,0.3c3.7,0.6,7.1,2.4,10.5,3.9c21.2,9.7,38.6,27.3,48.2,48.4c1.4,3.3,3.1,6.5,3.7,10.1
		c0.1-0.2,0.2-0.3,0.3-0.5c1.1,4.5,2.6,9,3.5,13.5c0.7,2.8,1,5.6,0.8,8.4c0.1-0.7,0.3-1.3,0.4-2c0.5,3,0.4,6,1,9
		c0.7,4.2,0.2,8.6,1,12.8c0.3,8,0,16,0.4,24.1c0,58.7,0,117.3,0,176c0.1,16.4-0.2,32.7-0.3,49.1c-0.6,5.3-0.9,10.6-0.9,15.9
		c-0.2-1.3-0.2-2.5-0.4-3.8c-0.1,3.2-0.2,6.5-1,9.6c-0.7,6.5-2.7,12.7-4.3,19.1c-0.1-0.2-0.2-0.3-0.3-0.5c-0.8,4.3-2.8,8.2-4.6,12.1
		c-12.6,26.2-37.3,46.3-65.7,52.9c-0.6,0.1-1.2,0.2-1.7,0.3c0.2,0.1,0.4,0.2,0.6,0.3c-6,0.8-11.9,2.7-18.1,2.5
		c0.2,0.2,0.5,0.3,0.7,0.5c-6.2,0.3-12.5,0.6-18.7,0.6c-2.3-0.2-4.5,0.6-6.8,0.5c-5.9-0.1-11.8,0.3-17.8,0.2
		c-56.1,0-112.3,0-168.4,0c-12.1-0.1-24.2,0.2-36.3-0.2c-3.7-0.1-7.4,0.1-11.1-0.2c2.3-0.5,4.6-0.3,6.9-0.4
		c-3.9-0.2-7.9,0.3-11.8,0.1c-5.3,0.1-10.6-0.6-15.9-0.5c0.9-0.2,1.9-0.3,2.9-0.4c-6.2,0.1-12.2-1.7-18.4-2.5
		c0.2-0.1,0.4-0.2,0.6-0.3c-3.4-0.4-6.7-1.7-10-2.5c0.1-0.1,0.3-0.2,0.4-0.3c-3.5-0.5-6.6-2.2-9.8-3.5
		c-21.4-9.7-39.1-27.3-48.9-48.7c-1.5-3.3-3.1-6.6-3.7-10.2c-0.1,0.2-0.2,0.3-0.3,0.5c-1.6-6.3-3.7-12.5-4.4-19.1
		c-0.9-3.8-1-7.6-0.8-11.5c-0.2,1.9-0.2,3.7-0.5,5.6c0.2-4.1-0.4-8.1-0.4-12.1c0-2.4-0.7-4.7-0.6-7.1c0-11.5-0.3-22.9-0.3-34.4
		c0-62,0-123.9,0-185.9c0.5-6.3-0.3-12.6,0.7-18.8c0.1-6.2,0.1-12.5,0.5-18.7c0.2,0.2,0.4,0.4,0.7,0.7c-0.3-3.5,0.1-6.9,0.5-10.4
		c0.2,0.7,0.3,1.3,0.4,2c-0.4-7.6,2.5-14.7,4.2-22c0.1,0.2,0.2,0.3,0.3,0.5c0.7-4,2.6-7.7,4.3-11.4c11-23.3,31.4-41.9,55.7-50.5
		c0.8-0.2,1.6-0.4,2.4-0.5c-0.2-0.1-0.3-0.2-0.5-0.3c6.5-1.6,12.9-3.9,19.7-4.4c-0.5-0.1-1-0.3-1.4-0.4c4,0,8-0.8,12.1-0.5
		c-0.3-0.2-0.6-0.3-0.9-0.5C189.2,5.6,194.9,6.2,200.4,5.3L200.4,5.3z"/>
	<path fill="#FFB718" d="M315,44.6c7.8-1,16.2,0.2,23,4.3c4,2.4,7.6,6.1,8.7,10.8c0.8,2.5,0.1,5.2-0.1,7.7
		c-2.8,31.7-5.6,63.3-8.5,95c-0.1,2-0.3,4.1-1.4,5.8c-2,3.4-5.6,5.6-9.4,6.7c-5.9,1.8-12.6,1.4-18.1-1.4c-3.4-1.8-6.6-5-6.9-9
		c-2.9-32.3-5.8-64.5-8.6-96.8c-0.1-2.6-0.8-5.2-0.1-7.7c1.1-4.8,4.7-8.5,8.8-11C306.3,46.5,310.6,45.2,315,44.6L315,44.6z"/>
	<path fill="#FFB718" d="M169.7,126.6c3.8-0.8,7.9-0.1,11,2.2c27.6,19.3,55.2,38.5,82.7,57.8c2.6,1.7,3.9,4.7,4.3,7.6
		c0.9,7.7-2.9,15.4-8.8,20.3c-3.5,2.9-8.5,4.8-12.9,3.1c-18.3-8.4-36.5-16.9-54.8-25.4c-11.5-5.3-23-10.7-34.5-16
		c-2.3-1.1-4.8-1.9-6.6-3.8c-3.5-3.3-4.8-8.3-4.9-13c0-7.6,2.9-15,7.3-21.1C156.9,132.7,162.7,128,169.7,126.6L169.7,126.6z"/>
	<path fill="#FFB718" d="M464.5,126.6c5.3-1.2,10.7,0.9,15.1,3.8c6.9,4.8,11.9,12.1,14.2,20.2c1.4,5.1,1.8,10.6,0.1,15.7
		c-1.2,3.6-3.7,6.8-7.1,8.4c-30.7,14.3-61.4,28.5-92.2,42.8c-3.7,1.6-8,0.5-11.3-1.6c-5.8-3.7-9.7-10.1-10.7-16.9
		c-0.5-4.3,0.3-9.4,4.1-12.2c27.6-19.3,55.2-38.5,82.7-57.8C461,127.9,462.7,127,464.5,126.6L464.5,126.6z"/>
	<path fill="#FFB718" d="M247.5,261.5c3.6-0.8,7.3,0.5,10.2,2.5c5.2,3.6,8.8,9.4,10,15.6c0.5,3.6,0.4,7.5-1.6,10.6
		c-1,1.8-2.9,2.9-4.5,4c-26.8,18.8-53.7,37.5-80.5,56.3c-3.2,2.4-7.4,3.2-11.2,2.4c-7-1.3-12.9-6.1-17.1-11.7
		c-4.9-6.8-8-15.3-7.1-23.7c0.6-5.1,3.2-10.4,8-12.7c28.4-13.2,56.7-26.3,85.1-39.5C241.7,264.1,244.5,262.4,247.5,261.5
		L247.5,261.5z"/>
	<path fill="#FFB718" d="M388.6,261.5c3-0.7,6,0.3,8.7,1.8c29.9,13.8,59.7,27.7,89.5,41.5c3.2,1.5,5.6,4.4,6.9,7.7
		c1.8,4.6,1.7,9.8,0.7,14.6c-1.7,7.6-5.9,14.6-11.8,19.7c-4.1,3.6-9.3,6.2-14.9,6.4c-2.9-0.1-5.9-0.9-8.2-2.7
		c-26.8-18.8-53.7-37.5-80.6-56.3c-1.7-1.2-3.6-2.4-4.7-4.3c-2.5-4.4-2-9.9-0.3-14.6C376.4,269,381.6,263.1,388.6,261.5L388.6,261.5
		z"/>
	<path fill="#FFB718" d="M317.3,303.9c5.2-0.5,10.8,0.3,15.3,3.2c2.7,1.8,5.1,4.5,5.4,7.9c3.1,34,6.1,67.9,9.1,101.9
		c0.1,4.6-2.6,8.8-6,11.6c-5.3,4.4-12.3,6.5-19.2,6.8c-7.5,0.3-15.3-1.4-21.4-5.9c-3.9-2.9-7.1-7.4-7.1-12.4c3-34,6-67.9,9.1-101.9
		c0.3-3.4,2.7-6.1,5.4-7.9C310.7,305.3,314,304.2,317.3,303.9L317.3,303.9z"/>
</g>
</svg>
