<?xml version="1.0" encoding="utf-8"?>
<!-- Generator: Adobe Illustrator 21.0.2, SVG Export Plug-In . SVG Version: 6.00 Build 0)  -->
<svg version="1.1" id="Layer_1" xmlns="http://www.w3.org/2000/svg" xmlns:xlink="http://www.w3.org/1999/xlink" x="0px" y="0px"
	 viewBox="0 0 640 480" style="enable-background:new 0 0 640 480;" xml:space="preserve">
<style type="text/css">
	.st0{fill:#272525;}
	.st1{fill:#FF0000;}
</style>
<path class="st0" d="M281.6,209.5c-14.6,0-29.9,10.7-29.9,10.7v-6.9c0-1.5-0.6-2.1-2.1-2.1h-18.7c-1.5,0-2.4,0.9-2.4,2.1v146.5
	c0,1.5,0.6,2.4,2.1,2.4h19c1.2,0,2.1-0.9,2.1-2.4V234.4c0,0,8.8-5.6,19.5-5.6c10.2,0,18.2,5.1,18.2,15.4v115.6
	c0,1.5,0.9,2.4,2.4,2.4h18.7c1.5,0,2.1-1.2,2.1-2.4V237.7C312.7,219.3,301.4,209.5,281.6,209.5L281.6,209.5z M427.1,136h-18.7
	c-1.5,0-2.4,0.9-2.4,2.1V212c-7.2-2.8-13.7-4.2-19-4.2c-30.4,0-51.2,29-51.2,84.8c0,47.8,20.3,73.5,46.7,73.5
	c11.2,0,20.4-6.4,27.1-12.4l4.1,6.9c0.7,1.2,1.3,1.6,2.6,1.6l10.8,0c1.2,0,2.1-0.9,2.1-2.4V138.1C429.2,136.6,428.6,136,427.1,136
	L427.1,136z M360.5,287.7c0-30.8,9-61.2,27.4-61.2c6.2,0,12.2,2,18.1,6.7v108.3c-4.6,2.5-10.4,4.8-16.7,4.8
	C369.3,346.4,360.5,322.7,360.5,287.7L360.5,287.7z M498.7,208.1c-31.1,0-46.5,40.7-46.5,85c0,46.4,21.9,72.4,50.1,72.4
	c12.4,0,24.7-4.9,32.8-9.4c1.2-0.7,1.5-1.7,1.2-2.9l-2.4-9.8c-0.3-1.2-0.9-1.8-2.4-1.8c-0.7,0-10.9,3-20.8,3
	c-23.1,0-33.6-20.5-33.6-47.7v-6.6c0,0,11.5,1.6,18.3,1.6h43.5v-12.6C538.9,233,522.6,208.1,498.7,208.1L498.7,208.1z M497.2,273.1
	c-6.9,0-19.4,1.7-19.4,1.7s0.2-5,0.8-9.8c2.7-25.5,8.8-38.3,19.2-38.3c9.1,0,15.4,13.2,16.9,36.2c0.3,4.8,0.3,10.2,0.3,10.2H497.2z
	 M193,227.1c-6.9-13.6-19.2-19.6-33.3-19.6c-9.1,0-23.2,3.5-32.6,7.7c-1.8,0.8-3,1.6-3,3c0,0.9,0.4,1.9,0.9,2.7l6.4,13.6
	c0.7,1.5,1.7,1.9,2.6,1.9c0.9,0,1.7-0.4,2.6-1c9.2-5.9,16-9.1,21.3-9.1c7.1,0,11.9,4.7,14.8,11.7c2.8,6.6,3.8,15.6,3.8,26.1
	c0,1.3,0,3.1,0,3.1c-5.8-3.6-15.9-5.6-20.9-5.6c-27,0-41.6,25.7-41.6,53.1c0,29.6,17,51.3,37.5,51.3c11.4,0,21.7-6.7,28.6-15.1
	c0,0,3.7,8.8,4.2,9.8c0.5,1,1,1.4,2.4,1.4l10.9,0c1.2,0,2.1-0.9,2.1-2.4v-85C199.6,253.9,198.5,238,193,227.1L193,227.1z
	 M176.4,338.5c-5.4,5.2-11.8,7.9-17.5,7.9c-5.8,0-10.2-2.7-13.8-7.6c-4.4-6-6.4-15.3-6.4-25.5c0-16.2,6-32.8,18.7-32.8
	c6.3,0,13.2,2,19.1,6.7L176.4,338.5L176.4,338.5z M637.6,211.2h-16.7c-1.9,0-2.8,1-3.3,2.2c-3.7,9.7-7.3,19.3-11,29
	c-2.1,5.5-7.6,21.2-7.6,21.2l-0.6,0c0-0.1-4.1-11.4-6.3-17.1c-1.8-4.6-11.1-29.1-12.2-32.1c-0.6-1.6-1.3-3.2-3.7-3.2h-18.2
	c-2,0-3.1,2.2-2.5,3.6c0.7,1.4,29.7,67.6,29.7,67.6s-31.2,74.1-32.1,75.8c-0.9,1.7,0.2,4.1,2.5,4.1h16c2.7,0,3.8-1.4,4.6-3.7
	c2.3-6.4,5.7-15.4,10.6-29.2c3.2-9.2,8.3-25.3,8.3-25.3h0.6c0,0,5.6,16.4,7.6,21.8c5.2,13.6,11.9,31.3,12.6,33.1
	c0.7,2,1.8,3.3,3.6,3.3h18.1c1.8,0,2.6-2,1.8-3.8c-2-4.3-19.2-46.1-31.2-73.6c0,0,31-68.5,31.6-70.2
	C640.3,213,640.1,211.2,637.6,211.2L637.6,211.2z"/>
<path class="st1" d="M132.8,113.9h-21c-1.9,0-3,0.9-3.3,2.2c-0.3,1.3-31.5,96.6-33.8,104.5c-1.6,5.6-6.9,25.5-8.1,30.2l-10.9-29.7
	c-2.6-8.2-28-78.9-28.7-81.7c-0.4-1.6-1.1-3.5-3.8-3.5H2.7c-2,0-3.1,2.2-2.5,3.6c0.5,1.1,37.6,99.7,52.5,137.3v82.8
	c0,1.5,0.6,2.4,2.1,2.4h19.4c1.2,0,2.1-0.9,2.1-2.4v-82.2c12.5-34.9,58.1-158.8,58.6-160.2C135.5,115.7,135.4,113.9,132.8,113.9z"/>
</svg>
