<?xml version="1.0" encoding="utf-8"?>
<!-- Generator: Adobe Illustrator 19.1.1, SVG Export Plug-In . SVG Version: 6.00 Build 0)  -->
<svg version="1.1" id="Layer_1" xmlns="http://www.w3.org/2000/svg" xmlns:xlink="http://www.w3.org/1999/xlink" x="0px" y="0px"
	 viewBox="-159 41 640 480" style="enable-background:new -159 41 640 480;" xml:space="preserve">
<g transform="translate(0.000000,200.000000) scale(0.100000,-0.100000)">
	<path d="M2055,1457.9c-274.9-138.7-536.9-462.4-673-837.4c-182.4-498.3-118.2-1204.7,120.7-1333.2c113-59.1,182.4,51.4,331.4,529.2
		c125.9,403.3,202.9,593.4,436.7,1084c187.5,398.2,223.5,531.7,161.8,593.4C2378.7,1547.8,2198.9,1529.8,2055,1457.9z"/>
	<path d="M2571.4,1378.2c-51.4-20.6-107.9-149-267.2-624.2c-84.8-254.3-244-644.8-364.8-899.1c-282.6-593.4-298-662.7-143.9-714.1
		c159.3-56.5,400.7,61.7,634.5,310.8c251.7,269.7,390.5,575.4,447,978.7C2943.8,905.6,2769.2,1445,2571.4,1378.2z"/>
	<path d="M-187.5-209.3c-303.1-77.1-565.1-246.6-662.7-431.6c-77.1-146.4-56.5-238.9,64.2-287.7c46.2-20.6,285.1-56.5,529.2-77.1
		c493.2-46.2,629.3-69.4,1114.8-202.9c498.3-138.7,603.7-125.9,603.7,77.1c0,305.7-408.4,729.5-850.3,881.1
		C398.2-175.9,18-157.9-187.5-209.3z"/>
	<path d="M2566.2-810.4c-223.5-59.1-375-131-565.1-259.4c-431.6-292.8-770.6-804-770.6-1163.6c0-177.2,43.7-236.3,172.1-233.8
		c105.3,2.6,223.5,56.5,829.7,369.9c310.8,159.3,518.9,244,950.4,385.3c303.1,100.2,598.5,205.5,655,238.9
		c313.4,177.2,69.4,534.3-462.4,673C3169.9-748.7,2779.4-751.3,2566.2-810.4z"/>
	<path d="M-901.6-1044.1c-46.2-46.2-53.9-77.1-43.7-154.1c43.7-328.8,470.1-737.2,917-875.9c295.4-89.9,755.2-59.1,1009.5,69.4
		c254.3,131,431.6,321.1,434.1,470.1c5.1,154.1-92.5,192.7-601.1,233.8c-472.7,38.5-660.2,71.9-1066,182.4
		C-755.2-979.9-829.7-972.2-901.6-1044.1z"/>
	<path d="M3321.4-1794.2c-475.2-241.5-642.2-310.8-1091.7-459.8c-588.2-192.7-721.8-251.7-783.5-344.2c-33.4-51.4-36-77.1-12.8-149
		c61.7-179.8,280-333.9,596-416.1c244-64.2,691-41.1,942.7,46.2c464.9,161.8,865.7,518.9,1089.2,965.9
		c92.5,185,107.9,238.9,107.9,387.9c2.6,213.2-28.3,256.9-177.2,256.9C3904.6-1506.5,3776.1-1560.4,3321.4-1794.2z"/>
</g>
</svg>
