<?xml version="1.0" encoding="utf-8"?>
<!-- Generator: Adobe Illustrator 21.1.0, SVG Export Plug-In . SVG Version: 6.00 Build 0)  -->
<svg version="1.1" id="Layer_1" xmlns="http://www.w3.org/2000/svg" xmlns:xlink="http://www.w3.org/1999/xlink" x="0px" y="0px"
	 viewBox="0 0 640 480" style="enable-background:new 0 0 640 480;" xml:space="preserve">
<style type="text/css">
	.st0{fill:#00A14B;}
	.st1{fill:#E8BA00;}
</style>
<g>
	<path class="st0" d="M128.6,131.4c15.5,13.2,24.6,38.5,26.9,74.7c2.8-4.1,5.7-8.2,8.7-12.3c10.9-15,21.9-28.7,31.8-40.4
		c-2.2-3.2-4.6-6.2-7.2-8.9c-24.7-26.9-55.2-24.7-56.5-24.6c-2.6,0.2-4.9,2-5.7,4.5C125.8,126.9,126.6,129.7,128.6,131.4z"/>
	<path class="st1" d="M249.8,208.3c-0.3,0.3-0.6,0.7-0.9,1c0,5.9,0.2,12.1,0.7,18.7c2-2.2,4-4.5,6.1-6.7c3,6,6.2,11.8,9.9,17.4
		c-4.3,4.5-8.6,9.1-12.9,13.7c1.7,12.4,2.2,24.5,1.3,36.2c1.1,1.3,2.2,2.6,3.4,3.8l-4.2,4.2c-0.3,2.5-0.7,5-1.2,7.4
		c8.9-3.3,17.9-6.2,27.2-8.6c-1.1-1-2.2-2-3.3-3l18.8-18.8c4.7,4.4,9.5,8.4,14.6,12.3c-1.2,1.2-2.4,2.3-3.7,3.4
		c0.6-0.1,1.2-0.3,1.9-0.4c7.9-1.7,15.6-3.4,23-5.1c6.1-5.9,12.3-11.9,18.4-18c5.4,3.5,10.9,6.6,16.7,9.5c10-2.7,19.5-5.5,28.6-8.7
		c4.3-4.5,8.5-8.9,12.6-13.4c3.5,1.4,7.1,2.7,10.8,4c5.8-2.7,11.4-5.6,16.8-8.8c-6.1-1.5-12.2-3.4-18.1-5.6
		c5.6-6.2,11-12.5,16.3-18.6c5.7,2.4,11.6,4.6,17.6,6.4c-4,5.2-8.1,10.5-12.4,15.8c17.1-10.6,32.6-24.1,47.3-42.5c0,0,0,0,0,0
		c28.3-44.2,44.6-85.9,44.6-117.7c0-17.6-5-31.5-14.8-41.3C473.6,4,361,51.8,257,153.8c-3.8,11.6-7.8,29.1-8.2,52.2
		C249.2,206.8,249.5,207.6,249.8,208.3z M265.2,211.1c5.9-6.2,11.9-12.4,18-18.6c3,6.1,6.3,12.1,10,17.8
		c-6.1,6.2-12.3,12.4-18.4,18.8C271.3,223.3,268.1,217.2,265.2,211.1z M464.7,140.4c5.8-7,11.2-13.8,16.2-20.4
		c2.4,1.7,4.8,3.4,7.2,5c-4,7-8.4,14.2-13.3,21.8C471.3,144.7,468,142.6,464.7,140.4z M467.4,157.7c-4.6,6.7-9.5,13.5-14.7,20.4
		c-4.6-2.4-9-5-13.4-7.9c5.8-6.7,11.5-13.2,16.9-19.7C459.9,153.1,463.6,155.4,467.4,157.7z M463.7,120.6c-3.1,3.9-6.3,7.9-9.6,12
		c-3.3-2.6-6.4-5.4-9.5-8.2l18.8-18.8c2.3,2.2,4.7,4.3,7.1,6.4C468.4,114.7,466.1,117.6,463.7,120.6z M435.3,115
		c-2.9-3.1-5.6-6.3-8.2-9.6c4-3.3,8-6.5,11.9-9.5c3.1-2.4,6-4.7,8.8-6.8c2,2.4,4.1,4.8,6.3,7.1L435.3,115z M435.2,133.6
		c3.4,3.2,6.9,6.2,10.5,9.1c-5.4,6.5-11.2,13.1-17.1,19.9c-4.2-3.2-8.3-6.6-12.2-10.3L435.2,133.6z M388.3,180.4l18.8-18.8
		c4.1,3.8,8.3,7.4,12.7,10.8c-5.7,6.4-11.6,12.9-17.7,19.5C397.4,188.4,392.7,184.5,388.3,180.4z M393.2,201.6
		c-5.9,6.3-12,12.7-18.1,19.1c-5.2-3.8-10.1-7.9-14.9-12.3l18.8-18.8C383.5,193.9,388.2,197.9,393.2,201.6z M407.1,143
		c-3.6-3.9-7-8-10.2-12.2c6.8-5.9,13.5-11.6,20-17.1c2.9,3.6,5.9,7.1,9,10.5L407.1,143z M397.8,152.3L379,171.1
		c-4.1-4.4-7.9-9.1-11.5-13.9c6.6-6,13.1-11.9,19.5-17.6C390.4,144,394,148.2,397.8,152.3z M360,146.2c-3.2-5.1-6.1-10.4-8.8-15.8
		c6.6-5.5,13.2-10.7,19.7-15.7c2.6,4.8,5.4,9.6,8.5,14.1C373,134.4,366.5,140.2,360,146.2z M357.8,166.1c3.7,4.9,7.7,9.7,11.9,14.2
		l-18.8,18.7c-4.4-4.8-8.5-9.7-12.3-14.9C345.1,178.1,351.5,172,357.8,166.1z M331.2,173.1c-3.5-5.6-6.6-11.4-9.4-17.4
		c6.4-5.7,12.7-11.3,19-16.7c2.8,5.6,5.9,11,9.3,16.2C343.9,161.1,337.6,167,331.2,173.1z M329.1,193.4c3.9,5.2,8.1,10.2,12.5,15
		l-18.8,18.7c-4.5-4.9-8.7-10-12.5-15.3C316.5,205.6,322.8,199.5,329.1,193.4z M302.8,200.8c-3.6-5.8-6.8-11.9-9.6-18.1
		c6.2-6,12.3-11.9,18.5-17.6c2.9,6,6.2,11.8,9.8,17.4C315.3,188.4,309.1,194.6,302.8,200.8z M266.5,283.2c-4.1-4.5-8-9.2-11.6-14
		c5.9-6.4,12-12.9,18.2-19.4c3.8,5.1,7.9,10,12.2,14.6L266.5,283.2z M282.3,240.2c6.1-6.3,12.2-12.6,18.5-18.9
		c3.9,5.2,8.1,10.3,12.6,15.1l-18.8,18.7C290.2,250.4,286.1,245.4,282.3,240.2z M318.9,276.8c-5.2-3.8-10.2-7.9-14.9-12.4l18.8-18.8
		c4.8,4.5,9.9,8.7,15.1,12.6C331.5,264.6,325.2,270.8,318.9,276.8z M347.3,249c-5.3-3.9-10.4-8.1-15.2-12.6l18.8-18.8
		c4.8,4.5,9.8,8.6,15,12.5C359.7,236.5,353.5,242.8,347.3,249z M376.4,266.2c-6.2-2.9-12.2-6.1-18.1-9.7
		c6.1-6.1,12.2-12.3,18.4-18.6c5.6,3.6,11.4,6.9,17.3,9.9C388.3,253.9,382.5,260,376.4,266.2z M403.4,237.6
		c-6-2.8-11.7-5.9-17.3-9.4c6-6.3,12-12.6,17.9-18.9c5.2,3.4,10.6,6.5,16.1,9.4C414.7,224.9,409.1,231.2,403.4,237.6z M428.9,208.3
		c-5.4-2.7-10.7-5.6-15.8-8.8c5.9-6.5,11.8-12.9,17.5-19.3c4.6,3,9.3,5.9,14.1,8.5C439.6,195.1,434.3,201.7,428.9,208.3z
		 M458.4,219.5c-5.8-1.6-11.5-3.5-17.1-5.7c5.3-6.5,10.4-12.9,15.3-19.2c4.8,2.2,9.8,4.2,14.8,5.9
		C467.3,206.8,463,213.1,458.4,219.5z M478.7,189.1c-4.7-1.5-9.3-3.3-13.9-5.3c5-6.8,9.8-13.4,14.2-19.9c3.7,1.8,7.4,3.5,11.2,5
		C486.7,175.6,482.8,182.3,478.7,189.1z M496.2,157.2c-3.3-1.3-6.6-2.8-9.9-4.4c4.7-7.3,9-14.4,12.9-21.2c2.2,1.2,4.4,2.4,6.6,3.5
		C503.1,142.3,499.9,149.7,496.2,157.2z M515.7,97.3c-0.9,7.9-2.8,16.4-5.6,25.4c-1.6-0.8-3.1-1.7-4.7-2.5
		C509.6,112,513.1,104.4,515.7,97.3z M494.4,113.4c-1.9-1.2-3.7-2.5-5.6-3.9c7.3-9.9,13.4-19,18.2-27.1
		C504.5,91.5,500.2,101.9,494.4,113.4z M478.4,101.4c-1.9-1.7-3.9-3.4-5.7-5.1l26.3-26.2C495,77.3,488.7,87.4,478.4,101.4z
		 M463.4,87c-1.7-1.9-3.4-3.8-5.1-5.7c14-10.2,24.1-16.5,31.3-20.4L463.4,87z M476.7,53.1c-7.3,4.4-16,10.2-26.5,17.8
		c-1.3-1.8-2.6-3.7-3.8-5.6C458.4,59.3,468.4,55.4,476.7,53.1z M462,44c-7.1,2.6-14.5,6-22.4,10c-0.8-1.5-1.6-2.9-2.4-4.4
		C446,46.9,454.3,45,462,44z M439.7,78.7c-1.2,0.9-2.3,1.8-3.6,2.7c-5.5,4.2-11.1,8.7-16.9,13.4c-2.2-3.3-4.3-6.7-6.3-10.1
		c4.8-3.1,9.5-6,14.2-8.8c2.6-1.6,5.2-3,7.7-4.4C436.4,74,438,76.4,439.7,78.7z M424.7,53.9c1.1,2.1,2.2,4.2,3.3,6.3
		c-6.9,3.9-13.9,8.2-21.2,12.8c-1.5-3.1-2.9-6.4-4.2-9.6C410.2,59.8,417.6,56.6,424.7,53.9z M409.1,103.2c-6.4,5.4-13,11-19.8,16.8
		c-2.8-4.4-5.4-8.8-7.8-13.4c6.9-5.1,13.8-10,20.5-14.6C404.2,95.8,406.6,99.6,409.1,103.2z M390.9,69.4c1.5,3.7,3.1,7.4,4.9,11
		c-6.6,4.5-13.2,9.2-20,14.2c-1.9-4.5-3.6-9.1-5.1-13.7C377.5,76.7,384.3,72.9,390.9,69.4z M359.2,88c1.7,5,3.6,9.9,5.8,14.7
		c-6.4,4.9-12.8,10-19.2,15.3c-2.2-5.5-4-11.2-5.6-17C346.6,96.4,352.9,92.1,359.2,88z M328.9,109.2c1.8,6,3.9,11.8,6.3,17.6
		c-6.2,5.3-12.5,10.7-18.7,16.2c-2.3-6.4-4.3-12.9-5.8-19.5C316.8,118.5,322.8,113.8,328.9,109.2z M299.5,132.8
		c1.8,6.7,4,13.2,6.6,19.6c-6.1,5.6-12.2,11.3-18.2,17.1c-2.5-6.9-4.4-13.9-6-21.2C287.7,143,293.6,137.8,299.5,132.8z M262.3,167.1
		c2.8-2.8,5.7-5.6,8.5-8.3c1.9,7.1,4.1,14.1,6.8,20.8c-0.4,0.4-0.9,0.9-1.3,1.3c-5.6,5.6-11.1,11.2-16.5,16.8
		c-2.5-7.1-4.6-14.4-6.2-21.8C256.5,172.9,259.4,170,262.3,167.1z"/>
	<path class="st0" d="M164,358.2c21.1-19.9,45.9-36.2,73.2-48.2c4.2-17.3,5.4-36.8,1.9-58.8C226.4,171.7,253,130,253.2,129.6
		c1.9-2.8,1.3-6.6-1.3-8.7c-1.2-1-2.7-1.5-4.2-1.5c-1.7,0-3.3,0.6-4.6,1.9c-5.4,5.3-132.4,131.3-132.9,231.8
		c-0.1,20.1,4.9,37.9,14.9,53.2C128.2,400.9,140.2,380.6,164,358.2z"/>
	<path class="st0" d="M529.2,422.2c-0.7-1.6-7.2-40.3-62.7-62.4c-19.1-7.6-40.4-12.3-63.9-14.1c-49.2,50.3-94.5,84.6-135.3,102.5
		c7,0.4,14.3,0.6,21.8,0.6c30.7,0,64.5-3.9,97.7-15.2c110.5-37.5,131.1-5,131.3-4.8c2.1,2.5,5.7,3.1,8.4,1.5
		C529.3,428.7,530.4,425.2,529.2,422.2z"/>
	<path class="st0" d="M405.9,323.2c54.6-58.1,99.4-102.5,99.8-103.1c2-2.9,1.4-6.9-1.5-9c-1.2-0.9-2.5-1.3-3.9-1.3
		c-1.9,0-3.8,0.9-5.1,2.5c-51,64-114.1,73.8-203.7,93.8c-15.5,3.4-29.6,8-42.5,13.2c0,0,0,0,0,0c-79.5,32.2-111.2,91.4-112.8,94.3
		c-1.3,2.5-0.9,5.7,1.2,7.7c19,18.9,41.6,28.5,67.3,28.5c3.3,0,6.6-0.2,9.9-0.5C267.7,444.4,332,402,405.9,323.2z"/>
</g>
</svg>
