<?xml version="1.0" encoding="utf-8"?>
<!-- Generator: Adobe Illustrator 19.1.1, SVG Export Plug-In . SVG Version: 6.00 Build 0)  -->
<svg version="1.1" id="Layer_1" xmlns="http://www.w3.org/2000/svg" xmlns:xlink="http://www.w3.org/1999/xlink" x="0px" y="0px"
	 viewBox="-159 41 640 480" style="enable-background:new -159 41 640 480;" xml:space="preserve">
<g transform="translate(0.000000,200.000000) scale(0.100000,-0.100000)">
	<path d="M1324.4,1525.3c-195.3-53.7-314.9-124.5-463.9-268.6c-109.9-105-153.8-131.8-246.6-146.5
		c-432.1-63.5-715.3-454.1-637.2-878.9L1.1,94.7L-99-15.2c-56.2-61-136.7-183.1-178.2-273.4c-73.2-151.4-78.1-183.1-78.1-419.9
		s4.9-268.6,78.1-419.9c41.5-90.3,129.4-219.7,192.9-288.1c134.3-144,402.8-285.6,583.5-307.6c70.8-9.8,178.2-48.8,256.3-95.2
		c73.2-41.5,197.8-102.5,273.4-134.3c83-31.7,170.9-90.3,214.8-136.7l73.2-85.4v-390.6c0-432.1,19.5-505.4,146.5-571.3
		c90.3-46.4,153.8-46.4,244.1,0c122.1,63.5,134.3,109.9,146.5,607.9l12.2,461.4l65.9,48.8c87.9,65.9,578.6,234.4,751.9,261.2
		c373.5,56.2,651.8,263.7,815.4,607.9c68.4,146.5,75.7,180.7,75.7,405.3c-2.4,285.6-53.7,449.2-207.5,642.1L3275,16.6l34.2,131.8
		c119.6,446.8-212.4,888.7-686,920.4c-163.6,9.8-175.8,14.6-227,92.8c-70.8,109.9-290.5,271-449.2,332
		C1778.5,1557.1,1490.4,1571.7,1324.4,1525.3z M1942,988.2c68.4-34.2,173.3-114.7,231.9-175.8c80.6-87.9,122.1-114.7,168.5-109.9
		c92.8,9.8,275.9-53.7,373.5-129.4c168.5-127,258.8-422.4,188-610.3c-19.5-53.7-12.2-78.1,61-173.3
		c195.3-256.3,207.5-673.8,24.4-900.9c-51.3-68.4-61-68.4-307.6-73.2c-271-4.9-432.1-48.8-651.8-170.9c-58.6-34.2-112.3-61-117.2-61
		c-4.9,0-9.8,41.5-9.8,92.8c0,109.9-65.9,261.2-178.2,405.3l-83,109.9l-75.7-78.1c-78.1-80.6-131.8-200.2-161.1-366.2l-17.1-92.8
		l-70.8,51.3c-131.8,92.8-268.6,129.4-500.5,129.4c-119.6,0-273.4-14.6-339.4-29.3c-146.5-34.2-185.5-7.3-285.6,205.1
		C62.2-720.7,103.7-376.5,291.7-164.1C384.4-61.6,386.9-51.8,372.2,80c-17.1,173.3,24.4,327.1,122.1,444.3
		C574.9,622,777.5,731.9,880,731.9c39.1,0,92.8,31.7,146.5,87.9C1270.6,1071.2,1634.4,1139.6,1942,988.2z"/>
</g>
</svg>
