<?xml version="1.0" encoding="utf-8"?>
<!-- Generator: Adobe Illustrator 21.1.0, SVG Export Plug-In . SVG Version: 6.00 Build 0)  -->
<svg version="1.1" id="Ñëîé_1" xmlns="http://www.w3.org/2000/svg" xmlns:xlink="http://www.w3.org/1999/xlink" x="0px" y="0px"
	 viewBox="0 0 640 480" style="enable-background:new 0 0 640 480;" xml:space="preserve">
<g>
	<path d="M374.3,20.5c0-5.3-4.3-9.5-9.5-9.5h-42.9c-5.3,0-9.5,4.3-9.5,9.5v6.4h62V20.5z"/>
	<path d="M403.3,181.6c-22.1,54.8-109.7,108.1-109.7,181.3c0,73.3,49.1,106.1,109.7,106.1c60.6,0,109.7-32.9,109.7-106.1
		C513,289.6,422.8,235.5,403.3,181.6z M307.8,361.8c0-16.4,6.9-33.6,17.2-50c-4.6,11.8-7.3,23.5-7.3,35.1c0,54,26.4,87.8,65.5,104.2
		C339.8,443,307.8,414.5,307.8,361.8z"/>
	<path d="M349.4,239.5c12.1-13.8,23.7-27.1,32.7-40H140.2v101.9h161.8C314.8,278.9,332.7,258.5,349.4,239.5z M182.2,296.7h-31.5
		v-92.6h31.5V296.7z M201.3,296.7H193v-92.6h8.3V296.7z"/>
	<path d="M140.2,336.2v101.9h167c-15.4-19.5-23.4-45.1-23.4-75.3c0-9.2,1.3-18.1,3.5-26.7H140.2z M182.2,433.5h-31.5v-92.6h31.5
		V433.5z M201.3,433.5H193v-92.6h8.3V433.5z"/>
	<path d="M142.1,58.6h259.3c8.3,0,15.1-6,15.1-13.4c0-7.4-6.7-13.4-15.1-13.4H142.1c-8.3,0-15.1,6-15.1,13.4
		C127,52.6,133.8,58.6,142.1,58.6z"/>
	<path d="M140.2,164.6h259l4.2-11.9V62.6H140.2V164.6z M193,67.3h8.3v92.6H193V67.3z M150.7,67.3h31.5v92.6h-31.5V67.3z"/>
	<path d="M142.1,195.4h242.6c3.8-5.9,7-11.8,9.4-17.6l3.7-9.3H142.1c-8.3,0-15.1,6-15.1,13.4C127,189.4,133.8,195.4,142.1,195.4z"/>
	<path d="M310.5,442.2H142.1c-8.3,0-15.1,6-15.1,13.4c0,7.4,6.7,13.4,15.1,13.4h206.7c-11.1-4.5-21-10.6-29.6-18.1
		C316.1,448.2,313.2,445.3,310.5,442.2z"/>
	<path d="M142.1,305.4c-8.3,0-15.1,6-15.1,13.4c0,7.4,6.7,13.4,15.1,13.4h146.2c2.8-9.3,6.7-18.2,11.3-26.8H142.1z"/>
</g>
</svg>
