<?xml version="1.0" encoding="utf-8"?>
<!-- Generator: Adobe Illustrator 18.1.1, SVG Export Plug-In . SVG Version: 6.00 Build 0)  -->
<svg version="1.1" xmlns="http://www.w3.org/2000/svg" xmlns:xlink="http://www.w3.org/1999/xlink" x="0px" y="0px"
	 viewBox="14 157 640 480" enable-background="new 14 157 640 480" xml:space="preserve">
<g id="Layer_2" display="none">
	<g display="inline">
		<g>
			<linearGradient id="SVGID_1_" gradientUnits="userSpaceOnUse" x1="334.0016" y1="157" x2="334.0016" y2="637">
				<stop  offset="0" style="stop-color:#FFFFFF"/>
				<stop  offset="1" style="stop-color:#D9D9D9"/>
			</linearGradient>
			<path fill="url(#SVGID_1_)" d="M652,637H16c-1.1,0-2-0.7-2-1.5v-477c0-0.8,0.9-1.5,2-1.5H652c1.1,0,2,0.7,2,1.5v477
				C654,636.3,653.1,637,652,637z"/>
		</g>
		<g>
			<g>
				<path fill="#FFFFFF" d="M549.9,397.5c0.3,113.9-91.8,206.4-205.7,206.6c-113.8,0.3-206.4-91.8-206.6-205.7
					c-0.3-113.9,91.8-206.4,205.6-206.7C457.1,191.6,549.6,283.6,549.9,397.5z"/>
				<path fill="#FFFFFF" d="M410.3,388.1c-1.9-0.6-2.3-3.2-0.6-4.3c10.6-7.2,16.9-18.7,15.1-36.4c-2.7-27-25.4-36.4-54.5-39.2
					c-1.3-0.1-2.2-1.2-2.2-2.4l-0.1-33.6c0-1.4-1.1-2.5-2.5-2.5l-18.4,0c-1.4,0-2.5,1.1-2.5,2.5l0.1,32.4c0,1.4-1.1,2.4-2.4,2.5
					c-4.5,0-9.1,0.1-13.7,0.2c-1.4,0-2.5-1.1-2.5-2.4l-0.1-32.6c0-1.4-1.1-2.5-2.5-2.5l-18.4,0c-1.4,0-2.5,1.1-2.5,2.5l0.1,33.4
					c0,1.3-1.1,2.4-2.4,2.5c-4.2,0.1-8.4,0.2-12.4,0.2l0-0.1l-29.7,0.1c-1.4,0-2.5,1.1-2.5,2.5l0.1,19.9c0,1.4,1.1,2.5,2.5,2.5
					c4.8-0.1,14.7-0.2,14.5,0c9.3,0,12.4,5.3,13.4,9.9c0,0.2,0.1,0.3,0.1,0.5l0.1,41.1c0,1.3,0.9,2.3,2.2,2.4c0.1,0,0.2,0,0.3,0
					c0,0,0,0,0,0c-1.4,0-2.4,1.1-2.4,2.5l0.1,58.5c0,0.1,0,0.3,0,0.4c-0.5,3-2.3,7.5-8.7,7.5c0.2,0.2-10.3,0.1-14.9,0.1
					c-1.2,0-2.2,0.9-2.4,2.1l-3.8,22.9c-0.2,1.5,0.9,2.9,2.4,2.9l27.5-0.1c4.8,0,9.5,0,14.2,0.1c1.3,0,2.4,1.1,2.4,2.5l0.1,33.9
					c0,1.4,1.1,2.5,2.5,2.5l18.4,0c1.4,0,2.5-1.1,2.5-2.5l-0.1-33.4c0-1.4,1.1-2.5,2.5-2.5c4.7,0.1,9.2,0.1,13.7,0.1
					c1.4,0,2.4,1.1,2.4,2.4l0.1,33.2c0,1.4,1.1,2.5,2.5,2.5l18.4,0c1.4,0,2.5-1.1,2.5-2.5l-0.1-33.9c0-1.3,1-2.4,2.3-2.5
					c38-2.6,64.4-12.9,67.6-49C440.8,407.5,429.3,394.2,410.3,388.1z M326.7,337.1c0-1.3,1.1-2.4,2.4-2.5
					c15.2-0.4,52.1-2.8,52.2,23.2c0.1,24.9-36.9,23.6-52,23.4c-1.3,0-2.4-1.1-2.4-2.5L326.7,337.1z M329.4,456.1
					c-1.3,0-2.4-1.1-2.4-2.5l-0.1-46.4c0-1.3,1.1-2.4,2.4-2.5c17.9-0.4,62.9-3.3,63,25.5C392.4,457.8,347.3,456.2,329.4,456.1z"/>
			</g>
			<g>
				<g>
					<g>
						<path fill="#F7931A" d="M549.9,396.5c0.3,113.9-91.8,206.4-205.7,206.6c-113.8,0.3-206.4-91.8-206.6-205.7
							c-0.3-113.9,91.8-206.4,205.6-206.7C457.1,190.6,549.6,282.6,549.9,396.5z"/>
						<g>
							<g>
								<path fill="#FFFFFF" d="M410.3,387.1c-1.9-0.6-2.3-3.2-0.6-4.3c10.6-7.2,16.9-18.7,15.1-36.4c-2.7-27-25.4-36.4-54.5-39.2
									c-1.3-0.1-2.2-1.2-2.2-2.4l-0.1-33.6c0-1.4-1.1-2.5-2.5-2.5l-18.4,0c-1.4,0-2.5,1.1-2.5,2.5l0.1,32.4c0,1.4-1.1,2.4-2.4,2.5
									c-4.5,0-9.1,0.1-13.7,0.2c-1.4,0-2.5-1.1-2.5-2.4l-0.1-32.6c0-1.4-1.1-2.5-2.5-2.5l-18.4,0c-1.4,0-2.5,1.1-2.5,2.5l0.1,33.4
									c0,1.3-1.1,2.4-2.4,2.5c-4.2,0.1-8.4,0.2-12.4,0.2l0-0.1l-29.7,0.1c-1.4,0-2.5,1.1-2.5,2.5l0.1,19.9c0,1.4,1.1,2.5,2.5,2.5
									c4.8-0.1,14.7-0.2,14.5,0c9.3,0,12.4,5.3,13.4,9.9c0,0.2,0.1,0.3,0.1,0.5l0.1,41.1c0,1.3,0.9,2.3,2.2,2.4c0.1,0,0.2,0,0.3,0
									c0,0,0,0,0,0c-1.4,0-2.4,1.1-2.4,2.5l0.1,58.5c0,0.1,0,0.3,0,0.4c-0.5,3-2.3,7.5-8.7,7.5c0.2,0.2-10.3,0.1-14.9,0.1
									c-1.2,0-2.2,0.9-2.4,2.1l-3.8,22.9c-0.2,1.5,0.9,2.9,2.4,2.9l27.5-0.1c4.8,0,9.5,0,14.2,0.1c1.3,0,2.4,1.1,2.4,2.5l0.1,33.9
									c0,1.4,1.1,2.5,2.5,2.5l18.4,0c1.4,0,2.5-1.1,2.5-2.5l-0.1-33.4c0-1.4,1.1-2.5,2.5-2.5c4.7,0.1,9.2,0.1,13.7,0.1
									c1.4,0,2.4,1.1,2.4,2.4l0.1,33.2c0,1.4,1.1,2.5,2.5,2.5l18.4,0c1.4,0,2.5-1.1,2.5-2.5l-0.1-33.9c0-1.3,1-2.4,2.3-2.5
									c38-2.6,64.4-12.9,67.6-49C440.8,406.5,429.3,393.2,410.3,387.1z M326.7,336.1c0-1.3,1.1-2.4,2.4-2.5
									c15.2-0.4,52.1-2.8,52.2,23.2c0.1,24.9-36.9,23.6-52,23.4c-1.3,0-2.4-1.1-2.4-2.5L326.7,336.1z M329.4,455.1
									c-1.3,0-2.4-1.1-2.4-2.5l-0.1-46.4c0-1.3,1.1-2.4,2.4-2.5c17.9-0.4,62.9-3.3,63,25.5C392.4,456.8,347.3,455.2,329.4,455.1z"
									/>
							</g>
						</g>
					</g>
				</g>
			</g>
		</g>
	</g>
</g>
<g id="Layer_3">
	<g>
		<g>
			<g>
				
					<linearGradient id="SVGID_2_" gradientUnits="userSpaceOnUse" x1="144.6622" y1="514.9814" x2="274.9901" y2="364.8193" gradientTransform="matrix(-1 0 0 1 664.2816 0)">
					<stop  offset="0" style="stop-color:#DFA720"/>
					<stop  offset="0.4004" style="stop-color:#C49929"/>
					<stop  offset="0.7862" style="stop-color:#9E7D20"/>
					<stop  offset="1" style="stop-color:#5A3F14"/>
				</linearGradient>
				<path fill="url(#SVGID_2_)" d="M447.5,370.2c-1.3-0.2-12.8-3.2-14.2-3.1c-1.4,0-3.6,2.2-4.9,4.3c-0.8,1.2-1.6,2-2.4,5.5
					c0,0-96.6,18.1-96.7,19.4c-0.1,1.3,0.4,2.6,1.5,3.8l140.8,148.8c0.8,0.8,1.7,1.6,2.8,2.2c1.1,0.7,2.3,1.3,3.7,1.8
					c1.4,0.5,2.9,1,4.4,1.4c1.6,0.4,3.3,0.7,5,0.9c1.5,0.2,3,0.3,4.5,0.4c1.5,0.1,3.1,0.1,4.7,0c1.6-0.1,3.1-0.2,4.7-0.4
					c1.6-0.2,3.1-0.5,4.6-0.8l93.2-20.6c3.2-0.7,6-1.7,8.2-2.8c2.2-1.1,3.9-2.5,5-3.9c1.1-1.4,1.6-2.9,1.5-4.4
					c-0.1-1.5-0.9-3-2.4-4.5l-149.8-143L447.5,370.2L447.5,370.2z"/>
			</g>
			<g>
				<g>
					
						<linearGradient id="SVGID_3_" gradientUnits="userSpaceOnUse" x1="147.6186" y1="504.5224" x2="297.8871" y2="331.3851" gradientTransform="matrix(-1 0 0 1 664.2816 0)">
						<stop  offset="0" style="stop-color:#F6DA4A"/>
						<stop  offset="0.2185" style="stop-color:#DFA720"/>
						<stop  offset="0.5777" style="stop-color:#C49929"/>
						<stop  offset="0.9343" style="stop-color:#9E7D20"/>
						<stop  offset="1" style="stop-color:#5A3F14"/>
					</linearGradient>
					<path fill="url(#SVGID_3_)" d="M451.6,367.9c-1.3-0.2-97.2-48.1-98.6-48c-1.4,0-3.6,2.2-4.9,4.3c-0.8,1.2-1.6,2-2.4,5.5
						c0,0-12.3,63-12.4,64.3c-0.1,1.3,0.4,2.6,1.5,3.8l140.8,148.8c0.8,0.8,1.7,1.6,2.8,2.2c1.1,0.7,2.4,1.3,3.7,1.8
						c1.4,0.5,2.9,1,4.4,1.4c1.6,0.4,3.3,0.7,5,0.9c1.5,0.2,3,0.3,4.5,0.4c1.5,0.1,3.1,0.1,4.7,0c1.6-0.1,3.1-0.2,4.7-0.4
						c1.6-0.2,3.1-0.5,4.6-0.8l93.2-20.6c3.2-0.7,6-1.7,8.2-2.8c2.2-1.1,3.9-2.5,5-3.9c1.1-1.4,1.6-2.9,1.5-4.4
						c-0.1-1.5-0.9-3-2.4-4.4L465.8,373L451.6,367.9L451.6,367.9z"/>
				</g>
				<g>
					
						<linearGradient id="SVGID_4_" gradientUnits="userSpaceOnUse" x1="244.5103" y1="413.5291" x2="225.8283" y2="396.6846" gradientTransform="matrix(-1 0 0 1 664.2816 0)">
						<stop  offset="0" style="stop-color:#584117"/>
						<stop  offset="0.2523" style="stop-color:#B88C1F"/>
						<stop  offset="0.411" style="stop-color:#FBE06D"/>
						<stop  offset="0.5345" style="stop-color:#C49929"/>
						<stop  offset="0.9343" style="stop-color:#9E7D20"/>
						<stop  offset="1" style="stop-color:#5A3F14"/>
					</linearGradient>
					<path fill="url(#SVGID_4_)" d="M350.6,334c-2.3-2-3.7-4-4.4-6.1c0.7-2.2,1.4-2.9,2-3.9c1.3-2,3.5-4.2,4.9-4.3
						c1.4,0,97.3,47.9,98.6,48l14.1,5.1l82.9,79.1l-40,11.4c0,0-20.2,13.2-22.2,13.2L350.6,334z"/>
				</g>
				
					<linearGradient id="SVGID_5_" gradientUnits="userSpaceOnUse" x1="185.9577" y1="492.8588" x2="167.7354" y2="494.6964" gradientTransform="matrix(-1 0 0 1 664.2816 0)">
					<stop  offset="0" style="stop-color:#EFCE41"/>
					<stop  offset="0.2191" style="stop-color:#E2BC4D"/>
					<stop  offset="0.409" style="stop-color:#EBC860"/>
					<stop  offset="0.5531" style="stop-color:#F9E991"/>
					<stop  offset="0.7145" style="stop-color:#F3DD87"/>
					<stop  offset="1" style="stop-color:#D8C000"/>
				</linearGradient>
				<path fill="url(#SVGID_5_)" d="M483.5,467.2c3.3,3.9,3.3,7.9,2.2,14.3l-8.6,66.4c0.8,0.8,0.2,0.2,1.3,0.8
					c1.1,0.7,2.1,1.3,3.4,2.1c1.3,0.7,2.8,1.3,4.3,1.9c1.5,0.6,3.1,0.9,5,1.3c1.5,0.3,3.5,0,5.1,0.1c1.5,0.1,12.4-1.7,13.9-2
					l93.2-20.6c3.2-0.7,6-1.7,8.2-2.8c2.2-1.1,3.9-2.5,5-3.9c1.1-1.4,1.6-2.9,1.5-4.4c-0.1-1.5-0.5-3.1-0.9-4.9l-12.6-63
					c-0.5-1.8-1.1-4.8-3.4-7.2L483.5,467.2z"/>
				<g>
					<g>
						
							<linearGradient id="SVGID_6_" gradientUnits="userSpaceOnUse" x1="46.2441" y1="498.2789" x2="171.9067" y2="498.2789" gradientTransform="matrix(-1 0 0 1 664.2816 0)">
							<stop  offset="0" style="stop-color:#EFCE41"/>
							<stop  offset="0.2191" style="stop-color:#E2BC4D"/>
							<stop  offset="0.409" style="stop-color:#EBC860"/>
							<stop  offset="0.5531" style="stop-color:#F9E991"/>
							<stop  offset="0.7145" style="stop-color:#F3DD87"/>
							<stop  offset="1" style="stop-color:#D8C000"/>
						</linearGradient>
						<path fill="url(#SVGID_6_)" d="M492.4,554.1c6.3,0.3,16.3-1.6,17.8-1.9l93.1-20.7c3.2-0.7,6-1.7,8.2-2.8
							c2.2-1.1,3.9-2.5,5-3.9c1.1-1.4,1.6-2.9,1.5-4.4c-0.1-1.5-0.5-3.1-0.9-4.9l-12.5-63c-0.5-1.8-1.9-7.4-4.1-10.1l-91.2,30.2
							c-7.8,0.4-14,1.5-14.5,7.5L492.4,554.1z"/>
					</g>
				</g>
				<g>
					<g>
						
							<linearGradient id="SVGID_7_" gradientUnits="userSpaceOnUse" x1="53.0595" y1="483.1543" x2="171.2899" y2="506.8419" gradientTransform="matrix(-1 0 0 1 664.2816 0)">
							<stop  offset="0" style="stop-color:#F3E184"/>
							<stop  offset="2.656040e-002" style="stop-color:#FFFADF"/>
							<stop  offset="4.714480e-002" style="stop-color:#E9CA5F"/>
							<stop  offset="0.2191" style="stop-color:#E2BC4D"/>
							<stop  offset="0.409" style="stop-color:#EBC860"/>
							<stop  offset="0.5531" style="stop-color:#F9E991"/>
							<stop  offset="0.7145" style="stop-color:#F3DD87"/>
							<stop  offset="1" style="stop-color:#D8C000"/>
						</linearGradient>
						<path fill="url(#SVGID_7_)" d="M594.2,452.4l-7.6-5.4l14-4.6c2.2,2.7,3.6,8.3,4.1,10.1l12.5,63c0.4,1.8,0.8,3.4,0.9,4.9
							c0.1,1.5-0.4,3-1.5,4.4c-0.1,0.1-0.1,0.1-0.2,0.2c-2.4-12.4-13-66.5-14.4-70.1C600.3,450.8,594.2,452.4,594.2,452.4z"/>
					</g>
					
						<linearGradient id="SVGID_8_" gradientUnits="userSpaceOnUse" x1="22.8131" y1="488.3727" x2="359.3833" y2="287.6848" gradientTransform="matrix(-1 0 0 1 664.2816 0)">
						<stop  offset="0" style="stop-color:#FFFF89"/>
						<stop  offset="0.2185" style="stop-color:#FFD962"/>
						<stop  offset="0.2835" style="stop-color:#FFEC99"/>
						<stop  offset="0.3572" style="stop-color:#FFF17A"/>
						<stop  offset="0.512" style="stop-color:#FAE950"/>
						<stop  offset="0.6248" style="stop-color:#E5B632"/>
						<stop  offset="0.6746" style="stop-color:#E6C020"/>
						<stop  offset="0.7344" style="stop-color:#C49929"/>
						<stop  offset="0.7915" style="stop-color:#D4AA34"/>
						<stop  offset="0.8858" style="stop-color:#8A4C0F"/>
					</linearGradient>
					<path fill="url(#SVGID_8_)" d="M446.9,302.4c1.4,0.2,2.8,0.4,4.2,0.7c1.3,0.3,2.6,0.7,3.7,1.1c1.2,0.4,2.2,0.9,3.2,1.5
						c0.9,0.5,1.8,1.1,2.4,1.8L599.3,441c1.4,1.3,2.2,2.7,2.4,4.1c0.2,1.4-0.1,2.7-0.9,4c-0.8,1.3-2.2,2.4-4,3.4
						c-1.8,1-4.1,1.8-6.8,2.4l-77.7,17c-1.2,0.3-2.4,0.5-3.6,0.6c-1.2,0.1-2.4,0.2-3.6,0.3c-1.2,0-2.4,0-3.7,0
						c-1.2-0.1-2.4-0.2-3.6-0.3c-1.6-0.2-3.2-0.5-4.7-0.9c-1.5-0.4-2.9-0.8-4.2-1.4c-1.3-0.5-2.5-1.1-3.6-1.8
						c-1.1-0.7-2-1.4-2.7-2.2l-131.8-138c-1.1-1.2-1.6-2.4-1.6-3.5c0-1.2,0.5-2.3,1.5-3.4c1-1.1,2.4-2.1,4.2-2.9
						c1.8-0.8,4.1-1.5,6.6-2l72.4-13.6c1.1-0.2,2.1-0.4,3.2-0.5c1.1-0.1,2.2-0.2,3.3-0.2c1.1,0,2.2,0,3.3,0
						C444.8,302.2,445.8,302.3,446.9,302.4L446.9,302.4z"/>
				</g>
				<g>
					
						<linearGradient id="SVGID_9_" gradientUnits="userSpaceOnUse" x1="321.7167" y1="313.5639" x2="167.3641" y2="477.4105" gradientTransform="matrix(-1 0 0 1 664.2816 0)">
						<stop  offset="0" style="stop-color:#A5851C"/>
						<stop  offset="0.2185" style="stop-color:#F0D136"/>
						<stop  offset="0.3572" style="stop-color:#FDCF46"/>
						<stop  offset="0.512" style="stop-color:#FAD550"/>
						<stop  offset="0.6972" style="stop-color:#F4C537"/>
						<stop  offset="0.8977" style="stop-color:#E3B91F"/>
						<stop  offset="0.996" style="stop-color:#DDAC0B"/>
					</linearGradient>
					<path fill="url(#SVGID_9_)" d="M481.5,461.8c5.2,5,11.3,8.5,16.5,10.7c-0.1,0-0.1,0-0.2,0c-1.6-0.2-3.2-0.5-4.7-0.9
						c-1.5-0.4-2.9-0.8-4.2-1.4c-1.3-0.5-2.5-1.1-3.6-1.8c-1.1-0.7-2-1.4-2.7-2.2l-131.8-138c-1.1-1.2-1.6-2.4-1.6-3.5
						c0-0.6,0.1-1.2,0.4-1.8C373,349,470.8,451.4,481.5,461.8z"/>
				</g>
				<g>
					
						<linearGradient id="SVGID_10_" gradientUnits="userSpaceOnUse" x1="126.1775" y1="472.7675" x2="162.9283" y2="252.1866" gradientTransform="matrix(-1 0 0 1 664.2816 0)">
						<stop  offset="0" style="stop-color:#FFF89C"/>
						<stop  offset="0.3572" style="stop-color:#FDCF46"/>
						<stop  offset="0.5246" style="stop-color:#E7BC26"/>
						<stop  offset="0.7344" style="stop-color:#C49929"/>
						<stop  offset="0.7915" style="stop-color:#9E7D20"/>
						<stop  offset="0.8858" style="stop-color:#5A3F14"/>
					</linearGradient>
					<path fill="url(#SVGID_10_)" d="M597.6,443c-7.4-7.3-140.1-136.4-140.1-136.4s-4.6-3.3-16.1-4.5c0.7,0,1.4,0,2.2,0
						c1.1,0.1,2.2,0.1,3.2,0.3c1.4,0.2,2.8,0.4,4.2,0.7c1.3,0.3,2.6,0.7,3.7,1.1c1.2,0.4,2.2,0.9,3.2,1.5c0.9,0.5,1.8,1.1,2.4,1.8
						L599.3,441c1.4,1.3,2.2,2.7,2.4,4.1c0.2,1.4-0.1,2.7-0.9,4c-0.8,1.3-2.2,2.4-4,3.4c-1.2,0.7-2.6,1.2-4.1,1.7
						C597.3,451.4,601.8,447.2,597.6,443z"/>
				</g>
			</g>
		</g>
		<g>
			<g>
				
					<linearGradient id="SVGID_11_" gradientUnits="userSpaceOnUse" x1="283.4303" y1="546.2728" x2="413.7595" y2="396.1093" gradientTransform="matrix(-1 0 0 1 664.2816 0)">
					<stop  offset="0" style="stop-color:#DFA720"/>
					<stop  offset="0.4004" style="stop-color:#C49929"/>
					<stop  offset="0.7862" style="stop-color:#9E7D20"/>
					<stop  offset="1" style="stop-color:#5A3F14"/>
				</linearGradient>
				<path fill="url(#SVGID_11_)" d="M308.8,401.5c-1.3-0.2-12.8-3.2-14.2-3.1c-1.4,0-3.6,2.2-4.9,4.3c-0.8,1.2-1.6,2-2.4,5.5
					c0,0-96.6,18.1-96.7,19.4c-0.1,1.3,0.4,2.6,1.5,3.8l140.8,148.8c0.8,0.8,1.7,1.6,2.8,2.2c1.1,0.7,2.3,1.3,3.7,1.8
					c1.4,0.5,2.9,1,4.4,1.4c1.6,0.4,3.3,0.7,5,0.9c1.5,0.2,3,0.3,4.5,0.4c1.5,0.1,3.1,0.1,4.7,0c1.6-0.1,3.1-0.2,4.7-0.4
					c1.6-0.2,3.1-0.5,4.6-0.8l93.2-20.6c3.2-0.7,6-1.7,8.2-2.8c2.2-1.1,3.9-2.5,5-3.9c1.1-1.4,1.6-2.9,1.5-4.4
					c-0.1-1.5-0.9-3-2.4-4.4l-149.8-143L308.8,401.5L308.8,401.5z"/>
			</g>
			<g>
				<g>
					
						<linearGradient id="SVGID_12_" gradientUnits="userSpaceOnUse" x1="289.7197" y1="536.3717" x2="439.9883" y2="363.2341" gradientTransform="matrix(-1 0 0 1 664.2816 0)">
						<stop  offset="0" style="stop-color:#F6DA4A"/>
						<stop  offset="0.2185" style="stop-color:#DFA720"/>
						<stop  offset="0.5777" style="stop-color:#C49929"/>
						<stop  offset="0.9343" style="stop-color:#9E7D20"/>
						<stop  offset="1" style="stop-color:#5A3F14"/>
					</linearGradient>
					<path fill="url(#SVGID_12_)" d="M309.5,399.7c-1.3-0.2-97.2-48.1-98.6-48c-1.4,0-3.6,2.2-4.9,4.3c-0.8,1.2-1.6,2-2.4,5.5
						c0,0-12.3,63-12.4,64.3c-0.1,1.3,0.4,2.6,1.5,3.8l140.8,148.8c0.8,0.8,1.7,1.6,2.8,2.2c1.1,0.7,2.3,1.3,3.7,1.8
						c1.4,0.5,2.9,1,4.4,1.4c1.6,0.4,3.3,0.7,5,0.9c1.5,0.2,3,0.3,4.5,0.4c1.5,0.1,3.1,0.1,4.7,0c1.6-0.1,3.1-0.2,4.7-0.4
						c1.6-0.2,3.1-0.5,4.6-0.8l93.2-20.6c3.2-0.7,6-1.7,8.2-2.8c2.2-1.1,3.9-2.5,5-3.9c1.1-1.4,1.6-2.9,1.5-4.4
						c-0.1-1.5-0.9-3-2.4-4.4l-149.8-143L309.5,399.7L309.5,399.7z"/>
				</g>
				<g>
					
						<linearGradient id="SVGID_13_" gradientUnits="userSpaceOnUse" x1="386.6107" y1="445.3783" x2="367.9302" y2="428.5351" gradientTransform="matrix(-1 0 0 1 664.2816 0)">
						<stop  offset="0" style="stop-color:#584117"/>
						<stop  offset="0.2523" style="stop-color:#B88C1F"/>
						<stop  offset="0.411" style="stop-color:#FBE06D"/>
						<stop  offset="0.5345" style="stop-color:#C49929"/>
						<stop  offset="0.9343" style="stop-color:#9E7D20"/>
						<stop  offset="1" style="stop-color:#5A3F14"/>
					</linearGradient>
					<path fill="url(#SVGID_13_)" d="M208.5,365.9c-2.3-2-3.7-4-4.4-6.1c0.7-2.2,1.4-2.9,2-3.9c1.3-2,3.5-4.2,4.9-4.3
						c1.4,0,97.3,47.9,98.6,48l14.1,5.1l82.9,79.1l-40,11.4c0,0-20.2,13.2-22.2,13.2L208.5,365.9z"/>
				</g>
				
					<linearGradient id="SVGID_14_" gradientUnits="userSpaceOnUse" x1="328.0564" y1="524.7111" x2="309.8343" y2="526.5486" gradientTransform="matrix(-1 0 0 1 664.2816 0)">
					<stop  offset="0" style="stop-color:#EFCE41"/>
					<stop  offset="0.2191" style="stop-color:#E2BC4D"/>
					<stop  offset="0.409" style="stop-color:#EBC860"/>
					<stop  offset="0.5531" style="stop-color:#F9E991"/>
					<stop  offset="0.7145" style="stop-color:#F3DD87"/>
					<stop  offset="1" style="stop-color:#D8C000"/>
				</linearGradient>
				<path fill="url(#SVGID_14_)" d="M341.4,499c3.3,3.9,3.3,7.9,2.2,14.3l-8.6,66.4c0.8,0.8,0.2,0.2,1.3,0.9
					c1.1,0.7,2.1,1.3,3.4,2.1c1.3,0.7,2.8,1.3,4.3,1.9c1.5,0.6,3.1,0.9,5,1.3c1.5,0.3,3.5,0,5.1,0.1c1.5,0.1,12.4-1.7,13.9-2
					l93.2-20.6c3.2-0.7,6-1.7,8.2-2.8c2.2-1.1,3.9-2.5,5-3.9c1.1-1.4,1.6-2.9,1.5-4.4c-0.1-1.5-0.5-3.1-0.9-4.9l-12.6-63
					c-0.5-1.8-1.1-4.8-3.4-7.2L341.4,499z"/>
				<g>
					<g>
						
							<linearGradient id="SVGID_15_" gradientUnits="userSpaceOnUse" x1="188.3422" y1="530.1282" x2="314.0043" y2="530.1282" gradientTransform="matrix(-1 0 0 1 664.2816 0)">
							<stop  offset="0" style="stop-color:#EFCE41"/>
							<stop  offset="0.2191" style="stop-color:#E2BC4D"/>
							<stop  offset="0.409" style="stop-color:#EBC860"/>
							<stop  offset="0.5531" style="stop-color:#F9E991"/>
							<stop  offset="0.7145" style="stop-color:#F3DD87"/>
							<stop  offset="1" style="stop-color:#D8C000"/>
						</linearGradient>
						<path fill="url(#SVGID_15_)" d="M350.3,586c6.3,0.3,16.3-1.6,17.8-1.9l93.2-20.7c3.2-0.7,6-1.7,8.2-2.8c2.2-1.2,3.9-2.5,5-3.9
							c1.1-1.4,1.6-2.9,1.5-4.4c-0.1-1.5-0.5-3.1-0.9-4.9l-12.5-63c-0.5-1.8-1.9-7.4-4.1-10.1l-91.2,30.2c-7.8,0.4-14,1.5-14.5,7.5
							L350.3,586z"/>
					</g>
				</g>
				<g>
					<g>
						
							<linearGradient id="SVGID_16_" gradientUnits="userSpaceOnUse" x1="195.1597" y1="515.005" x2="313.3901" y2="538.6926" gradientTransform="matrix(-1 0 0 1 664.2816 0)">
							<stop  offset="0" style="stop-color:#F3E184"/>
							<stop  offset="2.656040e-002" style="stop-color:#FFFADF"/>
							<stop  offset="4.714480e-002" style="stop-color:#E9CA5F"/>
							<stop  offset="0.2191" style="stop-color:#E2BC4D"/>
							<stop  offset="0.409" style="stop-color:#EBC860"/>
							<stop  offset="0.5531" style="stop-color:#F9E991"/>
							<stop  offset="0.7145" style="stop-color:#F3DD87"/>
							<stop  offset="1" style="stop-color:#D8C000"/>
						</linearGradient>
						<path fill="url(#SVGID_16_)" d="M452.1,484.3l-7.6-5.4l14-4.6c2.2,2.7,3.6,8.3,4.1,10.1l12.5,63c0.4,1.8,0.8,3.4,0.9,4.9
							c0.1,1.5-0.4,3-1.5,4.4c-0.1,0.1-0.1,0.1-0.2,0.2c-2.4-12.4-13-66.5-14.4-70.1C458.2,482.6,452.1,484.3,452.1,484.3z"/>
					</g>
					
						<linearGradient id="SVGID_17_" gradientUnits="userSpaceOnUse" x1="153.8354" y1="528.3956" x2="492.4978" y2="323.5261" gradientTransform="matrix(-1 0 0 1 664.2816 0)">
						<stop  offset="0" style="stop-color:#FFFF89"/>
						<stop  offset="0.2185" style="stop-color:#FFD962"/>
						<stop  offset="0.2835" style="stop-color:#FFEC99"/>
						<stop  offset="0.3572" style="stop-color:#FFF17A"/>
						<stop  offset="0.512" style="stop-color:#FAE950"/>
						<stop  offset="0.6248" style="stop-color:#E5B632"/>
						<stop  offset="0.6746" style="stop-color:#E6C020"/>
						<stop  offset="0.7344" style="stop-color:#C49929"/>
						<stop  offset="0.7915" style="stop-color:#D4AA34"/>
						<stop  offset="0.8858" style="stop-color:#8A4C0F"/>
					</linearGradient>
					<path fill="url(#SVGID_17_)" d="M304.8,334.3c1.4,0.2,2.8,0.4,4.2,0.7c1.3,0.3,2.6,0.7,3.7,1.1c1.2,0.4,2.2,0.9,3.2,1.5
						c0.9,0.5,1.8,1.1,2.4,1.8l138.8,133.5c1.4,1.3,2.2,2.7,2.4,4.1c0.2,1.4-0.1,2.7-0.9,4c-0.8,1.3-2.2,2.4-4,3.4
						c-1.8,1-4.1,1.8-6.8,2.4l-77.7,17c-1.2,0.3-2.4,0.5-3.6,0.6c-1.2,0.1-2.4,0.2-3.6,0.3c-1.2,0-2.4,0-3.7,0
						c-1.2-0.1-2.4-0.2-3.6-0.3c-1.6-0.2-3.2-0.5-4.7-0.9c-1.5-0.4-2.9-0.8-4.2-1.4c-1.3-0.5-2.5-1.1-3.6-1.8
						c-1.1-0.7-2-1.4-2.7-2.2l-131.8-138c-1.1-1.2-1.6-2.4-1.6-3.5c0-1.2,0.5-2.3,1.5-3.4c1-1.1,2.4-2.1,4.2-2.9
						c1.8-0.8,4.1-1.5,6.6-2l72.4-13.6c1.1-0.2,2.1-0.4,3.2-0.5c1.1-0.1,2.2-0.2,3.3-0.2c1.1,0,2.2,0,3.3,0
						C302.7,334.1,303.7,334.2,304.8,334.3L304.8,334.3z"/>
				</g>
				<g>
					
						<linearGradient id="SVGID_18_" gradientUnits="userSpaceOnUse" x1="463.8172" y1="345.4153" x2="309.4656" y2="509.2607" gradientTransform="matrix(-1 0 0 1 664.2816 0)">
						<stop  offset="0" style="stop-color:#A5851C"/>
						<stop  offset="0.2185" style="stop-color:#F0D136"/>
						<stop  offset="0.3572" style="stop-color:#FDCF46"/>
						<stop  offset="0.512" style="stop-color:#FAD550"/>
						<stop  offset="0.6972" style="stop-color:#F4C537"/>
						<stop  offset="0.8977" style="stop-color:#E3B91F"/>
						<stop  offset="0.996" style="stop-color:#DDAC0B"/>
					</linearGradient>
					<path fill="url(#SVGID_18_)" d="M339.4,493.7c5.2,5.1,11.3,8.5,16.5,10.7c-0.1,0-0.1,0-0.2,0c-1.6-0.2-3.2-0.5-4.7-0.9
						c-1.5-0.4-2.9-0.8-4.2-1.4c-1.3-0.5-2.5-1.1-3.6-1.8c-1.1-0.7-2-1.4-2.7-2.2l-131.8-138c-1.1-1.2-1.6-2.4-1.6-3.5
						c0-0.6,0.1-1.2,0.4-1.8C230.9,380.9,328.7,483.3,339.4,493.7z"/>
				</g>
				<g>
					
						<linearGradient id="SVGID_19_" gradientUnits="userSpaceOnUse" x1="268.2777" y1="504.6187" x2="305.0288" y2="284.0355" gradientTransform="matrix(-1 0 0 1 664.2816 0)">
						<stop  offset="0" style="stop-color:#FFF89C"/>
						<stop  offset="0.3572" style="stop-color:#FDCF46"/>
						<stop  offset="0.5246" style="stop-color:#E7BC26"/>
						<stop  offset="0.7344" style="stop-color:#C49929"/>
						<stop  offset="0.7915" style="stop-color:#9E7D20"/>
						<stop  offset="0.8858" style="stop-color:#5A3F14"/>
					</linearGradient>
					<path fill="url(#SVGID_19_)" d="M455.5,474.9c-7.4-7.4-140.1-136.4-140.1-136.4s-4.6-3.3-16.1-4.5c0.7,0,1.4,0,2.2,0
						c1.1,0,2.2,0.1,3.2,0.3c1.4,0.2,2.8,0.4,4.2,0.7c1.3,0.3,2.6,0.7,3.7,1.1c1.2,0.4,2.2,0.9,3.2,1.5c0.9,0.5,1.8,1.1,2.4,1.8
						l138.8,133.5c1.4,1.3,2.2,2.7,2.4,4.1c0.2,1.4-0.1,2.7-0.9,4c-0.8,1.3-2.2,2.4-4,3.4c-1.2,0.7-2.6,1.2-4.1,1.7
						C455.2,483.3,459.7,479.1,455.5,474.9z"/>
				</g>
			</g>
		</g>
		<g>
			<g>
				
					<linearGradient id="SVGID_20_" gradientUnits="userSpaceOnUse" x1="225.204" y1="441.6401" x2="375.4744" y2="268.5005" gradientTransform="matrix(-1 0 0 1 664.2816 0)">
					<stop  offset="0" style="stop-color:#F6DA4A"/>
					<stop  offset="0.2185" style="stop-color:#DFA720"/>
					<stop  offset="0.5777" style="stop-color:#C49929"/>
					<stop  offset="0.9343" style="stop-color:#9E7D20"/>
					<stop  offset="1" style="stop-color:#5A3F14"/>
				</linearGradient>
				<path fill="url(#SVGID_20_)" d="M374,305c-1.3-0.2-97.2-48.1-98.6-48c-1.4,0-3.6,2.2-4.9,4.3c-0.8,1.2-1.6,2-2.4,5.5
					c0,0-12.3,63-12.4,64.3c-0.1,1.3,0.4,2.6,1.5,3.8l140.8,148.8c0.8,0.8,1.7,1.6,2.8,2.2c1.1,0.7,2.4,1.3,3.7,1.8
					c1.4,0.5,2.9,1,4.4,1.4c1.6,0.4,3.3,0.7,5,0.9c1.5,0.2,3,0.3,4.5,0.4c1.5,0.1,3.1,0.1,4.7,0c1.6-0.1,3.1-0.2,4.7-0.4
					c1.6-0.2,3.1-0.5,4.6-0.8l93.2-20.6c3.2-0.7,6-1.7,8.2-2.8c2.2-1.1,3.9-2.5,5-3.9c1.1-1.4,1.6-2.9,1.5-4.4
					c-0.1-1.5-0.9-3-2.4-4.4l-149.8-143L374,305L374,305z"/>
			</g>
			<g>
				
					<linearGradient id="SVGID_21_" gradientUnits="userSpaceOnUse" x1="322.0963" y1="350.6452" x2="303.4143" y2="333.8008" gradientTransform="matrix(-1 0 0 1 664.2816 0)">
					<stop  offset="0" style="stop-color:#584117"/>
					<stop  offset="0.2523" style="stop-color:#B88C1F"/>
					<stop  offset="0.411" style="stop-color:#FBE06D"/>
					<stop  offset="0.5345" style="stop-color:#C49929"/>
					<stop  offset="0.9343" style="stop-color:#9E7D20"/>
					<stop  offset="1" style="stop-color:#5A3F14"/>
				</linearGradient>
				<path fill="url(#SVGID_21_)" d="M273,271.1c-2.3-2-3.7-4-4.4-6.1c0.7-2.2,1.3-2.9,2-3.9c1.3-2,3.5-4.2,4.9-4.3
					c1.4,0,97.3,47.9,98.6,48l14.1,5.1l82.9,79.1l-40,11.4c0,0-20.2,13.2-22.3,13.2L273,271.1z"/>
			</g>
			
				<linearGradient id="SVGID_22_" gradientUnits="userSpaceOnUse" x1="263.5423" y1="429.9783" x2="245.3201" y2="431.8158" gradientTransform="matrix(-1 0 0 1 664.2816 0)">
				<stop  offset="0" style="stop-color:#EFCE41"/>
				<stop  offset="0.2191" style="stop-color:#E2BC4D"/>
				<stop  offset="0.409" style="stop-color:#EBC860"/>
				<stop  offset="0.5531" style="stop-color:#F9E991"/>
				<stop  offset="0.7145" style="stop-color:#F3DD87"/>
				<stop  offset="1" style="stop-color:#D8C000"/>
			</linearGradient>
			<path fill="url(#SVGID_22_)" d="M406,404.3c3.3,3.9,3.3,7.9,2.2,14.3l-8.6,66.4c0.8,0.8,0.2,0.2,1.3,0.9c1.1,0.7,2.1,1.3,3.4,2.1
				c1.3,0.7,2.8,1.3,4.3,1.9c1.5,0.6,3.1,0.9,5,1.3c1.4,0.3,3.5,0,5.1,0.1c1.5,0.1,12.4-1.7,13.9-2l93.2-20.6c3.2-0.7,6-1.7,8.2-2.8
				c2.2-1.1,3.9-2.5,5-3.9c1.1-1.4,1.6-2.9,1.5-4.4c-0.1-1.5-0.5-3.1-0.9-4.9l-12.6-63c-0.5-1.8-1.1-4.8-3.4-7.2L406,404.3z"/>
			<g>
				<g>
					
						<linearGradient id="SVGID_23_" gradientUnits="userSpaceOnUse" x1="123.8283" y1="435.3947" x2="249.4926" y2="435.3947" gradientTransform="matrix(-1 0 0 1 664.2816 0)">
						<stop  offset="0" style="stop-color:#EFCE41"/>
						<stop  offset="0.2191" style="stop-color:#E2BC4D"/>
						<stop  offset="0.409" style="stop-color:#EBC860"/>
						<stop  offset="0.5531" style="stop-color:#F9E991"/>
						<stop  offset="0.7145" style="stop-color:#F3DD87"/>
						<stop  offset="1" style="stop-color:#D8C000"/>
					</linearGradient>
					<path fill="url(#SVGID_23_)" d="M414.8,491.2c6.3,0.3,16.3-1.6,17.8-1.9l93.2-20.7c3.2-0.7,6-1.7,8.2-2.8
						c2.2-1.1,3.9-2.5,5-3.9c1.1-1.4,1.6-2.9,1.5-4.4c-0.1-1.5-0.5-3.1-0.9-4.9l-12.5-63c-0.5-1.8-1.9-7.4-4.1-10.1l-91.2,30.2
						c-7.8,0.4-14,1.5-14.5,7.5L414.8,491.2z"/>
				</g>
			</g>
			<g>
				<g>
					
						<linearGradient id="SVGID_24_" gradientUnits="userSpaceOnUse" x1="130.6452" y1="420.2694" x2="248.8877" y2="443.9595" gradientTransform="matrix(-1 0 0 1 664.2816 0)">
						<stop  offset="0" style="stop-color:#F3E184"/>
						<stop  offset="2.656040e-002" style="stop-color:#FFFADF"/>
						<stop  offset="4.714480e-002" style="stop-color:#E9CA5F"/>
						<stop  offset="0.2191" style="stop-color:#E2BC4D"/>
						<stop  offset="0.409" style="stop-color:#EBC860"/>
						<stop  offset="0.5531" style="stop-color:#F9E991"/>
						<stop  offset="0.7145" style="stop-color:#F3DD87"/>
						<stop  offset="1" style="stop-color:#D8C000"/>
					</linearGradient>
					<path fill="url(#SVGID_24_)" d="M516.6,389.5l-7.7-5.4l14-4.6c2.2,2.7,3.6,8.3,4.1,10.1l12.5,63c0.4,1.8,0.8,3.4,0.9,4.9
						c0.1,1.5-0.4,3-1.5,4.4c-0.1,0.1-0.1,0.1-0.2,0.2c-2.4-12.4-13-66.5-14.4-70.1C522.7,387.9,516.6,389.5,516.6,389.5z"/>
				</g>
				
					<linearGradient id="SVGID_25_" gradientUnits="userSpaceOnUse" x1="106.5005" y1="411.7055" x2="443.0712" y2="231.9225" gradientTransform="matrix(-1 0 0 1 664.2816 0)">
					<stop  offset="0" style="stop-color:#FFFF89"/>
					<stop  offset="0.2185" style="stop-color:#FFD962"/>
					<stop  offset="0.2835" style="stop-color:#FFEC99"/>
					<stop  offset="0.3572" style="stop-color:#FFF17A"/>
					<stop  offset="0.512" style="stop-color:#FAE950"/>
					<stop  offset="0.6248" style="stop-color:#E5B632"/>
					<stop  offset="0.6746" style="stop-color:#E6C020"/>
					<stop  offset="0.7344" style="stop-color:#C49929"/>
					<stop  offset="0.7915" style="stop-color:#D4AA34"/>
					<stop  offset="0.8858" style="stop-color:#8A4C0F"/>
				</linearGradient>
				<path fill="url(#SVGID_25_)" d="M369.3,239.5c1.4,0.2,2.8,0.4,4.1,0.7c1.3,0.3,2.6,0.7,3.7,1.1c1.2,0.4,2.2,0.9,3.2,1.5
					c0.9,0.5,1.8,1.1,2.4,1.8l138.8,133.5c1.4,1.3,2.2,2.7,2.4,4.1c0.2,1.4-0.1,2.7-0.9,4c-0.8,1.3-2.2,2.4-4,3.4
					c-1.8,1-4.1,1.8-6.8,2.4l-77.7,17c-1.2,0.3-2.4,0.5-3.6,0.6c-1.2,0.1-2.4,0.2-3.6,0.3c-1.2,0-2.4,0-3.7,0
					c-1.2-0.1-2.4-0.2-3.6-0.3c-1.6-0.2-3.2-0.5-4.7-0.9c-1.5-0.4-2.9-0.8-4.2-1.4c-1.3-0.5-2.5-1.1-3.6-1.8c-1.1-0.7-2-1.4-2.7-2.2
					l-131.8-138c-1.1-1.2-1.6-2.4-1.6-3.5c0-1.2,0.5-2.3,1.5-3.4c1-1.1,2.4-2.1,4.2-2.9c1.8-0.8,4.1-1.5,6.6-2l72.4-13.6
					c1.1-0.2,2.1-0.4,3.2-0.5c1.1-0.1,2.2-0.2,3.3-0.2c1.1,0,2.2,0,3.3,0C367.2,239.3,368.2,239.4,369.3,239.5L369.3,239.5z"/>
			</g>
			<g>
				
					<linearGradient id="SVGID_26_" gradientUnits="userSpaceOnUse" x1="399.3037" y1="250.6806" x2="244.9493" y2="414.5291" gradientTransform="matrix(-1 0 0 1 664.2816 0)">
					<stop  offset="0" style="stop-color:#A5851C"/>
					<stop  offset="0.2185" style="stop-color:#F0D136"/>
					<stop  offset="0.3572" style="stop-color:#FDCF46"/>
					<stop  offset="0.512" style="stop-color:#FAD550"/>
					<stop  offset="0.6972" style="stop-color:#F4C537"/>
					<stop  offset="0.8977" style="stop-color:#E3B91F"/>
					<stop  offset="0.996" style="stop-color:#DDAC0B"/>
				</linearGradient>
				<path fill="url(#SVGID_26_)" d="M403.9,398.9c5.2,5,11.3,8.5,16.5,10.7c-0.1,0-0.1,0-0.2,0c-1.6-0.2-3.2-0.5-4.7-0.9
					c-1.5-0.4-2.9-0.8-4.2-1.4c-1.3-0.5-2.5-1.1-3.6-1.8c-1.1-0.7-2-1.4-2.7-2.2l-131.8-138c-1.1-1.2-1.6-2.4-1.6-3.5
					c0-0.6,0.1-1.2,0.4-1.8C295.4,286.1,393.2,388.5,403.9,398.9z"/>
			</g>
			<g>
				
					<linearGradient id="SVGID_27_" gradientUnits="userSpaceOnUse" x1="203.7638" y1="409.8844" x2="240.5144" y2="189.3045" gradientTransform="matrix(-1 0 0 1 664.2816 0)">
					<stop  offset="0" style="stop-color:#FFF89C"/>
					<stop  offset="0.3572" style="stop-color:#FDCF46"/>
					<stop  offset="0.5246" style="stop-color:#E7BC26"/>
					<stop  offset="0.7344" style="stop-color:#C49929"/>
					<stop  offset="0.7915" style="stop-color:#9E7D20"/>
					<stop  offset="0.8858" style="stop-color:#5A3F14"/>
				</linearGradient>
				<path fill="url(#SVGID_27_)" d="M520.1,380.1C512.7,372.8,380,243.8,380,243.8s-4.6-3.3-16.1-4.5c0.7,0,1.4,0,2.2,0
					c1.1,0.1,2.2,0.1,3.2,0.3c1.4,0.2,2.8,0.4,4.1,0.7c1.3,0.3,2.6,0.7,3.7,1.1c1.2,0.4,2.2,0.9,3.2,1.5c0.9,0.5,1.8,1.1,2.4,1.8
					l138.8,133.5c1.4,1.3,2.2,2.7,2.4,4.1c0.2,1.4-0.1,2.7-0.9,4c-0.8,1.3-2.2,2.4-4,3.4c-1.2,0.7-2.6,1.2-4.1,1.7
					C519.7,388.5,524.3,384.3,520.1,380.1z"/>
			</g>
		</g>
		<g>
			<g>
				
					<linearGradient id="SVGID_28_" gradientUnits="userSpaceOnUse" x1="427.6399" y1="578.1939" x2="557.9691" y2="428.0304" gradientTransform="matrix(-1 0 0 1 664.2816 0)">
					<stop  offset="0" style="stop-color:#DFA720"/>
					<stop  offset="0.4004" style="stop-color:#C49929"/>
					<stop  offset="0.7862" style="stop-color:#9E7D20"/>
					<stop  offset="1" style="stop-color:#5A3F14"/>
				</linearGradient>
				<path fill="url(#SVGID_28_)" d="M164.6,433.4c-1.3-0.2-12.8-3.2-14.2-3.1c-1.4,0-3.6,2.2-4.9,4.3c-0.8,1.2-1.6,2-2.4,5.5
					c0,0-96.6,18.1-96.7,19.4c-0.1,1.3,0.4,2.6,1.5,3.8L188.6,612c0.8,0.8,1.7,1.6,2.8,2.2c1.1,0.7,2.4,1.3,3.7,1.8
					c1.4,0.5,2.9,1,4.4,1.4c1.6,0.4,3.3,0.7,5,0.9c1.5,0.2,3,0.3,4.5,0.4c1.5,0.1,3.1,0.1,4.7,0c1.6-0.1,3.1-0.2,4.7-0.4
					c1.6-0.2,3.1-0.5,4.6-0.8l93.2-20.6c3.2-0.7,6-1.7,8.2-2.8c2.2-1.1,3.9-2.5,5-3.9c1.1-1.4,1.6-2.9,1.5-4.4
					c-0.1-1.5-0.9-3-2.4-4.4l-149.8-143L164.6,433.4L164.6,433.4z"/>
			</g>
			<g>
				<g>
					
						<linearGradient id="SVGID_29_" gradientUnits="userSpaceOnUse" x1="434.6819" y1="567.3582" x2="584.9506" y2="394.2206" gradientTransform="matrix(-1 0 0 1 664.2816 0)">
						<stop  offset="0" style="stop-color:#F6DA4A"/>
						<stop  offset="0.2185" style="stop-color:#DFA720"/>
						<stop  offset="0.5777" style="stop-color:#C49929"/>
						<stop  offset="0.7862" style="stop-color:#A37A04"/>
						<stop  offset="1" style="stop-color:#8B4D10"/>
					</linearGradient>
					<path fill="url(#SVGID_29_)" d="M164.6,430.7c-1.3-0.2-97.2-48.1-98.6-48c-1.4,0-3.6,2.2-4.9,4.3c-0.8,1.2-1.6,2-2.4,5.5
						c0,0-12.3,63-12.4,64.3c-0.1,1.3,0.4,2.6,1.5,3.8l140.8,148.8c0.8,0.8,1.7,1.6,2.8,2.2c1.1,0.7,2.4,1.3,3.7,1.8
						c1.4,0.5,2.9,1,4.4,1.4c1.6,0.4,3.3,0.7,5,0.9c1.5,0.2,3,0.3,4.5,0.4c1.5,0.1,3.1,0.1,4.7,0c1.6-0.1,3.1-0.2,4.7-0.4
						c1.6-0.2,3.1-0.5,4.6-0.8l93.2-20.6c3.2-0.7,6-1.7,8.2-2.8c2.2-1.1,3.9-2.5,5-3.9c1.1-1.4,1.6-2.9,1.5-4.4
						c-0.1-1.5-0.9-3-2.4-4.5l-149.8-143L164.6,430.7L164.6,430.7z"/>
				</g>
				<g>
					
						<linearGradient id="SVGID_30_" gradientUnits="userSpaceOnUse" x1="531.5732" y1="476.3658" x2="512.8912" y2="459.5214" gradientTransform="matrix(-1 0 0 1 664.2816 0)">
						<stop  offset="0" style="stop-color:#584117"/>
						<stop  offset="0.2523" style="stop-color:#FFF2B0"/>
						<stop  offset="0.411" style="stop-color:#FBE06D"/>
						<stop  offset="0.5345" style="stop-color:#C49929"/>
						<stop  offset="0.9343" style="stop-color:#9E7D20"/>
						<stop  offset="1" style="stop-color:#5A3F14"/>
					</linearGradient>
					<path fill="url(#SVGID_30_)" d="M63.5,396.8c-2.3-2-3.7-4-4.4-6.1c0.7-2.2,1.3-2.9,2-3.9c1.3-2,3.5-4.2,4.9-4.3
						c1.4,0,97.3,47.9,98.6,48l14.1,5.1l82.9,79.1l-40,11.4c0,0-20.2,13.2-22.2,13.2L63.5,396.8z"/>
				</g>
				
					<linearGradient id="SVGID_31_" gradientUnits="userSpaceOnUse" x1="473.0221" y1="555.6982" x2="454.7998" y2="557.5357" gradientTransform="matrix(-1 0 0 1 664.2816 0)">
					<stop  offset="0" style="stop-color:#EFCE41"/>
					<stop  offset="0.2191" style="stop-color:#E2BC4D"/>
					<stop  offset="0.409" style="stop-color:#EBC860"/>
					<stop  offset="0.5531" style="stop-color:#F9E991"/>
					<stop  offset="0.7145" style="stop-color:#F3DD87"/>
					<stop  offset="1" style="stop-color:#D8C000"/>
				</linearGradient>
				<path fill="url(#SVGID_31_)" d="M196.5,530c3.3,3.9,3.3,7.9,2.2,14.3l-8.6,66.4c0.8,0.8,0.2,0.2,1.3,0.9
					c1.1,0.7,2.1,1.3,3.4,2.1c1.3,0.7,2.8,1.3,4.3,1.9c1.5,0.6,3.1,0.9,5,1.3c1.5,0.3,3.5,0,5.1,0.1c1.5,0.1,12.4-1.7,13.9-2
					l93.2-20.6c3.2-0.7,6-1.7,8.2-2.8c2.2-1.1,3.9-2.5,5-3.9c1.1-1.4,1.6-2.9,1.5-4.4c-0.1-1.5-0.5-3.1-0.9-4.9l-12.6-63
					c-0.5-1.8-1.1-4.8-3.4-7.2L196.5,530z"/>
				<g>
					<g>
						
							<linearGradient id="SVGID_32_" gradientUnits="userSpaceOnUse" x1="333.308" y1="561.1157" x2="458.9699" y2="561.1157" gradientTransform="matrix(-1 0 0 1 664.2816 0)">
							<stop  offset="0" style="stop-color:#EFCE41"/>
							<stop  offset="0.2191" style="stop-color:#E2BC4D"/>
							<stop  offset="0.409" style="stop-color:#EBC860"/>
							<stop  offset="0.5531" style="stop-color:#F9E991"/>
							<stop  offset="0.7145" style="stop-color:#F3DD87"/>
							<stop  offset="1" style="stop-color:#D8C000"/>
						</linearGradient>
						<path fill="url(#SVGID_32_)" d="M205.3,616.9c6.3,0.3,16.3-1.6,17.8-1.9l93.2-20.7c3.2-0.7,6-1.7,8.2-2.8
							c2.2-1.2,3.9-2.5,5-3.9c1.1-1.4,1.6-2.9,1.5-4.4c-0.1-1.5-0.5-3.1-0.9-4.9l-12.5-63c-0.5-1.8-1.9-7.4-4.1-10.1l-91.2,30.2
							c-7.8,0.4-14,1.5-14.5,7.5L205.3,616.9z"/>
					</g>
				</g>
				<g>
					<g>
						
							<linearGradient id="SVGID_33_" gradientUnits="userSpaceOnUse" x1="340.1268" y1="545.9901" x2="458.333" y2="569.6729" gradientTransform="matrix(-1 0 0 1 664.2816 0)">
							<stop  offset="0" style="stop-color:#F3E184"/>
							<stop  offset="2.656040e-002" style="stop-color:#FFFADF"/>
							<stop  offset="4.714480e-002" style="stop-color:#E9CA5F"/>
							<stop  offset="0.2191" style="stop-color:#E2BC4D"/>
							<stop  offset="0.409" style="stop-color:#EBC860"/>
							<stop  offset="0.5531" style="stop-color:#F9E991"/>
							<stop  offset="0.7145" style="stop-color:#F3DD87"/>
							<stop  offset="1" style="stop-color:#D8C000"/>
						</linearGradient>
						<path fill="url(#SVGID_33_)" d="M307.1,515.3l-7.6-5.4l14-4.6c2.2,2.7,3.6,8.3,4.1,10.1l12.5,63c0.4,1.8,0.8,3.4,0.9,4.9
							c0.1,1.5-0.4,3-1.5,4.4c-0.1,0.1-0.1,0.1-0.2,0.2c-2.4-12.4-13-66.5-14.4-70.1C313.2,513.6,307.1,515.3,307.1,515.3z"/>
					</g>
					
						<linearGradient id="SVGID_34_" gradientUnits="userSpaceOnUse" x1="331.1487" y1="540.3207" x2="630.0886" y2="358.4481" gradientTransform="matrix(-1 0 0 1 664.2816 0)">
						<stop  offset="0" style="stop-color:#FFFF89"/>
						<stop  offset="0.2185" style="stop-color:#FFD962"/>
						<stop  offset="0.2835" style="stop-color:#FFEC99"/>
						<stop  offset="0.3572" style="stop-color:#FFF17A"/>
						<stop  offset="0.512" style="stop-color:#FAE950"/>
						<stop  offset="0.6248" style="stop-color:#E5B632"/>
						<stop  offset="0.6746" style="stop-color:#E6C020"/>
						<stop  offset="0.7344" style="stop-color:#C49929"/>
						<stop  offset="0.7915" style="stop-color:#D4AA34"/>
						<stop  offset="0.8858" style="stop-color:#8A4C0F"/>
					</linearGradient>
					<path fill="url(#SVGID_34_)" d="M159.8,365.3c1.4,0.2,2.8,0.4,4.2,0.7c1.3,0.3,2.6,0.7,3.7,1.1c1.2,0.4,2.2,0.9,3.2,1.5
						c0.9,0.5,1.8,1.1,2.4,1.8l138.8,133.5c1.4,1.3,2.2,2.7,2.4,4.1c0.2,1.4-0.1,2.7-0.9,4c-0.8,1.3-2.2,2.4-4,3.4
						c-1.8,1-4.1,1.8-6.8,2.4l-77.7,17c-1.2,0.3-2.4,0.5-3.6,0.6c-1.2,0.1-2.4,0.2-3.7,0.3c-1.2,0-2.4,0-3.6,0
						c-1.2-0.1-2.4-0.2-3.6-0.3c-1.6-0.2-3.2-0.5-4.7-0.9c-1.5-0.4-2.9-0.8-4.2-1.4c-1.3-0.5-2.5-1.1-3.6-1.8
						c-1.1-0.7-2-1.4-2.7-2.2l-131.8-138c-1.1-1.2-1.6-2.4-1.6-3.5c0-1.2,0.5-2.3,1.5-3.4c1-1.1,2.4-2.1,4.2-2.9
						c1.8-0.8,4.1-1.5,6.6-2l72.4-13.6c1.1-0.2,2.1-0.4,3.2-0.5c1.1-0.1,2.2-0.2,3.3-0.2c1.1,0,2.2,0,3.3,0
						C157.7,365,158.8,365.1,159.8,365.3L159.8,365.3z"/>
				</g>
				<g>
					
						<linearGradient id="SVGID_35_" gradientUnits="userSpaceOnUse" x1="608.7809" y1="376.4013" x2="454.4261" y2="540.2501" gradientTransform="matrix(-1 0 0 1 664.2816 0)">
						<stop  offset="0" style="stop-color:#A5851C"/>
						<stop  offset="0.2185" style="stop-color:#F0D136"/>
						<stop  offset="0.3572" style="stop-color:#FDCF46"/>
						<stop  offset="0.512" style="stop-color:#FAD550"/>
						<stop  offset="0.6972" style="stop-color:#F4C537"/>
						<stop  offset="0.8977" style="stop-color:#E3B91F"/>
						<stop  offset="0.996" style="stop-color:#DDAC0B"/>
					</linearGradient>
					<path fill="url(#SVGID_35_)" d="M194.4,524.6c5.2,5,11.3,8.5,16.5,10.8c-0.1,0-0.1,0-0.2,0c-1.6-0.2-3.2-0.5-4.7-0.9
						c-1.5-0.4-2.9-0.8-4.2-1.4c-1.3-0.5-2.5-1.1-3.6-1.8c-1.1-0.7-2-1.4-2.7-2.2l-131.8-138c-1.1-1.2-1.6-2.4-1.6-3.5
						c0-0.6,0.1-1.2,0.4-1.8C85.9,411.8,183.7,514.2,194.4,524.6z"/>
				</g>
				<g>
					
						<linearGradient id="SVGID_36_" gradientUnits="userSpaceOnUse" x1="413.2379" y1="535.6035" x2="449.9887" y2="315.0226" gradientTransform="matrix(-1 0 0 1 664.2816 0)">
						<stop  offset="0" style="stop-color:#FFF89C"/>
						<stop  offset="0.3572" style="stop-color:#FDCF46"/>
						<stop  offset="0.5246" style="stop-color:#E7BC26"/>
						<stop  offset="0.7344" style="stop-color:#C49929"/>
						<stop  offset="0.7915" style="stop-color:#9E7D20"/>
						<stop  offset="0.8858" style="stop-color:#5A3F14"/>
					</linearGradient>
					<path fill="url(#SVGID_36_)" d="M310.6,505.9c-7.4-7.4-140.1-136.4-140.1-136.4s-4.6-3.3-16.1-4.5c0.7,0,1.4,0,2.2,0
						c1.1,0,2.2,0.1,3.2,0.3c1.4,0.2,2.8,0.4,4.2,0.7c1.3,0.3,2.6,0.7,3.7,1.1c1.2,0.4,2.2,0.9,3.2,1.5c0.9,0.5,1.8,1.1,2.4,1.8
						l138.8,133.5c1.4,1.3,2.2,2.7,2.4,4.1c0.2,1.4-0.1,2.7-0.9,4c-0.8,1.3-2.2,2.4-4,3.4c-1.2,0.7-2.6,1.2-4.2,1.7
						C310.2,514.3,314.8,510.1,310.6,505.9z"/>
				</g>
			</g>
			<g display="none">
				
					<linearGradient id="SVGID_37_" gradientUnits="userSpaceOnUse" x1="481.2236" y1="506.5748" x2="478.5027" y2="388.2164" gradientTransform="matrix(-1 0 0 1 664.2816 0)">
					<stop  offset="0" style="stop-color:#F6DA4A"/>
					<stop  offset="0.2185" style="stop-color:#DFA720"/>
					<stop  offset="0.3572" style="stop-color:#FDD251"/>
					<stop  offset="0.512" style="stop-color:#FAE950"/>
					<stop  offset="0.6248" style="stop-color:#E5B632"/>
					<stop  offset="0.7344" style="stop-color:#C49929"/>
					<stop  offset="0.7915" style="stop-color:#9E7D20"/>
					<stop  offset="0.8858" style="stop-color:#5A3F14"/>
				</linearGradient>
				<path display="inline" fill="url(#SVGID_37_)" d="M178.3,403.7c0.2,0,0.3-0.1,0.5-0.1c3-0.5,5.7-0.6,8.2-0.4
					c2.5,0.2,4.7,0.7,6.7,1.5c2,0.8,3.6,1.8,4.7,3c1.1,1.2,1.6,2.3,1.4,3.4c-0.2,1.1-0.9,2.1-2.3,2.9c-1.4,0.8-3.2,1.4-5.6,1.8
					c-0.1,0-0.2,0-0.3,0c-1.6,0.3-3.4,0.5-5.4,0.6c-2,0.1-3.8,0.1-5.5,0.1c-0.4-0.7-0.9-1.3-1.4-1.8c-0.5-0.5-1-1-1.6-1.4l-1.5-0.2
					l-0.4-0.4c0.8-0.1,1.7-0.2,2.7-0.4c0.3,0,0.5-0.1,0.9-0.1c1.1-0.2,2.6-0.5,4.5-0.8l0.5,0.5l-1.8,0.4c-1,0.2-1.5,0.3-1.6,0.4
					s-0.1,0.1,0,0.2c0.1,0.1,0.4,0.5,1.1,1.2c0.5,0.5,1,1,1.5,1.5c2.4,0.1,4.4,0,6.2-0.3c0.1,0,0.2,0,0.2,0c3.2-0.6,5.1-1.6,5.9-3.1
					c0.6-1.3,0.2-2.7-1.2-4.3c-1.5-1.6-3.6-2.7-6.3-3.4c-2.5-0.6-5.3-0.7-8.4-0.2c-0.1,0-0.2,0-0.3,0.1c-1.6,0.3-3,0.7-4,1.1
					c-1.1,0.5-1.8,0.9-1.9,1.1c-0.1,0.1,0.1,0.5,0.7,1l0.5,0.6l-1,0.2c-1.2-1-2.2-1.8-3-2.4l1.2-0.4c1.4-0.5,2.6-0.9,3.6-1.2
					C176.4,404,177.3,403.8,178.3,403.7L178.3,403.7z"/>
				
					<linearGradient id="SVGID_38_" gradientUnits="userSpaceOnUse" x1="505.6398" y1="506.0284" x2="502.9185" y2="387.654" gradientTransform="matrix(-1 0 0 1 664.2816 0)">
					<stop  offset="0" style="stop-color:#F6DA4A"/>
					<stop  offset="0.2185" style="stop-color:#DFA720"/>
					<stop  offset="0.3572" style="stop-color:#FDD251"/>
					<stop  offset="0.512" style="stop-color:#FAE950"/>
					<stop  offset="0.6248" style="stop-color:#E5B632"/>
					<stop  offset="0.7344" style="stop-color:#C49929"/>
					<stop  offset="0.7915" style="stop-color:#9E7D20"/>
					<stop  offset="0.8858" style="stop-color:#5A3F14"/>
				</linearGradient>
				<path display="inline" fill="url(#SVGID_38_)" d="M165.8,419.1c-0.1,0-0.1,0-0.2,0c-1.6,0.3-3.3,0.3-4.9,0.1
					c-1.6-0.2-3.1-0.6-4.6-1.3c-1.5-0.7-2.7-1.6-3.8-2.7c-1.1-1.2-1.7-2.3-1.7-3.3c0-1,0.5-1.8,1.4-2.4c0.9-0.6,2.3-1.1,4-1.4
					c0.1,0,0.1,0,0.2,0c1.7-0.3,3.3-0.3,4.9-0.2c1.6,0.2,3.1,0.6,4.5,1.2c1.4,0.6,2.5,1.4,3.4,2.4c1.2,1.3,1.8,2.5,1.9,3.5
					c0.1,1.1-0.4,2-1.3,2.7C168.8,418.4,167.5,418.9,165.8,419.1L165.8,419.1z M154.4,407.6c-3.5,0.6-5.8,1.6-6.8,2.9
					c-1.1,1.4-0.8,3,0.8,4.7c1.8,1.9,4.5,3.3,8.1,4.1c3.6,0.9,7.3,1,11,0.4c0.1,0,0.2,0,0.2,0c2.2-0.4,3.9-0.9,5-1.7
					c1.2-0.8,1.8-1.7,1.9-2.8c0.1-1.1-0.5-2.3-1.6-3.5c-1.7-1.9-4.3-3.2-7.6-3.9c-3.3-0.8-6.9-0.8-10.6-0.2
					C154.7,407.5,154.5,407.6,154.4,407.6L154.4,407.6z"/>
				
					<linearGradient id="SVGID_39_" gradientUnits="userSpaceOnUse" x1="524.7926" y1="505.5858" x2="522.0714" y2="387.2095" gradientTransform="matrix(-1 0 0 1 664.2816 0)">
					<stop  offset="0" style="stop-color:#F6DA4A"/>
					<stop  offset="0.2185" style="stop-color:#DFA720"/>
					<stop  offset="0.3572" style="stop-color:#FDD251"/>
					<stop  offset="0.512" style="stop-color:#FAE950"/>
					<stop  offset="0.6248" style="stop-color:#E5B632"/>
					<stop  offset="0.7344" style="stop-color:#C49929"/>
					<stop  offset="0.7915" style="stop-color:#9E7D20"/>
					<stop  offset="0.8858" style="stop-color:#5A3F14"/>
				</linearGradient>
				<path display="inline" fill="url(#SVGID_39_)" d="M132,411.4c1.9-0.3,3.5-0.5,4.6-0.7c0.3,0,0.7-0.1,1.2-0.2
					c0.9-0.2,2.2-0.4,3.8-0.7l0.5,0.5l-1.7,0.3c0,0,0,0-0.1,0c-0.7,0.1-1,0.3-1,0.5c0,0.2,0.8,1.2,2.4,2.9l4.4,4.6
					c1.5,1.6,2.4,2.4,2.8,2.6c0.4,0.2,1.1,0.3,2.1,0.4l0.4,0.5c-2.2,0.3-3.8,0.5-4.9,0.7l-7.5,1.3c-1.7,0.3-3,0.4-4,0.5
					c-1-0.9-2.2-1.9-3.4-2.9l1.1-0.2l2.8,1.8c0.9,0,1.8-0.1,2.7-0.2c1.2-0.1,2.8-0.4,4.8-0.7c0.4-0.1,0.7-0.1,1.1-0.2
					c0.6-0.1,1.3-0.2,2-0.4l-0.5-0.5l-2.2-2.4l-5.1-5.4c-1.2-1.3-1.9-2-2.2-2.1c-0.3-0.2-0.7-0.2-1.3-0.1l-2,0.3L132,411.4
					L132,411.4z"/>
				
					<linearGradient id="SVGID_40_" gradientUnits="userSpaceOnUse" x1="549.3397" y1="505.0051" x2="546.619" y2="386.6538" gradientTransform="matrix(-1 0 0 1 664.2816 0)">
					<stop  offset="0" style="stop-color:#F6DA4A"/>
					<stop  offset="0.2185" style="stop-color:#DFA720"/>
					<stop  offset="0.3572" style="stop-color:#FDD251"/>
					<stop  offset="0.512" style="stop-color:#FAE950"/>
					<stop  offset="0.6248" style="stop-color:#E5B632"/>
					<stop  offset="0.7344" style="stop-color:#C49929"/>
					<stop  offset="0.7915" style="stop-color:#9E7D20"/>
					<stop  offset="0.8858" style="stop-color:#5A3F14"/>
				</linearGradient>
				<path display="inline" fill="url(#SVGID_40_)" d="M122.6,426c-0.1,0-0.2,0-0.3,0.1c-3,0.5-5.7,0.5-8.1-0.1
					c-2.9-0.7-5.3-1.9-7-3.8c-1.5-1.6-1.9-3-1-4.2c0.8-1.1,2.8-1.9,5.8-2.4c0.1,0,0.2,0,0.3,0c1.1-0.2,2.5-0.3,4.2-0.5
					c0.6,0.5,1.3,1.1,1.9,1.8l5.2,5.5c1,1,1.8,2,2.5,2.9C124.7,425.6,123.6,425.9,122.6,426L122.6,426z M109.7,415.1
					c-1.2,0.2-2.4,0.5-3.5,0.8c-1.3,0.4-2.4,0.9-3.1,1.6c-0.8,0.7-1.1,1.4-1.1,2.2c0,0.8,0.5,1.7,1.4,2.6c1.8,1.9,4.5,3.3,8.1,4.1
					c3.6,0.8,7.4,1,11.3,0.3l1.9-0.3c1.9-0.4,3.1-0.6,3.6-0.7c0.9-0.1,2-0.3,3.4-0.4l-0.4-0.4l-1.9-0.2c-1-0.8-2.5-2.4-4.6-4.5
					l-2.3-2.5c-0.9-1-1.7-1.9-2.2-2.6c-0.3-0.4-0.4-0.7-0.4-0.8c0.1-0.1,0.4-0.2,1.1-0.4l1.2-0.3l-0.5-0.5c-1.3,0.2-2.2,0.4-2.9,0.5
					c-0.2,0-0.4,0.1-0.6,0.1l-4.3,0.7l-3.5,0.5C110.1,415,109.9,415.1,109.7,415.1L109.7,415.1z"/>
			</g>
			<g display="none">
				
					<linearGradient id="SVGID_41_" gradientUnits="userSpaceOnUse" x1="464.5735" y1="410.418" x2="493.5791" y2="410.418" gradientTransform="matrix(-1 0 0 1 664.2816 0)">
					<stop  offset="0" style="stop-color:#F6DA4A"/>
					<stop  offset="0.2185" style="stop-color:#EDD922"/>
					<stop  offset="0.3572" style="stop-color:#FDD251"/>
					<stop  offset="0.7112" style="stop-color:#FAE950"/>
					<stop  offset="0.994" style="stop-color:#E5B632"/>
				</linearGradient>
				<path display="inline" fill="url(#SVGID_41_)" d="M178.2,404.3c0.2,0,0.3-0.1,0.5-0.1c3-0.5,5.7-0.6,8.2-0.4
					c2.5,0.2,4.7,0.7,6.7,1.5s3.6,1.8,4.7,3c1.1,1.2,1.6,2.3,1.4,3.4c-0.2,1.1-0.9,2.1-2.3,2.9c-1.4,0.8-3.2,1.4-5.6,1.8
					c-0.1,0-0.2,0-0.3,0c-1.6,0.3-3.4,0.5-5.4,0.6c-2,0.1-3.8,0.1-5.5,0.1c-0.4-0.7-0.9-1.3-1.4-1.8c-0.5-0.5-1-1-1.6-1.4l-1.5-0.2
					l-0.4-0.4c0.8-0.1,1.7-0.2,2.7-0.4c0.3,0,0.5-0.1,0.9-0.1c1.1-0.2,2.6-0.5,4.5-0.8l0.5,0.5l-1.8,0.4c-1,0.2-1.5,0.3-1.6,0.4
					c-0.1,0-0.1,0.1,0,0.2c0.1,0.1,0.4,0.5,1.1,1.2c0.5,0.5,1,1,1.5,1.5c2.4,0.1,4.4,0,6.2-0.3c0.1,0,0.2,0,0.2,0
					c3.2-0.6,5.1-1.6,5.9-3.1c0.6-1.3,0.2-2.7-1.2-4.3c-1.5-1.6-3.6-2.7-6.3-3.4c-2.5-0.6-5.3-0.7-8.5-0.2c-0.1,0-0.2,0-0.3,0.1
					c-1.6,0.3-3,0.7-4,1.1c-1.1,0.5-1.7,0.9-1.9,1.1c-0.1,0.1,0.1,0.5,0.7,1l0.5,0.6l-1,0.2c-1.2-1-2.2-1.8-3-2.4l1.2-0.4
					c1.4-0.5,2.6-0.9,3.6-1.2C176.3,404.7,177.2,404.5,178.2,404.3L178.2,404.3z"/>
				
					<linearGradient id="SVGID_42_" gradientUnits="userSpaceOnUse" x1="489.7845" y1="414.273" x2="517.4693" y2="414.273" gradientTransform="matrix(-1 0 0 1 664.2816 0)">
					<stop  offset="0" style="stop-color:#F6DA4A"/>
					<stop  offset="0.2185" style="stop-color:#EDD922"/>
					<stop  offset="0.3572" style="stop-color:#FDD251"/>
					<stop  offset="0.7112" style="stop-color:#FAE950"/>
					<stop  offset="0.994" style="stop-color:#E5B632"/>
				</linearGradient>
				<path display="inline" fill="url(#SVGID_42_)" d="M165.7,419.8c-0.1,0-0.1,0-0.2,0c-1.7,0.3-3.3,0.3-4.9,0.1
					c-1.6-0.2-3.1-0.6-4.6-1.3c-1.5-0.7-2.7-1.6-3.8-2.7c-1.1-1.2-1.7-2.3-1.7-3.3c0-1,0.5-1.8,1.4-2.4c0.9-0.6,2.3-1.1,4-1.4
					c0.1,0,0.1,0,0.2,0c1.7-0.3,3.3-0.3,4.9-0.2c1.6,0.2,3.1,0.6,4.5,1.2c1.4,0.6,2.5,1.4,3.4,2.4c1.2,1.3,1.8,2.5,1.9,3.5
					c0.1,1.1-0.4,2-1.3,2.7C168.6,419,167.3,419.5,165.7,419.8L165.7,419.8z M154.3,408.3c-3.5,0.6-5.8,1.6-6.8,2.9
					c-1.1,1.4-0.8,3,0.8,4.7c1.8,1.9,4.5,3.3,8.1,4.1c3.6,0.9,7.3,1,11,0.4c0.1,0,0.2,0,0.2,0c2.2-0.4,3.9-0.9,5-1.7
					c1.2-0.8,1.8-1.7,1.9-2.8c0.1-1.1-0.5-2.3-1.6-3.5c-1.7-1.9-4.3-3.2-7.6-3.9c-3.3-0.8-6.9-0.8-10.6-0.2
					C154.5,408.2,154.4,408.2,154.3,408.3L154.3,408.3z"/>
				
					<linearGradient id="SVGID_43_" gradientUnits="userSpaceOnUse" x1="513.05" y1="417.9767" x2="532.921" y2="417.9767" gradientTransform="matrix(-1 0 0 1 664.2816 0)">
					<stop  offset="0" style="stop-color:#F6DA4A"/>
					<stop  offset="0.2185" style="stop-color:#EDD922"/>
					<stop  offset="0.3572" style="stop-color:#FDD251"/>
					<stop  offset="0.7112" style="stop-color:#FAE950"/>
					<stop  offset="0.994" style="stop-color:#E5B632"/>
				</linearGradient>
				<path display="inline" fill="url(#SVGID_43_)" d="M131.9,412.1c1.9-0.3,3.5-0.5,4.6-0.7c0.3,0,0.7-0.1,1.2-0.2
					c0.9-0.2,2.2-0.4,3.8-0.7l0.5,0.5l-1.7,0.3c0,0,0,0-0.1,0c-0.7,0.1-1,0.3-1,0.5c0,0.2,0.8,1.2,2.4,2.9l4.4,4.6
					c1.5,1.6,2.4,2.4,2.7,2.6c0.4,0.2,1.1,0.3,2.1,0.4l0.4,0.4c-2.2,0.3-3.8,0.5-4.9,0.7l-7.5,1.3c-1.7,0.3-3,0.4-4,0.5
					c-1-0.9-2.2-1.9-3.4-2.9l1.1-0.2l2.8,1.8c0.9,0,1.8-0.1,2.7-0.2c1.2-0.1,2.8-0.4,4.8-0.7c0.4-0.1,0.7-0.1,1.1-0.2
					c0.6-0.1,1.3-0.2,2-0.4l-0.5-0.5l-2.2-2.4l-5-5.4c-1.2-1.3-1.9-2-2.3-2.1c-0.3-0.1-0.7-0.2-1.3-0.1l-2,0.3L131.9,412.1
					L131.9,412.1z"/>
				
					<linearGradient id="SVGID_44_" gradientUnits="userSpaceOnUse" x1="532.732" y1="420.8813" x2="562.3835" y2="420.8813" gradientTransform="matrix(-1 0 0 1 664.2816 0)">
					<stop  offset="0" style="stop-color:#F6DA4A"/>
					<stop  offset="0.2185" style="stop-color:#EDD922"/>
					<stop  offset="0.3572" style="stop-color:#FDD251"/>
					<stop  offset="0.7112" style="stop-color:#FAE950"/>
					<stop  offset="0.994" style="stop-color:#E5B632"/>
				</linearGradient>
				<path display="inline" fill="url(#SVGID_44_)" d="M122.4,426.7c-0.1,0-0.2,0-0.3,0.1c-3,0.5-5.7,0.5-8.1-0.1
					c-2.9-0.7-5.3-1.9-7-3.8c-1.5-1.6-1.9-3-1-4.2c0.8-1.1,2.8-1.9,5.8-2.4c0.1,0,0.2,0,0.3,0c1.1-0.2,2.5-0.3,4.1-0.5
					c0.6,0.5,1.3,1.1,1.9,1.8l5.2,5.5c1,1,1.8,2,2.5,2.9C124.6,426.3,123.5,426.5,122.4,426.7L122.4,426.7z M109.6,415.8
					c-1.2,0.2-2.4,0.5-3.5,0.8c-1.3,0.4-2.4,0.9-3.1,1.6c-0.8,0.7-1.1,1.4-1.1,2.2c0,0.8,0.5,1.7,1.4,2.6c1.8,1.9,4.5,3.3,8.1,4.1
					c3.6,0.8,7.4,1,11.3,0.3l1.9-0.3c1.9-0.4,3.1-0.6,3.6-0.7c0.9-0.1,2-0.3,3.4-0.4l-0.4-0.4l-1.9-0.2c-1-0.8-2.5-2.4-4.6-4.5
					l-2.3-2.5c-0.9-1-1.7-1.9-2.2-2.6c-0.3-0.4-0.5-0.7-0.4-0.8c0.1-0.1,0.4-0.2,1.1-0.4l1.2-0.3l-0.5-0.5c-1.3,0.2-2.2,0.4-2.9,0.5
					c-0.2,0-0.4,0.1-0.6,0.1l-4.3,0.7l-3.5,0.5C110,415.7,109.8,415.7,109.6,415.8L109.6,415.8z"/>
			</g>
		</g>
		<g>
			<g>
				<g>
					
						<linearGradient id="SVGID_45_" gradientUnits="userSpaceOnUse" x1="367.3071" y1="473.4899" x2="517.5754" y2="300.3528" gradientTransform="matrix(-1 0 0 1 664.2816 0)">
						<stop  offset="0" style="stop-color:#F6DA4A"/>
						<stop  offset="0.2185" style="stop-color:#DFA720"/>
						<stop  offset="0.5777" style="stop-color:#C49929"/>
						<stop  offset="0.7862" style="stop-color:#A37A04"/>
						<stop  offset="1" style="stop-color:#8B4D10"/>
					</linearGradient>
					<path fill="url(#SVGID_45_)" d="M231.9,336.8c-1.3-0.2-97.2-48.1-98.6-48c-1.4,0-3.6,2.2-4.9,4.3c-0.8,1.2-1.6,2-2.4,5.5
						c0,0-12.3,63-12.4,64.3c-0.1,1.3,0.4,2.6,1.5,3.8L256,515.5c0.8,0.8,1.7,1.6,2.8,2.2c1.1,0.7,2.3,1.3,3.7,1.8
						c1.4,0.5,2.9,1,4.4,1.4c1.6,0.4,3.3,0.7,5,0.9c1.5,0.2,3,0.3,4.5,0.4c1.5,0.1,3.1,0.1,4.7,0c1.6-0.1,3.1-0.2,4.7-0.4
						c1.6-0.2,3.1-0.5,4.6-0.8l93.2-20.6c3.2-0.7,6-1.7,8.2-2.8c2.2-1.1,3.9-2.5,5-3.9c1.1-1.4,1.6-2.9,1.5-4.4
						c-0.1-1.5-0.9-3-2.4-4.5l-149.8-143L231.9,336.8L231.9,336.8z"/>
				</g>
				<g>
					
						<linearGradient id="SVGID_46_" gradientUnits="userSpaceOnUse" x1="464.1946" y1="382.4959" x2="445.5132" y2="365.6519" gradientTransform="matrix(-1 0 0 1 664.2816 0)">
						<stop  offset="0" style="stop-color:#584117"/>
						<stop  offset="0.2523" style="stop-color:#FFF2B0"/>
						<stop  offset="0.411" style="stop-color:#FBE06D"/>
						<stop  offset="0.5345" style="stop-color:#C49929"/>
						<stop  offset="0.9343" style="stop-color:#9E7D20"/>
						<stop  offset="1" style="stop-color:#5A3F14"/>
					</linearGradient>
					<path fill="url(#SVGID_46_)" d="M130.9,303c-2.3-2-3.7-4-4.4-6.1c0.7-2.2,1.4-2.9,2-3.9c1.3-2,3.5-4.2,4.9-4.3
						c1.4,0,97.3,47.9,98.6,48l14.1,5.1L329,421l-40,11.4c0,0-20.2,13.2-22.2,13.2L130.9,303z"/>
				</g>
				
					<linearGradient id="SVGID_47_" gradientUnits="userSpaceOnUse" x1="405.6492" y1="461.8261" x2="387.4264" y2="463.6637" gradientTransform="matrix(-1 0 0 1 664.2816 0)">
					<stop  offset="0" style="stop-color:#EFCE41"/>
					<stop  offset="0.2191" style="stop-color:#E2BC4D"/>
					<stop  offset="0.409" style="stop-color:#EBC860"/>
					<stop  offset="0.5531" style="stop-color:#F9E991"/>
					<stop  offset="0.7145" style="stop-color:#F3DD87"/>
					<stop  offset="1" style="stop-color:#D8C000"/>
				</linearGradient>
				<path fill="url(#SVGID_47_)" d="M263.8,436.1c3.3,3.9,3.3,7.9,2.2,14.3l-8.6,66.4c0.8,0.8,0.2,0.2,1.3,0.9
					c1.1,0.7,2.1,1.3,3.4,2.1c1.3,0.7,2.8,1.3,4.3,1.9c1.5,0.6,3.1,0.9,5,1.3c1.4,0.3,3.5,0,5.1,0.1c1.5,0.1,12.4-1.7,13.9-2
					l93.2-20.6c3.2-0.7,6-1.7,8.2-2.8c2.2-1.1,3.9-2.5,5-3.9c1.1-1.4,1.6-2.9,1.5-4.4c-0.1-1.5-0.5-3.1-0.9-4.9l-12.6-63
					c-0.5-1.8-1.1-4.8-3.4-7.2L263.8,436.1z"/>
				<g>
					<g>
						
							<linearGradient id="SVGID_48_" gradientUnits="userSpaceOnUse" x1="265.9283" y1="467.2474" x2="391.5937" y2="467.2474" gradientTransform="matrix(-1 0 0 1 664.2816 0)">
							<stop  offset="0" style="stop-color:#EFCE41"/>
							<stop  offset="0.2191" style="stop-color:#E2BC4D"/>
							<stop  offset="0.409" style="stop-color:#EBC860"/>
							<stop  offset="0.5531" style="stop-color:#F9E991"/>
							<stop  offset="0.7145" style="stop-color:#F3DD87"/>
							<stop  offset="1" style="stop-color:#D8C000"/>
						</linearGradient>
						<path fill="url(#SVGID_48_)" d="M272.7,523.1c6.3,0.3,16.3-1.6,17.8-1.9l93.2-20.7c3.2-0.7,6-1.7,8.2-2.8
							c2.2-1.1,3.9-2.5,5-3.9c1.1-1.4,1.6-2.9,1.5-4.4c-0.1-1.5-0.5-3.1-0.9-4.9l-12.5-63c-0.5-1.8-1.9-7.4-4.1-10.1l-91.2,30.2
							c-7.8,0.4-14,1.5-14.5,7.5L272.7,523.1z"/>
					</g>
				</g>
				<g>
					<g>
						
							<linearGradient id="SVGID_49_" gradientUnits="userSpaceOnUse" x1="272.7472" y1="452.1223" x2="390.9776" y2="475.8099" gradientTransform="matrix(-1 0 0 1 664.2816 0)">
							<stop  offset="0" style="stop-color:#F3E184"/>
							<stop  offset="2.656040e-002" style="stop-color:#FFFADF"/>
							<stop  offset="4.714480e-002" style="stop-color:#E9CA5F"/>
							<stop  offset="0.2191" style="stop-color:#E2BC4D"/>
							<stop  offset="0.409" style="stop-color:#EBC860"/>
							<stop  offset="0.5531" style="stop-color:#F9E991"/>
							<stop  offset="0.7145" style="stop-color:#F3DD87"/>
							<stop  offset="1" style="stop-color:#D8C000"/>
						</linearGradient>
						<path fill="url(#SVGID_49_)" d="M374.5,421.4l-7.7-5.4l14-4.6c2.2,2.7,3.6,8.3,4.1,10.1l12.5,63c0.4,1.8,0.8,3.4,0.9,4.9
							c0.1,1.5-0.4,3-1.5,4.4c-0.1,0.1-0.1,0.1-0.2,0.2c-2.4-12.4-13-66.5-14.4-70.1C380.6,419.8,374.5,421.4,374.5,421.4z"/>
					</g>
					
						<linearGradient id="SVGID_50_" gradientUnits="userSpaceOnUse" x1="270.3389" y1="442.4587" x2="569.2792" y2="260.5858" gradientTransform="matrix(-1 0 0 1 664.2816 0)">
						<stop  offset="0" style="stop-color:#FFFF89"/>
						<stop  offset="0.2185" style="stop-color:#FFD962"/>
						<stop  offset="0.2835" style="stop-color:#FFEC99"/>
						<stop  offset="0.3572" style="stop-color:#FFF17A"/>
						<stop  offset="0.512" style="stop-color:#FAE950"/>
						<stop  offset="0.6248" style="stop-color:#E5B632"/>
						<stop  offset="0.6746" style="stop-color:#E6C020"/>
						<stop  offset="0.7344" style="stop-color:#C49929"/>
						<stop  offset="0.7915" style="stop-color:#D4AA34"/>
						<stop  offset="0.8858" style="stop-color:#8A4C0F"/>
					</linearGradient>
					<path fill="url(#SVGID_50_)" d="M227.2,271.4c1.4,0.2,2.8,0.4,4.2,0.7c1.3,0.3,2.6,0.7,3.7,1.1c1.2,0.4,2.2,0.9,3.2,1.5
						c0.9,0.5,1.8,1.1,2.4,1.8L379.6,410c1.4,1.3,2.2,2.7,2.4,4.1c0.2,1.4-0.1,2.7-0.9,4c-0.8,1.3-2.2,2.4-4,3.4
						c-1.8,1-4.1,1.8-6.8,2.4l-77.7,17c-1.2,0.3-2.4,0.5-3.6,0.6c-1.2,0.1-2.4,0.2-3.6,0.3c-1.2,0-2.4,0-3.7,0
						c-1.2-0.1-2.4-0.2-3.6-0.3c-1.6-0.2-3.2-0.5-4.7-0.9c-1.5-0.4-2.9-0.8-4.2-1.4c-1.3-0.5-2.5-1.1-3.6-1.8
						c-1.1-0.7-2-1.4-2.7-2.2l-131.8-138c-1.1-1.2-1.6-2.4-1.6-3.5c0-1.2,0.5-2.3,1.5-3.4c1-1.1,2.4-2.1,4.2-2.9
						c1.8-0.8,4.1-1.5,6.6-2l72.4-13.6c1.1-0.2,2.1-0.4,3.2-0.5c1.1-0.1,2.2-0.2,3.3-0.2c1.1,0,2.2,0,3.3,0
						C225.1,271.2,226.1,271.3,227.2,271.4L227.2,271.4z"/>
				</g>
				<g>
					
						<linearGradient id="SVGID_51_" gradientUnits="userSpaceOnUse" x1="541.4021" y1="282.5324" x2="387.0487" y2="446.3798" gradientTransform="matrix(-1 0 0 1 664.2816 0)">
						<stop  offset="0" style="stop-color:#A5851C"/>
						<stop  offset="0.2185" style="stop-color:#F0D136"/>
						<stop  offset="0.3572" style="stop-color:#FDCF46"/>
						<stop  offset="0.512" style="stop-color:#FAD550"/>
						<stop  offset="0.6972" style="stop-color:#F4C537"/>
						<stop  offset="0.8977" style="stop-color:#E3B91F"/>
						<stop  offset="0.996" style="stop-color:#DDAC0B"/>
					</linearGradient>
					<path fill="url(#SVGID_51_)" d="M261.8,430.8c5.2,5.1,11.3,8.5,16.5,10.8c-0.1,0-0.1,0-0.2,0c-1.6-0.2-3.2-0.5-4.7-0.9
						c-1.5-0.4-2.9-0.8-4.2-1.4c-1.3-0.5-2.5-1.1-3.6-1.8c-1.1-0.7-2-1.4-2.7-2.2l-131.8-138c-1.1-1.2-1.6-2.4-1.6-3.5
						c0-0.6,0.1-1.2,0.4-1.8C153.3,318,251.1,420.4,261.8,430.8z"/>
				</g>
				<g>
					
						<linearGradient id="SVGID_52_" gradientUnits="userSpaceOnUse" x1="345.8625" y1="441.7353" x2="382.6131" y2="221.1554" gradientTransform="matrix(-1 0 0 1 664.2816 0)">
						<stop  offset="0" style="stop-color:#FFF89C"/>
						<stop  offset="0.3572" style="stop-color:#FDCF46"/>
						<stop  offset="0.5246" style="stop-color:#E7BC26"/>
						<stop  offset="0.7344" style="stop-color:#C49929"/>
						<stop  offset="0.7915" style="stop-color:#9E7D20"/>
						<stop  offset="0.8858" style="stop-color:#5A3F14"/>
					</linearGradient>
					<path fill="url(#SVGID_52_)" d="M378,412c-7.4-7.4-140.1-136.4-140.1-136.4s-4.6-3.3-16.1-4.5c0.7,0,1.4,0,2.2,0
						c1.1,0.1,2.2,0.1,3.2,0.3c1.4,0.2,2.8,0.4,4.2,0.7c1.3,0.3,2.6,0.7,3.7,1.1c1.2,0.4,2.2,0.9,3.2,1.5c0.9,0.5,1.8,1.1,2.4,1.8
						L379.6,410c1.4,1.3,2.2,2.7,2.4,4.1c0.2,1.4-0.1,2.7-0.9,4c-0.8,1.3-2.2,2.4-4,3.4c-1.2,0.7-2.6,1.2-4.1,1.7
						C377.6,420.4,382.2,416.2,378,412z"/>
				</g>
			</g>
			<g display="none">
				
					<linearGradient id="SVGID_53_" gradientUnits="userSpaceOnUse" x1="416.031" y1="411.0613" x2="413.3102" y2="292.703" gradientTransform="matrix(-1 0 0 1 664.2816 0)">
					<stop  offset="0" style="stop-color:#F6DA4A"/>
					<stop  offset="0.2185" style="stop-color:#DFA720"/>
					<stop  offset="0.3572" style="stop-color:#FDD251"/>
					<stop  offset="0.512" style="stop-color:#FAE950"/>
					<stop  offset="0.6248" style="stop-color:#E5B632"/>
					<stop  offset="0.7344" style="stop-color:#C49929"/>
					<stop  offset="0.7915" style="stop-color:#9E7D20"/>
					<stop  offset="0.8858" style="stop-color:#5A3F14"/>
				</linearGradient>
				<path display="inline" fill="url(#SVGID_53_)" d="M243.5,308.1c0.2,0,0.3-0.1,0.5-0.1c3-0.5,5.7-0.6,8.2-0.4
					c2.4,0.2,4.7,0.7,6.7,1.5c2,0.8,3.6,1.8,4.7,3c1.1,1.2,1.6,2.3,1.4,3.4c-0.2,1.1-0.9,2.1-2.4,2.9c-1.4,0.8-3.2,1.4-5.6,1.8
					c-0.1,0-0.2,0-0.3,0c-1.6,0.3-3.4,0.5-5.4,0.6c-2,0.1-3.8,0.1-5.5,0.1c-0.4-0.7-0.9-1.3-1.4-1.8c-0.5-0.5-1-1-1.6-1.4l-1.5-0.2
					l-0.4-0.4c0.8-0.1,1.7-0.2,2.7-0.4c0.3,0,0.5-0.1,0.9-0.1c1.1-0.2,2.6-0.5,4.5-0.8l0.5,0.5l-1.8,0.4c-1,0.2-1.5,0.3-1.6,0.4
					c-0.1,0-0.1,0.1,0,0.2c0.1,0.1,0.4,0.5,1.1,1.2c0.5,0.5,1,1,1.5,1.5c2.4,0.1,4.4,0,6.2-0.3c0.1,0,0.2,0,0.2,0
					c3.2-0.6,5.1-1.6,5.8-3.1c0.6-1.3,0.3-2.7-1.2-4.3c-1.5-1.6-3.6-2.7-6.3-3.4c-2.5-0.6-5.3-0.7-8.4-0.2c-0.1,0-0.2,0-0.3,0.1
					c-1.6,0.3-3,0.7-4,1.1c-1.1,0.5-1.7,0.9-1.9,1.1c-0.1,0.1,0.1,0.5,0.7,1l0.5,0.6l-1,0.2c-1.2-1-2.2-1.8-3-2.4l1.2-0.4
					c1.4-0.5,2.6-0.9,3.6-1.2C241.6,308.5,242.5,308.3,243.5,308.1L243.5,308.1z"/>
				
					<linearGradient id="SVGID_54_" gradientUnits="userSpaceOnUse" x1="440.4488" y1="410.5004" x2="437.7279" y2="292.1416" gradientTransform="matrix(-1 0 0 1 664.2816 0)">
					<stop  offset="0" style="stop-color:#F6DA4A"/>
					<stop  offset="0.2185" style="stop-color:#DFA720"/>
					<stop  offset="0.3572" style="stop-color:#FDD251"/>
					<stop  offset="0.512" style="stop-color:#FAE950"/>
					<stop  offset="0.6248" style="stop-color:#E5B632"/>
					<stop  offset="0.7344" style="stop-color:#C49929"/>
					<stop  offset="0.7915" style="stop-color:#9E7D20"/>
					<stop  offset="0.8858" style="stop-color:#5A3F14"/>
				</linearGradient>
				<path display="inline" fill="url(#SVGID_54_)" d="M231,323.6c-0.1,0-0.1,0-0.2,0c-1.7,0.3-3.3,0.3-4.9,0.1
					c-1.6-0.2-3.1-0.6-4.6-1.3c-1.5-0.7-2.7-1.6-3.8-2.7c-1.1-1.2-1.7-2.3-1.7-3.3c0-1,0.5-1.8,1.4-2.4c0.9-0.6,2.3-1.1,4-1.4
					c0.1,0,0.1,0,0.2,0c1.7-0.3,3.3-0.3,4.9-0.2c1.6,0.2,3.1,0.6,4.5,1.2c1.4,0.6,2.5,1.4,3.4,2.4c1.2,1.3,1.8,2.5,1.9,3.5
					c0.1,1.1-0.4,2-1.3,2.7C233.9,322.9,232.6,323.3,231,323.6L231,323.6z M219.6,312.1c-3.5,0.6-5.8,1.6-6.8,2.9
					c-1.1,1.4-0.8,3,0.8,4.7c1.8,1.9,4.5,3.3,8.1,4.1c3.6,0.9,7.3,1,11,0.4c0.1,0,0.2,0,0.2,0c2.2-0.4,3.9-0.9,5-1.7
					c1.2-0.8,1.8-1.7,1.9-2.8c0.1-1.1-0.5-2.3-1.6-3.5c-1.7-1.9-4.3-3.2-7.6-3.9c-3.3-0.8-6.9-0.8-10.6-0.2
					C219.9,312,219.7,312,219.6,312.1L219.6,312.1z"/>
				
					<linearGradient id="SVGID_55_" gradientUnits="userSpaceOnUse" x1="459.5994" y1="410.0551" x2="456.8788" y2="291.7056" gradientTransform="matrix(-1 0 0 1 664.2816 0)">
					<stop  offset="0" style="stop-color:#F6DA4A"/>
					<stop  offset="0.2185" style="stop-color:#DFA720"/>
					<stop  offset="0.3572" style="stop-color:#FDD251"/>
					<stop  offset="0.512" style="stop-color:#FAE950"/>
					<stop  offset="0.6248" style="stop-color:#E5B632"/>
					<stop  offset="0.7344" style="stop-color:#C49929"/>
					<stop  offset="0.7915" style="stop-color:#9E7D20"/>
					<stop  offset="0.8858" style="stop-color:#5A3F14"/>
				</linearGradient>
				<path display="inline" fill="url(#SVGID_55_)" d="M197.2,315.9c1.9-0.3,3.5-0.5,4.6-0.7c0.3,0,0.7-0.1,1.2-0.2
					c0.9-0.2,2.2-0.4,3.8-0.7l0.5,0.5l-1.7,0.3c0,0,0,0-0.1,0c-0.7,0.1-1,0.3-1,0.5c0,0.2,0.8,1.2,2.4,2.9l4.4,4.6
					c1.5,1.6,2.4,2.4,2.8,2.6c0.4,0.2,1.1,0.3,2.1,0.4l0.4,0.5c-2.2,0.3-3.8,0.5-4.9,0.7l-7.5,1.3c-1.7,0.3-3,0.4-4,0.5
					c-1-0.9-2.2-1.9-3.4-2.9l1-0.2l2.8,1.8c0.9,0,1.8-0.1,2.7-0.2c1.2-0.1,2.8-0.4,4.8-0.7c0.4-0.1,0.7-0.1,1.1-0.2
					c0.6-0.1,1.3-0.2,2-0.4l-0.5-0.5l-2.2-2.4l-5.1-5.4c-1.2-1.3-1.9-2-2.2-2.1c-0.3-0.1-0.7-0.2-1.3-0.1l-2,0.3L197.2,315.9
					L197.2,315.9z"/>
				
					<linearGradient id="SVGID_56_" gradientUnits="userSpaceOnUse" x1="484.15" y1="409.5009" x2="481.4289" y2="291.1354" gradientTransform="matrix(-1 0 0 1 664.2816 0)">
					<stop  offset="0" style="stop-color:#F6DA4A"/>
					<stop  offset="0.2185" style="stop-color:#DFA720"/>
					<stop  offset="0.3572" style="stop-color:#FDD251"/>
					<stop  offset="0.512" style="stop-color:#FAE950"/>
					<stop  offset="0.6248" style="stop-color:#E5B632"/>
					<stop  offset="0.7344" style="stop-color:#C49929"/>
					<stop  offset="0.7915" style="stop-color:#9E7D20"/>
					<stop  offset="0.8858" style="stop-color:#5A3F14"/>
				</linearGradient>
				<path display="inline" fill="url(#SVGID_56_)" d="M187.8,330.5c-0.1,0-0.2,0-0.3,0.1c-3,0.5-5.7,0.5-8.1-0.1
					c-2.9-0.7-5.3-1.9-7-3.8c-1.5-1.6-1.9-3-1-4.2c0.8-1.1,2.8-1.9,5.8-2.4c0.1,0,0.2,0,0.3,0c1.1-0.2,2.5-0.3,4.2-0.5
					c0.6,0.5,1.3,1.1,1.9,1.8l5.2,5.5c1,1,1.8,2,2.5,2.9C189.9,330.1,188.8,330.4,187.8,330.5L187.8,330.5z M174.9,319.6
					c-1.2,0.2-2.4,0.5-3.5,0.8c-1.3,0.4-2.4,0.9-3.1,1.6c-0.8,0.7-1.1,1.4-1.1,2.2c0,0.8,0.5,1.7,1.4,2.6c1.8,1.9,4.5,3.3,8.1,4.1
					c3.6,0.8,7.4,0.9,11.3,0.3l1.9-0.3c1.9-0.4,3.1-0.6,3.6-0.7c0.9-0.1,2-0.3,3.4-0.4l-0.4-0.4l-1.9-0.2c-1-0.8-2.5-2.4-4.6-4.5
					l-2.3-2.5c-0.9-1-1.7-1.9-2.2-2.6c-0.3-0.4-0.4-0.7-0.4-0.8c0-0.1,0.4-0.2,1.1-0.4l1.2-0.3l-0.5-0.5c-1.3,0.2-2.2,0.4-2.9,0.5
					c-0.2,0-0.4,0.1-0.6,0.1l-4.3,0.7l-3.5,0.5C175.3,319.5,175.1,319.5,174.9,319.6L174.9,319.6z"/>
			</g>
			<g display="none">
				
					<linearGradient id="SVGID_57_" gradientUnits="userSpaceOnUse" x1="399.3836" y1="314.9052" x2="428.387" y2="314.9052" gradientTransform="matrix(-1 0 0 1 664.2816 0)">
					<stop  offset="0" style="stop-color:#F6DA4A"/>
					<stop  offset="0.2185" style="stop-color:#EDD922"/>
					<stop  offset="0.3572" style="stop-color:#FDD251"/>
					<stop  offset="0.7112" style="stop-color:#FAE950"/>
					<stop  offset="0.994" style="stop-color:#E5B632"/>
				</linearGradient>
				<path display="inline" fill="url(#SVGID_57_)" d="M243.4,308.8c0.2,0,0.3-0.1,0.5-0.1c3-0.5,5.7-0.6,8.2-0.4
					c2.5,0.2,4.7,0.7,6.7,1.5c2,0.8,3.6,1.8,4.7,3c1.1,1.2,1.6,2.3,1.4,3.4c-0.2,1.1-0.9,2.1-2.3,2.9c-1.4,0.8-3.2,1.4-5.6,1.8
					c-0.1,0-0.2,0-0.3,0c-1.6,0.3-3.4,0.5-5.4,0.6c-2,0.1-3.8,0.1-5.5,0.1c-0.4-0.7-0.9-1.3-1.4-1.8c-0.5-0.5-1-1-1.6-1.4l-1.5-0.2
					l-0.4-0.4c0.8-0.1,1.7-0.2,2.7-0.4c0.3,0,0.5-0.1,0.9-0.1c1.1-0.2,2.6-0.5,4.5-0.8l0.5,0.5l-1.8,0.4c-1,0.2-1.5,0.3-1.6,0.4
					c-0.1,0-0.1,0.1,0,0.2c0.1,0.1,0.4,0.5,1.1,1.2c0.5,0.5,1,1,1.5,1.5c2.4,0.1,4.4,0,6.2-0.3c0.1,0,0.2,0,0.2,0
					c3.2-0.6,5.1-1.6,5.9-3.1c0.6-1.3,0.2-2.7-1.2-4.3c-1.5-1.6-3.6-2.7-6.3-3.4c-2.5-0.6-5.3-0.7-8.4-0.2c-0.1,0-0.2,0-0.3,0.1
					c-1.6,0.3-3,0.7-4,1.1c-1.1,0.5-1.8,0.9-1.9,1.1c-0.1,0.1,0.1,0.5,0.7,1l0.5,0.6l-1,0.2c-1.2-1-2.2-1.8-3-2.4l1.2-0.4
					c1.4-0.5,2.6-0.9,3.6-1.2C241.4,309.2,242.4,309,243.4,308.8L243.4,308.8z"/>
				
					<linearGradient id="SVGID_58_" gradientUnits="userSpaceOnUse" x1="424.5962" y1="318.7588" x2="452.2806" y2="318.7588" gradientTransform="matrix(-1 0 0 1 664.2816 0)">
					<stop  offset="0" style="stop-color:#F6DA4A"/>
					<stop  offset="0.2185" style="stop-color:#EDD922"/>
					<stop  offset="0.3572" style="stop-color:#FDD251"/>
					<stop  offset="0.7112" style="stop-color:#FAE950"/>
					<stop  offset="0.994" style="stop-color:#E5B632"/>
				</linearGradient>
				<path display="inline" fill="url(#SVGID_58_)" d="M230.9,324.3c-0.1,0-0.1,0-0.2,0c-1.7,0.3-3.3,0.3-4.9,0.1
					c-1.6-0.2-3.1-0.6-4.6-1.3c-1.5-0.7-2.7-1.6-3.8-2.7c-1.1-1.2-1.7-2.3-1.7-3.3c0-1,0.5-1.8,1.4-2.4c0.9-0.6,2.3-1.1,4-1.4
					c0.1,0,0.1,0,0.2,0c1.7-0.3,3.4-0.3,4.9-0.2c1.6,0.2,3.1,0.6,4.5,1.2c1.4,0.6,2.5,1.4,3.4,2.4c1.2,1.3,1.8,2.5,1.9,3.5
					c0.1,1.1-0.4,2-1.3,2.7C233.8,323.5,232.5,324,230.9,324.3L230.9,324.3z M219.5,312.7c-3.5,0.6-5.8,1.6-6.8,2.9
					c-1.1,1.4-0.8,3,0.8,4.7c1.8,1.9,4.5,3.3,8.1,4.1c3.6,0.9,7.3,1,11,0.4c0.1,0,0.2,0,0.2,0c2.2-0.4,3.9-0.9,5-1.7
					c1.2-0.8,1.8-1.7,1.9-2.8c0.1-1.1-0.5-2.3-1.6-3.5c-1.7-1.9-4.3-3.2-7.6-3.9c-3.3-0.8-6.9-0.8-10.6-0.2
					C219.7,312.7,219.6,312.7,219.5,312.7L219.5,312.7z"/>
				
					<linearGradient id="SVGID_59_" gradientUnits="userSpaceOnUse" x1="447.8597" y1="322.4626" x2="467.7274" y2="322.4626" gradientTransform="matrix(-1 0 0 1 664.2816 0)">
					<stop  offset="0" style="stop-color:#F6DA4A"/>
					<stop  offset="0.2185" style="stop-color:#EDD922"/>
					<stop  offset="0.3572" style="stop-color:#FDD251"/>
					<stop  offset="0.7112" style="stop-color:#FAE950"/>
					<stop  offset="0.994" style="stop-color:#E5B632"/>
				</linearGradient>
				<path display="inline" fill="url(#SVGID_59_)" d="M197.1,316.6c1.9-0.3,3.5-0.5,4.6-0.7c0.3,0,0.7-0.1,1.2-0.2
					c0.9-0.2,2.2-0.4,3.8-0.7l0.5,0.5l-1.7,0.3c0,0,0,0-0.1,0c-0.7,0.1-1,0.3-1,0.5c0,0.2,0.8,1.2,2.4,2.9l4.4,4.6
					c1.5,1.6,2.4,2.4,2.7,2.6c0.4,0.2,1.1,0.3,2.1,0.4l0.4,0.4c-2.2,0.3-3.8,0.5-4.9,0.7l-7.5,1.3c-1.7,0.3-3,0.4-4,0.5
					c-1-0.9-2.2-1.9-3.4-2.9l1-0.2l2.8,1.8c0.9,0,1.8-0.1,2.7-0.2c1.2-0.1,2.8-0.4,4.8-0.7c0.4-0.1,0.7-0.1,1.1-0.2
					c0.6-0.1,1.3-0.2,2-0.4l-0.5-0.5l-2.2-2.4l-5.1-5.4c-1.2-1.3-1.9-2-2.2-2.1c-0.3-0.1-0.7-0.2-1.3-0.1l-2,0.3L197.1,316.6
					L197.1,316.6z"/>
				
					<linearGradient id="SVGID_60_" gradientUnits="userSpaceOnUse" x1="467.5417" y1="325.3686" x2="497.1943" y2="325.3686" gradientTransform="matrix(-1 0 0 1 664.2816 0)">
					<stop  offset="0" style="stop-color:#F6DA4A"/>
					<stop  offset="0.2185" style="stop-color:#EDD922"/>
					<stop  offset="0.3572" style="stop-color:#FDD251"/>
					<stop  offset="0.7112" style="stop-color:#FAE950"/>
					<stop  offset="0.994" style="stop-color:#E5B632"/>
				</linearGradient>
				<path display="inline" fill="url(#SVGID_60_)" d="M187.6,331.2c-0.1,0-0.2,0-0.3,0.1c-3,0.5-5.7,0.5-8.1-0.1
					c-2.9-0.7-5.3-1.9-7-3.8c-1.5-1.7-1.9-3-1-4.2c0.8-1.1,2.8-1.9,5.8-2.4c0.1,0,0.2,0,0.3,0c1.1-0.2,2.5-0.3,4.1-0.5
					c0.6,0.5,1.3,1.1,1.9,1.8l5.2,5.5c1,1,1.8,2,2.5,2.9C189.8,330.8,188.7,331,187.6,331.2L187.6,331.2z M174.8,320.3
					c-1.2,0.2-2.4,0.5-3.5,0.8c-1.3,0.4-2.4,0.9-3.1,1.6c-0.8,0.7-1.1,1.4-1.1,2.2c0,0.8,0.5,1.7,1.4,2.6c1.8,1.9,4.5,3.3,8.1,4.1
					c3.6,0.8,7.4,0.9,11.3,0.3l1.9-0.3c1.9-0.4,3.1-0.6,3.6-0.7c0.9-0.1,2-0.3,3.4-0.4l-0.4-0.4l-1.9-0.2c-1-0.8-2.5-2.4-4.6-4.5
					l-2.3-2.5c-0.9-1-1.7-1.9-2.2-2.6c-0.3-0.4-0.5-0.7-0.4-0.8c0-0.1,0.4-0.2,1.1-0.4l1.2-0.3l-0.5-0.5c-1.3,0.2-2.2,0.4-2.9,0.5
					c-0.2,0-0.5,0.1-0.6,0.1l-4.3,0.7l-3.5,0.5C175.2,320.2,175,320.2,174.8,320.3L174.8,320.3z"/>
			</g>
		</g>
		<g>
			<g>
				<g>
					
						<linearGradient id="SVGID_61_" gradientUnits="userSpaceOnUse" x1="302.7862" y1="377.9378" x2="453.0552" y2="204.7998" gradientTransform="matrix(-1 0 0 1 664.2816 0)">
						<stop  offset="0" style="stop-color:#F6DA4A"/>
						<stop  offset="0.2185" style="stop-color:#DFA720"/>
						<stop  offset="0.5777" style="stop-color:#C49929"/>
						<stop  offset="0.7862" style="stop-color:#A37A04"/>
						<stop  offset="1" style="stop-color:#8B4D10"/>
					</linearGradient>
					<path fill="url(#SVGID_61_)" d="M296.5,241.3c-1.3-0.2-97.2-48.1-98.6-48c-1.4,0-3.6,2.2-4.9,4.3c-0.8,1.2-1.6,2-2.4,5.5
						c0,0-12.3,63-12.4,64.3c-0.1,1.3,0.4,2.6,1.5,3.8l140.8,148.8c0.8,0.8,1.7,1.6,2.8,2.2c1.1,0.7,2.3,1.3,3.7,1.8
						c1.4,0.5,2.9,1,4.4,1.4c1.6,0.4,3.3,0.7,5,0.9c1.5,0.2,3,0.3,4.5,0.4c1.5,0.1,3.1,0.1,4.7,0c1.6-0.1,3.1-0.2,4.7-0.4
						c1.6-0.2,3.1-0.5,4.6-0.8l93.2-20.6c3.2-0.7,6-1.7,8.2-2.8c2.2-1.1,3.9-2.5,5-3.9c1.1-1.4,1.6-2.9,1.5-4.4
						c-0.1-1.5-0.9-3-2.4-4.5l-149.8-143L296.5,241.3L296.5,241.3z"/>
				</g>
				<g>
					
						<linearGradient id="SVGID_62_" gradientUnits="userSpaceOnUse" x1="399.6787" y1="286.9449" x2="380.9963" y2="270.1" gradientTransform="matrix(-1 0 0 1 664.2816 0)">
						<stop  offset="0" style="stop-color:#584117"/>
						<stop  offset="0.2523" style="stop-color:#FFF2B0"/>
						<stop  offset="0.411" style="stop-color:#FBE06D"/>
						<stop  offset="0.5345" style="stop-color:#C49929"/>
						<stop  offset="0.9343" style="stop-color:#9E7D20"/>
						<stop  offset="1" style="stop-color:#5A3F14"/>
					</linearGradient>
					<path fill="url(#SVGID_62_)" d="M195.4,207.4c-2.3-2-3.7-4-4.4-6.1c0.7-2.2,1.3-2.9,2-3.9c1.3-2,3.5-4.2,4.9-4.3
						c1.4,0,97.3,47.9,98.6,48l14.1,5.1l82.9,79.1l-40,11.4c0,0-20.2,13.2-22.2,13.2L195.4,207.4z"/>
				</g>
				
					<linearGradient id="SVGID_63_" gradientUnits="userSpaceOnUse" x1="341.1245" y1="366.2765" x2="322.9024" y2="368.114" gradientTransform="matrix(-1 0 0 1 664.2816 0)">
					<stop  offset="0" style="stop-color:#EFCE41"/>
					<stop  offset="0.2191" style="stop-color:#E2BC4D"/>
					<stop  offset="0.409" style="stop-color:#EBC860"/>
					<stop  offset="0.5531" style="stop-color:#F9E991"/>
					<stop  offset="0.7145" style="stop-color:#F3DD87"/>
					<stop  offset="1" style="stop-color:#D8C000"/>
				</linearGradient>
				<path fill="url(#SVGID_63_)" d="M328.4,340.6c3.3,3.9,3.3,7.9,2.2,14.3l-8.6,66.4c0.8,0.8,0.2,0.2,1.3,0.9
					c1.1,0.7,2.1,1.3,3.4,2.1c1.3,0.7,2.8,1.3,4.3,1.9c1.5,0.6,3.1,0.9,5,1.3c1.5,0.3,3.5,0,5.1,0.1c1.5,0.1,12.4-1.7,13.9-2
					l93.2-20.6c3.2-0.7,6-1.7,8.2-2.8c2.2-1.1,3.9-2.5,5-3.9c1.1-1.4,1.6-2.9,1.5-4.4c-0.1-1.5-0.5-3.1-0.9-4.9l-12.6-63
					c-0.5-1.8-1.1-4.8-3.4-7.2L328.4,340.6z"/>
				<g>
					<g>
						
							<linearGradient id="SVGID_64_" gradientUnits="userSpaceOnUse" x1="201.4089" y1="371.6937" x2="327.0741" y2="371.6937" gradientTransform="matrix(-1 0 0 1 664.2816 0)">
							<stop  offset="0" style="stop-color:#EFCE41"/>
							<stop  offset="0.2191" style="stop-color:#E2BC4D"/>
							<stop  offset="0.409" style="stop-color:#EBC860"/>
							<stop  offset="0.5531" style="stop-color:#F9E991"/>
							<stop  offset="0.7145" style="stop-color:#F3DD87"/>
							<stop  offset="1" style="stop-color:#D8C000"/>
						</linearGradient>
						<path fill="url(#SVGID_64_)" d="M337.2,427.5c6.3,0.3,16.3-1.6,17.8-1.9l93.2-20.7c3.2-0.7,6-1.7,8.2-2.8
							c2.2-1.2,3.9-2.5,5-3.9c1.1-1.4,1.6-2.9,1.5-4.4c-0.1-1.5-0.5-3.1-0.9-4.8l-12.5-63c-0.5-1.8-1.9-7.4-4.1-10.1L354.1,346
							c-7.8,0.4-14,1.5-14.5,7.5L337.2,427.5z"/>
					</g>
				</g>
				<g>
					<g>
						
							<linearGradient id="SVGID_65_" gradientUnits="userSpaceOnUse" x1="208.2251" y1="356.5707" x2="326.4676" y2="380.2608" gradientTransform="matrix(-1 0 0 1 664.2816 0)">
							<stop  offset="0" style="stop-color:#F3E184"/>
							<stop  offset="2.656040e-002" style="stop-color:#FFFADF"/>
							<stop  offset="4.714480e-002" style="stop-color:#E9CA5F"/>
							<stop  offset="0.2191" style="stop-color:#E2BC4D"/>
							<stop  offset="0.409" style="stop-color:#EBC860"/>
							<stop  offset="0.5531" style="stop-color:#F9E991"/>
							<stop  offset="0.7145" style="stop-color:#F3DD87"/>
							<stop  offset="1" style="stop-color:#D8C000"/>
						</linearGradient>
						<path fill="url(#SVGID_65_)" d="M439,325.8l-7.6-5.4l14-4.6c2.2,2.7,3.6,8.3,4.1,10.1l12.5,63c0.4,1.8,0.8,3.4,0.9,4.8
							c0.1,1.5-0.4,3-1.5,4.4c-0.1,0.1-0.1,0.1-0.2,0.2c-2.4-12.4-13-66.5-14.4-70.2C445.1,324.2,439,325.8,439,325.8z"/>
					</g>
					
						<linearGradient id="SVGID_66_" gradientUnits="userSpaceOnUse" x1="210.4798" y1="344.0711" x2="509.4201" y2="162.1983" gradientTransform="matrix(-1 0 0 1 664.2816 0)">
						<stop  offset="0" style="stop-color:#FFFF89"/>
						<stop  offset="0.2185" style="stop-color:#FFD962"/>
						<stop  offset="0.2835" style="stop-color:#FFEC99"/>
						<stop  offset="0.3572" style="stop-color:#FFF17A"/>
						<stop  offset="0.512" style="stop-color:#FAE950"/>
						<stop  offset="0.6248" style="stop-color:#E5B632"/>
						<stop  offset="0.6746" style="stop-color:#E6C020"/>
						<stop  offset="0.7344" style="stop-color:#C49929"/>
						<stop  offset="0.7915" style="stop-color:#D4AA34"/>
						<stop  offset="0.8858" style="stop-color:#8A4C0F"/>
					</linearGradient>
					<path fill="url(#SVGID_66_)" d="M291.7,175.8c1.4,0.2,2.8,0.4,4.2,0.7c1.3,0.3,2.6,0.7,3.7,1.1c1.2,0.4,2.2,0.9,3.2,1.5
						c1,0.5,1.8,1.1,2.5,1.8l138.8,133.5c1.4,1.3,2.2,2.7,2.4,4.1c0.2,1.4-0.1,2.7-0.9,4c-0.8,1.3-2.2,2.4-4,3.4
						c-1.8,1-4.1,1.8-6.8,2.4l-77.7,17c-1.2,0.3-2.4,0.5-3.6,0.6c-1.2,0.1-2.4,0.2-3.6,0.3c-1.2,0-2.4,0-3.7,0
						c-1.2-0.1-2.4-0.2-3.6-0.3c-1.6-0.2-3.2-0.5-4.7-0.9c-1.5-0.4-2.9-0.8-4.2-1.3c-1.3-0.5-2.5-1.1-3.6-1.8
						c-1.1-0.7-2-1.4-2.7-2.2l-131.8-138c-1.1-1.2-1.6-2.4-1.6-3.5c0-1.2,0.5-2.3,1.5-3.4c1-1.1,2.4-2.1,4.2-2.9
						c1.8-0.8,4.1-1.5,6.6-2l72.4-13.6c1.1-0.2,2.1-0.4,3.2-0.5c1.1-0.1,2.2-0.2,3.3-0.2c1.1,0,2.2,0,3.3,0
						C289.6,175.6,290.7,175.7,291.7,175.8L291.7,175.8z"/>
				</g>
				<g>
					
						<linearGradient id="SVGID_67_" gradientUnits="userSpaceOnUse" x1="476.885" y1="186.9813" x2="322.5303" y2="350.8301" gradientTransform="matrix(-1 0 0 1 664.2816 0)">
						<stop  offset="0" style="stop-color:#A5851C"/>
						<stop  offset="0.2185" style="stop-color:#F0D136"/>
						<stop  offset="0.3572" style="stop-color:#FDCF46"/>
						<stop  offset="0.512" style="stop-color:#FAD550"/>
						<stop  offset="0.6972" style="stop-color:#F4C537"/>
						<stop  offset="0.8977" style="stop-color:#E3B91F"/>
						<stop  offset="0.996" style="stop-color:#DDAC0B"/>
					</linearGradient>
					<path fill="url(#SVGID_67_)" d="M326.3,335.2c5.2,5,11.3,8.5,16.5,10.8c-0.1,0-0.1,0-0.2,0c-1.6-0.2-3.2-0.5-4.7-0.9
						c-1.5-0.4-2.9-0.8-4.2-1.3c-1.3-0.5-2.5-1.1-3.6-1.8c-1.1-0.7-2-1.4-2.7-2.2l-131.8-138c-1.1-1.2-1.6-2.4-1.6-3.5
						c0-0.6,0.1-1.2,0.4-1.8C217.8,222.4,315.6,324.8,326.3,335.2z"/>
				</g>
				<g>
					
						<linearGradient id="SVGID_68_" gradientUnits="userSpaceOnUse" x1="281.3445" y1="346.1851" x2="318.096" y2="125.5997" gradientTransform="matrix(-1 0 0 1 664.2816 0)">
						<stop  offset="0" style="stop-color:#FFF89C"/>
						<stop  offset="0.3572" style="stop-color:#FDCF46"/>
						<stop  offset="0.5246" style="stop-color:#E7BC26"/>
						<stop  offset="0.7344" style="stop-color:#C49929"/>
						<stop  offset="0.7915" style="stop-color:#9E7D20"/>
						<stop  offset="0.8858" style="stop-color:#5A3F14"/>
					</linearGradient>
					<path fill="url(#SVGID_68_)" d="M442.5,316.4c-7.3-7.4-140.1-136.4-140.1-136.4s-4.6-3.3-16.1-4.5c0.7,0,1.4,0,2.2,0
						c1.1,0,2.2,0.1,3.2,0.3c1.4,0.2,2.8,0.4,4.2,0.7c1.3,0.3,2.6,0.7,3.7,1.1c1.2,0.4,2.2,0.9,3.2,1.5c1,0.5,1.8,1.1,2.5,1.8
						l138.8,133.5c1.4,1.3,2.2,2.7,2.4,4.1c0.2,1.4-0.1,2.7-0.9,4c-0.8,1.3-2.2,2.4-4,3.4c-1.2,0.7-2.6,1.2-4.2,1.7
						C442.1,324.8,446.7,320.6,442.5,316.4z"/>
				</g>
			</g>
			<g display="none">
				
					<linearGradient id="SVGID_69_" gradientUnits="userSpaceOnUse" x1="351.1348" y1="310.6754" x2="348.414" y2="192.317" gradientTransform="matrix(1 0 0 1 -102.388 0)">
					<stop  offset="0" style="stop-color:#F6DA4A"/>
					<stop  offset="0.2185" style="stop-color:#DFA720"/>
					<stop  offset="0.3572" style="stop-color:#FDD251"/>
					<stop  offset="0.512" style="stop-color:#FAE950"/>
					<stop  offset="0.6248" style="stop-color:#E5B632"/>
					<stop  offset="0.7344" style="stop-color:#C49929"/>
					<stop  offset="0.7915" style="stop-color:#9E7D20"/>
					<stop  offset="0.8858" style="stop-color:#5A3F14"/>
				</linearGradient>
				<path display="inline" fill="url(#SVGID_69_)" d="M253.5,207.8c-0.2,0-0.3-0.1-0.5-0.1c-3-0.5-5.7-0.6-8.2-0.4
					c-2.5,0.2-4.7,0.7-6.7,1.5c-2,0.8-3.6,1.8-4.7,3c-1.1,1.2-1.6,2.3-1.4,3.4c0.2,1.1,0.9,2.1,2.3,2.9c1.4,0.8,3.2,1.4,5.6,1.8
					c0.1,0,0.2,0,0.3,0c1.6,0.3,3.4,0.5,5.4,0.6c2,0.1,3.8,0.1,5.5,0.1c0.4-0.7,0.9-1.3,1.4-1.8c0.5-0.5,1-1,1.6-1.4l1.5-0.2
					l0.4-0.4c-0.8-0.1-1.7-0.2-2.7-0.4c-0.3,0-0.5-0.1-0.9-0.1c-1.1-0.2-2.6-0.5-4.5-0.8l-0.5,0.5l1.8,0.4c1,0.2,1.5,0.3,1.6,0.4
					c0.1,0,0.1,0.1,0,0.2c-0.1,0.1-0.4,0.5-1.1,1.2c-0.5,0.5-1,1-1.5,1.5c-2.4,0.1-4.4,0-6.2-0.3c-0.1,0-0.2,0-0.2,0
					c-3.2-0.6-5.1-1.6-5.9-3.1c-0.6-1.3-0.2-2.7,1.2-4.3c1.5-1.6,3.6-2.7,6.3-3.4c2.5-0.6,5.3-0.7,8.4-0.2c0.1,0,0.2,0,0.3,0.1
					c1.6,0.3,3,0.7,4,1.1c1.1,0.5,1.8,0.9,1.9,1.1c0.1,0.1-0.1,0.5-0.7,1l-0.5,0.6l1,0.2c1.2-1,2.2-1.8,3-2.4l-1.2-0.4
					c-1.4-0.5-2.6-0.9-3.6-1.2C255.4,208.1,254.5,207.9,253.5,207.8L253.5,207.8z"/>
				
					<linearGradient id="SVGID_70_" gradientUnits="userSpaceOnUse" x1="375.5517" y1="310.1144" x2="372.8308" y2="191.7557" gradientTransform="matrix(1 0 0 1 -102.388 0)">
					<stop  offset="0" style="stop-color:#F6DA4A"/>
					<stop  offset="0.2185" style="stop-color:#DFA720"/>
					<stop  offset="0.3572" style="stop-color:#FDD251"/>
					<stop  offset="0.512" style="stop-color:#FAE950"/>
					<stop  offset="0.6248" style="stop-color:#E5B632"/>
					<stop  offset="0.7344" style="stop-color:#C49929"/>
					<stop  offset="0.7915" style="stop-color:#9E7D20"/>
					<stop  offset="0.8858" style="stop-color:#5A3F14"/>
				</linearGradient>
				<path display="inline" fill="url(#SVGID_70_)" d="M266,223.2c-1.7-0.3-3-0.8-3.9-1.5c-0.9-0.7-1.4-1.6-1.3-2.7
					c0.1-1.1,0.7-2.3,1.9-3.5c0.9-1,2-1.7,3.4-2.4c1.4-0.6,2.9-1,4.5-1.2c1.6-0.2,3.2-0.1,4.9,0.2c0.1,0,0.1,0,0.2,0
					c1.8,0.3,3.1,0.8,4,1.4c1,0.7,1.4,1.5,1.4,2.4c0,1-0.6,2.1-1.7,3.3c-1.1,1.1-2.3,2.1-3.8,2.7c-1.5,0.7-3,1.1-4.6,1.3
					c-1.6,0.2-3.2,0.2-4.9-0.1C266.1,223.3,266.1,223.3,266,223.2L266,223.2z M277.4,211.7c-0.1,0-0.2,0-0.4-0.1
					c-3.8-0.6-7.3-0.5-10.6,0.2c-3.3,0.8-5.8,2.1-7.6,3.9c-1.2,1.2-1.7,2.4-1.6,3.5c0.1,1.1,0.7,2.1,1.9,2.8c1.2,0.7,2.8,1.3,5,1.7
					c0.1,0,0.2,0,0.2,0c3.7,0.6,7.4,0.5,11-0.4c3.6-0.9,6.3-2.2,8.1-4.1c1.6-1.7,1.9-3.3,0.8-4.7
					C283.1,213.3,280.9,212.3,277.4,211.7L277.4,211.7z"/>
				
					<linearGradient id="SVGID_71_" gradientUnits="userSpaceOnUse" x1="394.7038" y1="309.676" x2="391.9828" y2="191.3131" gradientTransform="matrix(1 0 0 1 -102.388 0)">
					<stop  offset="0" style="stop-color:#F6DA4A"/>
					<stop  offset="0.2185" style="stop-color:#DFA720"/>
					<stop  offset="0.3572" style="stop-color:#FDD251"/>
					<stop  offset="0.512" style="stop-color:#FAE950"/>
					<stop  offset="0.6248" style="stop-color:#E5B632"/>
					<stop  offset="0.7344" style="stop-color:#C49929"/>
					<stop  offset="0.7915" style="stop-color:#9E7D20"/>
					<stop  offset="0.8858" style="stop-color:#5A3F14"/>
				</linearGradient>
				<path display="inline" fill="url(#SVGID_71_)" d="M299.8,215.5c-1.9-0.3-3.5-0.5-4.6-0.7c-0.3,0-0.7-0.1-1.2-0.2
					c-0.9-0.2-2.2-0.4-3.8-0.7l-0.5,0.5l1.7,0.3c0,0,0,0,0.1,0c0.7,0.1,1,0.3,1,0.5c0,0.2-0.8,1.2-2.4,2.9l-4.3,4.6
					c-1.5,1.6-2.4,2.4-2.8,2.6c-0.4,0.2-1.1,0.3-2.1,0.4l-0.4,0.4c2.2,0.3,3.8,0.5,4.9,0.7l7.5,1.3c1.7,0.3,3,0.4,4,0.5
					c1-0.9,2.2-1.9,3.4-2.9l-1.1-0.2l-2.8,1.8c-0.9,0-1.8-0.1-2.7-0.2c-1.2-0.1-2.8-0.4-4.8-0.7c-0.4-0.1-0.7-0.1-1.1-0.2
					c-0.7-0.1-1.3-0.2-2-0.4l0.5-0.5l2.2-2.4l5.1-5.4c1.2-1.3,1.9-2,2.2-2.1c0.3-0.1,0.7-0.2,1.3-0.1l2,0.3L299.8,215.5L299.8,215.5
					z"/>
				
					<linearGradient id="SVGID_72_" gradientUnits="userSpaceOnUse" x1="419.2503" y1="309.1134" x2="416.5293" y2="190.7479" gradientTransform="matrix(1 0 0 1 -102.388 0)">
					<stop  offset="0" style="stop-color:#F6DA4A"/>
					<stop  offset="0.2185" style="stop-color:#DFA720"/>
					<stop  offset="0.3572" style="stop-color:#FDD251"/>
					<stop  offset="0.512" style="stop-color:#FAE950"/>
					<stop  offset="0.6248" style="stop-color:#E5B632"/>
					<stop  offset="0.7344" style="stop-color:#C49929"/>
					<stop  offset="0.7915" style="stop-color:#9E7D20"/>
					<stop  offset="0.8858" style="stop-color:#5A3F14"/>
				</linearGradient>
				<path display="inline" fill="url(#SVGID_72_)" d="M309.2,230.1c-1-0.2-2.1-0.4-3.3-0.7c0.7-0.9,1.5-1.9,2.5-2.9l5.2-5.5
					c0.6-0.7,1.3-1.3,1.9-1.8c1.6,0.1,3,0.3,4.2,0.5c0.1,0,0.2,0,0.3,0c3,0.5,5,1.3,5.8,2.4c0.8,1.1,0.5,2.5-1,4.2
					c-1.8,1.9-4.1,3.2-7.1,3.8c-2.4,0.5-5.1,0.6-8.1,0.1C309.5,230.2,309.4,230.2,309.2,230.1L309.2,230.1z M322.1,219.2
					c-0.2,0-0.4-0.1-0.6-0.1l-3.5-0.5l-4.3-0.7c-0.2,0-0.4-0.1-0.6-0.1c-0.7-0.1-1.6-0.3-2.9-0.5l-0.5,0.5l1.2,0.3
					c0.7,0.2,1.1,0.3,1.1,0.4c0.1,0.1-0.1,0.4-0.4,0.8c-0.6,0.7-1.3,1.6-2.2,2.6l-2.3,2.5c-2,2.2-3.6,3.7-4.6,4.5l-1.9,0.2l-0.4,0.4
					c1.4,0.1,2.5,0.3,3.4,0.4c0.5,0.1,1.7,0.3,3.6,0.7l1.9,0.3c3.9,0.6,7.7,0.5,11.3-0.3c3.6-0.8,6.3-2.2,8.1-4.1
					c0.9-0.9,1.3-1.8,1.4-2.6c0-0.8-0.3-1.6-1.1-2.2c-0.7-0.7-1.8-1.2-3.1-1.6C324.5,219.7,323.3,219.4,322.1,219.2L322.1,219.2z"/>
			</g>
			<g display="none">
				
					<linearGradient id="SVGID_73_" gradientUnits="userSpaceOnUse" x1="334.4872" y1="214.5179" x2="363.4896" y2="214.5179" gradientTransform="matrix(1 0 0 1 -102.388 0)">
					<stop  offset="0" style="stop-color:#F6DA4A"/>
					<stop  offset="0.2185" style="stop-color:#EDD922"/>
					<stop  offset="0.3572" style="stop-color:#FDD251"/>
					<stop  offset="0.7112" style="stop-color:#FAE950"/>
					<stop  offset="0.994" style="stop-color:#E5B632"/>
				</linearGradient>
				<path display="inline" fill="url(#SVGID_73_)" d="M253.6,208.4c-0.2,0-0.3-0.1-0.5-0.1c-3-0.5-5.7-0.6-8.2-0.4
					c-2.5,0.2-4.7,0.7-6.7,1.5c-2,0.8-3.6,1.8-4.7,3c-1.1,1.2-1.6,2.3-1.4,3.4c0.2,1.1,0.9,2.1,2.3,2.9c1.4,0.8,3.2,1.4,5.6,1.8
					c0.1,0,0.2,0,0.3,0c1.6,0.3,3.4,0.5,5.4,0.6c2,0.1,3.8,0.1,5.5,0.1c0.4-0.7,0.9-1.3,1.4-1.8c0.5-0.5,1-1,1.6-1.4l1.5-0.2
					l0.4-0.4c-0.8-0.1-1.7-0.2-2.7-0.4c-0.3,0-0.5-0.1-0.9-0.1c-1.1-0.2-2.6-0.5-4.5-0.8l-0.5,0.5l1.8,0.4c1,0.2,1.5,0.3,1.6,0.4
					c0.1,0,0.1,0.1,0,0.2c-0.1,0.1-0.4,0.5-1.1,1.2c-0.5,0.5-1,1-1.5,1.5c-2.4,0.1-4.4,0-6.2-0.3c-0.1,0-0.1,0-0.2,0
					c-3.2-0.6-5.1-1.6-5.9-3.1c-0.6-1.3-0.2-2.7,1.2-4.3c1.5-1.6,3.6-2.7,6.3-3.4c2.5-0.6,5.3-0.7,8.4-0.2c0.1,0,0.2,0,0.3,0.1
					c1.6,0.3,3,0.7,4,1.1c1.1,0.5,1.7,0.9,1.9,1.1c0.1,0.1-0.1,0.5-0.7,1l-0.5,0.6l1,0.2c1.2-1,2.2-1.8,3-2.4l-1.2-0.4
					c-1.4-0.5-2.6-0.9-3.6-1.2C255.6,208.8,254.6,208.6,253.6,208.4L253.6,208.4z"/>
				
					<linearGradient id="SVGID_74_" gradientUnits="userSpaceOnUse" x1="359.6976" y1="218.3719" x2="387.3817" y2="218.3719" gradientTransform="matrix(1 0 0 1 -102.388 0)">
					<stop  offset="0" style="stop-color:#F6DA4A"/>
					<stop  offset="0.2185" style="stop-color:#EDD922"/>
					<stop  offset="0.3572" style="stop-color:#FDD251"/>
					<stop  offset="0.7112" style="stop-color:#FAE950"/>
					<stop  offset="0.994" style="stop-color:#E5B632"/>
				</linearGradient>
				<path display="inline" fill="url(#SVGID_74_)" d="M266.1,223.9c-1.7-0.3-3-0.8-3.9-1.5c-0.9-0.7-1.4-1.6-1.3-2.7
					c0.1-1.1,0.7-2.3,1.9-3.5c0.9-1,2-1.7,3.4-2.4c1.4-0.6,2.9-1,4.5-1.2c1.6-0.2,3.2-0.1,4.9,0.2c0.1,0,0.1,0,0.2,0
					c1.8,0.3,3.1,0.8,4,1.4c1,0.7,1.4,1.5,1.4,2.4c0,1-0.6,2.1-1.7,3.3c-1.1,1.1-2.3,2.1-3.8,2.7c-1.5,0.7-3,1.1-4.6,1.3
					c-1.6,0.2-3.2,0.2-4.9-0.1C266.3,223.9,266.2,223.9,266.1,223.9L266.1,223.9z M277.5,212.3c-0.1,0-0.2,0-0.4-0.1
					c-3.7-0.6-7.3-0.5-10.6,0.2c-3.3,0.8-5.8,2.1-7.6,3.9c-1.1,1.2-1.7,2.4-1.6,3.5c0.1,1.1,0.7,2.1,1.9,2.8c1.2,0.7,2.8,1.3,5,1.7
					c0.1,0,0.2,0,0.2,0c3.7,0.6,7.4,0.5,11-0.4c3.6-0.9,6.3-2.2,8.1-4.1c1.6-1.7,1.9-3.3,0.8-4.7C283.3,213.9,281,213,277.5,212.3
					L277.5,212.3z"/>
				
					<linearGradient id="SVGID_75_" gradientUnits="userSpaceOnUse" x1="382.9622" y1="222.0763" x2="402.8316" y2="222.0763" gradientTransform="matrix(1 0 0 1 -102.388 0)">
					<stop  offset="0" style="stop-color:#F6DA4A"/>
					<stop  offset="0.2185" style="stop-color:#EDD922"/>
					<stop  offset="0.3572" style="stop-color:#FDD251"/>
					<stop  offset="0.7112" style="stop-color:#FAE950"/>
					<stop  offset="0.994" style="stop-color:#E5B632"/>
				</linearGradient>
				<path display="inline" fill="url(#SVGID_75_)" d="M299.9,216.2c-1.9-0.3-3.5-0.5-4.6-0.7c-0.3,0-0.7-0.1-1.2-0.2
					c-0.9-0.2-2.2-0.4-3.8-0.7l-0.5,0.5l1.7,0.3c0,0,0,0,0.1,0c0.7,0.1,1,0.3,1,0.5c0,0.2-0.8,1.2-2.4,2.9l-4.4,4.6
					c-1.5,1.6-2.4,2.4-2.8,2.6c-0.4,0.2-1.1,0.3-2.1,0.4l-0.4,0.4c2.2,0.3,3.8,0.5,4.9,0.7l7.5,1.3c1.7,0.3,3,0.4,4,0.5
					c1-0.9,2.2-1.9,3.4-2.9l-1-0.2l-2.8,1.8c-0.9,0-1.8-0.1-2.7-0.2c-1.2-0.1-2.8-0.4-4.8-0.7c-0.3-0.1-0.7-0.1-1.1-0.2
					c-0.7-0.1-1.3-0.2-2-0.4l0.5-0.5l2.2-2.4l5-5.4c1.2-1.3,1.9-2,2.3-2.1c0.3-0.1,0.7-0.2,1.3-0.1l2,0.3L299.9,216.2L299.9,216.2z"
					/>
				
					<linearGradient id="SVGID_76_" gradientUnits="userSpaceOnUse" x1="402.6426" y1="224.9815" x2="432.2957" y2="224.9815" gradientTransform="matrix(1 0 0 1 -102.388 0)">
					<stop  offset="0" style="stop-color:#F6DA4A"/>
					<stop  offset="0.2185" style="stop-color:#EDD922"/>
					<stop  offset="0.3572" style="stop-color:#FDD251"/>
					<stop  offset="0.7112" style="stop-color:#FAE950"/>
					<stop  offset="0.994" style="stop-color:#E5B632"/>
				</linearGradient>
				<path display="inline" fill="url(#SVGID_76_)" d="M309.4,230.8c-1-0.2-2.1-0.4-3.3-0.7c0.7-0.9,1.5-1.9,2.5-2.9l5.2-5.5
					c0.6-0.7,1.3-1.3,1.9-1.8c1.6,0.1,3,0.3,4.1,0.5c0.1,0,0.2,0,0.3,0c3,0.5,5,1.3,5.8,2.4c0.8,1.1,0.5,2.5-1,4.2
					c-1.8,1.9-4.1,3.2-7,3.8c-2.4,0.5-5.1,0.6-8.1,0.1C309.6,230.9,309.5,230.8,309.4,230.8L309.4,230.8z M322.2,219.9
					c-0.2,0-0.4-0.1-0.6-0.1l-3.5-0.5l-4.3-0.7c-0.2,0-0.4-0.1-0.6-0.1c-0.7-0.1-1.6-0.3-2.9-0.5l-0.5,0.5l1.2,0.3
					c0.7,0.2,1.1,0.3,1.1,0.4c0.1,0.1-0.1,0.4-0.4,0.8c-0.6,0.7-1.3,1.6-2.2,2.6l-2.3,2.5c-2,2.2-3.6,3.7-4.6,4.5l-1.9,0.2l-0.4,0.4
					c1.4,0.2,2.5,0.3,3.4,0.4c0.5,0.1,1.7,0.3,3.6,0.7l1.9,0.3c3.9,0.6,7.7,0.5,11.3-0.3c3.6-0.8,6.3-2.2,8.1-4.1
					c0.9-0.9,1.3-1.8,1.4-2.6c0-0.8-0.3-1.6-1.1-2.2c-0.7-0.7-1.8-1.2-3.1-1.6C324.6,220.4,323.4,220.1,322.2,219.9L322.2,219.9z"/>
			</g>
		</g>
	</g>
</g>
</svg>
