<?xml version="1.0" encoding="utf-8"?>
<!-- Generator: Adobe Illustrator 21.1.0, SVG Export Plug-In . SVG Version: 6.00 Build 0)  -->
<svg version="1.1" id="Layer_1" xmlns="http://www.w3.org/2000/svg" xmlns:xlink="http://www.w3.org/1999/xlink" x="0px" y="0px"
	 viewBox="0 0 640 480" style="enable-background:new 0 0 640 480;" xml:space="preserve">
<g transform="translate(0.000000,200.000000) scale(0.100000,-0.100000)">
	<path d="M1131,1844.3c-59.1-42.2-107-259.1-171.8-780.2C900,605,914.1-265.3,987.3-583.6c253.5-1123.8,873.2-1774.5,1923.7-2016.7
		c318.3-73.2,1174.5-104.2,1574.5-56.3c419.7,50.7,802.7,115.5,890.1,149.3c81.7,31,121.1,123.9,92.9,211.2
		c-8.5,31-169,146.5-357.7,259.1l-338,205.6l19.7,188.7c25.3,267.6-25.3,473.2-166.2,684.4c-129.6,191.5-323.9,340.8-518.3,397.1
		c-115.5,33.8-129.6,47.9-194.3,205.6c-129.6,318.3-357.7,552.1-625.3,636.6c-118.3,39.4-129.6,50.7-188.7,211.2
		c-115.5,323.9-267.6,495.7-546.4,622.5c-177.4,81.7-490.1,112.7-656.3,67.6l-104.2-28.2L1590.1,1481
		c-112.7,183.1-222.5,346.4-245,366.2C1288.7,1892.2,1195.8,1889.4,1131,1844.3z M2452,869.8c236.6-104.2,436.6-422.5,436.6-695.7
		c0-87.3,2.8-90.1,152.1-107c318.3-42.2,574.6-281.7,633.7-597.1c39.4-211.2-2.8-335.2-169-492.9c-138-132.4-169-208.4-104.2-273.2
		c121.1-121.1,450.7,138,518.3,400c25.3,104.2,50.7,112.7,185.9,50.7c140.8-62,318.3-247.9,380.2-394.3
		c157.7-374.6-84.5-861.9-484.5-977.4c-470.4-138-943.6,214.1-943.6,701.3v115.5l-154.9,5.6c-309.8,8.4-591.5,250.7-659.1,571.8
		c-47.9,216.9,0,369,169,535.2c76,76,138,149.3,138,160.5c0,50.7-90.1,149.3-138,149.3c-121.1,0-425.3-354.9-425.3-495.7
		c0-107-304.2,50.7-436.6,225.3C1469-141.4,1395.8,67,1395.8,191c0,146.5,87.3,369,188.7,481.6C1815.4,928.9,2145,1005,2452,869.8z"
		/>
</g>
</svg>
