<?xml version="1.0" encoding="utf-8"?>
<!-- Generator: Adobe Illustrator 19.1.1, SVG Export Plug-In . SVG Version: 6.00 Build 0)  -->
<svg version="1.1" id="Layer_1" xmlns="http://www.w3.org/2000/svg" xmlns:xlink="http://www.w3.org/1999/xlink" x="0px" y="0px"
	 viewBox="0 0 640 480" style="enable-background:new 0 0 640 480;" xml:space="preserve">
<style type="text/css">
	.st0{fill:url(#SVGID_1_);}
	.st1{fill:url(#SVGID_2_);}
	.st2{fill:url(#SVGID_3_);}
	.st3{fill:url(#SVGID_4_);}
	.st4{fill:url(#SVGID_5_);}
	.st5{fill:url(#SVGID_6_);}
	.st6{fill:url(#SVGID_7_);}
	.st7{fill:url(#SVGID_8_);}
	.st8{fill:url(#SVGID_9_);}
	.st9{fill:url(#SVGID_10_);}
	.st10{fill:url(#SVGID_11_);}
	.st11{fill:url(#SVGID_12_);}
	.st12{fill:url(#SVGID_13_);}
	.st13{fill:url(#SVGID_14_);}
	.st14{fill:url(#SVGID_15_);}
	.st15{fill:url(#SVGID_16_);}
	.st16{fill:url(#SVGID_17_);}
	.st17{fill:url(#SVGID_18_);}
	.st18{fill:url(#SVGID_19_);}
	.st19{fill:url(#SVGID_20_);}
	.st20{fill:url(#SVGID_21_);}
	.st21{fill:url(#SVGID_22_);}
	.st22{fill:url(#SVGID_23_);}
	.st23{fill:url(#SVGID_24_);}
	.st24{fill:url(#SVGID_25_);}
	.st25{fill:url(#SVGID_26_);}
	.st26{fill:url(#SVGID_27_);}
	.st27{fill:url(#SVGID_28_);}
	.st28{fill:url(#SVGID_29_);}
	.st29{fill:url(#SVGID_30_);}
	.st30{fill:url(#SVGID_31_);}
	.st31{fill:url(#SVGID_32_);}
	.st32{fill:url(#SVGID_33_);}
	.st33{fill:url(#SVGID_34_);}
	.st34{fill:url(#SVGID_35_);}
	.st35{display:none;}
	.st36{display:inline;fill:url(#SVGID_36_);}
	.st37{display:inline;fill:url(#SVGID_37_);}
	.st38{display:inline;fill:url(#SVGID_38_);}
	.st39{display:inline;fill:url(#SVGID_39_);}
	.st40{display:inline;fill:url(#SVGID_40_);}
	.st41{display:inline;fill:url(#SVGID_41_);}
	.st42{display:inline;fill:url(#SVGID_42_);}
	.st43{display:inline;fill:url(#SVGID_43_);}
	.st44{fill:url(#SVGID_44_);}
	.st45{fill:url(#SVGID_45_);}
	.st46{fill:url(#SVGID_46_);}
	.st47{fill:url(#SVGID_47_);}
	.st48{fill:url(#SVGID_48_);}
	.st49{fill:url(#SVGID_49_);}
	.st50{fill:url(#SVGID_50_);}
	.st51{fill:url(#SVGID_51_);}
	.st52{display:inline;fill:url(#SVGID_52_);}
	.st53{display:inline;fill:url(#SVGID_53_);}
	.st54{display:inline;fill:url(#SVGID_54_);}
	.st55{display:inline;fill:url(#SVGID_55_);}
	.st56{display:inline;fill:url(#SVGID_56_);}
	.st57{display:inline;fill:url(#SVGID_57_);}
	.st58{display:inline;fill:url(#SVGID_58_);}
	.st59{display:inline;fill:url(#SVGID_59_);}
	.st60{fill:url(#SVGID_60_);}
	.st61{fill:url(#SVGID_61_);}
	.st62{fill:url(#SVGID_62_);}
	.st63{fill:url(#SVGID_63_);}
	.st64{fill:url(#SVGID_64_);}
	.st65{fill:url(#SVGID_65_);}
	.st66{fill:url(#SVGID_66_);}
	.st67{fill:url(#SVGID_67_);}
	.st68{display:inline;fill:url(#SVGID_68_);}
	.st69{display:inline;fill:url(#SVGID_69_);}
	.st70{display:inline;fill:url(#SVGID_70_);}
	.st71{display:inline;fill:url(#SVGID_71_);}
	.st72{display:inline;fill:url(#SVGID_72_);}
	.st73{display:inline;fill:url(#SVGID_73_);}
	.st74{display:inline;fill:url(#SVGID_74_);}
	.st75{display:inline;fill:url(#SVGID_75_);}
</style>
<g id="Layer_3">
	<g>
		<g>
			<g>
				
					<linearGradient id="SVGID_1_" gradientUnits="userSpaceOnUse" x1="1033.8585" y1="637.1406" x2="1164.1864" y2="486.9785" gradientTransform="matrix(-1 0 0 1 1544.2816 -280)">
					<stop  offset="0" style="stop-color:#A9A9A9"/>
					<stop  offset="0.4004" style="stop-color:#9A9A9A"/>
					<stop  offset="0.7862" style="stop-color:#7D7D7D"/>
					<stop  offset="1" style="stop-color:#424242"/>
				</linearGradient>
				<path class="st0" d="M438.3,212.4c-1.3-0.2-12.8-3.2-14.2-3.1c-1.4,0-3.6,2.2-4.9,4.3c-0.8,1.2-1.6,2-2.4,5.5
					c0,0-96.6,18.1-96.7,19.4s0.4,2.6,1.5,3.8l140.8,148.8c0.8,0.8,1.7,1.6,2.8,2.2c1.1,0.7,2.3,1.3,3.7,1.8s2.9,1,4.4,1.4
					c1.6,0.4,3.3,0.7,5,0.9c1.5,0.2,3,0.3,4.5,0.4s3.1,0.1,4.7,0c1.6-0.1,3.1-0.2,4.7-0.4c1.6-0.2,3.1-0.5,4.6-0.8L590,376
					c3.2-0.7,6-1.7,8.2-2.8c2.2-1.1,3.9-2.5,5-3.9c1.1-1.4,1.6-2.9,1.5-4.4s-0.9-3-2.4-4.5l-149.8-143L438.3,212.4L438.3,212.4z"/>
			</g>
			<g>
				<g>
					
						<linearGradient id="SVGID_2_" gradientUnits="userSpaceOnUse" x1="1036.9006" y1="626.756" x2="1187.1692" y2="453.6187" gradientTransform="matrix(-1 0 0 1 1544.2816 -280)">
						<stop  offset="0" style="stop-color:#D3D3D3"/>
						<stop  offset="0.2185" style="stop-color:#A9A9A9"/>
						<stop  offset="0.5777" style="stop-color:#9A9A9A"/>
						<stop  offset="0.9343" style="stop-color:#7D7D7D"/>
						<stop  offset="1" style="stop-color:#424242"/>
					</linearGradient>
					<path class="st1" d="M442.4,210.1c-1.3-0.2-97.2-48.1-98.6-48c-1.4,0-3.6,2.2-4.9,4.3c-0.8,1.2-1.6,2-2.4,5.5
						c0,0-12.3,63-12.4,64.3c-0.1,1.3,0.4,2.6,1.5,3.8l140.8,148.8c0.8,0.8,1.7,1.6,2.8,2.2c1.1,0.7,2.4,1.3,3.7,1.8
						c1.4,0.5,2.9,1,4.4,1.4c1.6,0.4,3.3,0.7,5,0.9c1.5,0.2,3,0.3,4.5,0.4s3.1,0.1,4.7,0c1.6-0.1,3.1-0.2,4.7-0.4
						c1.6-0.2,3.1-0.5,4.6-0.8l93.2-20.6c3.2-0.7,6-1.7,8.2-2.8c2.2-1.1,3.9-2.5,5-3.9c1.1-1.4,1.6-2.9,1.5-4.4s-0.9-3-2.4-4.4
						l-149.7-143L442.4,210.1L442.4,210.1z"/>
				</g>
				<g>
					
						<linearGradient id="SVGID_3_" gradientUnits="userSpaceOnUse" x1="1133.7427" y1="535.6558" x2="1115.0607" y2="518.8112" gradientTransform="matrix(-1 0 0 1 1544.2816 -280)">
						<stop  offset="0" style="stop-color:#434343"/>
						<stop  offset="0.2523" style="stop-color:#8D8D8D"/>
						<stop  offset="0.411" style="stop-color:#DBDBDB"/>
						<stop  offset="0.5345" style="stop-color:#9A9A9A"/>
						<stop  offset="0.9343" style="stop-color:#7D7D7D"/>
						<stop  offset="1" style="stop-color:#424242"/>
					</linearGradient>
					<path class="st2" d="M341.4,176.2c-2.3-2-3.7-4-4.4-6.1c0.7-2.2,1.4-2.9,2-3.9c1.3-2,3.5-4.2,4.9-4.3c1.4,0,97.3,47.9,98.6,48
						l14.1,5.1l82.9,79.1l-40,11.4c0,0-20.2,13.2-22.2,13.2L341.4,176.2z"/>
				</g>
				
					<linearGradient id="SVGID_4_" gradientUnits="userSpaceOnUse" x1="1075.1548" y1="614.9918" x2="1056.9325" y2="616.8293" gradientTransform="matrix(-1 0 0 1 1544.2816 -280)">
					<stop  offset="0" style="stop-color:#C8C8C8"/>
					<stop  offset="0.2191" style="stop-color:#BBBBBB"/>
					<stop  offset="0.409" style="stop-color:#C7C7C7"/>
					<stop  offset="0.5531" style="stop-color:#E4E4E4"/>
					<stop  offset="0.7145" style="stop-color:#DADADA"/>
					<stop  offset="1" style="stop-color:#B2B2B2"/>
				</linearGradient>
				<path class="st3" d="M474.3,309.4c3.3,3.9,3.3,7.9,2.2,14.3l-8.6,66.4c0.8,0.8,0.2,0.2,1.3,0.8c1.1,0.7,2.1,1.3,3.4,2.1
					c1.3,0.7,2.8,1.3,4.3,1.9s3.1,0.9,5,1.3c1.5,0.3,3.5,0,5.1,0.1c1.5,0.1,12.4-1.7,13.9-2l93.2-20.6c3.2-0.7,6-1.7,8.2-2.8
					c2.2-1.1,3.9-2.5,5-3.9c1.1-1.4,1.6-2.9,1.5-4.4s-0.5-3.1-0.9-4.9l-12.6-63c-0.5-1.8-1.1-4.8-3.4-7.2L474.3,309.4z"/>
				<g>
					<g>
						
							<linearGradient id="SVGID_5_" gradientUnits="userSpaceOnUse" x1="935.4692" y1="620.4285" x2="1061.0817" y2="620.4285" gradientTransform="matrix(-1 0 0 1 1544.2816 -280)">
							<stop  offset="0" style="stop-color:#C8C8C8"/>
							<stop  offset="0.2191" style="stop-color:#BBBBBB"/>
							<stop  offset="0.409" style="stop-color:#C7C7C7"/>
							<stop  offset="0.5531" style="stop-color:#E4E4E4"/>
							<stop  offset="0.7145" style="stop-color:#DADADA"/>
							<stop  offset="1" style="stop-color:#B2B2B2"/>
						</linearGradient>
						<path class="st4" d="M483.2,396.3c6.3,0.3,16.3-1.6,17.8-1.9l93.1-20.7c3.2-0.7,6-1.7,8.2-2.8s3.9-2.5,5-3.9s1.6-2.9,1.5-4.4
							s-0.5-3.1-0.9-4.9l-12.5-63c-0.5-1.8-1.9-7.4-4.1-10.1l-91.2,30.2c-7.8,0.4-14,1.5-14.5,7.5L483.2,396.3z"/>
					</g>
				</g>
				<g>
					<g>
						
							<linearGradient id="SVGID_6_" gradientUnits="userSpaceOnUse" x1="942.2594" y1="605.3171" x2="1060.49" y2="629.0047" gradientTransform="matrix(-1 0 0 1 1544.2816 -280)">
							<stop  offset="0" style="stop-color:#DCDCDC"/>
							<stop  offset="2.656040e-002" style="stop-color:#F9F9F9"/>
							<stop  offset="4.714480e-002" style="stop-color:#C8C8C8"/>
							<stop  offset="0.2191" style="stop-color:#BBBBBB"/>
							<stop  offset="0.409" style="stop-color:#C7C7C7"/>
							<stop  offset="0.5531" style="stop-color:#E4E4E4"/>
							<stop  offset="0.7145" style="stop-color:#DADADA"/>
							<stop  offset="1" style="stop-color:#B2B2B2"/>
						</linearGradient>
						<path class="st5" d="M585,294.6l-7.6-5.4l14-4.6c2.2,2.7,3.6,8.3,4.1,10.1l12.5,63c0.4,1.8,0.8,3.4,0.9,4.9
							c0.1,1.5-0.4,3-1.5,4.4c-0.1,0.1-0.1,0.1-0.2,0.2c-2.4-12.4-13-66.5-14.4-70.1C591.1,293,585,294.6,585,294.6z"/>
					</g>
					
						<linearGradient id="SVGID_7_" gradientUnits="userSpaceOnUse" x1="911.9848" y1="610.4877" x2="1248.5549" y2="409.7997" gradientTransform="matrix(-1 0 0 1 1544.2816 -280)">
						<stop  offset="0" style="stop-color:#F2F2F2"/>
						<stop  offset="0.2185" style="stop-color:#D7D7D7"/>
						<stop  offset="0.2835" style="stop-color:#E9E9E9"/>
						<stop  offset="0.3572" style="stop-color:#E8E8E8"/>
						<stop  offset="0.512" style="stop-color:#DDDDDD"/>
						<stop  offset="0.6248" style="stop-color:#B6B6B6"/>
						<stop  offset="0.6746" style="stop-color:#BABABA"/>
						<stop  offset="0.7344" style="stop-color:#9A9A9A"/>
						<stop  offset="0.7915" style="stop-color:#AAAAAA"/>
						<stop  offset="0.8858" style="stop-color:#585858"/>
					</linearGradient>
					<path class="st6" d="M437.7,144.6c1.4,0.2,2.8,0.4,4.2,0.7c1.3,0.3,2.6,0.7,3.7,1.1c1.2,0.4,2.2,0.9,3.2,1.5
						c0.9,0.5,1.8,1.1,2.4,1.8l138.9,133.5c1.4,1.3,2.2,2.7,2.4,4.1s-0.1,2.7-0.9,4c-0.8,1.3-2.2,2.4-4,3.4s-4.1,1.8-6.8,2.4
						l-77.7,17c-1.2,0.3-2.4,0.5-3.6,0.6c-1.2,0.1-2.4,0.2-3.6,0.3c-1.2,0-2.4,0-3.7,0c-1.2-0.1-2.4-0.2-3.6-0.3
						c-1.6-0.2-3.2-0.5-4.7-0.9s-2.9-0.8-4.2-1.4c-1.3-0.5-2.5-1.1-3.6-1.8c-1.1-0.7-2-1.4-2.7-2.2l-131.8-138
						c-1.1-1.2-1.6-2.4-1.6-3.5c0-1.2,0.5-2.3,1.5-3.4c1-1.1,2.4-2.1,4.2-2.9s4.1-1.5,6.6-2l72.4-13.6c1.1-0.2,2.1-0.4,3.2-0.5
						c1.1-0.1,2.2-0.2,3.3-0.2s2.2,0,3.3,0C435.6,144.4,436.6,144.5,437.7,144.6L437.7,144.6z"/>
				</g>
				<g>
					
						<linearGradient id="SVGID_8_" gradientUnits="userSpaceOnUse" x1="1210.8755" y1="435.6876" x2="1056.5229" y2="599.5342" gradientTransform="matrix(-1 0 0 1 1544.2816 -280)">
						<stop  offset="0" style="stop-color:#838383"/>
						<stop  offset="0.2185" style="stop-color:#C9C9C9"/>
						<stop  offset="0.3572" style="stop-color:#CECECE"/>
						<stop  offset="0.512" style="stop-color:#D1D1D1"/>
						<stop  offset="0.6972" style="stop-color:#C3C3C3"/>
						<stop  offset="0.8977" style="stop-color:#B5B5B5"/>
						<stop  offset="0.996" style="stop-color:#A9A9A9"/>
					</linearGradient>
					<path class="st7" d="M472.3,304c5.2,5,11.3,8.5,16.5,10.7c-0.1,0-0.1,0-0.2,0c-1.6-0.2-3.2-0.5-4.7-0.9s-2.9-0.8-4.2-1.4
						c-1.3-0.5-2.5-1.1-3.6-1.8c-1.1-0.7-2-1.4-2.7-2.2l-131.8-138c-1.1-1.2-1.6-2.4-1.6-3.5c0-0.6,0.1-1.2,0.4-1.8
						C363.8,191.2,461.6,293.6,472.3,304z"/>
				</g>
				<g>
					
						<linearGradient id="SVGID_9_" gradientUnits="userSpaceOnUse" x1="1015.4078" y1="594.9351" x2="1052.1586" y2="374.3542" gradientTransform="matrix(-1 0 0 1 1544.2816 -280)">
						<stop  offset="0" style="stop-color:#F0F0F0"/>
						<stop  offset="0.3572" style="stop-color:#CECECE"/>
						<stop  offset="0.5246" style="stop-color:#B8B8B8"/>
						<stop  offset="0.7344" style="stop-color:#9A9A9A"/>
						<stop  offset="0.7915" style="stop-color:#7D7D7D"/>
						<stop  offset="0.8858" style="stop-color:#424242"/>
					</linearGradient>
					<path class="st8" d="M588.4,285.2c-7.4-7.3-140.1-136.4-140.1-136.4s-4.6-3.3-16.1-4.5c0.7,0,1.4,0,2.2,0
						c1.1,0.1,2.2,0.1,3.2,0.3c1.4,0.2,2.8,0.4,4.2,0.7c1.3,0.3,2.6,0.7,3.7,1.1c1.2,0.4,2.2,0.9,3.2,1.5c0.9,0.5,1.8,1.1,2.4,1.8
						l139,133.5c1.4,1.3,2.2,2.7,2.4,4.1s-0.1,2.7-0.9,4c-0.8,1.3-2.2,2.4-4,3.4c-1.2,0.7-2.6,1.2-4.1,1.7
						C588.1,293.6,592.6,289.4,588.4,285.2z"/>
				</g>
			</g>
		</g>
		<g>
			<g>
				
					<linearGradient id="SVGID_10_" gradientUnits="userSpaceOnUse" x1="1172.6064" y1="668.4147" x2="1302.9357" y2="518.2512" gradientTransform="matrix(-1 0 0 1 1544.2816 -280)">
					<stop  offset="0" style="stop-color:#A9A9A9"/>
					<stop  offset="0.4004" style="stop-color:#9A9A9A"/>
					<stop  offset="0.7862" style="stop-color:#7D7D7D"/>
					<stop  offset="1" style="stop-color:#424242"/>
				</linearGradient>
				<path class="st9" d="M299.6,243.7c-1.3-0.2-12.8-3.2-14.2-3.1c-1.4,0-3.6,2.2-4.9,4.3c-0.8,1.2-1.6,2-2.4,5.5
					c0,0-96.6,18.1-96.7,19.4s0.4,2.6,1.5,3.8l140.8,148.8c0.8,0.8,1.7,1.6,2.8,2.2c1.1,0.7,2.3,1.3,3.7,1.8s2.9,1,4.4,1.4
					c1.6,0.4,3.3,0.7,5,0.9c1.5,0.2,3,0.3,4.5,0.4s3.1,0.1,4.7,0s3.1-0.2,4.7-0.4s3.1-0.5,4.6-0.8l93.2-20.6c3.2-0.7,6-1.7,8.2-2.8
					s3.9-2.5,5-3.9s1.6-2.9,1.5-4.4s-0.9-3-2.4-4.4l-149.8-143L299.6,243.7L299.6,243.7z"/>
			</g>
			<g>
				<g>
					
						<linearGradient id="SVGID_11_" gradientUnits="userSpaceOnUse" x1="1178.9767" y1="658.5836" x2="1329.2454" y2="485.446" gradientTransform="matrix(-1 0 0 1 1544.2816 -280)">
						<stop  offset="0" style="stop-color:#D3D3D3"/>
						<stop  offset="0.2185" style="stop-color:#A9A9A9"/>
						<stop  offset="0.5777" style="stop-color:#9A9A9A"/>
						<stop  offset="0.9343" style="stop-color:#7D7D7D"/>
						<stop  offset="1" style="stop-color:#424242"/>
					</linearGradient>
					<path class="st10" d="M300.3,241.9c-1.3-0.2-97.2-48.1-98.6-48c-1.4,0-3.6,2.2-4.9,4.3c-0.8,1.2-1.6,2-2.4,5.5
						c0,0-12.3,63-12.4,64.3c-0.1,1.3,0.4,2.6,1.5,3.8l140.8,148.8c0.8,0.8,1.7,1.6,2.8,2.2c1.1,0.7,2.3,1.3,3.7,1.8s2.9,1,4.4,1.4
						c1.6,0.4,3.3,0.7,5,0.9c1.5,0.2,3,0.3,4.5,0.4s3.1,0.1,4.7,0c1.6-0.1,3.1-0.2,4.7-0.4c1.6-0.2,3.1-0.5,4.6-0.8l93.2-20.6
						c3.2-0.7,6-1.7,8.2-2.8s3.9-2.5,5-3.9s1.6-2.9,1.5-4.4s-0.9-3-2.4-4.4L314.4,247L300.3,241.9L300.3,241.9z"/>
				</g>
				<g>
					
						<linearGradient id="SVGID_12_" gradientUnits="userSpaceOnUse" x1="1275.8176" y1="567.5331" x2="1257.1371" y2="550.6899" gradientTransform="matrix(-1 0 0 1 1544.2816 -280)">
						<stop  offset="0" style="stop-color:#434343"/>
						<stop  offset="0.2523" style="stop-color:#8D8D8D"/>
						<stop  offset="0.411" style="stop-color:#DBDBDB"/>
						<stop  offset="0.5345" style="stop-color:#9A9A9A"/>
						<stop  offset="0.9343" style="stop-color:#7D7D7D"/>
						<stop  offset="1" style="stop-color:#424242"/>
					</linearGradient>
					<path class="st11" d="M199.3,208.1c-2.3-2-3.7-4-4.4-6.1c0.7-2.2,1.4-2.9,2-3.9c1.3-2,3.5-4.2,4.9-4.3c1.4,0,97.3,47.9,98.6,48
						l14.1,5.1l82.9,79.1l-40,11.4c0,0-20.2,13.2-22.2,13.2L199.3,208.1z"/>
				</g>
				
					<linearGradient id="SVGID_13_" gradientUnits="userSpaceOnUse" x1="1217.2583" y1="646.8917" x2="1199.0361" y2="648.7292" gradientTransform="matrix(-1 0 0 1 1544.2816 -280)">
					<stop  offset="0" style="stop-color:#C8C8C8"/>
					<stop  offset="0.2191" style="stop-color:#BBBBBB"/>
					<stop  offset="0.409" style="stop-color:#C7C7C7"/>
					<stop  offset="0.5531" style="stop-color:#E4E4E4"/>
					<stop  offset="0.7145" style="stop-color:#DADADA"/>
					<stop  offset="1" style="stop-color:#B2B2B2"/>
				</linearGradient>
				<path class="st12" d="M332.2,341.2c3.3,3.9,3.3,7.9,2.2,14.3l-8.6,66.4c0.8,0.8,0.2,0.2,1.3,0.9c1.1,0.7,2.1,1.3,3.4,2.1
					c1.3,0.7,2.8,1.3,4.3,1.9s3.1,0.9,5,1.3c1.5,0.3,3.5,0,5.1,0.1c1.5,0.1,12.4-1.7,13.9-2l93.2-20.6c3.2-0.7,6-1.7,8.2-2.8
					s3.9-2.5,5-3.9s1.6-2.9,1.5-4.4s-0.5-3.1-0.9-4.9l-12.6-63c-0.5-1.8-1.1-4.8-3.4-7.2L332.2,341.2z"/>
				<g>
					<g>
						
							<linearGradient id="SVGID_14_" gradientUnits="userSpaceOnUse" x1="1077.4691" y1="652.3285" x2="1203.1816" y2="652.3285" gradientTransform="matrix(-1 0 0 1 1544.2816 -280)">
							<stop  offset="0" style="stop-color:#C8C8C8"/>
							<stop  offset="0.2191" style="stop-color:#BBBBBB"/>
							<stop  offset="0.409" style="stop-color:#C7C7C7"/>
							<stop  offset="0.5531" style="stop-color:#E4E4E4"/>
							<stop  offset="0.7145" style="stop-color:#DADADA"/>
							<stop  offset="1" style="stop-color:#B2B2B2"/>
						</linearGradient>
						<path class="st13" d="M341.1,428.2c6.3,0.3,16.3-1.6,17.8-1.9l93.2-20.7c3.2-0.7,6-1.7,8.2-2.8c2.2-1.2,3.9-2.5,5-3.9
							s1.6-2.9,1.5-4.4s-0.5-3.1-0.9-4.9l-12.5-63c-0.5-1.8-1.9-7.4-4.1-10.1l-91.2,30.2c-7.8,0.4-14,1.5-14.5,7.5L341.1,428.2z"/>
					</g>
				</g>
				<g>
					<g>
						
							<linearGradient id="SVGID_15_" gradientUnits="userSpaceOnUse" x1="1084.3501" y1="637.2153" x2="1202.5807" y2="660.9028" gradientTransform="matrix(-1 0 0 1 1544.2816 -280)">
							<stop  offset="0" style="stop-color:#DCDCDC"/>
							<stop  offset="2.656040e-002" style="stop-color:#F9F9F9"/>
							<stop  offset="4.714480e-002" style="stop-color:#C8C8C8"/>
							<stop  offset="0.2191" style="stop-color:#BBBBBB"/>
							<stop  offset="0.409" style="stop-color:#C7C7C7"/>
							<stop  offset="0.5531" style="stop-color:#E4E4E4"/>
							<stop  offset="0.7145" style="stop-color:#DADADA"/>
							<stop  offset="1" style="stop-color:#B2B2B2"/>
						</linearGradient>
						<path class="st14" d="M442.9,326.5l-7.6-5.4l14-4.6c2.2,2.7,3.6,8.3,4.1,10.1l12.5,63c0.4,1.8,0.8,3.4,0.9,4.9
							c0.1,1.5-0.4,3-1.5,4.4c-0.1,0.1-0.1,0.1-0.2,0.2c-2.4-12.4-13-66.5-14.4-70.1C449,324.8,442.9,326.5,442.9,326.5z"/>
					</g>
					
						<linearGradient id="SVGID_16_" gradientUnits="userSpaceOnUse" x1="1043.0406" y1="650.5667" x2="1381.703" y2="445.6971" gradientTransform="matrix(-1 0 0 1 1544.2816 -280)">
						<stop  offset="0" style="stop-color:#F2F2F2"/>
						<stop  offset="0.2185" style="stop-color:#D7D7D7"/>
						<stop  offset="0.2835" style="stop-color:#E9E9E9"/>
						<stop  offset="0.3572" style="stop-color:#E8E8E8"/>
						<stop  offset="0.512" style="stop-color:#DDDDDD"/>
						<stop  offset="0.6248" style="stop-color:#B6B6B6"/>
						<stop  offset="0.6746" style="stop-color:#BABABA"/>
						<stop  offset="0.7344" style="stop-color:#9A9A9A"/>
						<stop  offset="0.7915" style="stop-color:#AAAAAA"/>
						<stop  offset="0.8858" style="stop-color:#585858"/>
					</linearGradient>
					<path class="st15" d="M295.6,176.5c1.4,0.2,2.8,0.4,4.2,0.7c1.3,0.3,2.6,0.7,3.7,1.1c1.2,0.4,2.2,0.9,3.2,1.5
						c0.9,0.5,1.8,1.1,2.4,1.8l138.8,133.5c1.4,1.3,2.2,2.7,2.4,4.1s-0.1,2.7-0.9,4s-2.2,2.4-4,3.4s-4.1,1.8-6.8,2.4l-77.7,17
						c-1.2,0.3-2.4,0.5-3.6,0.6c-1.2,0.1-2.4,0.2-3.6,0.3c-1.2,0-2.4,0-3.7,0c-1.2-0.1-2.4-0.2-3.6-0.3c-1.6-0.2-3.2-0.5-4.7-0.9
						s-2.9-0.8-4.2-1.4c-1.3-0.5-2.5-1.1-3.6-1.8c-1.1-0.7-2-1.4-2.7-2.2l-131.8-138c-1.1-1.2-1.6-2.4-1.6-3.5
						c0-1.2,0.5-2.3,1.5-3.4c1-1.1,2.4-2.1,4.2-2.9s4.1-1.5,6.6-2l72.4-13.6c1.1-0.2,2.1-0.4,3.2-0.5c1.1-0.1,2.2-0.2,3.3-0.2
						s2.2,0,3.3,0C293.5,176.3,294.5,176.4,295.6,176.5L295.6,176.5z"/>
				</g>
				<g>
					
						<linearGradient id="SVGID_17_" gradientUnits="userSpaceOnUse" x1="1353" y1="467.5616" x2="1198.6484" y2="631.407" gradientTransform="matrix(-1 0 0 1 1544.2816 -280)">
						<stop  offset="0" style="stop-color:#838383"/>
						<stop  offset="0.2185" style="stop-color:#C9C9C9"/>
						<stop  offset="0.3572" style="stop-color:#CECECE"/>
						<stop  offset="0.512" style="stop-color:#D1D1D1"/>
						<stop  offset="0.6972" style="stop-color:#C3C3C3"/>
						<stop  offset="0.8977" style="stop-color:#B5B5B5"/>
						<stop  offset="0.996" style="stop-color:#A9A9A9"/>
					</linearGradient>
					<path class="st16" d="M330.2,335.9c5.2,5.1,11.3,8.5,16.5,10.7c-0.1,0-0.1,0-0.2,0c-1.6-0.2-3.2-0.5-4.7-0.9s-2.9-0.8-4.2-1.4
						c-1.3-0.5-2.5-1.1-3.6-1.8c-1.1-0.7-2-1.4-2.7-2.2l-131.8-138c-1.1-1.2-1.6-2.4-1.6-3.5c0-0.6,0.1-1.2,0.4-1.8
						C221.7,223.1,319.5,325.5,330.2,335.9z"/>
				</g>
				<g>
					
						<linearGradient id="SVGID_18_" gradientUnits="userSpaceOnUse" x1="1157.6132" y1="626.8038" x2="1194.3643" y2="406.2205" gradientTransform="matrix(-1 0 0 1 1544.2816 -280)">
						<stop  offset="0" style="stop-color:#F0F0F0"/>
						<stop  offset="0.3572" style="stop-color:#CECECE"/>
						<stop  offset="0.5246" style="stop-color:#B8B8B8"/>
						<stop  offset="0.7344" style="stop-color:#9A9A9A"/>
						<stop  offset="0.7915" style="stop-color:#7D7D7D"/>
						<stop  offset="0.8858" style="stop-color:#424242"/>
					</linearGradient>
					<path class="st17" d="M446.3,317.1c-7.4-7.4-140.1-136.4-140.1-136.4s-4.6-3.3-16.1-4.5c0.7,0,1.4,0,2.2,0
						c1.1,0,2.2,0.1,3.2,0.3c1.4,0.2,2.8,0.4,4.2,0.7c1.3,0.3,2.6,0.7,3.7,1.1c1.2,0.4,2.2,0.9,3.2,1.5c0.9,0.5,1.8,1.1,2.4,1.8
						l138.8,133.5c1.4,1.3,2.2,2.7,2.4,4.1s-0.1,2.7-0.9,4s-2.2,2.4-4,3.4c-1.2,0.7-2.6,1.2-4.1,1.7
						C446,325.5,450.5,321.3,446.3,317.1z"/>
				</g>
			</g>
		</g>
		<g>
			<g>
				
					<linearGradient id="SVGID_19_" gradientUnits="userSpaceOnUse" x1="1114.4856" y1="563.8734" x2="1264.756" y2="390.7337" gradientTransform="matrix(-1 0 0 1 1544.2816 -280)">
					<stop  offset="0" style="stop-color:#D3D3D3"/>
					<stop  offset="0.2185" style="stop-color:#A9A9A9"/>
					<stop  offset="0.5777" style="stop-color:#9A9A9A"/>
					<stop  offset="0.9343" style="stop-color:#7D7D7D"/>
					<stop  offset="1" style="stop-color:#424242"/>
				</linearGradient>
				<path class="st18" d="M364.8,147.2c-1.3-0.2-97.2-48.1-98.6-48c-1.4,0-3.6,2.2-4.9,4.3c-0.8,1.2-1.6,2-2.4,5.5
					c0,0-12.3,63-12.4,64.3c-0.1,1.3,0.4,2.6,1.5,3.8l140.8,148.8c0.8,0.8,1.7,1.6,2.8,2.2c1.1,0.7,2.4,1.3,3.7,1.8
					c1.4,0.5,2.9,1,4.4,1.4c1.6,0.4,3.3,0.7,5,0.9c1.5,0.2,3,0.3,4.5,0.4c1.5,0.1,3.1,0.1,4.7,0c1.6-0.1,3.1-0.2,4.7-0.4
					c1.6-0.2,3.1-0.5,4.6-0.8l93.2-20.6c3.2-0.7,6-1.7,8.2-2.8c2.2-1.1,3.9-2.5,5-3.9c1.1-1.4,1.6-2.9,1.5-4.4s-0.9-3-2.4-4.4
					l-149.8-143L364.8,147.2L364.8,147.2z"/>
			</g>
			<g>
				
					<linearGradient id="SVGID_20_" gradientUnits="userSpaceOnUse" x1="1211.343" y1="472.7559" x2="1192.661" y2="455.9115" gradientTransform="matrix(-1 0 0 1 1544.2816 -280)">
					<stop  offset="0" style="stop-color:#434343"/>
					<stop  offset="0.2523" style="stop-color:#8D8D8D"/>
					<stop  offset="0.411" style="stop-color:#DBDBDB"/>
					<stop  offset="0.5345" style="stop-color:#9A9A9A"/>
					<stop  offset="0.9343" style="stop-color:#7D7D7D"/>
					<stop  offset="1" style="stop-color:#424242"/>
				</linearGradient>
				<path class="st19" d="M263.8,113.3c-2.3-2-3.7-4-4.4-6.1c0.7-2.2,1.3-2.9,2-3.9c1.3-2,3.5-4.2,4.9-4.3c1.4,0,97.3,47.9,98.6,48
					l14.1,5.1l82.9,79.1l-40,11.4c0,0-20.2,13.2-22.3,13.2L263.8,113.3z"/>
			</g>
			
				<linearGradient id="SVGID_21_" gradientUnits="userSpaceOnUse" x1="1152.7467" y1="552.1843" x2="1134.5245" y2="554.0218" gradientTransform="matrix(-1 0 0 1 1544.2816 -280)">
				<stop  offset="0" style="stop-color:#C8C8C8"/>
				<stop  offset="0.2191" style="stop-color:#BBBBBB"/>
				<stop  offset="0.409" style="stop-color:#C7C7C7"/>
				<stop  offset="0.5531" style="stop-color:#E4E4E4"/>
				<stop  offset="0.7145" style="stop-color:#DADADA"/>
				<stop  offset="1" style="stop-color:#B2B2B2"/>
			</linearGradient>
			<path class="st20" d="M396.8,246.5c3.3,3.9,3.3,7.9,2.2,14.3l-8.6,66.4c0.8,0.8,0.2,0.2,1.3,0.9s2.1,1.3,3.4,2.1
				c1.3,0.7,2.8,1.3,4.3,1.9s3.1,0.9,5,1.3c1.4,0.3,3.5,0,5.1,0.1c1.5,0.1,12.4-1.7,13.9-2l93.2-20.6c3.2-0.7,6-1.7,8.2-2.8
				s3.9-2.5,5-3.9s1.6-2.9,1.5-4.4s-0.5-3.1-0.9-4.9l-12.6-63c-0.5-1.8-1.1-4.8-3.4-7.2L396.8,246.5z"/>
			<g>
				<g>
					
						<linearGradient id="SVGID_22_" gradientUnits="userSpaceOnUse" x1="1012.9692" y1="557.5285" x2="1138.6816" y2="557.5285" gradientTransform="matrix(-1 0 0 1 1544.2816 -280)">
						<stop  offset="0" style="stop-color:#C8C8C8"/>
						<stop  offset="0.2191" style="stop-color:#BBBBBB"/>
						<stop  offset="0.409" style="stop-color:#C7C7C7"/>
						<stop  offset="0.5531" style="stop-color:#E4E4E4"/>
						<stop  offset="0.7145" style="stop-color:#DADADA"/>
						<stop  offset="1" style="stop-color:#B2B2B2"/>
					</linearGradient>
					<path class="st21" d="M405.6,333.4c6.3,0.3,16.3-1.6,17.8-1.9l93.2-20.7c3.2-0.7,6-1.7,8.2-2.8c2.2-1.1,3.9-2.5,5-3.9
						c1.1-1.4,1.6-2.9,1.5-4.4s-0.5-3.1-0.9-4.9l-12.5-63c-0.5-1.8-1.9-7.4-4.1-10.1l-91.2,30.2c-7.8,0.4-14,1.5-14.5,7.5
						L405.6,333.4z"/>
				</g>
			</g>
			<g>
				<g>
					
						<linearGradient id="SVGID_23_" gradientUnits="userSpaceOnUse" x1="1019.8525" y1="542.3957" x2="1138.0951" y2="566.0858" gradientTransform="matrix(-1 0 0 1 1544.2816 -280)">
						<stop  offset="0" style="stop-color:#DCDCDC"/>
						<stop  offset="2.656040e-002" style="stop-color:#F9F9F9"/>
						<stop  offset="4.714480e-002" style="stop-color:#C8C8C8"/>
						<stop  offset="0.2191" style="stop-color:#BBBBBB"/>
						<stop  offset="0.409" style="stop-color:#C7C7C7"/>
						<stop  offset="0.5531" style="stop-color:#E4E4E4"/>
						<stop  offset="0.7145" style="stop-color:#DADADA"/>
						<stop  offset="1" style="stop-color:#B2B2B2"/>
					</linearGradient>
					<path class="st22" d="M507.4,231.7l-7.7-5.4l14-4.6c2.2,2.7,3.6,8.3,4.1,10.1l12.5,63c0.4,1.8,0.8,3.4,0.9,4.9
						c0.1,1.5-0.4,3-1.5,4.4c-0.1,0.1-0.1,0.1-0.2,0.2c-2.4-12.4-13-66.5-14.4-70.1C513.5,230.1,507.4,231.7,507.4,231.7z"/>
				</g>
				
					<linearGradient id="SVGID_24_" gradientUnits="userSpaceOnUse" x1="995.7004" y1="533.8677" x2="1332.271" y2="354.0847" gradientTransform="matrix(-1 0 0 1 1544.2816 -280)">
					<stop  offset="0" style="stop-color:#F2F2F2"/>
					<stop  offset="0.2185" style="stop-color:#D7D7D7"/>
					<stop  offset="0.2835" style="stop-color:#E9E9E9"/>
					<stop  offset="0.3572" style="stop-color:#E8E8E8"/>
					<stop  offset="0.512" style="stop-color:#DDDDDD"/>
					<stop  offset="0.6248" style="stop-color:#B6B6B6"/>
					<stop  offset="0.6746" style="stop-color:#BABABA"/>
					<stop  offset="0.7344" style="stop-color:#9A9A9A"/>
					<stop  offset="0.7915" style="stop-color:#AAAAAA"/>
					<stop  offset="0.8858" style="stop-color:#585858"/>
				</linearGradient>
				<path class="st23" d="M360.1,81.7c1.4,0.2,2.8,0.4,4.1,0.7c1.3,0.3,2.6,0.7,3.7,1.1c1.2,0.4,2.2,0.9,3.2,1.5
					c0.9,0.5,1.8,1.1,2.4,1.8l138.8,133.5c1.4,1.3,2.2,2.7,2.4,4.1s-0.1,2.7-0.9,4c-0.8,1.3-2.2,2.4-4,3.4s-4.1,1.8-6.8,2.4
					l-77.7,17c-1.2,0.3-2.4,0.5-3.6,0.6c-1.2,0.1-2.4,0.2-3.6,0.3c-1.2,0-2.4,0-3.7,0c-1.2-0.1-2.4-0.2-3.6-0.3
					c-1.6-0.2-3.2-0.5-4.7-0.9s-2.9-0.8-4.2-1.4c-1.3-0.5-2.5-1.1-3.6-1.8c-1.1-0.7-2-1.4-2.7-2.2l-131.8-138
					c-1.1-1.2-1.6-2.4-1.6-3.5c0-1.2,0.5-2.3,1.5-3.4c1-1.1,2.4-2.1,4.2-2.9s4.1-1.5,6.6-2l72.4-13.6c1.1-0.2,2.1-0.4,3.2-0.5
					c1.1-0.1,2.2-0.2,3.3-0.2s2.2,0,3.3,0C358,81.5,359,81.6,360.1,81.7L360.1,81.7z"/>
			</g>
			<g>
				
					<linearGradient id="SVGID_25_" gradientUnits="userSpaceOnUse" x1="1288.4611" y1="372.8029" x2="1134.1067" y2="536.6514" gradientTransform="matrix(-1 0 0 1 1544.2816 -280)">
					<stop  offset="0" style="stop-color:#838383"/>
					<stop  offset="0.2185" style="stop-color:#C9C9C9"/>
					<stop  offset="0.3572" style="stop-color:#CECECE"/>
					<stop  offset="0.512" style="stop-color:#D1D1D1"/>
					<stop  offset="0.6972" style="stop-color:#C3C3C3"/>
					<stop  offset="0.8977" style="stop-color:#B5B5B5"/>
					<stop  offset="0.996" style="stop-color:#A9A9A9"/>
				</linearGradient>
				<path class="st24" d="M394.7,241.1c5.2,5,11.3,8.5,16.5,10.7c-0.1,0-0.1,0-0.2,0c-1.6-0.2-3.2-0.5-4.7-0.9s-2.9-0.8-4.2-1.4
					c-1.3-0.5-2.5-1.1-3.6-1.8c-1.1-0.7-2-1.4-2.7-2.2L264,107.5c-1.1-1.2-1.6-2.4-1.6-3.5c0-0.6,0.1-1.2,0.4-1.8
					C286.2,128.3,384,230.7,394.7,241.1z"/>
			</g>
			<g>
				
					<linearGradient id="SVGID_26_" gradientUnits="userSpaceOnUse" x1="1093.0697" y1="532.0645" x2="1129.8202" y2="311.4846" gradientTransform="matrix(-1 0 0 1 1544.2816 -280)">
					<stop  offset="0" style="stop-color:#F0F0F0"/>
					<stop  offset="0.3572" style="stop-color:#CECECE"/>
					<stop  offset="0.5246" style="stop-color:#B8B8B8"/>
					<stop  offset="0.7344" style="stop-color:#9A9A9A"/>
					<stop  offset="0.7915" style="stop-color:#7D7D7D"/>
					<stop  offset="0.8858" style="stop-color:#424242"/>
				</linearGradient>
				<path class="st25" d="M510.9,222.3C503.5,215,370.8,86,370.8,86s-4.6-3.3-16.1-4.5c0.7,0,1.4,0,2.2,0c1.1,0.1,2.2,0.1,3.2,0.3
					c1.4,0.2,2.8,0.4,4.1,0.7c1.3,0.3,2.6,0.7,3.7,1.1c1.2,0.4,2.2,0.9,3.2,1.5c0.9,0.5,1.8,1.1,2.4,1.8l138.8,133.5
					c1.4,1.3,2.2,2.7,2.4,4.1c0.2,1.4-0.1,2.7-0.9,4c-0.8,1.3-2.2,2.4-4,3.4c-1.2,0.7-2.6,1.2-4.1,1.7
					C510.5,230.7,515.1,226.5,510.9,222.3z"/>
			</g>
		</g>
		<g>
			<g>
				
					<linearGradient id="SVGID_27_" gradientUnits="userSpaceOnUse" x1="1316.804" y1="700.3251" x2="1447.1332" y2="550.1616" gradientTransform="matrix(-1 0 0 1 1544.2816 -280)">
					<stop  offset="0" style="stop-color:#A9A9A9"/>
					<stop  offset="0.4004" style="stop-color:#9A9A9A"/>
					<stop  offset="0.7862" style="stop-color:#7D7D7D"/>
					<stop  offset="1" style="stop-color:#424242"/>
				</linearGradient>
				<path class="st26" d="M155.4,275.6c-1.3-0.2-12.8-3.2-14.2-3.1c-1.4,0-3.6,2.2-4.9,4.3c-0.8,1.2-1.6,2-2.4,5.5
					c0,0-96.6,18.1-96.7,19.4s0.4,2.6,1.5,3.8l140.7,148.7c0.8,0.8,1.7,1.6,2.8,2.2c1.1,0.7,2.4,1.3,3.7,1.8c1.4,0.5,2.9,1,4.4,1.4
					c1.6,0.4,3.3,0.7,5,0.9c1.5,0.2,3,0.3,4.5,0.4s3.1,0.1,4.7,0s3.1-0.2,4.7-0.4s3.1-0.5,4.6-0.8l93.2-20.6c3.2-0.7,6-1.7,8.2-2.8
					s3.9-2.5,5-3.9s1.6-2.9,1.5-4.4s-0.9-3-2.4-4.4l-149.8-143L155.4,275.6L155.4,275.6z"/>
			</g>
			<g>
				<g>
					
						<linearGradient id="SVGID_28_" gradientUnits="userSpaceOnUse" x1="1323.8956" y1="689.5325" x2="1474.1643" y2="516.3949" gradientTransform="matrix(-1 0 0 1 1544.2816 -280)">
						<stop  offset="0" style="stop-color:#D3D3D3"/>
						<stop  offset="0.2185" style="stop-color:#A9A9A9"/>
						<stop  offset="0.5777" style="stop-color:#9A9A9A"/>
						<stop  offset="0.7862" style="stop-color:#797979"/>
						<stop  offset="1" style="stop-color:#595959"/>
					</linearGradient>
					<path class="st27" d="M155.4,272.9c-1.3-0.2-97.2-48.1-98.6-48c-1.4,0-3.6,2.2-4.9,4.3c-0.8,1.2-1.6,2-2.4,5.5
						c0,0-12.3,63-12.4,64.3c-0.1,1.3,0.4,2.6,1.5,3.8l140.8,148.8c0.8,0.8,1.7,1.6,2.8,2.2c1.1,0.7,2.4,1.3,3.7,1.8
						c1.4,0.5,2.9,1,4.4,1.4c1.6,0.4,3.3,0.7,5,0.9c1.5,0.2,3,0.3,4.5,0.4s3.1,0.1,4.7,0s3.1-0.2,4.7-0.4s3.1-0.5,4.6-0.8l93.2-20.6
						c3.2-0.7,6-1.7,8.2-2.8s3.9-2.5,5-3.9s1.6-2.9,1.5-4.4s-0.9-3-2.4-4.5l-149.8-143L155.4,272.9L155.4,272.9z"/>
				</g>
				<g>
					
						<linearGradient id="SVGID_29_" gradientUnits="userSpaceOnUse" x1="1420.8405" y1="598.4538" x2="1402.1584" y2="581.6093" gradientTransform="matrix(-1 0 0 1 1544.2816 -280)">
						<stop  offset="0" style="stop-color:#434343"/>
						<stop  offset="0.2523" style="stop-color:#EFEFEF"/>
						<stop  offset="0.411" style="stop-color:#DBDBDB"/>
						<stop  offset="0.5345" style="stop-color:#9A9A9A"/>
						<stop  offset="0.9343" style="stop-color:#7D7D7D"/>
						<stop  offset="1" style="stop-color:#424242"/>
					</linearGradient>
					<path class="st28" d="M54.3,239c-2.3-2-3.7-4-4.4-6.1c0.7-2.2,1.3-2.9,2-3.9c1.3-2,3.5-4.2,4.9-4.3c1.4,0,97.3,47.9,98.6,48
						l14.1,5.1l82.9,79.1l-40,11.4c0,0-20.2,13.2-22.2,13.2L54.3,239z"/>
				</g>
				
					<linearGradient id="SVGID_30_" gradientUnits="userSpaceOnUse" x1="1362.2246" y1="677.8851" x2="1344.0023" y2="679.7226" gradientTransform="matrix(-1 0 0 1 1544.2816 -280)">
					<stop  offset="0" style="stop-color:#C8C8C8"/>
					<stop  offset="0.2191" style="stop-color:#BBBBBB"/>
					<stop  offset="0.409" style="stop-color:#C7C7C7"/>
					<stop  offset="0.5531" style="stop-color:#E4E4E4"/>
					<stop  offset="0.7145" style="stop-color:#DADADA"/>
					<stop  offset="1" style="stop-color:#B2B2B2"/>
				</linearGradient>
				<path class="st29" d="M187.3,372.2c3.3,3.9,3.3,7.9,2.2,14.3l-8.6,66.4c0.8,0.8,0.2,0.2,1.3,0.9s2.1,1.3,3.4,2.1
					c1.3,0.7,2.8,1.3,4.3,1.9s3.1,0.9,5,1.3c1.5,0.3,3.5,0,5.1,0.1c1.5,0.1,12.4-1.7,13.9-2l93.2-20.6c3.2-0.7,6-1.7,8.2-2.8
					s3.9-2.5,5-3.9s1.6-2.9,1.5-4.4s-0.5-3.1-0.9-4.9l-12.6-63c-0.5-1.8-1.1-4.8-3.4-7.2L187.3,372.2z"/>
				<g>
					<g>
						
							<linearGradient id="SVGID_31_" gradientUnits="userSpaceOnUse" x1="1222.4691" y1="683.2285" x2="1348.1816" y2="683.2285" gradientTransform="matrix(-1 0 0 1 1544.2816 -280)">
							<stop  offset="0" style="stop-color:#C8C8C8"/>
							<stop  offset="0.2191" style="stop-color:#BBBBBB"/>
							<stop  offset="0.409" style="stop-color:#C7C7C7"/>
							<stop  offset="0.5531" style="stop-color:#E4E4E4"/>
							<stop  offset="0.7145" style="stop-color:#DADADA"/>
							<stop  offset="1" style="stop-color:#B2B2B2"/>
						</linearGradient>
						<path class="st30" d="M196.1,459.1c6.3,0.3,16.3-1.6,17.8-1.9l93.2-20.7c3.2-0.7,6-1.7,8.2-2.8c2.2-1.2,3.9-2.5,5-3.9
							s1.6-2.9,1.5-4.4s-0.5-3.1-0.9-4.9l-12.5-63c-0.5-1.8-1.9-7.4-4.1-10.1l-91.2,30.2c-7.8,0.4-14,1.5-14.5,7.5L196.1,459.1z"/>
					</g>
				</g>
				<g>
					<g>
						
							<linearGradient id="SVGID_32_" gradientUnits="userSpaceOnUse" x1="1229.3158" y1="668.2084" x2="1347.5219" y2="691.8912" gradientTransform="matrix(-1 0 0 1 1544.2816 -280)">
							<stop  offset="0" style="stop-color:#DCDCDC"/>
							<stop  offset="2.656040e-002" style="stop-color:#F9F9F9"/>
							<stop  offset="4.714480e-002" style="stop-color:#C8C8C8"/>
							<stop  offset="0.2191" style="stop-color:#BBBBBB"/>
							<stop  offset="0.409" style="stop-color:#C7C7C7"/>
							<stop  offset="0.5531" style="stop-color:#E4E4E4"/>
							<stop  offset="0.7145" style="stop-color:#DADADA"/>
							<stop  offset="1" style="stop-color:#B2B2B2"/>
						</linearGradient>
						<path class="st31" d="M297.9,357.5l-7.6-5.4l14-4.6c2.2,2.7,3.6,8.3,4.1,10.1l12.5,63c0.4,1.8,0.8,3.4,0.9,4.9s-0.4,3-1.5,4.4
							c-0.1,0.1-0.1,0.1-0.2,0.2c-2.4-12.4-13-66.5-14.4-70.1C304,355.8,297.9,357.5,297.9,357.5z"/>
					</g>
					
						<linearGradient id="SVGID_33_" gradientUnits="userSpaceOnUse" x1="1220.3715" y1="662.5204" x2="1519.3114" y2="480.6478" gradientTransform="matrix(-1 0 0 1 1544.2816 -280)">
						<stop  offset="0" style="stop-color:#F2F2F2"/>
						<stop  offset="0.2185" style="stop-color:#D7D7D7"/>
						<stop  offset="0.2835" style="stop-color:#E9E9E9"/>
						<stop  offset="0.3572" style="stop-color:#E8E8E8"/>
						<stop  offset="0.512" style="stop-color:#DDDDDD"/>
						<stop  offset="0.6248" style="stop-color:#B6B6B6"/>
						<stop  offset="0.6746" style="stop-color:#BABABA"/>
						<stop  offset="0.7344" style="stop-color:#9A9A9A"/>
						<stop  offset="0.7915" style="stop-color:#AAAAAA"/>
						<stop  offset="0.8858" style="stop-color:#585858"/>
					</linearGradient>
					<path class="st32" d="M150.6,207.5c1.4,0.2,2.8,0.4,4.2,0.7c1.3,0.3,2.6,0.7,3.7,1.1c1.2,0.4,2.2,0.9,3.2,1.5
						c0.9,0.5,1.8,1.1,2.4,1.8l138.8,133.5c1.4,1.3,2.2,2.7,2.4,4.1s-0.1,2.7-0.9,4s-2.2,2.4-4,3.4s-4.1,1.8-6.8,2.4l-77.7,17
						c-1.2,0.3-2.4,0.5-3.6,0.6s-2.4,0.2-3.7,0.3c-1.2,0-2.4,0-3.6,0c-1.2-0.1-2.4-0.2-3.6-0.3c-1.6-0.2-3.2-0.5-4.7-0.9
						s-2.9-0.8-4.2-1.4c-1.3-0.5-2.5-1.1-3.6-1.8c-1.1-0.7-2-1.4-2.7-2.2l-131.8-138c-1.1-1.2-1.6-2.4-1.6-3.5
						c0-1.2,0.5-2.3,1.5-3.4c1-1.1,2.4-2.1,4.2-2.9c1.8-0.8,4.1-1.5,6.6-2l72.4-13.6c1.1-0.2,2.1-0.4,3.2-0.5
						c1.1-0.1,2.2-0.2,3.3-0.2s2.2,0,3.3,0C148.5,207.2,149.6,207.3,150.6,207.5L150.6,207.5z"/>
				</g>
				<g>
					
						<linearGradient id="SVGID_34_" gradientUnits="userSpaceOnUse" x1="1497.99" y1="498.5724" x2="1343.6351" y2="662.4211" gradientTransform="matrix(-1 0 0 1 1544.2816 -280)">
						<stop  offset="0" style="stop-color:#838383"/>
						<stop  offset="0.2185" style="stop-color:#C9C9C9"/>
						<stop  offset="0.3572" style="stop-color:#CECECE"/>
						<stop  offset="0.512" style="stop-color:#D1D1D1"/>
						<stop  offset="0.6972" style="stop-color:#C3C3C3"/>
						<stop  offset="0.8977" style="stop-color:#B5B5B5"/>
						<stop  offset="0.996" style="stop-color:#A9A9A9"/>
					</linearGradient>
					<path class="st33" d="M185.2,366.8c5.2,5,11.3,8.5,16.5,10.8c-0.1,0-0.1,0-0.2,0c-1.6-0.2-3.2-0.5-4.7-0.9
						c-1.5-0.4-2.9-0.8-4.2-1.4c-1.3-0.5-2.5-1.1-3.6-1.8s-2-1.4-2.7-2.2l-131.8-138c-1.1-1.2-1.6-2.4-1.6-3.5
						c0-0.6,0.1-1.2,0.4-1.8C76.7,254,174.5,356.4,185.2,366.8z"/>
				</g>
				<g>
					
						<linearGradient id="SVGID_35_" gradientUnits="userSpaceOnUse" x1="1302.5172" y1="657.7792" x2="1339.2681" y2="437.1983" gradientTransform="matrix(-1 0 0 1 1544.2816 -280)">
						<stop  offset="0" style="stop-color:#F0F0F0"/>
						<stop  offset="0.3572" style="stop-color:#CECECE"/>
						<stop  offset="0.5246" style="stop-color:#B8B8B8"/>
						<stop  offset="0.7344" style="stop-color:#9A9A9A"/>
						<stop  offset="0.7915" style="stop-color:#7D7D7D"/>
						<stop  offset="0.8858" style="stop-color:#424242"/>
					</linearGradient>
					<path class="st34" d="M301.4,348.1c-7.4-7.4-140.1-136.4-140.1-136.4s-4.6-3.3-16.1-4.5c0.7,0,1.4,0,2.2,0
						c1.1,0,2.2,0.1,3.2,0.3c1.4,0.2,2.8,0.4,4.2,0.7c1.3,0.3,2.6,0.7,3.7,1.1c1.2,0.4,2.2,0.9,3.2,1.5c0.9,0.5,1.8,1.1,2.4,1.8
						l138.8,133.5c1.4,1.3,2.2,2.7,2.4,4.1s-0.1,2.7-0.9,4s-2.2,2.4-4,3.4c-1.2,0.7-2.6,1.2-4.2,1.7
						C301,356.5,305.6,352.3,301.4,348.1z"/>
				</g>
			</g>
			<g class="st35">
				
					<linearGradient id="SVGID_36_" gradientUnits="userSpaceOnUse" x1="1370.3187" y1="628.7397" x2="1367.5978" y2="510.3813" gradientTransform="matrix(-1 0 0 1 1544.2816 -280)">
					<stop  offset="0" style="stop-color:#D3D3D3"/>
					<stop  offset="0.2185" style="stop-color:#A9A9A9"/>
					<stop  offset="0.3572" style="stop-color:#D1D1D1"/>
					<stop  offset="0.512" style="stop-color:#DDDDDD"/>
					<stop  offset="0.6248" style="stop-color:#B6B6B6"/>
					<stop  offset="0.7344" style="stop-color:#9A9A9A"/>
					<stop  offset="0.7915" style="stop-color:#7D7D7D"/>
					<stop  offset="0.8858" style="stop-color:#424242"/>
				</linearGradient>
				<path class="st36" d="M169.1,245.9c0.2,0,0.3-0.1,0.5-0.1c3-0.5,5.7-0.6,8.2-0.4s4.7,0.7,6.7,1.5s3.6,1.8,4.7,3s1.6,2.3,1.4,3.4
					c-0.2,1.1-0.9,2.1-2.3,2.9c-1.4,0.8-3.2,1.4-5.6,1.8c-0.1,0-0.2,0-0.3,0c-1.6,0.3-3.4,0.5-5.4,0.6c-2,0.1-3.8,0.1-5.5,0.1
					c-0.4-0.7-0.9-1.3-1.4-1.8s-1-1-1.6-1.4l-1.5-0.2l-0.4-0.4c0.8-0.1,1.7-0.2,2.7-0.4c0.3,0,0.5-0.1,0.9-0.1
					c1.1-0.2,2.6-0.5,4.5-0.8l0.5,0.5l-1.8,0.4c-1,0.2-1.5,0.3-1.6,0.4s-0.1,0.1,0,0.2s0.4,0.5,1.1,1.2c0.5,0.5,1,1,1.5,1.5
					c2.4,0.1,4.4,0,6.2-0.3c0.1,0,0.2,0,0.2,0c3.2-0.6,5.1-1.6,5.9-3.1c0.6-1.3,0.2-2.7-1.2-4.3c-1.5-1.6-3.6-2.7-6.3-3.4
					c-2.5-0.6-5.3-0.7-8.4-0.2c-0.1,0-0.2,0-0.3,0.1c-1.6,0.3-3,0.7-4,1.1c-1.1,0.5-1.8,0.9-1.9,1.1c-0.1,0.1,0.1,0.5,0.7,1l0.5,0.6
					l-1,0.2c-1.2-1-2.2-1.8-3-2.4l1.2-0.4c1.4-0.5,2.6-0.9,3.6-1.2C167.2,246.2,168.1,246,169.1,245.9L169.1,245.9z"/>
				
					<linearGradient id="SVGID_37_" gradientUnits="userSpaceOnUse" x1="1394.828" y1="628.1912" x2="1392.1067" y2="509.8168" gradientTransform="matrix(-1 0 0 1 1544.2816 -280)">
					<stop  offset="0" style="stop-color:#D3D3D3"/>
					<stop  offset="0.2185" style="stop-color:#A9A9A9"/>
					<stop  offset="0.3572" style="stop-color:#D1D1D1"/>
					<stop  offset="0.512" style="stop-color:#DDDDDD"/>
					<stop  offset="0.6248" style="stop-color:#B6B6B6"/>
					<stop  offset="0.7344" style="stop-color:#9A9A9A"/>
					<stop  offset="0.7915" style="stop-color:#7D7D7D"/>
					<stop  offset="0.8858" style="stop-color:#424242"/>
				</linearGradient>
				<path class="st37" d="M156.6,261.3c-0.1,0-0.1,0-0.2,0c-1.6,0.3-3.3,0.3-4.9,0.1c-1.6-0.2-3.1-0.6-4.6-1.3s-2.7-1.6-3.8-2.7
					c-1.1-1.2-1.7-2.3-1.7-3.3s0.5-1.8,1.4-2.4c0.9-0.6,2.3-1.1,4-1.4c0.1,0,0.1,0,0.2,0c1.7-0.3,3.3-0.3,4.9-0.2
					c1.6,0.2,3.1,0.6,4.5,1.2s2.5,1.4,3.4,2.4c1.2,1.3,1.8,2.5,1.9,3.5c0.1,1.1-0.4,2-1.3,2.7C159.6,260.6,158.3,261.1,156.6,261.3
					L156.6,261.3z M145.2,249.8c-3.5,0.6-5.8,1.6-6.8,2.9c-1.1,1.4-0.8,3,0.8,4.7c1.8,1.9,4.5,3.3,8.1,4.1c3.6,0.9,7.3,1,11,0.4
					c0.1,0,0.2,0,0.2,0c2.2-0.4,3.9-0.9,5-1.7c1.2-0.8,1.8-1.7,1.9-2.8c0.1-1.1-0.5-2.3-1.6-3.5c-1.7-1.9-4.3-3.2-7.6-3.9
					c-3.3-0.8-6.9-0.8-10.6-0.2C145.5,249.7,145.3,249.8,145.2,249.8L145.2,249.8z"/>
				
					<linearGradient id="SVGID_38_" gradientUnits="userSpaceOnUse" x1="1413.9055" y1="627.7503" x2="1411.1842" y2="509.374" gradientTransform="matrix(-1 0 0 1 1544.2816 -280)">
					<stop  offset="0" style="stop-color:#D3D3D3"/>
					<stop  offset="0.2185" style="stop-color:#A9A9A9"/>
					<stop  offset="0.3572" style="stop-color:#D1D1D1"/>
					<stop  offset="0.512" style="stop-color:#DDDDDD"/>
					<stop  offset="0.6248" style="stop-color:#B6B6B6"/>
					<stop  offset="0.7344" style="stop-color:#9A9A9A"/>
					<stop  offset="0.7915" style="stop-color:#7D7D7D"/>
					<stop  offset="0.8858" style="stop-color:#424242"/>
				</linearGradient>
				<path class="st38" d="M122.8,253.6c1.9-0.3,3.5-0.5,4.6-0.7c0.3,0,0.7-0.1,1.2-0.2c0.9-0.2,2.2-0.4,3.8-0.7l0.5,0.5l-1.7,0.3
					c0,0,0,0-0.1,0c-0.7,0.1-1,0.3-1,0.5c0,0.2,0.8,1.2,2.4,2.9l4.4,4.6c1.5,1.6,2.4,2.4,2.8,2.6s1.1,0.3,2.1,0.4l0.4,0.5
					c-2.2,0.3-3.8,0.5-4.9,0.7l-7.5,1.3c-1.7,0.3-3,0.4-4,0.5c-1-0.9-2.2-1.9-3.4-2.9l1.1-0.2l2.8,1.8c0.9,0,1.8-0.1,2.7-0.2
					c1.2-0.1,2.8-0.4,4.8-0.7c0.4-0.1,0.7-0.1,1.1-0.2c0.6-0.1,1.3-0.2,2-0.4l-0.5-0.5l-2.2-2.4l-5.1-5.4c-1.2-1.3-1.9-2-2.2-2.1
					c-0.3-0.2-0.7-0.2-1.3-0.1l-2,0.3L122.8,253.6L122.8,253.6z"/>
				
					<linearGradient id="SVGID_39_" gradientUnits="userSpaceOnUse" x1="1438.5287" y1="627.1679" x2="1435.808" y2="508.8166" gradientTransform="matrix(-1 0 0 1 1544.2816 -280)">
					<stop  offset="0" style="stop-color:#D3D3D3"/>
					<stop  offset="0.2185" style="stop-color:#A9A9A9"/>
					<stop  offset="0.3572" style="stop-color:#D1D1D1"/>
					<stop  offset="0.512" style="stop-color:#DDDDDD"/>
					<stop  offset="0.6248" style="stop-color:#B6B6B6"/>
					<stop  offset="0.7344" style="stop-color:#9A9A9A"/>
					<stop  offset="0.7915" style="stop-color:#7D7D7D"/>
					<stop  offset="0.8858" style="stop-color:#424242"/>
				</linearGradient>
				<path class="st39" d="M113.4,268.2c-0.1,0-0.2,0-0.3,0.1c-3,0.5-5.7,0.5-8.1-0.1c-2.9-0.7-5.3-1.9-7-3.8c-1.5-1.6-1.9-3-1-4.2
					c0.8-1.1,2.8-1.9,5.8-2.4c0.1,0,0.2,0,0.3,0c1.1-0.2,2.5-0.3,4.2-0.5c0.6,0.5,1.3,1.1,1.9,1.8l5.2,5.5c1,1,1.8,2,2.5,2.9
					C115.5,267.8,114.4,268.1,113.4,268.2L113.4,268.2z M100.5,257.3c-1.2,0.2-2.4,0.5-3.5,0.8c-1.3,0.4-2.4,0.9-3.1,1.6
					c-0.8,0.7-1.1,1.4-1.1,2.2c0,0.8,0.5,1.7,1.4,2.6c1.8,1.9,4.5,3.3,8.1,4.1s7.4,1,11.3,0.3l1.9-0.3c1.9-0.4,3.1-0.6,3.6-0.7
					c0.9-0.1,2-0.3,3.4-0.4l-0.4-0.4l-1.9-0.2c-1-0.8-2.5-2.4-4.6-4.5l-2.3-2.5c-0.9-1-1.7-1.9-2.2-2.6c-0.3-0.4-0.4-0.7-0.4-0.8
					c0.1-0.1,0.4-0.2,1.1-0.4l1.2-0.3l-0.5-0.5c-1.3,0.2-2.2,0.4-2.9,0.5c-0.2,0-0.4,0.1-0.6,0.1l-4.3,0.7l-3.5,0.5
					C100.9,257.2,100.7,257.3,100.5,257.3L100.5,257.3z"/>
			</g>
			<g class="st35">
				
					<linearGradient id="SVGID_40_" gradientUnits="userSpaceOnUse" x1="1353.7736" y1="532.5642" x2="1382.7792" y2="532.5642" gradientTransform="matrix(-1 0 0 1 1544.2816 -280)">
					<stop  offset="0" style="stop-color:#D3D3D3"/>
					<stop  offset="0.2185" style="stop-color:#CBCBCB"/>
					<stop  offset="0.3572" style="stop-color:#D1D1D1"/>
					<stop  offset="0.7112" style="stop-color:#DDDDDD"/>
					<stop  offset="0.994" style="stop-color:#B6B6B6"/>
				</linearGradient>
				<path class="st40" d="M169,246.5c0.2,0,0.3-0.1,0.5-0.1c3-0.5,5.7-0.6,8.2-0.4s4.7,0.7,6.7,1.5s3.6,1.8,4.7,3s1.6,2.3,1.4,3.4
					c-0.2,1.1-0.9,2.1-2.3,2.9c-1.4,0.8-3.2,1.4-5.6,1.8c-0.1,0-0.2,0-0.3,0c-1.6,0.3-3.4,0.5-5.4,0.6s-3.8,0.1-5.5,0.1
					c-0.4-0.7-0.9-1.3-1.4-1.8s-1-1-1.6-1.4l-1.5-0.2l-0.4-0.4c0.8-0.1,1.7-0.2,2.7-0.4c0.3,0,0.5-0.1,0.9-0.1
					c1.1-0.2,2.6-0.5,4.5-0.8l0.5,0.5l-1.8,0.4c-1,0.2-1.5,0.3-1.6,0.4c-0.1,0-0.1,0.1,0,0.2s0.4,0.5,1.1,1.2c0.5,0.5,1,1,1.5,1.5
					c2.4,0.1,4.4,0,6.2-0.3c0.1,0,0.2,0,0.2,0c3.2-0.6,5.1-1.6,5.9-3.1c0.6-1.3,0.2-2.7-1.2-4.3c-1.5-1.6-3.6-2.7-6.3-3.4
					c-2.5-0.6-5.3-0.7-8.5-0.2c-0.1,0-0.2,0-0.3,0.1c-1.6,0.3-3,0.7-4,1.1c-1.1,0.5-1.7,0.9-1.9,1.1c-0.1,0.1,0.1,0.5,0.7,1l0.5,0.6
					l-1,0.2c-1.2-1-2.2-1.8-3-2.4l1.2-0.4c1.4-0.5,2.6-0.9,3.6-1.2C167.1,246.9,168,246.7,169,246.5L169,246.5z"/>
				
					<linearGradient id="SVGID_41_" gradientUnits="userSpaceOnUse" x1="1378.9708" y1="536.4877" x2="1406.6361" y2="536.4877" gradientTransform="matrix(-1 0 0 1 1544.2816 -280)">
					<stop  offset="0" style="stop-color:#D3D3D3"/>
					<stop  offset="0.2185" style="stop-color:#CBCBCB"/>
					<stop  offset="0.3572" style="stop-color:#D1D1D1"/>
					<stop  offset="0.7112" style="stop-color:#DDDDDD"/>
					<stop  offset="0.994" style="stop-color:#B6B6B6"/>
				</linearGradient>
				<path class="st41" d="M156.5,262c-0.1,0-0.1,0-0.2,0c-1.7,0.3-3.3,0.3-4.9,0.1c-1.6-0.2-3.1-0.6-4.6-1.3s-2.7-1.6-3.8-2.7
					c-1.1-1.2-1.7-2.3-1.7-3.3s0.5-1.8,1.4-2.4s2.3-1.1,4-1.4c0.1,0,0.1,0,0.2,0c1.7-0.3,3.3-0.3,4.9-0.2c1.6,0.2,3.1,0.6,4.5,1.2
					c1.4,0.6,2.5,1.4,3.4,2.4c1.2,1.3,1.8,2.5,1.9,3.5c0.1,1.1-0.4,2-1.3,2.7C159.4,261.2,158.1,261.7,156.5,262L156.5,262z
					 M145.1,250.5c-3.5,0.6-5.8,1.6-6.8,2.9c-1.1,1.4-0.8,3,0.8,4.7c1.8,1.9,4.5,3.3,8.1,4.1c3.6,0.9,7.3,1,11,0.4
					c0.1,0,0.2,0,0.2,0c2.2-0.4,3.9-0.9,5-1.7c1.2-0.8,1.8-1.7,1.9-2.8c0.1-1.1-0.5-2.3-1.6-3.5c-1.7-1.9-4.3-3.2-7.6-3.9
					c-3.3-0.8-6.9-0.8-10.6-0.2C145.3,250.4,145.2,250.4,145.1,250.5L145.1,250.5z"/>
				
					<linearGradient id="SVGID_42_" gradientUnits="userSpaceOnUse" x1="1402.2501" y1="540.0125" x2="1422.1211" y2="540.0125" gradientTransform="matrix(-1 0 0 1 1544.2816 -280)">
					<stop  offset="0" style="stop-color:#D3D3D3"/>
					<stop  offset="0.2185" style="stop-color:#CBCBCB"/>
					<stop  offset="0.3572" style="stop-color:#D1D1D1"/>
					<stop  offset="0.7112" style="stop-color:#DDDDDD"/>
					<stop  offset="0.994" style="stop-color:#B6B6B6"/>
				</linearGradient>
				<path class="st42" d="M122.7,254.3c1.9-0.3,3.5-0.5,4.6-0.7c0.3,0,0.7-0.1,1.2-0.2c0.9-0.2,2.2-0.4,3.8-0.7l0.5,0.5l-1.7,0.3
					c0,0,0,0-0.1,0c-0.7,0.1-1,0.3-1,0.5c0,0.2,0.8,1.2,2.4,2.9l4.4,4.6c1.5,1.6,2.4,2.4,2.7,2.6c0.4,0.2,1.1,0.3,2.1,0.4l0.4,0.4
					c-2.2,0.3-3.8,0.5-4.9,0.7l-7.5,1.3c-1.7,0.3-3,0.4-4,0.5c-1-0.9-2.2-1.9-3.4-2.9l1.1-0.2l2.8,1.8c0.9,0,1.8-0.1,2.7-0.2
					c1.2-0.1,2.8-0.4,4.8-0.7c0.4-0.1,0.7-0.1,1.1-0.2c0.6-0.1,1.3-0.2,2-0.4l-0.5-0.5l-2.2-2.4l-5-5.4c-1.2-1.3-1.9-2-2.3-2.1
					c-0.3-0.1-0.7-0.2-1.3-0.1l-2,0.3L122.7,254.3L122.7,254.3z"/>
				
					<linearGradient id="SVGID_43_" gradientUnits="userSpaceOnUse" x1="1421.932" y1="542.9765" x2="1451.5836" y2="542.9765" gradientTransform="matrix(-1 0 0 1 1544.2816 -280)">
					<stop  offset="0" style="stop-color:#D3D3D3"/>
					<stop  offset="0.2185" style="stop-color:#CBCBCB"/>
					<stop  offset="0.3572" style="stop-color:#D1D1D1"/>
					<stop  offset="0.7112" style="stop-color:#DDDDDD"/>
					<stop  offset="0.994" style="stop-color:#B6B6B6"/>
				</linearGradient>
				<path class="st43" d="M113.2,268.9c-0.1,0-0.2,0-0.3,0.1c-3,0.5-5.7,0.5-8.1-0.1c-2.9-0.7-5.3-1.9-7-3.8c-1.5-1.6-1.9-3-1-4.2
					c0.8-1.1,2.8-1.9,5.8-2.4c0.1,0,0.2,0,0.3,0c1.1-0.2,2.5-0.3,4.1-0.5c0.6,0.5,1.3,1.1,1.9,1.8l5.2,5.5c1,1,1.8,2,2.5,2.9
					C115.4,268.5,114.3,268.7,113.2,268.9L113.2,268.9z M100.4,258c-1.2,0.2-2.4,0.5-3.5,0.8c-1.3,0.4-2.4,0.9-3.1,1.6
					c-0.8,0.7-1.1,1.4-1.1,2.2c0,0.8,0.5,1.7,1.4,2.6c1.8,1.9,4.5,3.3,8.1,4.1s7.4,1,11.3,0.3l1.9-0.3c1.9-0.4,3.1-0.6,3.6-0.7
					c0.9-0.1,2-0.3,3.4-0.4l-0.4-0.4l-1.9-0.2c-1-0.8-2.5-2.4-4.6-4.5l-2.3-2.5c-0.9-1-1.7-1.9-2.2-2.6c-0.3-0.4-0.5-0.7-0.4-0.8
					s0.4-0.2,1.1-0.4l1.2-0.3l-0.5-0.5c-1.3,0.2-2.2,0.4-2.9,0.5c-0.2,0-0.4,0.1-0.6,0.1l-4.3,0.7l-3.5,0.5
					C100.8,257.9,100.6,257.9,100.4,258L100.4,258z"/>
			</g>
		</g>
		<g>
			<g>
				<g>
					
						<linearGradient id="SVGID_44_" gradientUnits="userSpaceOnUse" x1="1256.5192" y1="595.6629" x2="1406.7874" y2="422.5258" gradientTransform="matrix(-1 0 0 1 1544.2816 -280)">
						<stop  offset="0" style="stop-color:#D3D3D3"/>
						<stop  offset="0.2185" style="stop-color:#A9A9A9"/>
						<stop  offset="0.5777" style="stop-color:#9A9A9A"/>
						<stop  offset="0.7862" style="stop-color:#797979"/>
						<stop  offset="1" style="stop-color:#595959"/>
					</linearGradient>
					<path class="st44" d="M222.7,179c-1.3-0.2-97.2-48.1-98.6-48c-1.4,0-3.6,2.2-4.9,4.3c-0.8,1.2-1.6,2-2.4,5.5
						c0,0-12.3,63-12.4,64.3c-0.1,1.3,0.4,2.6,1.5,3.8l140.9,148.8c0.8,0.8,1.7,1.6,2.8,2.2c1.1,0.7,2.3,1.3,3.7,1.8
						c1.4,0.5,2.9,1,4.4,1.4c1.6,0.4,3.3,0.7,5,0.9c1.5,0.2,3,0.3,4.5,0.4c1.5,0.1,3.1,0.1,4.7,0c1.6-0.1,3.1-0.2,4.7-0.4
						c1.6-0.2,3.1-0.5,4.6-0.8l93.2-20.6c3.2-0.7,6-1.7,8.2-2.8s3.9-2.5,5-3.9s1.6-2.9,1.5-4.4s-0.9-3-2.4-4.5L236.9,184L222.7,179
						L222.7,179z"/>
				</g>
				<g>
					
						<linearGradient id="SVGID_45_" gradientUnits="userSpaceOnUse" x1="1353.3926" y1="504.6606" x2="1334.7112" y2="487.8167" gradientTransform="matrix(-1 0 0 1 1544.2816 -280)">
						<stop  offset="0" style="stop-color:#434343"/>
						<stop  offset="0.2523" style="stop-color:#EFEFEF"/>
						<stop  offset="0.411" style="stop-color:#DBDBDB"/>
						<stop  offset="0.5345" style="stop-color:#9A9A9A"/>
						<stop  offset="0.9343" style="stop-color:#7D7D7D"/>
						<stop  offset="1" style="stop-color:#424242"/>
					</linearGradient>
					<path class="st45" d="M121.7,145.2c-2.3-2-3.7-4-4.4-6.1c0.7-2.2,1.4-2.9,2-3.9c1.3-2,3.5-4.2,4.9-4.3c1.4,0,97.3,47.9,98.6,48
						l14.1,5.1l82.9,79.2l-40,11.4c0,0-20.2,13.2-22.2,13.2L121.7,145.2z"/>
				</g>
				
					<linearGradient id="SVGID_46_" gradientUnits="userSpaceOnUse" x1="1294.8499" y1="583.994" x2="1276.627" y2="585.8316" gradientTransform="matrix(-1 0 0 1 1544.2816 -280)">
					<stop  offset="0" style="stop-color:#C8C8C8"/>
					<stop  offset="0.2191" style="stop-color:#BBBBBB"/>
					<stop  offset="0.409" style="stop-color:#C7C7C7"/>
					<stop  offset="0.5531" style="stop-color:#E4E4E4"/>
					<stop  offset="0.7145" style="stop-color:#DADADA"/>
					<stop  offset="1" style="stop-color:#B2B2B2"/>
				</linearGradient>
				<path class="st46" d="M254.6,278.3c3.3,3.9,3.3,7.9,2.2,14.3l-8.6,66.4c0.8,0.8,0.2,0.2,1.3,0.9c1.1,0.7,2.1,1.3,3.4,2.1
					c1.3,0.7,2.8,1.3,4.3,1.9c1.5,0.6,3.1,0.9,5,1.3c1.4,0.3,3.5,0,5.1,0.1c1.5,0.1,12.4-1.7,13.9-2l93.2-20.6
					c3.2-0.7,6-1.7,8.2-2.8s3.9-2.5,5-3.9s1.6-2.9,1.5-4.4s-0.5-3.1-0.9-4.9l-12.6-63c-0.5-1.8-1.1-4.8-3.4-7.2L254.6,278.3z"/>
				<g>
					<g>
						
							<linearGradient id="SVGID_47_" gradientUnits="userSpaceOnUse" x1="1155.0691" y1="589.4285" x2="1280.7816" y2="589.4285" gradientTransform="matrix(-1 0 0 1 1544.2816 -280)">
							<stop  offset="0" style="stop-color:#C8C8C8"/>
							<stop  offset="0.2191" style="stop-color:#BBBBBB"/>
							<stop  offset="0.409" style="stop-color:#C7C7C7"/>
							<stop  offset="0.5531" style="stop-color:#E4E4E4"/>
							<stop  offset="0.7145" style="stop-color:#DADADA"/>
							<stop  offset="1" style="stop-color:#B2B2B2"/>
						</linearGradient>
						<path class="st47" d="M263.5,365.3c6.3,0.3,16.3-1.6,17.8-1.9l93.2-20.7c3.2-0.7,6-1.7,8.2-2.8s3.9-2.5,5-3.9s1.6-2.9,1.5-4.4
							s-0.5-3.1-0.9-4.9l-12.5-63c-0.5-1.8-1.9-7.4-4.1-10.1l-91.2,30.2c-7.8,0.4-14,1.5-14.5,7.5L263.5,365.3z"/>
					</g>
				</g>
				<g>
					<g>
						
							<linearGradient id="SVGID_48_" gradientUnits="userSpaceOnUse" x1="1161.9453" y1="574.2943" x2="1280.1758" y2="597.9818" gradientTransform="matrix(-1 0 0 1 1544.2816 -280)">
							<stop  offset="0" style="stop-color:#DCDCDC"/>
							<stop  offset="2.656040e-002" style="stop-color:#F9F9F9"/>
							<stop  offset="4.714480e-002" style="stop-color:#C8C8C8"/>
							<stop  offset="0.2191" style="stop-color:#BBBBBB"/>
							<stop  offset="0.409" style="stop-color:#C7C7C7"/>
							<stop  offset="0.5531" style="stop-color:#E4E4E4"/>
							<stop  offset="0.7145" style="stop-color:#DADADA"/>
							<stop  offset="1" style="stop-color:#B2B2B2"/>
						</linearGradient>
						<path class="st48" d="M365.3,263.6l-7.7-5.4l14-4.6c2.2,2.7,3.6,8.3,4.1,10.1l12.5,63c0.4,1.8,0.8,3.4,0.9,4.9s-0.4,3-1.5,4.4
							c-0.1,0.1-0.1,0.1-0.2,0.2c-2.4-12.4-13-66.5-14.4-70.1C371.4,262,365.3,263.6,365.3,263.6z"/>
					</g>
					
						<linearGradient id="SVGID_49_" gradientUnits="userSpaceOnUse" x1="1159.527" y1="564.6017" x2="1458.4673" y2="382.7288" gradientTransform="matrix(-1 0 0 1 1544.2816 -280)">
						<stop  offset="0" style="stop-color:#F2F2F2"/>
						<stop  offset="0.2185" style="stop-color:#D7D7D7"/>
						<stop  offset="0.2835" style="stop-color:#E9E9E9"/>
						<stop  offset="0.3572" style="stop-color:#E8E8E8"/>
						<stop  offset="0.512" style="stop-color:#DDDDDD"/>
						<stop  offset="0.6248" style="stop-color:#B6B6B6"/>
						<stop  offset="0.6746" style="stop-color:#BABABA"/>
						<stop  offset="0.7344" style="stop-color:#9A9A9A"/>
						<stop  offset="0.7915" style="stop-color:#AAAAAA"/>
						<stop  offset="0.8858" style="stop-color:#585858"/>
					</linearGradient>
					<path class="st49" d="M218,113.6c1.4,0.2,2.8,0.4,4.2,0.7c1.3,0.3,2.6,0.7,3.7,1.1c1.2,0.4,2.2,0.9,3.2,1.5
						c0.9,0.5,1.8,1.1,2.4,1.8l138.9,133.5c1.4,1.3,2.2,2.7,2.4,4.1c0.2,1.4-0.1,2.7-0.9,4c-0.8,1.3-2.2,2.4-4,3.4s-4.1,1.8-6.8,2.4
						l-77.7,17c-1.2,0.3-2.4,0.5-3.6,0.6s-2.4,0.2-3.6,0.3c-1.2,0-2.4,0-3.7,0c-1.2-0.1-2.4-0.2-3.6-0.3c-1.6-0.2-3.2-0.5-4.7-0.9
						s-2.9-0.8-4.2-1.4c-1.3-0.5-2.5-1.1-3.6-1.8c-1.1-0.7-2-1.4-2.7-2.2l-131.8-138c-1.1-1.2-1.6-2.4-1.6-3.5
						c0-1.2,0.5-2.3,1.5-3.4c1-1.1,2.4-2.1,4.2-2.9c1.8-0.8,4.1-1.5,6.6-2L205,114c1.1-0.2,2.1-0.4,3.2-0.5c1.1-0.1,2.2-0.2,3.3-0.2
						s2.2,0,3.3,0C215.9,113.4,216.9,113.5,218,113.6L218,113.6z"/>
				</g>
				<g>
					
						<linearGradient id="SVGID_50_" gradientUnits="userSpaceOnUse" x1="1430.6344" y1="404.7252" x2="1276.281" y2="568.5726" gradientTransform="matrix(-1 0 0 1 1544.2816 -280)">
						<stop  offset="0" style="stop-color:#838383"/>
						<stop  offset="0.2185" style="stop-color:#C9C9C9"/>
						<stop  offset="0.3572" style="stop-color:#CECECE"/>
						<stop  offset="0.512" style="stop-color:#D1D1D1"/>
						<stop  offset="0.6972" style="stop-color:#C3C3C3"/>
						<stop  offset="0.8977" style="stop-color:#B5B5B5"/>
						<stop  offset="0.996" style="stop-color:#A9A9A9"/>
					</linearGradient>
					<path class="st50" d="M252.6,273c5.2,5.1,11.3,8.5,16.5,10.8c-0.1,0-0.1,0-0.2,0c-1.6-0.2-3.2-0.5-4.7-0.9s-2.9-0.8-4.2-1.4
						c-1.3-0.5-2.5-1.1-3.6-1.8c-1.1-0.7-2-1.4-2.7-2.2l-131.8-138c-1.1-1.2-1.6-2.4-1.6-3.5c0-0.6,0.1-1.2,0.4-1.8
						C144.1,160.2,241.9,262.6,252.6,273z"/>
				</g>
				<g>
					
						<linearGradient id="SVGID_51_" gradientUnits="userSpaceOnUse" x1="1235.0641" y1="563.898" x2="1271.8147" y2="343.3182" gradientTransform="matrix(-1 0 0 1 1544.2816 -280)">
						<stop  offset="0" style="stop-color:#F0F0F0"/>
						<stop  offset="0.3572" style="stop-color:#CECECE"/>
						<stop  offset="0.5246" style="stop-color:#B8B8B8"/>
						<stop  offset="0.7344" style="stop-color:#9A9A9A"/>
						<stop  offset="0.7915" style="stop-color:#7D7D7D"/>
						<stop  offset="0.8858" style="stop-color:#424242"/>
					</linearGradient>
					<path class="st51" d="M368.8,254.2c-7.4-7.4-140.1-136.4-140.1-136.4s-4.6-3.3-16.1-4.5c0.7,0,1.4,0,2.2,0
						c1.1,0.1,2.2,0.1,3.2,0.3c1.4,0.2,2.8,0.4,4.2,0.7c1.3,0.3,2.6,0.7,3.7,1.1c1.2,0.4,2.2,0.9,3.2,1.5c0.9,0.5,1.8,1.1,2.4,1.8
						l138.9,133.5c1.4,1.3,2.2,2.7,2.4,4.1c0.2,1.4-0.1,2.7-0.9,4c-0.8,1.3-2.2,2.4-4,3.4c-1.2,0.7-2.6,1.2-4.1,1.7
						C368.4,262.6,373,258.4,368.8,254.2z"/>
				</g>
			</g>
			<g class="st35">
				
					<linearGradient id="SVGID_52_" gradientUnits="userSpaceOnUse" x1="1305.2205" y1="533.2241" x2="1302.4998" y2="414.8657" gradientTransform="matrix(-1 0 0 1 1544.2816 -280)">
					<stop  offset="0" style="stop-color:#D3D3D3"/>
					<stop  offset="0.2185" style="stop-color:#A9A9A9"/>
					<stop  offset="0.3572" style="stop-color:#D1D1D1"/>
					<stop  offset="0.512" style="stop-color:#DDDDDD"/>
					<stop  offset="0.6248" style="stop-color:#B6B6B6"/>
					<stop  offset="0.7344" style="stop-color:#9A9A9A"/>
					<stop  offset="0.7915" style="stop-color:#7D7D7D"/>
					<stop  offset="0.8858" style="stop-color:#424242"/>
				</linearGradient>
				<path class="st52" d="M234.3,150.3c0.2,0,0.3-0.1,0.5-0.1c3-0.5,5.7-0.6,8.2-0.4c2.4,0.2,4.7,0.7,6.7,1.5c2,0.8,3.6,1.8,4.7,3
					c1.1,1.2,1.6,2.3,1.4,3.4c-0.2,1.1-0.9,2.1-2.4,2.9c-1.4,0.8-3.2,1.4-5.6,1.8c-0.1,0-0.2,0-0.3,0c-1.6,0.3-3.4,0.5-5.4,0.6
					c-2,0.1-3.8,0.1-5.5,0.1c-0.4-0.7-0.9-1.3-1.4-1.8s-1-1-1.6-1.4l-1.5-0.2l-0.4-0.4c0.8-0.1,1.7-0.2,2.7-0.4
					c0.3,0,0.5-0.1,0.9-0.1c1.1-0.2,2.6-0.5,4.5-0.8l0.5,0.5l-1.8,0.4c-1,0.2-1.5,0.3-1.6,0.4c-0.1,0-0.1,0.1,0,0.2
					c0.1,0.1,0.4,0.5,1.1,1.2c0.5,0.5,1,1,1.5,1.5c2.4,0.1,4.4,0,6.2-0.3c0.1,0,0.2,0,0.2,0c3.2-0.6,5.1-1.6,5.8-3.1
					c0.6-1.3,0.3-2.7-1.2-4.3c-1.5-1.6-3.6-2.7-6.3-3.4c-2.5-0.6-5.3-0.7-8.4-0.2c-0.1,0-0.2,0-0.3,0.1c-1.6,0.3-3,0.7-4,1.1
					c-1.1,0.5-1.7,0.9-1.9,1.1c-0.1,0.1,0.1,0.5,0.7,1l0.5,0.6l-1,0.2c-1.2-1-2.2-1.8-3-2.4l1.2-0.4c1.4-0.5,2.6-0.9,3.6-1.2
					C232.4,150.7,233.3,150.5,234.3,150.3L234.3,150.3z"/>
				
					<linearGradient id="SVGID_53_" gradientUnits="userSpaceOnUse" x1="1329.6273" y1="532.6634" x2="1326.9065" y2="414.3046" gradientTransform="matrix(-1 0 0 1 1544.2816 -280)">
					<stop  offset="0" style="stop-color:#D3D3D3"/>
					<stop  offset="0.2185" style="stop-color:#A9A9A9"/>
					<stop  offset="0.3572" style="stop-color:#D1D1D1"/>
					<stop  offset="0.512" style="stop-color:#DDDDDD"/>
					<stop  offset="0.6248" style="stop-color:#B6B6B6"/>
					<stop  offset="0.7344" style="stop-color:#9A9A9A"/>
					<stop  offset="0.7915" style="stop-color:#7D7D7D"/>
					<stop  offset="0.8858" style="stop-color:#424242"/>
				</linearGradient>
				<path class="st53" d="M221.8,165.8c-0.1,0-0.1,0-0.2,0c-1.7,0.3-3.3,0.3-4.9,0.1s-3.1-0.6-4.6-1.3c-1.5-0.7-2.7-1.6-3.8-2.7
					c-1.1-1.2-1.7-2.3-1.7-3.3s0.5-1.8,1.4-2.4s2.3-1.1,4-1.4c0.1,0,0.1,0,0.2,0c1.7-0.3,3.3-0.3,4.9-0.2c1.6,0.2,3.1,0.6,4.5,1.2
					c1.4,0.6,2.5,1.4,3.4,2.4c1.2,1.3,1.8,2.5,1.9,3.5c0.1,1.1-0.4,2-1.3,2.7S223.4,165.5,221.8,165.8L221.8,165.8z M210.4,154.3
					c-3.5,0.6-5.8,1.6-6.8,2.9c-1.1,1.4-0.8,3,0.8,4.7c1.8,1.9,4.5,3.3,8.1,4.1c3.6,0.9,7.3,1,11,0.4c0.1,0,0.2,0,0.2,0
					c2.2-0.4,3.9-0.9,5-1.7c1.2-0.8,1.8-1.7,1.9-2.8c0.1-1.1-0.5-2.3-1.6-3.5c-1.7-1.9-4.3-3.2-7.6-3.9c-3.3-0.8-6.9-0.8-10.6-0.2
					C210.7,154.2,210.5,154.2,210.4,154.3L210.4,154.3z"/>
				
					<linearGradient id="SVGID_54_" gradientUnits="userSpaceOnUse" x1="1348.7047" y1="532.2198" x2="1345.9841" y2="413.8703" gradientTransform="matrix(-1 0 0 1 1544.2816 -280)">
					<stop  offset="0" style="stop-color:#D3D3D3"/>
					<stop  offset="0.2185" style="stop-color:#A9A9A9"/>
					<stop  offset="0.3572" style="stop-color:#D1D1D1"/>
					<stop  offset="0.512" style="stop-color:#DDDDDD"/>
					<stop  offset="0.6248" style="stop-color:#B6B6B6"/>
					<stop  offset="0.7344" style="stop-color:#9A9A9A"/>
					<stop  offset="0.7915" style="stop-color:#7D7D7D"/>
					<stop  offset="0.8858" style="stop-color:#424242"/>
				</linearGradient>
				<path class="st54" d="M188,158.1c1.9-0.3,3.5-0.5,4.6-0.7c0.3,0,0.7-0.1,1.2-0.2c0.9-0.2,2.2-0.4,3.8-0.7l0.5,0.5l-1.7,0.3
					c0,0,0,0-0.1,0c-0.7,0.1-1,0.3-1,0.5c0,0.2,0.8,1.2,2.4,2.9l4.4,4.6c1.5,1.6,2.4,2.4,2.8,2.6s1.1,0.3,2.1,0.4l0.4,0.5
					c-2.2,0.3-3.8,0.5-4.9,0.7l-7.5,1.3c-1.7,0.3-3,0.4-4,0.5c-1-0.9-2.2-1.9-3.4-2.9l1-0.2l2.8,1.8c0.9,0,1.8-0.1,2.7-0.2
					c1.2-0.1,2.8-0.4,4.8-0.7c0.4-0.1,0.7-0.1,1.1-0.2c0.6-0.1,1.3-0.2,2-0.4l-0.5-0.5l-2.2-2.4l-5.1-5.4c-1.2-1.3-1.9-2-2.2-2.1
					s-0.7-0.2-1.3-0.1l-2,0.3L188,158.1L188,158.1z"/>
				
					<linearGradient id="SVGID_55_" gradientUnits="userSpaceOnUse" x1="1373.3287" y1="531.6639" x2="1370.6077" y2="413.2984" gradientTransform="matrix(-1 0 0 1 1544.2816 -280)">
					<stop  offset="0" style="stop-color:#D3D3D3"/>
					<stop  offset="0.2185" style="stop-color:#A9A9A9"/>
					<stop  offset="0.3572" style="stop-color:#D1D1D1"/>
					<stop  offset="0.512" style="stop-color:#DDDDDD"/>
					<stop  offset="0.6248" style="stop-color:#B6B6B6"/>
					<stop  offset="0.7344" style="stop-color:#9A9A9A"/>
					<stop  offset="0.7915" style="stop-color:#7D7D7D"/>
					<stop  offset="0.8858" style="stop-color:#424242"/>
				</linearGradient>
				<path class="st55" d="M178.6,172.7c-0.1,0-0.2,0-0.3,0.1c-3,0.5-5.7,0.5-8.1-0.1c-2.9-0.7-5.3-1.9-7-3.8c-1.5-1.6-1.9-3-1-4.2
					c0.8-1.1,2.8-1.9,5.8-2.4c0.1,0,0.2,0,0.3,0c1.1-0.2,2.5-0.3,4.2-0.5c0.6,0.5,1.3,1.1,1.9,1.8l5.2,5.5c1,1,1.8,2,2.5,2.9
					C180.7,172.3,179.6,172.6,178.6,172.7L178.6,172.7z M165.7,161.8c-1.2,0.2-2.4,0.5-3.5,0.8c-1.3,0.4-2.4,0.9-3.1,1.6
					c-0.8,0.7-1.1,1.4-1.1,2.2s0.5,1.7,1.4,2.6c1.8,1.9,4.5,3.3,8.1,4.1c3.6,0.8,7.4,0.9,11.3,0.3l1.9-0.3c1.9-0.4,3.1-0.6,3.6-0.7
					c0.9-0.1,2-0.3,3.4-0.4l-0.4-0.4l-1.9-0.2c-1-0.8-2.5-2.4-4.6-4.5l-2.3-2.5c-0.9-1-1.7-1.9-2.2-2.6c-0.3-0.4-0.4-0.7-0.4-0.8
					c0-0.1,0.4-0.2,1.1-0.4l1.2-0.3l-0.5-0.5c-1.3,0.2-2.2,0.4-2.9,0.5c-0.2,0-0.4,0.1-0.6,0.1l-4.3,0.7l-3.5,0.5
					C166.1,161.7,165.9,161.7,165.7,161.8L165.7,161.8z"/>
			</g>
			<g class="st35">
				
					<linearGradient id="SVGID_56_" gradientUnits="userSpaceOnUse" x1="1288.5836" y1="437.0642" x2="1317.587" y2="437.0642" gradientTransform="matrix(-1 0 0 1 1544.2816 -280)">
					<stop  offset="0" style="stop-color:#D3D3D3"/>
					<stop  offset="0.2185" style="stop-color:#CBCBCB"/>
					<stop  offset="0.3572" style="stop-color:#D1D1D1"/>
					<stop  offset="0.7112" style="stop-color:#DDDDDD"/>
					<stop  offset="0.994" style="stop-color:#B6B6B6"/>
				</linearGradient>
				<path class="st56" d="M234.2,151c0.2,0,0.3-0.1,0.5-0.1c3-0.5,5.7-0.6,8.2-0.4s4.7,0.7,6.7,1.5s3.6,1.8,4.7,3s1.6,2.3,1.4,3.4
					c-0.2,1.1-0.9,2.1-2.3,2.9c-1.4,0.8-3.2,1.4-5.6,1.8c-0.1,0-0.2,0-0.3,0c-1.6,0.3-3.4,0.5-5.4,0.6s-3.8,0.1-5.5,0.1
					c-0.4-0.7-0.9-1.3-1.4-1.8s-1-1-1.6-1.4l-1.5-0.2l-0.4-0.4c0.8-0.1,1.7-0.2,2.7-0.4c0.3,0,0.5-0.1,0.9-0.1
					c1.1-0.2,2.6-0.5,4.5-0.8l0.5,0.5l-1.8,0.4c-1,0.2-1.5,0.3-1.6,0.4c-0.1,0-0.1,0.1,0,0.2s0.4,0.5,1.1,1.2c0.5,0.5,1,1,1.5,1.5
					c2.4,0.1,4.4,0,6.2-0.3c0.1,0,0.2,0,0.2,0c3.2-0.6,5.1-1.6,5.9-3.1c0.6-1.3,0.2-2.7-1.2-4.3c-1.5-1.6-3.6-2.7-6.3-3.4
					c-2.5-0.6-5.3-0.7-8.4-0.2c-0.1,0-0.2,0-0.3,0.1c-1.6,0.3-3,0.7-4,1.1c-1.1,0.5-1.8,0.9-1.9,1.1c-0.1,0.1,0.1,0.5,0.7,1l0.5,0.6
					l-1,0.2c-1.2-1-2.2-1.8-3-2.4l1.2-0.4c1.4-0.5,2.6-0.9,3.6-1.2C232.2,151.4,233.2,151.2,234.2,151L234.2,151z"/>
				
					<linearGradient id="SVGID_57_" gradientUnits="userSpaceOnUse" x1="1313.7709" y1="440.8878" x2="1341.436" y2="440.8878" gradientTransform="matrix(-1 0 0 1 1544.2816 -280)">
					<stop  offset="0" style="stop-color:#D3D3D3"/>
					<stop  offset="0.2185" style="stop-color:#CBCBCB"/>
					<stop  offset="0.3572" style="stop-color:#D1D1D1"/>
					<stop  offset="0.7112" style="stop-color:#DDDDDD"/>
					<stop  offset="0.994" style="stop-color:#B6B6B6"/>
				</linearGradient>
				<path class="st57" d="M221.7,166.5c-0.1,0-0.1,0-0.2,0c-1.7,0.3-3.3,0.3-4.9,0.1c-1.6-0.2-3.1-0.6-4.6-1.3
					c-1.5-0.7-2.7-1.6-3.8-2.7c-1.1-1.2-1.7-2.3-1.7-3.3s0.5-1.8,1.4-2.4c0.9-0.6,2.3-1.1,4-1.4c0.1,0,0.1,0,0.2,0
					c1.7-0.3,3.4-0.3,4.9-0.2c1.6,0.2,3.1,0.6,4.5,1.2c1.4,0.6,2.5,1.4,3.4,2.4c1.2,1.3,1.8,2.5,1.9,3.5c0.1,1.1-0.4,2-1.3,2.7
					C224.6,165.7,223.3,166.2,221.7,166.5L221.7,166.5z M210.3,154.9c-3.5,0.6-5.8,1.6-6.8,2.9c-1.1,1.4-0.8,3,0.8,4.7
					c1.8,1.9,4.5,3.3,8.1,4.1c3.6,0.9,7.3,1,11,0.4c0.1,0,0.2,0,0.2,0c2.2-0.4,3.9-0.9,5-1.7c1.2-0.8,1.8-1.7,1.9-2.8
					c0.1-1.1-0.5-2.3-1.6-3.5c-1.7-1.9-4.3-3.2-7.6-3.9c-3.3-0.8-6.9-0.8-10.6-0.2C210.5,154.9,210.4,154.9,210.3,154.9L210.3,154.9
					z"/>
				
					<linearGradient id="SVGID_58_" gradientUnits="userSpaceOnUse" x1="1337.0598" y1="444.5125" x2="1356.9275" y2="444.5125" gradientTransform="matrix(-1 0 0 1 1544.2816 -280)">
					<stop  offset="0" style="stop-color:#D3D3D3"/>
					<stop  offset="0.2185" style="stop-color:#CBCBCB"/>
					<stop  offset="0.3572" style="stop-color:#D1D1D1"/>
					<stop  offset="0.7112" style="stop-color:#DDDDDD"/>
					<stop  offset="0.994" style="stop-color:#B6B6B6"/>
				</linearGradient>
				<path class="st58" d="M187.9,158.8c1.9-0.3,3.5-0.5,4.6-0.7c0.3,0,0.7-0.1,1.2-0.2c0.9-0.2,2.2-0.4,3.8-0.7l0.5,0.5l-1.7,0.3
					c0,0,0,0-0.1,0c-0.7,0.1-1,0.3-1,0.5c0,0.2,0.8,1.2,2.4,2.9l4.4,4.6c1.5,1.6,2.4,2.4,2.7,2.6c0.4,0.2,1.1,0.3,2.1,0.4l0.4,0.4
					c-2.2,0.3-3.8,0.5-4.9,0.7l-7.5,1.3c-1.7,0.3-3,0.4-4,0.5c-1-0.9-2.2-1.9-3.4-2.9l1-0.2l2.8,1.8c0.9,0,1.8-0.1,2.7-0.2
					c1.2-0.1,2.8-0.4,4.8-0.7c0.4-0.1,0.7-0.1,1.1-0.2c0.6-0.1,1.3-0.2,2-0.4l-0.5-0.5l-2.2-2.4l-5.1-5.4c-1.2-1.3-1.9-2-2.2-2.1
					c-0.3-0.1-0.7-0.2-1.3-0.1l-2,0.3L187.9,158.8L187.9,158.8z"/>
				
					<linearGradient id="SVGID_59_" gradientUnits="userSpaceOnUse" x1="1356.7418" y1="447.4554" x2="1386.3944" y2="447.4554" gradientTransform="matrix(-1 0 0 1 1544.2816 -280)">
					<stop  offset="0" style="stop-color:#D3D3D3"/>
					<stop  offset="0.2185" style="stop-color:#CBCBCB"/>
					<stop  offset="0.3572" style="stop-color:#D1D1D1"/>
					<stop  offset="0.7112" style="stop-color:#DDDDDD"/>
					<stop  offset="0.994" style="stop-color:#B6B6B6"/>
				</linearGradient>
				<path class="st59" d="M178.4,173.4c-0.1,0-0.2,0-0.3,0.1c-3,0.5-5.7,0.5-8.1-0.1c-2.9-0.7-5.3-1.9-7-3.8c-1.5-1.7-1.9-3-1-4.2
					c0.8-1.1,2.8-1.9,5.8-2.4c0.1,0,0.2,0,0.3,0c1.1-0.2,2.5-0.3,4.1-0.5c0.6,0.5,1.3,1.1,1.9,1.8l5.2,5.5c1,1,1.8,2,2.5,2.9
					C180.6,173,179.5,173.2,178.4,173.4L178.4,173.4z M165.6,162.5c-1.2,0.2-2.4,0.5-3.5,0.8c-1.3,0.4-2.4,0.9-3.1,1.6
					c-0.8,0.7-1.1,1.4-1.1,2.2c0,0.8,0.5,1.7,1.4,2.6c1.8,1.9,4.5,3.3,8.1,4.1c3.6,0.8,7.4,0.9,11.3,0.3l1.9-0.3
					c1.9-0.4,3.1-0.6,3.6-0.7c0.9-0.1,2-0.3,3.4-0.4l-0.4-0.4l-1.9-0.2c-1-0.8-2.5-2.4-4.6-4.5l-2.3-2.5c-0.9-1-1.7-1.9-2.2-2.6
					c-0.3-0.4-0.5-0.7-0.4-0.8c0-0.1,0.4-0.2,1.1-0.4l1.2-0.3l-0.5-0.5c-1.3,0.2-2.2,0.4-2.9,0.5c-0.2,0-0.5,0.1-0.6,0.1l-4.3,0.7
					l-3.5,0.5C166,162.4,165.8,162.4,165.6,162.5L165.6,162.5z"/>
			</g>
		</g>
		<g>
			<g>
				<g>
					
						<linearGradient id="SVGID_60_" gradientUnits="userSpaceOnUse" x1="1192.0074" y1="500.1188" x2="1342.2765" y2="326.9808" gradientTransform="matrix(-1 0 0 1 1544.2816 -280)">
						<stop  offset="0" style="stop-color:#D3D3D3"/>
						<stop  offset="0.2185" style="stop-color:#A9A9A9"/>
						<stop  offset="0.5777" style="stop-color:#9A9A9A"/>
						<stop  offset="0.7862" style="stop-color:#797979"/>
						<stop  offset="1" style="stop-color:#595959"/>
					</linearGradient>
					<path class="st60" d="M287.3,83.5c-1.3-0.2-97.2-48.1-98.6-48c-1.4,0-3.6,2.2-4.9,4.3c-0.8,1.2-1.6,2-2.4,5.5
						c0,0-12.3,63-12.4,64.3s0.4,2.6,1.5,3.8l140.8,148.8c0.8,0.8,1.7,1.6,2.8,2.2c1.1,0.7,2.3,1.3,3.7,1.8s2.9,1,4.4,1.4
						c1.6,0.4,3.3,0.7,5,0.9c1.5,0.2,3,0.3,4.5,0.4s3.1,0.1,4.7,0c1.6-0.1,3.1-0.2,4.7-0.4c1.6-0.2,3.1-0.5,4.6-0.8l93.2-20.6
						c3.2-0.7,6-1.7,8.2-2.8c2.2-1.1,3.9-2.5,5-3.9s1.6-2.9,1.5-4.4s-0.9-3-2.4-4.5l-149.8-143L287.3,83.5L287.3,83.5z"/>
				</g>
				<g>
					
						<linearGradient id="SVGID_61_" gradientUnits="userSpaceOnUse" x1="1288.933" y1="409.0471" x2="1270.2506" y2="392.2022" gradientTransform="matrix(-1 0 0 1 1544.2816 -280)">
						<stop  offset="0" style="stop-color:#434343"/>
						<stop  offset="0.2523" style="stop-color:#EFEFEF"/>
						<stop  offset="0.411" style="stop-color:#DBDBDB"/>
						<stop  offset="0.5345" style="stop-color:#9A9A9A"/>
						<stop  offset="0.9343" style="stop-color:#7D7D7D"/>
						<stop  offset="1" style="stop-color:#424242"/>
					</linearGradient>
					<path class="st61" d="M186.2,49.6c-2.3-2-3.7-4-4.4-6.1c0.7-2.2,1.3-2.9,2-3.9c1.3-2,3.5-4.2,4.9-4.3c1.4,0,97.3,47.9,98.6,48
						l14.1,5.1l82.9,79.1l-40,11.4c0,0-20.2,13.2-22.2,13.2L186.2,49.6z"/>
				</g>
				
					<linearGradient id="SVGID_62_" gradientUnits="userSpaceOnUse" x1="1230.3291" y1="488.4845" x2="1212.1071" y2="490.322" gradientTransform="matrix(-1 0 0 1 1544.2816 -280)">
					<stop  offset="0" style="stop-color:#C8C8C8"/>
					<stop  offset="0.2191" style="stop-color:#BBBBBB"/>
					<stop  offset="0.409" style="stop-color:#C7C7C7"/>
					<stop  offset="0.5531" style="stop-color:#E4E4E4"/>
					<stop  offset="0.7145" style="stop-color:#DADADA"/>
					<stop  offset="1" style="stop-color:#B2B2B2"/>
				</linearGradient>
				<path class="st62" d="M319.2,182.8c3.3,3.9,3.3,7.9,2.2,14.3l-8.6,66.4c0.8,0.8,0.2,0.2,1.3,0.9c1.1,0.7,2.1,1.3,3.4,2.1
					c1.3,0.7,2.8,1.3,4.3,1.9c1.5,0.6,3.1,0.9,5,1.3c1.5,0.3,3.5,0,5.1,0.1c1.5,0.1,12.4-1.7,13.9-2l93.2-20.6
					c3.2-0.7,6-1.7,8.2-2.8s3.9-2.5,5-3.9s1.6-2.9,1.5-4.4s-0.5-3.1-0.9-4.9l-12.6-63c-0.5-1.8-1.1-4.8-3.4-7.2L319.2,182.8z"/>
				<g>
					<g>
						
							<linearGradient id="SVGID_63_" gradientUnits="userSpaceOnUse" x1="1090.5691" y1="493.8785" x2="1216.2816" y2="493.8785" gradientTransform="matrix(-1 0 0 1 1544.2816 -280)">
							<stop  offset="0" style="stop-color:#C8C8C8"/>
							<stop  offset="0.2191" style="stop-color:#BBBBBB"/>
							<stop  offset="0.409" style="stop-color:#C7C7C7"/>
							<stop  offset="0.5531" style="stop-color:#E4E4E4"/>
							<stop  offset="0.7145" style="stop-color:#DADADA"/>
							<stop  offset="1" style="stop-color:#B2B2B2"/>
						</linearGradient>
						<path class="st63" d="M328,269.7c6.3,0.3,16.3-1.6,17.8-1.9l93.2-20.7c3.2-0.7,6-1.7,8.2-2.8c2.2-1.2,3.9-2.5,5-3.9
							c1.1-1.4,1.6-2.9,1.5-4.4s-0.5-3.1-0.9-4.8l-12.5-63c-0.5-1.8-1.9-7.4-4.1-10.1l-91.3,30.1c-7.8,0.4-14,1.5-14.5,7.5
							L328,269.7z"/>
					</g>
				</g>
				<g>
					<g>
						
							<linearGradient id="SVGID_64_" gradientUnits="userSpaceOnUse" x1="1097.4391" y1="478.663" x2="1215.6816" y2="502.3531" gradientTransform="matrix(-1 0 0 1 1544.2816 -280)">
							<stop  offset="0" style="stop-color:#DCDCDC"/>
							<stop  offset="2.656040e-002" style="stop-color:#F9F9F9"/>
							<stop  offset="4.714480e-002" style="stop-color:#C8C8C8"/>
							<stop  offset="0.2191" style="stop-color:#BBBBBB"/>
							<stop  offset="0.409" style="stop-color:#C7C7C7"/>
							<stop  offset="0.5531" style="stop-color:#E4E4E4"/>
							<stop  offset="0.7145" style="stop-color:#DADADA"/>
							<stop  offset="1" style="stop-color:#B2B2B2"/>
						</linearGradient>
						<path class="st64" d="M429.8,168l-7.6-5.4l14-4.6c2.2,2.7,3.6,8.3,4.1,10.1l12.5,63c0.4,1.8,0.8,3.4,0.9,4.8
							c0.1,1.5-0.4,3-1.5,4.4c-0.1,0.1-0.1,0.1-0.2,0.2c-2.4-12.4-13-66.5-14.4-70.2C435.9,166.4,429.8,168,429.8,168z"/>
					</g>
					
						<linearGradient id="SVGID_65_" gradientUnits="userSpaceOnUse" x1="1099.6683" y1="466.215" x2="1398.6089" y2="284.3422" gradientTransform="matrix(-1 0 0 1 1544.2816 -280)">
						<stop  offset="0" style="stop-color:#F2F2F2"/>
						<stop  offset="0.2185" style="stop-color:#D7D7D7"/>
						<stop  offset="0.2835" style="stop-color:#E9E9E9"/>
						<stop  offset="0.3572" style="stop-color:#E8E8E8"/>
						<stop  offset="0.512" style="stop-color:#DDDDDD"/>
						<stop  offset="0.6248" style="stop-color:#B6B6B6"/>
						<stop  offset="0.6746" style="stop-color:#BABABA"/>
						<stop  offset="0.7344" style="stop-color:#9A9A9A"/>
						<stop  offset="0.7915" style="stop-color:#AAAAAA"/>
						<stop  offset="0.8858" style="stop-color:#585858"/>
					</linearGradient>
					<path class="st65" d="M282.5,18c1.4,0.2,2.8,0.4,4.2,0.7c1.3,0.3,2.6,0.7,3.7,1.1c1.2,0.4,2.2,0.9,3.2,1.5
						c1,0.5,1.8,1.1,2.5,1.8l138.8,133.5c1.4,1.3,2.2,2.7,2.4,4.1s-0.1,2.7-0.9,4s-2.2,2.4-4,3.4s-4.1,1.8-6.8,2.4l-77.7,17
						c-1.2,0.3-2.4,0.5-3.6,0.6c-1.2,0.1-2.4,0.2-3.6,0.3c-1.2,0-2.4,0-3.7,0c-1.2-0.1-2.4-0.2-3.6-0.3c-1.6-0.2-3.2-0.5-4.7-0.9
						c-1.5-0.4-2.9-0.8-4.2-1.3s-2.5-1.1-3.6-1.8c-1.1-0.7-2-1.4-2.7-2.2l-131.8-138c-1.1-1.2-1.6-2.4-1.6-3.5
						c0-1.2,0.5-2.3,1.5-3.4s2.4-2.1,4.2-2.9c1.8-0.8,4.1-1.5,6.6-2l72.4-13.6c1.1-0.2,2.1-0.4,3.2-0.5c1.1-0.1,2.2-0.2,3.3-0.2
						c1.1,0,2.2,0,3.3,0S281.5,17.9,282.5,18L282.5,18z"/>
				</g>
				<g>
					
						<linearGradient id="SVGID_66_" gradientUnits="userSpaceOnUse" x1="1366.1268" y1="309.1832" x2="1211.7721" y2="473.032" gradientTransform="matrix(-1 0 0 1 1544.2816 -280)">
						<stop  offset="0" style="stop-color:#838383"/>
						<stop  offset="0.2185" style="stop-color:#C9C9C9"/>
						<stop  offset="0.3572" style="stop-color:#CECECE"/>
						<stop  offset="0.512" style="stop-color:#D1D1D1"/>
						<stop  offset="0.6972" style="stop-color:#C3C3C3"/>
						<stop  offset="0.8977" style="stop-color:#B5B5B5"/>
						<stop  offset="0.996" style="stop-color:#A9A9A9"/>
					</linearGradient>
					<path class="st66" d="M317.1,177.4c5.2,5,11.3,8.5,16.5,10.8c-0.1,0-0.1,0-0.2,0c-1.6-0.2-3.2-0.5-4.7-0.9
						c-1.5-0.4-2.9-0.8-4.2-1.3s-2.5-1.1-3.6-1.8s-2-1.4-2.7-2.2L186.4,44c-1.1-1.2-1.6-2.4-1.6-3.5c0-0.6,0.1-1.2,0.4-1.8
						C208.6,64.6,306.4,167,317.1,177.4z"/>
				</g>
				<g>
					
						<linearGradient id="SVGID_67_" gradientUnits="userSpaceOnUse" x1="1170.5555" y1="468.3494" x2="1207.307" y2="247.764" gradientTransform="matrix(-1 0 0 1 1544.2816 -280)">
						<stop  offset="0" style="stop-color:#F0F0F0"/>
						<stop  offset="0.3572" style="stop-color:#CECECE"/>
						<stop  offset="0.5246" style="stop-color:#B8B8B8"/>
						<stop  offset="0.7344" style="stop-color:#9A9A9A"/>
						<stop  offset="0.7915" style="stop-color:#7D7D7D"/>
						<stop  offset="0.8858" style="stop-color:#424242"/>
					</linearGradient>
					<path class="st67" d="M433.3,158.6C426,151.2,293.2,22.2,293.2,22.2s-4.6-3.3-16.1-4.5c0.7,0,1.4,0,2.2,0
						c1.1,0,2.2,0.1,3.2,0.3c1.4,0.2,2.8,0.4,4.2,0.7c1.3,0.3,2.6,0.7,3.7,1.1c1.2,0.4,2.2,0.9,3.2,1.5c1,0.5,1.8,1.1,2.5,1.8
						l138.8,133.5c1.4,1.3,2.2,2.7,2.4,4.1s-0.1,2.7-0.9,4s-2.2,2.4-4,3.4c-1.2,0.7-2.6,1.2-4.2,1.7
						C432.9,167,437.5,162.8,433.3,158.6z"/>
				</g>
			</g>
			<g class="st35">
				
					<linearGradient id="SVGID_68_" gradientUnits="userSpaceOnUse" x1="341.8249" y1="432.8404" x2="339.1041" y2="314.482" gradientTransform="matrix(1 0 0 1 -102.388 -280)">
					<stop  offset="0" style="stop-color:#D3D3D3"/>
					<stop  offset="0.2185" style="stop-color:#A9A9A9"/>
					<stop  offset="0.3572" style="stop-color:#D1D1D1"/>
					<stop  offset="0.512" style="stop-color:#DDDDDD"/>
					<stop  offset="0.6248" style="stop-color:#B6B6B6"/>
					<stop  offset="0.7344" style="stop-color:#9A9A9A"/>
					<stop  offset="0.7915" style="stop-color:#7D7D7D"/>
					<stop  offset="0.8858" style="stop-color:#424242"/>
				</linearGradient>
				<path class="st68" d="M244.3,50c-0.2,0-0.3-0.1-0.5-0.1c-3-0.5-5.7-0.6-8.2-0.4s-4.7,0.7-6.7,1.5s-3.6,1.8-4.7,3
					s-1.6,2.3-1.4,3.4s0.9,2.1,2.3,2.9s3.2,1.4,5.6,1.8c0.1,0,0.2,0,0.3,0c1.6,0.3,3.4,0.5,5.4,0.6s3.8,0.1,5.5,0.1
					c0.4-0.7,0.9-1.3,1.4-1.8s1-1,1.6-1.4l1.5-0.2l0.4-0.4c-0.8-0.1-1.7-0.2-2.7-0.4c-0.3,0-0.5-0.1-0.9-0.1
					c-1.1-0.2-2.6-0.5-4.5-0.8l-0.5,0.5l1.8,0.4c1,0.2,1.5,0.3,1.6,0.4c0.1,0,0.1,0.1,0,0.2s-0.4,0.5-1.1,1.2c-0.5,0.5-1,1-1.5,1.5
					c-2.4,0.1-4.4,0-6.2-0.3c-0.1,0-0.2,0-0.2,0c-3.2-0.6-5.1-1.6-5.9-3.1c-0.6-1.3-0.2-2.7,1.2-4.3c1.5-1.6,3.6-2.7,6.3-3.4
					c2.5-0.6,5.3-0.7,8.4-0.2c0.1,0,0.2,0,0.3,0.1c1.6,0.3,3,0.7,4,1.1c1.1,0.5,1.8,0.9,1.9,1.1c0.1,0.1-0.1,0.5-0.7,1l-0.5,0.6
					l1,0.2c1.2-1,2.2-1.8,3-2.4l-1.2-0.4c-1.4-0.5-2.6-0.9-3.6-1.2C246.2,50.3,245.3,50.1,244.3,50L244.3,50z"/>
				
					<linearGradient id="SVGID_69_" gradientUnits="userSpaceOnUse" x1="366.3358" y1="432.2773" x2="363.6149" y2="313.9186" gradientTransform="matrix(1 0 0 1 -102.388 -280)">
					<stop  offset="0" style="stop-color:#D3D3D3"/>
					<stop  offset="0.2185" style="stop-color:#A9A9A9"/>
					<stop  offset="0.3572" style="stop-color:#D1D1D1"/>
					<stop  offset="0.512" style="stop-color:#DDDDDD"/>
					<stop  offset="0.6248" style="stop-color:#B6B6B6"/>
					<stop  offset="0.7344" style="stop-color:#9A9A9A"/>
					<stop  offset="0.7915" style="stop-color:#7D7D7D"/>
					<stop  offset="0.8858" style="stop-color:#424242"/>
				</linearGradient>
				<path class="st69" d="M256.8,65.4c-1.7-0.3-3-0.8-3.9-1.5s-1.4-1.6-1.3-2.7s0.7-2.3,1.9-3.5c0.9-1,2-1.7,3.4-2.4
					c1.4-0.6,2.9-1,4.5-1.2c1.6-0.2,3.2-0.1,4.9,0.2c0.1,0,0.1,0,0.2,0c1.8,0.3,3.1,0.8,4,1.4c1,0.7,1.4,1.5,1.4,2.4
					c0,1-0.6,2.1-1.7,3.3c-1.1,1.1-2.3,2.1-3.8,2.7c-1.5,0.7-3,1.1-4.6,1.3C260.2,65.6,258.6,65.6,256.8,65.4
					C256.9,65.5,256.9,65.5,256.8,65.4L256.8,65.4z M268.2,53.9c-0.1,0-0.2,0-0.4-0.1c-3.8-0.6-7.3-0.5-10.6,0.2
					c-3.3,0.8-5.8,2.1-7.6,3.9c-1.2,1.2-1.7,2.4-1.6,3.5s0.7,2.1,1.9,2.8c1.2,0.7,2.8,1.3,5,1.7c0.1,0,0.2,0,0.2,0
					c3.7,0.6,7.4,0.5,11-0.4c3.6-0.9,6.3-2.2,8.1-4.1c1.6-1.7,1.9-3.3,0.8-4.7C273.9,55.5,271.7,54.5,268.2,53.9L268.2,53.9z"/>
				
					<linearGradient id="SVGID_70_" gradientUnits="userSpaceOnUse" x1="385.5139" y1="431.8383" x2="382.7929" y2="313.4754" gradientTransform="matrix(1 0 0 1 -102.388 -280)">
					<stop  offset="0" style="stop-color:#D3D3D3"/>
					<stop  offset="0.2185" style="stop-color:#A9A9A9"/>
					<stop  offset="0.3572" style="stop-color:#D1D1D1"/>
					<stop  offset="0.512" style="stop-color:#DDDDDD"/>
					<stop  offset="0.6248" style="stop-color:#B6B6B6"/>
					<stop  offset="0.7344" style="stop-color:#9A9A9A"/>
					<stop  offset="0.7915" style="stop-color:#7D7D7D"/>
					<stop  offset="0.8858" style="stop-color:#424242"/>
				</linearGradient>
				<path class="st70" d="M290.6,57.7c-1.9-0.3-3.5-0.5-4.6-0.7c-0.3,0-0.7-0.1-1.2-0.2c-0.9-0.2-2.2-0.4-3.8-0.7l-0.5,0.5l1.7,0.3
					c0,0,0,0,0.1,0c0.7,0.1,1,0.3,1,0.5s-0.8,1.2-2.4,2.9l-4.3,4.6c-1.5,1.6-2.4,2.4-2.8,2.6c-0.4,0.2-1.1,0.3-2.1,0.4l-0.4,0.4
					c2.2,0.3,3.8,0.5,4.9,0.7l7.5,1.3c1.7,0.3,3,0.4,4,0.5c1-0.9,2.2-1.9,3.4-2.9l-1.1-0.2l-2.8,1.8c-0.9,0-1.8-0.1-2.7-0.2
					c-1.2-0.1-2.8-0.4-4.8-0.7c-0.4-0.1-0.7-0.1-1.1-0.2c-0.7-0.1-1.3-0.2-2-0.4l0.5-0.5l2.2-2.4l5.1-5.4c1.2-1.3,1.9-2,2.2-2.1
					s0.7-0.2,1.3-0.1l2,0.3L290.6,57.7L290.6,57.7z"/>
				
					<linearGradient id="SVGID_71_" gradientUnits="userSpaceOnUse" x1="410.1328" y1="431.274" x2="407.4118" y2="312.9085" gradientTransform="matrix(1 0 0 1 -102.388 -280)">
					<stop  offset="0" style="stop-color:#D3D3D3"/>
					<stop  offset="0.2185" style="stop-color:#A9A9A9"/>
					<stop  offset="0.3572" style="stop-color:#D1D1D1"/>
					<stop  offset="0.512" style="stop-color:#DDDDDD"/>
					<stop  offset="0.6248" style="stop-color:#B6B6B6"/>
					<stop  offset="0.7344" style="stop-color:#9A9A9A"/>
					<stop  offset="0.7915" style="stop-color:#7D7D7D"/>
					<stop  offset="0.8858" style="stop-color:#424242"/>
				</linearGradient>
				<path class="st71" d="M300,72.3c-1-0.2-2.1-0.4-3.3-0.7c0.7-0.9,1.5-1.9,2.5-2.9l5.2-5.5c0.6-0.7,1.3-1.3,1.9-1.8
					c1.6,0.1,3,0.3,4.2,0.5c0.1,0,0.2,0,0.3,0c3,0.5,5,1.3,5.8,2.4s0.5,2.5-1,4.2c-1.8,1.9-4.1,3.2-7.1,3.8
					c-2.4,0.5-5.1,0.6-8.1,0.1C300.3,72.4,300.2,72.4,300,72.3L300,72.3z M312.9,61.4c-0.2,0-0.4-0.1-0.6-0.1l-3.5-0.5l-4.3-0.7
					c-0.2,0-0.4-0.1-0.6-0.1c-0.7-0.1-1.6-0.3-2.9-0.5l-0.5,0.5l1.2,0.3c0.7,0.2,1.1,0.3,1.1,0.4c0.1,0.1-0.1,0.4-0.4,0.8
					c-0.6,0.7-1.3,1.6-2.2,2.6l-2.3,2.5c-2,2.2-3.6,3.7-4.6,4.5l-1.9,0.2l-0.4,0.4c1.4,0.1,2.5,0.3,3.4,0.4c0.5,0.1,1.7,0.3,3.6,0.7
					l1.9,0.3c3.9,0.6,7.7,0.5,11.3-0.3s6.3-2.2,8.1-4.1c0.9-0.9,1.3-1.8,1.4-2.6c0-0.8-0.3-1.6-1.1-2.2c-0.7-0.7-1.8-1.2-3.1-1.6
					C315.3,61.9,314.1,61.6,312.9,61.4L312.9,61.4z"/>
			</g>
			<g class="st35">
				
					<linearGradient id="SVGID_72_" gradientUnits="userSpaceOnUse" x1="325.2872" y1="336.6642" x2="354.2896" y2="336.6642" gradientTransform="matrix(1 0 0 1 -102.388 -280)">
					<stop  offset="0" style="stop-color:#D3D3D3"/>
					<stop  offset="0.2185" style="stop-color:#CBCBCB"/>
					<stop  offset="0.3572" style="stop-color:#D1D1D1"/>
					<stop  offset="0.7112" style="stop-color:#DDDDDD"/>
					<stop  offset="0.994" style="stop-color:#B6B6B6"/>
				</linearGradient>
				<path class="st72" d="M244.4,50.6c-0.2,0-0.3-0.1-0.5-0.1c-3-0.5-5.7-0.6-8.2-0.4s-4.7,0.7-6.7,1.5s-3.6,1.8-4.7,3
					s-1.6,2.3-1.4,3.4s0.9,2.1,2.3,2.9s3.2,1.4,5.6,1.8c0.1,0,0.2,0,0.3,0c1.6,0.3,3.4,0.5,5.4,0.6s3.8,0.1,5.5,0.1
					c0.4-0.7,0.9-1.3,1.4-1.8s1-1,1.6-1.4l1.5-0.2l0.4-0.4c-0.8-0.1-1.7-0.2-2.7-0.4c-0.3,0-0.5-0.1-0.9-0.1
					c-1.1-0.2-2.6-0.5-4.5-0.8l-0.5,0.5l1.8,0.4c1,0.2,1.5,0.3,1.6,0.4c0.1,0,0.1,0.1,0,0.2s-0.4,0.5-1.1,1.2c-0.5,0.5-1,1-1.5,1.5
					c-2.4,0.1-4.4,0-6.2-0.3c-0.1,0-0.1,0-0.2,0c-3.2-0.6-5.1-1.6-5.9-3.1c-0.6-1.3-0.2-2.7,1.2-4.3c1.5-1.6,3.6-2.7,6.3-3.4
					c2.5-0.6,5.3-0.7,8.4-0.2c0.1,0,0.2,0,0.3,0.1c1.6,0.3,3,0.7,4,1.1c1.1,0.5,1.7,0.9,1.9,1.1c0.1,0.1-0.1,0.5-0.7,1l-0.5,0.6
					l1,0.2c1.2-1,2.2-1.8,3-2.4l-1.2-0.4c-1.4-0.5-2.6-0.9-3.6-1.2C246.4,51,245.4,50.8,244.4,50.6L244.4,50.6z"/>
				
					<linearGradient id="SVGID_73_" gradientUnits="userSpaceOnUse" x1="350.4772" y1="340.4046" x2="378.1424" y2="340.4046" gradientTransform="matrix(1 0 0 1 -102.388 -280)">
					<stop  offset="0" style="stop-color:#D3D3D3"/>
					<stop  offset="0.2185" style="stop-color:#CBCBCB"/>
					<stop  offset="0.3572" style="stop-color:#D1D1D1"/>
					<stop  offset="0.7112" style="stop-color:#DDDDDD"/>
					<stop  offset="0.994" style="stop-color:#B6B6B6"/>
				</linearGradient>
				<path class="st73" d="M256.9,66.1c-1.7-0.3-3-0.8-3.9-1.5s-1.4-1.6-1.3-2.7s0.7-2.3,1.9-3.5c0.9-1,2-1.7,3.4-2.4
					c1.4-0.6,2.9-1,4.5-1.2c1.6-0.2,3.2-0.1,4.9,0.2c0.1,0,0.1,0,0.2,0c1.8,0.3,3.1,0.8,4,1.4c1,0.7,1.4,1.5,1.4,2.4
					c0,1-0.6,2.1-1.7,3.3c-1.1,1.1-2.3,2.1-3.8,2.7c-1.5,0.7-3,1.1-4.6,1.3c-1.6,0.2-3.2,0.2-4.9-0.1
					C257.1,66.1,257,66.1,256.9,66.1L256.9,66.1z M268.3,54.5c-0.1,0-0.2,0-0.4-0.1c-3.7-0.6-7.3-0.5-10.6,0.2
					c-3.3,0.8-5.8,2.1-7.6,3.9c-1.1,1.2-1.7,2.4-1.6,3.5s0.7,2.1,1.9,2.8c1.2,0.7,2.8,1.3,5,1.7c0.1,0,0.2,0,0.2,0
					c3.7,0.6,7.4,0.5,11-0.4c3.6-0.9,6.3-2.2,8.1-4.1c1.6-1.7,1.9-3.3,0.8-4.7C274.1,56.1,271.8,55.2,268.3,54.5L268.3,54.5z"/>
				
					<linearGradient id="SVGID_74_" gradientUnits="userSpaceOnUse" x1="373.7622" y1="344.1125" x2="393.6316" y2="344.1125" gradientTransform="matrix(1 0 0 1 -102.388 -280)">
					<stop  offset="0" style="stop-color:#D3D3D3"/>
					<stop  offset="0.2185" style="stop-color:#CBCBCB"/>
					<stop  offset="0.3572" style="stop-color:#D1D1D1"/>
					<stop  offset="0.7112" style="stop-color:#DDDDDD"/>
					<stop  offset="0.994" style="stop-color:#B6B6B6"/>
				</linearGradient>
				<path class="st74" d="M290.7,58.4c-1.9-0.3-3.5-0.5-4.6-0.7c-0.3,0-0.7-0.1-1.2-0.2c-0.9-0.2-2.2-0.4-3.8-0.7l-0.5,0.5l1.7,0.3
					c0,0,0,0,0.1,0c0.7,0.1,1,0.3,1,0.5s-0.8,1.2-2.4,2.9l-4.4,4.6c-1.5,1.6-2.4,2.4-2.8,2.6c-0.4,0.2-1.1,0.3-2.1,0.4l-0.4,0.4
					c2.2,0.3,3.8,0.5,4.9,0.7l7.5,1.3c1.7,0.3,3,0.4,4,0.5c1-0.9,2.2-1.9,3.4-2.9l-1-0.2l-2.8,1.8c-0.9,0-1.8-0.1-2.7-0.2
					c-1.2-0.1-2.8-0.4-4.8-0.7c-0.3-0.1-0.7-0.1-1.1-0.2c-0.7-0.1-1.3-0.2-2-0.4l0.5-0.5l2.2-2.4l5-5.4c1.2-1.3,1.9-2,2.3-2.1
					c0.3-0.1,0.7-0.2,1.3-0.1l2,0.3L290.7,58.4L290.7,58.4z"/>
				
					<linearGradient id="SVGID_75_" gradientUnits="userSpaceOnUse" x1="393.4426" y1="347.1554" x2="423.0957" y2="347.1554" gradientTransform="matrix(1 0 0 1 -102.388 -280)">
					<stop  offset="0" style="stop-color:#D3D3D3"/>
					<stop  offset="0.2185" style="stop-color:#CBCBCB"/>
					<stop  offset="0.3572" style="stop-color:#D1D1D1"/>
					<stop  offset="0.7112" style="stop-color:#DDDDDD"/>
					<stop  offset="0.994" style="stop-color:#B6B6B6"/>
				</linearGradient>
				<path class="st75" d="M300.2,73c-1-0.2-2.1-0.4-3.3-0.7c0.7-0.9,1.5-1.9,2.5-2.9l5.2-5.5c0.6-0.7,1.3-1.3,1.9-1.8
					c1.6,0.1,3,0.3,4.1,0.5c0.1,0,0.2,0,0.3,0c3,0.5,5,1.3,5.8,2.4s0.5,2.5-1,4.2c-1.8,1.9-4.1,3.2-7,3.8c-2.4,0.5-5.1,0.6-8.1,0.1
					C300.4,73.1,300.3,73,300.2,73L300.2,73z M313,62.1c-0.2,0-0.4-0.1-0.6-0.1l-3.5-0.5l-4.3-0.7c-0.2,0-0.4-0.1-0.6-0.1
					c-0.7-0.1-1.6-0.3-2.9-0.5l-0.5,0.5l1.2,0.3c0.7,0.2,1.1,0.3,1.1,0.4c0.1,0.1-0.1,0.4-0.4,0.8c-0.6,0.7-1.3,1.6-2.2,2.6
					l-2.3,2.5c-2,2.2-3.6,3.7-4.6,4.5l-1.9,0.2l-0.4,0.4c1.4,0.2,2.5,0.3,3.4,0.4c0.5,0.1,1.7,0.3,3.6,0.7l1.9,0.3
					c3.9,0.6,7.7,0.5,11.3-0.3s6.3-2.2,8.1-4.1c0.9-0.9,1.3-1.8,1.4-2.6c0-0.8-0.3-1.6-1.1-2.2c-0.7-0.7-1.8-1.2-3.1-1.6
					C315.4,62.6,314.2,62.3,313,62.1L313,62.1z"/>
			</g>
		</g>
	</g>
</g>
</svg>
