<?xml version="1.0" encoding="utf-8"?>
<!-- Generator: Adobe Illustrator 21.1.0, SVG Export Plug-In . SVG Version: 6.00 Build 0)  -->
<svg version="1.1" id="Layer_1" xmlns="http://www.w3.org/2000/svg" xmlns:xlink="http://www.w3.org/1999/xlink" x="0px" y="0px"
	 viewBox="0 0 640 480" style="enable-background:new 0 0 640 480;" xml:space="preserve">
<style type="text/css">
	.st0{fill-rule:evenodd;clip-rule:evenodd;fill:#CCCCCC;}
	.st1{fill:#FFFFFF;}
	.st2{fill:#666666;}
</style>
<g>
	<path class="st0" d="M320,468c125.6,0,228-102.4,228-228c0-125.6-102.4-228-228-228C194.4,12,92,114.4,92,240
		C92,365.6,194.4,468,320,468z"/>
	<g>
		<g>
			<path class="st1" d="M378.6,126.7c1,0.2,1.9,0.9,2.5,1.8c0.4,0.6,0.6,1.3,0.6,2l7.4,75c0.2,1.6-0.6,3.1-1.9,3.8l-72.5,50.6
				c-0.6,0.4-1.2,0.6-1.9,0.7l0,0l-0.1,0h0h0l0,0h0c-0.8,0.1-1.6-0.1-2.3-0.5l-74-41.3c-1.2-0.7-1.9-1.9-2.1-3.1h0l-8.5-77.6l0,0
				l0-0.1l0-0.1l0,0l0-0.1l0,0v-0.1l0,0v0v-0.1v-0.1l0,0v-0.1l0,0l0-0.1l0,0l0-0.1l0-0.1v0l0-0.1l0,0l0-0.1l0,0l0-0.1l0,0l0-0.1l0,0
				l0-0.1l0,0l0-0.1l0,0l0-0.1l0,0l0.1-0.2l0-0.1l0,0l0-0.1l0,0l0-0.1l0,0l0-0.1l0,0l0-0.1l0,0v0l0,0l0,0l0,0l0,0l0,0l0,0l0,0l0,0
				l0,0l0,0l0,0l0,0v0l0,0l0,0l0,0l0,0l0,0l0,0l0,0l0,0l0,0l0,0l0.1-0.1l0,0l0,0l0,0l0,0l0,0l0.1-0.1l0,0l0,0l0,0l0,0l0,0l0,0l0,0
				l0,0l0,0l0,0l0,0l0,0l0,0l0,0l0,0l0,0l0,0l0,0l0,0l0,0l0,0l0,0l0,0l0,0l0,0l0,0l0,0l0,0l0,0l0,0l0,0l0,0l0,0l0,0l0,0l0,0
				c0.1-0.1,0.3-0.2,0.4-0.2v0l72-33.5c1.1-0.5,2.3-0.5,3.3,0L378.6,126.7z"/>
			<path class="st2" d="M386,128c-0.1-2-1.4-3.5-3.3-4l-79.4-27.9c-1.1-0.5-2.4-0.5-3.5,0.1l-76.1,35.4l0,0
				c-1.7,0.8-2.7,2.5-2.5,4.4l9,82h0c0.1,1.3,0.9,2.6,2.2,3.3l78.2,43.6c1.4,0.8,3.3,0.7,4.6-0.2l76.6-53.4c1.3-0.8,2.2-2.4,2-4.1
				L386,128z M301.9,104.7l69.9,24.6l-67.6,42.1l-68.9-35.7L301.9,104.7z M238.6,214.8l-7.9-71.8l69.6,36.1l7.3,74.3L238.6,214.8z
				 M316.4,253.4l-7.4-74.8l69.1-43.1l6.9,70L316.4,253.4z"/>
		</g>
		<g>
			<path class="st1" d="M491.5,265c1.3,1.3,1.6,3.3,0.7,5L451,349.4h0c-0.7,1.3-2,2.2-3.5,2.3l-96.5,7.4v0l0,0h0h0h0l0,0h0h0l0,0h0
				h0h0h0h0h0h0h0h0h0l0,0h0l0,0h0h0l0,0l0,0h0h0h0l0,0h0h0l0,0h0h0l0,0l0,0l0,0h0h0l0,0h0l0,0h0l0,0l0,0l0,0h0l0,0l0,0l0,0h0l0,0
				l0,0l0,0l0,0l0,0l0,0l0,0h0l0,0l0,0l0,0h0l0,0l0,0l0,0l0,0l0,0l0,0l0,0l0,0l0,0l0,0l0,0l0,0l0,0l0,0l0,0l0,0h0l0,0l0,0l0,0l0,0
				l0,0l0,0l0,0l0,0l0,0l0,0l0,0l0,0l0,0l0,0l0,0l0,0l0,0l0,0l0,0l0,0l0,0l0,0l0,0l0,0l0,0l0,0l0,0l0,0l0,0v0l0,0l0,0l0,0l0,0l0,0
				l0,0l0,0l0,0l0,0h0l0,0l0,0l0,0l0,0l0,0l0,0l0,0l0,0l0,0h0l0,0l0,0l0,0l0,0l0,0l0,0v0l0,0l0,0l0,0l0,0l0,0l0,0l0,0l0,0l0,0v0l0,0
				l0,0l0,0l0,0l0-0.1l0,0l0,0l0,0l0,0l0,0l0,0l0,0l0,0l0,0l0,0l0,0l0,0l0,0l0,0l0,0l0,0l0,0l0,0l0,0l0,0v0v0l-49.2-83.8
				c-0.7-1.2-0.8-2.7-0.2-3.9h0l36.7-81.8c0.3-0.8,0.9-1.5,1.7-2c0.5-0.3,1-0.5,1.5-0.6l0,0c0.1,0,0.2,0,0.3,0v0l0,0l0.2,0v0h0l0,0
				h0h0h0h0l0,0h0h0h0h0h0l0,0h0l0,0l0,0v0l90,5.7c1.3,0.1,2.5,0.8,3.2,1.7L491.5,265z"/>
			<path class="st2" d="M491.5,265l-60.1-73c-0.7-1-1.9-1.7-3.2-1.7l-90-5.7v0l-0.2,0l-0.5,0l0,0v0c-0.1,0-0.2,0-0.3,0l0,0
				c-0.5,0.1-1,0.3-1.5,0.6c-0.8,0.5-1.4,1.2-1.7,2L297.3,269h0c-0.5,1.2-0.5,2.7,0.2,3.9l49.2,83.8c1,1.5,2.1,2.5,4.2,2.3v0
				l96.5-7.4c1.5-0.1,2.8-1,3.5-2.3h0l41.3-79.4C493.1,268.3,492.8,266.3,491.5,265z M425.8,198.8l53.6,65.2l-87.7,2.3l-45.6-72.6
				L425.8,198.8z M350.1,345.5l-44-75l32.5-72.5l45.9,73L350.1,345.5z M444.4,343.3l-86.8,6.6l34.7-75l89-2.4L444.4,343.3z"/>
		</g>
		<g>
			<path class="st1" d="M335.4,242.7l-3,79.2l0,0c0,1.3-0.7,2.6-1.9,3.3l-75.7,46.9l0,0l0,0l0,0l0,0l0,0l0,0l0,0h0l0,0l0,0l0,0l0,0
				l0,0l0,0l0,0l-0.1,0l0,0l0,0l0,0l0,0l0,0l0,0l0,0l0,0l0,0l0,0l0,0l0,0l0,0l0,0h0l0,0l0,0l0,0l0,0l0,0l0,0l0,0l0,0l0,0l0,0l0,0
				l0,0l0,0h0l0,0l0,0l0,0l0,0l0,0l0,0h0l0,0l0,0l0,0l0,0l0,0l0,0l0,0l0,0l0,0l0,0l0,0l0,0l0,0h0l0,0l0,0l0,0h0l0,0h0l0,0l0,0l0,0h0
				l0,0h0l0,0h0l0,0h0h0l0,0h0l0,0h0h0h0h0h0h0l0,0l0,0h0h0l0,0h0l0,0h0l0,0h0l0,0l0,0h0l0,0l0,0h0l0,0l0,0h0l0,0l0,0l0,0l0,0l0,0
				l0,0h0l0,0l0,0l0,0l0,0l0,0h0l0,0l0,0l0,0l0,0l0,0l0,0l0,0l0,0l0,0l0,0l0,0l0,0l0,0l0,0l0,0h0l0,0l0,0h0l0,0l0,0l0,0l0,0l0,0l0,0
				l0,0l0,0l0,0h0l0,0l0,0h0l0,0l0,0l0,0l0,0l0,0l0,0l0,0l0,0l0,0l0,0l0,0l0,0l0,0l0,0l0,0l0,0l0,0l0,0v0l0,0l0,0h0l0,0l0,0l0,0
				l-69.3-54.6c-1.1-0.8-1.6-2.1-1.6-3.4l-2.3-84v0l0-0.1v0l0-0.1l0,0v-0.1l0,0l0-0.2l0-0.1l0,0l0-0.1l0,0l0-0.1l0,0l0-0.2v0l0-0.1
				l0-0.1v0l0-0.1v0l0-0.1l0-0.1l0,0l0-0.1v0l0-0.1v0l0-0.1l0,0l0-0.1l0,0l0-0.1l0,0l0,0l0-0.1l0-0.1l0,0l0-0.1l0,0l0-0.1l0,0l0-0.1
				l0,0l0-0.1l0,0l0,0l0,0l0,0l0,0l0,0l0,0l0,0l0,0l0,0l0,0l0,0v0l0-0.1l0,0l0,0l0,0l0,0l0,0l0,0l0,0l0,0l0,0l0,0l0.1-0.1l0,0
				l0.1-0.1l0,0l0,0l0,0l0,0l0,0l0,0l0,0l0,0l0,0l0,0l0,0l0.1-0.1l0,0l0,0l0,0l0,0l0,0l0,0l0,0l0,0l0,0l0,0l0,0l0,0l0,0l0,0l0,0l0,0
				l0,0l0,0l0,0l0,0l0,0l0,0l0,0l0,0l0,0l0,0l0,0l0,0l0,0l0,0l0,0l0,0l0,0l0,0l0,0l77.3-33.1c1.3-0.5,2.7-0.4,3.7,0.3l0,0l73.4,45.6
				C334.9,239.7,335.5,241.2,335.4,242.7z"/>
			<path class="st2" d="M338.1,236.1l-77.8-48.4l0,0c-1.2-0.7-2.6-0.9-4-0.3l-81.9,35.1l0,0l-0.1,0.1l-0.4,0.2l-0.4,0.2l-0.3,0.3
				l-0.2,0.1l-0.1,0.1l-0.3,0.3l-0.3,0.4l-0.1,0.1l-0.2,0.3l0,0.1l0,0.1l0,0.1l0,0.1l-0.1,0.2l0,0.1l-0.1,0.2l0,0.2l0,0.2l0,0.3
				l0,0.2l2.4,89.1c-0.1,1.3,0.5,2.7,1.6,3.6l73.4,57.9l0.3,0.3l0.3,0.2l0.3,0.2l0.3,0.1l0.4,0.1l0.4,0.1l0.3,0.1l0.4,0l0.4,0l0.4,0
				l0.3-0.1l0.3-0.1l0.4-0.2l0.4-0.2l0.3-0.2l80.2-49.7c4.7-2.9,4.8-75.7,5.2-87.4C340.3,238.6,339.5,237,338.1,236.1z M247.8,364.9
				l-65.1-51.3l-2.2-78.5l67.2,48.3V364.9z M252.5,276.2l-67.8-48.7l72.8-31.2l69.3,43.1L252.5,276.2z M328.4,321.5l-72,44.6v-82.2
				l74.8-37L328.4,321.5z"/>
		</g>
	</g>
</g>
</svg>
